<?xml version="1.0" encoding="utf-8"?>
<!DOCTYPE svg PUBLIC "-//W3C//DTD SVG 1.1//EN" "http://www.w3.org/Graphics/SVG/1.1/DTD/svg11.dtd" [
	<!ENTITY st0 "fill:#FFFFFF;">
	<!ENTITY st1 "fill:#808080;">
	<!ENTITY st2 "fill:#636F80;">
	<!ENTITY st3 "opacity:0.2;fill:#FFFFFF;">
	<!ENTITY st4 "opacity:0.2;fill:#636F80;">
	<!ENTITY st5 "opacity:0.2;fill:#808080;">
	<!ENTITY st6 "fill-rule:evenodd;clip-rule:evenodd;fill:#FFFFFF;">
	<!ENTITY st7 "fill-rule:evenodd;clip-rule:evenodd;fill:#808080;">
	<!ENTITY st8 "fill-rule:evenodd;clip-rule:evenodd;fill:#636F80;">
	<!ENTITY st9 "fill:#F7931E;">
]>
<svg version="1.1" id="img" xmlns="http://www.w3.org/2000/svg" xmlns:xlink="http://www.w3.org/1999/xlink" x="0px" y="0px"
	 width="18px" height="18px" viewBox="0 0 18 18" style="enable-background:new 0 0 18 18;" xml:space="preserve">
<g id="avg.default">
	<rect x="6" y="4" transform="matrix(-1.836970e-16 1 -1 -1.836970e-16 14 -4)" style="&st2;" width="6" height="2"/>
	<rect x="7" y="14" transform="matrix(-1 -1.224647e-16 1.224647e-16 -1 18 30)" style="&st2;" width="4" height="2"/>
	<rect x="7" y="2" transform="matrix(-1 -1.224647e-16 1.224647e-16 -1 18 6)" style="&st2;" width="4" height="2"/>
	<path style="&st2;" d="M13,8v2H5V8H13 M14,7H4v4h10V7L14,7z"/>
	<rect x="6" y="12" transform="matrix(-1.836970e-16 1 -1 -1.836970e-16 22 4)" style="&st2;" width="6" height="2"/>
</g>
</svg>
