<?xml version="1.0" encoding="utf-8"?>
<!DOCTYPE svg PUBLIC "-//W3C//DTD SVG 1.1//EN" "http://www.w3.org/Graphics/SVG/1.1/DTD/svg11.dtd" [
	<!ENTITY st0 "fill:#FFFFFF;">
	<!ENTITY st1 "fill:#808080;">
	<!ENTITY st2 "fill:#636F80;">
	<!ENTITY st3 "opacity:0.2;fill:#FFFFFF;">
	<!ENTITY st4 "opacity:0.2;fill:#636F80;">
	<!ENTITY st5 "opacity:0.2;fill:#808080;">
	<!ENTITY st6 "fill-rule:evenodd;clip-rule:evenodd;fill:#FFFFFF;">
	<!ENTITY st7 "fill-rule:evenodd;clip-rule:evenodd;fill:#808080;">
	<!ENTITY st8 "fill-rule:evenodd;clip-rule:evenodd;fill:#636F80;">
	<!ENTITY st9 "fill:#F7931E;">
]>
<svg version="1.1" id="img" xmlns="http://www.w3.org/2000/svg" xmlns:xlink="http://www.w3.org/1999/xlink" x="0px" y="0px"
	 width="18px" height="18px" viewBox="0 0 18 18" style="enable-background:new 0 0 18 18;" xml:space="preserve">
<g id="calculate-barchart.default">
	<polygon style="&st2;" points="12.125,10 11,13.158 12.371,13.158 11,16 14.375,11.875 12.5,11.875 13.625,10 	"/>
	<path style="&st2;" d="M15,8.184V5h-2v3h-1V6h-2v2.184C9.626,8.317,9.289,8.519,9,8.778V4H7v11H6V7H4v8H3V2H2v13v1h1h5.778
		c0.549,0.609,1.337,1,2.222,1h3c1.656,0,3-1.343,3-3v-3C17,9.696,16.162,8.598,15,8.184z M16,14c0,1.102-0.898,2-2,2h-3
		c-1.102,0-2-0.898-2-2v-3c0-1.102,0.898-2,2-2h3c1.102,0,2,0.898,2,2V14z"/>
</g>
</svg>
