<?xml version="1.0" encoding="utf-8"?>
<!DOCTYPE svg PUBLIC "-//W3C//DTD SVG 1.1//EN" "http://www.w3.org/Graphics/SVG/1.1/DTD/svg11.dtd" [
	<!ENTITY st0 "fill:#FFFFFF;">
	<!ENTITY st1 "fill:#808080;">
	<!ENTITY st2 "fill:#636F80;">
	<!ENTITY st3 "opacity:0.2;fill:#FFFFFF;">
	<!ENTITY st4 "opacity:0.2;fill:#636F80;">
	<!ENTITY st5 "opacity:0.2;fill:#808080;">
	<!ENTITY st6 "fill-rule:evenodd;clip-rule:evenodd;fill:#FFFFFF;">
	<!ENTITY st7 "fill-rule:evenodd;clip-rule:evenodd;fill:#808080;">
	<!ENTITY st8 "fill-rule:evenodd;clip-rule:evenodd;fill:#636F80;">
	<!ENTITY st9 "fill:#F7931E;">
]>
<svg version="1.1" id="img" xmlns="http://www.w3.org/2000/svg" xmlns:xlink="http://www.w3.org/1999/xlink" x="0px" y="0px"
	 width="18px" height="18px" viewBox="0 0 18 18" style="enable-background:new 0 0 18 18;" xml:space="preserve">
<g id="find-next.default">
	<polygon style="&st2;" points="13,8 15.8,8 15,4 11,4 11,10 13,10 13,10 13,9 	"/>
	<polygon style="&st2;" points="17,13.5 14,10 14,12 7,12 7,15 14,15 14,17 	"/>
	<rect x="8" y="4" style="&st2;" width="2" height="6"/>
	<polygon style="&st2;" points="7,11 6,11 6,13 1,13 3,4 7,4 	"/>
	<rect x="11" y="1" style="&st2;" width="3" height="2"/>
	<rect x="1" y="14.042" style="&st2;" width="5" height="2.958"/>
	<rect x="4" y="1" style="&st2;" width="3" height="2"/>
</g>
</svg>
