<?xml version="1.0" encoding="utf-8"?>
<!DOCTYPE svg PUBLIC "-//W3C//DTD SVG 1.1//EN" "http://www.w3.org/Graphics/SVG/1.1/DTD/svg11.dtd" [
	<!ENTITY st0 "fill:#FFFFFF;">
	<!ENTITY st1 "fill:#808080;">
	<!ENTITY st2 "fill:#636F80;">
	<!ENTITY st3 "opacity:0.2;fill:#FFFFFF;">
	<!ENTITY st4 "opacity:0.2;fill:#636F80;">
	<!ENTITY st5 "opacity:0.2;fill:#808080;">
	<!ENTITY st6 "fill-rule:evenodd;clip-rule:evenodd;fill:#FFFFFF;">
	<!ENTITY st7 "fill-rule:evenodd;clip-rule:evenodd;fill:#808080;">
	<!ENTITY st8 "fill-rule:evenodd;clip-rule:evenodd;fill:#636F80;">
	<!ENTITY st9 "fill:#F7931E;">
]>
<svg version="1.1" id="img" xmlns="http://www.w3.org/2000/svg" xmlns:xlink="http://www.w3.org/1999/xlink" x="0px" y="0px"
	 width="18px" height="18px" viewBox="0 0 18 18" style="enable-background:new 0 0 18 18;" xml:space="preserve">
<g id="icon-201.default">
	<path style="&st2;" d="M14,6L14,6c-0.552,0-1-0.448-1-1v0c0-0.552,0.448-1,1-1h0c0.552,0,1,0.448,1,1v0C15,5.552,14.552,6,14,6z"/>
	<path style="&st2;" d="M14,11c1.105,0,2,0.895,2,2s-0.895,2-2,2s-2-0.895-2-2S12.895,11,14,11 M14,10c-1.654,0-3,1.346-3,3
		s1.346,3,3,3s3-1.346,3-3S15.654,10,14,10L14,10z"/>
	<path style="&st2;" d="M14,3c1.105,0,2,0.895,2,2s-0.895,2-2,2s-2-0.895-2-2S12.895,3,14,3 M14,2c-1.654,0-3,1.346-3,3s1.346,3,3,3
		s3-1.346,3-3S15.654,2,14,2L14,2z"/>
	<polygon style="&st2;" points="10,4 1,4 6,9.833 6,15 8,14 8,9.833 10,7.5 	"/>
</g>
</svg>
