<?xml version="1.0" encoding="utf-8"?>
<!DOCTYPE svg PUBLIC "-//W3C//DTD SVG 1.1//EN" "http://www.w3.org/Graphics/SVG/1.1/DTD/svg11.dtd" [
	<!ENTITY st0 "fill:#FFFFFF;">
	<!ENTITY st1 "fill:#808080;">
	<!ENTITY st2 "fill:#636F80;">
	<!ENTITY st3 "opacity:0.2;fill:#FFFFFF;">
	<!ENTITY st4 "opacity:0.2;fill:#636F80;">
	<!ENTITY st5 "opacity:0.2;fill:#808080;">
	<!ENTITY st6 "fill-rule:evenodd;clip-rule:evenodd;fill:#FFFFFF;">
	<!ENTITY st7 "fill-rule:evenodd;clip-rule:evenodd;fill:#808080;">
	<!ENTITY st8 "fill-rule:evenodd;clip-rule:evenodd;fill:#636F80;">
	<!ENTITY st9 "fill:#F7931E;">
]>
<svg version="1.1" id="img" xmlns="http://www.w3.org/2000/svg" xmlns:xlink="http://www.w3.org/1999/xlink" x="0px" y="0px"
	 width="18px" height="18px" viewBox="0 0 18 18" style="enable-background:new 0 0 18 18;" xml:space="preserve">
<g id="invert-eye.default">
	<path style="&st4;" d="M10.349,7.532l-1.796,3.414C8.697,10.979,8.846,11,9,11c1.105,0,2-0.895,2-2
		C11,8.417,10.747,7.898,10.349,7.532z"/>
	<path style="&st2;" d="M13,2.493L12.106,2l-1.202,2.284C10.323,4.111,9.694,4,9,4C4.079,4,2,9,2,9s1.316,2.982,4.143,4.335
		L5,15.507L5.894,16L13,2.493z M9.446,7.056C9.302,7.023,9.154,7,9,7C7.895,7,7,7.895,7,9c0,0.583,0.252,1.105,0.65,1.469
		l-0.939,1.786C5.681,11.534,5,10.353,5,9c0-2.209,1.791-4,4-4c0.491,0,0.956,0.099,1.39,0.262L9.446,7.056z"/>
	<path style="&st4;" d="M11.869,4.643l-0.573,1.089C12.324,6.456,13,7.647,13,9c0,2.209-1.791,4-4,4
		c-0.491,0-0.955-0.101-1.39-0.262l-0.513,0.976C7.68,13.889,8.31,14,9,14c4.82,0,7-5,7-5S14.737,5.99,11.869,4.643z"/>
</g>
</svg>
