<?xml version="1.0" encoding="utf-8"?>
<!DOCTYPE svg PUBLIC "-//W3C//DTD SVG 1.1//EN" "http://www.w3.org/Graphics/SVG/1.1/DTD/svg11.dtd" [
	<!ENTITY st0 "fill:#FFFFFF;">
	<!ENTITY st1 "fill:#808080;">
	<!ENTITY st2 "fill:#636F80;">
	<!ENTITY st3 "opacity:0.2;fill:#FFFFFF;">
	<!ENTITY st4 "opacity:0.2;fill:#636F80;">
	<!ENTITY st5 "opacity:0.2;fill:#808080;">
	<!ENTITY st6 "fill-rule:evenodd;clip-rule:evenodd;fill:#FFFFFF;">
	<!ENTITY st7 "fill-rule:evenodd;clip-rule:evenodd;fill:#808080;">
	<!ENTITY st8 "fill-rule:evenodd;clip-rule:evenodd;fill:#636F80;">
	<!ENTITY st9 "fill:#F7931E;">
]>
<svg version="1.1" id="img" xmlns="http://www.w3.org/2000/svg" xmlns:xlink="http://www.w3.org/1999/xlink" x="0px" y="0px"
	 width="18px" height="18px" viewBox="0 0 18 18" style="enable-background:new 0 0 18 18;" xml:space="preserve">
<g id="invisible.default">
	<g>
		<path style="&st2;" d="M10.987,8.865C10.919,7.87,10.13,7.081,9.135,7.014L10.987,8.865z"/>
		<path style="&st2;" d="M7.014,9.135c0.068,0.995,0.856,1.784,1.852,1.852L7.014,9.135z"/>
	</g>
	<g>
		<rect x="8.5" y="-0.899" transform="matrix(0.7071 -0.7071 0.7071 0.7071 -3.7279 9)" style="&st2;" width="1" height="19.799"/>
	</g>
	<g>
		<g>
			<path style="&st2;" d="M10.562,12.683C10.082,12.887,9.554,13,9,13c-2.209,0-4-1.791-4-4c0-0.554,0.113-1.082,0.317-1.562
				L4.012,6.133C2.632,7.493,2,9,2,9s2.18,5,7,5c0.898,0,1.704-0.174,2.422-0.457L10.562,12.683z"/>
		</g>
		<g>
			<path style="&st2;" d="M7.438,5.317C7.918,5.113,8.446,5,9,5c2.209,0,4,1.791,4,4c0,0.554-0.113,1.082-0.317,1.562l1.284,1.284
				C15.344,10.492,16,9,16,9s-2.079-5-7-5C8.094,4,7.287,4.171,6.569,4.448L7.438,5.317z"/>
		</g>
	</g>
</g>
</svg>
