<?xml version="1.0" encoding="utf-8"?>
<!DOCTYPE svg PUBLIC "-//W3C//DTD SVG 1.1//EN" "http://www.w3.org/Graphics/SVG/1.1/DTD/svg11.dtd" [
	<!ENTITY st0 "fill:#FFFFFF;">
	<!ENTITY st1 "fill:#808080;">
	<!ENTITY st2 "fill:#636F80;">
	<!ENTITY st3 "opacity:0.2;fill:#FFFFFF;">
	<!ENTITY st4 "opacity:0.2;fill:#636F80;">
	<!ENTITY st5 "opacity:0.2;fill:#808080;">
	<!ENTITY st6 "fill-rule:evenodd;clip-rule:evenodd;fill:#FFFFFF;">
	<!ENTITY st7 "fill-rule:evenodd;clip-rule:evenodd;fill:#808080;">
	<!ENTITY st8 "fill-rule:evenodd;clip-rule:evenodd;fill:#636F80;">
	<!ENTITY st9 "fill:#F7931E;">
]>
<svg version="1.1" id="img" xmlns="http://www.w3.org/2000/svg" xmlns:xlink="http://www.w3.org/1999/xlink" x="0px" y="0px"
	 width="18px" height="18px" viewBox="0 0 18 18" style="enable-background:new 0 0 18 18;" xml:space="preserve">
<path id="open.default" style="&st2;" d="M16,6H2V3.02C2,2.456,2.457,2,3.02,2H7c0.271,0,0.53,0.107,0.721,0.299l1.913,2.402
	C9.824,4.893,10.083,5,10.354,5H16V6z M8.586,14L14,8.586l2.346,2.346L16.99,8.31C17.077,7.618,16.601,7,15.98,7H2.02
	C1.399,7,0.923,7.618,1.01,8.31l1.768,6.706C2.85,15.58,3.28,16,3.787,16H12v-2H8.586z M14,10l-3,3h2v3h2v-3h2L14,10z"/>
</svg>
