<?xml version="1.0" encoding="utf-8"?>
<!DOCTYPE svg PUBLIC "-//W3C//DTD SVG 1.1//EN" "http://www.w3.org/Graphics/SVG/1.1/DTD/svg11.dtd" [
	<!ENTITY st0 "fill:#FFFFFF;">
	<!ENTITY st1 "fill:#808080;">
	<!ENTITY st2 "fill:#636F80;">
	<!ENTITY st3 "opacity:0.2;fill:#FFFFFF;">
	<!ENTITY st4 "opacity:0.2;fill:#636F80;">
	<!ENTITY st5 "opacity:0.2;fill:#808080;">
	<!ENTITY st6 "fill-rule:evenodd;clip-rule:evenodd;fill:#FFFFFF;">
	<!ENTITY st7 "fill-rule:evenodd;clip-rule:evenodd;fill:#808080;">
	<!ENTITY st8 "fill-rule:evenodd;clip-rule:evenodd;fill:#636F80;">
	<!ENTITY st9 "fill:#F7931E;">
]>
<svg version="1.1" id="img" xmlns="http://www.w3.org/2000/svg" xmlns:xlink="http://www.w3.org/1999/xlink" x="0px" y="0px"
	 width="18px" height="18px" viewBox="0 0 18 18" style="enable-background:new 0 0 18 18;" xml:space="preserve">
<path id="roll-over.default" style="&st2;" d="M13.99,3H4.01C2.35,3,1,4.351,1,6.01v4.98C1,12.649,2.35,14,4.01,14H7v-2H4.01
	C3.453,12,3,11.547,3,10.99V6.01C3,5.453,3.453,5,4.01,5h9.98C14.547,5,15,5.453,15,6.01v4.98c0,0.557-0.453,1.01-1.01,1.01H12v-2
	l-3,3l3,3v-2h1.99c1.66,0,3.01-1.351,3.01-3.01V6.01C17,4.351,15.65,3,13.99,3z"/>
</svg>
