<?xml version="1.0" encoding="utf-8"?>
<!DOCTYPE svg PUBLIC "-//W3C//DTD SVG 1.1//EN" "http://www.w3.org/Graphics/SVG/1.1/DTD/svg11.dtd" [
	<!ENTITY st0 "fill:#FFFFFF;">
	<!ENTITY st1 "fill:#808080;">
	<!ENTITY st2 "fill:#636F80;">
	<!ENTITY st3 "opacity:0.2;fill:#FFFFFF;">
	<!ENTITY st4 "opacity:0.2;fill:#636F80;">
	<!ENTITY st5 "opacity:0.2;fill:#808080;">
	<!ENTITY st6 "fill-rule:evenodd;clip-rule:evenodd;fill:#FFFFFF;">
	<!ENTITY st7 "fill-rule:evenodd;clip-rule:evenodd;fill:#808080;">
	<!ENTITY st8 "fill-rule:evenodd;clip-rule:evenodd;fill:#636F80;">
	<!ENTITY st9 "fill:#F7931E;">
]>
<svg version="1.1" id="img" xmlns="http://www.w3.org/2000/svg" xmlns:xlink="http://www.w3.org/1999/xlink" x="0px" y="0px"
	 width="18px" height="18px" viewBox="0 0 18 18" style="enable-background:new 0 0 18 18;" xml:space="preserve">
<g id="row-no.default">
	<path style="&st2;" d="M15,2V1H2v1v6v1v6v1h1h5.078H15v-1H9V9h6V8H9V2H15z M3,15V9h5v6H3z M8,8H3V2h5V8z"/>
	<polygon style="&st2;" points="5,13 5,12 4,12 4,13 4,14 6,14 6,13 	"/>
	<polygon style="&st2;" points="5,10 4,10 4,11 5,11 5,12 6,12 6,11 6,10 	"/>
	<polygon style="&st2;" points="5,3 4,3 4,4 5,4 5,7 6,7 6,3 	"/>
</g>
</svg>
