<?xml version="1.0" encoding="utf-8"?>
<!DOCTYPE svg PUBLIC "-//W3C//DTD SVG 1.1//EN" "http://www.w3.org/Graphics/SVG/1.1/DTD/svg11.dtd" [
	<!ENTITY st0 "fill:#FFFFFF;">
	<!ENTITY st1 "fill:#808080;">
	<!ENTITY st2 "fill:#636F80;">
	<!ENTITY st3 "opacity:0.2;fill:#FFFFFF;">
	<!ENTITY st4 "opacity:0.2;fill:#636F80;">
	<!ENTITY st5 "opacity:0.2;fill:#808080;">
	<!ENTITY st6 "fill-rule:evenodd;clip-rule:evenodd;fill:#FFFFFF;">
	<!ENTITY st7 "fill-rule:evenodd;clip-rule:evenodd;fill:#808080;">
	<!ENTITY st8 "fill-rule:evenodd;clip-rule:evenodd;fill:#636F80;">
	<!ENTITY st9 "fill:#F7931E;">
]>
<svg version="1.1" id="img" xmlns="http://www.w3.org/2000/svg" xmlns:xlink="http://www.w3.org/1999/xlink" x="0px" y="0px"
	 width="18px" height="18px" viewBox="0 0 18 18" style="enable-background:new 0 0 18 18;" xml:space="preserve">
<g id="telescope.default">
	<path style="&st2;" d="M9.387,11.706C9.757,11.431,10,10.996,10,10.5C10,9.672,9.328,9,8.5,9S7,9.672,7,10.5
		c0,0.489,0.237,0.919,0.6,1.194L4,15.293L4.707,16L8,12.707V16h1v-3.268L12.268,16l0.707-0.707L9.387,11.706z"/>
	<g>
		<path style="&st2;" d="M6,10.5C6,9.119,7.119,8,8.5,8c1.107,0,2.036,0.725,2.364,1.723L14,8.4l-2.387-5.655L6.664,4.833
			l0.373,0.886L3.642,7.151l0.515,1.218L1.875,9.332l0.628,1.49l2.281-0.963l0.488,1.156l0.747-0.316C6.015,10.632,6,10.568,6,10.5z
			"/>
	</g>
	
		<rect x="13.528" y="1.095" transform="matrix(0.9214 -0.3887 0.3887 0.9214 -0.7362 6.0264)" style="&st2;" width="2" height="7.476"/>
</g>
</svg>
