<?xml version="1.0" encoding="utf-8"?>
<!DOCTYPE svg PUBLIC "-//W3C//DTD SVG 1.1//EN" "http://www.w3.org/Graphics/SVG/1.1/DTD/svg11.dtd" [
	<!ENTITY st0 "fill:#FFFFFF;">
	<!ENTITY st1 "fill:#808080;">
	<!ENTITY st2 "fill:#636F80;">
	<!ENTITY st3 "opacity:0.2;fill:#FFFFFF;">
	<!ENTITY st4 "opacity:0.2;fill:#636F80;">
	<!ENTITY st5 "opacity:0.2;fill:#808080;">
	<!ENTITY st6 "fill-rule:evenodd;clip-rule:evenodd;fill:#FFFFFF;">
	<!ENTITY st7 "fill-rule:evenodd;clip-rule:evenodd;fill:#808080;">
	<!ENTITY st8 "fill-rule:evenodd;clip-rule:evenodd;fill:#636F80;">
	<!ENTITY st9 "fill:#F7931E;">
]>
<svg version="1.1" id="img" xmlns="http://www.w3.org/2000/svg" xmlns:xlink="http://www.w3.org/1999/xlink" x="0px" y="0px"
	 width="18px" height="18px" viewBox="0 0 18 18" style="enable-background:new 0 0 18 18;" xml:space="preserve">
<g id="transform.default">
	<path style="&st2;" d="M12,8v1.219C12,10.755,10.755,12,9.219,12H8v1h1.646C11.498,13,13,11.498,13,9.646V8H12z"/>
	<rect x="7" y="4" style="&st2;" width="7" height="2"/>
	<rect x="4" y="7" style="&st2;" width="2" height="7"/>
	<rect x="4" y="4" style="&st2;" width="2" height="2"/>
	<path style="&st2;" d="M15,3v12H3V3H15 M16,2H2v14h14V2L16,2z"/>
	<polygon style="&st2;" points="8,14 6,12.5 8,11 	"/>
	<polygon style="&st2;" points="11,8 12.5,6 14,8 	"/>
</g>
</svg>
