<?xml version="1.0" encoding="utf-8"?>
<!DOCTYPE svg PUBLIC "-//W3C//DTD SVG 1.1//EN" "http://www.w3.org/Graphics/SVG/1.1/DTD/svg11.dtd" [
	<!ENTITY st0 "fill:#FFFFFF;">
	<!ENTITY st1 "fill:#808080;">
	<!ENTITY st2 "fill:#636F80;">
	<!ENTITY st3 "opacity:0.2;fill:#FFFFFF;">
	<!ENTITY st4 "opacity:0.2;fill:#636F80;">
	<!ENTITY st5 "opacity:0.2;fill:#808080;">
	<!ENTITY st6 "fill-rule:evenodd;clip-rule:evenodd;fill:#FFFFFF;">
	<!ENTITY st7 "fill-rule:evenodd;clip-rule:evenodd;fill:#808080;">
	<!ENTITY st8 "fill-rule:evenodd;clip-rule:evenodd;fill:#636F80;">
	<!ENTITY st9 "fill:#F7931E;">
]>
<svg version="1.1" id="img" xmlns="http://www.w3.org/2000/svg" xmlns:xlink="http://www.w3.org/1999/xlink" x="0px" y="0px"
	 width="18px" height="18px" viewBox="0 0 18 18" style="enable-background:new 0 0 18 18;" xml:space="preserve">
<g id="tree.default">
	<rect x="8" y="14" style="&st2;" width="1" height="1"/>
	<rect x="6" y="14" style="&st2;" width="1" height="1"/>
	<rect x="4" y="14" style="&st2;" width="1" height="1"/>
	<rect x="4" y="12" style="&st2;" width="1" height="1"/>
	<rect x="8" y="10" style="&st2;" width="1" height="1"/>
	<rect x="6" y="10" style="&st2;" width="1" height="1"/>
	<rect x="4" y="10" style="&st2;" width="1" height="1"/>
	<rect x="4" y="8" style="&st2;" width="1" height="1"/>
	<rect x="8" y="6" style="&st2;" width="1" height="1"/>
	<rect x="6" y="6" style="&st2;" width="1" height="1"/>
	<rect x="4" y="6" style="&st2;" width="1" height="1"/>
	<path style="&st2;" d="M15,14v1h-3v-1H15 M16,13h-5v3h5V13L16,13z"/>
	<path style="&st2;" d="M15,10v1h-3v-1H15 M16,9h-5v3h5V9L16,9z"/>
	<path style="&st2;" d="M15,6v1h-3V6H15 M16,5h-5v3h5V5L16,5z"/>
	<path style="&st2;" d="M6,3v1H3V3H6 M7,2H2v3h5V2L7,2z"/>
</g>
</svg>
