<?xml version="1.0" encoding="utf-8"?>
<!DOCTYPE svg PUBLIC "-//W3C//DTD SVG 1.1//EN" "http://www.w3.org/Graphics/SVG/1.1/DTD/svg11.dtd" [
	<!ENTITY st0 "fill:#FFFFFF;">
	<!ENTITY st1 "fill:#808080;">
	<!ENTITY st2 "fill:#636F80;">
	<!ENTITY st3 "opacity:0.2;fill:#FFFFFF;">
	<!ENTITY st4 "opacity:0.2;fill:#636F80;">
	<!ENTITY st5 "opacity:0.2;fill:#808080;">
	<!ENTITY st6 "fill-rule:evenodd;clip-rule:evenodd;fill:#FFFFFF;">
	<!ENTITY st7 "fill-rule:evenodd;clip-rule:evenodd;fill:#808080;">
	<!ENTITY st8 "fill-rule:evenodd;clip-rule:evenodd;fill:#636F80;">
	<!ENTITY st9 "fill:#F7931E;">
]>
<svg version="1.1" id="img" xmlns="http://www.w3.org/2000/svg" xmlns:xlink="http://www.w3.org/1999/xlink" x="0px" y="0px"
	 width="18px" height="18px" viewBox="0 0 18 18" style="enable-background:new 0 0 18 18;" xml:space="preserve">
<g id="type-string.default">
	<path style="&st2;" d="M13,2v1.547c0,1.55-0.667,2.368-2,2.453V5.154c0.482-0.148,0.725-0.478,0.725-0.991H11V2H13z"/>
	<path style="&st2;" d="M16,2v1.547c0,1.55-0.667,2.368-2,2.453V5.154c0.482-0.148,0.725-0.478,0.725-0.991H14V2H16z"/>
	<path style="&st2;" d="M5,6V4.453C5,2.903,5.667,2.086,7,2v0.846C6.518,2.994,6.274,3.325,6.274,3.838H7V6H5z"/>
	<path style="&st2;" d="M2,6V4.453C2,2.903,2.667,2.086,4,2v0.846C3.518,2.994,3.274,3.325,3.274,3.838H4V6H2z"/>
</g>
</svg>
