<?xml version="1.0" encoding="utf-8"?>
<!DOCTYPE svg PUBLIC "-//W3C//DTD SVG 1.1//EN" "http://www.w3.org/Graphics/SVG/1.1/DTD/svg11.dtd" [
	<!ENTITY st0 "fill:#FFFFFF;">
	<!ENTITY st1 "fill:#8C8C8C;">
	<!ENTITY st2 "fill:#BFBFBF;">
	<!ENTITY st3 "fill:#71B1E4;">
	<!ENTITY st4 "fill:#F7931E;">
]>
<svg version="1.1" id="img" xmlns="http://www.w3.org/2000/svg" xmlns:xlink="http://www.w3.org/1999/xlink" x="0px" y="0px"
	 width="18px" height="18px" viewBox="0 0 18 18" style="enable-background:new 0 0 18 18;" xml:space="preserve">
<g id="factor-only.default">
	<path style="&st3;" d="M14.496,17H3.504C2.123,17,1,15.877,1,14.496V3.504C1,2.123,2.123,1,3.504,1h10.992
		C15.877,1,17,2.123,17,3.504v10.992C17,15.877,15.877,17,14.496,17z M3.504,2C2.675,2,2,2.675,2,3.504v10.992
		C2,15.325,2.675,16,3.504,16h10.992C15.325,16,16,15.325,16,14.496V3.504C16,2.675,15.325,2,14.496,2H3.504z"/>
	<path style="&st4;" d="M10,13H9V6.904C8.554,7.354,7.718,7.878,7,8.176v-1.02C7.895,6.735,8.903,5.916,9.356,5H10V13z"/>
</g>
</svg>
