<?xml version="1.0" encoding="utf-8"?>
<!DOCTYPE svg PUBLIC "-//W3C//DTD SVG 1.1//EN" "http://www.w3.org/Graphics/SVG/1.1/DTD/svg11.dtd" [
	<!ENTITY st0 "fill:#FFFFFF;">
	<!ENTITY st1 "fill:#D3DEED;">
	<!ENTITY st2 "fill:#71B1E4;">
	<!ENTITY st3 "opacity:0.5;fill:#FFFFFF;">
	<!ENTITY st4 "fill:#D9D9D9;">
	<!ENTITY st5 "fill:#9D9D9C;">
	<!ENTITY st6 "fill:#BAC0CF;">
	<!ENTITY st7 "fill:#636F80;">
]>
<svg version="1.1" id="img" xmlns="http://www.w3.org/2000/svg" xmlns:xlink="http://www.w3.org/1999/xlink" x="0px" y="0px"
	 width="28px" height="16px" viewBox="0 0 28 16" style="enable-background:new 0 0 28 16;" xml:space="preserve">
<g id="asc.default">
	<path style="&st6;" d="M21.5,15h-15C2.91,15,0,12.09,0,8.5v0C0,4.91,2.91,2,6.5,2h15C25.09,2,28,4.91,28,8.5v0
		C28,12.09,25.09,15,21.5,15z"/>
	<circle style="&st7;" cx="7.5" cy="8.5" r="7.5"/>
	<path style="&st0;" d="M6,12H4v-1h2V12z M9,9H4V8h5V9z M12,6H4V5h8V6z"/>
	<path style="&st3;" d="M19,5h-2v1h2V5z M22,8h-5v1h5V8z M25,11h-8v1h8V11z"/>
</g>
</svg>
