<svg xmlns="http://www.w3.org/2000/svg" width="32" height="32" viewBox="0 0 18 18"><path d="M8.633,4.702L6.721,2.298C6.53,2.107,6.271,2,6,2H2.02C1.457,2,1,2.457,1,3.02v1.49V5h8.354	C9.084,5,8.824,4.893,8.633,4.702z" fill="#f7931e"/><path d="M16,16H2c-0.552,0-1-0.448-1-1V5h15c0.552,0,1,0.448,1,1v9C17,15.552,16.552,16,16,16z" fill="#71b1e4"/><circle cx="11" cy="9.714" r="1.714" fill="#fff"/><circle cx="7" cy="9.714" r="1.714" fill="#fff"/><path d="M10.058,11.976c0.298-0.071,0.611-0.118,0.942-0.118c1.657,0,3,0.959,3,2.143h-3	C11,13.218,10.64,12.52,10.058,11.976z" fill="#fff"/><path d="M7,11.857c1.657,0,3,0.959,3,2.143H4C4,12.816,5.343,11.857,7,11.857z" fill="#fff"/></svg>