<?xml version="1.0" encoding="utf-8"?>
<!-- BG Correct +width height -ENTITY -metadata -->
<!-- Generator: Adobe Illustrator 18.0.0, SVG Export Plug-In . SVG Version: 6.00 Build 0)  -->
<!DOCTYPE svg PUBLIC "-//W3C//DTD SVG 1.1//EN" "http://www.w3.org/Graphics/SVG/1.1/DTD/svg11.dtd">
<svg version="1.1" id="Слой_3"
	 xmlns="http://www.w3.org/2000/svg" xmlns:xlink="http://www.w3.org/1999/xlink" x="0px" y="0px" width="18px" height="18px" viewBox="0 0 18 18" 
	 enable-background="new 0 0 18 18" xml:space="preserve">
<g>
	<path fill="#8DBEC9" d="M11,3c0.5515137,0,1,0.4484863,1,1v6c0,0.5515137-0.4484863,1-1,1H7c-0.5515137,0-1-0.4484863-1-1V4
		c0-0.5515137,0.4484863-1,1-1H11 M11,2H7C5.8999023,2,5,2.8999023,5,4v6c0,1.1000977,0.8999023,2,2,2h4
		c1.1000977,0,2-0.8999023,2-2V4C13,2.8999023,12.1000977,2,11,2L11,2z"/>
</g>
<path fill="#636F80" d="M12,16H6c-1.6500001,0-3-1.3500004-3-3v-3c0-1.6499996,1.3499999-3,3-3h6c1.6499996,0,3,1.3500004,3,3v3
	C15,14.6499996,13.6499996,16,12,16z"/>
<path fill="#FFFFFF" d="M8.9996424,13.3280334h-0.000001c-0.2749996,0-0.499999-0.2249994-0.499999-0.5v-1.781251
	c0-0.2749996,0.2249994-0.499999,0.499999-0.499999h0.000001c0.2749996,0,0.499999,0.2249994,0.499999,0.499999l0.000001,1.781251
	C9.4996424,13.103034,9.274642,13.3280334,8.9996424,13.3280334z"/>
<circle fill="#FFFFFF" cx="9" cy="11" r="1"/>
</svg>
