<?xml version="1.0" encoding="utf-8"?>
<!DOCTYPE svg PUBLIC "-//W3C//DTD SVG 1.1//EN" "http://www.w3.org/Graphics/SVG/1.1/DTD/svg11.dtd" [
	<!ENTITY st0 "fill:#FFFFFF;">
	<!ENTITY st1 "fill:#808080;">
	<!ENTITY st2 "fill:#BFBFBF;">
	<!ENTITY st3 "fill:#71B1E4;">
	<!ENTITY st4 "fill:#F7931E;">
	<!ENTITY st5 "fill:#EDEDED;">
	<!ENTITY st6 "fill:#FFEEDE;">
]>
<svg version="1.1" id="img" xmlns="http://www.w3.org/2000/svg" xmlns:xlink="http://www.w3.org/1999/xlink" x="0px" y="0px"
	 width="18px" height="18px" viewBox="0 0 18 18" style="enable-background:new 0 0 18 18;" xml:space="preserve">
<path id="linregressreport.inverted" style="&st0;" d="M17,10h-4.59l3,3l-3,3H17v1h-6v-1l2.991-2.999L13.99,13L11,10V9h6V10z M3,15
	V2H2v14h8v-1H3z M6,8H5v1h1V8z M6,6H5v1h1V6z M10,4H9v1h1V4z M8,12H7v1h1V12z M14,6h-1v1h1V6z M8,6H7v1h1V6z M8,4H7v1h1V4z M12,2h-1
	v1h1V2z M10,10H9v1h1V10z M10,2H9v1h1V2z M14.953,2.754l-0.707-0.707L4.023,12.27l0.707,0.707L14.953,2.754z"/>
</svg>
