<?xml version="1.0" encoding="utf-8"?>
<svg version="1.1" id="img" xmlns="http://www.w3.org/2000/svg" xmlns:xlink="http://www.w3.org/1999/xlink" x="0px" y="0px"
	 width="18px" height="18px" viewBox="0 0 18 18" style="enable-background:new 0 0 18 18;" xml:space="preserve">
<g id="wsdl.default">
	<path style="fill:#F7931E;" d="M9,5C6.791,5,5,6.791,5,9s1.791,4,4,4c2.209,0,4-1.791,4-4S11.209,5,9,5z M11.22,7h-0.741
		c-0.146-0.294-0.304-0.572-0.469-0.813C10.479,6.357,10.892,6.636,11.22,7z M10,9c0,0.348-0.081,0.68-0.189,1H8.189
		C8.081,9.68,8,9.348,8,9s0.081-0.68,0.189-1h1.622C9.919,8.32,10,8.652,10,9z M8.652,11h0.697C9.234,11.184,9.115,11.354,9,11.505
		C8.885,11.354,8.766,11.184,8.652,11z M8.652,7C8.766,6.816,8.885,6.646,9,6.495C9.115,6.646,9.234,6.816,9.348,7H8.652z
		 M7.99,6.187C7.825,6.428,7.668,6.706,7.521,7H6.78C7.108,6.636,7.521,6.357,7.99,6.187z M6.184,8h0.96C7.061,8.321,7,8.653,7,9
		s0.061,0.679,0.144,1h-0.96C6.072,9.686,6,9.352,6,9S6.072,8.314,6.184,8z M6.78,11h0.741c0.146,0.294,0.304,0.572,0.469,0.813
		C7.521,11.643,7.108,11.364,6.78,11z M10.01,11.813c0.165-0.24,0.322-0.519,0.469-0.813h0.741
		C10.892,11.364,10.479,11.643,10.01,11.813z M11.816,10h-0.96C10.939,9.679,11,9.347,11,9s-0.061-0.679-0.144-1h0.96
		C11.928,8.314,12,8.648,12,9S11.928,9.686,11.816,10z"/>
	<g>
		<polygon style="fill:#3E7FAA;" points="12,5 15,5 12,2 		"/>
		<polygon style="fill:#71B1E4;" points="14,15 4,15 4,3 12,3 12,2 3,2 3,16 15,16 15,5 14,5 		"/>
	</g>
</g>
</svg>
