<?xml version="1.0" encoding="utf-8"?>
<!DOCTYPE svg PUBLIC "-//W3C//DTD SVG 1.1//EN" "http://www.w3.org/Graphics/SVG/1.1/DTD/svg11.dtd" [
	<!ENTITY st0 "fill:#FFFFFF;">
	<!ENTITY st1 "fill:#BFBFBF;">
	<!ENTITY st2 "fill:#71B1E4;">
	<!ENTITY st3 "fill:#F7931E;">
]>
<svg version="1.1" id="img" xmlns="http://www.w3.org/2000/svg" xmlns:xlink="http://www.w3.org/1999/xlink" x="0px" y="0px"
	 width="18px" height="18px" viewBox="0 0 18 18" style="enable-background:new 0 0 18 18;" xml:space="preserve">
<g id="join-diff-right.default">
	<path style="&st3;" d="M12,3c-1.165,0-2.296,0.337-3.273,0.975L8.515,4.113C10.287,5.026,11.5,6.87,11.5,9
		c0,2.13-1.213,3.974-2.985,4.887l0.211,0.138C9.704,14.663,10.835,15,12,15c3.309,0,6-2.691,6-6S15.309,3,12,3z"/>
	<path style="&st2;" d="M6,15c-3.309,0-6-2.691-6-6s2.691-6,6-6s6,2.691,6,6S9.309,15,6,15z M6,4C3.243,4,1,6.243,1,9s2.243,5,5,5
		s5-2.243,5-5S8.757,4,6,4z"/>
</g>
</svg>
