<?xml version="1.0" encoding="utf-8"?>
<!DOCTYPE svg PUBLIC "-//W3C//DTD SVG 1.1//EN" "http://www.w3.org/Graphics/SVG/1.1/DTD/svg11.dtd" [
	<!ENTITY st0 "fill:#FFFFFF;">
	<!ENTITY st1 "fill:#BFBFBF;">
	<!ENTITY st2 "fill:#71B1E4;">
	<!ENTITY st3 "fill:#F7931E;">
]>
<svg version="1.1" id="img" xmlns="http://www.w3.org/2000/svg" xmlns:xlink="http://www.w3.org/1999/xlink" x="0px" y="0px"
	 width="18px" height="18px" viewBox="0 0 18 18" style="enable-background:new 0 0 18 18;" xml:space="preserve">
<g id="join-full.default">
	<path style="&st3;" d="M12,3c-1.094,0-2.117,0.298-3,0.809C8.117,3.298,7.094,3,6,3C2.686,3,0,5.686,0,9s2.686,6,6,6
		c1.094,0,2.117-0.298,3-0.809C9.883,14.702,10.906,15,12,15c3.314,0,6-2.686,6-6S15.314,3,12,3z"/>
	<path style="&st0;" d="M9,14.204c0,0-0.574-0.385-0.716-0.497L9,12.813l0.716,0.893C9.574,13.819,9,14.204,9,14.204z"/>
	<path style="&st0;" d="M10.58,12.873l-0.763-0.646c0.216-0.255,0.407-0.532,0.567-0.824l0.877,0.481
		C11.068,12.233,10.839,12.566,10.58,12.873z M11.731,10.78l-0.955-0.297c0.099-0.317,0.166-0.647,0.199-0.979l0.995,0.1
		C11.93,10.002,11.85,10.398,11.731,10.78z M10.976,8.501c-0.033-0.333-0.099-0.662-0.198-0.979l0.955-0.296
		c0.118,0.381,0.198,0.777,0.238,1.178L10.976,8.501z M10.387,6.603c-0.161-0.292-0.352-0.57-0.567-0.825l0.764-0.646
		c0.258,0.306,0.487,0.638,0.679,0.989L10.387,6.603z"/>
	<path style="&st0;" d="M9,5.186L8.284,4.293C8.426,4.181,9,3.796,9,3.796s0.574,0.385,0.716,0.497L9,5.186z"/>
	<path style="&st0;" d="M7.416,12.868c-0.258-0.306-0.487-0.638-0.679-0.989l0.876-0.481c0.161,0.292,0.352,0.57,0.567,0.825
		L7.416,12.868z M6.267,10.774c-0.118-0.381-0.198-0.777-0.238-1.178l0.995-0.098c0.033,0.333,0.099,0.662,0.198,0.979L6.267,10.774
		z M7.025,8.496l-0.995-0.1C6.07,7.998,6.15,7.602,6.269,7.22l0.955,0.297C7.125,7.834,7.059,8.164,7.025,8.496z M7.616,6.598
		L6.739,6.116c0.192-0.35,0.421-0.683,0.681-0.989l0.763,0.646C7.967,6.029,7.776,6.306,7.616,6.598z"/>
</g>
</svg>
