<?xml version="1.0" encoding="utf-8"?>
<!DOCTYPE svg PUBLIC "-//W3C//DTD SVG 1.1//EN" "http://www.w3.org/Graphics/SVG/1.1/DTD/svg11.dtd" [
	<!ENTITY st0 "fill:#FFFFFF;">
	<!ENTITY st1 "fill:#D3DEED;">
	<!ENTITY st2 "fill:#71B1E4;">
	<!ENTITY st3 "opacity:0.5;fill:#FFFFFF;">
	<!ENTITY st4 "fill:#D9D9D9;">
	<!ENTITY st5 "fill:#9D9D9C;">
	<!ENTITY st6 "fill:#BAC0CF;">
	<!ENTITY st7 "fill:#636F80;">
]>
<svg version="1.1" id="img" xmlns="http://www.w3.org/2000/svg" xmlns:xlink="http://www.w3.org/1999/xlink" x="0px" y="0px"
	 width="28px" height="16px" viewBox="0 0 28 16" style="enable-background:new 0 0 28 16;" xml:space="preserve">
<g id="relative.default">
	<path style="&st6;" d="M21.5,15h-15C2.91,15,0,12.09,0,8.5v0C0,4.91,2.91,2,6.5,2h15C25.09,2,28,4.91,28,8.5v0
		C28,12.09,25.09,15,21.5,15z"/>
	<circle style="&st7;" cx="20.5" cy="8.5" r="7.5"/>
	<path style="&st0;" d="M23,5l-4.006,7.001L18,11.997L22.007,5H23z M18,9c-1.103,0-2-0.897-2-2s0.897-2,2-2s2,0.897,2,2
		S19.103,9,18,9z M18,6c-0.551,0-1,0.449-1,1s0.449,1,1,1s1-0.449,1-1S18.551,6,18,6z M23,12c-1.103,0-2-0.897-2-2s0.897-2,2-2
		s2,0.897,2,2S24.103,12,23,12z M23,9c-0.551,0-1,0.449-1,1s0.449,1,1,1s1-0.449,1-1S23.551,9,23,9z"/>
	<path style="&st3;" d="M9,11v1H6v-1h1V6.207L6.354,6.854L5.646,6.146L6.793,5H8v6H9z"/>
</g>
</svg>
