<?xml version="1.0" encoding="utf-8"?>
<!DOCTYPE svg PUBLIC "-//W3C//DTD SVG 1.1//EN" "http://www.w3.org/Graphics/SVG/1.1/DTD/svg11.dtd" [
	<!ENTITY st0 "fill:#FFFFFF;">
	<!ENTITY st1 "fill:#808080;">
	<!ENTITY st2 "fill:#BFBFBF;">
	<!ENTITY st3 "fill:#71B1E4;">
	<!ENTITY st4 "fill:#F7931E;">
	<!ENTITY st5 "fill:#D9D9D9;">
]>
<svg version="1.1" id="img" xmlns="http://www.w3.org/2000/svg" xmlns:xlink="http://www.w3.org/1999/xlink" x="0px" y="0px"
	 width="18px" height="18px" viewBox="0 0 18 18" style="enable-background:new 0 0 18 18;" xml:space="preserve">
<g id="item.default">
	<polygon style="&st3;" points="4,14 4,12 1,14.5 4,17 4,15 13,15 13,14 	"/>
	<polygon style="&st3;" points="17,3.5 14,1 14,3 5,3 5,4 14,4 14,6 	"/>
	<g>
		<path style="&st4;" d="M12.5,12h-7c-0.179,0-0.345-0.096-0.434-0.252s-0.089-0.347,0.002-0.502l3.5-6.016
			c0.178-0.307,0.686-0.307,0.863,0l3.5,6.016c0.091,0.155,0.091,0.346,0.002,0.502S12.679,12,12.5,12z M6.37,11.001h5.26L9,6.49
			L6.37,11.001z"/>
	</g>
</g>
</svg>
