<?xml version="1.0" encoding="utf-8"?>
<!-- Generator: Adobe Illustrator 18.1.0, SVG Export Plug-In . SVG Version: 6.00 Build 0)  -->
<svg version="1.1" id="Layer_5" xmlns="http://www.w3.org/2000/svg" xmlns:xlink="http://www.w3.org/1999/xlink" x="0px" y="0px"
	 width="18px" height="18px" viewBox="0 0 18 18" enable-background="new 0 0 18 18" xml:space="preserve">
<path fill="#E30612" d="M9.0000648,3.1470947L15.8743324,15H2.125797L9.0000648,3.1470947 M9.0000648,2
	C8.7141762,2,8.4282875,2.1398926,8.265934,2.4196777L1.1126133,14.7536621C0.7905919,15.309082,1.1975743,16,1.8467442,16
	h14.3066406c0.6491699,0,1.0561523-0.690918,0.7341309-1.2463379L9.7341957,2.4196777C9.5718422,2.1398926,9.2859535,2,9.0000648,2
	L9.0000648,2z"/>
<path fill="#E30612" d="M9.6250648,11h-1.25L8.0513153,7.5466704C8.023819,7.2533798,8.2545557,7,8.5491323,7h0.901865
	c0.2945766,0,0.5253124,0.2533798,0.497817,0.5466704L9.6250648,11z"/>
<path fill="#E30612" d="M9.5000648,14h-1c-0.2761431,0-0.5-0.2238579-0.5-0.5v-1c0-0.2761421,0.2238569-0.5,0.5-0.5h1
	c0.2761421,0,0.5,0.2238579,0.5,0.5v1C10.0000648,13.7761421,9.776207,14,9.5000648,14z"/>
</svg>
