<?xml version="1.0" encoding="utf-8"?>
<!DOCTYPE svg PUBLIC "-//W3C//DTD SVG 1.1//EN" "http://www.w3.org/Graphics/SVG/1.1/DTD/svg11.dtd" [
	<!ENTITY st0 "fill:#FFFFFF;">
]>
<svg version="1.1" id="img" xmlns="http://www.w3.org/2000/svg" xmlns:xlink="http://www.w3.org/1999/xlink" x="0px" y="0px"
	 width="18px" height="18px" viewBox="0 0 18 18" style="enable-background:new 0 0 18 18;" xml:space="preserve">
<path id="link.inverted" style="&st0;" d="M12,4v4.71l-0.855-0.872c-0.194-0.197-0.454-0.301-0.715-0.301
	c-0.177,0-0.355,0.047-0.514,0.143c-1.775,1.066-2.871,2.476-3.223,4.051c-0.334-0.7-0.517-1.425-0.522-2.119
	c-0.008-1.3,0.599-2.465,1.802-3.459C8.189,5.975,8.32,5.715,8.335,5.435c0.015-0.28-0.089-0.553-0.284-0.753L7.381,4H12 M13,3H5
	l2.336,2.383C3.577,8.486,5.3,12.771,8.066,15c-1.498-3.304,0.709-5.469,2.364-6.463L13,11.158V3z"/>
</svg>
