<?xml version="1.0" encoding="utf-8"?>
<!DOCTYPE svg PUBLIC "-//W3C//DTD SVG 1.1//EN" "http://www.w3.org/Graphics/SVG/1.1/DTD/svg11.dtd" [
	<!ENTITY st0 "fill:#FFFFFF;">
	<!ENTITY st1 "fill:#BFBFBF;">
	<!ENTITY st2 "fill:#8C8C8C;">
	<!ENTITY st3 "fill:#F59321;">
	<!ENTITY st4 "fill:#71B1E4;">
	<!ENTITY st5 "fill:#F7931E;">
]>
<svg version="1.1" id="img" xmlns="http://www.w3.org/2000/svg" xmlns:xlink="http://www.w3.org/1999/xlink" x="0px" y="0px"
	 width="18px" height="18px" viewBox="0 0 18 18" style="enable-background:new 0 0 18 18;" xml:space="preserve">
<g id="element-list.default">
	<path style="&st4;" d="M15,3H8V2h7V3z M15,4H8v1h7V4z M15,7H8v1h7V7z M15,9H8v1h7V9z M15,12H8v1h7V12z M15,14H8v1h7V14z"/>
	<g>
		<path style="&st5;" d="M6,3v2H4V3H6 M6,8v2H4V8H6 M6,13v2H4v-2H6 M7,2H3v4h4V2L7,2z M7,7H3v4h4V7L7,7z M7,12H3v4h4V12L7,12z"/>
	</g>
</g>
</svg>
