<?xml version="1.0" encoding="utf-8"?>
<!DOCTYPE svg PUBLIC "-//W3C//DTD SVG 1.1//EN" "http://www.w3.org/Graphics/SVG/1.1/DTD/svg11.dtd" [
	<!ENTITY st0 "fill:#FFFFFF;">
	<!ENTITY st1 "fill:#BFBFBF;">
	<!ENTITY st2 "fill:#8C8C8C;">
	<!ENTITY st3 "fill:#F59321;">
	<!ENTITY st4 "fill:#71B1E4;">
	<!ENTITY st5 "fill:#F7931E;">
]>
<svg version="1.1" id="img" xmlns="http://www.w3.org/2000/svg" xmlns:xlink="http://www.w3.org/1999/xlink" x="0px" y="0px"
	 width="18px" height="18px" viewBox="0 0 18 18" style="enable-background:new 0 0 18 18;" xml:space="preserve">
<g id="element-list.disabled">
	<path style="&st1;" d="M15,2v1H8V2H15z M8,5h7V4H8V5z M8,8h7V7H8V8z M8,10h7V9H8V10z M8,13h7v-1H8V13z M8,15h7v-1H8V15z"/>
	<path style="&st2;" d="M3,2v4h4V2H3z M6,5H4V3h2V5z M3,11h4V7H3V11z M4,8h2v2H4V8z M3,16h4v-4H3V16z M4,13h2v2H4V13z"/>
</g>
</svg>
