<?xml version="1.0" encoding="utf-8"?>
<!DOCTYPE svg PUBLIC "-//W3C//DTD SVG 1.1//EN" "http://www.w3.org/Graphics/SVG/1.1/DTD/svg11.dtd" [
	<!ENTITY st0 "fill:#FFFFFF;">
	<!ENTITY st1 "fill:#BFBFBF;">
	<!ENTITY st2 "fill:#8C8C8C;">
	<!ENTITY st3 "fill:#F59321;">
	<!ENTITY st4 "fill:#71B1E4;">
	<!ENTITY st5 "fill:#F7931E;">
]>
<svg version="1.1" id="img" xmlns="http://www.w3.org/2000/svg" xmlns:xlink="http://www.w3.org/1999/xlink" x="0px" y="0px"
	 width="18px" height="18px" viewBox="0 0 18 18" style="enable-background:new 0 0 18 18;" xml:space="preserve">
<path id="link.inverted" style="&st0;" d="M15.076,8.078l-1.899,1.899c0.133-0.622,0.106-1.28-0.093-1.914
	c-0.03-0.099-0.065-0.197-0.106-0.293l0.896-0.896c0.568-0.568,0.568-1.492,0-2.06l-0.688-0.688c-0.567-0.567-1.492-0.568-2.061,0
	l-3.65,3.649c-0.567,0.568-0.567,1.494,0,2.062l0.688,0.688c0.225,0.225,0.504,0.36,0.795,0.407l-1.315,1.315
	c-0.244-0.139-0.475-0.312-0.683-0.521l-0.688-0.688c-0.209-0.209-0.381-0.438-0.519-0.684c-0.108-0.191-0.193-0.394-0.259-0.6
	C5.154,8.67,5.413,7.433,6.273,6.574l3.65-3.65c1.232-1.232,3.236-1.23,4.466,0l0.688,0.688C16.308,4.843,16.308,6.845,15.076,8.078
	z M12.614,8.718c-0.005-0.04-0.012-0.08-0.021-0.12c-0.003-0.025-0.009-0.051-0.016-0.076c-0.02-0.094-0.044-0.186-0.073-0.278
	c-0.013-0.042-0.027-0.084-0.042-0.125c-0.013-0.038-0.028-0.076-0.044-0.114c-0.013-0.036-0.029-0.071-0.045-0.106
	c-0.152-0.341-0.368-0.658-0.648-0.937L11.04,6.274c-0.209-0.209-0.438-0.382-0.684-0.521L9.043,7.069
	c0.292,0.048,0.571,0.184,0.794,0.407l0.686,0.688c0.569,0.568,0.569,1.493,0,2.061l-3.65,3.649c-0.567,0.567-1.493,0.568-2.061,0
	l-0.686-0.688c-0.569-0.567-0.569-1.493,0-2.06l0.896-0.897c-0.04-0.095-0.075-0.192-0.107-0.291
	C4.717,9.305,4.69,8.647,4.823,8.024L2.924,9.923c-1.232,1.23-1.232,3.236,0,4.467l0.686,0.688c1.232,1.231,3.236,1.23,4.466,0
	l3.65-3.65c0.462-0.462,0.751-1.032,0.866-1.63c0.01-0.05,0.018-0.1,0.025-0.149c0.015-0.101,0.024-0.202,0.029-0.303
	c0.007-0.171,0.002-0.341-0.017-0.511C12.625,8.795,12.62,8.757,12.614,8.718z"/>
</svg>
