<?xml version="1.0" encoding="utf-8"?>
<!DOCTYPE svg PUBLIC "-//W3C//DTD SVG 1.1//EN" "http://www.w3.org/Graphics/SVG/1.1/DTD/svg11.dtd" [
	<!ENTITY st0 "fill:#FFFFFF;">
	<!ENTITY st1 "fill:#BFBFBF;">
	<!ENTITY st2 "fill:#8C8C8C;">
	<!ENTITY st3 "fill:#F59321;">
	<!ENTITY st4 "fill:#71B1E4;">
	<!ENTITY st5 "fill:#F7931E;">
]>
<svg version="1.1" id="img" xmlns="http://www.w3.org/2000/svg" xmlns:xlink="http://www.w3.org/1999/xlink" x="0px" y="0px"
	 width="18px" height="18px" viewBox="0 0 18 18" style="enable-background:new 0 0 18 18;" xml:space="preserve">
<path id="model.inverted" style="&st0;" d="M1.368,6c0,0,0.607,0.003,0.632,0.008v1.984C1.976,7.997,1.369,8,1.369,8
	C1.166,8,1.001,7.835,1.001,7.632L1,6.368C1,6.165,1.165,6,1.368,6z M16.999,8.368C16.999,8.165,16.834,8,16.631,8
	c0,0-0.606,0.003-0.631,0.008v1.984C16.025,9.997,16.632,10,16.632,10C16.836,10,17,9.835,17,9.632L16.999,8.368z M1,10.368
	l0.001,1.264C1.001,11.835,1.166,12,1.369,12c0,0,0.607-0.003,0.631-0.008v-1.984C1.976,10.003,1.368,10,1.368,10
	C1.165,10,1,10.165,1,10.368z M11.234,5.887c-0.43,0-0.825,0.178-1.188,0.535C9.683,6.778,9.402,7.317,9.205,8.039H8.599
	L8.562,8.271h0.596C8.997,9.01,8.85,9.826,8.715,10.719c-0.135,0.893-0.25,1.444-0.346,1.651c-0.097,0.207-0.222,0.311-0.377,0.311
	c-0.104,0-0.159-0.03-0.162-0.092c-0.004-0.061-0.006-0.154-0.006-0.278c0-0.115-0.034-0.214-0.104-0.296
	c-0.068-0.082-0.173-0.124-0.312-0.124c-0.135,0-0.255,0.04-0.361,0.118c-0.105,0.079-0.159,0.185-0.159,0.316
	c0,0.177,0.082,0.327,0.246,0.451c0.163,0.123,0.353,0.186,0.566,0.186c0.492,0,0.935-0.307,1.329-0.919
	c0.395-0.613,0.767-1.87,1.116-3.772h0.707l0.053-0.231h-0.712c0.147-0.799,0.281-1.32,0.401-1.565
	c0.119-0.244,0.271-0.366,0.456-0.366c0.088,0,0.131,0.031,0.131,0.094c0,0.024-0.014,0.07-0.043,0.137
	c-0.028,0.065-0.043,0.138-0.043,0.215c0,0.122,0.047,0.228,0.141,0.315s0.208,0.131,0.343,0.131c0.137,0,0.251-0.045,0.341-0.137
	c0.09-0.091,0.135-0.204,0.135-0.339c0-0.189-0.084-0.343-0.251-0.46C11.636,5.945,11.446,5.887,11.234,5.887z M15,5v8
	c0,1.104-0.896,2-2,2H5c-1.104,0-2-0.896-2-2V5c0-1.104,0.896-2,2-2h8C14.104,3,15,3.896,15,5z M14,5c0-0.552-0.448-1-1-1H5
	C4.448,4,4,4.448,4,5v8c0,0.552,0.448,1,1,1h8c0.552,0,1-0.448,1-1V5z"/>
</svg>
