<?xml version="1.0" encoding="utf-8"?>
<!DOCTYPE svg PUBLIC "-//W3C//DTD SVG 1.1//EN" "http://www.w3.org/Graphics/SVG/1.1/DTD/svg11.dtd" [
	<!ENTITY st0 "fill:#FFFFFF;">
	<!ENTITY st1 "fill:#BFBFBF;">
	<!ENTITY st2 "fill:#8C8C8C;">
	<!ENTITY st3 "fill:#F59321;">
	<!ENTITY st4 "fill:#71B1E4;">
	<!ENTITY st5 "fill:#F7931E;">
]>
<svg version="1.1" id="img" xmlns="http://www.w3.org/2000/svg" xmlns:xlink="http://www.w3.org/1999/xlink" x="0px" y="0px"
	 width="18px" height="18px" viewBox="0 0 18 18" style="enable-background:new 0 0 18 18;" xml:space="preserve">
<path id="schema.inverted" style="&st0;" d="M16,10V7h-4v1h-1V7h-1V5h1V2H7v3h2v2H7v1H6V7H2v3h2v2H2v3h4v-3H5v-2h1V9h1v1h2v3v1h1h2
	v1h4v-3h-1v-2H16z M14,12h-2v1h-2v-3h1V9h1v1h2V12z"/>
</svg>
