<?xml version="1.0" encoding="utf-8"?>
<!DOCTYPE svg PUBLIC "-//W3C//DTD SVG 1.1//EN" "http://www.w3.org/Graphics/SVG/1.1/DTD/svg11.dtd" [
	<!ENTITY st0 "fill:#FFFFFF;">
	<!ENTITY st1 "fill:#BFBFBF;">
	<!ENTITY st2 "fill:#8C8C8C;">
	<!ENTITY st3 "fill:#F59321;">
	<!ENTITY st4 "fill:#71B1E4;">
	<!ENTITY st5 "fill:#F7931E;">
]>
<svg version="1.1" id="img" xmlns="http://www.w3.org/2000/svg" xmlns:xlink="http://www.w3.org/1999/xlink" x="0px" y="0px"
	 width="18px" height="18px" viewBox="0 0 18 18" style="enable-background:new 0 0 18 18;" xml:space="preserve">
<g id="std-components.inverted">
	<path style="&st0;" d="M14.24,9H16v7h-6v-0.861c1.115-0.08,2.002-1.004,2.002-2.139S11.115,10.941,10,10.861V9h1.76
		c0.08,0,0.154-0.041,0.196-0.109c0.042-0.068,0.046-0.153,0.01-0.224c-0.08-0.161-0.121-0.334-0.121-0.513
		C11.846,7.518,12.364,7,13,7s1.154,0.518,1.154,1.154c0,0.179-0.041,0.352-0.121,0.513c-0.036,0.071-0.032,0.156,0.01,0.224
		C14.086,8.959,14.16,9,14.24,9z M11,13c0-0.636-0.518-1.154-1.154-1.154c-0.179,0-0.352,0.041-0.513,0.121
		c-0.071,0.036-0.156,0.032-0.224-0.01C9.041,11.914,9,11.84,9,11.76V10H7.139C7.059,11.115,6.135,12.002,5,12.002
		S2.941,11.115,2.861,10H2v6h7v-1.76c0-0.08,0.041-0.154,0.109-0.196c0.068-0.042,0.153-0.046,0.224-0.01
		c0.161,0.08,0.333,0.121,0.513,0.121C10.482,14.154,11,13.636,11,13z M3.956,9.109c0.042,0.068,0.046,0.153,0.01,0.224
		c-0.08,0.161-0.121,0.333-0.121,0.513C3.846,10.482,4.364,11,5,11s1.154-0.518,1.154-1.154c0-0.179-0.041-0.352-0.121-0.513
		c-0.036-0.072-0.032-0.156,0.01-0.224C6.086,9.041,6.16,9,6.24,9H8V7.139C6.885,7.059,5.998,6.135,5.998,5S6.885,2.941,8,2.861V2H2
		v7h1.76C3.84,9,3.914,9.041,3.956,9.109z M9,2v1.76c0,0.08-0.041,0.154-0.109,0.196c-0.068,0.042-0.153,0.046-0.224,0.01
		c-0.161-0.08-0.333-0.121-0.513-0.121C7.518,3.846,7,4.364,7,5s0.518,1.154,1.154,1.154c0.179,0,0.352-0.041,0.513-0.121
		c0.071-0.036,0.156-0.032,0.224,0.01C8.959,6.086,9,6.16,9,6.24V8h1.861c0.08-1.115,1.004-2.002,2.139-2.002S15.059,6.885,15.139,8
		H16V2H9z"/>
</g>
</svg>
