<?xml version="1.0" encoding="utf-8"?>
<!DOCTYPE svg PUBLIC "-//W3C//DTD SVG 1.1//EN" "http://www.w3.org/Graphics/SVG/1.1/DTD/svg11.dtd" [
	<!ENTITY st0 "fill:#FFFFFF;">
	<!ENTITY st1 "fill:#BFBFBF;">
	<!ENTITY st2 "fill:#8C8C8C;">
	<!ENTITY st3 "fill:#F59321;">
	<!ENTITY st4 "fill:#71B1E4;">
	<!ENTITY st5 "fill:#F7931E;">
]>
<svg version="1.1" id="img" xmlns="http://www.w3.org/2000/svg" xmlns:xlink="http://www.w3.org/1999/xlink" x="0px" y="0px"
	 width="18px" height="18px" viewBox="0 0 18 18" style="enable-background:new 0 0 18 18;" xml:space="preserve">
<g id="variable.default">
	<path style="&st4;" d="M8.096,4c0.352,0.373,0.617,0.746,0.797,1.12c0.129,0.258,0.341,0.937,0.635,2.034l0.947-1.421
		c0.251-0.344,0.556-0.673,0.915-0.985c0.359-0.312,0.675-0.526,0.947-0.64C12.51,4.036,12.7,4,12.908,4
		c0.309,0,0.554,0.082,0.737,0.248c0.183,0.165,0.274,0.366,0.274,0.603c0,0.273-0.054,0.459-0.161,0.56
		c-0.201,0.18-0.431,0.269-0.689,0.269c-0.151,0-0.312-0.032-0.484-0.097c-0.337-0.115-0.563-0.172-0.678-0.172
		c-0.172,0-0.377,0.101-0.614,0.301C10.848,6.085,10.317,6.806,9.7,7.875l0.883,3.703c0.136,0.567,0.251,0.906,0.344,1.017
		c0.093,0.111,0.186,0.167,0.28,0.167c0.151,0,0.326-0.083,0.528-0.248c0.395-0.33,0.732-0.761,1.012-1.292l0.377,0.194
		c-0.452,0.847-1.026,1.55-1.722,2.11C11.006,13.842,10.672,14,10.4,14c-0.402,0-0.721-0.226-0.958-0.678
		c-0.151-0.28-0.463-1.485-0.937-3.617c-1.12,1.945-2.017,3.197-2.691,3.757C5.377,13.821,4.953,14,4.544,14
		c-0.287,0-0.549-0.104-0.786-0.312C3.586,13.53,3.5,13.318,3.5,13.053c0-0.237,0.079-0.434,0.237-0.592s0.352-0.237,0.581-0.237
		c0.23,0,0.474,0.115,0.732,0.345c0.187,0.165,0.33,0.247,0.431,0.247c0.086,0,0.197-0.057,0.334-0.172
		c0.337-0.273,0.797-0.861,1.378-1.765c0.581-0.904,0.962-1.557,1.141-1.959C7.888,7.175,7.648,6.253,7.612,6.153
		c-0.165-0.467-0.38-0.797-0.646-0.99C6.701,4.969,6.309,4.872,5.793,4.872c-0.165,0-0.355,0.007-0.57,0.022V4.506L8.096,4z"/>
	<path style="&st5;" d="M1,2h3v1H2v12h2v1H1V2z M14,2v1h2v12h-2v1h3V2H14z"/>
</g>
</svg>
