<?xml version="1.0" encoding="utf-8"?>
<!DOCTYPE svg PUBLIC "-//W3C//DTD SVG 1.1//EN" "http://www.w3.org/Graphics/SVG/1.1/DTD/svg11.dtd" [
	<!ENTITY st0 "fill:#FFFFFF;">
	<!ENTITY st1 "fill:#BFBFBF;">
	<!ENTITY st2 "fill:#8C8C8C;">
	<!ENTITY st3 "fill:#F59321;">
	<!ENTITY st4 "fill:#71B1E4;">
	<!ENTITY st5 "fill:#F7931E;">
]>
<svg version="1.1" id="img" xmlns="http://www.w3.org/2000/svg" xmlns:xlink="http://www.w3.org/1999/xlink" x="0px" y="0px"
	 width="18px" height="18px" viewBox="0 0 18 18" style="enable-background:new 0 0 18 18;" xml:space="preserve">
<g id="vendor.default">
	<path style="&st5;" d="M10.703,3.444L10.703,3.444c0.182-0.182,0.478-0.182,0.66,0l3.773,3.772c0.182,0.182,0.182,0.478,0,0.66l0,0
		c-0.182,0.182-0.478,0.182-0.66,0l-3.773-3.773C10.521,3.921,10.521,3.626,10.703,3.444z M9.924,6.749l2.437,2.437
		c0.182,0.182,0.478,0.182,0.66,0l0,0c0.182-0.182,0.182-0.478,0-0.66l-2.437-2.437c-0.182-0.182-0.478-0.182-0.66,0l0,0
		C9.742,6.271,9.742,6.567,9.924,6.749z M7.177,14.437L7.177,14.437c0.182-0.182,0.182-0.478,0-0.66L3.53,10.13
		c-0.182-0.182-0.478-0.182-0.66,0l0,0c-0.182,0.182-0.182,0.478,0,0.66l3.647,3.647C6.699,14.619,6.995,14.619,7.177,14.437z
		 M8.058,11.689L8.058,11.689c0.182-0.182,0.182-0.478,0-0.66L5.709,8.68c-0.182-0.182-0.478-0.182-0.66,0l0,0
		c-0.182,0.182-0.182,0.478,0,0.66l2.349,2.349C7.58,11.871,7.875,11.871,8.058,11.689z"/>
	<path style="&st4;" d="M2.797,11.112c-0.091,0.091-0.211,0.137-0.33,0.137s-0.239-0.046-0.33-0.137
		c-0.182-0.182-0.182-0.478,0-0.66C4.17,8.419,5.897,8.121,7.44,8.267c0.055,0.331,0.119,0.651,0.183,0.96
		C6.168,9.035,4.675,9.233,2.797,11.112z M15.863,6.888c-0.182-0.182-0.478-0.182-0.66,0c-1.876,1.875-3.365,2.082-4.813,1.896
		c0.063,0.308,0.127,0.628,0.181,0.958c1.541,0.141,3.264-0.165,5.292-2.194C16.046,7.366,16.046,7.07,15.863,6.888z M11.112,2.797
		c0.182-0.182,0.182-0.478,0-0.66c-0.182-0.182-0.478-0.182-0.66,0c-2.77,2.77-2.311,4.991-1.906,6.951
		c0.393,1.9,0.764,3.694-1.658,6.116c-0.182,0.182-0.182,0.478,0,0.66C6.979,15.954,7.099,16,7.218,16
		c0.119,0,0.239-0.046,0.33-0.137c2.778-2.778,2.318-5.002,1.912-6.965C9.068,7.002,8.698,5.21,11.112,2.797z"/>
</g>
</svg>
