<?xml version="1.0" encoding="utf-8"?>
<svg version="1.1" id="img" xmlns="http://www.w3.org/2000/svg" xmlns:xlink="http://www.w3.org/1999/xlink" x="0px" y="0px"
	 width="18px" height="18px" viewBox="0 0 18 18" style="enable-background:new 0 0 18 18;" xml:space="preserve">
<path id="crm-1cv8-import.inverted" style="fill:#FFFFFF;" d="M17.001,13.091 M13,9h1c0-1.654-1.346-3-3-3S8,7.346,8,9s1.346,3,3,3
	h6.477C17.355,12.344,17,13,17,13l0,0v4h-3.882c-1.233,0.638-2.632,1-4.118,1c-4.971,0-9-4.029-9-9c0-4.971,4.029-9,9-9s9,4.029,9,9
	c0,0.688-0.084,1.356-0.231,2H11c-1.103,0-2-0.897-2-2s0.897-2,2-2S13,7.897,13,9z M14,16h2v-2h-1v1h-1V16z M3,6H1v1h1v7h1V6z M5,4
	H2v1h2v9h1V4z M15,9h1c0-2.757-2.243-5-5-5S6,6.243,6,9s2.243,5,5,5h2v-1h-2c-2.206,0-4-1.794-4-4s1.794-4,4-4S15,6.794,15,9z"/>
</svg>
