<?xml version="1.0" encoding="utf-8"?>
<svg version="1.1" id="img" xmlns="http://www.w3.org/2000/svg" xmlns:xlink="http://www.w3.org/1999/xlink" x="0px" y="0px"
	 width="18px" height="18px" viewBox="0 0 18 18" style="enable-background:new 0 0 18 18;" xml:space="preserve">
<g id="crm-1cv7-7.default">
	<rect style="fill:#FFFF00;" width="18" height="18"/>
	<path style="fill:#4C4680;" d="M17,15h-6c-2.757,0-5-2.243-5-5s2.243-5,5-5s5,2.243,5,5h-1c0-2.206-1.794-4-4-4s-4,1.794-4,4
		s1.794,4,4,4h6V15z"/>
	<path style="fill:#D32F2F;" d="M17,13h-6c-1.654,0-3-1.346-3-3s1.346-3,3-3s3,1.346,3,3h-1c0-1.103-0.897-2-2-2s-2,0.897-2,2
		s0.897,2,2,2h6V13z"/>
	<polygon style="fill:#D32F2F;" points="2,5 2,6 4,6 4,15 5,15 5,5 	"/>
	<polygon style="fill:#4C4680;" points="1,7 1,8 2,8 2,15 3,15 3,7 	"/>
</g>
</svg>
