<?xml version="1.0" encoding="utf-8"?>
<svg version="1.1" id="img" xmlns="http://www.w3.org/2000/svg" xmlns:xlink="http://www.w3.org/1999/xlink" x="0px" y="0px"
	 width="18px" height="18px" viewBox="0 0 18 18" style="enable-background:new 0 0 18 18;" xml:space="preserve">
<g id="crm-microsoftcrm-import.disabled">
	<path style="fill:#BFBFBF;" d="M17,6.252c0,3.974,0,10.013,0,10.013c-4.799-1.807-12.169-1.651-16,0.052
		c2.914-1.703,8.464-2.941,12.284-1.703c0,0,0-2.16,0-4.763C14.787,8.722,15.75,7.564,17,6.252z"/>
	<path style="fill:#6D6D6D;" d="M1,14.923c0,0,0,0.619,0,1.394c1.909-1.703,6.297-2.684,8.052-2.839c0,0,0-0.476,0-1.255v-2.28
		V0.987C7.606,9.606,1.826,14.356,1,14.923z"/>
	<path style="fill:#8C8C8C;" d="M9.052,9.942v2.28c0,0.778,0,1.255,0,1.255C7.297,13.633,2.909,14.613,1,16.316
		c2.914-1.703,8.464-2.941,12.284-1.703c0,0,0-2.16,0-4.763V3.567C12.481,6.107,10.869,8.236,9.052,9.942z"/>
	<rect x="13" y="13" style="fill:#595959;" width="4" height="4"/>
	<polygon style="fill:#E6E6E6;" points="15,14 15,15 14,15 14,16 15,16 16,16 16,15 16,14 	"/>
</g>
</svg>
