<?xml version="1.0" encoding="utf-8"?>
<svg version="1.1" id="img" xmlns="http://www.w3.org/2000/svg" xmlns:xlink="http://www.w3.org/1999/xlink" x="0px" y="0px"
	 width="18px" height="18px" viewBox="0 0 18 18" style="enable-background:new 0 0 18 18;" xml:space="preserve">
<g id="db-bigquery.default">
	
		<linearGradient id="SVGID_1_" gradientUnits="userSpaceOnUse" x1="306" y1="-1186" x2="306" y2="-1201.9752" gradientTransform="matrix(1 0 0 -1 -297 -1185)">
		<stop  offset="0" style="stop-color:#4387FD"/>
		<stop  offset="1" style="stop-color:#4683EA"/>
	</linearGradient>
	<path style="fill:url(#SVGID_1_);" d="M3.915,16.193L0.229,9.807c-0.288-0.5-0.288-1.115,0-1.615l3.686-6.385
		C4.203,1.308,4.737,1,5.314,1h7.373c0.577,0,1.11,0.308,1.399,0.807l3.686,6.385c0.288,0.5,0.288,1.115,0,1.615l-3.686,6.385
		C13.797,16.692,13.263,17,12.686,17H5.314C4.737,17,4.203,16.692,3.915,16.193z"/>
	<path style="fill:#FFFFFF;" d="M7.454,8.874h0.615v1.641c-0.254-0.155-0.466-0.371-0.615-0.628V8.874z M8.674,10.747
		c0.105,0.019,0.212,0.031,0.321,0.031c0.1,0,0.198-0.011,0.294-0.027v-2.73H8.674V10.747z M12.84,12.502l-0.337,0.337
		c-0.059,0.06-0.156,0.06-0.216,0l-1.28-1.28c-0.002-0.002-0.001-0.006-0.004-0.009C10.449,11.987,9.759,12.257,9,12.257
		c-1.799,0-3.257-1.458-3.257-3.257c0-1.799,1.458-3.258,3.257-3.258c1.799,0,3.257,1.458,3.257,3.258
		c0,0.759-0.271,1.449-0.706,2.003c0.003,0.002,0.006,0.001,0.009,0.004l1.28,1.28C12.899,12.346,12.899,12.443,12.84,12.502z
		 M11.472,9c0-1.365-1.107-2.472-2.472-2.472C7.635,6.528,6.529,7.635,6.529,9c0,1.365,1.107,2.471,2.471,2.471
		C10.365,11.471,11.472,10.365,11.472,9z M9.95,10.497c0.257-0.164,0.47-0.391,0.615-0.66V9.295H9.95V10.497z"/>
</g>
</svg>
