<?xml version="1.0" encoding="utf-8"?>
<svg version="1.1" id="img" xmlns="http://www.w3.org/2000/svg" xmlns:xlink="http://www.w3.org/1999/xlink" x="0px" y="0px"
	 width="18px" height="18px" viewBox="0 0 18 18" style="enable-background:new 0 0 18 18;" xml:space="preserve">
<path id="db-dbase.inverted" style="fill:#FFFFFF;" d="M15.99,2.5C15.992,2.483,16,2.466,15.996,2.448
	c-0.032-0.148-0.227-0.322-0.554-0.487c-0.365-0.187-0.896-0.361-1.536-0.505c-0.649-0.144-1.398-0.256-2.229-0.339
	C10.844,1.039,9.957,1,9.047,1H8.991c-0.93,0-1.835,0.043-2.689,0.131C5.478,1.213,4.729,1.33,4.075,1.479
	C3.431,1.627,2.914,1.801,2.549,1.987C2.227,2.152,2.027,2.326,2.004,2.478C2.002,2.486,2.007,2.493,2.007,2.5H2v13h0.006
	c-0.013,0.157,0.171,0.314,0.334,0.417c0.304,0.2,0.796,0.387,1.422,0.548c0.663,0.166,1.441,0.3,2.323,0.392
	C6.985,16.952,7.952,17,8.953,17h0.061c1.019,0,2.004-0.052,2.925-0.156c0.881-0.096,1.659-0.23,2.312-0.403
	c0.621-0.162,1.11-0.353,1.418-0.554c0.148-0.098,0.31-0.239,0.32-0.387H16v-13H15.99z M4.769,14.724
	c-0.139,0.077-0.313,0.027-0.391-0.11l-0.342-0.611c-0.077-0.138-0.027-0.312,0.11-0.389c0.138-0.077,0.312-0.028,0.391,0.109
	l0.341,0.61C4.955,14.471,4.906,14.646,4.769,14.724z M6.549,14.747c-0.138,0.077-0.312,0.028-0.39-0.11l-1.243-2.221
	c-0.076-0.137-0.027-0.312,0.11-0.389c0.139-0.078,0.313-0.028,0.39,0.109l1.243,2.221C6.736,14.495,6.688,14.671,6.549,14.747z
	 M8.104,14.724c-0.264,0.149-0.594,0.062-0.752-0.19l-0.001,0.001l-0.017-0.027L7.32,14.479l-0.018-0.031
	c-0.099-0.177-0.092-0.385,0-0.55c0.005-0.01,0.011-0.017,0.016-0.028c0.092-0.164,0.099-0.371,0.002-0.547l-1.426-2.547
	c-0.078-0.139-0.028-0.313,0.11-0.39c0.138-0.078,0.312-0.028,0.389,0.108l1.895,3.387c0.011,0.02,0.02,0.04,0.024,0.061
	l0.008,0.014C8.473,14.229,8.376,14.572,8.104,14.724z M10.002,14.729c-0.136,0.076-0.29,0.09-0.429,0.051
	c-0.139-0.04-0.264-0.131-0.34-0.268l-0.917-1.639c0,0-0.001-0.002-0.002-0.003l-0.033-0.062c-0.101-0.177-0.093-0.385-0.002-0.55
	c0.005-0.01,0.011-0.018,0.017-0.027c0.092-0.165,0.099-0.371,0.002-0.548L6.825,9.052c-0.078-0.138-0.029-0.313,0.11-0.39
	c0.138-0.077,0.312-0.028,0.389,0.11l2.222,3.969c0.011,0.019,0.019,0.04,0.024,0.06l0.648,1.159
	C10.371,14.231,10.274,14.576,10.002,14.729z M11.831,14.725c-0.272,0.152-0.615,0.055-0.768-0.217L9.28,11.322l-0.004-0.007
	l-0.043-0.077c-0.1-0.179-0.094-0.387-0.002-0.551c0.006-0.011,0.012-0.019,0.017-0.027c0.079-0.142,0.094-0.312,0.037-0.469
	l-1.539-2.75C7.669,7.304,7.718,7.13,7.856,7.053c0.139-0.077,0.312-0.027,0.391,0.11l2.015,3.601l1.621,2.893l0.166,0.299
	C12.2,14.229,12.104,14.572,11.831,14.725z M13.711,14.712c-0.271,0.152-0.616,0.055-0.769-0.217L10.28,9.737l-0.033-0.059
	L10.232,9.65c-0.101-0.176-0.093-0.384-0.001-0.549c0.005-0.01,0.011-0.02,0.016-0.029c0.093-0.163,0.099-0.37,0.002-0.547
	L8.682,5.725C8.604,5.587,8.653,5.412,8.791,5.336c0.139-0.078,0.312-0.028,0.39,0.11l4.587,8.194
	c0.012,0.021,0.019,0.04,0.024,0.062l0.137,0.241C14.08,14.216,13.983,14.56,13.711,14.712z"/>
</svg>
