<?xml version="1.0" encoding="utf-8"?>
<svg version="1.1" id="img" xmlns="http://www.w3.org/2000/svg" xmlns:xlink="http://www.w3.org/1999/xlink" x="0px" y="0px"
	 width="18px" height="18px" viewBox="0 0 18 18" style="enable-background:new 0 0 18 18;" xml:space="preserve">
<g id="db-dbase-import.disabled">
	<path style="fill:#8C8C8C;" d="M16,2.5H2v13h0.006c-0.013,0.157,0.171,0.314,0.334,0.417c0.304,0.2,0.796,0.387,1.422,0.548
		c0.663,0.166,1.441,0.3,2.323,0.392C6.985,16.952,7.952,17,8.953,17h0.061c1.019,0,2.004-0.052,2.925-0.156
		c0.881-0.096,1.659-0.23,2.312-0.403c0.621-0.162,1.11-0.353,1.418-0.554c0.148-0.098,0.31-0.239,0.32-0.387H16V2.5z"/>
	<path style="fill:#BFBFBF;" d="M15.996,2.448c0.033,0.165-0.161,0.329-0.326,0.438c-0.308,0.2-0.797,0.392-1.418,0.554
		c-0.653,0.173-1.432,0.308-2.312,0.403C11.019,3.948,10.033,4,9.015,4H8.953C7.952,4,6.985,3.952,6.085,3.856
		c-0.882-0.092-1.66-0.226-2.323-0.392C3.136,3.304,2.644,3.117,2.34,2.917C2.169,2.809,1.971,2.644,2.004,2.478
		c0.023-0.152,0.223-0.326,0.545-0.491c0.365-0.187,0.882-0.36,1.526-0.509C4.729,1.33,5.478,1.213,6.302,1.131
		C7.156,1.043,8.061,1,8.991,1h0.056c0.91,0,1.797,0.039,2.631,0.117c0.83,0.083,1.579,0.195,2.229,0.339
		c0.64,0.143,1.171,0.318,1.536,0.505C15.769,2.126,15.964,2.3,15.996,2.448z"/>
	<path style="fill:#FFFFFF;" d="M8.682,5.725l1.567,2.801c0.097,0.177,0.091,0.384-0.002,0.547c-0.005,0.01-0.011,0.019-0.016,0.029
		c-0.092,0.165-0.1,0.373,0.001,0.549l0.015,0.028l0.033,0.059l2.662,4.758c0.152,0.271,0.497,0.369,0.769,0.217
		c0.273-0.152,0.369-0.496,0.218-0.768l-0.137-0.241c-0.006-0.021-0.013-0.041-0.024-0.061L9.181,5.446
		c-0.077-0.138-0.251-0.188-0.39-0.11C8.653,5.412,8.604,5.587,8.682,5.725z"/>
	<path style="fill:#FFFFFF;" d="M6.659,14.357l-1.243-2.221c-0.076-0.138-0.251-0.188-0.39-0.109
		c-0.138,0.076-0.187,0.252-0.11,0.389l1.243,2.221c0.078,0.139,0.252,0.188,0.39,0.11C6.688,14.671,6.736,14.495,6.659,14.357z"/>
	<path style="fill:#FFFFFF;" d="M4.878,14.333l-0.341-0.61c-0.078-0.138-0.253-0.187-0.391-0.109
		c-0.138,0.077-0.188,0.251-0.11,0.389l0.342,0.611c0.077,0.138,0.252,0.188,0.391,0.11C4.906,14.646,4.955,14.471,4.878,14.333z"/>
	<path style="fill:#FFFFFF;" d="M12.049,13.956l-0.166-0.299l-1.621-2.894L8.247,7.163c-0.078-0.138-0.252-0.188-0.391-0.11
		C7.718,7.13,7.669,7.304,7.746,7.441l1.539,2.75c0.057,0.157,0.042,0.328-0.037,0.469c-0.005,0.009-0.011,0.017-0.017,0.027
		c-0.092,0.164-0.098,0.372,0.002,0.551l0.043,0.077l0.004,0.007l1.783,3.186c0.152,0.271,0.496,0.369,0.768,0.217
		C12.104,14.572,12.2,14.229,12.049,13.956z"/>
	<path style="fill:#FFFFFF;" d="M10.219,13.96L9.57,12.801c-0.006-0.02-0.014-0.041-0.024-0.06L7.324,8.773
		c-0.077-0.139-0.251-0.188-0.389-0.11c-0.14,0.076-0.188,0.252-0.11,0.389l1.473,2.632c0.097,0.177,0.09,0.383-0.002,0.548
		c-0.006,0.01-0.012,0.017-0.017,0.027c-0.091,0.165-0.099,0.373,0.002,0.55l0.033,0.062c0.001,0.001,0.002,0.003,0.002,0.003
		l0.917,1.639c0.076,0.137,0.201,0.228,0.34,0.268c0.139,0.039,0.293,0.025,0.429-0.051C10.274,14.576,10.371,14.231,10.219,13.96z"
		/>
	<path style="fill:#FFFFFF;" d="M8.321,13.956l-0.008-0.014c-0.005-0.021-0.014-0.041-0.024-0.061l-1.895-3.387
		c-0.077-0.137-0.251-0.186-0.389-0.108c-0.139,0.076-0.188,0.251-0.11,0.39l1.426,2.546c0.097,0.177,0.09,0.384-0.002,0.549
		c-0.005,0.01-0.011,0.018-0.016,0.027c-0.092,0.165-0.099,0.373,0,0.55l0.018,0.031l0.015,0.027l0.017,0.027l0.001-0.001
		c0.158,0.252,0.488,0.339,0.752,0.19C8.376,14.572,8.473,14.229,8.321,13.956z"/>
	<rect x="13" y="13" style="fill:#595959;" width="4" height="4"/>
	<polygon style="fill:#E6E6E6;" points="15,14 15,15 14,15 14,16 15,16 16,16 16,15 16,14 	"/>
</g>
</svg>
