<?xml version="1.0" encoding="utf-8"?>
<svg version="1.1" id="img" xmlns="http://www.w3.org/2000/svg" xmlns:xlink="http://www.w3.org/1999/xlink" x="0px" y="0px"
	 width="18px" height="18px" viewBox="0 0 18 18" style="enable-background:new 0 0 18 18;" xml:space="preserve">
<g id="db-interbase.default">
	<path style="fill:#E3001B;" d="M16,2.5v13h-0.01c-0.01,0.15-0.17,0.29-0.32,0.39c-0.31,0.2-0.8,0.391-1.42,0.551
		c-0.65,0.17-1.43,0.31-2.31,0.399C11.02,16.95,10.03,17,9.01,17H8.95c-1,0-1.96-0.05-2.87-0.14c-0.88-0.101-1.65-0.231-2.32-0.4
		c-0.62-0.16-1.12-0.34-1.42-0.54c-0.16-0.11-0.35-0.26-0.33-0.42H2v-13H16z"/>
	<path style="fill:#E6694B;" d="M15.996,2.448c0.033,0.165-0.161,0.329-0.326,0.438c-0.308,0.2-0.797,0.392-1.418,0.554
		c-0.653,0.173-1.431,0.308-2.312,0.403C11.019,3.948,10.033,4,9.015,4H8.953C7.952,4,6.985,3.952,6.085,3.856
		c-0.881-0.092-1.66-0.225-2.323-0.392C3.136,3.304,2.643,3.117,2.34,2.917C2.169,2.809,1.971,2.644,2.004,2.478
		c0.023-0.152,0.222-0.326,0.544-0.491c0.365-0.187,0.882-0.36,1.527-0.509C4.729,1.33,5.479,1.213,6.302,1.131
		C7.156,1.043,8.062,1,8.991,1h0.056c0.91,0,1.796,0.039,2.631,0.117c0.83,0.083,1.579,0.195,2.228,0.339
		c0.64,0.144,1.171,0.318,1.536,0.505C15.769,2.126,15.964,2.3,15.996,2.448z"/>
	<path style="fill:#FFFFFF;" d="M9.16,13.24c-3-1.11-2.75-3.391-2.72-4.061C6.46,8.51,6.54,7.99,5.57,7.36
		C4.82,6.88,3.04,6.37,2,6.14V6.02c1.39,0.07,2.95,0.79,3.27,0.94C5.65,7.12,6.35,7.35,7.05,7.4C7.76,7.46,8.4,7.91,8.4,8.36
		C8.4,8.8,8.46,9.01,8.25,8.95C8.13,7.75,7.06,7.7,6.91,7.92c-0.16,0.22-0.13,0.5,0.51,0.83c0.72,0.37,0.8,0.83,0.68,1.13
		C8.07,9.77,7.92,9.65,7.55,9.46c0.21,0.26,0.37,0.47,0.2,1.65C7.58,12.28,8.32,12.66,9.16,13.24z"/>
	<path style="fill:#FFFFFF;" d="M8.897,11.864c0.264,0.468,0.432,0.573,0.965,0.74c0.531,0.169,0.739,0.504,0.77,0.631
		c-0.31-0.099-0.464-0.168-0.533-0.099c0.336,0.28,1.272,1.371,1.077,2.168c-0.294-0.797-0.56-1.078-1.062-1.398
		C9.61,13.582,8.839,12.842,8.897,11.864z"/>
	<path style="fill:#FFFFFF;" d="M15.33,5.63c0.18,0.14-0.42,0.54-0.71,0.67c-0.21,0.09-0.26,0.11-0.19,0.231
		c0.2,0.359-1,0.779-1.22,0.809C13.06,7.37,13,7.42,13.02,7.6c0.04,0.29-0.76,0.681-1.31,0.96c-0.56,0.28-1.79,0.671-2.38,1.53
		c-0.61,0.851-0.22,1.5-0.17,1.771c-1.18-1.511,1.07-3.03,1.07-3.03c0.63-0.57-0.49-0.26-1.08,0.5C8.76,9.82,7.96,9.5,9.21,8.02
		C10.24,6.8,14.46,5.14,16,4.76v0.48C15.63,5.42,15.24,5.56,15.33,5.63z"/>
	<path style="fill:#FFFFFF;" d="M7.561,8.185c0-0.108-0.09-0.202-0.203-0.202c-0.11,0-0.203,0.094-0.203,0.202
		c0,0.113,0.093,0.204,0.203,0.204C7.471,8.389,7.561,8.298,7.561,8.185z"/>
</g>
</svg>
