<?xml version="1.0" encoding="utf-8"?>
<svg version="1.1" id="img" xmlns="http://www.w3.org/2000/svg" xmlns:xlink="http://www.w3.org/1999/xlink" x="0px" y="0px"
	 width="18px" height="18px" viewBox="0 0 18 18" style="enable-background:new 0 0 18 18;" xml:space="preserve">
<g id="db-msaccess-import.default">
	<path style="fill:#974063;" d="M16,2.5H2v13h0.006c-0.013,0.157,0.17,0.314,0.333,0.417c0.303,0.2,0.796,0.387,1.422,0.548
		c0.663,0.166,1.441,0.3,2.323,0.392C6.985,16.952,7.952,17,8.953,17h0.062c1.019,0,2.004-0.052,2.924-0.156
		c0.881-0.096,1.66-0.23,2.312-0.403c0.622-0.162,1.11-0.353,1.418-0.554c0.148-0.098,0.31-0.239,0.321-0.387H16V2.5z"/>
	<path style="fill:#C55C8C;" d="M15.996,2.448c0.033,0.165-0.161,0.329-0.326,0.438c-0.308,0.2-0.797,0.392-1.418,0.554
		c-0.653,0.173-1.431,0.308-2.312,0.403C11.019,3.948,10.033,4,9.015,4H8.953C7.952,4,6.985,3.952,6.085,3.856
		c-0.881-0.092-1.66-0.226-2.323-0.392C3.136,3.304,2.643,3.117,2.34,2.917C2.169,2.809,1.971,2.644,2.004,2.478
		c0.023-0.152,0.222-0.326,0.544-0.491c0.365-0.187,0.882-0.36,1.527-0.509C4.729,1.33,5.479,1.213,6.302,1.131
		C7.156,1.043,8.062,1,8.991,1h0.056c0.91,0,1.796,0.039,2.631,0.117c0.83,0.083,1.579,0.195,2.228,0.339
		c0.64,0.143,1.171,0.318,1.536,0.505C15.769,2.126,15.964,2.3,15.996,2.448z"/>
	<path style="fill:#FFFFFF;" d="M13.131,7.363c-0.252-0.829-2.318-2.13-4.191-1.031C6.87,7.551,7.842,9.017,7.842,9.017
		l-3.044,3.494v1.078h1.777v-1.403h1.407l0.023-1.01h1.238l0.493-0.653c0,0,1.897,0.142,2.808-0.796
		C13.247,9.008,13.505,8.58,13.131,7.363z M11.133,7.949c-0.396,0-0.714-0.259-0.714-0.575c0-0.313,0.317-0.569,0.714-0.569
		c0.393,0,0.712,0.256,0.712,0.569C11.845,7.69,11.526,7.949,11.133,7.949z"/>
	<rect x="13" y="13" style="fill:#373943;" width="4" height="4"/>
	<polygon style="fill:#BDCCD4;" points="15,14 15,15 14,15 14,16 15,16 16,16 16,15 16,14 	"/>
</g>
</svg>
