<?xml version="1.0" encoding="utf-8"?>
<svg version="1.1" id="img" xmlns="http://www.w3.org/2000/svg" xmlns:xlink="http://www.w3.org/1999/xlink" x="0px" y="0px"
	 width="18px" height="18px" viewBox="0 0 18 18" style="enable-background:new 0 0 18 18;" xml:space="preserve">
<g id="db-msaccess-import.inverted">
	<path style="fill:#FFFFFF;" d="M11.133,6.805c-0.396,0-0.714,0.256-0.714,0.569c0,0.316,0.317,0.575,0.714,0.575
		c0.393,0,0.712-0.259,0.712-0.575C11.845,7.061,11.525,6.805,11.133,6.805z"/>
	<path style="fill:#FFFFFF;" d="M15.99,2.5C15.992,2.483,16,2.466,15.996,2.448c-0.032-0.148-0.227-0.322-0.554-0.487
		c-0.365-0.186-0.896-0.361-1.536-0.505c-0.649-0.144-1.398-0.256-2.229-0.339C10.844,1.039,9.957,1,9.047,1H8.991
		c-0.93,0-1.835,0.043-2.689,0.131C5.478,1.213,4.729,1.33,4.075,1.479C3.431,1.627,2.914,1.801,2.549,1.987
		C2.227,2.152,2.027,2.326,2.004,2.478C2.002,2.486,2.007,2.493,2.007,2.5H2v13h0.006c-0.013,0.157,0.171,0.314,0.334,0.417
		c0.304,0.2,0.796,0.387,1.422,0.548c0.663,0.166,1.441,0.3,2.323,0.392C6.985,16.952,7.952,17,8.953,17h0.061
		c1.019,0,2.004-0.052,2.925-0.156c0.022-0.002,0.039-0.006,0.061-0.008V12h4V2.5H15.99z M12.545,9.727
		c-0.91,0.938-2.808,0.796-2.808,0.796l-0.493,0.653H8.006l-0.024,1.01H6.575v1.403H4.798v-1.078l3.045-3.494
		c0,0-0.974-1.466,1.097-2.685c1.873-1.099,3.939,0.202,4.191,1.031C13.505,8.58,13.246,9.008,12.545,9.727z"/>
	<path style="fill:#FFFFFF;" d="M16,14v1v1h-1h-1v-1h1v-1H16z M17,13h-4v4h4V13z"/>
</g>
</svg>
