<?xml version="1.0" encoding="utf-8"?>
<svg version="1.1" id="img" xmlns="http://www.w3.org/2000/svg" xmlns:xlink="http://www.w3.org/1999/xlink" x="0px" y="0px"
	 width="18px" height="18px" viewBox="0 0 18 18" style="enable-background:new 0 0 18 18;" xml:space="preserve">
<g id="db-postgres-import.inverted">
	<path style="fill:#FFFFFF;" d="M9.926,12.819c0.252,0.044,0.491,0,0.634-0.036c0.071-0.017,0.152-0.048,0.205-0.087
		c-0.042-0.02-0.111-0.045-0.216-0.068c-0.584-0.117-0.64-0.192-0.828-0.429c-0.069-0.088-0.141-0.169-0.217-0.244
		c-0.025-0.026-0.049-0.029-0.068-0.032c-0.043-0.005-0.102,0.019-0.141,0.046c-0.049,0.035-0.093,0.097-0.115,0.162
		c-0.023,0.07-0.034,0.156,0.013,0.217C9.408,12.648,9.676,12.777,9.926,12.819z"/>
	<path style="fill:#FFFFFF;" d="M4.393,11.96c0.096,0.094,0.252,0.198,0.436,0.283c0.184,0.085,0.465,0.141,0.73,0.156
		c0.152,0.01,0.295,0.005,0.402-0.018c0.067-0.012,0.115-0.027,0.128-0.041c0.019-0.364-0.148-0.411-0.255-0.44
		c-0.028-0.008-0.053-0.015-0.075-0.023C5.397,12.149,4.79,12.034,4.393,11.96z"/>
	<path style="fill:#FFFFFF;" d="M5.994,11.015c0.03-0.051,0.055-0.108,0.082-0.169c0.022-0.053,0.07-0.146,0.141-0.265
		c0.246-0.444,0.73-1.314,0.647-1.847c-0.049-0.301-0.32-0.492-1.021-0.402c0.004,0.151,0.026,0.29,0.048,0.434
		c0.022,0.153,0.047,0.316,0.056,0.508c0.005,0.186-0.021,0.376-0.04,0.574C5.86,10.225,5.812,10.627,5.994,11.015z M6.225,8.466
		c0.046-0.013,0.113-0.015,0.179-0.004c0.067,0.01,0.127,0.03,0.171,0.052c0.049,0.029,0.068,0.062,0.068,0.095
		c0,0.049-0.044,0.096-0.109,0.13C6.479,8.768,6.427,8.777,6.378,8.771c-0.067-0.005-0.13-0.041-0.184-0.095
		C6.149,8.629,6.126,8.573,6.129,8.543C6.136,8.505,6.169,8.477,6.225,8.466z"/>
	<path style="fill:#FFFFFF;" d="M5.823,7.404c0.286-0.523,0.81-1.19,1.642-1.56C7.067,5.765,6.423,5.693,5.779,5.88
		C5.324,6.012,4.867,6.274,4.494,6.75C4.276,7.026,4.317,7.797,4.58,8.745c0.227,0.822,0.623,1.761,1.164,2.614
		c0.015-0.013,0.025-0.029,0.038-0.044c0.006-0.007,0.012-0.014,0.018-0.021c-0.315-0.516-0.254-1.017-0.199-1.484
		C5.622,9.627,5.644,9.448,5.64,9.281C5.633,9.104,5.608,8.952,5.588,8.809c-0.029-0.187-0.057-0.364-0.05-0.584
		c0-0.004-0.002-0.011-0.002-0.014C5.528,8.158,5.548,8.04,5.601,7.894C5.644,7.764,5.721,7.591,5.823,7.404z"/>
	<path style="fill:#FFFFFF;" d="M9.119,11.721c0.094-0.068,0.229-0.115,0.344-0.106c0.021,0.005,0.041,0.009,0.063,0.016
		c-0.02-0.08-0.05-0.163-0.081-0.254c-0.088-0.249-0.03-0.116-0.17-0.425c-0.191-0.426-0.437-0.972-0.163-2.234
		c0.08-0.354,0.275-0.54,0.526-0.617C9.8,8.049,9.975,8.046,10.152,8.07c0.165,0.029,0.334,0.08,0.481,0.141
		c0.099,0.04,0.189,0.089,0.27,0.139c-0.06-0.742-0.382-2.5-2.147-2.47C7.291,5.902,6.47,6.862,6.089,7.551
		C5.994,7.724,5.931,7.877,5.89,7.995C5.886,8.001,5.881,8.011,5.881,8.021c0.863-0.09,1.21,0.211,1.284,0.665
		c0.103,0.64-0.419,1.57-0.683,2.044c-0.062,0.11-0.11,0.194-0.125,0.234c-0.103,0.253-0.231,0.415-0.336,0.543
		c-0.03,0.037-0.061,0.075-0.081,0.105c0.198,0.055,0.486,0.162,0.456,0.74c0.014,0.172,0.066,0.657,0.127,1.125
		c0.051,0.386,0.102,0.776,0.14,1C6.716,14.779,6.798,15,6.948,15.152c0.15,0.154,0.376,0.258,0.709,0.329
		c0.385,0.081,0.624,0.004,0.78-0.128c0.161-0.138,0.247-0.333,0.301-0.466c0.048-0.128,0.084-0.469,0.107-0.921
		c0.021-0.455,0.023-1.019,0.013-1.586c-0.002-0.121-0.008-0.233,0.031-0.352C8.938,11.905,9.019,11.792,9.119,11.721z"/>
	<path style="fill:#FFFFFF;" d="M10.623,11.186c0.179-0.193,0.301-0.452,0.327-0.738c0.011-0.102,0.007-0.21-0.009-0.32
		c-0.079-0.568-0.048-1.064-0.031-1.32c0.001-0.048,0.004-0.091,0.004-0.139c-0.001-0.005-0.173-0.084-0.395-0.176
		c-0.13-0.05-0.273-0.098-0.414-0.118C9.972,8.354,9.84,8.354,9.727,8.391C9.58,8.435,9.463,8.553,9.415,8.778
		c-0.253,1.171-0.032,1.662,0.142,2.047c0.109,0.242,0.123,0.301,0.174,0.44c0.037,0.101,0.069,0.197,0.093,0.289
		c0.046-0.001,0.092-0.003,0.14-0.011C10.217,11.511,10.448,11.379,10.623,11.186z M9.857,8.898C9.779,8.91,9.707,8.883,9.652,8.85
		C9.598,8.809,9.558,8.757,9.555,8.719C9.548,8.673,9.58,8.626,9.639,8.593c0.102-0.056,0.255-0.074,0.366-0.05
		c0.08,0.019,0.116,0.059,0.117,0.102c0.003,0.048-0.027,0.1-0.071,0.152C10,8.846,9.935,8.89,9.859,8.898H9.857z"/>
	<path style="fill:#FFFFFF;" d="M15.99,2.5C15.992,2.483,16,2.466,15.996,2.448c-0.032-0.148-0.227-0.322-0.554-0.487
		c-0.365-0.186-0.896-0.361-1.536-0.505c-0.649-0.144-1.398-0.256-2.229-0.339C10.844,1.039,9.957,1,9.047,1H8.991
		c-0.93,0-1.835,0.043-2.689,0.131C5.478,1.213,4.729,1.33,4.075,1.479C3.431,1.627,2.914,1.801,2.549,1.987
		C2.227,2.152,2.027,2.326,2.004,2.478C2.002,2.486,2.007,2.493,2.007,2.5H2v13h0.006c-0.013,0.157,0.171,0.314,0.334,0.417
		c0.304,0.2,0.796,0.387,1.422,0.548c0.663,0.166,1.441,0.3,2.323,0.392C6.985,16.952,7.952,17,8.953,17h0.061
		c1.019,0,2.004-0.052,2.925-0.156c0.022-0.002,0.039-0.006,0.061-0.008v-3.851c-0.093,0.014-0.188,0.013-0.287-0.023
		c-0.139-0.051-0.275-0.147-0.411-0.31c-0.37-0.45-0.714-0.817-0.841-0.952c-0.142,0.075-0.296,0.126-0.456,0.149
		c-0.049,0.007-0.1,0.01-0.151,0.011c0,0.009,0,0.017-0.001,0.023c0.038,0.041,0.073,0.084,0.109,0.126
		c0.133,0.173,0.175,0.225,0.648,0.323c0.211,0.044,0.337,0.101,0.406,0.169c0.072,0.065,0.098,0.144,0.087,0.222
		c-0.009,0.067-0.047,0.125-0.099,0.175c-0.091,0.085-0.244,0.153-0.37,0.185c-0.168,0.046-0.451,0.093-0.761,0.041
		c-0.234-0.041-0.48-0.141-0.703-0.344c0.003,0.434-0.005,0.849-0.019,1.202c-0.021,0.482-0.066,0.859-0.132,1.021
		c-0.065,0.162-0.168,0.405-0.383,0.586c-0.22,0.184-0.544,0.302-1.039,0.194c-0.398-0.085-0.671-0.214-0.867-0.417
		c-0.198-0.203-0.303-0.473-0.368-0.839c-0.036-0.215-0.091-0.613-0.138-1.012c-0.044-0.317-0.08-0.634-0.105-0.858
		c-0.03,0.009-0.063,0.02-0.097,0.026c-0.136,0.025-0.304,0.033-0.481,0.024c-0.297-0.019-0.627-0.082-0.841-0.184
		c-0.287-0.134-0.522-0.316-0.625-0.455c-0.044-0.064-0.072-0.124-0.074-0.182c-0.008-0.095,0.033-0.166,0.125-0.213
		c0.073-0.031,0.182-0.04,0.338-0.01c0.801,0.168,1.037,0.062,1.109-0.003C4.972,10.742,4.53,9.717,4.286,8.825
		C4,7.788,3.977,6.915,4.253,6.562c0.419-0.534,0.932-0.828,1.438-0.973c0.772-0.223,1.531-0.113,1.949-0.017
		C7.672,5.58,7.696,5.586,7.717,5.59c0.009,0.002,0.167,0.05,0.279,0.078C8.229,5.612,8.481,5.579,8.75,5.573
		c0.561-0.008,0.992,0.134,1.324,0.361c0.564-0.21,4.1-1.378,3.919,2.246c-0.023,0.438-0.367,2.239-0.896,3.485
		C13.046,11.787,12.99,11.89,12.935,12H16V2.5H15.99z"/>
	<path style="fill:#FFFFFF;" d="M11.812,12.672c0.062,0.023,0.125,0.008,0.188-0.011V12h0.598c0.075-0.139,0.149-0.286,0.218-0.45
		c0.513-1.214,0.85-2.958,0.871-3.386c0.144-2.921-2.513-2.271-3.334-2c0.908,0.893,0.87,2.494,0.865,2.509
		c0.005,0.038,0,0.086-0.004,0.152c-0.017,0.249-0.046,0.729,0.031,1.26c0.019,0.133,0.019,0.265,0.008,0.391
		c-0.035,0.357-0.181,0.678-0.403,0.92c-0.042,0.044-0.088,0.085-0.133,0.127c0.149,0.16,0.473,0.512,0.821,0.933
		C11.636,12.571,11.727,12.644,11.812,12.672z"/>
	<path style="fill:#FFFFFF;" d="M16,14v1v1h-1h-1v-1h1v-1H16z M17,13h-4v4h4V13z"/>
</g>
</svg>
