<?xml version="1.0" encoding="utf-8"?>
<svg version="1.1" id="img" xmlns="http://www.w3.org/2000/svg" xmlns:xlink="http://www.w3.org/1999/xlink" x="0px" y="0px"
	 width="18px" height="18px" viewBox="0 0 18 18" style="enable-background:new 0 0 18 18;" xml:space="preserve">
<g id="db-postgres-export.default">
	<path style="fill:#3F7FB2;" d="M16,2.5H2v13h0.006c-0.013,0.157,0.17,0.314,0.333,0.417c0.303,0.2,0.796,0.387,1.422,0.548
		c0.663,0.166,1.441,0.3,2.323,0.392C6.985,16.952,7.952,17,8.953,17h0.062c1.019,0,2.004-0.052,2.924-0.156
		c0.881-0.096,1.66-0.23,2.312-0.403c0.622-0.162,1.11-0.353,1.418-0.554c0.148-0.098,0.31-0.239,0.321-0.387H16V2.5z"/>
	<path style="fill:#7498C4;" d="M15.996,2.448c0.033,0.165-0.161,0.329-0.326,0.438c-0.308,0.2-0.797,0.392-1.418,0.554
		c-0.653,0.173-1.431,0.308-2.312,0.403C11.019,3.948,10.033,4,9.015,4H8.953C7.952,4,6.985,3.952,6.085,3.856
		c-0.881-0.092-1.66-0.225-2.323-0.392C3.136,3.304,2.643,3.117,2.34,2.917C2.169,2.809,1.971,2.644,2.004,2.478
		c0.023-0.152,0.222-0.326,0.544-0.491c0.365-0.187,0.882-0.36,1.527-0.509C4.729,1.33,5.479,1.213,6.302,1.131
		C7.156,1.043,8.062,1,8.991,1h0.056c0.91,0,1.796,0.039,2.631,0.117c0.83,0.083,1.579,0.195,2.228,0.339
		c0.64,0.144,1.171,0.318,1.536,0.505C15.769,2.126,15.964,2.3,15.996,2.448z"/>
	<path style="fill-rule:evenodd;clip-rule:evenodd;fill:#FFFFFF;" d="M6.397,12.352c0.03-0.578-0.258-0.686-0.457-0.74
		c0.02-0.029,0.051-0.067,0.081-0.105c0.104-0.128,0.232-0.29,0.336-0.543c0.014-0.04,0.062-0.124,0.125-0.235
		c0.263-0.473,0.784-1.403,0.682-2.043C7.091,8.231,6.744,7.931,5.88,8.021c0-0.01,0.005-0.019,0.009-0.025
		C5.93,7.877,5.994,7.724,6.089,7.551C6.47,6.862,7.291,5.902,8.757,5.88c1.764-0.03,2.086,1.727,2.146,2.47
		c-0.08-0.05-0.171-0.099-0.27-0.139C10.486,8.15,10.317,8.1,10.152,8.07C9.975,8.046,9.8,8.049,9.639,8.1
		C9.388,8.177,9.192,8.362,9.112,8.717c-0.273,1.263-0.028,1.809,0.163,2.234c0.14,0.309,0.082,0.176,0.17,0.425
		c0.031,0.091,0.062,0.174,0.081,0.254c-0.022-0.007-0.043-0.011-0.063-0.016c-0.116-0.009-0.25,0.038-0.343,0.106
		c-0.101,0.071-0.182,0.185-0.23,0.309c-0.039,0.118-0.033,0.231-0.031,0.352c0.011,0.567,0.008,1.131-0.013,1.586
		c-0.023,0.452-0.06,0.793-0.107,0.921c-0.054,0.133-0.14,0.328-0.301,0.466c-0.156,0.132-0.396,0.209-0.78,0.128
		c-0.333-0.071-0.559-0.175-0.709-0.329C6.798,15,6.716,14.779,6.663,14.477c-0.039-0.224-0.089-0.614-0.14-1
		C6.463,13.009,6.41,12.523,6.397,12.352L6.397,12.352z M10.549,12.628c-0.584-0.117-0.64-0.192-0.828-0.429
		c-0.07-0.088-0.141-0.169-0.216-0.244c-0.025-0.026-0.05-0.029-0.069-0.032c-0.042-0.005-0.102,0.019-0.141,0.046
		c-0.049,0.035-0.092,0.097-0.116,0.162c-0.023,0.07-0.033,0.156,0.013,0.217c0.216,0.301,0.483,0.43,0.733,0.472
		c0.252,0.044,0.492,0,0.635-0.036c0.071-0.017,0.152-0.048,0.204-0.087C10.723,12.676,10.653,12.651,10.549,12.628L10.549,12.628z
		 M10.718,11.523c0.044-0.042,0.091-0.083,0.133-0.127c0.223-0.242,0.368-0.562,0.404-0.92c0.011-0.126,0.011-0.258-0.008-0.391
		c-0.077-0.53-0.047-1.011-0.031-1.26c0.004-0.066,0.009-0.114,0.004-0.152c0.005-0.015,0.042-1.615-0.865-2.509
		c0.821-0.272,3.478-0.921,3.334,2c-0.021,0.428-0.358,2.172-0.872,3.386c-0.161,0.383-0.341,0.71-0.528,0.92
		c-0.16,0.175-0.32,0.259-0.476,0.202c-0.085-0.027-0.176-0.101-0.273-0.217C11.19,12.034,10.867,11.683,10.718,11.523
		L10.718,11.523z M7.465,5.845c-0.832,0.37-1.355,1.037-1.642,1.56C5.721,7.591,5.644,7.764,5.6,7.895
		C5.547,8.04,5.528,8.158,5.537,8.211c0,0.003,0.002,0.01,0.002,0.014c-0.007,0.22,0.02,0.398,0.049,0.584
		C5.608,8.952,5.633,9.104,5.64,9.281C5.644,9.448,5.623,9.627,5.6,9.811c-0.055,0.468-0.115,0.969,0.2,1.484
		c-0.006,0.007-0.011,0.014-0.018,0.021c-0.013,0.015-0.023,0.031-0.038,0.044C5.204,10.506,4.807,9.567,4.58,8.745
		C4.318,7.797,4.276,7.026,4.494,6.75c0.374-0.476,0.83-0.738,1.286-0.87C6.423,5.693,7.067,5.765,7.465,5.845L7.465,5.845z
		 M10.914,8.669c0,0.048-0.003,0.091-0.004,0.139c-0.016,0.256-0.047,0.752,0.031,1.32c0.016,0.11,0.02,0.219,0.009,0.32
		c-0.027,0.286-0.149,0.545-0.328,0.738c-0.174,0.192-0.406,0.324-0.66,0.357c-0.048,0.008-0.094,0.01-0.14,0.011
		C9.8,11.463,9.768,11.366,9.73,11.266c-0.051-0.14-0.064-0.198-0.173-0.44C9.383,10.44,9.162,9.949,9.415,8.778
		C9.463,8.553,9.58,8.435,9.727,8.391c0.113-0.036,0.245-0.036,0.378-0.016c0.141,0.021,0.285,0.068,0.414,0.118
		C10.741,8.585,10.913,8.664,10.914,8.669L10.914,8.669z M10.005,8.543C9.894,8.519,9.74,8.537,9.639,8.593
		C9.58,8.626,9.548,8.673,9.555,8.719l0,0l0,0l0,0l0,0c0.003,0.038,0.042,0.09,0.097,0.131C9.707,8.883,9.78,8.91,9.857,8.898l0,0
		l0,0h0.002l0,0C9.935,8.89,10,8.846,10.051,8.798c0.043-0.053,0.074-0.105,0.071-0.152C10.121,8.602,10.085,8.563,10.005,8.543
		L10.005,8.543z M5.843,8.332c0.7-0.09,0.973,0.102,1.021,0.402c0.083,0.533-0.401,1.402-0.647,1.847
		c-0.07,0.119-0.119,0.212-0.141,0.265c-0.028,0.061-0.052,0.118-0.082,0.169c-0.182-0.388-0.134-0.79-0.088-1.167
		c0.021-0.198,0.046-0.389,0.041-0.574C5.938,9.081,5.913,8.919,5.891,8.766C5.87,8.622,5.846,8.483,5.843,8.332L5.843,8.332z
		 M5.759,11.876c0.022,0.009,0.046,0.016,0.075,0.023c0.106,0.029,0.274,0.076,0.255,0.44c-0.013,0.014-0.061,0.029-0.128,0.041
		c-0.107,0.023-0.25,0.028-0.402,0.019c-0.266-0.016-0.546-0.071-0.731-0.156c-0.183-0.085-0.34-0.189-0.435-0.283
		C4.791,12.034,5.396,12.149,5.759,11.876L5.759,11.876z M6.128,8.543L6.128,8.543L6.128,8.543C6.125,8.573,6.15,8.629,6.194,8.676
		c0.054,0.054,0.116,0.09,0.183,0.095c0.05,0.007,0.103-0.003,0.156-0.032c0.064-0.034,0.109-0.081,0.109-0.13
		c0-0.032-0.019-0.065-0.068-0.095C6.53,8.492,6.471,8.472,6.403,8.462C6.338,8.451,6.271,8.453,6.225,8.466
		C6.169,8.477,6.136,8.505,6.128,8.543L6.128,8.543z M5.573,11.66c-0.072,0.065-0.309,0.171-1.109,0.003
		c-0.156-0.03-0.264-0.022-0.338,0.01c-0.091,0.047-0.133,0.118-0.125,0.213c0.002,0.058,0.03,0.118,0.074,0.182
		c0.104,0.14,0.338,0.321,0.625,0.455c0.214,0.101,0.544,0.165,0.841,0.184c0.176,0.01,0.344,0.002,0.48-0.023
		c0.033-0.007,0.066-0.018,0.097-0.026c0.025,0.225,0.061,0.541,0.105,0.858c0.047,0.398,0.101,0.797,0.138,1.012
		c0.066,0.366,0.17,0.636,0.369,0.839c0.196,0.203,0.47,0.332,0.866,0.417c0.496,0.107,0.82-0.011,1.04-0.194
		c0.215-0.181,0.318-0.424,0.383-0.586c0.065-0.162,0.111-0.539,0.131-1.021c0.015-0.354,0.023-0.769,0.021-1.202
		c0.223,0.203,0.468,0.303,0.702,0.344c0.31,0.052,0.593,0.005,0.761-0.041c0.126-0.031,0.279-0.1,0.371-0.185
		c0.052-0.05,0.089-0.107,0.098-0.175c0.011-0.077-0.014-0.156-0.087-0.222c-0.069-0.067-0.195-0.125-0.406-0.169
		c-0.473-0.099-0.515-0.15-0.647-0.323c-0.037-0.042-0.071-0.085-0.109-0.126c0.001-0.007,0.001-0.015,0.001-0.023
		c0.052-0.001,0.102-0.004,0.152-0.011c0.16-0.023,0.314-0.073,0.456-0.149c0.127,0.135,0.471,0.502,0.841,0.952
		c0.136,0.162,0.272,0.259,0.411,0.31c0.292,0.107,0.558-0.019,0.803-0.285c0.21-0.24,0.406-0.596,0.582-1.01
		c0.528-1.246,0.873-3.048,0.896-3.485c0.18-3.624-3.356-2.456-3.919-2.246C9.742,5.707,9.311,5.565,8.75,5.573
		C8.481,5.579,8.229,5.612,7.996,5.668C7.884,5.64,7.726,5.592,7.717,5.59C7.696,5.586,7.672,5.58,7.641,5.572
		C7.223,5.476,6.463,5.366,5.691,5.589c-0.507,0.144-1.02,0.438-1.438,0.973C3.978,6.915,4,7.788,4.287,8.825
		C4.53,9.717,4.972,10.742,5.573,11.66L5.573,11.66z"/>
	<rect x="1" y="1" style="fill:#373943;" width="4" height="4"/>
	<polygon style="fill:#BDCCD4;" points="3,2 3,3 2,3 2,4 3,4 4,4 4,3 4,2 	"/>
</g>
</svg>
