<?xml version="1.0" encoding="utf-8"?>
<svg version="1.1" id="img" xmlns="http://www.w3.org/2000/svg" xmlns:xlink="http://www.w3.org/1999/xlink" x="0px" y="0px"
	 width="18px" height="18px" viewBox="0 0 18 18" style="enable-background:new 0 0 18 18;" xml:space="preserve">
<g id="db-sybase.disabled">
	<path style="fill:#8C8C8C;" d="M16,2.5H2v13h0.006c-0.013,0.157,0.171,0.314,0.334,0.417c0.304,0.2,0.796,0.387,1.422,0.548
		c0.663,0.166,1.441,0.3,2.323,0.392C6.985,16.952,7.952,17,8.953,17h0.061c1.019,0,2.004-0.052,2.925-0.156
		c0.881-0.096,1.659-0.23,2.312-0.403c0.621-0.162,1.11-0.353,1.418-0.554c0.148-0.098,0.31-0.239,0.32-0.387H16V2.5z"/>
	<path style="fill:#BFBFBF;" d="M15.996,2.448c0.033,0.165-0.161,0.329-0.326,0.438c-0.308,0.2-0.797,0.392-1.418,0.554
		c-0.653,0.173-1.432,0.308-2.312,0.403C11.019,3.948,10.033,4,9.015,4H8.953C7.952,4,6.985,3.952,6.085,3.856
		c-0.882-0.092-1.66-0.225-2.323-0.392C3.136,3.304,2.644,3.117,2.34,2.917C2.169,2.809,1.971,2.644,2.004,2.478
		c0.023-0.152,0.223-0.326,0.545-0.491c0.365-0.187,0.882-0.36,1.526-0.509C4.729,1.33,5.478,1.213,6.302,1.131
		C7.156,1.043,8.061,1,8.991,1h0.056c0.91,0,1.797,0.039,2.631,0.117c0.83,0.083,1.579,0.195,2.229,0.339
		c0.64,0.144,1.171,0.318,1.536,0.505C15.769,2.126,15.964,2.3,15.996,2.448z"/>
	<path style="fill:#FFFFFF;" d="M16,12.71v0.39c-1.21,1.091-2.71,1.761-4.34,1.971c-0.231,0.029-0.47,0.04-0.71,0.04
		c-1.24,0-2.44-0.41-3.44-1.191C6.32,13,5.56,11.67,5.38,10.17C5.24,9.11,5.53,8.06,6.19,7.22C6.84,6.38,7.79,5.84,8.85,5.71
		c0.771-0.1,1.53,0.11,2.141,0.58c0.609,0.48,1,1.16,1.09,1.93C12.15,8.78,12,9.34,11.65,9.79c-0.351,0.45-0.86,0.74-1.42,0.81
		C9.8,10.65,9.38,10.54,9.04,10.27C8.7,10.01,8.481,9.62,8.43,9.2l0.99-0.13c0.021,0.17,0.1,0.31,0.231,0.41
		c0.13,0.1,0.29,0.14,0.46,0.13c0.3-0.04,0.559-0.191,0.75-0.431C11.05,8.94,11.13,8.64,11.09,8.34c-0.13-1.03-1.08-1.77-2.109-1.64
		c-0.801,0.1-1.511,0.5-2,1.13c-0.5,0.64-0.711,1.42-0.61,2.22c0.149,1.231,0.769,2.33,1.75,3.08c0.979,0.76,2.189,1.101,3.42,0.95
		c1.5-0.19,2.88-0.84,3.97-1.89L16,12.71z"/>
</g>
</svg>
