<?xml version="1.0" encoding="utf-8"?>
<svg version="1.1" id="img" xmlns="http://www.w3.org/2000/svg" xmlns:xlink="http://www.w3.org/1999/xlink" x="0px" y="0px"
	 width="18px" height="18px" viewBox="0 0 18 18" style="enable-background:new 0 0 18 18;" xml:space="preserve">
<g id="db-sybase-export.default">
	<path style="fill:#563382;" d="M16,2.5v13h-0.01c-0.01,0.15-0.17,0.29-0.32,0.39c-0.31,0.2-0.8,0.391-1.42,0.551
		c-0.65,0.17-1.43,0.31-2.31,0.399C11.02,16.95,10.03,17,9.01,17H8.95c-1,0-1.96-0.05-2.87-0.14c-0.88-0.101-1.65-0.231-2.32-0.4
		c-0.62-0.16-1.12-0.34-1.42-0.54c-0.16-0.11-0.35-0.26-0.33-0.42H2v-13H16z"/>
	<path style="fill:#88779D;" d="M15.996,2.448c0.033,0.165-0.161,0.329-0.326,0.438c-0.308,0.2-0.797,0.392-1.418,0.554
		c-0.653,0.173-1.431,0.308-2.312,0.403C11.019,3.948,10.033,4,9.015,4H8.953C7.952,4,6.985,3.952,6.085,3.856
		c-0.881-0.092-1.66-0.225-2.323-0.392C3.136,3.304,2.643,3.117,2.34,2.917C2.169,2.809,1.971,2.644,2.004,2.478
		c0.023-0.152,0.222-0.326,0.544-0.491c0.365-0.187,0.882-0.36,1.527-0.509C4.729,1.33,5.479,1.213,6.302,1.131
		C7.156,1.043,8.062,1,8.991,1h0.056c0.91,0,1.796,0.039,2.631,0.117c0.83,0.083,1.579,0.195,2.228,0.339
		c0.64,0.144,1.171,0.318,1.536,0.505C15.769,2.126,15.964,2.3,15.996,2.448z"/>
	<path style="fill:#FFFFFF;" d="M16,12.71v0.39c-1.21,1.091-2.71,1.761-4.34,1.971c-0.23,0.029-0.47,0.04-0.71,0.04
		c-1.24,0-2.44-0.41-3.44-1.191C6.32,13,5.56,11.67,5.38,10.17C5.24,9.11,5.53,8.06,6.19,7.22c0.65-0.84,1.6-1.38,2.66-1.51
		c0.77-0.1,1.53,0.11,2.14,0.58c0.61,0.48,1,1.16,1.09,1.93C12.15,8.78,12,9.34,11.65,9.79c-0.35,0.45-0.86,0.74-1.42,0.81
		c-0.43,0.051-0.85-0.06-1.19-0.33C8.7,10.01,8.48,9.62,8.43,9.2l0.99-0.13c0.02,0.17,0.1,0.31,0.23,0.41
		c0.13,0.1,0.29,0.14,0.46,0.13c0.3-0.04,0.56-0.191,0.75-0.431c0.19-0.239,0.27-0.54,0.23-0.84c-0.13-1.03-1.08-1.77-2.11-1.64
		c-0.8,0.1-1.51,0.5-2,1.13c-0.5,0.64-0.71,1.42-0.61,2.22c0.15,1.231,0.77,2.33,1.75,3.08c0.98,0.76,2.19,1.101,3.42,0.95
		c1.5-0.19,2.88-0.84,3.97-1.89L16,12.71z"/>
	<rect x="1" y="1" style="fill:#373943;" width="4" height="4"/>
	<polygon style="fill:#BDCCD4;" points="3,2 3,3 2,3 2,4 3,4 4,4 4,3 4,2 	"/>
</g>
</svg>
