<?xml version="1.0" encoding="utf-8"?>
<svg version="1.1" id="img" xmlns="http://www.w3.org/2000/svg" xmlns:xlink="http://www.w3.org/1999/xlink" x="0px" y="0px"
	 width="18px" height="18px" viewBox="0 0 18 18" style="enable-background:new 0 0 18 18;" xml:space="preserve">
<path id="db-sybase.inverted" style="fill:#FFFFFF;" d="M9.65,9.481c0.13,0.1,0.29,0.14,0.46,0.13c0.3-0.04,0.559-0.191,0.75-0.431
	C11.05,8.94,11.13,8.64,11.09,8.34c-0.13-1.03-1.08-1.77-2.109-1.64c-0.801,0.1-1.511,0.5-2,1.13c-0.5,0.64-0.711,1.42-0.61,2.22
	c0.149,1.231,0.769,2.33,1.75,3.08c0.979,0.76,2.189,1.101,3.42,0.95c1.5-0.19,2.88-0.84,3.97-1.89L16,12.71V2.5h-0.01
	C15.992,2.483,16,2.466,15.996,2.448c-0.032-0.148-0.227-0.322-0.554-0.487c-0.365-0.186-0.896-0.361-1.536-0.505
	c-0.649-0.144-1.398-0.256-2.229-0.339C10.844,1.039,9.957,1,9.047,1H8.991c-0.93,0-1.835,0.043-2.689,0.131
	C5.478,1.213,4.729,1.33,4.075,1.479C3.431,1.627,2.914,1.801,2.549,1.987C2.227,2.152,2.027,2.326,2.004,2.478
	C2.002,2.486,2.007,2.493,2.007,2.5H2v13h0.006c-0.013,0.157,0.171,0.314,0.334,0.417c0.304,0.2,0.796,0.387,1.422,0.548
	c0.663,0.166,1.441,0.3,2.323,0.392C6.985,16.952,7.952,17,8.953,17h0.061c1.019,0,2.004-0.052,2.925-0.156
	c0.881-0.096,1.659-0.23,2.312-0.403c0.621-0.162,1.11-0.353,1.418-0.554c0.148-0.098,0.31-0.239,0.32-0.387H16v-2.4
	c-1.21,1.091-2.71,1.761-4.34,1.971c-0.231,0.029-0.47,0.04-0.71,0.04c-1.24,0-2.44-0.41-3.44-1.191C6.32,13,5.56,11.67,5.38,10.17
	C5.24,9.11,5.53,8.06,6.19,7.22C6.84,6.38,7.79,5.84,8.85,5.71c0.771-0.1,1.53,0.11,2.141,0.58c0.609,0.48,1,1.16,1.09,1.93
	C12.15,8.78,12,9.34,11.65,9.79c-0.351,0.45-0.86,0.74-1.42,0.81C9.8,10.65,9.38,10.54,9.04,10.27C8.7,10.01,8.481,9.62,8.43,9.2
	l0.99-0.13C9.44,9.24,9.519,9.38,9.65,9.481z"/>
</svg>
