<?xml version="1.0" encoding="utf-8"?>
<svg version="1.1" id="img" xmlns="http://www.w3.org/2000/svg" xmlns:xlink="http://www.w3.org/1999/xlink" x="0px" y="0px"
	 width="18px" height="18px" viewBox="0 0 18 18" style="enable-background:new 0 0 18 18;" xml:space="preserve">
<g id="driver-odbc-import.inverted">
	<path style="fill:#FFFFFF;" d="M1,4.54c0-0.792,0.173-1.4,0.518-1.824c0.345-0.423,0.836-0.634,1.476-0.634
		c0.345,0,0.642,0.059,0.895,0.176c0.251,0.118,0.46,0.284,0.625,0.499C4.679,2.973,4.802,3.23,4.881,3.532
		C4.961,3.833,5,4.169,5,4.54c0,0.793-0.174,1.402-0.521,1.825C4.132,6.788,3.636,7,2.993,7C2.652,7,2.358,6.941,2.108,6.823
		c-0.25-0.118-0.456-0.284-0.622-0.5C1.321,6.109,1.198,5.851,1.119,5.549C1.039,5.249,1,4.912,1,4.54z M1.615,4.54
		c0,0.263,0.026,0.513,0.081,0.748c0.053,0.236,0.136,0.443,0.248,0.621c0.111,0.179,0.255,0.322,0.43,0.428
		c0.175,0.107,0.381,0.16,0.619,0.16c0.434,0,0.774-0.16,1.02-0.48C4.261,5.699,4.385,5.206,4.385,4.54
		c0-0.258-0.026-0.506-0.08-0.743C4.251,3.558,4.167,3.351,4.053,3.172C3.938,2.993,3.794,2.85,3.619,2.744
		c-0.175-0.106-0.384-0.16-0.626-0.16c-0.43,0-0.766,0.16-1.011,0.479C1.737,3.382,1.615,3.875,1.615,4.54z"/>
	<path style="fill:#FFFFFF;" d="M6,2.163c0.073-0.014,0.156-0.024,0.248-0.031C6.34,2.125,6.436,2.12,6.534,2.119
		c0.101-0.002,0.197-0.005,0.293-0.007c0.096-0.002,0.185-0.003,0.266-0.003c0.328,0,0.611,0.058,0.851,0.176
		c0.24,0.118,0.438,0.282,0.594,0.493c0.156,0.21,0.273,0.463,0.349,0.758C8.962,3.83,9,4.154,9,4.507
		c0,0.321-0.036,0.63-0.108,0.927C8.818,5.731,8.705,5.993,8.549,6.222C8.394,6.451,8.19,6.634,7.94,6.773
		C7.691,6.91,7.39,6.979,7.035,6.979c-0.062,0-0.144-0.001-0.243-0.003C6.693,6.974,6.59,6.969,6.485,6.962
		C6.381,6.955,6.282,6.95,6.192,6.945C6.103,6.941,6.039,6.934,6,6.925V2.163z M7.104,2.611c-0.05,0-0.105,0-0.166,0
		c-0.061,0-0.12,0.001-0.179,0.006C6.701,2.623,6.648,2.627,6.599,2.631c-0.048,0.005-0.086,0.01-0.113,0.014v3.805
		c0.019,0.005,0.057,0.008,0.11,0.01c0.056,0.003,0.111,0.005,0.17,0.006c0.059,0.003,0.115,0.005,0.17,0.008
		C6.99,6.476,7.027,6.477,7.047,6.477c0.272,0,0.501-0.054,0.687-0.163c0.186-0.108,0.333-0.255,0.444-0.438
		c0.111-0.183,0.189-0.394,0.237-0.632c0.047-0.237,0.069-0.483,0.069-0.737c0-0.222-0.021-0.445-0.064-0.67
		C8.378,3.613,8.304,3.411,8.198,3.229C8.094,3.048,7.952,2.9,7.774,2.784C7.597,2.669,7.374,2.611,7.104,2.611z"/>
	<path style="fill:#FFFFFF;" d="M12.996,3.25c0,0.113-0.02,0.228-0.058,0.347c-0.038,0.118-0.095,0.227-0.17,0.329
		c-0.076,0.102-0.173,0.191-0.291,0.268c-0.118,0.078-0.258,0.136-0.419,0.178v0.026c0.142,0.023,0.278,0.062,0.408,0.116
		c0.131,0.054,0.245,0.128,0.345,0.224c0.1,0.094,0.179,0.21,0.241,0.347c0.061,0.136,0.092,0.297,0.092,0.482
		c0,0.244-0.054,0.456-0.159,0.634c-0.108,0.179-0.246,0.325-0.419,0.439c-0.173,0.113-0.37,0.196-0.593,0.25
		c-0.223,0.055-0.449,0.082-0.682,0.082c-0.08,0-0.175,0-0.284,0s-0.222-0.004-0.341-0.011c-0.118-0.007-0.236-0.015-0.354-0.027
		C10.193,6.924,10.089,6.907,10,6.884V2.203c0.175-0.026,0.379-0.05,0.611-0.068c0.231-0.019,0.484-0.027,0.759-0.027
		c0.185,0,0.373,0.015,0.564,0.044c0.191,0.029,0.365,0.085,0.522,0.17c0.156,0.082,0.284,0.201,0.387,0.35
		C12.944,2.822,12.996,3.014,12.996,3.25z M10.958,4.255c0.081,0,0.178-0.002,0.291-0.006c0.114-0.005,0.209-0.012,0.284-0.02
		c0.114-0.037,0.22-0.082,0.319-0.133c0.1-0.052,0.189-0.113,0.267-0.184c0.078-0.07,0.14-0.151,0.185-0.244
		c0.045-0.093,0.067-0.194,0.067-0.303c0-0.149-0.029-0.273-0.089-0.371c-0.059-0.097-0.139-0.175-0.238-0.234
		c-0.099-0.059-0.213-0.101-0.34-0.126c-0.128-0.025-0.259-0.037-0.392-0.037c-0.155,0-0.299,0.003-0.43,0.01
		c-0.13,0.006-0.227,0.017-0.294,0.03v1.617H10.958z M11.35,6.483c0.15,0,0.298-0.018,0.439-0.051
		c0.142-0.034,0.267-0.088,0.377-0.163c0.108-0.075,0.193-0.167,0.258-0.274c0.064-0.11,0.097-0.239,0.097-0.388
		c0-0.186-0.039-0.335-0.117-0.448c-0.078-0.113-0.181-0.201-0.306-0.265c-0.125-0.063-0.267-0.106-0.423-0.129
		c-0.155-0.022-0.311-0.033-0.468-0.033h-0.618v1.705c0.033,0.009,0.081,0.016,0.142,0.02c0.062,0.005,0.128,0.01,0.199,0.014
		c0.071,0.004,0.144,0.007,0.221,0.01C11.226,6.482,11.292,6.483,11.35,6.483z"/>
	<path style="fill:#FFFFFF;" d="M17,6.64c-0.126,0.104-0.285,0.177-0.479,0.217c-0.192,0.041-0.397,0.062-0.615,0.062
		c-0.265,0-0.513-0.049-0.743-0.146c-0.231-0.098-0.432-0.246-0.604-0.445c-0.172-0.199-0.308-0.454-0.408-0.764
		C14.05,5.253,14,4.885,14,4.459c0-0.444,0.056-0.821,0.166-1.131c0.111-0.31,0.258-0.564,0.44-0.76
		c0.183-0.197,0.387-0.341,0.613-0.432C15.446,2.045,15.677,2,15.912,2c0.252,0,0.457,0.014,0.615,0.044
		c0.16,0.03,0.297,0.07,0.409,0.12l-0.125,0.496c-0.201-0.105-0.488-0.157-0.862-0.157c-0.172,0-0.342,0.034-0.51,0.102
		c-0.168,0.068-0.316,0.179-0.449,0.333c-0.132,0.153-0.237,0.355-0.317,0.604c-0.08,0.25-0.12,0.556-0.12,0.918
		c0,0.327,0.038,0.612,0.113,0.856c0.076,0.245,0.18,0.449,0.311,0.612c0.132,0.163,0.287,0.285,0.466,0.367
		c0.179,0.081,0.372,0.122,0.581,0.122c0.189,0,0.353-0.02,0.494-0.061c0.141-0.041,0.26-0.093,0.355-0.156L17,6.64z"/>
	<rect x="2" y="8" style="fill:#FFFFFF;" width="4" height="2"/>
	<rect x="7" y="8" style="fill:#FFFFFF;" width="4" height="2"/>
	<rect x="12" y="8" style="fill:#FFFFFF;" width="4" height="2"/>
	<rect x="2" y="11" style="fill:#FFFFFF;" width="4" height="2"/>
	<rect x="7" y="11" style="fill:#FFFFFF;" width="4" height="2"/>
	<rect x="2" y="14" style="fill:#FFFFFF;" width="4" height="2"/>
	<rect x="7" y="14" style="fill:#FFFFFF;" width="4" height="2"/>
	<path style="fill:#FFFFFF;" d="M16,14v1v1h-1h-1v-1h1v-1H16z M17,13h-4v4h4V13z"/>
</g>
</svg>
