<?xml version="1.0" encoding="utf-8"?>
<svg version="1.1" id="img" xmlns="http://www.w3.org/2000/svg" xmlns:xlink="http://www.w3.org/1999/xlink" x="0px" y="0px"
	 width="18px" height="18px" viewBox="0 0 18 18" style="enable-background:new 0 0 18 18;" xml:space="preserve">
<g id="driver-odbc-import.default">
	<path style="fill:#4A89BE;" d="M1,4.54c0-0.792,0.172-1.4,0.517-1.824c0.345-0.423,0.837-0.634,1.476-0.634
		c0.345,0,0.643,0.059,0.896,0.176c0.251,0.118,0.46,0.284,0.625,0.499C4.679,2.973,4.802,3.23,4.881,3.532
		C4.96,3.833,5,4.169,5,4.54c0,0.793-0.174,1.402-0.521,1.825C4.132,6.788,3.636,7,2.993,7c-0.34,0-0.635-0.059-0.885-0.177
		c-0.249-0.118-0.456-0.284-0.621-0.5C1.321,6.109,1.198,5.851,1.12,5.549C1.039,5.249,1,4.912,1,4.54z M1.616,4.54
		c0,0.263,0.026,0.513,0.081,0.748C1.75,5.524,1.833,5.731,1.944,5.909c0.112,0.179,0.255,0.322,0.431,0.428
		c0.175,0.107,0.38,0.16,0.619,0.16c0.434,0,0.774-0.16,1.021-0.48c0.247-0.319,0.37-0.812,0.37-1.478
		c0-0.258-0.026-0.506-0.08-0.743C4.25,3.558,4.167,3.351,4.052,3.172C3.938,2.993,3.794,2.85,3.619,2.744
		c-0.174-0.106-0.383-0.16-0.625-0.16c-0.429,0-0.766,0.16-1.011,0.479C1.737,3.382,1.616,3.875,1.616,4.54z"/>
	<path style="fill:#4A89BE;" d="M6,2.163c0.074-0.014,0.156-0.024,0.249-0.031C6.34,2.125,6.436,2.12,6.535,2.119
		c0.1-0.002,0.197-0.005,0.292-0.007c0.096-0.002,0.184-0.003,0.266-0.003c0.328,0,0.612,0.058,0.851,0.176
		c0.24,0.118,0.438,0.282,0.594,0.493c0.155,0.21,0.272,0.463,0.348,0.758C8.961,3.83,9,4.154,9,4.507
		c0,0.321-0.037,0.63-0.108,0.927C8.819,5.731,8.705,5.993,8.549,6.222C8.393,6.451,8.19,6.634,7.941,6.773
		C7.691,6.91,7.39,6.979,7.035,6.979c-0.062,0-0.144-0.001-0.243-0.003c-0.1-0.003-0.202-0.007-0.307-0.014
		C6.38,6.955,6.282,6.95,6.193,6.945C6.104,6.941,6.039,6.934,6,6.925V2.163z M7.105,2.611c-0.051,0-0.106,0-0.167,0
		c-0.061,0-0.12,0.001-0.178,0.006C6.702,2.623,6.647,2.627,6.599,2.631C6.55,2.636,6.513,2.641,6.485,2.645v3.805
		c0.019,0.005,0.057,0.008,0.111,0.01c0.055,0.003,0.111,0.005,0.17,0.006c0.058,0.003,0.115,0.005,0.169,0.008
		C6.99,6.476,7.027,6.477,7.046,6.477c0.273,0,0.502-0.054,0.688-0.163c0.185-0.108,0.333-0.255,0.444-0.438
		c0.111-0.183,0.19-0.394,0.237-0.632c0.047-0.237,0.07-0.483,0.07-0.737c0-0.222-0.021-0.445-0.064-0.67
		C8.377,3.613,8.303,3.411,8.198,3.229C8.093,3.048,7.952,2.9,7.774,2.784C7.597,2.669,7.374,2.611,7.105,2.611z"/>
	<path style="fill:#4A89BE;" d="M12.996,3.25c0,0.113-0.02,0.228-0.058,0.347c-0.038,0.118-0.094,0.227-0.17,0.329
		c-0.077,0.102-0.173,0.191-0.292,0.268c-0.118,0.078-0.258,0.136-0.419,0.178v0.026c0.142,0.023,0.279,0.062,0.409,0.116
		c0.13,0.054,0.244,0.128,0.344,0.224c0.1,0.094,0.179,0.21,0.242,0.347c0.061,0.136,0.092,0.297,0.092,0.482
		c0,0.244-0.054,0.456-0.16,0.634c-0.108,0.179-0.246,0.325-0.42,0.439c-0.172,0.113-0.37,0.196-0.593,0.25
		c-0.222,0.055-0.449,0.082-0.681,0.082c-0.081,0-0.175,0-0.284,0c-0.109,0-0.222-0.004-0.34-0.011
		c-0.119-0.007-0.237-0.015-0.354-0.027C10.193,6.924,10.089,6.907,10,6.884V2.203c0.175-0.026,0.379-0.05,0.611-0.068
		c0.232-0.019,0.484-0.027,0.759-0.027c0.185,0,0.373,0.015,0.564,0.044c0.192,0.029,0.366,0.085,0.523,0.17
		c0.156,0.082,0.284,0.201,0.386,0.35C12.945,2.822,12.996,3.014,12.996,3.25z M10.958,4.255c0.082,0,0.179-0.002,0.291-0.006
		c0.114-0.005,0.209-0.012,0.284-0.02c0.114-0.037,0.22-0.082,0.32-0.133c0.1-0.052,0.188-0.113,0.266-0.184
		c0.078-0.07,0.139-0.151,0.184-0.244c0.045-0.093,0.068-0.194,0.068-0.303c0-0.149-0.029-0.273-0.089-0.371
		c-0.059-0.097-0.138-0.175-0.237-0.234c-0.099-0.059-0.213-0.101-0.341-0.126c-0.127-0.025-0.258-0.037-0.391-0.037
		c-0.156,0-0.299,0.003-0.43,0.01c-0.13,0.006-0.228,0.017-0.294,0.03v1.617H10.958z M11.349,6.483c0.151,0,0.298-0.018,0.439-0.051
		c0.142-0.034,0.268-0.088,0.377-0.163c0.108-0.075,0.194-0.167,0.258-0.274c0.064-0.11,0.096-0.239,0.096-0.388
		c0-0.186-0.039-0.335-0.117-0.448c-0.078-0.113-0.181-0.201-0.305-0.265c-0.126-0.063-0.267-0.106-0.423-0.129
		c-0.156-0.022-0.312-0.033-0.468-0.033h-0.618v1.705c0.033,0.009,0.08,0.016,0.141,0.02c0.062,0.005,0.128,0.01,0.199,0.014
		c0.071,0.004,0.144,0.007,0.22,0.01C11.226,6.482,11.292,6.483,11.349,6.483z"/>
	<path style="fill:#4A89BE;" d="M17,6.64c-0.126,0.104-0.285,0.177-0.479,0.217c-0.192,0.041-0.397,0.062-0.616,0.062
		c-0.264,0-0.512-0.049-0.743-0.146c-0.231-0.098-0.432-0.246-0.604-0.445c-0.172-0.199-0.308-0.454-0.409-0.764
		C14.05,5.253,14,4.885,14,4.459c0-0.444,0.055-0.821,0.166-1.131c0.111-0.31,0.258-0.564,0.44-0.76
		c0.183-0.197,0.387-0.341,0.613-0.432C15.447,2.045,15.677,2,15.912,2c0.252,0,0.457,0.014,0.616,0.044
		c0.16,0.03,0.296,0.07,0.409,0.12l-0.126,0.496c-0.201-0.105-0.488-0.157-0.861-0.157c-0.172,0-0.342,0.034-0.51,0.102
		c-0.168,0.068-0.317,0.179-0.449,0.333c-0.132,0.153-0.238,0.355-0.318,0.604c-0.08,0.25-0.12,0.556-0.12,0.918
		c0,0.327,0.039,0.612,0.114,0.856c0.075,0.245,0.179,0.449,0.311,0.612c0.132,0.163,0.287,0.285,0.466,0.367
		c0.178,0.081,0.372,0.122,0.582,0.122c0.189,0,0.353-0.02,0.494-0.061c0.141-0.041,0.26-0.093,0.355-0.156L17,6.64z"/>
	<rect x="2" y="8" style="fill:#4A89BE;" width="4" height="2"/>
	<rect x="7" y="8" style="fill:#4A89BE;" width="4" height="2"/>
	<rect x="12" y="8" style="fill:#4A89BE;" width="4" height="2"/>
	<rect x="2" y="11" style="fill:#4A89BE;" width="4" height="2"/>
	<rect x="7" y="11" style="fill:#4A89BE;" width="4" height="2"/>
	<rect x="12" y="11" style="fill:#4A89BE;" width="4" height="2"/>
	<rect x="2" y="14" style="fill:#4A89BE;" width="4" height="2"/>
	<rect x="7" y="14" style="fill:#4A89BE;" width="4" height="2"/>
	<rect x="12" y="14" style="fill:#4A89BE;" width="4" height="2"/>
	<rect x="13" y="13" style="fill:#373943;" width="4" height="4"/>
	<polygon style="fill:#BDCCD4;" points="15,14 15,15 14,15 14,16 15,16 16,16 16,15 16,14 	"/>
</g>
</svg>
