<?xml version="1.0" encoding="utf-8"?>
<svg version="1.1" id="img" xmlns="http://www.w3.org/2000/svg" xmlns:xlink="http://www.w3.org/1999/xlink" x="0px" y="0px"
	 width="18px" height="18px" viewBox="0 0 18 18" style="enable-background:new 0 0 18 18;" xml:space="preserve">
<g id="driver-ado-import.inverted">
	<path style="fill:#FFFFFF;" d="M4.997,5.577H3.118l-0.511,1.34H2l1.94-4.911h0.278l1.948,4.911H5.523L4.997,5.577z M3.315,5.08h1.5
		l-0.568-1.47L4.065,2.876H4.058L3.876,3.623L3.315,5.08z"/>
	<path style="fill:#FFFFFF;" d="M7,2.083c0.099-0.014,0.209-0.024,0.331-0.031c0.122-0.006,0.25-0.012,0.383-0.013
		c0.132-0.003,0.262-0.005,0.39-0.007c0.126-0.002,0.245-0.003,0.354-0.003c0.436,0,0.815,0.059,1.135,0.179
		c0.32,0.12,0.583,0.287,0.791,0.501c0.209,0.214,0.363,0.471,0.464,0.771C10.949,3.777,11,4.107,11,4.466
		c0,0.326-0.048,0.641-0.144,0.942C10.76,5.71,10.607,5.977,10.4,6.209c-0.209,0.233-0.479,0.419-0.812,0.56
		c-0.333,0.14-0.736,0.21-1.209,0.21c-0.083,0-0.19-0.001-0.323-0.003C7.924,6.973,7.787,6.969,7.648,6.961
		C7.507,6.955,7.377,6.949,7.257,6.944C7.137,6.94,7.052,6.933,7,6.924V2.083z M8.474,2.539c-0.067,0-0.142,0-0.223,0
		c-0.08,0-0.16,0.002-0.237,0.007C7.936,2.55,7.864,2.555,7.8,2.559c-0.065,0.005-0.116,0.01-0.152,0.013V6.44
		c0.025,0.005,0.075,0.008,0.148,0.01c0.072,0.003,0.148,0.005,0.226,0.007C8.1,6.46,8.175,6.462,8.247,6.465
		C8.32,6.467,8.37,6.468,8.396,6.468c0.363,0,0.67-0.055,0.916-0.166c0.247-0.109,0.445-0.259,0.594-0.445
		c0.147-0.187,0.253-0.4,0.315-0.643c0.061-0.241,0.094-0.491,0.094-0.749c0-0.226-0.028-0.453-0.086-0.681
		c-0.058-0.228-0.155-0.433-0.297-0.618C9.791,2.983,9.602,2.832,9.366,2.714C9.131,2.598,8.832,2.539,8.474,2.539z"/>
	<path style="fill:#FFFFFF;" d="M12,4.5c0-0.806,0.173-1.423,0.518-1.854C12.862,2.215,13.354,2,13.993,2
		c0.345,0,0.642,0.06,0.895,0.18c0.251,0.12,0.46,0.288,0.625,0.507c0.165,0.219,0.288,0.48,0.367,0.788
		C15.961,3.78,16,4.122,16,4.5c0,0.806-0.174,1.425-0.521,1.854C15.132,6.784,14.636,7,13.993,7c-0.341,0-0.635-0.06-0.885-0.18
		c-0.25-0.12-0.456-0.289-0.622-0.508c-0.165-0.217-0.288-0.48-0.367-0.787C12.039,5.22,12,4.877,12,4.5z M12.615,4.5
		c0,0.267,0.026,0.521,0.081,0.76c0.053,0.24,0.136,0.45,0.248,0.632c0.111,0.182,0.255,0.327,0.43,0.435
		c0.175,0.109,0.381,0.163,0.619,0.163c0.434,0,0.774-0.163,1.02-0.487c0.247-0.325,0.371-0.826,0.371-1.502
		c0-0.262-0.026-0.514-0.08-0.755c-0.054-0.243-0.138-0.454-0.252-0.636c-0.114-0.182-0.259-0.327-0.434-0.435
		s-0.384-0.163-0.626-0.163c-0.43,0-0.766,0.163-1.011,0.486C12.737,3.323,12.615,3.824,12.615,4.5z"/>
	<rect x="2" y="8" style="fill:#FFFFFF;" width="4" height="2"/>
	<rect x="7" y="8" style="fill:#FFFFFF;" width="4" height="2"/>
	<rect x="12" y="8" style="fill:#FFFFFF;" width="4" height="2"/>
	<rect x="2" y="11" style="fill:#FFFFFF;" width="4" height="2"/>
	<rect x="7" y="11" style="fill:#FFFFFF;" width="4" height="2"/>
	<rect x="2" y="14" style="fill:#FFFFFF;" width="4" height="2"/>
	<rect x="7" y="14" style="fill:#FFFFFF;" width="4" height="2"/>
	<path style="fill:#FFFFFF;" d="M16,14v1v1h-1h-1v-1h1v-1H16z M17,13h-4v4h4V13z"/>
</g>
</svg>
