<?xml version="1.0" encoding="utf-8"?>
<svg version="1.1" id="img" xmlns="http://www.w3.org/2000/svg" xmlns:xlink="http://www.w3.org/1999/xlink" x="0px" y="0px"
	 width="18px" height="18px" viewBox="0 0 18 18" style="enable-background:new 0 0 18 18;" xml:space="preserve">
<g id="driver-ado-import.default">
	<path style="fill:#EB8C41;" d="M4.998,5.577H3.118l-0.51,1.34H2l1.941-4.911h0.278l1.948,4.911H5.523L4.998,5.577z M3.315,5.08h1.5
		l-0.567-1.47L4.065,2.876H4.058L3.875,3.623L3.315,5.08z"/>
	<path style="fill:#EB8C41;" d="M7,2.083c0.099-0.014,0.209-0.024,0.331-0.031c0.122-0.006,0.25-0.012,0.383-0.013
		c0.131-0.003,0.262-0.005,0.39-0.007C8.23,2.029,8.349,2.028,8.458,2.028c0.436,0,0.814,0.059,1.135,0.179
		c0.32,0.12,0.583,0.287,0.791,0.501c0.208,0.214,0.362,0.471,0.463,0.771C10.95,3.777,11,4.107,11,4.466
		c0,0.326-0.047,0.641-0.144,0.942C10.76,5.71,10.608,5.977,10.4,6.209c-0.208,0.233-0.479,0.419-0.811,0.56
		c-0.333,0.14-0.737,0.21-1.209,0.21c-0.084,0-0.191-0.001-0.324-0.003c-0.133-0.002-0.27-0.007-0.409-0.014
		C7.506,6.955,7.377,6.949,7.257,6.944C7.137,6.94,7.051,6.933,7,6.924V2.083z M8.474,2.539c-0.068,0-0.142,0-0.223,0
		c-0.08,0-0.16,0.002-0.237,0.007C7.936,2.55,7.864,2.555,7.8,2.559c-0.066,0.005-0.116,0.01-0.152,0.013V6.44
		c0.025,0.005,0.075,0.008,0.148,0.01c0.072,0.003,0.147,0.005,0.226,0.007C8.1,6.46,8.175,6.462,8.247,6.465
		C8.32,6.467,8.37,6.468,8.396,6.468c0.364,0,0.67-0.055,0.916-0.166c0.247-0.109,0.445-0.259,0.594-0.445
		c0.147-0.187,0.253-0.4,0.315-0.643c0.062-0.241,0.094-0.491,0.094-0.749c0-0.226-0.028-0.453-0.085-0.681
		c-0.058-0.228-0.156-0.433-0.297-0.618c-0.141-0.184-0.33-0.335-0.565-0.453C9.13,2.598,8.833,2.539,8.474,2.539z"/>
	<path style="fill:#EB8C41;" d="M12,4.5c0-0.806,0.172-1.423,0.517-1.854C12.862,2.215,13.354,2,13.993,2
		c0.345,0,0.642,0.06,0.895,0.18c0.251,0.12,0.46,0.288,0.625,0.507c0.166,0.219,0.289,0.48,0.368,0.788
		C15.961,3.78,16,4.122,16,4.5c0,0.806-0.174,1.425-0.521,1.854C15.132,6.784,14.636,7,13.993,7c-0.34,0-0.635-0.06-0.885-0.18
		c-0.249-0.12-0.456-0.289-0.621-0.508c-0.166-0.217-0.289-0.48-0.367-0.787C12.039,5.22,12,4.877,12,4.5z M12.616,4.5
		c0,0.267,0.026,0.521,0.081,0.76c0.053,0.24,0.136,0.45,0.248,0.632c0.111,0.182,0.255,0.327,0.43,0.435
		c0.175,0.109,0.38,0.163,0.619,0.163c0.434,0,0.774-0.163,1.021-0.487c0.247-0.325,0.37-0.826,0.37-1.502
		c0-0.262-0.026-0.514-0.08-0.755c-0.054-0.243-0.137-0.454-0.252-0.636c-0.115-0.182-0.259-0.327-0.434-0.435
		c-0.174-0.108-0.383-0.163-0.626-0.163c-0.429,0-0.766,0.163-1.011,0.486C12.737,3.323,12.616,3.824,12.616,4.5z"/>
	<rect x="2" y="8" style="fill:#EB8C41;" width="4" height="2"/>
	<rect x="7" y="8" style="fill:#EB8C41;" width="4" height="2"/>
	<rect x="12" y="8" style="fill:#EB8C41;" width="4" height="2"/>
	<rect x="2" y="11" style="fill:#EB8C41;" width="4" height="2"/>
	<rect x="7" y="11" style="fill:#EB8C41;" width="4" height="2"/>
	<rect x="12" y="11" style="fill:#EB8C41;" width="4" height="2"/>
	<rect x="2" y="14" style="fill:#EB8C41;" width="4" height="2"/>
	<rect x="7" y="14" style="fill:#EB8C41;" width="4" height="2"/>
	<rect x="12" y="14" style="fill:#EB8C41;" width="4" height="2"/>
	<rect x="13" y="13" style="fill:#373943;" width="4" height="4"/>
	<polygon style="fill:#BDCCD4;" points="15,14 15,15 14,15 14,16 15,16 16,16 16,15 16,14 	"/>
</g>
</svg>
