<?xml version="1.0" encoding="utf-8"?>
<svg version="1.1" id="img" xmlns="http://www.w3.org/2000/svg" xmlns:xlink="http://www.w3.org/1999/xlink" x="0px" y="0px"
	 width="18px" height="18px" viewBox="0 0 18 18" style="enable-background:new 0 0 18 18;" xml:space="preserve">
<g id="file-xml-export.inverted">
	<polygon style="fill:#FFFFFF;" points="12,2 6,2 6,3 12,3 12,5 14,5 14,15 4,15 4,6 3,6 3,16 15,16 15,5 	"/>
	<path style="fill:#FFFFFF;" d="M10,7l-1.22,6H8l1.229-6H10z"/>
	<polygon style="fill:#FFFFFF;" points="11,8 13,10 11,12 	"/>
	<polygon style="fill:#FFFFFF;" points="7,12 5,10 7,8 	"/>
	<path style="fill:#FFFFFF;" d="M5,1H1v4h4V1z M4,3v1H3H2V3h1V2h1V3z"/>
</g>
</svg>
