<?xml version="1.0" encoding="utf-8"?>
<svg version="1.1" id="img" xmlns="http://www.w3.org/2000/svg" xmlns:xlink="http://www.w3.org/1999/xlink" x="0px" y="0px"
	 width="18px" height="18px" viewBox="0 0 18 18" style="enable-background:new 0 0 18 18;" xml:space="preserve">
<g id="file-native-export.inverted">
	<polygon style="fill:#FFFFFF;" points="12,2 6,2 6,3 12,3 12,5 14,5 14,15 4,15 4,6 3,6 3,16 15,16 15,5 	"/>
	<path style="fill:#FFFFFF;" d="M5,1H1v4h4V1z M4,3v1H3H2V3h1V2h1V3z"/>
	<polygon style="fill:#FFFFFF;" points="5,10 8,10 8,11.239 8.833,11.026 10.408,7.277 12.851,6 12.95,6.305 10.84,7.573 
		9.247,12.224 8,13 5,13 	"/>
</g>
</svg>
