<?xml version="1.0" encoding="utf-8"?>
<svg version="1.1" id="img" xmlns="http://www.w3.org/2000/svg" xmlns:xlink="http://www.w3.org/1999/xlink" x="0px" y="0px"
	 width="18px" height="18px" viewBox="0 0 18 18" style="enable-background:new 0 0 18 18;" xml:space="preserve">
<path id="kafka.default" style="fill:#242021;" d="M12,10c-0.547,0-1.042,0.221-1.403,0.578L9.79,10.09l-0.001-0.001
	c0,0.001-0.001,0.002-0.002,0.003C9.921,9.753,10,9.386,10,9c0-0.216-0.036-0.422-0.083-0.625L10.39,8.18l0.003-0.001
	C10.757,8.674,11.339,9,12,9c1.103,0,2-0.897,2-2s-0.897-2-2-2s-2,0.897-2,2c0,0.088,0.015,0.172,0.026,0.258L9.544,7.444
	C9.101,6.722,8.364,6.218,7.5,6.068V4.929C8.36,4.705,9,3.929,9,3c0-1.103-0.897-2-2-2S5,1.897,5,3c0,0.929,0.64,1.705,1.5,1.929
	v1.122C5.084,6.29,4,7.517,4,9s1.084,2.71,2.5,2.949v1.122C5.64,13.295,5,14.071,5,15c0,1.103,0.897,2,2,2s2-0.897,2-2
	c0-0.929-0.64-1.705-1.5-1.929v-1.128c0.709-0.123,1.334-0.488,1.782-1.018c-0.005,0.006-0.008,0.013-0.013,0.018L9.28,10.95
	l0.8,0.48l0.008,0.005c0.003-0.009,0.009-0.017,0.011-0.026C10.041,11.597,10,11.793,10,12c0,1.103,0.897,2,2,2s2-0.897,2-2
	S13.103,10,12,10z M12,6c0.551,0,1,0.449,1,1s-0.449,1-1,1s-1-0.449-1-1S11.449,6,12,6z M6,3c0-0.551,0.449-1,1-1s1,0.449,1,1
	S7.551,4,7,4S6,3.551,6,3z M8,15c0,0.551-0.449,1-1,1s-1-0.449-1-1s0.449-1,1-1S8,14.449,8,15z M7,11c-1.103,0-2-0.897-2-2
	s0.897-2,2-2s2,0.897,2,2S8.103,11,7,11z M12,13c-0.551,0-1-0.449-1-1s0.449-1,1-1s1,0.449,1,1S12.551,13,12,13z"/>
</svg>
