<?xml version="1.0" encoding="utf-8"?>
<svg version="1.1" id="img" xmlns="http://www.w3.org/2000/svg" xmlns:xlink="http://www.w3.org/1999/xlink" x="0px" y="0px"
	 width="18px" height="18px" viewBox="0 0 18 18" style="enable-background:new 0 0 18 18;" xml:space="preserve">
<g id="kafka-export.default">
	<path style="fill:#242021;" d="M14,10c-0.547,0-1.042,0.221-1.403,0.578L11.79,10.09l-0.001-0.001c0,0.001-0.001,0.002-0.002,0.003
		C11.921,9.753,12,9.386,12,9c0-0.216-0.036-0.422-0.083-0.625L12.39,8.18l0.003-0.001C12.757,8.674,13.339,9,14,9
		c1.103,0,2-0.897,2-2s-0.897-2-2-2s-2,0.897-2,2c0,0.088,0.015,0.172,0.026,0.258l-0.482,0.187
		C11.101,6.722,10.364,6.218,9.5,6.068V4.929C10.36,4.705,11,3.929,11,3c0-1.103-0.897-2-2-2S7,1.897,7,3
		c0,0.929,0.64,1.705,1.5,1.929v1.122C7.084,6.29,6,7.517,6,9s1.084,2.71,2.5,2.949v1.122C7.64,13.295,7,14.071,7,15
		c0,1.103,0.897,2,2,2s2-0.897,2-2c0-0.929-0.64-1.705-1.5-1.929v-1.128c0.709-0.123,1.334-0.488,1.782-1.018
		c-0.005,0.006-0.008,0.013-0.013,0.018l0.012,0.007l0.8,0.48l0.008,0.005c0.003-0.009,0.009-0.017,0.011-0.026
		C12.041,11.597,12,11.793,12,12c0,1.103,0.897,2,2,2s2-0.897,2-2S15.103,10,14,10z M14,6c0.551,0,1,0.449,1,1s-0.449,1-1,1
		s-1-0.449-1-1S13.449,6,14,6z M8,3c0-0.551,0.449-1,1-1s1,0.449,1,1S9.551,4,9,4S8,3.551,8,3z M10,15c0,0.551-0.449,1-1,1
		s-1-0.449-1-1s0.449-1,1-1S10,14.449,10,15z M9,11c-1.103,0-2-0.897-2-2s0.897-2,2-2s2,0.897,2,2S10.103,11,9,11z M14,13
		c-0.551,0-1-0.449-1-1s0.449-1,1-1s1,0.449,1,1S14.551,13,14,13z"/>
	<rect x="1" y="1" style="fill:#373943;" width="4" height="4"/>
	<polygon style="fill:#BDCCD4;" points="3,2 3,3 2,3 2,4 4,4 4,2 	"/>
</g>
</svg>
