<?xml version="1.0" encoding="utf-8"?>
<svg version="1.1" id="img" xmlns="http://www.w3.org/2000/svg" xmlns:xlink="http://www.w3.org/1999/xlink" x="0px" y="0px"
	 width="18px" height="18px" viewBox="0 0 18 18" style="enable-background:new 0 0 18 18;" xml:space="preserve">
<path id="web-equifax-client.inverted" style="fill:#FFFFFF;" d="M16.99,14.103l-0.614-0.477C16.761,12.989,17,12.272,17,11.5
	c0-1.577-0.918-2.965-2.292-3.769c0.096-0.369,0.163-0.749,0.163-1.147C14.871,4.052,12.818,2,10.287,2
	C8.229,2,6.509,3.365,5.929,5.232C5.56,4.884,5.065,4.666,4.517,4.666c-1.139,0-2.062,0.923-2.062,2.062
	c0,0.482,0.173,0.919,0.449,1.269C1.754,8.825,1,10.081,1,11.5C1,13.975,3.25,16,6,16h6c0.342,0,0.677-0.032,1-0.091v1.063
	c0,0.418,0.481,0.654,0.811,0.397l3.178-2.472C17.249,14.696,17.249,14.304,16.99,14.103z M13.24,7.549H9.111L8.797,9.097h3.355
	L12.067,9.51l-0.232,1.135H8.481l-0.366,1.808h4.128L11.928,14H4.443l1.314-6.451L6.072,6h7.484L13.24,7.549z M14,16v-3l2,1.5L14,16
	z"/>
</svg>
