<?xml version="1.0" encoding="utf-8"?>
<svg version="1.1" id="img" xmlns="http://www.w3.org/2000/svg" xmlns:xlink="http://www.w3.org/1999/xlink" x="0px" y="0px"
	 width="18px" height="18px" viewBox="0 0 18 18" style="enable-background:new 0 0 18 18;" xml:space="preserve">
<path id="web-soap.inverted" style="fill:#FFFFFF;" d="M17,11.5c0,2.475-2.25,4.5-5,4.5H6c-2.75,0-5-2.025-5-4.5
	c0-1.419,0.754-2.675,1.903-3.502C2.627,7.648,2.454,7.21,2.454,6.728c0-1.14,0.924-2.062,2.063-2.062
	c0.548,0,1.043,0.218,1.412,0.566C6.509,3.365,8.229,2,10.287,2c2.531,0,4.584,2.052,4.584,4.584c0,0.398-0.067,0.778-0.163,1.147
	C16.082,8.535,17,9.923,17,11.5z M6,12.292l-2.432-0.966L6,10.36V9.072l-4,1.713v1.077l4,1.71V12.292z M9.324,8l-1.746,6h1.108
	l1.735-6H9.324z M12,13.572l4-1.71v-1.077l-4-1.713v1.288l2.432,0.966L12,12.292V13.572z"/>
</svg>
