<?xml version="1.0" encoding="utf-8"?>
<svg version="1.1" id="img" xmlns="http://www.w3.org/2000/svg" xmlns:xlink="http://www.w3.org/1999/xlink" x="0px" y="0px"
	 width="18px" height="18px" viewBox="0 0 18 18" style="enable-background:new 0 0 18 18;" xml:space="preserve">
<g id="web-odant-export.inverted">
	<path style="fill:#FFFFFF;" d="M1,1v4h4V1H1z M4,3v1H3H2V3h1V2h1V3z"/>
	<path style="fill:#FFFFFF;" d="M15.99,2.5C15.992,2.483,16,2.466,15.996,2.448c-0.032-0.148-0.227-0.322-0.554-0.487
		c-0.365-0.186-0.896-0.361-1.536-0.505c-0.649-0.144-1.398-0.256-2.228-0.339C10.844,1.039,9.958,1,9.047,1H8.991
		c-0.93,0-1.835,0.043-2.689,0.131C6.196,1.141,6.103,1.158,6,1.169v3.676V6v1.845c-0.845-0.092-1.597-0.22-2.238-0.38
		C3.477,7.392,3.224,7.312,3,7.23V6H2v9.5h0.007c-0.013,0.158,0.17,0.313,0.334,0.417c0.303,0.2,0.796,0.387,1.422,0.548
		c0.663,0.166,1.441,0.3,2.323,0.392C6.985,16.952,7.952,17,8.953,17h0.061c1.019,0,2.004-0.052,2.924-0.156
		c0.881-0.096,1.66-0.23,2.312-0.403c0.622-0.162,1.11-0.353,1.418-0.554c0.148-0.098,0.31-0.24,0.32-0.387H16v-13H15.99z M6,15.845
		c-0.845-0.092-1.597-0.22-2.238-0.38C3.477,15.392,3.224,15.312,3,15.23v-3c0.224,0.083,0.477,0.162,0.762,0.235
		c0.64,0.16,1.393,0.289,2.238,0.38V15.845z M6,11.845c-0.845-0.092-1.597-0.22-2.238-0.38C3.477,11.392,3.224,11.312,3,11.23v-3
		c0.224,0.083,0.477,0.162,0.762,0.235C4.403,8.625,5.155,8.753,6,8.845V11.845z M11,15.921C10.356,15.968,9.698,16,9.015,16H8.953
		C8.28,16,7.632,15.97,7,15.927v-3C7.632,12.97,8.28,13,8.953,13h0.061c0.683,0,1.342-0.032,1.985-0.079V15.921z M11,11.921
		C10.356,11.968,9.698,12,9.015,12H8.953C8.28,12,7.632,11.97,7,11.927v-3C7.632,8.97,8.28,9,8.953,9h0.061
		C9.698,9,10.356,8.968,11,8.921V11.921z M11,7.921C10.356,7.968,9.698,8,9.015,8H8.953C8.28,8,7.632,7.97,7,7.927v-3
		C7.632,4.97,8.28,5,8.953,5h0.061C9.698,5,10.356,4.968,11,4.921V7.921z M15,15.205c-0.221,0.083-0.469,0.162-0.748,0.235
		c-0.637,0.169-1.397,0.3-2.252,0.395v-3c0.855-0.095,1.615-0.226,2.252-0.395c0.279-0.073,0.527-0.152,0.748-0.235V15.205z
		 M15,11.205c-0.221,0.083-0.469,0.162-0.748,0.235c-0.637,0.169-1.397,0.3-2.252,0.395v-3c0.855-0.095,1.615-0.226,2.252-0.395
		C14.531,8.368,14.779,8.288,15,8.205V11.205z M15,7.205c-0.221,0.083-0.469,0.162-0.748,0.235C13.615,7.609,12.855,7.74,12,7.835
		v-3c0.855-0.095,1.615-0.226,2.252-0.395C14.531,4.368,14.779,4.288,15,4.205V7.205z"/>
</g>
</svg>
