<?xml version="1.0" encoding="utf-8"?>
<svg version="1.1" id="img" xmlns="http://www.w3.org/2000/svg" xmlns:xlink="http://www.w3.org/1999/xlink" x="0px" y="0px"
	 width="18px" height="18px" viewBox="0 0 18 18" style="enable-background:new 0 0 18 18;" xml:space="preserve">
<g id="wh-datawarehouse-export.inverted">
	<path style="fill:#FFFFFF;" d="M5,1H1v4h4V1z M4,3v1H3H2V3h1V2h1V3z"/>
	<path style="fill:#FFFFFF;" d="M6,2v1h8.293l-1,1H6v2h7v1H3V6H2v10h12v-0.01l2-2V2H6z M13,13H3v-1h10V13z M13,10H3V9h10V10z
		 M15,13.576l-1,1V4.707l1-1V13.576z"/>
</g>
</svg>
