<?xml version="1.0" encoding="utf-8"?>
<svg version="1.1" id="img" xmlns="http://www.w3.org/2000/svg" xmlns:xlink="http://www.w3.org/1999/xlink" x="0px" y="0px"
	 width="18px" height="18px" viewBox="0 0 18 18" style="enable-background:new 0 0 18 18;" xml:space="preserve">
<path id="wh-mssql.inverted" style="fill:#FFFFFF;" d="M5.775,5.854C6.23,5.99,6.87,6.143,7.325,6.158
	C7.139,6.3,6.853,6.44,6.565,6.542C6.251,6.382,5.936,6.074,5.775,5.854z M6.619,7.638c0.3,0.097,0.6,0.192,0.9,0.289
	C7.492,7.603,7.464,7.277,7.436,6.953C7.131,7.144,6.819,7.323,6.619,7.638z M6.945,5.279c-0.388,0.12-0.742,0.273-1.049,0.475
	c0.477,0.123,0.925,0.17,1.361,0.18C7.13,5.776,7.031,5.547,6.945,5.279z M6.969,6.672c0.061,0.01,0.124,0.021,0.185,0.03
	c0.169-0.008,0.397,0.019,0.562,0.009C7.645,6.614,7.479,6.423,7.397,6.275c-0.136,0.12-0.41,0.243-0.638,0.312
	C6.797,6.613,6.914,6.645,6.969,6.672z M5.65,6.429C5.784,6.42,5.918,6.411,6.052,6.401C5.847,6.27,5.714,6.077,5.601,5.926
	C5.444,5.986,5.323,6.121,5.258,6.283c0.213,0.038,0.269,0.094,0.345,0.136C5.619,6.423,5.634,6.426,5.65,6.429z M6.459,9.342
	C6.418,9.561,6.328,9.755,6.228,9.943c0.189-0.127,0.38-0.256,0.569-0.383C6.701,9.434,6.585,9.367,6.459,9.342z M6.187,6.707
	c0.124,0.328,0.186,0.585,0.246,0.84c0.234-0.26,0.543-0.473,0.849-0.65C6.93,6.776,6.549,6.735,6.187,6.707z M5.461,6.519
	c0.281,0.211,0.565,0.517,0.745,0.778C6.169,7.086,6.081,6.824,5.954,6.623C5.773,6.552,5.608,6.521,5.461,6.519z M7.149,9.561
	c0.101,0.2,0.158,0.439,0.175,0.71C7.7,9.764,8.144,9.211,8.518,8.703C8.063,8.988,7.606,9.274,7.149,9.561z M8.914,7.166
	c-0.439-0.123-0.892-0.195-1.36-0.205C7.6,7.293,7.647,7.625,7.694,7.957C8.07,7.638,8.477,7.375,8.914,7.166z M10.73,7.74
	c-0.487-0.203-1.028-0.372-1.534-0.476c-0.013,0.393-0.197,0.927-0.392,1.26C9.411,8.197,10.053,7.937,10.73,7.74z M8.644,8.448
	c0.25-0.376,0.375-0.791,0.46-1.217C8.658,7.43,8.24,7.695,7.854,8.037C8.156,8.125,8.422,8.26,8.644,8.448z M7.507,8.197
	C7.193,8.501,6.88,8.806,6.565,9.11c0.194,0.044,0.354,0.137,0.468,0.293C7.192,9.002,7.351,8.599,7.507,8.197z M6.181,10.043
	c-0.137,0.206-0.291,0.442-0.621,0.761c0.238-0.162,0.473-0.325,0.709-0.486C6.239,10.225,6.21,10.135,6.181,10.043z M7.196,10.317
	C7.167,10.079,7.164,9.8,7.014,9.632c-0.373,0.389-0.847,0.893-1.22,1.281C6.282,10.655,6.776,10.448,7.196,10.317z M7.664,8.266
	C7.475,8.667,7.286,9.066,7.097,9.468c0.417-0.294,0.834-0.588,1.25-0.883C8.156,8.441,7.936,8.328,7.664,8.266z M6.542,7.897
	C6.58,8.221,6.588,8.539,6.574,8.82c0.262-0.23,0.511-0.463,0.774-0.696C7.079,8.049,6.812,7.973,6.542,7.897z M6.383,13.463
	c-0.561,0.203-1.227,0.43-1.84,0.54c0.339,0.254,0.718,0.409,1.119,0.511C5.995,14.221,6.311,13.826,6.383,13.463z M8.66,12.222
	c0.042-0.385,0.097-0.701,0.078-1.095c-0.404,0.21-0.865,0.421-1.27,0.633C7.81,12.028,8.225,12.183,8.66,12.222z M8.23,13.828
	c0.145-0.398,0.28-0.781,0.349-1.217c-0.598,0.252-1.28,0.528-1.877,0.782C7.078,13.696,7.748,13.74,8.23,13.828z M6.565,13.349
	c0.552-0.216,1.474-0.689,2.026-0.905c-0.306-0.046-0.792-0.295-1.199-0.583C7.297,12.329,6.863,13.042,6.565,13.349z M7.995,10.319
	c0.326,0.091,0.587,0.239,0.752,0.473c0.013-0.214-0.014-0.428-0.061-0.641C8.455,10.207,8.225,10.264,7.995,10.319z M11.019,7.938
	C10.7,8.454,10.354,8.962,9.912,9.437c0.801-0.216,1.593-0.378,2.373-0.452C11.951,8.557,11.535,8.202,11.019,7.938z M6.573,10.859
	c0.267,0.459,0.611,0.677,0.745,0.739c0.061-0.337,0.175-0.773,0.122-1.074C7.177,10.62,6.833,10.767,6.573,10.859z M7.569,10.169
	c0.667-0.216,1.335-0.432,2.002-0.647C9.294,9.204,9.019,8.965,8.679,8.811C8.321,9.259,7.926,9.72,7.569,10.169z M8.91,8.6
	c0.352,0.233,0.633,0.555,0.814,0.888c0.417-0.545,0.843-1.076,1.201-1.622C10.229,8.066,9.544,8.289,8.91,8.6z M7.773,14.863
	c0.158-0.244,0.233-0.522,0.33-0.817c-0.633,0.242-1.278,0.452-1.942,0.604C6.689,14.77,7.226,14.847,7.773,14.863z M6.435,13.266
	c0.37-0.388,0.789-1.015,0.854-1.443c-0.47,0.193-1.171,0.581-1.713,0.683C5.768,12.846,6.079,13.076,6.435,13.266z M6.177,11.021
	c-0.313,0.131-0.627,0.264-0.942,0.395c-0.118,0.278-0.028,0.679,0.183,0.838C5.733,11.851,6.003,11.441,6.177,11.021z
	 M7.721,10.389c-0.071,0.397-0.226,0.873-0.297,1.271c0.393-0.201,0.869-0.478,1.262-0.679C8.5,10.717,8.148,10.532,7.721,10.389z
	 M6.443,10.937c-0.243,0.442-0.706,0.985-0.948,1.427c0.481-0.05,1.247-0.383,1.709-0.636C6.96,11.588,6.646,11.36,6.443,10.937z
	 M6.556,13.54c-0.171,0.376-0.409,0.688-0.732,1.035c0.752-0.138,1.479-0.317,2.14-0.617C7.489,13.867,6.989,13.793,6.556,13.54z
	 M3.712,12.916c0.008,0.441,0.167,0.774,0.55,0.943c0.434-0.394,0.756-0.816,0.927-1.279C4.697,12.692,4.205,12.803,3.712,12.916z
	 M5.379,12.642c-0.234,0.469-0.551,0.901-0.927,1.309c0.596-0.146,1.187-0.317,1.763-0.563C5.828,13.132,5.564,12.9,5.379,12.642z
	 M16,2v11.99l-2,2V16H2V4H1.994l2.551-2H16z M3.615,4h9.678l1-1H4.891L3.615,4z M12.434,8.906C11.175,7.351,9.477,7.07,7.497,6.759
	l0.39,0.062C7.492,6.251,7.214,5.64,7.021,5C6.239,5.349,5.467,5.707,4.869,6.22c-0.06-0.029,0.015,0,0.289,0.199
	c1.738,1.264,1.787,2.945-0.152,4.812c-0.167,0.161-0.349,0.354-0.525,0.541c-0.029,0.019-0.046,0.037-0.074,0.056
	c0.035-0.025,0.066-0.05,0.103-0.075c0.161-0.1,0.321-0.2,0.482-0.3c-0.032,0.35,0.027,0.676,0.22,0.965
	c-0.497,0.13-0.994,0.259-1.491,0.389c0.026-0.338,0.197-0.581,0.449-0.798C1.976,13.782,5.622,14.924,7.888,15
	c0.829-1.837,1.149-3.354,0.943-5.103c1.642-0.508,3.025-0.76,3.597-0.796C12.546,9.093,12.556,9.058,12.434,8.906z M15,3.707l-1,1
	v9.869l1-1V3.707z"/>
</svg>
