<?xml version="1.0" encoding="utf-8"?>
<svg version="1.1" id="img" xmlns="http://www.w3.org/2000/svg" xmlns:xlink="http://www.w3.org/1999/xlink" x="0px" y="0px"
	 width="18px" height="18px" viewBox="0 0 18 18" style="enable-background:new 0 0 18 18;" xml:space="preserve">
<g id="wh-oracle.default">
	<rect x="2" y="4" style="fill:#C9102C;" width="12" height="12"/>
	<polygon style="fill:#FFCFDA;" points="5,2 2,4 14,4 16,2 	"/>
	<polygon style="fill:#FF94AE;" points="16,14 14,16 14,4 16,2 	"/>
	<path style="fill:#FFFFFF;" d="M10,13H6c-1.654,0-3-1.346-3-3s1.346-3,3-3h4c1.654,0,3,1.346,3,3S11.654,13,10,13z M6,8
		c-1.103,0-2,0.897-2,2s0.897,2,2,2h4c1.103,0,2-0.897,2-2s-0.897-2-2-2H6z"/>
</g>
</svg>
