<?xml version="1.0" encoding="UTF-8" standalone="no"?>
<!-- Created with Inkscape (http://www.inkscape.org/) -->

<svg
   xmlns:dc="http://purl.org/dc/elements/1.1/"
   xmlns:cc="http://creativecommons.org/ns#"
   xmlns:rdf="http://www.w3.org/1999/02/22-rdf-syntax-ns#"
   xmlns:svg="http://www.w3.org/2000/svg"
   xmlns="http://www.w3.org/2000/svg"
   xmlns:sodipodi="http://sodipodi.sourceforge.net/DTD/sodipodi-0.dtd"
   xmlns:inkscape="http://www.inkscape.org/namespaces/inkscape"
   width="18"
   height="18"
   viewBox="0 0 4.7624999 4.7625001"
   version="1.1"
   id="svg354"
   sodipodi:docname="series5.svg"
   inkscape:version="0.92.2 (5c3e80d, 2017-08-06)">
  <defs
     id="defs348" />
  <sodipodi:namedview
     id="base"
     pagecolor="#ffffff"
     bordercolor="#666666"
     borderopacity="1.0"
     inkscape:pageopacity="0.0"
     inkscape:pageshadow="2"
     inkscape:zoom="31.678384"
     inkscape:cx="11.728672"
     inkscape:cy="9.5868378"
     inkscape:document-units="mm"
     inkscape:current-layer="layer1"
     showgrid="false"
     units="px"
     inkscape:window-width="1920"
     inkscape:window-height="1017"
     inkscape:window-x="1276"
     inkscape:window-y="-4"
     inkscape:window-maximized="1" />
  <metadata
     id="metadata351">
    <rdf:RDF>
      <cc:Work
         rdf:about="">
        <dc:format>image/svg+xml</dc:format>
        <dc:type
           rdf:resource="http://purl.org/dc/dcmitype/StillImage" />
        <dc:title></dc:title>
      </cc:Work>
    </rdf:RDF>
  </metadata>
  <g
     inkscape:label="Layer 1"
     inkscape:groupmode="layer"
     id="layer1"
     transform="translate(0,-292.23748)">
    <rect
       style="fill:#71b1e4;stroke-width:0.26458332"
       x="0.28040704"
       y="292.51129"
       width="0.26458332"
       height="4.2333331"
       id="rect56" />
    <rect
       style="fill:#71b1e4;stroke-width:0.26458332"
       x="0.28040704"
       y="296.48004"
       width="4.2333331"
       height="0.26458332"
       id="rect58" />
    <g
       transform="matrix(0.26458333,0,0,0.26458333,0.01582372,244.62171)"
       style="fill:#71b1e4"
       id="g134">
      <path
         inkscape:connector-curvature="0"
         d="m 15.5,183 c 0,4.10937 -0.829102,8.5 -3.15625,8.5 -0.120117,0 -0.231934,-0.0195 -0.34375,-0.0391 V 192 h -1 v 0.17578 c 0.395508,0.19824 0.834473,0.32422 1.34375,0.32422 3.751465,0 4.15625,-6.64355 4.15625,-9.5 z"
         id="path130" />
      <path
         inkscape:connector-curvature="0"
         d="M 8,188.75977 V 188 h 0.671875 c -0.668457,-0.83984 -1.4550781,-1.5 -2.609375,-1.5 -4.0161133,0 -5.0175781,7.12988 -5.0581055,7.43359 l 0.9912109,0.13282 C 2.2402344,192.24023 3.4477539,187.5 6.0625,187.5 c 0.8022461,0 1.3818359,0.52734 1.9375,1.25977 z"
         id="path132" />
    </g>
    <path
       inkscape:connector-curvature="0"
       style="fill:#f7931e;stroke-width:0.26458332"
       d="m 3.7199903,293.83421 v -0.26459 H 1.6033237 v 0.26459 h 0.79375 v 0.52916 H 2.1324903 v 0.26459 0.52916 0.26459 h 0.2645834 v 0.52916 h -0.79375 v 0.26459 h 0.79375 0.5291666 0.79375 v -0.26459 h -0.79375 v -0.52916 h 0.2645834 v -0.26459 -0.52916 -0.26459 H 2.9262403 v -0.52916 z m -0.79375,1.32291 H 2.3970737 v -0.52916 h 0.5291666 z"
       id="path162" />
  </g>
</svg>
