<?xml version="1.0" encoding="UTF-8" standalone="no"?>
<!-- Created with Inkscape (http://www.inkscape.org/) -->

<svg
   xmlns:dc="http://purl.org/dc/elements/1.1/"
   xmlns:cc="http://creativecommons.org/ns#"
   xmlns:rdf="http://www.w3.org/1999/02/22-rdf-syntax-ns#"
   xmlns:svg="http://www.w3.org/2000/svg"
   xmlns="http://www.w3.org/2000/svg"
   xmlns:sodipodi="http://sodipodi.sourceforge.net/DTD/sodipodi-0.dtd"
   xmlns:inkscape="http://www.inkscape.org/namespaces/inkscape"
   width="18"
   height="18"
   viewBox="0 0 4.7624999 4.7625001"
   version="1.1"
   id="svg507"
   inkscape:version="0.92.2 (5c3e80d, 2017-08-06)"
   sodipodi:docname="d3.svg">
  <defs
     id="defs501" />
  <sodipodi:namedview
     id="base"
     pagecolor="#ffffff"
     bordercolor="#666666"
     borderopacity="1.0"
     inkscape:pageopacity="0.0"
     inkscape:pageshadow="2"
     inkscape:zoom="31.678384"
     inkscape:cx="15.376762"
     inkscape:cy="8.527715"
     inkscape:document-units="mm"
     inkscape:current-layer="layer1"
     showgrid="false"
     units="px"
     inkscape:window-width="1920"
     inkscape:window-height="1017"
     inkscape:window-x="1276"
     inkscape:window-y="-4"
     inkscape:window-maximized="1" />
  <metadata
     id="metadata504">
    <rdf:RDF>
      <cc:Work
         rdf:about="">
        <dc:format>image/svg+xml</dc:format>
        <dc:type
           rdf:resource="http://purl.org/dc/dcmitype/StillImage" />
        <dc:title></dc:title>
      </cc:Work>
    </rdf:RDF>
  </metadata>
  <g
     inkscape:label="Layer 1"
     inkscape:groupmode="layer"
     id="layer1"
     transform="translate(0,-292.23748)">
    <g
       transform="matrix(0.26458333,0,0,0.26458333,-8.806477e-4,282.73006)"
       id="g14">
      <path
         style="fill:#f7931e"
         inkscape:connector-curvature="0"
         d="M 2.2436523,52.520508 1.6313476,51.729492 c 0.8188477,-0.634765 1.6220703,-1.289062 2.4248047,-1.944336 0.953125,-0.777344 1.9057617,-1.553711 2.8847656,-2.297851 2.1196289,-1.611328 4.5322271,-2.228516 6.6191411,-1.69043 0.958984,0.246094 1.976562,1.195312 2.794433,1.957031 0.183594,0.170899 0.354004,0.330078 0.506836,0.463867 l -0.660156,0.751954 c -0.158692,-0.139649 -0.336914,-0.305665 -0.528321,-0.484375 -0.6958,-0.648438 -1.649414,-1.53711 -2.361816,-1.719727 -1.787598,-0.460938 -3.8901367,0.09277 -5.7651367,1.518555 -0.9697266,0.736328 -1.9135742,1.505859 -2.8574219,2.276367 -0.8095701,0.660156 -1.6191405,1.320312 -2.4448241,1.959961 z"
         id="path12" />
    </g>
    <g
       transform="matrix(0.26458333,0,0,0.26458333,-8.806477e-4,282.73006)"
       id="g28">
      <path
         style="fill:#71b1e4"
         inkscape:connector-curvature="0"
         d="M 2.4990234,52.03125 1.5009765,51.96875 C 1.5200195,51.664062 2.0141602,44.5 6.0625,44.5 c 1.65625,0 2.5610352,1.350586 3.4360352,2.65625 C 10.306152,48.361328 11.068848,49.5 12.34375,49.5 14.670898,49.5 15.5,45.109375 15.5,41 h 1 c 0,2.856445 -0.404785,9.5 -4.15625,9.5 -1.808594,0 -2.8007813,-1.480469 -3.6762695,-2.787109 C 7.8720703,46.525391 7.1850586,45.5 6.0625,45.5 c -2.5839844,0 -3.4487305,4.714844 -3.5634766,6.53125 z"
         id="path26" />
    </g>
    <rect
       style="fill:#71b1e4;stroke-width:0.26458332"
       x="0.26370269"
       y="292.51965"
       width="0.26458332"
       height="4.2333331"
       id="rect42" />
    <rect
       style="fill:#71b1e4;stroke-width:0.26458332"
       x="0.26370269"
       y="296.4884"
       width="4.2333331"
       height="0.26458332"
       id="rect44" />
  </g>
</svg>
