<?xml version="1.0" encoding="UTF-8" standalone="no"?>
<!-- Created with Inkscape (http://www.inkscape.org/) -->

<svg
   xmlns:dc="http://purl.org/dc/elements/1.1/"
   xmlns:cc="http://creativecommons.org/ns#"
   xmlns:rdf="http://www.w3.org/1999/02/22-rdf-syntax-ns#"
   xmlns:svg="http://www.w3.org/2000/svg"
   xmlns="http://www.w3.org/2000/svg"
   xmlns:sodipodi="http://sodipodi.sourceforge.net/DTD/sodipodi-0.dtd"
   xmlns:inkscape="http://www.inkscape.org/namespaces/inkscape"
   width="18"
   height="18"
   viewBox="0 0 4.7624999 4.7625001"
   version="1.1"
   id="svg663"
   inkscape:version="0.92.2 (5c3e80d, 2017-08-06)"
   sodipodi:docname="d5.svg">
  <defs
     id="defs657" />
  <sodipodi:namedview
     id="base"
     pagecolor="#ffffff"
     bordercolor="#666666"
     borderopacity="1.0"
     inkscape:pageopacity="0.0"
     inkscape:pageshadow="2"
     inkscape:zoom="15.839192"
     inkscape:cx="15.925805"
     inkscape:cy="6.4118996"
     inkscape:document-units="mm"
     inkscape:current-layer="layer1"
     showgrid="false"
     units="px"
     inkscape:window-width="1920"
     inkscape:window-height="1017"
     inkscape:window-x="1276"
     inkscape:window-y="-4"
     inkscape:window-maximized="1" />
  <metadata
     id="metadata660">
    <rdf:RDF>
      <cc:Work
         rdf:about="">
        <dc:format>image/svg+xml</dc:format>
        <dc:type
           rdf:resource="http://purl.org/dc/dcmitype/StillImage" />
        <dc:title></dc:title>
      </cc:Work>
    </rdf:RDF>
  </metadata>
  <g
     inkscape:label="Layer 1"
     inkscape:groupmode="layer"
     id="layer1"
     transform="translate(0,-292.23748)">
    <path
       inkscape:connector-curvature="0"
       style="fill:#f7931e;stroke-width:0.26458332"
       d="m 1.0658047,296.46334 c 0.1632976,-0.3731 0.3273702,-0.79297 0.6066813,-1.0803 0.1736328,-0.17828 0.368453,-0.21058 0.5870443,-0.1248 0.2330607,0.091 0.4547527,0.22351 0.7100343,0.19638 0.2201415,-0.0238 0.3966165,-0.16408 0.5214152,-0.36562 0.1992124,-0.32246 0.341581,-0.68419 0.5599141,-0.99244 0.075964,-0.10723 0.3082499,-0.38628 0.4544941,-0.23513 v 2.60191 H 1.0658047"
       id="path6" />
    <path
       inkscape:connector-curvature="0"
       style="fill:#71b1e4;stroke-width:0.26458332"
       d="m 4.505388,295.23292 c -0.1953368,0.0788 -0.3720703,0.20128 -0.5469951,0.32712 -0.2260843,0.16226 -0.4583699,0.38008 -0.7356139,0.40023 -0.4981609,0.0351 -0.9554972,-0.51444 -1.0663432,-0.98134 -0.1919779,-0.80744 -0.8260478,-2.47556 -1.61979769,-1.26245 v 2.74686 H 4.505388 Z"
       id="path30" />
    <path
       inkscape:connector-curvature="0"
       style="fill:#3e7faa;stroke-width:0.26458332"
       d="m 4.505388,295.23292 v 1.23042 H 1.0658047 c 0.1643311,-0.3731 0.3281454,-0.79375 0.6061645,-1.07952 0.1746664,-0.17984 0.3702617,-0.21161 0.5870443,-0.12428 0.190686,0.37827 0.5637899,0.7276 0.9632488,0.70099 0.2780192,-0.0212 0.510563,-0.23797 0.7356139,-0.39946 0.1744081,-0.12687 0.3516583,-0.24856 0.5475118,-0.32815 z"
       id="path32" />
    <polygon
       transform="matrix(0.26458333,0,0,0.26458333,0.00747141,268.41751)"
       style="fill:#71b1e4"
       points="17,106.05664 2,106.05664 2.03125,106 17,106 "
       id="polygon34" />
    <rect
       style="fill:#71b1e4;stroke-width:0.26458332"
       x="0.27205473"
       y="292.4946"
       width="0.26458332"
       height="4.2333331"
       id="rect36" />
    <rect
       style="fill:#71b1e4;stroke-width:0.26458332"
       x="0.27205473"
       y="296.47833"
       width="4.2333331"
       height="0.24959716"
       id="rect38" />
  </g>
</svg>
