<?xml version="1.0" encoding="UTF-8" standalone="no"?>
<!-- Created with Inkscape (http://www.inkscape.org/) -->

<svg
   xmlns:dc="http://purl.org/dc/elements/1.1/"
   xmlns:cc="http://creativecommons.org/ns#"
   xmlns:rdf="http://www.w3.org/1999/02/22-rdf-syntax-ns#"
   xmlns:svg="http://www.w3.org/2000/svg"
   xmlns="http://www.w3.org/2000/svg"
   xmlns:sodipodi="http://sodipodi.sourceforge.net/DTD/sodipodi-0.dtd"
   xmlns:inkscape="http://www.inkscape.org/namespaces/inkscape"
   width="18"
   height="18"
   viewBox="0 0 4.7624999 4.7625001"
   version="1.1"
   id="svg354"
   inkscape:version="0.92.2 (5c3e80d, 2017-08-06)"
   sodipodi:docname="series1.svg">
  <defs
     id="defs348" />
  <sodipodi:namedview
     id="base"
     pagecolor="#ffffff"
     bordercolor="#666666"
     borderopacity="1.0"
     inkscape:pageopacity="0.0"
     inkscape:pageshadow="2"
     inkscape:zoom="31.678384"
     inkscape:cx="11.728672"
     inkscape:cy="9.5868378"
     inkscape:document-units="mm"
     inkscape:current-layer="layer1"
     showgrid="false"
     units="px"
     inkscape:window-width="1920"
     inkscape:window-height="1017"
     inkscape:window-x="1276"
     inkscape:window-y="-4"
     inkscape:window-maximized="1" />
  <metadata
     id="metadata351">
    <rdf:RDF>
      <cc:Work
         rdf:about="">
        <dc:format>image/svg+xml</dc:format>
        <dc:type
           rdf:resource="http://purl.org/dc/dcmitype/StillImage" />
        <dc:title></dc:title>
      </cc:Work>
    </rdf:RDF>
  </metadata>
  <g
     inkscape:label="Layer 1"
     inkscape:groupmode="layer"
     id="layer1"
     transform="translate(0,-292.23748)">
    <rect
       style="fill:#71b1e4;stroke-width:0.26458332"
       x="0.27205479"
       y="292.52802"
       width="0.26458332"
       height="4.2333331"
       id="rect40" />
    <rect
       style="fill:#71b1e4;stroke-width:0.26458332"
       x="0.27205479"
       y="296.49677"
       width="4.2333331"
       height="0.26458332"
       id="rect42" />
    <polygon
       transform="matrix(0.26458333,0,0,0.26458333,0.00747148,273.21341)"
       style="fill:#f7931e"
       points="10,77 11,80 12,78 14,80 15,77 16,79 17,78 17,82 15,84 14,81 12,85 11,82 8,86 7,82 6,84 5,82 4,85 3,82 2,82.625 2,81 4,76 6,80 7,78 9,81 "
       id="polygon72" />
  </g>
</svg>
