<?xml version="1.0" encoding="utf-8"?>
<!DOCTYPE svg PUBLIC "-//W3C//DTD SVG 1.1//EN" "http://www.w3.org/Graphics/SVG/1.1/DTD/svg11.dtd" [
	<!ENTITY st0 "fill:#FFFFFF;">
	<!ENTITY st1 "fill:#D9D9D9;">
	<!ENTITY st2 "fill:#808080;">
	<!ENTITY st3 "fill:#71B1E4;">
	<!ENTITY st4 "fill:#F7931E;">
]>
<svg version="1.1" id="img" xmlns="http://www.w3.org/2000/svg" xmlns:xlink="http://www.w3.org/1999/xlink" x="0px" y="0px"
	 width="18px" height="18px" viewBox="0 0 18 18" style="enable-background:new 0 0 18 18;" xml:space="preserve">
<g id="dsa-rows.default">
	<rect x="1" y="2" style="&st3;" width="5" height="2"/>
	<rect x="1" y="5" style="&st3;" width="5" height="2"/>
	<rect x="1" y="8" style="&st3;" width="5" height="2"/>
	<rect x="1" y="11" style="&st3;" width="5" height="2"/>
	<rect x="1" y="14" style="&st3;" width="5" height="2"/>
	<rect x="13" y="2" style="&st4;" width="4" height="2"/>
	<rect x="13" y="5" style="&st4;" width="4" height="2"/>
	<rect x="13" y="8" style="&st4;" width="4" height="2"/>
	<rect x="13" y="11" style="&st4;" width="4" height="2"/>
	<rect x="13" y="14" style="&st4;" width="4" height="2"/>
	<rect x="8" y="2" style="&st4;" width="4" height="2"/>
	<rect x="8" y="5" style="&st4;" width="4" height="2"/>
	<rect x="8" y="8" style="&st4;" width="4" height="2"/>
	<rect x="8" y="11" style="&st4;" width="4" height="2"/>
	<rect x="8" y="14" style="&st4;" width="4" height="2"/>
</g>
</svg>
