<?xml version="1.0" encoding="utf-8"?>
<!DOCTYPE svg PUBLIC "-//W3C//DTD SVG 1.1//EN" "http://www.w3.org/Graphics/SVG/1.1/DTD/svg11.dtd" [
	<!ENTITY st0 "fill:#FFFFFF;">
	<!ENTITY st1 "fill:#D9D9D9;">
	<!ENTITY st2 "fill:#808080;">
	<!ENTITY st3 "fill:#71B1E4;">
	<!ENTITY st4 "fill:#F7931E;">
]>
<svg version="1.1" id="img" xmlns="http://www.w3.org/2000/svg" xmlns:xlink="http://www.w3.org/1999/xlink" x="0px" y="0px"
	 width="18px" height="18px" viewBox="0 0 18 18" style="enable-background:new 0 0 18 18;" xml:space="preserve">
<g id="dsa-manual.default">
	<path style="&st3;" d="M13.781,11.827l-0.395-0.152c-0.095-0.037-0.148-0.138-0.137-0.24c0.039-0.367,0.035-0.74-0.025-1.112
		c-0.015-0.096,0.038-0.189,0.127-0.229l0.381-0.17c0.172-0.077,0.25-0.279,0.173-0.45l-0.488-1.097
		c-0.077-0.173-0.278-0.25-0.451-0.174l-0.392,0.174c-0.094,0.043-0.203,0.006-0.27-0.074c-0.238-0.285-0.514-0.532-0.812-0.741
		c-0.077-0.054-0.102-0.157-0.067-0.247l0.162-0.422c0.067-0.176-0.021-0.374-0.197-0.442l-1.121-0.43
		c-0.177-0.068-0.374,0.02-0.442,0.197L9.659,6.655C9.623,6.75,9.525,6.805,9.424,6.795C9.067,6.76,8.703,6.766,8.34,6.824
		C8.245,6.84,8.154,6.785,8.115,6.697L7.925,6.27c-0.077-0.173-0.279-0.25-0.451-0.174L6.377,6.584
		c-0.172,0.077-0.25,0.279-0.173,0.452L6.4,7.475c0.041,0.093,0.008,0.202-0.07,0.267C6.056,7.97,5.819,8.231,5.615,8.514
		C5.557,8.595,5.451,8.629,5.358,8.593L4.894,8.415C4.718,8.348,4.52,8.436,4.453,8.612l-0.43,1.121
		c-0.068,0.177,0.02,0.373,0.197,0.442l0.464,0.178c0.093,0.036,0.148,0.133,0.137,0.233c-0.038,0.353-0.035,0.712,0.018,1.071
		c0.014,0.095-0.043,0.185-0.13,0.223l-0.44,0.196c-0.172,0.077-0.25,0.279-0.173,0.451l0.488,1.097
		c0.077,0.173,0.279,0.25,0.451,0.173l0.43-0.191c0.093-0.042,0.202-0.006,0.266,0.073c0.227,0.279,0.489,0.521,0.773,0.73
		c0.081,0.06,0.116,0.166,0.079,0.259l-0.169,0.437c-0.068,0.176,0.02,0.375,0.197,0.441l1.121,0.431
		c0.176,0.067,0.373-0.021,0.441-0.197l0.162-0.422c0.036-0.095,0.137-0.147,0.238-0.135c0.363,0.042,0.731,0.041,1.1-0.014
		c0.095-0.014,0.188,0.041,0.227,0.13l0.174,0.392c0.077,0.173,0.279,0.25,0.451,0.174l1.097-0.489
		c0.172-0.077,0.25-0.278,0.173-0.45l-0.169-0.381c-0.042-0.095-0.003-0.204,0.077-0.269c0.292-0.238,0.543-0.513,0.759-0.813
		c0.056-0.078,0.16-0.102,0.25-0.068l0.393,0.151c0.176,0.068,0.374-0.021,0.441-0.197l0.43-1.119
		C14.045,12.092,13.957,11.895,13.781,11.827z M9.813,12.827c-1.009,0.449-2.19-0.006-2.639-1.013
		c-0.449-1.01,0.005-2.189,1.013-2.64c1.009-0.449,2.191,0.003,2.64,1.013C11.276,11.195,10.822,12.377,9.813,12.827z"/>
	<polygon style="&st4;" points="16,3.5 14,2 14,3 2,3 2,4 14,4 14,5 	"/>
	<path style="&st3;" d="M9.406,11.913c-0.504,0.225-1.095-0.003-1.319-0.507c-0.225-0.505,0.002-1.095,0.506-1.32
		c0.505-0.224,1.095,0.002,1.32,0.507C10.138,11.097,9.911,11.689,9.406,11.913"/>
</g>
</svg>
