<?xml version="1.0" encoding="utf-8"?>
<!DOCTYPE svg PUBLIC "-//W3C//DTD SVG 1.1//EN" "http://www.w3.org/Graphics/SVG/1.1/DTD/svg11.dtd" [
	<!ENTITY st0 "fill:#FFFFFF;">
	<!ENTITY st1 "fill:#BFBFBF;">
	<!ENTITY st2 "fill:#8C8C8C;">
	<!ENTITY st3 "fill:#F59321;">
	<!ENTITY st4 "fill:#71B1E4;">
	<!ENTITY st5 "fill:#F7931E;">
]>
<svg version="1.1" id="img" xmlns="http://www.w3.org/2000/svg" xmlns:xlink="http://www.w3.org/1999/xlink" x="0px" y="0px"
	 width="18px" height="18px" viewBox="0 0 18 18" style="enable-background:new 0 0 18 18;" xml:space="preserve">
<g id="dashboard.default">
	<path style="&st5;" d="M14,13h-2.137c-0.156-0.705-0.565-1.312-1.127-1.726l1.135-1.966C13.06,10.139,13.871,11.47,14,13z M4,13
		h2.137c0.156-0.705,0.565-1.312,1.127-1.726L6.13,9.309C4.939,10.139,4.128,11.47,4,13z M9,8.405c-0.763,0-1.483,0.175-2.13,0.478
		l1.149,1.991C8.326,10.765,8.655,10.702,9,10.702s0.674,0.062,0.98,0.172l1.149-1.991C10.483,8.58,9.763,8.405,9,8.405z"/>
	<path style="&st4;" d="M9.14,13H8.311c0-0.267,0.093-0.51,0.243-0.684c0.15-0.175,0.357-0.284,0.586-0.284
		c0.036,0,0.07,0.01,0.105,0.015l1.487-3.032l-1.094,3.212c0.031,0.027,0.062,0.058,0.089,0.09C9.877,12.49,9.97,12.733,9.97,13
		H9.14z M17,4v10.312C17,15.244,16.245,16,15.312,16H2.688C1.755,16,1,15.244,1,14.312V4h0.027c0.135-1.125,1.082-2,2.244-2h11.458
		c1.162,0,2.109,0.875,2.244,2H17z M7,3.5C7,3.776,7.224,4,7.5,4S8,3.776,8,3.5C8,3.224,7.776,3,7.5,3S7,3.224,7,3.5z M5,3.5
		C5,3.776,5.224,4,5.5,4S6,3.776,6,3.5C6,3.224,5.776,3,5.5,3S5,3.224,5,3.5z M3,3.5C3,3.776,3.224,4,3.5,4S4,3.776,4,3.5
		C4,3.224,3.776,3,3.5,3S3,3.224,3,3.5z M16,5H2v9.312C2,14.691,2.309,15,2.688,15h12.625C15.691,15,16,14.691,16,14.312V5z"/>
</g>
</svg>
