<?xml version="1.0" encoding="utf-8"?>
<!DOCTYPE svg PUBLIC "-//W3C//DTD SVG 1.1//EN" "http://www.w3.org/Graphics/SVG/1.1/DTD/svg11.dtd" [
	<!ENTITY st0 "fill:#FFFFFF;">
	<!ENTITY st1 "fill:#BFBFBF;">
	<!ENTITY st2 "fill:#8C8C8C;">
	<!ENTITY st3 "fill:#F59321;">
	<!ENTITY st4 "fill:#71B1E4;">
	<!ENTITY st5 "fill:#F7931E;">
]>
<svg version="1.1" id="img" xmlns="http://www.w3.org/2000/svg" xmlns:xlink="http://www.w3.org/1999/xlink" x="0px" y="0px"
	 width="18px" height="18px" viewBox="0 0 18 18" style="enable-background:new 0 0 18 18;" xml:space="preserve">
<path id="dashboard.inverted" style="&st0;" d="M10.735,11.274l1.135-1.966C13.06,10.139,13.871,11.47,14,13h-2.137
	C11.707,12.295,11.298,11.688,10.735,11.274z M7.265,11.274L6.13,9.309C4.94,10.139,4.128,11.47,4,13h2.137
	C6.293,12.295,6.702,11.688,7.265,11.274z M9,10.702c0.293,0,0.572,0.053,0.839,0.134l-0.593,1.211
	c-0.035-0.005-0.069-0.015-0.104-0.015c-0.23,0-0.438,0.109-0.587,0.284C8.404,12.49,8.31,12.733,8.31,13h0.83H9.97
	c0-0.267-0.093-0.51-0.243-0.684c-0.027-0.032-0.058-0.062-0.089-0.09l0.63-1.851l0.861-1.493C10.482,8.58,9.763,8.405,9,8.405
	S7.517,8.58,6.87,8.883l1.148,1.991C8.326,10.765,8.655,10.702,9,10.702z M17,4v10.312C17,15.244,16.244,16,15.312,16H2.688
	C1.756,16,1,15.244,1,14.312V4h0.027c0.135-1.125,1.082-2,2.243-2h11.459c1.161,0,2.108,0.875,2.243,2H17z M16,5H2v9.312
	C2,14.691,2.309,15,2.688,15h12.625C15.691,15,16,14.691,16,14.312V5z"/>
</svg>
