<?xml version="1.0" encoding="utf-8"?>
<!DOCTYPE svg PUBLIC "-//W3C//DTD SVG 1.1//EN" "http://www.w3.org/Graphics/SVG/1.1/DTD/svg11.dtd" [
	<!ENTITY st0 "fill:#FFFFFF;">
	<!ENTITY st1 "fill:#BFBFBF;">
	<!ENTITY st2 "fill:#8C8C8C;">
	<!ENTITY st3 "fill:#F59321;">
	<!ENTITY st4 "fill:#71B1E4;">
	<!ENTITY st5 "fill:#F7931E;">
]>
<svg version="1.1" id="img" xmlns="http://www.w3.org/2000/svg" xmlns:xlink="http://www.w3.org/1999/xlink" x="0px" y="0px"
	 width="18px" height="18px" viewBox="0 0 18 18" style="enable-background:new 0 0 18 18;" xml:space="preserve">
<g id="model.default">
	<path style="&st5;" d="M8.599,8.039h0.606c0.197-0.722,0.478-1.261,0.841-1.617c0.363-0.357,0.759-0.535,1.188-0.535
		c0.212,0,0.401,0.059,0.569,0.176c0.167,0.117,0.251,0.271,0.251,0.46c0,0.135-0.045,0.248-0.135,0.339
		c-0.09,0.092-0.204,0.137-0.341,0.137c-0.135,0-0.249-0.044-0.343-0.131c-0.094-0.087-0.141-0.192-0.141-0.314
		c0-0.077,0.015-0.149,0.043-0.215c0.029-0.066,0.043-0.112,0.043-0.137c0-0.062-0.043-0.094-0.131-0.094
		c-0.185,0-0.337,0.122-0.456,0.366c-0.12,0.245-0.254,0.767-0.401,1.565h0.712l-0.053,0.231h-0.707
		c-0.35,1.902-0.722,3.159-1.116,3.773c-0.395,0.612-0.837,0.919-1.329,0.919c-0.214,0-0.403-0.062-0.566-0.186
		c-0.164-0.124-0.246-0.274-0.246-0.451c0-0.132,0.054-0.237,0.159-0.316c0.106-0.078,0.227-0.118,0.361-0.118
		c0.14,0,0.244,0.042,0.312,0.124c0.069,0.082,0.104,0.181,0.104,0.296c0,0.124,0.002,0.218,0.006,0.278
		c0.003,0.062,0.058,0.092,0.162,0.092c0.155,0,0.28-0.104,0.377-0.311c0.096-0.207,0.211-0.758,0.346-1.651
		C8.85,9.826,8.997,9.01,9.157,8.271H8.562L8.599,8.039z"/>
	<g>
		<path style="&st4;" d="M1.368,6c0,0,0.607,0.003,0.632,0.008v1.984C1.975,7.997,1.369,8,1.369,8C1.166,8,1.001,7.835,1.001,7.632
			L1,6.368C1,6.165,1.165,6,1.368,6z M17,9.632l-0.001-1.264C16.999,8.165,16.834,8,16.631,8c0,0-0.606,0.003-0.631,0.008v1.984
			C16.025,9.997,16.632,10,16.632,10C16.835,10,17,9.835,17,9.632z M1,10.368l0.001,1.264C1.001,11.835,1.166,12,1.369,12
			c0,0,0.606-0.003,0.631-0.008v-1.984C1.975,10.003,1.368,10,1.368,10C1.165,10,1,10.165,1,10.368z M13,4H5C4.449,4,4,4.448,4,5v8
			c0,0.552,0.449,1,1,1h8c0.551,0,1-0.448,1-1V5C14,4.448,13.551,4,13,4 M13,3c1.104,0,2,0.895,2,2v8c0,1.104-0.896,2-2,2H5
			c-1.104,0-2-0.896-2-2V5c0-1.105,0.896-2,2-2H13L13,3z"/>
	</g>
</g>
</svg>
