<?xml version="1.0" encoding="utf-8"?>
<!DOCTYPE svg PUBLIC "-//W3C//DTD SVG 1.1//EN" "http://www.w3.org/Graphics/SVG/1.1/DTD/svg11.dtd" [
	<!ENTITY st0 "fill:#FFFFFF;">
	<!ENTITY st1 "fill:#BFBFBF;">
	<!ENTITY st2 "fill:#8C8C8C;">
	<!ENTITY st3 "fill:#F59321;">
	<!ENTITY st4 "fill:#71B1E4;">
	<!ENTITY st5 "fill:#F7931E;">
]>
<svg version="1.1" id="img" xmlns="http://www.w3.org/2000/svg" xmlns:xlink="http://www.w3.org/1999/xlink" x="0px" y="0px"
	 width="18px" height="18px" viewBox="0 0 18 18" style="enable-background:new 0 0 18 18;" xml:space="preserve">
<path id="var.inverted" style="&st0;" d="M11.293,5.712c0.237-0.201,0.441-0.302,0.614-0.302c0.115,0,0.341,0.057,0.678,0.172
	c0.172,0.065,0.334,0.097,0.484,0.097c0.258,0,0.488-0.09,0.689-0.269c0.108-0.1,0.161-0.287,0.161-0.56
	c0-0.237-0.091-0.438-0.274-0.603C13.462,4.082,13.216,4,12.908,4C12.7,4,12.51,4.036,12.337,4.108
	c-0.273,0.115-0.588,0.328-0.947,0.64c-0.359,0.312-0.664,0.641-0.915,0.985L9.528,7.154C9.234,6.056,9.022,5.378,8.893,5.12
	C8.714,4.746,8.448,4.373,8.096,4L5.222,4.506v0.388c0.215-0.014,0.405-0.021,0.57-0.021c0.517,0,0.908,0.097,1.173,0.291
	c0.266,0.194,0.481,0.524,0.646,0.99c0.036,0.1,0.276,1.023,0.721,2.766c-0.18,0.402-0.56,1.055-1.141,1.959
	c-0.581,0.904-1.041,1.493-1.378,1.765c-0.136,0.115-0.248,0.172-0.334,0.172c-0.1,0-0.244-0.083-0.431-0.247
	c-0.258-0.23-0.502-0.344-0.732-0.344c-0.23,0-0.423,0.079-0.581,0.237C3.579,12.618,3.5,12.816,3.5,13.053
	c0,0.266,0.086,0.477,0.258,0.635C3.995,13.896,4.257,14,4.544,14c0.409,0,0.832-0.18,1.27-0.538
	c0.674-0.56,1.571-1.812,2.691-3.757c0.474,2.131,0.786,3.337,0.937,3.617C9.679,13.774,9.998,14,10.4,14
	c0.273,0,0.606-0.158,1.001-0.474c0.696-0.56,1.27-1.263,1.722-2.11l-0.377-0.194c-0.28,0.531-0.617,0.962-1.012,1.292
	c-0.201,0.165-0.377,0.248-0.528,0.248c-0.093,0-0.187-0.056-0.28-0.167c-0.093-0.111-0.208-0.45-0.344-1.017L9.7,7.875
	C10.317,6.806,10.848,6.085,11.293,5.712z"/>
</svg>
