<?xml version="1.0" encoding="utf-8"?>
<!DOCTYPE svg PUBLIC "-//W3C//DTD SVG 1.1//EN" "http://www.w3.org/Graphics/SVG/1.1/DTD/svg11.dtd" [
	<!ENTITY st0 "fill:#FFFFFF;">
	<!ENTITY st1 "fill:#BFBFBF;">
	<!ENTITY st2 "fill:#8C8C8C;">
	<!ENTITY st3 "fill:#F59321;">
	<!ENTITY st4 "fill:#71B1E4;">
	<!ENTITY st5 "fill:#F7931E;">
]>
<svg version="1.1" id="img" xmlns="http://www.w3.org/2000/svg" xmlns:xlink="http://www.w3.org/1999/xlink" x="0px" y="0px"
	 width="18px" height="18px" viewBox="0 0 18 18" style="enable-background:new 0 0 18 18;" xml:space="preserve">
<path id="vendor.inverted" style="&st0;" d="M6.496,14.437l-3.514-3.514c-0.07,0.066-0.136,0.118-0.207,0.189
	c-0.091,0.091-0.21,0.137-0.33,0.137c-0.119,0-0.239-0.046-0.33-0.137c-0.182-0.182-0.182-0.478,0-0.66
	c2.033-2.033,3.76-2.331,5.303-2.185c0.055,0.331,0.119,0.651,0.183,0.96C7.148,9.167,6.689,9.154,6.217,9.21l1.82,1.82
	c0.182,0.182,0.182,0.478,0,0.66c-0.182,0.182-0.478,0.182-0.66,0L5.158,9.47C4.692,9.647,4.206,9.92,3.692,10.313l3.464,3.463
	c0.182,0.182,0.182,0.478,0,0.66C6.974,14.619,6.678,14.619,6.496,14.437z M15.842,6.888c-0.182-0.182-0.478-0.182-0.66,0
	c-0.071,0.071-0.137,0.123-0.207,0.189l-3.634-3.634c-0.182-0.182-0.478-0.182-0.66,0c-0.182,0.182-0.182,0.478,0,0.66l3.584,3.584
	c-0.46,0.353-0.898,0.609-1.319,0.785l-2.384-2.383c-0.182-0.182-0.478-0.182-0.66,0c-0.182,0.182-0.182,0.478,0,0.66l2.025,2.025
	c-0.534,0.087-1.05,0.076-1.559,0.011c0.063,0.308,0.127,0.628,0.181,0.958c1.541,0.141,3.264-0.165,5.292-2.194
	C16.025,7.366,16.025,7.07,15.842,6.888z M11.091,2.797c0.182-0.182,0.182-0.478,0-0.66c-0.182-0.182-0.478-0.182-0.66,0
	c-2.77,2.77-2.311,4.991-1.906,6.951c0.393,1.9,0.764,3.694-1.658,6.116c-0.182,0.182-0.182,0.478,0,0.66
	C6.958,15.954,7.078,16,7.197,16c0.119,0,0.239-0.046,0.33-0.137c2.778-2.778,2.318-5.002,1.912-6.965
	C9.047,7.002,8.677,5.21,11.091,2.797z"/>
</svg>
