<?xml version="1.0" encoding="utf-8"?>
<!DOCTYPE svg PUBLIC "-//W3C//DTD SVG 1.1//EN" "http://www.w3.org/Graphics/SVG/1.1/DTD/svg11.dtd" [
	<!ENTITY st0 "fill:#FFFFFF;">
	<!ENTITY st1 "fill:#BFBFBF;">
	<!ENTITY st2 "fill:#8C8C8C;">
	<!ENTITY st3 "fill:#F59321;">
	<!ENTITY st4 "fill:#71B1E4;">
	<!ENTITY st5 "fill:#F7931E;">
]>
<svg version="1.1" id="img" xmlns="http://www.w3.org/2000/svg" xmlns:xlink="http://www.w3.org/1999/xlink" x="0px" y="0px"
	 width="18px" height="18px" viewBox="0 0 18 18" style="enable-background:new 0 0 18 18;" xml:space="preserve">
<path id="view.inverted" style="&st0;" d="M13,4H2V2h11V4z M2,6h3V5H2V6z M2,8h3V7H2V8z M2,10h3V9H2V10z M6,12h3v-1H6V12z M6,14h3
	v-1H6V14z M6,16h3v-1H6V16z M10,12h3v-1h-3V12z M10,14h3v-1h-3V14z M10,16h3v-1h-3V16z M14,12h3v-1h-3V12z M14,14h3v-1h-3V14z
	 M14,16h3v-1h-3V16z M9,6V5H6v1H9z M13,6V5h-3v1H13z M6,8v2h11V8H6z"/>
</svg>
