<?xml version="1.0" encoding="utf-8"?>
<!DOCTYPE svg PUBLIC "-//W3C//DTD SVG 1.1//EN" "http://www.w3.org/Graphics/SVG/1.1/DTD/svg11.dtd" [
	<!ENTITY st0 "fill:#FFFFFF;">
	<!ENTITY st1 "fill:#808080;">
	<!ENTITY st2 "fill:#636F80;">
	<!ENTITY st3 "opacity:0.2;fill:#FFFFFF;">
	<!ENTITY st4 "opacity:0.2;fill:#636F80;">
	<!ENTITY st5 "opacity:0.2;fill:#808080;">
]>
<svg version="1.1" id="img" xmlns="http://www.w3.org/2000/svg" xmlns:xlink="http://www.w3.org/1999/xlink" x="0px" y="0px"
	 width="18px" height="18px" viewBox="0 0 18 18" style="enable-background:new 0 0 18 18;" xml:space="preserve">
<path id="add-script-loginom.default" style="&st2;" d="M15,14h2v1h-2v2h-1v-2h-2v-1h2v-2h1V14z M8,12l3-3L8,6V12z M1,8v2
	c0,0.553,0.448,1,1,1V7C1.448,7,1,7.447,1,8z M16,7v3c0.552,0,1-0.447,1-1V8C17,7.447,16.552,7,16,7z M4,13V5c0-0.552,0.449-1,1-1h8
	c0.551,0,1,0.448,1,1v5h1V5c0-1.104-0.896-2-2-2H5C3.896,3,3,3.896,3,5v8c0,1.104,0.896,2,2,2h5v-1H5C4.449,14,4,13.552,4,13z"/>
</svg>
