<?xml version="1.0" encoding="utf-8"?>
<!DOCTYPE svg PUBLIC "-//W3C//DTD SVG 1.1//EN" "http://www.w3.org/Graphics/SVG/1.1/DTD/svg11.dtd" [
	<!ENTITY st0 "fill:#FFFFFF;">
	<!ENTITY st1 "fill:#808080;">
	<!ENTITY st2 "fill:#636F80;">
	<!ENTITY st3 "opacity:0.2;fill:#FFFFFF;">
	<!ENTITY st4 "opacity:0.2;fill:#636F80;">
	<!ENTITY st5 "opacity:0.2;fill:#808080;">
	<!ENTITY st6 "fill-rule:evenodd;clip-rule:evenodd;fill:#FFFFFF;">
	<!ENTITY st7 "fill-rule:evenodd;clip-rule:evenodd;fill:#808080;">
	<!ENTITY st8 "fill-rule:evenodd;clip-rule:evenodd;fill:#636F80;">
	<!ENTITY st9 "fill:#F7931E;">
]>
<svg version="1.1" id="img" xmlns="http://www.w3.org/2000/svg" xmlns:xlink="http://www.w3.org/1999/xlink" x="0px" y="0px"
	 width="18px" height="18px" viewBox="0 0 18 18" style="enable-background:new 0 0 18 18;" xml:space="preserve">
<g id="col-sum.default">
	<rect x="3" y="14" transform="matrix(-1.836970e-16 1 -1 -1.836970e-16 19 10)" style="&st2;" width="3" height="1"/>
	<rect x="6" y="14" transform="matrix(-1.836970e-16 1 -1 -1.836970e-16 22 7)" style="&st2;" width="3" height="1"/>
	<rect x="9" y="14" transform="matrix(-1.836970e-16 1 -1 -1.836970e-16 25 4)" style="&st2;" width="3" height="1"/>
	<rect x="12" y="14" transform="matrix(-1.836970e-16 1 -1 -1.836970e-16 28 1)" style="&st2;" width="3" height="1"/>
	<g>
		<g>
			<path style="&st2;" d="M5.088,2h6.399v0.853H6.378l3.138,4.032l-3.359,4.278h5.383V12H5v-0.972l3.207-4.101L5.088,2.911V2z"/>
		</g>
	</g>
</g>
</svg>
