<?xml version="1.0" encoding="utf-8"?>
<!DOCTYPE svg PUBLIC "-//W3C//DTD SVG 1.1//EN" "http://www.w3.org/Graphics/SVG/1.1/DTD/svg11.dtd" [
	<!ENTITY st0 "fill:#FFFFFF;">
	<!ENTITY st1 "fill:#808080;">
	<!ENTITY st2 "fill:#636F80;">
	<!ENTITY st3 "opacity:0.2;fill:#FFFFFF;">
	<!ENTITY st4 "opacity:0.2;fill:#636F80;">
	<!ENTITY st5 "opacity:0.2;fill:#808080;">
	<!ENTITY st6 "fill-rule:evenodd;clip-rule:evenodd;fill:#FFFFFF;">
	<!ENTITY st7 "fill-rule:evenodd;clip-rule:evenodd;fill:#808080;">
	<!ENTITY st8 "fill-rule:evenodd;clip-rule:evenodd;fill:#636F80;">
	<!ENTITY st9 "fill:#F7931E;">
]>
<svg version="1.1" id="img" xmlns="http://www.w3.org/2000/svg" xmlns:xlink="http://www.w3.org/1999/xlink" x="0px" y="0px"
	 width="18px" height="18px" viewBox="0 0 18 18" style="enable-background:new 0 0 18 18;" xml:space="preserve">
<g id="edit.default">
	<path style="&st2;" d="M15.749,6.16c0.345-0.342,0.333-0.917-0.026-1.275l-2.602-2.603c-0.357-0.357-0.933-0.368-1.273-0.025
		c-0.029,0.028-0.041,0.064-0.064,0.094l-0.016-0.017l-1.25,1.249l3.904,3.905l1.25-1.25l-0.018-0.018
		C15.686,6.199,15.721,6.188,15.749,6.16z"/>
	<polygon style="&st2;" points="12.598,7.902 11.947,7.252 10.644,5.951 9.994,5.3 9.343,4.649 3.748,10.245 7.652,14.149 
		13.247,8.552 	"/>
	<polygon style="&st2;" points="2,15.918 2.322,13.642 2.648,11.365 4.602,13.317 6.553,15.271 4.276,15.596 	"/>
</g>
</svg>
