<?xml version="1.0" encoding="utf-8"?>
<!DOCTYPE svg PUBLIC "-//W3C//DTD SVG 1.1//EN" "http://www.w3.org/Graphics/SVG/1.1/DTD/svg11.dtd" [
	<!ENTITY st0 "fill:#FFFFFF;">
	<!ENTITY st1 "fill:#808080;">
	<!ENTITY st2 "fill:#636F80;">
	<!ENTITY st3 "opacity:0.2;fill:#FFFFFF;">
	<!ENTITY st4 "opacity:0.2;fill:#636F80;">
	<!ENTITY st5 "opacity:0.2;fill:#808080;">
	<!ENTITY st6 "fill-rule:evenodd;clip-rule:evenodd;fill:#FFFFFF;">
	<!ENTITY st7 "fill-rule:evenodd;clip-rule:evenodd;fill:#808080;">
	<!ENTITY st8 "fill-rule:evenodd;clip-rule:evenodd;fill:#636F80;">
	<!ENTITY st9 "fill:#F7931E;">
]>
<svg version="1.1" id="img" xmlns="http://www.w3.org/2000/svg" xmlns:xlink="http://www.w3.org/1999/xlink" x="0px" y="0px"
	 width="18px" height="18px" viewBox="0 0 18 18" style="enable-background:new 0 0 18 18;" xml:space="preserve">
<g id="group-list.default">
	<g>
		<path style="&st2;" d="M1,12.658c0.355-0.005,0.645-0.063,0.867-0.173c0.223-0.109,0.372-0.26,0.445-0.451
			c0.074-0.191,0.113-0.519,0.117-0.982c0.005-0.463,0.02-0.769,0.042-0.916c0.042-0.232,0.118-0.42,0.231-0.562
			c0.113-0.142,0.252-0.255,0.418-0.339C3.287,9.15,3.499,9.086,3.757,9.042C3.932,9.014,4.217,9,4.613,9H5v0.654H4.786
			c-0.479,0-0.797,0.051-0.953,0.156c-0.157,0.104-0.235,0.336-0.235,0.697c0,0.727-0.025,1.186-0.076,1.377
			c-0.082,0.298-0.224,0.526-0.425,0.687c-0.2,0.162-0.515,0.304-0.943,0.429c0.508,0.127,0.874,0.322,1.103,0.585
			c0.229,0.262,0.342,0.692,0.342,1.288c0,0.541,0.01,0.863,0.027,0.965c0.037,0.189,0.131,0.321,0.28,0.396
			c0.149,0.074,0.442,0.112,0.881,0.112H5V17H4.613c-0.451,0-0.778-0.022-0.98-0.066c-0.296-0.064-0.539-0.168-0.732-0.311
			c-0.194-0.143-0.319-0.324-0.377-0.543c-0.058-0.219-0.089-0.578-0.094-1.078c-0.004-0.5-0.043-0.845-0.117-1.036
			c-0.073-0.191-0.223-0.343-0.445-0.454C1.645,13.401,1.355,13.343,1,13.338V12.658z"/>
	</g>
	<g>
		<path style="&st2;" d="M1,4.658c0.355-0.005,0.645-0.063,0.867-0.173c0.223-0.109,0.372-0.26,0.445-0.451
			C2.387,3.843,2.426,3.516,2.43,3.052c0.005-0.463,0.02-0.769,0.042-0.916c0.042-0.232,0.118-0.42,0.231-0.561
			s0.252-0.255,0.418-0.339c0.166-0.085,0.378-0.15,0.636-0.193C3.932,1.014,4.217,1,4.613,1H5v0.654H4.786
			c-0.479,0-0.797,0.051-0.953,0.156C3.676,1.914,3.598,2.145,3.598,2.507c0,0.727-0.025,1.186-0.076,1.377
			C3.44,4.182,3.298,4.41,3.097,4.571C2.897,4.732,2.582,4.875,2.153,5c0.508,0.127,0.874,0.322,1.103,0.584
			c0.229,0.262,0.342,0.692,0.342,1.289c0,0.541,0.01,0.863,0.027,0.965c0.037,0.189,0.131,0.321,0.28,0.396
			c0.149,0.074,0.442,0.112,0.881,0.112H5V9H4.613c-0.451,0-0.778-0.023-0.98-0.066C3.337,8.869,3.094,8.766,2.9,8.623
			C2.706,8.48,2.581,8.299,2.523,8.08C2.466,7.861,2.435,7.502,2.43,7.002c-0.004-0.5-0.043-0.845-0.117-1.036
			C2.239,5.774,2.09,5.623,1.867,5.512C1.645,5.401,1.355,5.343,1,5.338V4.658z"/>
	</g>
	<rect x="6" y="14" style="&st2;" width="10" height="2"/>
	<rect x="6" y="10" style="&st2;" width="10" height="2"/>
	<rect x="6" y="6" style="&st2;" width="10" height="2"/>
	<rect x="6" y="2" style="&st2;" width="10" height="2"/>
</g>
</svg>
