<?xml version="1.0" encoding="utf-8"?>
<!DOCTYPE svg PUBLIC "-//W3C//DTD SVG 1.1//EN" "http://www.w3.org/Graphics/SVG/1.1/DTD/svg11.dtd" [
	<!ENTITY st0 "fill:#FFFFFF;">
	<!ENTITY st1 "fill:#808080;">
	<!ENTITY st2 "fill:#636F80;">
	<!ENTITY st3 "opacity:0.2;fill:#FFFFFF;">
	<!ENTITY st4 "opacity:0.2;fill:#636F80;">
	<!ENTITY st5 "opacity:0.2;fill:#808080;">
	<!ENTITY st6 "fill-rule:evenodd;clip-rule:evenodd;fill:#FFFFFF;">
	<!ENTITY st7 "fill-rule:evenodd;clip-rule:evenodd;fill:#808080;">
	<!ENTITY st8 "fill-rule:evenodd;clip-rule:evenodd;fill:#636F80;">
	<!ENTITY st9 "fill:#F7931E;">
]>
<svg version="1.1" id="img" xmlns="http://www.w3.org/2000/svg" xmlns:xlink="http://www.w3.org/1999/xlink" x="0px" y="0px"
	 width="18px" height="18px" viewBox="0 0 18 18" style="enable-background:new 0 0 18 18;" xml:space="preserve">
<path id="import-from-xsd.default" style="&st2;" d="M6,11h6l-3,3L6,11z M16,4.506v1.988C16,7.876,14.876,9,13.494,9H12V2h1.494
	C14.876,2,16,3.124,16,4.506z M15,4.506C15,3.676,14.325,3,13.494,3H13v5h0.494C14.325,8,15,7.324,15,6.494V4.506z M3.041,9L4,6.731
	L4.959,9H6L4.521,5.5L6,2H4.959L4,4.269L3.041,2H2l1.479,3.5L2,9H3.041z M9,8C8.449,8,8,7.552,8,7H7c0,1.103,0.897,2,2,2
	s2-0.897,2-2s-0.897-2-2-2C8.449,5,8,4.552,8,4s0.449-1,1-1s1,0.448,1,1h1c0-1.103-0.897-2-2-2S7,2.897,7,4s0.897,2,2,2
	c0.551,0,1,0.448,1,1S9.551,8,9,8z M15,15H3v-4H2v5h14v-5h-1V15z"/>
</svg>
