<?xml version="1.0" encoding="utf-8"?>
<!DOCTYPE svg PUBLIC "-//W3C//DTD SVG 1.1//EN" "http://www.w3.org/Graphics/SVG/1.1/DTD/svg11.dtd" [
	<!ENTITY st0 "fill:#FFFFFF;">
	<!ENTITY st1 "fill:#808080;">
	<!ENTITY st2 "fill:#636F80;">
	<!ENTITY st3 "opacity:0.2;fill:#FFFFFF;">
	<!ENTITY st4 "opacity:0.2;fill:#636F80;">
	<!ENTITY st5 "opacity:0.2;fill:#808080;">
	<!ENTITY st6 "fill-rule:evenodd;clip-rule:evenodd;fill:#FFFFFF;">
	<!ENTITY st7 "fill-rule:evenodd;clip-rule:evenodd;fill:#808080;">
	<!ENTITY st8 "fill-rule:evenodd;clip-rule:evenodd;fill:#636F80;">
	<!ENTITY st9 "fill:#F7931E;">
]>
<svg version="1.1" id="img" xmlns="http://www.w3.org/2000/svg" xmlns:xlink="http://www.w3.org/1999/xlink" x="0px" y="0px"
	 width="18px" height="18px" viewBox="0 0 18 18" style="enable-background:new 0 0 18 18;" xml:space="preserve">
<g id="launch-node.default">
	<g>
		<path style="&st2;" d="M13,2c1.654,0,3,1.346,3,3v8c0,1.654-1.346,3-3,3H5c-1.654,0-3-1.346-3-3V5c0-1.654,1.346-3,3-3H13 M13,1H5
			C2.791,1,1,2.791,1,5v8c0,2.209,1.791,4,4,4h8c2.209,0,4-1.791,4-4V5C17,2.791,15.209,1,13,1L13,1z"/>
	</g>
	<polygon style="&st2;" points="8,5 12,9 8,13 	"/>
</g>
</svg>
