<?xml version="1.0" encoding="utf-8"?>
<!DOCTYPE svg PUBLIC "-//W3C//DTD SVG 1.1//EN" "http://www.w3.org/Graphics/SVG/1.1/DTD/svg11.dtd" [
	<!ENTITY st0 "fill:#FFFFFF;">
	<!ENTITY st1 "fill:#808080;">
	<!ENTITY st2 "fill:#636F80;">
	<!ENTITY st3 "opacity:0.2;fill:#FFFFFF;">
	<!ENTITY st4 "opacity:0.2;fill:#636F80;">
	<!ENTITY st5 "opacity:0.2;fill:#808080;">
	<!ENTITY st6 "fill-rule:evenodd;clip-rule:evenodd;fill:#FFFFFF;">
	<!ENTITY st7 "fill-rule:evenodd;clip-rule:evenodd;fill:#808080;">
	<!ENTITY st8 "fill-rule:evenodd;clip-rule:evenodd;fill:#636F80;">
	<!ENTITY st9 "fill:#F7931E;">
]>
<svg version="1.1" id="img" xmlns="http://www.w3.org/2000/svg" xmlns:xlink="http://www.w3.org/1999/xlink" x="0px" y="0px"
	 width="18px" height="18px" viewBox="0 0 18 18" style="enable-background:new 0 0 18 18;" xml:space="preserve">
<g id="median.default">
	<path style="&st2;" d="M14,14.09v-2.66c0.86-0.22,1.5-1,1.5-1.93S14.86,7.79,14,7.57V3.91c0.58-0.2,1-0.76,1-1.41
		C15,1.67,14.33,1,13.5,1S12,1.67,12,2.5c0,0.39,0.15,0.74,0.39,1l-5.73,7.37C6.33,10.63,5.93,10.5,5.5,10.5c-1.1,0-2,0.9-2,2
		s0.9,2,2,2c0.61,0,1.17-0.28,1.53-0.72l4.99,1.92c0.09,0.74,0.72,1.3,1.48,1.3c0.83,0,1.5-0.67,1.5-1.5
		C15,14.85,14.58,14.29,14,14.09z M14.5,9.5c0,0.37-0.2,0.69-0.5,0.86c-0.15,0.09-0.32,0.14-0.5,0.14s-0.35-0.05-0.5-0.14
		c-0.16-0.09-0.3-0.23-0.38-0.4h-0.01C12.54,9.82,12.5,9.67,12.5,9.5c0-0.28,0.11-0.52,0.29-0.71c0.01-0.01,0.02-0.01,0.03-0.02
		c0.06-0.05,0.12-0.1,0.18-0.13c0.15-0.09,0.32-0.14,0.5-0.14s0.35,0.05,0.5,0.14C14.3,8.81,14.5,9.13,14.5,9.5z M13,2.5
		C13,2.22,13.22,2,13.5,2h0.05C13.81,2.03,14,2.24,14,2.5C14,2.78,13.78,3,13.5,3c-0.22,0-0.4-0.14-0.47-0.33
		C13.01,2.62,13,2.56,13,2.5z M13,4.33v3.24c-0.82,0.21-1.44,0.93-1.49,1.8L7.74,11.1L13,4.33z M5.5,13.5c-0.55,0-1-0.45-1-1
		s0.45-1,1-1c0.2,0,0.38,0.06,0.54,0.16c0.06,0.04,0.12,0.09,0.18,0.14c0.17,0.18,0.28,0.43,0.28,0.7c0,0.1-0.02,0.21-0.05,0.3
		c-0.08,0.25-0.25,0.45-0.47,0.57C5.84,13.46,5.67,13.5,5.5,13.5z M7.49,12.32l4.21-1.95c0.25,0.52,0.73,0.92,1.3,1.06v2.66
		c-0.32,0.11-0.6,0.33-0.76,0.62h-0.01l-4.77-1.84c0.03-0.12,0.04-0.24,0.04-0.37C7.5,12.44,7.5,12.38,7.49,12.32z M13.5,16
		c-0.28,0-0.5-0.22-0.5-0.5s0.22-0.5,0.5-0.5s0.5,0.22,0.5,0.5S13.78,16,13.5,16z"/>
</g>
</svg>
