<?xml version="1.0" encoding="utf-8"?>
<!DOCTYPE svg PUBLIC "-//W3C//DTD SVG 1.1//EN" "http://www.w3.org/Graphics/SVG/1.1/DTD/svg11.dtd" [
	<!ENTITY st0 "fill:#FFFFFF;">
	<!ENTITY st1 "fill:#808080;">
	<!ENTITY st2 "fill:#636F80;">
	<!ENTITY st3 "opacity:0.2;fill:#FFFFFF;">
	<!ENTITY st4 "opacity:0.2;fill:#636F80;">
	<!ENTITY st5 "opacity:0.2;fill:#808080;">
	<!ENTITY st6 "fill-rule:evenodd;clip-rule:evenodd;fill:#FFFFFF;">
	<!ENTITY st7 "fill-rule:evenodd;clip-rule:evenodd;fill:#808080;">
	<!ENTITY st8 "fill-rule:evenodd;clip-rule:evenodd;fill:#636F80;">
	<!ENTITY st9 "fill:#F7931E;">
]>
<svg version="1.1" id="img" xmlns="http://www.w3.org/2000/svg" xmlns:xlink="http://www.w3.org/1999/xlink" x="0px" y="0px"
	 width="18px" height="18px" viewBox="0 0 18 18" style="enable-background:new 0 0 18 18;" xml:space="preserve">
<g id="merge-left.default">
	<g>
		<path style="&st2;" d="M10,2v14h6V2H10z M15,15h-4V3h4V15z"/>
		<polygon style="&st2;" points="7,6 6,6 6,8 4,8 4,9 6,9 6,11 7,11 7,9 9,9 9,8 7,8 		"/>
		<rect x="7" y="2" style="&st2;" width="2" height="1"/>
		<rect x="4" y="2" style="&st2;" width="2" height="1"/>
		<rect x="7" y="15" style="&st2;" width="2" height="1"/>
		<rect x="4" y="15" style="&st2;" width="2" height="1"/>
		<rect x="2" y="5" style="&st2;" width="1" height="2"/>
		<rect x="2" y="2" style="&st2;" width="1" height="2"/>
		<rect x="2" y="8" style="&st2;" width="1" height="2"/>
		<rect x="2" y="11" style="&st2;" width="1" height="2"/>
		<rect x="2" y="14" style="&st2;" width="1" height="2"/>
	</g>
</g>
</svg>
