<?xml version="1.0" encoding="utf-8"?>
<!DOCTYPE svg PUBLIC "-//W3C//DTD SVG 1.1//EN" "http://www.w3.org/Graphics/SVG/1.1/DTD/svg11.dtd" [
	<!ENTITY st0 "fill:#FFFFFF;">
	<!ENTITY st1 "fill:#808080;">
	<!ENTITY st2 "fill:#636F80;">
	<!ENTITY st3 "opacity:0.2;fill:#FFFFFF;">
	<!ENTITY st4 "opacity:0.2;fill:#636F80;">
	<!ENTITY st5 "opacity:0.2;fill:#808080;">
	<!ENTITY st6 "fill-rule:evenodd;clip-rule:evenodd;fill:#FFFFFF;">
	<!ENTITY st7 "fill-rule:evenodd;clip-rule:evenodd;fill:#808080;">
	<!ENTITY st8 "fill-rule:evenodd;clip-rule:evenodd;fill:#636F80;">
	<!ENTITY st9 "fill:#F7931E;">
]>
<svg version="1.1" id="img" xmlns="http://www.w3.org/2000/svg" xmlns:xlink="http://www.w3.org/1999/xlink" x="0px" y="0px"
	 width="18px" height="18px" viewBox="0 0 18 18" style="enable-background:new 0 0 18 18;" xml:space="preserve">
<g id="merge-right.default">
	<g>
		<path style="&st2;" d="M2,16h6V2H2V16z M3,3h4v12H3V3z"/>
		<polygon style="&st2;" points="12,6 11,6 11,8 9,8 9,9 11,9 11,11 12,11 12,9 14,9 14,8 12,8 		"/>
		<rect x="9" y="2" style="&st2;" width="2" height="1"/>
		<rect x="12" y="2" style="&st2;" width="2" height="1"/>
		<rect x="9" y="15" style="&st2;" width="2" height="1"/>
		<rect x="12" y="15" style="&st2;" width="2" height="1"/>
		<rect x="15" y="5" style="&st2;" width="1" height="2"/>
		<rect x="15" y="2" style="&st2;" width="1" height="2"/>
		<rect x="15" y="8" style="&st2;" width="1" height="2"/>
		<rect x="15" y="11" style="&st2;" width="1" height="2"/>
		<rect x="15" y="14" style="&st2;" width="1" height="2"/>
	</g>
</g>
</svg>
