<?xml version="1.0" encoding="utf-8"?>
<!DOCTYPE svg PUBLIC "-//W3C//DTD SVG 1.1//EN" "http://www.w3.org/Graphics/SVG/1.1/DTD/svg11.dtd" [
	<!ENTITY st0 "fill:#FFFFFF;">
	<!ENTITY st1 "fill:#808080;">
	<!ENTITY st2 "fill:#636F80;">
	<!ENTITY st3 "opacity:0.2;fill:#FFFFFF;">
	<!ENTITY st4 "opacity:0.2;fill:#636F80;">
	<!ENTITY st5 "opacity:0.2;fill:#808080;">
	<!ENTITY st6 "fill-rule:evenodd;clip-rule:evenodd;fill:#FFFFFF;">
	<!ENTITY st7 "fill-rule:evenodd;clip-rule:evenodd;fill:#808080;">
	<!ENTITY st8 "fill-rule:evenodd;clip-rule:evenodd;fill:#636F80;">
	<!ENTITY st9 "fill:#F7931E;">
]>
<svg version="1.1" id="img" xmlns="http://www.w3.org/2000/svg" xmlns:xlink="http://www.w3.org/1999/xlink" x="0px" y="0px"
	 width="18px" height="18px" viewBox="0 0 18 18" style="enable-background:new 0 0 18 18;" xml:space="preserve">
<g id="order.default">
	<rect x="14" y="9" style="&st2;" width="1" height="3"/>
	<rect x="11" y="10" style="&st2;" width="5" height="1"/>
	<rect x="8" y="13" style="&st2;" width="1" height="3"/>
	<rect x="5" y="14" style="&st2;" width="5" height="1"/>
	<g>
		<path style="&st2;" d="M12.236,7c0.246,0.144,0.818,0.367,1.418,0.367c1.115,0,1.459-0.644,1.449-1.126
			c-0.01-0.812-0.818-1.159-1.656-1.159h-0.483v-0.59h0.483c0.631,0,1.43-0.294,1.43-0.982c0-0.464-0.326-0.875-1.124-0.875
			c-0.511,0-1.005,0.205-1.28,0.383l-0.226-0.571C12.581,2.223,13.231,2,13.921,2c1.261,0,1.832,0.679,1.832,1.384
			c0,0.598-0.394,1.107-1.182,1.366v0.018C15.359,4.911,16,5.446,16,6.259C16,7.188,15.202,8,13.666,8
			C12.945,8,12.315,7.795,12,7.607L12.236,7z"/>
	</g>
	<g>
		<path style="&st2;" d="M6,12v-0.489l0.665-0.608c1.6-1.434,2.323-2.197,2.333-3.087c0-0.599-0.309-1.152-1.243-1.152
			c-0.568,0-1.042,0.272-1.33,0.499l-0.27-0.563C6.589,6.254,7.205,6,7.928,6c1.35,0,1.918,0.871,1.918,1.716
			c0,1.088-0.838,1.969-2.159,3.168l-0.5,0.435v0.019H10V12H6z"/>
	</g>
	<g>
		<path style="&st2;" d="M3.016,10.787H3l-0.864,0.586L2,10.729L3.096,10H4v6H3.016V10.787z"/>
	</g>
</g>
</svg>
