<?xml version="1.0" encoding="utf-8"?>
<!DOCTYPE svg PUBLIC "-//W3C//DTD SVG 1.1//EN" "http://www.w3.org/Graphics/SVG/1.1/DTD/svg11.dtd" [
	<!ENTITY st0 "fill:#FFFFFF;">
	<!ENTITY st1 "fill:#808080;">
	<!ENTITY st2 "fill:#636F80;">
	<!ENTITY st3 "opacity:0.2;fill:#FFFFFF;">
	<!ENTITY st4 "opacity:0.2;fill:#636F80;">
	<!ENTITY st5 "opacity:0.2;fill:#808080;">
	<!ENTITY st6 "fill-rule:evenodd;clip-rule:evenodd;fill:#FFFFFF;">
	<!ENTITY st7 "fill-rule:evenodd;clip-rule:evenodd;fill:#808080;">
	<!ENTITY st8 "fill-rule:evenodd;clip-rule:evenodd;fill:#636F80;">
	<!ENTITY st9 "fill:#F7931E;">
]>
<svg version="1.1" id="img" xmlns="http://www.w3.org/2000/svg" xmlns:xlink="http://www.w3.org/1999/xlink" x="0px" y="0px"
	 width="18px" height="18px" viewBox="0 0 18 18" style="enable-background:new 0 0 18 18;" xml:space="preserve">
<g id="part-of-observation.default">
	<g>
		<rect x="2" y="3" style="&st2;" width="1" height="1"/>
		<rect x="2" y="5" style="&st2;" width="1" height="1"/>
		<rect x="2" y="7" style="&st2;" width="1" height="1"/>
		<rect x="2" y="9" style="&st2;" width="1" height="1"/>
		<rect x="2" y="11" style="&st2;" width="1" height="1"/>
		<rect x="2" y="13" style="&st2;" width="1" height="1"/>
		<rect x="2" y="15" style="&st2;" width="1" height="1"/>
		<rect x="4" y="15" style="&st2;" width="1" height="1"/>
		<rect x="6" y="15" style="&st2;" width="1" height="1"/>
		<rect x="8" y="15" style="&st2;" width="1" height="1"/>
		<rect x="10" y="15" style="&st2;" width="1" height="1"/>
		<rect x="12" y="15" style="&st2;" width="1" height="1"/>
		<rect x="14" y="15" style="&st2;" width="1" height="1"/>
		<path style="&st2;" d="M8,13v-1V9H5v3v1v1h3V13z M6,10h1v2H6V10z"/>
		<path style="&st2;" d="M12,10V6H9v4v4h3V10z M10,7h1v2h-1V7z"/>
	</g>
</g>
</svg>
