<?xml version="1.0" encoding="utf-8"?>
<!DOCTYPE svg PUBLIC "-//W3C//DTD SVG 1.1//EN" "http://www.w3.org/Graphics/SVG/1.1/DTD/svg11.dtd" [
	<!ENTITY st0 "fill:#FFFFFF;">
	<!ENTITY st1 "fill:#808080;">
	<!ENTITY st2 "fill:#636F80;">
	<!ENTITY st3 "opacity:0.2;fill:#FFFFFF;">
	<!ENTITY st4 "opacity:0.2;fill:#636F80;">
	<!ENTITY st5 "opacity:0.2;fill:#808080;">
	<!ENTITY st6 "fill-rule:evenodd;clip-rule:evenodd;fill:#FFFFFF;">
	<!ENTITY st7 "fill-rule:evenodd;clip-rule:evenodd;fill:#808080;">
	<!ENTITY st8 "fill-rule:evenodd;clip-rule:evenodd;fill:#636F80;">
	<!ENTITY st9 "fill:#F7931E;">
]>
<svg version="1.1" id="img" xmlns="http://www.w3.org/2000/svg" xmlns:xlink="http://www.w3.org/1999/xlink" x="0px" y="0px"
	 width="18px" height="18px" viewBox="0 0 18 18" style="enable-background:new 0 0 18 18;" xml:space="preserve">
<g id="plus.default">
	<g>
		<path style="&st2;" d="M9,17l-0.055-0.5L9,16c0.292,0,0.579-0.018,0.862-0.052l0.121,0.992C9.661,16.979,9.333,17,9,17z
			 M7.899,16.925c-0.344-0.047-0.688-0.118-1.023-0.21l0.264-0.964c0.292,0.08,0.591,0.142,0.897,0.184L7.899,16.925z
			 M11.011,16.745l-0.25-0.968c0.298-0.077,0.587-0.173,0.867-0.286l0.377,0.926C11.682,16.548,11.348,16.658,11.011,16.745z
			 M5.889,16.372c-0.319-0.134-0.634-0.292-0.934-0.469l0.506-0.863c0.262,0.154,0.534,0.291,0.816,0.411L5.889,16.372z
			 M12.946,15.962l-0.494-0.87c0.267-0.151,0.522-0.319,0.764-0.503l0.603,0.797C13.543,15.596,13.249,15.79,12.946,15.962z
			 M4.088,15.316c-0.273-0.214-0.534-0.445-0.778-0.693l0.711-0.703c0.215,0.218,0.444,0.42,0.685,0.608L4.088,15.316z
			 M14.609,14.704l-0.701-0.712c0.217-0.214,0.42-0.441,0.607-0.682l0.789,0.615C15.091,14.198,14.857,14.46,14.609,14.704z
			 M2.625,13.835c-0.211-0.278-0.404-0.572-0.576-0.873l0.869-0.495c0.151,0.266,0.319,0.521,0.504,0.763L2.625,13.835z
			 M15.894,13.061l-0.861-0.508c0.154-0.262,0.292-0.534,0.412-0.816l0.92,0.393C16.228,12.451,16.069,12.763,15.894,13.061z
			 M1.59,12.023c-0.131-0.321-0.242-0.655-0.33-0.994l0.967-0.252c0.078,0.297,0.174,0.587,0.289,0.866L1.59,12.023z M16.709,11.144
			l-0.963-0.269c0.081-0.292,0.143-0.59,0.186-0.896l0.99,0.143C16.872,10.471,16.801,10.815,16.709,11.144z M1.062,10.004
			C1.02,9.675,1,9.34,1,9l1-0.036V9c0,0.298,0.019,0.591,0.055,0.879L1.062,10.004z M15.999,9.073L16,8.979
			c0-0.289-0.021-0.593-0.06-0.892l0.992-0.13C16.978,8.3,17,8.65,17,9L15.999,9.073z M2.062,8.055l-0.99-0.136
			c0.047-0.345,0.117-0.69,0.208-1.023l0.965,0.262C2.166,7.45,2.105,7.748,2.062,8.055z M15.764,7.19
			c-0.079-0.297-0.178-0.587-0.293-0.867l0.924-0.382c0.134,0.323,0.246,0.656,0.336,0.991L15.764,7.19z M2.542,6.294L1.62,5.907
			c0.134-0.319,0.291-0.634,0.467-0.935L2.95,5.476C2.797,5.738,2.66,6.011,2.542,6.294z M15.066,5.504
			c-0.153-0.265-0.323-0.519-0.508-0.761l0.793-0.608c0.211,0.275,0.406,0.567,0.58,0.869L15.066,5.504z M3.463,4.719L2.672,4.106
			C2.884,3.832,3.116,3.57,3.363,3.324l0.705,0.709C3.852,4.248,3.649,4.477,3.463,4.719z M13.954,4.055
			c-0.215-0.216-0.444-0.418-0.686-0.604l0.611-0.792c0.276,0.214,0.54,0.445,0.784,0.69L13.954,4.055z M4.758,3.432L4.15,2.637
			c0.276-0.21,0.568-0.405,0.87-0.579l0.498,0.867C5.254,3.078,4.999,3.248,4.758,3.432z M12.509,2.942
			c-0.263-0.152-0.536-0.288-0.818-0.406l0.385-0.923c0.32,0.134,0.636,0.289,0.936,0.464L12.509,2.942z M6.341,2.523L5.96,1.598
			c0.319-0.132,0.653-0.244,0.991-0.333l0.256,0.967C6.91,2.31,6.62,2.408,6.341,2.523z M10.826,2.24
			c-0.292-0.078-0.591-0.139-0.896-0.18l0.131-0.991c0.346,0.046,0.691,0.116,1.025,0.205L10.826,2.24z M8.104,2.057L7.977,1.065
			C8.312,1.023,8.653,1,9,1l0.018,1L8.979,2C8.696,2,8.396,2.02,8.104,2.057z"/>
	</g>
	<polygon style="&st2;" points="13,8 10,8 10,5 8,5 8,8 5,8 5,10 8,10 8,13 10,13 10,10 13,10 	"/>
</g>
</svg>
