<?xml version="1.0" encoding="utf-8"?>
<!DOCTYPE svg PUBLIC "-//W3C//DTD SVG 1.1//EN" "http://www.w3.org/Graphics/SVG/1.1/DTD/svg11.dtd" [
	<!ENTITY st0 "fill:#FFFFFF;">
	<!ENTITY st1 "fill:#808080;">
	<!ENTITY st2 "fill:#636F80;">
	<!ENTITY st3 "opacity:0.2;fill:#FFFFFF;">
	<!ENTITY st4 "opacity:0.2;fill:#636F80;">
	<!ENTITY st5 "opacity:0.2;fill:#808080;">
	<!ENTITY st6 "fill-rule:evenodd;clip-rule:evenodd;fill:#FFFFFF;">
	<!ENTITY st7 "fill-rule:evenodd;clip-rule:evenodd;fill:#808080;">
	<!ENTITY st8 "fill-rule:evenodd;clip-rule:evenodd;fill:#636F80;">
	<!ENTITY st9 "fill:#F7931E;">
]>
<svg version="1.1" id="img" xmlns="http://www.w3.org/2000/svg" xmlns:xlink="http://www.w3.org/1999/xlink" x="0px" y="0px"
	 width="18px" height="18px" viewBox="0 0 18 18" style="enable-background:new 0 0 18 18;" xml:space="preserve">
<g id="remove-all-links.default">
	<g>
		<rect x="1" y="4" style="&st2;" width="4" height="1"/>
	</g>
	<g>
		<path style="&st2;" d="M15,6V5h-3V4h3V3l2,1.5L15,6z"/>
	</g>
	<path style="&st2;" d="M9.204,4.503l2.786,2.786l-0.707,0.707L8.497,5.21L5.711,7.996L5.004,7.289L7.79,4.503L5.004,1.717
		L5.711,1.01l2.786,2.786l2.786-2.786l0.707,0.707L9.204,4.503z"/>
	<g>
		<rect x="1" y="13" style="&st2;" width="4" height="1"/>
	</g>
	<g>
		<path style="&st2;" d="M15,15v-1h-3v-1h3v-1l2,1.5L15,15z"/>
	</g>
	<path style="&st2;" d="M9.204,13.503l2.786,2.786l-0.707,0.707L8.497,14.21l-2.786,2.786l-0.707-0.707l2.786-2.786l-2.786-2.786
		l0.707-0.707l2.786,2.786l2.786-2.786l0.707,0.707L9.204,13.503z"/>
</g>
</svg>
