<?xml version="1.0" encoding="utf-8"?>
<!DOCTYPE svg PUBLIC "-//W3C//DTD SVG 1.1//EN" "http://www.w3.org/Graphics/SVG/1.1/DTD/svg11.dtd" [
	<!ENTITY st0 "fill:#FFFFFF;">
	<!ENTITY st1 "fill:#808080;">
	<!ENTITY st2 "fill:#636F80;">
	<!ENTITY st3 "opacity:0.2;fill:#FFFFFF;">
	<!ENTITY st4 "opacity:0.2;fill:#636F80;">
	<!ENTITY st5 "opacity:0.2;fill:#808080;">
	<!ENTITY st6 "fill-rule:evenodd;clip-rule:evenodd;fill:#FFFFFF;">
	<!ENTITY st7 "fill-rule:evenodd;clip-rule:evenodd;fill:#808080;">
	<!ENTITY st8 "fill-rule:evenodd;clip-rule:evenodd;fill:#636F80;">
	<!ENTITY st9 "fill:#F7931E;">
]>
<svg version="1.1" id="img" xmlns="http://www.w3.org/2000/svg" xmlns:xlink="http://www.w3.org/1999/xlink" x="0px" y="0px"
	 width="18px" height="18px" viewBox="0 0 18 18" style="enable-background:new 0 0 18 18;" xml:space="preserve">
<g id="resize.default">
	<g>
		<g>
			<path style="&st2;" d="M8.444,16c-0.113,0-0.227-0.043-0.314-0.13c-0.173-0.174-0.173-0.455,0-0.628l7.111-7.111
				c0.174-0.174,0.455-0.174,0.629,0c0.173,0.174,0.173,0.455,0,0.628L8.759,15.87C8.672,15.957,8.559,16,8.444,16z"/>
		</g>
		<g>
			<path style="&st2;" d="M11.311,16c-0.113,0-0.227-0.043-0.314-0.13c-0.174-0.174-0.174-0.455,0-0.628l4.245-4.244
				c0.174-0.174,0.455-0.174,0.629,0c0.173,0.174,0.173,0.455,0,0.628l-4.245,4.245C11.538,15.957,11.424,16,11.311,16z"/>
		</g>
		<g>
			<path style="&st2;" d="M14.177,16c-0.113,0-0.228-0.043-0.313-0.13c-0.174-0.174-0.174-0.455,0-0.628l1.378-1.378
				c0.174-0.174,0.455-0.174,0.629,0c0.173,0.174,0.173,0.455,0,0.628l-1.379,1.378C14.404,15.957,14.291,16,14.177,16z"/>
		</g>
	</g>
</g>
</svg>
