<?xml version="1.0" encoding="utf-8"?>
<!DOCTYPE svg PUBLIC "-//W3C//DTD SVG 1.1//EN" "http://www.w3.org/Graphics/SVG/1.1/DTD/svg11.dtd" [
	<!ENTITY st0 "fill:#FFFFFF;">
	<!ENTITY st1 "fill:#808080;">
	<!ENTITY st2 "fill:#636F80;">
	<!ENTITY st3 "opacity:0.2;fill:#FFFFFF;">
	<!ENTITY st4 "opacity:0.2;fill:#636F80;">
	<!ENTITY st5 "opacity:0.2;fill:#808080;">
	<!ENTITY st6 "fill-rule:evenodd;clip-rule:evenodd;fill:#FFFFFF;">
	<!ENTITY st7 "fill-rule:evenodd;clip-rule:evenodd;fill:#808080;">
	<!ENTITY st8 "fill-rule:evenodd;clip-rule:evenodd;fill:#636F80;">
	<!ENTITY st9 "fill:#F7931E;">
]>
<svg version="1.1" id="img" xmlns="http://www.w3.org/2000/svg" xmlns:xlink="http://www.w3.org/1999/xlink" x="0px" y="0px"
	 width="18px" height="18px" viewBox="0 0 18 18" style="enable-background:new 0 0 18 18;" xml:space="preserve">
<g id="row-percent.default">
	<rect x="4" y="14" style="&st2;" width="10" height="1"/>
	<polygon style="&st2;" points="14,16 14,13 16,14.5 	"/>
	<polygon style="&st2;" points="4,13 4,16 2,14.5 	"/>
	<polygon style="&st2;" points="10.92,3 6.221,12.053 7.094,12.053 11.776,3 	"/>
	<path style="&st2;" d="M13.47,8.089c-0.353-0.385-0.8-0.577-1.339-0.577c-0.59,0-1.039,0.214-1.348,0.642
		c-0.309,0.428-0.463,0.95-0.463,1.567c0,0.777,0.173,1.361,0.519,1.749c0.346,0.389,0.778,0.583,1.298,0.583
		c0.527,0,0.97-0.196,1.327-0.589C13.821,11.071,14,10.512,14,9.785C14,9.039,13.823,8.474,13.47,8.089z M12.819,10.986
		c-0.174,0.227-0.395,0.34-0.665,0.34c-0.258,0-0.475-0.114-0.65-0.34c-0.176-0.226-0.264-0.613-0.264-1.16
		c0-0.606,0.087-1.022,0.261-1.249c0.174-0.227,0.393-0.34,0.659-0.34c0.262,0,0.48,0.112,0.656,0.337
		C12.992,8.8,13.08,9.19,13.08,9.744C13.08,10.346,12.993,10.761,12.819,10.986z"/>
	<path style="&st2;" d="M7.674,5.274c0-0.747-0.177-1.312-0.53-1.697C6.79,3.192,6.344,3,5.805,3C5.219,3,4.772,3.215,4.463,3.645
		C4.154,4.075,4,4.596,4,5.209c0,0.782,0.173,1.366,0.519,1.752c0.346,0.387,0.778,0.58,1.298,0.58c0.523,0,0.964-0.196,1.321-0.589
		C7.495,6.56,7.674,6,7.674,5.274z M6.493,6.475C6.319,6.701,6.1,6.814,5.834,6.814c-0.258,0-0.475-0.112-0.65-0.337
		S4.92,5.865,4.92,5.314c0-0.605,0.087-1.021,0.261-1.248c0.174-0.226,0.392-0.34,0.653-0.34c0.262,0,0.48,0.112,0.656,0.337
		c0.176,0.225,0.264,0.614,0.264,1.169C6.754,5.834,6.667,6.248,6.493,6.475z"/>
</g>
</svg>
