<?xml version="1.0" encoding="utf-8"?>
<!DOCTYPE svg PUBLIC "-//W3C//DTD SVG 1.1//EN" "http://www.w3.org/Graphics/SVG/1.1/DTD/svg11.dtd" [
	<!ENTITY st0 "fill:#FFFFFF;">
	<!ENTITY st1 "fill:#808080;">
	<!ENTITY st2 "fill:#636F80;">
	<!ENTITY st3 "opacity:0.2;fill:#FFFFFF;">
	<!ENTITY st4 "opacity:0.2;fill:#636F80;">
	<!ENTITY st5 "opacity:0.2;fill:#808080;">
	<!ENTITY st6 "fill-rule:evenodd;clip-rule:evenodd;fill:#FFFFFF;">
	<!ENTITY st7 "fill-rule:evenodd;clip-rule:evenodd;fill:#808080;">
	<!ENTITY st8 "fill-rule:evenodd;clip-rule:evenodd;fill:#636F80;">
	<!ENTITY st9 "fill:#F7931E;">
]>
<svg version="1.1" id="img" xmlns="http://www.w3.org/2000/svg" xmlns:xlink="http://www.w3.org/1999/xlink" x="0px" y="0px"
	 width="18px" height="18px" viewBox="0 0 18 18" style="enable-background:new 0 0 18 18;" xml:space="preserve">
<g id="show-fast-viewer.default">
	<path style="&st2;" d="M14,5l-2-2l-1-1H4C3.45,2,3,2.45,3,3v12c0,0.55,0.45,1,1,1h3c-0.3-0.3-0.56-0.64-0.79-1H4V3h7v3h3v1.21
		C14.36,7.44,14.7,7.7,15,8V6L14,5z"/>
	<path style="&st2;" d="M15.854,16.146l-1.707-1.707c1.217-1.569,1.123-3.827-0.318-5.268c-1.562-1.562-4.095-1.562-5.657,0
		c-1.562,1.562-1.562,4.095,0,5.657c1.441,1.441,3.699,1.536,5.268,0.318l1.707,1.707c0.195,0.195,0.512,0.195,0.707,0
		C16.049,16.658,16.049,16.341,15.854,16.146z M8,12c0-1.657,1.343-3,3-3c1.657,0,3,1.343,3,3s-1.343,3-3,3C9.343,15,8,13.657,8,12z
		"/>
</g>
</svg>
