<?xml version="1.0" encoding="utf-8"?>
<!DOCTYPE svg PUBLIC "-//W3C//DTD SVG 1.1//EN" "http://www.w3.org/Graphics/SVG/1.1/DTD/svg11.dtd" [
	<!ENTITY st0 "fill:#FFFFFF;">
	<!ENTITY st1 "fill:#808080;">
	<!ENTITY st2 "fill:#636F80;">
	<!ENTITY st3 "opacity:0.2;fill:#FFFFFF;">
	<!ENTITY st4 "opacity:0.2;fill:#636F80;">
	<!ENTITY st5 "opacity:0.2;fill:#808080;">
	<!ENTITY st6 "fill-rule:evenodd;clip-rule:evenodd;fill:#FFFFFF;">
	<!ENTITY st7 "fill-rule:evenodd;clip-rule:evenodd;fill:#808080;">
	<!ENTITY st8 "fill-rule:evenodd;clip-rule:evenodd;fill:#636F80;">
	<!ENTITY st9 "fill:#F7931E;">
]>
<svg version="1.1" id="img" xmlns="http://www.w3.org/2000/svg" xmlns:xlink="http://www.w3.org/1999/xlink" x="0px" y="0px"
	 width="18px" height="18px" viewBox="0 0 18 18" style="enable-background:new 0 0 18 18;" xml:space="preserve">
<g id="stat-last.default">
	<g>
		<path style="&st2;" d="M11,15V8.777h0.939v0.885c0.452-0.684,1.104-1.025,1.958-1.025c0.371,0,0.712,0.067,1.023,0.202
			c0.311,0.135,0.543,0.312,0.697,0.53c0.154,0.219,0.264,0.479,0.324,0.779C15.981,10.344,16,10.686,16,11.174V15h-1.043v-3.785
			c0-0.43-0.041-0.751-0.121-0.964c-0.082-0.213-0.226-0.383-0.432-0.51c-0.207-0.127-0.449-0.19-0.727-0.19
			c-0.444,0-0.827,0.143-1.15,0.428c-0.322,0.285-0.483,0.826-0.483,1.623V15H11z"/>
	</g>
	<rect x="8" y="13" style="&st2;" width="2" height="2"/>
	<rect x="5" y="13" style="&st2;" width="2" height="2"/>
	<rect x="2" y="13" style="&st2;" width="2" height="2"/>
</g>
</svg>
