<?xml version="1.0" encoding="utf-8"?>
<!DOCTYPE svg PUBLIC "-//W3C//DTD SVG 1.1//EN" "http://www.w3.org/Graphics/SVG/1.1/DTD/svg11.dtd" [
	<!ENTITY st0 "fill:#FFFFFF;">
	<!ENTITY st1 "fill:#808080;">
	<!ENTITY st2 "fill:#636F80;">
	<!ENTITY st3 "opacity:0.2;fill:#FFFFFF;">
	<!ENTITY st4 "opacity:0.2;fill:#636F80;">
	<!ENTITY st5 "opacity:0.2;fill:#808080;">
	<!ENTITY st6 "fill-rule:evenodd;clip-rule:evenodd;fill:#FFFFFF;">
	<!ENTITY st7 "fill-rule:evenodd;clip-rule:evenodd;fill:#808080;">
	<!ENTITY st8 "fill-rule:evenodd;clip-rule:evenodd;fill:#636F80;">
	<!ENTITY st9 "fill:#F7931E;">
]>
<svg version="1.1" id="img" xmlns="http://www.w3.org/2000/svg" xmlns:xlink="http://www.w3.org/1999/xlink" x="0px" y="0px"
	 width="18px" height="18px" viewBox="0 0 18 18" style="enable-background:new 0 0 18 18;" xml:space="preserve">
<g id="sumsq.default">
	<g>
		<path style="&st2;" d="M10.079,10V9.352l0.827-0.804c1.991-1.895,2.891-2.902,2.902-4.078c0-0.791-0.384-1.522-1.547-1.522
			c-0.708,0-1.296,0.359-1.655,0.659l-0.336-0.743c0.54-0.457,1.308-0.792,2.207-0.792c1.679,0,2.387,1.151,2.387,2.267
			c0,1.439-1.044,2.602-2.687,4.186l-0.624,0.576v0.023h3.502V10H10.079z"/>
	</g>
	<g>
		<g>
			<path style="&st2;" d="M3.088,5h6.399v0.853H4.378l3.138,4.032l-3.359,4.278h5.383V15H3v-0.972l3.207-4.101L3.088,5.911V5z"/>
		</g>
	</g>
</g>
</svg>
