<?xml version="1.0" encoding="utf-8"?>
<!-- Generator: Adobe Illustrator 22.1.0, SVG Export Plug-In . SVG Version: 6.00 Build 0)  -->
<svg version="1.1" id="toolbar" xmlns="http://www.w3.org/2000/svg" xmlns:xlink="http://www.w3.org/1999/xlink" x="0px" y="0px"
	 width="18px" height="18px" viewBox="0 0 18 18" style="enable-background:new 0 0 18 18;" xml:space="preserve">
<style type="text/css">
	.st0{fill:#FFFFFF;}
	.st1{fill:#808080;}
	.st2{fill:#636F80;}
	.st3{fill-rule:evenodd;clip-rule:evenodd;fill:#FFFFFF;}
	.st4{fill-rule:evenodd;clip-rule:evenodd;fill:#808080;}
	.st5{fill-rule:evenodd;clip-rule:evenodd;fill:#636F80;}
	.st6{fill:#F7931E;}
</style>
<g id="Монтажная_область_4757">
	<rect x="13" y="12" class="st0" width="2" height="2"/>
	<rect x="13" y="4" class="st0" width="2" height="2"/>
	<path class="st0" d="M16,11v4h-4v-4H16 M17,10h-1h-4h-1v1v4v1h1h4h1v-1v-4V10L17,10z"/>
	<path class="st0" d="M16,3v4h-4V3H16 M17,2h-1h-4h-1v1v4v1h1h4h1V7V3V2L17,2z"/>
	<polygon class="st0" points="10,4 1,4 6,9.833 6,15 8,14 8,9.833 10,7.5 	"/>
</g>
</svg>
