<?xml version="1.0" encoding="utf-8"?>
<!-- Generator: Adobe Illustrator 22.1.0, SVG Export Plug-In . SVG Version: 6.00 Build 0)  -->
<svg version="1.1" id="toolbar" xmlns="http://www.w3.org/2000/svg" xmlns:xlink="http://www.w3.org/1999/xlink" x="0px" y="0px"
	 width="18px" height="18px" viewBox="0 0 18 18" style="enable-background:new 0 0 18 18;" xml:space="preserve">
<style type="text/css">
	.st0{fill:#FFFFFF;}
	.st1{fill:#808080;}
	.st2{fill:#636F80;}
	.st3{fill-rule:evenodd;clip-rule:evenodd;fill:#FFFFFF;}
	.st4{fill-rule:evenodd;clip-rule:evenodd;fill:#808080;}
	.st5{fill-rule:evenodd;clip-rule:evenodd;fill:#636F80;}
	.st6{fill:#F7931E;}
</style>
<g id="share_inverted">
	<g>
		<path class="st3" d="M12.691,10.846c-1.088,0-2.04,0.568-2.587,1.421l-3.293-1.881C7.021,9.966,7.154,9.5,7.154,8.998
			c0-0.309-0.06-0.601-0.145-0.883l3.429-1.959c0.561,0.61,1.361,0.998,2.253,0.998c1.701,0,3.077-1.379,3.077-3.077
			S14.392,1,12.691,1c-1.698,0-3.077,1.379-3.077,3.077c0,0.309,0.06,0.601,0.145,0.883L6.331,6.919
			c-0.562-0.61-1.358-0.998-2.254-0.998C2.379,5.921,1,7.3,1,8.998c0,1.701,1.379,3.077,3.077,3.077c0.7,0,1.34-0.243,1.857-0.637
			l-0.012,0.025l3.726,2.127c-0.012,0.112-0.033,0.219-0.033,0.334c0,1.698,1.379,3.077,3.077,3.077
			c1.701,0,3.077-1.379,3.077-3.077C15.768,12.223,14.392,10.846,12.691,10.846L12.691,10.846z M12.691,2.232
			c1.021,0,1.848,0.826,1.848,1.845c0,1.018-0.827,1.845-1.848,1.845c-1.018,0-1.845-0.826-1.845-1.845
			C10.846,3.058,11.673,2.232,12.691,2.232L12.691,2.232z M4.077,10.846c-1.018,0-1.845-0.826-1.845-1.848
			c0-1.018,0.826-1.845,1.845-1.845c1.018,0,1.845,0.826,1.845,1.845C5.921,10.02,5.095,10.846,4.077,10.846L4.077,10.846z
			 M12.691,15.768c-1.018,0-1.845-0.826-1.845-1.845c0-1.021,0.826-1.848,1.845-1.848c1.021,0,1.848,0.827,1.848,1.848
			C14.539,14.942,13.712,15.768,12.691,15.768L12.691,15.768z M12.691,15.768"/>
	</g>
</g>
</svg>
