<?xml version="1.0" encoding="utf-8"?>
<!-- Generator: Adobe Illustrator 22.1.0, SVG Export Plug-In . SVG Version: 6.00 Build 0)  -->
<svg version="1.1" id="toolbar" xmlns="http://www.w3.org/2000/svg" xmlns:xlink="http://www.w3.org/1999/xlink" x="0px" y="0px"
	 width="18px" height="18px" viewBox="0 0 18 18" style="enable-background:new 0 0 18 18;" xml:space="preserve">
<style type="text/css">
	.st0{fill:#FFFFFF;}
	.st1{fill:#808080;}
	.st2{fill:#636F80;}
	.st3{fill-rule:evenodd;clip-rule:evenodd;fill:#FFFFFF;}
	.st4{fill-rule:evenodd;clip-rule:evenodd;fill:#808080;}
	.st5{fill-rule:evenodd;clip-rule:evenodd;fill:#636F80;}
	.st6{fill:#F7931E;}
</style>
<path id="temporary-default" class="st2" d="M16,5v11h-5v-1h4V5h-2V3H5v4H4V2h9L16,5z M12,11.5c0,2.485-2.015,4.5-4.5,4.5
	S3,13.985,3,11.5S5.015,7,7.5,7S12,9.015,12,11.5z M11,11.5C11,9.57,9.43,8,7.5,8S4,9.57,4,11.5S5.57,15,7.5,15S11,13.43,11,11.5z
	 M8,11V9H7v3h3v-1H8z"/>
</svg>
