<?xml version="1.0" encoding="utf-8"?>
<!-- Generator: Adobe Illustrator 22.1.0, SVG Export Plug-In . SVG Version: 6.00 Build 0)  -->
<svg version="1.1" id="toolbar" xmlns="http://www.w3.org/2000/svg" xmlns:xlink="http://www.w3.org/1999/xlink" x="0px" y="0px"
	 width="18px" height="18px" viewBox="0 0 18 18" style="enable-background:new 0 0 18 18;" xml:space="preserve">
<style type="text/css">
	.st0{fill:#FFFFFF;}
	.st1{fill:#808080;}
	.st2{fill:#636F80;}
	.st3{fill-rule:evenodd;clip-rule:evenodd;fill:#FFFFFF;}
	.st4{fill-rule:evenodd;clip-rule:evenodd;fill:#808080;}
	.st5{fill-rule:evenodd;clip-rule:evenodd;fill:#636F80;}
	.st6{fill:#F7931E;}
</style>
<g id="type-float_default">
	<g>
		<path class="st2" d="M2.883,13.3c-0.171-0.477-0.171-0.93,0-1.361c0.907-0.09,1.626-0.316,2.156-0.681
			c0.53-0.364,0.903-0.928,1.119-1.691C5.96,9.62,5.747,9.663,5.518,9.695c-0.23,0.031-0.483,0.047-0.762,0.047
			c-0.386,0-0.752-0.052-1.099-0.154C3.312,9.483,3.011,9.318,2.755,9.088c-0.257-0.23-0.459-0.526-0.606-0.89
			C2,7.834,1.926,7.392,1.926,6.87c0-0.997,0.276-1.724,0.829-2.182C3.308,4.228,4.064,4,5.025,4C5.978,4,6.732,4.286,7.29,4.856
			c0.557,0.57,0.836,1.485,0.836,2.743c0,0.943-0.117,1.761-0.351,2.453c-0.233,0.692-0.573,1.271-1.018,1.738
			c-0.445,0.468-0.993,0.823-1.645,1.066C4.462,13.098,3.719,13.246,2.883,13.3z M3.678,6.87c0,0.297,0.034,0.544,0.102,0.742
			C3.847,7.81,3.94,7.969,4.062,8.091C4.184,8.212,4.329,8.297,4.5,8.347c0.171,0.049,0.354,0.074,0.553,0.074
			c0.251,0,0.492-0.023,0.721-0.067c0.23-0.045,0.425-0.09,0.587-0.135C6.369,8.111,6.376,8.003,6.38,7.894
			c0.005-0.107,0.007-0.224,0.007-0.35c0-0.818-0.123-1.397-0.37-1.739C5.769,5.465,5.438,5.294,5.025,5.294
			c-0.413,0-0.741,0.123-0.983,0.37C3.799,5.911,3.678,6.314,3.678,6.87z"/>
		<path class="st2" d="M9.524,13.192c-0.054,0.018-0.126,0.036-0.216,0.054c-0.071,0.018-0.161,0.031-0.27,0.04
			C8.932,13.295,8.811,13.3,8.676,13.3c-0.153,0-0.281-0.005-0.385-0.014c-0.104-0.009-0.19-0.022-0.263-0.04
			c-0.081-0.018-0.148-0.036-0.202-0.054v-1.551c0.054-0.018,0.121-0.035,0.202-0.053c0.072-0.018,0.159-0.031,0.263-0.04
			c0.103-0.009,0.231-0.014,0.385-0.014c0.135,0,0.256,0.005,0.363,0.014c0.108,0.009,0.198,0.022,0.27,0.04
			c0.09,0.018,0.162,0.036,0.216,0.053V13.192z"/>
		<path class="st2" d="M13.55,13.435c-0.548,0-1.033-0.088-1.456-0.262c-0.422-0.176-0.779-0.454-1.071-0.836
			c-0.292-0.382-0.515-0.871-0.667-1.469c-0.153-0.597-0.229-1.314-0.229-2.15c0-1.653,0.297-2.852,0.89-3.598
			C11.609,4.373,12.453,4,13.55,4c0.548,0,1.035,0.087,1.463,0.263c0.426,0.175,0.788,0.454,1.085,0.835
			c0.296,0.383,0.521,0.872,0.674,1.47C16.924,7.165,17,7.882,17,8.717c0,0.836-0.076,1.553-0.229,2.15
			c-0.153,0.598-0.378,1.087-0.674,1.469c-0.297,0.382-0.659,0.66-1.085,0.836C14.585,13.347,14.098,13.435,13.55,13.435z
			 M13.55,5.429c-0.252,0-0.479,0.042-0.681,0.128c-0.202,0.085-0.373,0.249-0.512,0.492c-0.14,0.242-0.245,0.577-0.317,1.004
			c-0.072,0.427-0.107,0.982-0.107,1.664c0,0.674,0.035,1.225,0.107,1.651c0.072,0.427,0.178,0.762,0.317,1.004
			c0.139,0.243,0.31,0.409,0.512,0.499c0.202,0.09,0.429,0.135,0.681,0.135c0.261,0,0.489-0.045,0.688-0.135
			c0.197-0.09,0.364-0.256,0.499-0.499c0.135-0.242,0.237-0.577,0.31-1.004c0.072-0.427,0.107-0.978,0.107-1.651
			c0-0.682-0.035-1.237-0.107-1.664s-0.175-0.762-0.31-1.004c-0.135-0.243-0.302-0.407-0.499-0.492
			C14.039,5.471,13.811,5.429,13.55,5.429z"/>
	</g>
</g>
</svg>
