<?xml version="1.0" encoding="utf-8"?>
<!-- Generator: Adobe Illustrator 22.1.0, SVG Export Plug-In . SVG Version: 6.00 Build 0)  -->
<svg version="1.1" id="toolbar" xmlns="http://www.w3.org/2000/svg" xmlns:xlink="http://www.w3.org/1999/xlink" x="0px" y="0px"
	 width="18px" height="18px" viewBox="0 0 18 18" style="enable-background:new 0 0 18 18;" xml:space="preserve">
<style type="text/css">
	.st0{fill:#FFFFFF;}
	.st1{fill:#808080;}
	.st2{fill:#636F80;}
	.st3{fill-rule:evenodd;clip-rule:evenodd;fill:#FFFFFF;}
	.st4{fill-rule:evenodd;clip-rule:evenodd;fill:#808080;}
	.st5{fill-rule:evenodd;clip-rule:evenodd;fill:#636F80;}
	.st6{fill:#F7931E;}
</style>
<g id="ruler_disabled">
	<path class="st4" d="M15.909,11.546L13,14.455l-0.727-0.727l2.909-2.909l-0.726-0.728L13,11.546l-0.727-0.727l1.455-1.454
		l0.192,0.191L9.493,5.129l0.598,0.599L7.182,8.637L6.455,7.909L9.363,5L7.991,3.627l0.645,0.646L7.182,5.727L6.455,5l1.454-1.454
		L7.182,2.818L4.273,5.727L3.545,5l2.91-2.909L5.363,1L1,5.365L12.636,17L17,12.637L15.909,11.546z M10.818,6.455l0.726,0.727
		l-1.454,1.455L9.363,7.909L10.818,6.455z M9.363,10.818l2.909-2.909L13,8.637l-2.909,2.909L9.363,10.818z"/>
</g>
</svg>
