<?xml version="1.0" encoding="utf-8"?>
<!-- Generator: Adobe Illustrator 22.1.0, SVG Export Plug-In . SVG Version: 6.00 Build 0)  -->
<svg version="1.1" id="toolbar" xmlns="http://www.w3.org/2000/svg" xmlns:xlink="http://www.w3.org/1999/xlink" x="0px" y="0px"
	 width="18px" height="18px" viewBox="0 0 18 18" style="enable-background:new 0 0 18 18;" xml:space="preserve">
<style type="text/css">
	.st0{fill:#FFFFFF;}
	.st1{fill:#808080;}
	.st2{fill:#636F80;}
	.st3{fill-rule:evenodd;clip-rule:evenodd;fill:#FFFFFF;}
	.st4{fill-rule:evenodd;clip-rule:evenodd;fill:#808080;}
	.st5{fill-rule:evenodd;clip-rule:evenodd;fill:#636F80;}
	.st6{fill:#F7931E;}
</style>
<g id="arrow-r_inverted">
	<g>
		<g>
			<g>
				<g>
					<path class="st0" d="M12.979,8.898c0.011,0.056,0.011,0.148,0,0.205s-0.264,0.336-0.462,0.527L7.42,14.536
						c-0.198,0.191-0.456,0.382-0.573,0.425s-0.455-0.155-0.552-0.249c-0.097-0.094-0.212-0.264-0.255-0.379s0.24-0.514,0.438-0.704
						l4.449-4.283c0.198-0.191,0.198-0.503,0-0.693L6.477,4.371C6.279,4.18,6.082,3.931,6.039,3.817s0.158-0.435,0.255-0.529
						c0.097-0.094,0.273-0.206,0.39-0.249C6.802,2.996,7.222,3.273,7.42,3.464l5.098,4.907C12.716,8.561,12.968,8.841,12.979,8.898z
						"/>
				</g>
			</g>
		</g>
	</g>
</g>
</svg>
