<?xml version="1.0" encoding="utf-8"?>
<!-- Generator: Adobe Illustrator 22.1.0, SVG Export Plug-In . SVG Version: 6.00 Build 0)  -->
<svg version="1.1" id="toolbar" xmlns="http://www.w3.org/2000/svg" xmlns:xlink="http://www.w3.org/1999/xlink" x="0px" y="0px"
	 width="18px" height="18px" viewBox="0 0 18 18" style="enable-background:new 0 0 18 18;" xml:space="preserve">
<style type="text/css">
	.st0{fill:#FFFFFF;}
	.st1{fill:#808080;}
	.st2{fill:#636F80;}
	.st3{fill-rule:evenodd;clip-rule:evenodd;fill:#FFFFFF;}
	.st4{fill-rule:evenodd;clip-rule:evenodd;fill:#808080;}
	.st5{fill-rule:evenodd;clip-rule:evenodd;fill:#636F80;}
	.st6{fill:#F7931E;}
</style>
<g id="order_disabled">
	<rect x="13" y="9" class="st1" width="1" height="3"/>
	<rect x="10" y="10" class="st1" width="5" height="1"/>
	<rect x="7" y="13" class="st1" width="1" height="3"/>
	<rect x="4" y="14" class="st1" width="5" height="1"/>
	<g>
		<path class="st1" d="M11.236,7c0.246,0.144,0.818,0.367,1.418,0.367c1.115,0,1.459-0.644,1.449-1.126
			c-0.01-0.812-0.818-1.159-1.656-1.159h-0.483v-0.59h0.483c0.631,0,1.43-0.294,1.43-0.982c0-0.464-0.326-0.875-1.124-0.875
			c-0.511,0-1.005,0.205-1.28,0.383l-0.226-0.571C11.581,2.223,12.231,2,12.921,2c1.261,0,1.832,0.679,1.832,1.384
			c0,0.598-0.394,1.107-1.182,1.366v0.018C14.359,4.911,15,5.446,15,6.259C15,7.188,14.202,8,12.666,8
			C11.945,8,11.315,7.795,11,7.607L11.236,7z"/>
	</g>
	<g>
		<path class="st1" d="M5,12v-0.489l0.665-0.608c1.6-1.434,2.323-2.197,2.333-3.087c0-0.599-0.309-1.152-1.243-1.152
			c-0.568,0-1.042,0.272-1.33,0.499l-0.27-0.563C5.589,6.254,6.205,6,6.928,6c1.35,0,1.918,0.871,1.918,1.716
			c0,1.088-0.838,1.969-2.159,3.168l-0.5,0.435v0.019H9V12H5z"/>
	</g>
	<g>
		<path class="st1" d="M2.016,10.787H2l-0.864,0.586L1,10.729L2.096,10H3v6H2.016V10.787z"/>
	</g>
</g>
</svg>
