<?xml version="1.0" encoding="utf-8"?>
<!-- Generator: Adobe Illustrator 22.1.0, SVG Export Plug-In . SVG Version: 6.00 Build 0)  -->
<svg version="1.1" id="toolbar" xmlns="http://www.w3.org/2000/svg" xmlns:xlink="http://www.w3.org/1999/xlink" x="0px" y="0px"
	 width="18px" height="18px" viewBox="0 0 18 18" style="enable-background:new 0 0 18 18;" xml:space="preserve">
<style type="text/css">
	.st0{fill:#FFFFFF;}
	.st1{fill:#808080;}
	.st2{fill:#636F80;}
	.st3{fill-rule:evenodd;clip-rule:evenodd;fill:#FFFFFF;}
	.st4{fill-rule:evenodd;clip-rule:evenodd;fill:#808080;}
	.st5{fill-rule:evenodd;clip-rule:evenodd;fill:#636F80;}
	.st6{fill:#F7931E;}
</style>
<g id="transform_default">
	<path class="st2" d="M12,8v1.219C12,10.755,10.755,12,9.219,12H8v1h1.646C11.498,13,13,11.498,13,9.646V8H12z"/>
	<rect x="7" y="4" class="st2" width="7" height="2"/>
	<rect x="4" y="7" class="st2" width="2" height="7"/>
	<rect x="4" y="4" class="st2" width="2" height="2"/>
	<path class="st2" d="M15,3v12H3V3H15 M16,2H2v14h14V2L16,2z"/>
	<polygon class="st2" points="8,14 6,12.5 8,11 	"/>
	<polygon class="st2" points="11,8 12.5,6 14,8 	"/>
</g>
</svg>
