<?xml version="1.0" encoding="utf-8"?>
<!-- Generator: Adobe Illustrator 22.1.0, SVG Export Plug-In . SVG Version: 6.00 Build 0)  -->
<svg version="1.1" id="toolbar" xmlns="http://www.w3.org/2000/svg" xmlns:xlink="http://www.w3.org/1999/xlink" x="0px" y="0px"
	 width="18px" height="18px" viewBox="0 0 18 18" style="enable-background:new 0 0 18 18;" xml:space="preserve">
<style type="text/css">
	.st0{fill:#FFFFFF;}
	.st1{fill:#808080;}
	.st2{fill:#636F80;}
	.st3{fill-rule:evenodd;clip-rule:evenodd;fill:#FFFFFF;}
	.st4{fill-rule:evenodd;clip-rule:evenodd;fill:#808080;}
	.st5{fill-rule:evenodd;clip-rule:evenodd;fill:#636F80;}
	.st6{fill:#F7931E;}
</style>
<g id="type-time_disabled">
	<g>
		<polygon class="st1" points="10.961,11.668 8.5,9.207 8.5,5.111 9.5,5.111 9.5,8.793 11.668,10.961 		"/>
	</g>
	<g>
		<path class="st1" d="M9,3c3.309,0,6,2.692,6,6c0,3.309-2.691,6-6,6s-6-2.691-6-6C3,5.692,5.691,3,9,3 M9,2C5.134,2,2,5.134,2,9
			c0,3.866,3.134,7,7,7s7-3.134,7-7C16,5.134,12.866,2,9,2L9,2z"/>
	</g>
</g>
</svg>
