<?xml version="1.0" encoding="utf-8"?>
<!-- Generator: Adobe Illustrator 22.1.0, SVG Export Plug-In . SVG Version: 6.00 Build 0)  -->
<svg version="1.1" id="toolbar" xmlns="http://www.w3.org/2000/svg" xmlns:xlink="http://www.w3.org/1999/xlink" x="0px" y="0px"
	 width="18px" height="18px" viewBox="0 0 18 18" style="enable-background:new 0 0 18 18;" xml:space="preserve">
<style type="text/css">
	.st0{fill:#FFFFFF;}
	.st1{fill:#808080;}
	.st2{fill:#636F80;}
	.st3{fill-rule:evenodd;clip-rule:evenodd;fill:#FFFFFF;}
	.st4{fill-rule:evenodd;clip-rule:evenodd;fill:#808080;}
	.st5{fill-rule:evenodd;clip-rule:evenodd;fill:#636F80;}
	.st6{fill:#F7931E;}
</style>
<g id="sumsq_inverted">
	<g>
		<path class="st0" d="M10.023,10V9.352l0.827-0.804c1.991-1.895,2.891-2.902,2.902-4.078c0-0.791-0.384-1.522-1.547-1.522
			c-0.708,0-1.296,0.359-1.655,0.659l-0.336-0.743c0.54-0.457,1.308-0.792,2.207-0.792c1.679,0,2.387,1.151,2.387,2.267
			c0,1.439-1.044,2.602-2.687,4.186l-0.624,0.576v0.023H15V10H10.023z"/>
	</g>
	<g>
		<g>
			<path class="st0" d="M3.032,5h6.399v0.853H4.322L7.46,9.885l-3.359,4.278h5.383V15H2.944v-0.972l3.208-4.101l-3.12-4.017V5z"/>
		</g>
	</g>
</g>
</svg>
