<?xml version="1.0" encoding="utf-8"?>
<!-- Generator: Adobe Illustrator 22.1.0, SVG Export Plug-In . SVG Version: 6.00 Build 0)  -->
<svg version="1.1" id="toolbar" xmlns="http://www.w3.org/2000/svg" xmlns:xlink="http://www.w3.org/1999/xlink" x="0px" y="0px"
	 width="18px" height="18px" viewBox="0 0 18 18" style="enable-background:new 0 0 18 18;" xml:space="preserve">
<style type="text/css">
	.st0{fill:#FFFFFF;}
	.st1{fill:#808080;}
	.st2{fill:#636F80;}
	.st3{fill-rule:evenodd;clip-rule:evenodd;fill:#FFFFFF;}
	.st4{fill-rule:evenodd;clip-rule:evenodd;fill:#808080;}
	.st5{fill-rule:evenodd;clip-rule:evenodd;fill:#636F80;}
	.st6{fill:#F7931E;}
</style>
<g id="table-view_disabled">
	<g>
		<path class="st1" d="M16,3v2H2V3H16 M17,2H1v4h16V2L17,2z"/>
	</g>
	<g>
		<rect x="12" y="15" class="st1" width="5" height="1"/>
	</g>
	<g>
		<rect x="7" y="15" class="st1" width="4" height="1"/>
	</g>
	<g>
		<rect x="1" y="15" class="st1" width="5" height="1"/>
	</g>
	<g>
		<rect x="12" y="13" class="st1" width="5" height="1"/>
	</g>
	<g>
		<rect x="7" y="13" class="st1" width="4" height="1"/>
	</g>
	<g>
		<rect x="1" y="13" class="st1" width="5" height="1"/>
	</g>
	<g>
		<rect x="12" y="11" class="st1" width="5" height="1"/>
	</g>
	<g>
		<rect x="7" y="11" class="st1" width="4" height="1"/>
	</g>
	<g>
		<rect x="1" y="11" class="st1" width="5" height="1"/>
	</g>
	<g>
		<rect x="12" y="9" class="st1" width="5" height="1"/>
	</g>
	<g>
		<rect x="7" y="9" class="st1" width="4" height="1"/>
	</g>
	<g>
		<rect x="1" y="9" class="st1" width="5" height="1"/>
	</g>
	<g>
		<rect x="12" y="7" class="st1" width="5" height="1"/>
	</g>
	<g>
		<rect x="7" y="7" class="st1" width="4" height="1"/>
	</g>
	<g>
		<rect x="1" y="7" class="st1" width="5" height="1"/>
	</g>
</g>
</svg>
