<?xml version="1.0" encoding="utf-8"?>
<!-- Generator: Adobe Illustrator 22.1.0, SVG Export Plug-In . SVG Version: 6.00 Build 0)  -->
<svg version="1.1" id="toolbar" xmlns="http://www.w3.org/2000/svg" xmlns:xlink="http://www.w3.org/1999/xlink" x="0px" y="0px"
	 width="18px" height="18px" viewBox="0 0 18 18" style="enable-background:new 0 0 18 18;" xml:space="preserve">
<style type="text/css">
	.st0{fill:#FFFFFF;}
	.st1{fill:#808080;}
	.st2{fill:#636F80;}
	.st3{fill-rule:evenodd;clip-rule:evenodd;fill:#FFFFFF;}
	.st4{fill-rule:evenodd;clip-rule:evenodd;fill:#808080;}
	.st5{fill-rule:evenodd;clip-rule:evenodd;fill:#636F80;}
	.st6{fill:#F7931E;}
</style>
<g id="print_disabled">
	<path class="st1" d="M14.988,9.012H14V5.586L10.414,2H4v7.012H3.335C2.687,9.012,2,9.365,2,10v2.851C2,13.486,2.525,14,3.173,14
		h0.566c0.258,0,0.467-0.205,0.467-0.456v-0.115c0-0.435,0.36-0.955,0.803-0.955h7.981c0.444,0,0.804,0.52,0.804,0.955v0.115
		c0,0.252,0.209,0.456,0.467,0.456h0.566C15.475,14,16,13.486,16,12.851V10C16,9.365,15.636,9.012,14.988,9.012z M5,3h5v3h3v3.012H5
		V3z"/>
	<path class="st1" d="M12.791,14H5.209C5.094,14,5,14.446,5,15c0,0.553,0.094,1,0.209,1h7.582C12.906,16,13,15.553,13,15
		C13,14.446,12.906,14,12.791,14z"/>
</g>
</svg>
