<?xml version="1.0" encoding="utf-8"?>
<!-- Generator: Adobe Illustrator 22.1.0, SVG Export Plug-In . SVG Version: 6.00 Build 0)  -->
<svg version="1.1" id="toolbar" xmlns="http://www.w3.org/2000/svg" xmlns:xlink="http://www.w3.org/1999/xlink" x="0px" y="0px"
	 width="18px" height="18px" viewBox="0 0 18 18" style="enable-background:new 0 0 18 18;" xml:space="preserve">
<style type="text/css">
	.st0{fill:#FFFFFF;}
	.st1{fill:#808080;}
	.st2{fill:#636F80;}
	.st3{fill-rule:evenodd;clip-rule:evenodd;fill:#FFFFFF;}
	.st4{fill-rule:evenodd;clip-rule:evenodd;fill:#808080;}
	.st5{fill-rule:evenodd;clip-rule:evenodd;fill:#636F80;}
	.st6{fill:#F7931E;}
</style>
<g id="Монтажная_область_4751">
	<path class="st0" d="M8.724,2.447L8.276,1.553C8.107,1.214,7.761,1,7.382,1H4C3.448,1,3,1.448,3,2v2h5h7V3H9.618
		C9.239,3,8.893,2.786,8.724,2.447z"/>
	<path class="st0" d="M10.723,14c-0.265-0.455-0.7-0.794-1.223-0.929V12h4.284c0.407,0,0.765-0.296,0.877-0.725l1.303-5
		C16.131,5.636,15.693,5,15.087,5H2.913C2.307,5,1.869,5.636,2.036,6.275l1.303,5C3.45,11.704,3.808,12,4.216,12H8.5v1.071
		C7.978,13.206,7.542,13.545,7.277,14H1v1h6c0,1.104,0.896,2,2,2s2-0.896,2-2h6v-1H10.723z M9,16c-0.552,0-1-0.448-1-1s0.448-1,1-1
		s1,0.448,1,1S9.552,16,9,16z"/>
</g>
</svg>
