<?xml version="1.0" encoding="utf-8"?>
<!-- Generator: Adobe Illustrator 22.1.0, SVG Export Plug-In . SVG Version: 6.00 Build 0)  -->
<svg version="1.1" id="toolbar" xmlns="http://www.w3.org/2000/svg" xmlns:xlink="http://www.w3.org/1999/xlink" x="0px" y="0px"
	 width="18px" height="18px" viewBox="0 0 18 18" style="enable-background:new 0 0 18 18;" xml:space="preserve">
<style type="text/css">
	.st0{fill:#FFFFFF;}
	.st1{fill:#808080;}
	.st2{fill:#636F80;}
	.st3{fill-rule:evenodd;clip-rule:evenodd;fill:#FFFFFF;}
	.st4{fill-rule:evenodd;clip-rule:evenodd;fill:#808080;}
	.st5{fill-rule:evenodd;clip-rule:evenodd;fill:#636F80;}
	.st6{fill:#F7931E;}
</style>
<g id="reverse-check_default">
	<path class="st2" d="M14,10V9h1V8h-1V5V4h-1H8V2H2v6h2v1H3v1h1v3v1h1h5v2h6v-6H14z M3,7V3h4v4H3z M10,13H5v-3h1V9H5V8h3V5h5v3h-1v1
		h1v1h-3V13z M15,15h-4v-4h4V15z"/>
	<rect x="12" y="12" class="st2" width="2" height="2"/>
</g>
</svg>
