<?xml version="1.0" encoding="utf-8"?>
<!-- Generator: Adobe Illustrator 22.1.0, SVG Export Plug-In . SVG Version: 6.00 Build 0)  -->
<svg version="1.1" id="toolbar" xmlns="http://www.w3.org/2000/svg" xmlns:xlink="http://www.w3.org/1999/xlink" x="0px" y="0px"
	 width="18px" height="18px" viewBox="0 0 18 18" style="enable-background:new 0 0 18 18;" xml:space="preserve">
<style type="text/css">
	.st0{fill:#FFFFFF;}
	.st1{fill:#808080;}
	.st2{fill:#636F80;}
	.st3{fill-rule:evenodd;clip-rule:evenodd;fill:#FFFFFF;}
	.st4{fill-rule:evenodd;clip-rule:evenodd;fill:#808080;}
	.st5{fill-rule:evenodd;clip-rule:evenodd;fill:#636F80;}
	.st6{fill:#F7931E;}
</style>
<g id="sort-desc_inverted">
	<path class="st0" d="M2,7.148L5.334,2.35V2.309H2.312V1h5.079v0.914L4.129,6.65v0.041h3.313V8H2V7.148z"/>
	<path class="st0" d="M4.139,15.204L3.64,17H2l2.139-7h2.077l2.171,7H6.684l-0.54-1.796H4.139z M5.914,14.019l-0.436-1.486
		c-0.124-0.415-0.249-0.934-0.353-1.35H5.104C5,11.6,4.897,12.129,4.783,12.534l-0.415,1.486H5.914z"/>
	<polygon class="st0" points="13.5,1 16,4 11,4 	"/>
	<rect x="13" y="4" class="st0" width="1" height="13"/>
</g>
</svg>
