<?xml version="1.0" encoding="utf-8"?>
<!-- Generator: Adobe Illustrator 22.1.0, SVG Export Plug-In . SVG Version: 6.00 Build 0)  -->
<svg version="1.1" id="toolbar" xmlns="http://www.w3.org/2000/svg" xmlns:xlink="http://www.w3.org/1999/xlink" x="0px" y="0px"
	 width="18px" height="18px" viewBox="0 0 18 18" style="enable-background:new 0 0 18 18;" xml:space="preserve">
<style type="text/css">
	.st0{fill:#FFFFFF;}
	.st1{fill:#808080;}
	.st2{fill:#636F80;}
	.st3{fill-rule:evenodd;clip-rule:evenodd;fill:#FFFFFF;}
	.st4{fill-rule:evenodd;clip-rule:evenodd;fill:#808080;}
	.st5{fill-rule:evenodd;clip-rule:evenodd;fill:#636F80;}
	.st6{fill:#F7931E;}
</style>
<g id="merge-left_disabled">
	<g>
		<path class="st1" d="M10,2v14h6V2H10z M15,15h-4V3h4V15z"/>
		<polygon class="st1" points="7,6 6,6 6,8 4,8 4,9 6,9 6,11 7,11 7,9 9,9 9,8 7,8 		"/>
		<rect x="7" y="2" class="st1" width="2" height="1"/>
		<rect x="4" y="2" class="st1" width="2" height="1"/>
		<rect x="7" y="15" class="st1" width="2" height="1"/>
		<rect x="4" y="15" class="st1" width="2" height="1"/>
		<rect x="2" y="5" class="st1" width="1" height="2"/>
		<rect x="2" y="2" class="st1" width="1" height="2"/>
		<rect x="2" y="8" class="st1" width="1" height="2"/>
		<rect x="2" y="11" class="st1" width="1" height="2"/>
		<rect x="2" y="14" class="st1" width="1" height="2"/>
	</g>
</g>
</svg>
