<?xml version="1.0" encoding="utf-8"?>
<!-- Generator: Adobe Illustrator 22.1.0, SVG Export Plug-In . SVG Version: 6.00 Build 0)  -->
<svg version="1.1" id="toolbar" xmlns="http://www.w3.org/2000/svg" xmlns:xlink="http://www.w3.org/1999/xlink" x="0px" y="0px"
	 width="18px" height="18px" viewBox="0 0 18 18" style="enable-background:new 0 0 18 18;" xml:space="preserve">
<style type="text/css">
	.st0{fill:#FFFFFF;}
	.st1{fill:#808080;}
	.st2{fill:#636F80;}
	.st3{fill-rule:evenodd;clip-rule:evenodd;fill:#FFFFFF;}
	.st4{fill-rule:evenodd;clip-rule:evenodd;fill:#808080;}
	.st5{fill-rule:evenodd;clip-rule:evenodd;fill:#636F80;}
	.st6{fill:#F7931E;}
</style>
<g id="Монтажная_область_4811">
	<path class="st0" d="M9.883,10.493c0.319-0.396,0.702-0.706,1.117-0.946V9H7v2h2.554C9.654,10.827,9.754,10.654,9.883,10.493z"/>
	<g>
		<path class="st0" d="M16.989,16.282l-1.55-1.55c0.833-1.172,0.733-2.803-0.318-3.854C14.536,10.293,13.768,10,13,10
			s-1.536,0.293-2.121,0.879c-1.172,1.172-1.172,3.071,0,4.243C11.464,15.707,12.232,16,13,16c0.609,0,1.214-0.192,1.732-0.561
			l1.55,1.55L16.989,16.282z M13,15c-0.534,0-1.036-0.208-1.414-0.586c-0.78-0.78-0.78-2.049,0-2.828C11.964,11.208,12.466,11,13,11
			s1.036,0.208,1.414,0.586c0.78,0.78,0.78,2.049,0,2.828C14.036,14.792,13.534,15,13,15z"/>
	</g>
	<path class="st0" d="M9.135,12H7v2h2.141C8.973,13.347,8.965,12.66,9.135,12z"/>
	<rect x="2" y="12" class="st0" width="4" height="2"/>
	<rect x="2" y="9" class="st0" width="4" height="2"/>
	<rect x="12" y="6" class="st0" width="4" height="2"/>
	<rect x="7" y="6" class="st0" width="4" height="2"/>
	<rect x="2" y="6" class="st0" width="4" height="2"/>
	<rect x="2" y="2" class="st0" width="14" height="3"/>
</g>
</svg>
