<?xml version="1.0" encoding="utf-8"?>
<!-- Generator: Adobe Illustrator 22.1.0, SVG Export Plug-In . SVG Version: 6.00 Build 0)  -->
<svg version="1.1" id="toolbar" xmlns="http://www.w3.org/2000/svg" xmlns:xlink="http://www.w3.org/1999/xlink" x="0px" y="0px"
	 width="18px" height="18px" viewBox="0 0 18 18" style="enable-background:new 0 0 18 18;" xml:space="preserve">
<style type="text/css">
	.st0{fill:#FFFFFF;}
	.st1{fill:#808080;}
	.st2{fill:#636F80;}
	.st3{fill-rule:evenodd;clip-rule:evenodd;fill:#FFFFFF;}
	.st4{fill-rule:evenodd;clip-rule:evenodd;fill:#808080;}
	.st5{fill-rule:evenodd;clip-rule:evenodd;fill:#636F80;}
	.st6{fill:#F7931E;}
</style>
<g id="merge-right_inverted">
	<g>
		<path class="st0" d="M2,16h6V2H2V16z M3,3h4v12H3V3z"/>
		<polygon class="st0" points="12,6 11,6 11,8 9,8 9,9 11,9 11,11 12,11 12,9 14,9 14,8 12,8 		"/>
		<rect x="9" y="2" class="st0" width="2" height="1"/>
		<rect x="12" y="2" class="st0" width="2" height="1"/>
		<rect x="9" y="15" class="st0" width="2" height="1"/>
		<rect x="12" y="15" class="st0" width="2" height="1"/>
		<rect x="15" y="5" class="st0" width="1" height="2"/>
		<rect x="15" y="2" class="st0" width="1" height="2"/>
		<rect x="15" y="8" class="st0" width="1" height="2"/>
		<rect x="15" y="11" class="st0" width="1" height="2"/>
		<rect x="15" y="14" class="st0" width="1" height="2"/>
	</g>
</g>
</svg>
