<?xml version="1.0" encoding="utf-8"?>
<!DOCTYPE svg PUBLIC "-//W3C//DTD SVG 1.1//EN" "http://www.w3.org/Graphics/SVG/1.1/DTD/svg11.dtd" [
	<!ENTITY st0 "fill:#FFFFFF;">
	<!ENTITY st1 "fill:#808080;">
	<!ENTITY st2 "fill:#636F80;">
	<!ENTITY st3 "opacity:0.2;fill:#FFFFFF;">
	<!ENTITY st4 "opacity:0.2;fill:#636F80;">
	<!ENTITY st5 "opacity:0.2;fill:#808080;">
	<!ENTITY st6 "fill-rule:evenodd;clip-rule:evenodd;fill:#FFFFFF;">
	<!ENTITY st7 "fill-rule:evenodd;clip-rule:evenodd;fill:#808080;">
	<!ENTITY st8 "fill-rule:evenodd;clip-rule:evenodd;fill:#636F80;">
	<!ENTITY st9 "fill:#F7931E;">
]>
<svg version="1.1" id="img" xmlns="http://www.w3.org/2000/svg" xmlns:xlink="http://www.w3.org/1999/xlink" x="0px" y="0px"
	 width="18px" height="18px" viewBox="0 0 18 18" style="enable-background:new 0 0 18 18;" xml:space="preserve">
<g id="unlocked.default">
	<path style="&st2;" d="M13.967,2h-1.935C10.361,2,9,3.36,9,5.033V8H7H5H4.602C4.27,8,4,8.27,4,8.602v6.796
		C4,15.73,4.27,16,4.602,16h8.796C13.73,16,14,15.73,14,15.398V8.602C14,8.27,13.73,8,13.398,8H13h-2V5.127
		C11,4.506,11.506,4,12.127,4h1.746C14.495,4,15,4.506,15,5.127V8h2V5.033C17,3.36,15.64,2,13.967,2z"/>
</g>
</svg>
