<?xml version="1.0" encoding="utf-8"?>
<!DOCTYPE svg PUBLIC "-//W3C//DTD SVG 1.1//EN" "http://www.w3.org/Graphics/SVG/1.1/DTD/svg11.dtd" [
	<!ENTITY st0 "fill:#FFFFFF;">
	<!ENTITY st1 "fill:#808080;">
	<!ENTITY st2 "fill:#636F80;">
	<!ENTITY st3 "opacity:0.2;fill:#FFFFFF;">
	<!ENTITY st4 "opacity:0.2;fill:#636F80;">
	<!ENTITY st5 "opacity:0.2;fill:#808080;">
]>
<svg version="1.1" id="img" xmlns="http://www.w3.org/2000/svg" xmlns:xlink="http://www.w3.org/1999/xlink" x="0px" y="0px"
	 width="18px" height="18px" viewBox="0 0 18 18" style="enable-background:new 0 0 18 18;" xml:space="preserve">
<path id="update-web-service.default" style="&st2;" d="M17,11.5c0,1.8-1.359,3.283-3.108,3.478C13.963,14.663,14,14.336,14,14
	l0-0.05c1.14-0.232,2-1.243,2-2.45c0-0.983-0.584-1.878-1.488-2.281L13.794,8.9l0.14-0.773c0.044-0.245,0.065-0.444,0.065-0.627
	c0-1.93-1.57-3.5-3.5-3.5c-1.51,0-2.841,0.977-3.311,2.431L6.884,7.372L5.94,7.078C5.769,7.025,5.629,7,5.5,7C4.673,7,4,7.673,4,8.5
	c0,0.111,0.02,0.235,0.062,0.392l0.251,0.925L3.4,10.107C2.563,10.373,2,11.134,2,12c0,1.103,0.897,2,2,2h1v1H4
	c-1.657,0-3-1.343-3-3c0-1.34,0.885-2.461,2.097-2.846C3.04,8.944,3,8.728,3,8.5C3,7.119,4.119,6,5.5,6
	c0.258,0,0.503,0.05,0.737,0.123C6.821,4.316,8.498,3,10.5,3C12.985,3,15,5.015,15,7.5c0,0.276-0.034,0.543-0.081,0.806
	C16.143,8.851,17,10.073,17,11.5z M10,11.5c-1.378,0-2.5,1.121-2.5,2.5H6l2,2l2-2H8.5c0-0.827,0.673-1.5,1.5-1.5s1.5,0.673,1.5,1.5
	s-0.673,1.5-1.5,1.5v1c1.378,0,2.5-1.121,2.5-2.5S11.378,11.5,10,11.5z"/>
</svg>
