<?xml version="1.0" encoding="utf-8"?>
<!DOCTYPE svg PUBLIC "-//W3C//DTD SVG 1.1//EN" "http://www.w3.org/Graphics/SVG/1.1/DTD/svg11.dtd" [
	<!ENTITY st0 "fill:#FFFFFF;">
	<!ENTITY st1 "fill:#808080;">
	<!ENTITY st2 "fill:#636F80;">
	<!ENTITY st3 "opacity:0.2;fill:#FFFFFF;">
	<!ENTITY st4 "opacity:0.2;fill:#636F80;">
	<!ENTITY st5 "opacity:0.2;fill:#808080;">
	<!ENTITY st6 "fill-rule:evenodd;clip-rule:evenodd;fill:#FFFFFF;">
	<!ENTITY st7 "fill-rule:evenodd;clip-rule:evenodd;fill:#808080;">
	<!ENTITY st8 "fill-rule:evenodd;clip-rule:evenodd;fill:#636F80;">
	<!ENTITY st9 "fill:#F7931E;">
]>
<svg version="1.1" id="img" xmlns="http://www.w3.org/2000/svg" xmlns:xlink="http://www.w3.org/1999/xlink" x="0px" y="0px"
	 width="18px" height="18px" viewBox="0 0 18 18" style="enable-background:new 0 0 18 18;" xml:space="preserve">
<g id="variable-add-output-port.default">
	<g>
		<path style="&st2;" d="M8.705,7h1.033C8.849,3.551,5.727,1,2,1v16c1.459,0,2.822-0.397,4-1.079v-1.185
			c-0.876,0.613-1.896,1.034-3,1.193V2.071C5.719,2.462,7.935,4.422,8.705,7z"/>
		<path style="&st2;" d="M11.5,8C9.015,8,7,10.015,7,12.5S9.015,17,11.5,17s4.5-2.015,4.5-4.5S13.985,8,11.5,8z M11.5,16
			C9.57,16,8,14.43,8,12.5S9.57,9,11.5,9s3.5,1.57,3.5,3.5S13.43,16,11.5,16z"/>
		<polygon style="&st2;" points="12,11 11,11 11,12 10,12 10,13 11,13 11,14 12,14 12,13 13,13 13,12 12,12 		"/>
	</g>
</g>
</svg>
