<?xml version="1.0" encoding="utf-8"?>
<!DOCTYPE svg PUBLIC "-//W3C//DTD SVG 1.1//EN" "http://www.w3.org/Graphics/SVG/1.1/DTD/svg11.dtd" [
	<!ENTITY st0 "fill:#E3EFFA;">
	<!ENTITY st1 "fill:#71B1E4;">
	<!ENTITY st2 "fill:#5195CA;">
	<!ENTITY st3 "fill:#FFCCCC;">
	<!ENTITY st4 "fill:#E30612;">
	<!ENTITY st5 "fill:#FDE9D2;">
	<!ENTITY st6 "fill:#F7931E;">
	<!ENTITY st7 "fill:#E67300;">
	<!ENTITY st8 "fill:#CCF4D1;">
	<!ENTITY st9 "fill:#39B54A;">
	<!ENTITY st10 "fill:#009B14;">
	<!ENTITY st11 "fill:#EBECEF;">
	<!ENTITY st12 "fill:#757981;">
	<!ENTITY st13 "fill:#48484E;">
	<!ENTITY st14 "fill:#EAECF1;">
	<!ENTITY st15 "fill:#BAC0CF;">
]>
<svg version="1.1" id="img" xmlns="http://www.w3.org/2000/svg" xmlns:xlink="http://www.w3.org/1999/xlink" x="0px" y="0px"
	 width="15px" height="24px" viewBox="0 0 15 24" style="enable-background:new 0 0 15 24;" xml:space="preserve">
<g id="table-no-autosync.error">
	<polyline style="&st3;" points="13,2 3,2 3,22 13,22 	"/>
	<path style="&st4;" d="M5,22H3v-2h2V22z M9,20H7v2h2V20z M13,20h-2v2h2V20z M13,2h-2v2h2V2z M9,2H7v2h2V2z M5,2H3v2h2V2z M5,5H3v2
		h2V5z M5,8H3v2h2V8z M5,11H3v2h2V11z M5,14H3v2h2V14z M5,17H3v2h2V17z"/>
	<g>
		<circle style="&st4;" cx="9" cy="12" r="2"/>
	</g>
	<g>
		<circle style="&st3;" cx="9" cy="12" r="1"/>
	</g>
</g>
</svg>
