<?xml version="1.0" encoding="utf-8"?>
<!DOCTYPE svg PUBLIC "-//W3C//DTD SVG 1.1//EN" "http://www.w3.org/Graphics/SVG/1.1/DTD/svg11.dtd" [
	<!ENTITY st0 "fill:#E3EFFA;">
	<!ENTITY st1 "fill:#71B1E4;">
	<!ENTITY st2 "fill:#5195CA;">
	<!ENTITY st3 "fill:#FFCCCC;">
	<!ENTITY st4 "fill:#E30612;">
	<!ENTITY st5 "fill:#FDE9D2;">
	<!ENTITY st6 "fill:#F7931E;">
	<!ENTITY st7 "fill:#E67300;">
	<!ENTITY st8 "fill:#CCF4D1;">
	<!ENTITY st9 "fill:#39B54A;">
	<!ENTITY st10 "fill:#009B14;">
	<!ENTITY st11 "fill:#EBECEF;">
	<!ENTITY st12 "fill:#757981;">
	<!ENTITY st13 "fill:#48484E;">
	<!ENTITY st14 "fill:#EAECF1;">
	<!ENTITY st15 "fill:#BAC0CF;">
]>
<svg version="1.1" id="img" xmlns="http://www.w3.org/2000/svg" xmlns:xlink="http://www.w3.org/1999/xlink" x="0px" y="0px"
	 width="15px" height="24px" viewBox="0 0 15 24" style="enable-background:new 0 0 15 24;" xml:space="preserve">
<g id="variable-no-autosync.hover">
	<g>
		<path style="&st0;" d="M13,0v24C6.373,24,1,18.627,1,12S6.373,0,13,0z"/>
	</g>
	<path style="&st1;" d="M13,0c-0.656,0-1.319,0.054-1.963,0.16l0.325,1.973C11.899,2.045,12.45,2,13,2V0L13,0L13,0z M9.1,0.648
		c-0.621,0.213-1.227,0.48-1.803,0.791l0.952,1.759c0.48-0.26,0.985-0.481,1.501-0.658L9.1,0.648L9.1,0.648z M5.626,2.533
		C5.107,2.937,4.623,3.383,4.177,3.866l1.47,1.356C6.018,4.82,6.425,4.446,6.856,4.109L5.626,2.533L5.626,2.533z M2.949,5.442
		C2.591,5.989,2.277,6.568,2.011,7.172l1.831,0.805c0.22-0.499,0.483-0.984,0.782-1.442L2.949,5.442L2.949,5.442z M1.362,9.062
		c-0.158,0.628-0.268,1.284-0.322,1.942l1.993,0.164c0.045-0.546,0.135-1.09,0.268-1.618L1.362,9.062L1.362,9.062z M3.034,12.837
		l-1.993,0.165c0.054,0.656,0.162,1.306,0.323,1.942l1.939-0.489C3.17,13.927,3.08,13.383,3.034,12.837L3.034,12.837z M3.843,16.027
		l-1.83,0.806c0.265,0.601,0.58,1.181,0.939,1.73l1.673-1.095C4.327,17.011,4.063,16.526,3.843,16.027L3.843,16.027z M5.651,18.782
		l-1.469,1.357c0.241,0.261,0.493,0.511,0.756,0.75c0.224,0.203,0.455,0.397,0.693,0.583l1.229-1.578
		C6.429,19.558,6.022,19.184,5.651,18.782L5.651,18.782z M8.254,20.805l-0.951,1.76c0.576,0.311,1.182,0.577,1.803,0.79l0.649-1.892
		C9.24,21.286,8.735,21.064,8.254,20.805L8.254,20.805z M11.367,21.868l-0.324,1.974C11.689,23.947,12.345,24,13,24v-2
		C12.452,22,11.903,21.955,11.367,21.868L11.367,21.868z"/>
	<g>
		<circle style="&st2;" cx="9" cy="12" r="2"/>
	</g>
	<circle style="&st0;" cx="9" cy="12" r="1"/>
</g>
</svg>
