<svg xmlns:xlink="http://www.w3.org/1999/xlink" version="1.1" style="font-family:'lucida grande', 'lucida sans unicode', arial, helvetica, sans-serif;font-size:12px;" xmlns="http://www.w3.org/2000/svg" width="1607" height="849"><rect x="0" y="0" width="1607" height="849" fill="#FFFFFF" class=" highcharts-background"/><defs><clipPath id="highcharts-17"><rect x="0" y="0" width="1315" height="794"/></clipPath><clipPath id="highcharts-18"><rect x="0" y="0" width="1315" height="794"/></clipPath></defs><desc>Created with Highstock 4.2.3</desc><g class="highcharts-grid"><path fill="none" d="M 139.5 20 L 139.5 814 M 139.5 20 L 139.5 814" stroke="#D8D8D8" stroke-width="1" opacity="1"/><path fill="none" d="M 249.5 20 L 249.5 814 M 249.5 20 L 249.5 814" stroke="#D8D8D8" stroke-width="1" opacity="1"/><path fill="none" d="M 359.5 20 L 359.5 814 M 359.5 20 L 359.5 814" stroke="#D8D8D8" stroke-width="1" opacity="1"/><path fill="none" d="M 459.5 20 L 459.5 814 M 459.5 20 L 459.5 814" stroke="#D8D8D8" stroke-width="1" opacity="1"/><path fill="none" d="M 569.5 20 L 569.5 814 M 569.5 20 L 569.5 814" stroke="#D8D8D8" stroke-width="1" opacity="1"/><path fill="none" d="M 676.5 20 L 676.5 814 M 676.5 20 L 676.5 814" stroke="#D8D8D8" stroke-width="1" opacity="1"/><path fill="none" d="M 786.5 20 L 786.5 814 M 786.5 20 L 786.5 814" stroke="#D8D8D8" stroke-width="1" opacity="1"/><path fill="none" d="M 892.5 20 L 892.5 814 M 892.5 20 L 892.5 814" stroke="#D8D8D8" stroke-width="1" opacity="1"/><path fill="none" d="M 1002.5 20 L 1002.5 814 M 1002.5 20 L 1002.5 814" stroke="#D8D8D8" stroke-width="1" opacity="1"/><path fill="none" d="M 1112.5 20 L 1112.5 814 M 1112.5 20 L 1112.5 814" stroke="#D8D8D8" stroke-width="1" opacity="1"/><path fill="none" d="M 1219.5 20 L 1219.5 814 M 1219.5 20 L 1219.5 814" stroke="#D8D8D8" stroke-width="1" opacity="1"/><path fill="none" d="M 1329.5 20 L 1329.5 814 M 1329.5 20 L 1329.5 814" stroke="#D8D8D8" stroke-width="1" opacity="1"/></g><g class="highcharts-grid"><path fill="none" d="M 67 807.5 L 1382 807.5" stroke="#D8D8D8" stroke-width="1" opacity="1"/><path fill="none" d="M 67 733.5 L 1382 733.5" stroke="#D8D8D8" stroke-width="1" opacity="1"/><path fill="none" d="M 67 659.5 L 1382 659.5" stroke="#D8D8D8" stroke-width="1" opacity="1"/><path fill="none" d="M 67 585.5 L 1382 585.5" stroke="#D8D8D8" stroke-width="1" opacity="1"/><path fill="none" d="M 67 511.5 L 1382 511.5" stroke="#D8D8D8" stroke-width="1" opacity="1"/><path fill="none" d="M 67 436.5 L 1382 436.5" stroke="#D8D8D8" stroke-width="1" opacity="1"/><path fill="none" d="M 67 362.5 L 1382 362.5" stroke="#D8D8D8" stroke-width="1" opacity="1"/><path fill="none" d="M 67 288.5 L 1382 288.5" stroke="#D8D8D8" stroke-width="1" opacity="1"/><path fill="none" d="M 67 214.5 L 1382 214.5" stroke="#D8D8D8" stroke-width="1" opacity="1"/><path fill="none" d="M 67 140.5 L 1382 140.5" stroke="#D8D8D8" stroke-width="1" opacity="1"/><path fill="none" d="M 67 66.5 L 1382 66.5" stroke="#D8D8D8" stroke-width="1" opacity="1"/></g><g class="highcharts-grid"/><g class="highcharts-axis"><path fill="none" d="M 139.5 814 L 139.5 824" stroke="#C0D0E0" stroke-width="1" opacity="1"/><path fill="none" d="M 249.5 814 L 249.5 824" stroke="#C0D0E0" stroke-width="1" opacity="1"/><path fill="none" d="M 359.5 814 L 359.5 824" stroke="#C0D0E0" stroke-width="1" opacity="1"/><path fill="none" d="M 459.5 814 L 459.5 824" stroke="#C0D0E0" stroke-width="1" opacity="1"/><path fill="none" d="M 569.5 814 L 569.5 824" stroke="#C0D0E0" stroke-width="1" opacity="1"/><path fill="none" d="M 676.5 814 L 676.5 824" stroke="#C0D0E0" stroke-width="1" opacity="1"/><path fill="none" d="M 786.5 814 L 786.5 824" stroke="#C0D0E0" stroke-width="1" opacity="1"/><path fill="none" d="M 892.5 814 L 892.5 824" stroke="#C0D0E0" stroke-width="1" opacity="1"/><path fill="none" d="M 1002.5 814 L 1002.5 824" stroke="#C0D0E0" stroke-width="1" opacity="1"/><path fill="none" d="M 1112.5 814 L 1112.5 824" stroke="#C0D0E0" stroke-width="1" opacity="1"/><path fill="none" d="M 1219.5 814 L 1219.5 824" stroke="#C0D0E0" stroke-width="1" opacity="1"/><path fill="none" d="M 1329.5 814 L 1329.5 824" stroke="#C0D0E0" stroke-width="1" opacity="1"/><path fill="none" d="M 67 814.5 L 1382 814.5" stroke="#C0D0E0" stroke-width="1"/></g><g class="highcharts-axis"><text x="28.046875" text-anchor="middle" transform="translate(0,0) rotate(270 28.046875 417)" class=" highcharts-yaxis-title" style="color:#707070;fill:#707070;" y="417"><tspan>Цена, USD, Цена, USD_smoothed</tspan></text></g><g class="highcharts-axis"/><g class="highcharts-series-group"><g class="highcharts-series highcharts-series-1" transform="translate(67,20) scale(1 1)" clip-path="url(#highcharts-18)"><path fill="none" d="M 12.892156862745098 690.0304818232933 L 16.443715227137687 675.7760954709769 L 19.995273591530278 661.841252707536 L 23.546831955922865 648.200214827522 L 27.098390320315456 634.8546317085364 L 37.753065413493225 622.0143945614122 L 41.30462377788581 609.923698692696 L 44.8561821422784 598.2154079079312 L 48.40774050667099 586.0245544084476 L 51.95929887106358 572.1757887872282 L 62.613973964241346 555.7015663753648 L 66.16553232863393 536.6250492832721 L 69.71709069302652 515.4322883374798 L 73.26864905741911 493.90369910560327 L 76.8202074218117 473.74828532183807 L 83.92332415059688 456.01155503255643 L 87.47488251498947 440.98449578923004 L 91.02644087938206 428.5290831892568 L 94.57799924377466 418.19151615890905 L 98.12955760816723 409.4378770077807 L 101.68111597255982 402.0797142915929 L 112.3357910657376 396.00604023266834 L 115.88734943013019 391.1161781710592 L 119.43890779452278 386.976814431776 L 122.99046615891537 382.9523746262648 L 126.54202452330794 378.8056504629895 L 133.64514125209314 374.54916406712476 L 137.19669961648572 370.07924681787966 L 140.74825798087832 365.2297148053008 L 144.2998163452709 359.90174921457515 L 147.85137470966347 353.93832569158764 L 151.40293307405608 347.55155062460346 L 165.60916653162644 341.2452647344112 L 169.16072489601902 335.81224726792425 L 172.71228326041162 331.70471856975695 L 176.2638416248042 329.20718324723265 L 186.91851671798196 328.35899246702314 L 190.47007508237456 329.0533899273356 L 194.02163344676714 331.020069049079 L 197.57319181115975 334.28487390074406 L 201.12475017555232 338.8131110908912 L 208.2278669043375 344.3176498888593 L 211.77942526873008 350.26919281708786 L 215.33098363312268 355.75975258227555 L 218.88254199751526 360.2393957999764 L 222.43410036190787 363.9020575797921 L 225.98565872630044 367.0111448319882 L 236.6403338194782 369.5740342357305 L 240.1918921838708 371.5035649758751 L 243.74345054826338 372.55907807039506 L 247.295008912656 372.40489521289305 L 250.84656727704856 371.05159441734537 L 257.9496840058338 368.87236597046905 L 261.50124237022635 366.14249347829923 L 265.0528007346189 363.0204073102265 L 268.6043590990115 359.6601645357304 L 272.1559174634041 356.3204439359729 L 275.7074758277967 353.2166754150785 L 282.81059255658187 350.2581547302696 L 286.36215092097444 347.37536365293835 L 289.9137092853671 344.6310328563546 L 293.46526764975965 342.2897086668708 L 297.01682601415223 340.7822363457676 L 300.5683843785448 340.321784926839 L 307.67150110733 340.8633689753787 L 311.2230594717226 342.115860164267 L 314.77461783611517 343.46620434546685 L 318.32617620050775 344.34465679485925 L 321.8777345649004 344.6668130770699 L 325.42929292929296 344.63964797356016 L 332.5324096580781 344.54348912480555 L 336.0839680224707 344.4100814888314 L 339.6355263868633 343.9902171511661 L 343.1870847512559 343.14023661982 L 346.7386431156485 341.7743780353865 L 350.29020148004105 339.914015816788 L 357.39331820882626 337.65687687573984 L 360.94487657321883 335.22897601747076 L 364.4964349376114 332.9849661444447 L 368.047993302004 331.2953866198566 L 371.5995516663966 330.37651975705194 L 375.1511100307892 330.48505610029156 L 382.25422675957435 331.82358422682734 L 385.805785123967 334.69875721424535 L 389.35734348835956 339.39309789980285 L 392.90890185275214 346.10661890296905 L 396.4604602171447 354.9024721566727 L 400.0120185815373 365.70277372338995 L 407.1151353103225 378.66358663114426 L 410.6666936747151 393.8150777533546 L 414.21825203910765 410.8578390607949 L 417.7698104035003 429.00026211752345 L 421.32136876789286 446.91403052005165 L 424.87292713228544 463.45635721815466 L 431.9760438610706 477.7797222448113 L 435.5276022254632 489.57754138448166 L 439.0791605898558 499.0446313893922 L 442.6307189542484 506.633311735896 L 446.18227731864096 512.7698536460637 L 449.7338356830336 517.7193367890454 L 456.83695241181874 521.620575666626 L 460.3885107762113 524.4625494984307 L 463.9400691406039 526.0416863022027 L 467.49162750499653 525.9186290316891 L 471.0431858693891 523.7246514011058 L 474.5947442337817 519.225848483962 L 481.6978609625669 512.4080365154875 L 485.24941932695947 503.3513784981832 L 488.80097769135205 492.24300935728246 L 492.3525360557446 479.5342660779917 L 495.9040944201372 465.8740019113827 L 499.45565278452983 451.8171748100309 L 506.558769513315 437.76886646037144 L 510.11032787770756 423.9211563515576 L 513.6618862421002 410.44545429223433 L 517.2134446064928 397.77171168765966 L 520.7650029708853 386.2935689702978 L 524.3165613352779 376.5876812995735 L 531.4196780640631 369.1988857346474 L 534.9712364284557 364.6039329969854 L 538.5227947928483 363.2261189308376 L 542.0743531572409 365.2664292356148 L 545.6259115216335 370.60991520905014 L 556.2805866148112 379.0534272176841 L 559.8321449792038 390.24477277523386 L 563.3837033435964 403.5871708296634 L 566.935261707989 418.1977053956233 L 570.4868200723816 433.0183346164938 L 574.0383784367742 447.3141998037246 L 581.1414951655594 460.55875092316086 L 584.693053529952 472.6389198523079 L 588.2446118943445 483.66712190491177 L 591.7961702587371 494.0789624676159 L 595.3477286231297 504.2229689726262 L 598.8992869875223 514.3860960752734 L 606.0024037163075 524.6922855889643 L 609.5539620807001 535.0674987712216 L 613.1055204450927 545.1514685523405 L 616.6570788094853 554.3383851105502 L 620.2086371738778 561.7982726954939 L 623.7601955382704 566.574000541009 L 630.8633122670556 568.347385514537 L 634.4148706314483 566.9766393724614 L 637.9664289958408 562.4860419722675 L 641.5179873602334 555.0796487339642 L 645.069545724626 545.3565590377066 L 648.6211040890186 533.9072246638502 L 655.7242208178037 521.2292076734492 L 659.2757791821963 507.7898243187206 L 662.8273375465889 494.208478177172 L 666.3788959109816 481.00588676652796 L 669.9304542753741 468.95099627019613 L 673.4820126397667 458.874503789823 L 680.5851293685519 451.6375614813776 L 684.1366877329444 447.7510824566808 L 687.688246097337 447.3703360565754 L 691.2398044617296 450.4338079767781 L 694.7913628261222 456.51145943205216 L 698.3429211905149 464.88519836545146 L 705.4460379193 475.3102868042863 L 708.9975962836926 487.58347156165115 L 712.5491546480852 501.4239192282428 L 716.1007130124777 516.372705510478 L 719.6522713768703 531.7914413989129 L 723.2038297412629 547.1609125501611 L 730.3069464700482 562.1416967230093 L 733.8585048344407 576.5871279595768 L 737.4100631988333 590.3934887435862 L 740.9616215632259 603.5296216425671 L 744.5131799276185 615.7173926835529 L 748.064738292011 626.9558550019333 L 755.1678550207962 637.5215876523371 L 758.7194133851888 647.697059154674 L 762.2709717495815 657.6538595747828 L 765.822530113974 667.3731669950994 L 769.3740884783666 676.5609936342495 L 772.9256468427592 685.0435623889653 L 780.0287635715443 692.716167408126 L 783.5803219359369 699.2805789196923 L 787.1318803003295 704.1757242424102 L 790.6834386647221 706.6749990324204 L 794.2349970291148 706.1965583320145 L 797.7865553935073 702.67089810225 L 804.8896721222925 696.3567595515934 L 808.4412304866851 687.7578727478743 L 811.9927888510776 677.5490673587038 L 815.5443472154702 666.6030050243409 L 819.0959055798628 655.973754421238 L 822.6474639442554 646.5618281715922 L 829.7505806730406 639.2797318445499 L 833.3021390374332 634.6127747621516 L 836.8536974018258 632.6992980244991 L 840.4052557662184 633.125503976097 L 843.956814130611 634.9149627256419 L 847.5083724950035 637.0206232335763 L 854.6114892237887 638.4439493696774 L 858.1630475881814 638.610141119443 L 861.714605952574 637.3613083846298 L 865.2661643169665 634.9140702253225 L 868.8177226813591 631.4609512520242 L 872.3692810457517 627.3392917142331 L 879.4723977745368 622.8213456475875 L 883.0239561389294 617.8888432409678 L 886.575514503322 612.3003914828548 L 890.1270728677147 605.8852322279809 L 893.6786312321073 598.4769101936193 L 897.2301895964998 589.6552173596332 L 904.333306325285 578.9276785863159 L 907.8848646896776 566.3066346279059 L 911.4364230540701 552.3905928036799 L 914.9879814184627 538.2385973330565 L 918.5395397828553 524.7205376618563 L 922.091098147248 512.5957083908871 L 929.1942148760331 502.4183709538627 L 932.7457732404257 494.4034582746819 L 936.2973316048183 488.4876093013677 L 939.8488899692109 484.316729859151 L 943.4004483336034 481.753278384947 L 946.952006697996 480.6142851840189 L 954.0551234267813 480.8303140588577 L 957.6066817911739 482.2605651009312 L 961.1582401555664 484.7055285257306 L 964.709798519959 487.93712453372854 L 968.2613568843516 491.7890631355251 L 971.8129152487442 495.81713512306396 L 978.9160319775293 499.6310457784416 L 982.4675903419219 502.76895294222277 L 986.0191487063145 504.6593279068842 L 989.5707070707072 505.1191812707802 L 993.1222654350997 504.1944250124621 L 996.6738237994923 502.377485813935 L 1003.7769405282775 500.4684113853101 L 1007.32849889267 498.8301124814482 L 1010.8800572570626 497.4296748319343 L 1014.4316156214552 496.2621305344245 L 1017.9831739858478 495.37557302398795 L 1021.5347323502405 494.56803238547764 L 1028.6378490790255 493.54077863561787 L 1032.189407443418 491.98787481025016 L 1035.7409658078109 489.44349414011054 L 1039.2925241722035 485.57151037925394 L 1042.844082536596 480.1946451427033 L 1046.3956409009886 473.67761612224854 L 1053.4987576297738 466.20316423967296 L 1057.0503159941663 457.8668521845456 L 1060.601874358559 448.84439720675243 L 1064.1534327229515 439.56391897980865 L 1067.704991087344 430.42951458675674 L 1071.2565494517366 421.5511172695042 L 1078.3596661805218 412.7136239514618 L 1081.9112245449144 403.74344403183653 L 1085.462782909307 394.5413213545865 L 1089.0143412736995 385.16092541477417 L 1092.565899638092 375.77124900214864 L 1096.1174580024847 366.45412968468366 L 1103.22057473127 357.2240759537363 L 1106.7721330956626 348.04736779825646 L 1110.3236914600552 338.92324664925246 L 1113.8752498244478 330.0016071779821 L 1117.4268081888404 321.6890526312373 L 1120.978366553233 314.4492358120917 L 1128.081483282018 308.78598928976413 L 1131.6330416464107 305.1490646751386 L 1135.1846000108033 303.99817214788317 L 1138.7361583751958 305.2319706270796 L 1142.2877167395884 308.38104971296036 L 1145.839275103981 312.85854239944564 L 1152.9423918327661 317.94715193802585 L 1156.4939501971587 323.02843820106995 L 1160.0455085615513 327.4615644984196 L 1163.597066925944 330.7732142263979 L 1167.1486252903367 332.74288318802553 L 1170.7001836547292 333.3623560338432 L 1177.8033003835144 332.35306820376206 L 1181.354858747907 329.64507375283017 L 1184.9064171122996 325.3982488223783 L 1188.4579754766921 319.98492921315 L 1192.0095338410847 313.743503220638 L 1195.5610922054773 306.9881024598003 L 1202.6642089342624 300.1710114605868 L 1206.215767298655 293.653939199686 L 1209.7673256630476 287.5724958083637 L 1213.3188840274402 281.838403268952 L 1216.8704423918327 276.1299427607423 L 1220.4220007562253 269.91596380684723 L 1227.5251174850107 262.83517607178203 L 1231.0766758494033 254.53237376315735 L 1234.6282342137958 244.71442938523842 L 1238.1797925781884 233.4740512736688 L 1241.731350942581 220.94353932545778 L 1245.2829093069736 207.51459117759453 L 1252.3860260357587 193.60066129359973 L 1255.9375844001513 179.4046008811256 L 1259.4891427645439 164.9948371646749 L 1263.0407011289365 150.3917810255016 L 1266.592259493329 135.47119512713914 L 1270.1438178577216 120.36576811222187 L 1277.2469345865068 105.5661745591417 L 1280.7984929508993 91.53511726469594 L 1284.350051315292 78.75532784401685 L 1287.9016096796845 67.15509583049777 L 1291.4531680440773 56.45087136500024 L 1295.0047264084699 46.33733813495644 L 1302.107843137255 36.43150025730006" stroke="rgb(40,167,216)" stroke-opacity="1" stroke-width="3" stroke-linejoin="round" stroke-linecap="round"/></g><g class="highcharts-markers highcharts-series-1" transform="translate(67,20) scale(1 1)" clip-path="none"/><g class="highcharts-series highcharts-series-0" transform="translate(67,20) scale(1 1)" clip-path="url(#highcharts-18)"><path fill="none" d="M 12.892156862745098 721.9848407108541 L 16.443715227137687 641.247866038528 L 19.995273591530278 664.5801110126407 L 23.546831955922865 669.0243481505668 L 27.098390320315456 638.2850412799106 L 37.753065413493225 560.8812444610289 L 41.30462377788581 560.1405382713748 L 44.8561821422784 567.1772470730912 L 48.40774050667099 606.8050282195999 L 51.95929887106358 671.24646671953 L 62.613973964241346 601.9904379868465 L 66.16553232863393 666.0615233919494 L 69.71709069302652 508.2911049955688 L 73.26864905741911 427.55413032324265 L 76.8202074218117 398.29623583189516 L 83.92332415059688 413.11035962498244 L 87.47488251498947 409.4068286767108 L 91.02644087938206 420.5174215215262 L 94.57799924377466 452.73814077149115 L 98.12955760816723 417.1842436680817 L 101.68111597255982 403.1108260646486 L 112.3357910657376 362.74233872848544 L 115.88734943013019 370.8901068146837 L 119.43890779452278 426.81342413358846 L 122.99046615891537 407.92541629740214 L 126.54202452330794 367.18657586641183 L 133.64514125209314 368.2976351508934 L 137.19669961648572 376.8157563319185 L 140.74825798087832 359.4091608750409 L 144.2998163452709 396.81482345258644 L 147.85137470966347 383.1117589439807 L 151.40293307405608 376.4454032370914 L 165.60916653162644 307.1893745044078 L 169.16072489601902 319.04067353887774 L 172.71228326041162 307.1893745044078 L 176.2638416248042 314.59643640095163 L 186.91851671798196 312.0039647371613 L 190.47007508237456 358.66845468538645 L 194.02163344676714 324.9663230561128 L 197.57319181115975 309.0411399785439 L 201.12475017555232 314.59643640095163 L 208.2278669043375 306.4486683147536 L 211.77942526873008 386.07458370259815 L 215.33098363312268 430.14660198703297 L 218.88254199751526 367.18657586641183 L 222.43410036190787 338.2990344698914 L 225.98565872630044 357.55739540090485 L 236.6403338194782 354.22421754746034 L 240.1918921838708 362.0016325388312 L 243.74345054826338 407.18471010774766 L 247.295008912656 408.6661224870563 L 250.84656727704856 361.2609263491767 L 257.9496840058338 357.18704230607773 L 261.50124237022635 365.7051634871031 L 265.0528007346189 373.482578478474 L 268.6043590990115 355.33527683194194 L 272.1559174634041 325.70702924576705 L 275.7074758277967 355.33527683194194 L 282.81059255658187 363.4830449181399 L 286.36215092097444 367.55692896123895 L 289.9137092853671 361.2609263491767 L 293.46526764975965 320.5220859181864 L 297.01682601415223 314.9667894957787 L 300.5683843785448 315.70749568543323 L 307.67150110733 308.6707868837168 L 311.2230594717226 346.44680255608944 L 314.77461783611517 392.0002332198332 L 318.32617620050775 373.482578478474 L 321.8777345649004 352.00209897849714 L 325.42929292929296 319.7813797285322 L 332.5324096580781 316.4482018750874 L 336.0839680224707 354.9649237371148 L 339.6355263868633 349.77998040953423 L 343.1870847512559 353.8538644526332 L 346.7386431156485 349.4096273147068 L 350.29020148004105 352.7428051681516 L 357.39331820882626 350.5206865991884 L 360.94487657321883 336.8176220905827 L 364.4964349376114 317.559261159569 L 368.047993302004 335.336209711274 L 371.5995516663966 324.9663230561128 L 375.1511100307892 340.89150613368173 L 382.25422675957435 329.4105601940389 L 385.805785123967 326.4477354354215 L 389.35734348835956 325.70702924576705 L 392.90890185275214 332.0030318578292 L 396.4604602171447 378.29716871122724 L 400.0120185815373 353.11315826297874 L 407.1151353103225 345.7060963664352 L 410.6666936747151 344.5950370819536 L 414.21825203910765 357.18704230607773 L 417.7698104035003 447.55319744391085 L 421.32136876789286 476.440738840431 L 424.87292713228544 517.5499323662484 L 431.9760438610706 527.9198190214096 L 435.5276022254632 515.3278137972854 L 439.0791605898558 496.4398059610989 L 442.6307189542484 490.51415644386407 L 446.18227731864096 500.14333690937076 L 449.7338356830336 502.7358085731611 L 456.83695241181874 502.36545547833396 L 460.3885107762113 500.88404309902523 L 463.9400691406039 533.1047623489901 L 467.49162750499653 539.4007649610523 L 471.0431858693891 545.6967675731146 L 474.5947442337817 528.660525211064 L 481.6978609625669 523.1052287886564 L 485.24941932695947 529.7715844955457 L 488.80097769135205 511.99463594384065 L 492.3525360557446 470.144736228369 L 495.9040944201372 450.88637529735536 L 499.45565278452983 430.5169550818603 L 506.558769513315 435.7018984094409 L 510.11032787770756 449.77531601287376 L 513.6618862421002 406.81435701292054 L 517.2134446064928 416.0731843836001 L 520.7650029708853 383.1117589439807 L 524.3165613352779 369.7790475302021 L 531.4196780640631 363.85339801296703 L 534.9712364284557 342.3729185129904 L 538.5227947928483 331.6326787630021 L 542.0743531572409 356.4463361164235 L 545.6259115216335 355.705629926769 L 556.2805866148112 354.5945706422874 L 559.8321449792038 361.6312794440041 L 563.3837033435964 386.07458370259815 L 566.935261707989 450.51602220252823 L 570.4868200723816 453.84920005597274 L 574.0383784367742 488.6623909697282 L 581.1414951655594 483.1070945473203 L 584.693053529952 504.9579271421243 L 588.2446118943445 474.95932646112226 L 591.7961702587371 487.92168478007375 L 595.3477286231297 487.92168478007375 L 598.8992869875223 494.58804048696305 L 606.0024037163075 496.0694528662718 L 609.5539620807001 510.513223564532 L 613.1055204450927 522.734875693829 L 616.6570788094853 541.6228835300155 L 620.2086371738778 625.6930360557863 L 623.7601955382704 584.2134894351417 L 630.8633122670556 584.954195624796 L 634.4148706314483 584.954195624796 L 637.9664289958408 601.9904379868465 L 641.5179873602334 554.2148887541397 L 645.069545724626 536.0675871076076 L 648.6211040890186 530.8826437800273 L 655.7242208178037 536.4379402024349 L 659.2757791821963 497.92121834040785 L 662.8273375465889 519.0313447455574 L 666.3788959109816 487.1809785904193 L 669.9304542753741 471.9965017025049 L 673.4820126397667 423.850599374971 L 680.5851293685519 416.0731843836001 L 684.1366877329444 426.0727179439339 L 687.688246097337 410.5178879611924 L 691.2398044617296 421.6284808060078 L 694.7913628261222 503.8468678576427 L 698.3429211905149 469.03367694388743 L 705.4460379193 467.55226456457876 L 708.9975962836926 469.7743831335417 L 712.5491546480852 483.47744764214764 L 716.1007130124777 528.2901721162369 L 719.6522713768703 549.7706516162136 L 723.2038297412629 566.4365408834367 L 730.3069464700482 566.4365408834367 L 733.8585048344407 583.8431363403146 L 737.4100631988333 565.6958346937824 L 740.9616215632259 631.2483324781939 L 744.5131799276185 643.4699846074911 L 748.064738292011 627.5448015299223 L 755.1678550207962 626.4337422454407 L 758.7194133851888 628.6558608144036 L 762.2709717495815 630.1372731937126 L 765.822530113974 679.394234805728 L 769.3740884783666 683.468118848827 L 772.9256468427592 665.691170297122 L 780.0287635715443 666.4318764867766 L 783.5803219359369 682.7274126591725 L 787.1318803003295 718.6516628574093 L 790.6834386647221 757.909090909091 L 794.2349970291148 739.0210830729046 L 797.7865553935073 727.1697840384347 L 804.8896721222925 713.466719529829 L 808.4412304866851 707.5410700125939 L 811.9927888510776 695.689770978124 L 815.5443472154702 651.2473995988621 L 819.0959055798628 657.1730491160969 L 822.6474639442554 603.8422034609825 L 829.7505806730406 604.5829096506367 L 833.3021390374332 579.3988992023882 L 836.8536974018258 576.4360744437708 L 840.4052557662184 626.0633891506134 L 843.956814130611 639.7664536592193 L 847.5083724950035 679.394234805728 L 854.6114892237887 680.1349409953822 L 858.1630475881814 676.0610569522833 L 861.714605952574 634.9518634264658 L 865.2661643169665 649.395634124726 L 868.8177226813591 624.952329866132 L 872.3692810457517 598.2869070385746 L 879.4723977745368 600.5090256075378 L 883.0239561389294 624.952329866132 L 886.575514503322 612.7306777368347 L 890.1270728677147 580.5099584868698 L 893.6786312321073 591.2501982368581 L 897.2301895964998 640.1368067540463 L 904.333306325285 637.5443350902561 L 907.8848646896776 612.3603246420076 L 911.4364230540701 533.4751154438172 L 914.9879814184627 527.1791128317553 L 918.5395397828553 504.2172209524698 L 922.091098147248 478.6628574093942 L 929.1942148760331 474.58897336629514 L 932.7457732404257 465.33014599561557 L 936.2973316048183 510.14287046970486 L 939.8488899692109 479.7739166938758 L 943.4004483336034 493.1066281076544 L 946.952006697996 473.47791408181354 L 954.0551234267813 474.95932646112226 L 957.6066817911739 479.40356359904865 L 961.1582401555664 490.8845095386912 L 964.709798519959 460.1452026680349 L 968.2613568843516 497.1805121507534 L 971.8129152487442 488.6623909697282 L 978.9160319775293 488.6623909697282 L 982.4675903419219 541.6228835300155 L 986.0191487063145 527.5494659265825 L 989.5707070707072 549.7706516162136 L 993.1222654350997 534.9565278231262 L 996.6738237994923 458.66379028872626 L 1003.7769405282775 460.88590885768946 L 1007.32849889267 501.6247492886795 L 1010.8800572570626 502.7358085731611 L 1014.4316156214552 471.2557955128504 L 1017.9831739858478 485.69956621111055 L 1021.5347323502405 493.84733429730886 L 1028.6378490790255 477.5517981249126 L 1032.189407443418 504.9579271421243 L 1035.7409658078109 505.3282802369514 L 1039.2925241722035 539.7711180558795 L 1042.844082536596 461.9969681421708 L 1046.3956409009886 464.95979290078844 L 1053.4987576297738 474.21862027146807 L 1057.0503159941663 483.1070945473203 L 1060.601874358559 446.44213815942925 L 1064.1534327229515 410.14753486636505 L 1067.704991087344 397.92588273706804 L 1071.2565494517366 425.70236484910686 L 1078.3596661805218 420.14706842669915 L 1081.9112245449144 419.03600914221755 L 1085.462782909307 406.07365082326606 L 1089.0143412736995 376.4454032370914 L 1092.565899638092 369.0383413405476 L 1096.1174580024847 361.6312794440041 L 1103.22057473127 360.5202201595225 L 1106.7721330956626 363.1126918233128 L 1110.3236914600552 364.5941042026215 L 1113.8752498244478 335.7065628061011 L 1117.4268081888404 325.70702924576705 L 1120.978366553233 309.0411399785439 L 1128.081483282018 309.7818461681981 L 1131.6330416464107 249.0439386165399 L 1135.1846000108033 267.191240263072 L 1138.7361583751958 293.4863099958021 L 1142.2877167395884 295.3380754699379 L 1145.839275103981 322.7442044871496 L 1152.9423918327661 315.70749568543323 L 1156.4939501971587 339.78044684920013 L 1160.0455085615513 352.7428051681516 L 1163.597066925944 352.00209897849714 L 1167.1486252903367 305.70796212509913 L 1170.7001836547292 354.22421754746034 L 1177.8033003835144 355.33527683194194 L 1181.354858747907 350.89103969401555 L 1184.9064171122996 322.0034982974954 L 1188.4579754766921 317.559261159569 L 1192.0095338410847 327.5587947199031 L 1195.5610922054773 297.9305471337282 L 1202.6642089342624 277.5611269182332 L 1206.215767298655 271.26512430617106 L 1209.7673256630476 264.2284155044546 L 1213.3188840274402 260.8952376510098 L 1216.8704423918327 293.115956900975 L 1220.4220007562253 270.5244181165168 L 1227.5251174850107 269.0430057372081 L 1231.0766758494033 293.115956900975 L 1234.6282342137958 248.67358552171277 L 1238.1797925781884 259.41382527170106 L 1241.731350942581 223.11922197863714 L 1245.2829093069736 186.45426559074588 L 1252.3860260357587 180.15826297868364 L 1255.9375844001513 174.602966556276 L 1259.4891427645439 150.53001539250909 L 1263.0407011289365 176.0843789355847 L 1266.592259493329 171.26978870283142 L 1270.1438178577216 117.56858995288962 L 1277.2469345865068 107.56905639255558 L 1280.7984929508993 36.09090909090935 L 1284.350051315292 57.57138859088593 L 1287.9016096796845 64.97845048742943 L 1291.4531680440773 48.682914315033486 L 1295.0047264084699 63.86739120294783 L 1302.107843137255 57.20103549605858" stroke="rgb(221,126,14)" stroke-opacity="0.8313725590705872" stroke-width="3" stroke-linejoin="round" stroke-linecap="round"/></g><g class="highcharts-markers highcharts-series-0" transform="translate(67,20) scale(1 1)" clip-path="none"/></g><g class="highcharts-legend" transform="translate(1390,406)"><g><g><g class="highcharts-legend-item" transform="translate(8,3)"><path fill="none" d="M 0 11 L 16 11" stroke="rgb(221,126,14)" stroke-opacity="0.8313725590705872" stroke-width="3"/><path fill="rgb(221,126,14)" fill-opacity="0.8313725590705872" d="M 8 7 C 13.328 7 13.328 15 8 15 C 2.6719999999999997 15 2.6719999999999997 7 8 7 Z" style="cursor: pointer"/><text x="21" style="color:#333333;font-size:12px;font-weight:bold;cursor:text;fill:#333333;" text-anchor="start" y="15" class="undefined" visibility="visible"><tspan>Цена, USD</tspan></text></g><g class="highcharts-legend-item" transform="translate(8,21)"><path fill="none" d="M 0 11 L 16 11" stroke="rgb(40,167,216)" stroke-opacity="1" stroke-width="3"/><path fill="rgb(40,167,216)" fill-opacity="1" d="M 8 7 L 12 11 8 15 4 11 Z" style="cursor: pointer"/><text x="21" y="15" style="color:#333333;font-size:12px;font-weight:bold;cursor:text;fill:#333333;" text-anchor="start" class="undefined" visibility="visible"><tspan>Цена, USD_smoothed</tspan></text></g></g></g></g><g class="highcharts-axis-labels highcharts-xaxis-labels"><text x="140.2686490574191" style="color:#606060;cursor:default;font-size:11px;fill:#606060;width:115px;text-overflow:clip;" text-anchor="middle" transform="translate(0,0)" y="833" opacity="1"><tspan>дек. '16</tspan></text><text x="250.36695835358938" style="color:#606060;cursor:default;font-size:11px;fill:#606060;width:115px;text-overflow:clip;" text-anchor="middle" transform="translate(0,0)" y="833" opacity="1"><tspan>янв. '17</tspan></text><text x="360.46526764975965" style="color:#606060;cursor:default;font-size:11px;fill:#606060;width:115px;text-overflow:clip;" text-anchor="middle" transform="translate(0,0)" y="833" opacity="1"><tspan>февр. '17</tspan></text><text x="459.90890185275214" style="color:#606060;cursor:default;font-size:11px;fill:#606060;width:115px;text-overflow:clip;" text-anchor="middle" transform="translate(0,0)" y="833" opacity="1"><tspan>март '17</tspan></text><text x="570.0072111489224" style="color:#606060;cursor:default;font-size:11px;fill:#606060;width:115px;text-overflow:clip;" text-anchor="middle" transform="translate(0,0)" y="833" opacity="1"><tspan>апр. '17</tspan></text><text x="676.5539620807001" style="color:#606060;cursor:default;font-size:11px;fill:#606060;width:115px;text-overflow:clip;" text-anchor="middle" transform="translate(0,0)" y="833" opacity="1"><tspan>май '17</tspan></text><text x="786.6522713768703" style="color:#606060;cursor:default;font-size:11px;fill:#606060;width:115px;text-overflow:clip;" text-anchor="middle" transform="translate(0,0)" y="833" opacity="1"><tspan>июнь '17</tspan></text><text x="893.1990223086481" style="color:#606060;cursor:default;font-size:11px;fill:#606060;width:115px;text-overflow:clip;" text-anchor="middle" transform="translate(0,0)" y="833" opacity="1"><tspan>июль '17</tspan></text><text x="1003.2973316048183" style="color:#606060;cursor:default;font-size:11px;fill:#606060;width:115px;text-overflow:clip;" text-anchor="middle" transform="translate(0,0)" y="833" opacity="1"><tspan>авг. '17</tspan></text><text x="1113.3956409009886" style="color:#606060;cursor:default;font-size:11px;fill:#606060;width:115px;text-overflow:clip;" text-anchor="middle" transform="translate(0,0)" y="833" opacity="1"><tspan>сент. '17</tspan></text><text x="1219.9423918327661" style="color:#606060;cursor:default;font-size:11px;fill:#606060;width:115px;text-overflow:clip;" text-anchor="middle" transform="translate(0,0)" y="833" opacity="1"><tspan>окт. '17</tspan></text><text x="1330.0407011289365" style="color:#606060;cursor:default;font-size:11px;fill:#606060;width:115px;text-overflow:clip;" text-anchor="middle" transform="translate(0,0)" y="833" opacity="1"><tspan>нояб. '17</tspan></text></g><g class="highcharts-axis-labels highcharts-yaxis-labels"><text x="52" style="color:#606060;cursor:default;font-size:11px;fill:#606060;width:520px;text-overflow:clip;" text-anchor="end" transform="translate(0,0)" y="809" opacity="1">44</text><text x="52" style="color:#606060;cursor:default;font-size:11px;fill:#606060;width:520px;text-overflow:clip;" text-anchor="end" transform="translate(0,0)" y="735" opacity="1">46</text><text x="52" style="color:#606060;cursor:default;font-size:11px;fill:#606060;width:520px;text-overflow:clip;" text-anchor="end" transform="translate(0,0)" y="661" opacity="1">48</text><text x="52" style="color:#606060;cursor:default;font-size:11px;fill:#606060;width:520px;text-overflow:clip;" text-anchor="end" transform="translate(0,0)" y="587" opacity="1">50</text><text x="52" style="color:#606060;cursor:default;font-size:11px;fill:#606060;width:520px;text-overflow:clip;" text-anchor="end" transform="translate(0,0)" y="513" opacity="1">52</text><text x="52" style="color:#606060;cursor:default;font-size:11px;fill:#606060;width:520px;text-overflow:clip;" text-anchor="end" transform="translate(0,0)" y="439" opacity="1">54</text><text x="52" style="color:#606060;cursor:default;font-size:11px;fill:#606060;width:520px;text-overflow:clip;" text-anchor="end" transform="translate(0,0)" y="365" opacity="1">56</text><text x="52" style="color:#606060;cursor:default;font-size:11px;fill:#606060;width:520px;text-overflow:clip;" text-anchor="end" transform="translate(0,0)" y="291" opacity="1">58</text><text x="52" style="color:#606060;cursor:default;font-size:11px;fill:#606060;width:520px;text-overflow:clip;" text-anchor="end" transform="translate(0,0)" y="217" opacity="1">60</text><text x="52" style="color:#606060;cursor:default;font-size:11px;fill:#606060;width:520px;text-overflow:clip;" text-anchor="end" transform="translate(0,0)" y="143" opacity="1">62</text><text x="52" style="color:#606060;cursor:default;font-size:11px;fill:#606060;width:520px;text-overflow:clip;" text-anchor="end" transform="translate(0,0)" y="69" opacity="1">64</text></g><g class="highcharts-axis-labels highcharts-yaxis-labels"/><g class="highcharts-tooltip" style="cursor:default;padding:0;pointer-events:none;white-space:nowrap;" transform="translate(0,-9999)"><path fill="none" d="M 3.5 0.5 L 13.5 0.5 C 16.5 0.5 16.5 0.5 16.5 3.5 L 16.5 13.5 C 16.5 16.5 16.5 16.5 13.5 16.5 L 3.5 16.5 C 0.5 16.5 0.5 16.5 0.5 13.5 L 0.5 3.5 C 0.5 0.5 0.5 0.5 3.5 0.5" stroke="black" stroke-opacity="0.049999999999999996" stroke-width="5" transform="translate(1, 1)"/><path fill="none" d="M 3.5 0.5 L 13.5 0.5 C 16.5 0.5 16.5 0.5 16.5 3.5 L 16.5 13.5 C 16.5 16.5 16.5 16.5 13.5 16.5 L 3.5 16.5 C 0.5 16.5 0.5 16.5 0.5 13.5 L 0.5 3.5 C 0.5 0.5 0.5 0.5 3.5 0.5" stroke="black" stroke-opacity="0.09999999999999999" stroke-width="3" transform="translate(1, 1)"/><path fill="none" d="M 3.5 0.5 L 13.5 0.5 C 16.5 0.5 16.5 0.5 16.5 3.5 L 16.5 13.5 C 16.5 16.5 16.5 16.5 13.5 16.5 L 3.5 16.5 C 0.5 16.5 0.5 16.5 0.5 13.5 L 0.5 3.5 C 0.5 0.5 0.5 0.5 3.5 0.5" stroke="black" stroke-opacity="0.15" stroke-width="1" transform="translate(1, 1)"/><path fill="rgb(249, 249, 249)" fill-opacity=" .85" d="M 3.5 0.5 L 13.5 0.5 C 16.5 0.5 16.5 0.5 16.5 3.5 L 16.5 13.5 C 16.5 16.5 16.5 16.5 13.5 16.5 L 3.5 16.5 C 0.5 16.5 0.5 16.5 0.5 13.5 L 0.5 3.5 C 0.5 0.5 0.5 0.5 3.5 0.5"/><text x="8" style="font-size:12px;color:#333333;fill:#333333;" y="20"/></g></svg>