<svg xmlns="http://www.w3.org/2000/svg" width="833" height="384" fill="none"><path fill="#fff" d="M0 0h833v384H0z"/><path stroke="#5EA1D3" stroke-width="4" d="M18 34h796v332H18z"/><path stroke="#4FAC58" d="M48.5 96.5h127v239h-127zM192.5 96.5h127v239h-127z"/><path fill="#fff" d="M168 184h32v16h-32zM168 136h32v16h-32zM168 248h32v48h-32z"/><path stroke="#F7941E" stroke-width="2" d="m159.12 239.7 45.73 60.7"/><path fill="#F7941E" d="m207.86 304.4-2.02-11-2.8 4.6-5.19 1.42 10.01 4.97Z"/><rect width="96" height="32" x="64" y="128" fill="#ECEDF2" rx="3"/><path fill="#333" d="M90.15 150v-10.5h7.44V150h-1.33v-9.38h-4.78V150h-1.33Zm13.2.2a3.5 3.5 0 0 1-3.1-1.88c-.33-.6-.5-1.34-.5-2.2 0-.87.17-1.6.5-2.22a3.5 3.5 0 0 1 6.2 0c.34.61.5 1.35.5 2.23a4.4 4.4 0 0 1-.5 2.19 3.44 3.44 0 0 1-3.09 1.87Zm0-1.1c.68 0 1.22-.27 1.63-.81a3.5 3.5 0 0 0 .62-2.16c0-.9-.2-1.62-.63-2.18a1.9 1.9 0 0 0-1.61-.83c-.66 0-1.2.28-1.62.83a3.53 3.53 0 0 0-.62 2.18c0 .88.2 1.6.62 2.16.42.54.96.81 1.62.81Zm5.2 1.1a1.92 1.92 0 0 1-.7-.14l.26-1.21c.06 0 .1.03.16.05l.2.01c.27 0 .5-.13.67-.38.17-.27.29-.69.36-1.27l.3-2.5.3-2.54h4.78V150h-1.33v-6.7h-2.41a1565.13 1565.13 0 0 1-.51 4.3c-.23 1.73-.92 2.6-2.07 2.6Zm12.1 0a3.57 3.57 0 0 1-3.23-1.89 4.5 4.5 0 0 1-.49-2.18c0-.85.17-1.59.5-2.2.34-.6.78-1.07 1.3-1.4.54-.33 1.1-.5 1.69-.5 1 0 1.75.33 2.29 1 .54.66.81 1.54.81 2.65a5.26 5.26 0 0 1-.05.75h-5.24c.05.82.3 1.48.77 1.97.47.5 1.07.74 1.82.74.37 0 .71-.06 1.02-.16.32-.12.63-.27.91-.45l.47.86c-.33.22-.71.4-1.14.56-.41.16-.89.24-1.42.24Zm-2.44-4.71h4.16c0-.8-.17-1.39-.51-1.8a1.7 1.7 0 0 0-1.4-.62c-.55 0-1.04.22-1.48.64-.43.42-.68 1.01-.77 1.78ZM128.6 150v-1.09h2.34v-7.52h-1.86v-.85a8.4 8.4 0 0 0 1.22-.3c.35-.13.66-.28.94-.45h1v9.12h2.12V150h-5.76Z"/><rect width="96" height="32" x="64" y="176" fill="#ECEDF2" rx="3"/><path fill="#333" d="M90.15 198v-10.5h7.44V198h-1.33v-9.38h-4.78V198h-1.33Zm13.2.2a3.5 3.5 0 0 1-3.1-1.88c-.33-.6-.5-1.34-.5-2.2 0-.87.17-1.6.5-2.22a3.5 3.5 0 0 1 6.2 0c.34.61.5 1.35.5 2.23a4.4 4.4 0 0 1-.5 2.19 3.44 3.44 0 0 1-3.09 1.87Zm0-1.1c.68 0 1.22-.27 1.63-.81a3.5 3.5 0 0 0 .62-2.16c0-.9-.2-1.62-.63-2.18a1.9 1.9 0 0 0-1.61-.83c-.66 0-1.2.28-1.62.83a3.53 3.53 0 0 0-.62 2.18c0 .88.2 1.6.62 2.16.42.54.96.81 1.62.81Zm5.2 1.1a1.92 1.92 0 0 1-.7-.14l.26-1.21c.06 0 .1.03.16.05l.2.01c.27 0 .5-.13.67-.38.17-.27.29-.69.36-1.27l.3-2.5.3-2.54h4.78V198h-1.33v-6.7h-2.41a1565.13 1565.13 0 0 1-.51 4.3c-.23 1.73-.92 2.6-2.07 2.6Zm12.1 0a3.57 3.57 0 0 1-3.23-1.89 4.5 4.5 0 0 1-.49-2.18c0-.85.17-1.59.5-2.2.34-.6.78-1.07 1.3-1.4.54-.33 1.1-.5 1.69-.5 1 0 1.75.33 2.29 1 .54.66.81 1.54.81 2.65a5.26 5.26 0 0 1-.05.75h-5.24c.05.82.3 1.48.77 1.97.47.5 1.07.74 1.82.74.37 0 .71-.06 1.02-.16.32-.12.63-.27.91-.45l.47.86c-.33.22-.71.4-1.14.56-.41.16-.89.24-1.42.24Zm-2.44-4.71h4.16c0-.8-.17-1.39-.51-1.8a1.7 1.7 0 0 0-1.4-.62c-.55 0-1.04.22-1.48.64-.43.42-.68 1.01-.77 1.78Zm9.77 4.51v-.78a106.8 106.8 0 0 0 2.6-2.7c.72-.77 1.26-1.47 1.64-2.09.37-.63.56-1.21.56-1.76 0-.58-.16-1.06-.48-1.44-.32-.37-.8-.56-1.46-.56-.43 0-.82.13-1.18.37-.37.24-.7.52-1 .86l-.75-.75c.43-.47.88-.84 1.36-1.12.5-.29 1.07-.43 1.73-.43a3 3 0 0 1 2.24.83c.54.55.82 1.27.82 2.18 0 .64-.19 1.29-.55 1.95-.35.65-.84 1.34-1.47 2.06-.62.72-1.33 1.5-2.14 2.34l.86-.06c.3-.03.58-.04.85-.04h2.96V198h-6.6Z"/><rect width="96" height="32" x="64" y="224" fill="#ECEDF2" rx="3"/><path fill="#333" d="M90.15 246v-10.5h7.44V246h-1.33v-9.38h-4.78V246h-1.33Zm13.2.2a3.5 3.5 0 0 1-3.1-1.88c-.33-.6-.5-1.34-.5-2.2 0-.87.17-1.6.5-2.22a3.5 3.5 0 0 1 6.2 0c.34.61.5 1.35.5 2.23a4.4 4.4 0 0 1-.5 2.19 3.44 3.44 0 0 1-3.09 1.87Zm0-1.1c.68 0 1.22-.27 1.63-.81a3.5 3.5 0 0 0 .62-2.16c0-.9-.2-1.62-.63-2.18a1.9 1.9 0 0 0-1.61-.83c-.66 0-1.2.28-1.62.83a3.53 3.53 0 0 0-.62 2.18c0 .88.2 1.6.62 2.16.42.54.96.81 1.62.81Zm5.2 1.1a1.92 1.92 0 0 1-.7-.14l.26-1.21c.06 0 .1.03.16.05l.2.01c.27 0 .5-.13.67-.38.17-.27.29-.69.36-1.27l.3-2.5.3-2.54h4.78V246h-1.33v-6.7h-2.41a1565.13 1565.13 0 0 1-.51 4.3c-.23 1.73-.92 2.6-2.07 2.6Zm12.1 0a3.57 3.57 0 0 1-3.23-1.89 4.5 4.5 0 0 1-.49-2.18c0-.85.17-1.59.5-2.2.34-.6.78-1.07 1.3-1.4.54-.33 1.1-.5 1.69-.5 1 0 1.75.33 2.29 1 .54.66.81 1.54.81 2.65a5.26 5.26 0 0 1-.05.75h-5.24c.05.82.3 1.48.77 1.97.47.5 1.07.74 1.82.74.37 0 .71-.06 1.02-.16.32-.12.63-.27.91-.45l.47.86c-.33.22-.71.4-1.14.56-.41.16-.89.24-1.42.24Zm-2.44-4.71h4.16c0-.8-.17-1.39-.51-1.8a1.7 1.7 0 0 0-1.4-.62c-.55 0-1.04.22-1.48.64-.43.42-.68 1.01-.77 1.78Zm12.9 4.7a4.3 4.3 0 0 1-3.36-1.44l.67-.86c.31.32.68.6 1.1.85.4.24.91.36 1.51.36.62 0 1.13-.17 1.52-.5.4-.35.6-.8.6-1.37 0-.4-.11-.75-.33-1.05-.2-.31-.54-.55-1.02-.72a5.78 5.78 0 0 0-1.92-.26v-1c.72 0 1.3-.1 1.71-.26.43-.18.73-.4.91-.7.19-.28.28-.6.28-.95 0-.5-.16-.9-.48-1.19a1.8 1.8 0 0 0-1.28-.43c-.43 0-.83.1-1.19.29-.35.2-.68.44-.99.75l-.7-.83c.4-.37.83-.68 1.3-.91a3.5 3.5 0 0 1 1.62-.37c.89 0 1.62.23 2.2.69.57.45.86 1.08.86 1.9 0 .62-.17 1.13-.51 1.52-.34.4-.8.7-1.35.91v.07c.62.14 1.15.43 1.57.88.43.44.64 1 .64 1.71a2.68 2.68 0 0 1-1.66 2.56c-.5.23-1.07.35-1.7.35Z"/><rect width="96" height="32" x="208" y="128" fill="#ECEDF2" rx="3"/><path fill="#333" d="M234.15 150v-10.5h7.44V150h-1.33v-9.38h-4.78V150h-1.33Zm13.2.2a3.5 3.5 0 0 1-3.1-1.88c-.32-.6-.5-1.34-.5-2.2 0-.87.18-1.6.5-2.22a3.5 3.5 0 0 1 6.2 0c.34.61.5 1.35.5 2.23a4.4 4.4 0 0 1-.5 2.19 3.44 3.44 0 0 1-3.09 1.87Zm0-1.1c.68 0 1.22-.27 1.63-.81a3.5 3.5 0 0 0 .62-2.16c0-.9-.2-1.62-.63-2.18a1.9 1.9 0 0 0-1.61-.83c-.66 0-1.2.28-1.62.83a3.53 3.53 0 0 0-.62 2.18c0 .88.2 1.6.62 2.16.42.54.96.81 1.62.81Zm5.2 1.1a1.92 1.92 0 0 1-.7-.14l.26-1.21c.05 0 .1.03.16.05l.2.01c.27 0 .5-.13.66-.38.18-.27.3-.69.37-1.27l.3-2.5.3-2.54h4.78V150h-1.33v-6.7h-2.42a1565.13 1565.13 0 0 1-.51 4.3c-.22 1.73-.9 2.6-2.06 2.6Zm12.1 0a3.57 3.57 0 0 1-3.23-1.89 4.5 4.5 0 0 1-.49-2.18c0-.85.17-1.59.5-2.2.34-.6.78-1.07 1.3-1.4.54-.33 1.1-.5 1.69-.5 1 0 1.75.33 2.29 1 .54.66.81 1.54.81 2.65a5.26 5.26 0 0 1-.04.75h-5.25c.05.82.3 1.48.76 1.97.47.5 1.08.74 1.83.74.37 0 .71-.06 1.02-.16.32-.12.63-.27.92-.45l.46.86c-.33.22-.71.4-1.14.56-.41.16-.89.24-1.42.24Zm-2.44-4.71h4.16c0-.8-.17-1.39-.51-1.8a1.7 1.7 0 0 0-1.4-.62c-.55 0-1.04.22-1.48.64-.43.42-.68 1.01-.77 1.78ZM272.6 150v-1.09h2.34v-7.52h-1.86v-.85a8.4 8.4 0 0 0 1.22-.3c.35-.13.66-.28.94-.45h1v9.12h2.12V150h-5.76Z"/><rect width="96" height="32" x="208" y="176" fill="#ECEDF2" rx="3"/><path fill="#333" d="M234.15 198v-10.5h7.44V198h-1.33v-9.38h-4.78V198h-1.33Zm13.2.2a3.5 3.5 0 0 1-3.1-1.88c-.32-.6-.5-1.34-.5-2.2 0-.87.18-1.6.5-2.22a3.5 3.5 0 0 1 6.2 0c.34.61.5 1.35.5 2.23a4.4 4.4 0 0 1-.5 2.19 3.44 3.44 0 0 1-3.09 1.87Zm0-1.1c.68 0 1.22-.27 1.63-.81a3.5 3.5 0 0 0 .62-2.16c0-.9-.2-1.62-.63-2.18a1.9 1.9 0 0 0-1.61-.83c-.66 0-1.2.28-1.62.83a3.53 3.53 0 0 0-.62 2.18c0 .88.2 1.6.62 2.16.42.54.96.81 1.62.81Zm5.2 1.1a1.92 1.92 0 0 1-.7-.14l.26-1.21c.05 0 .1.03.16.05l.2.01c.27 0 .5-.13.66-.38.18-.27.3-.69.37-1.27l.3-2.5.3-2.54h4.78V198h-1.33v-6.7h-2.42a1565.13 1565.13 0 0 1-.51 4.3c-.22 1.73-.9 2.6-2.06 2.6Zm12.1 0a3.57 3.57 0 0 1-3.23-1.89 4.5 4.5 0 0 1-.49-2.18c0-.85.17-1.59.5-2.2.34-.6.78-1.07 1.3-1.4.54-.33 1.1-.5 1.69-.5 1 0 1.75.33 2.29 1 .54.66.81 1.54.81 2.65a5.26 5.26 0 0 1-.04.75h-5.25c.05.82.3 1.48.76 1.97.47.5 1.08.74 1.83.74.37 0 .71-.06 1.02-.16.32-.12.63-.27.92-.45l.46.86c-.33.22-.71.4-1.14.56-.41.16-.89.24-1.42.24Zm-2.44-4.71h4.16c0-.8-.17-1.39-.51-1.8a1.7 1.7 0 0 0-1.4-.62c-.55 0-1.04.22-1.48.64-.43.42-.68 1.01-.77 1.78Zm9.77 4.51v-.78a106.8 106.8 0 0 0 2.6-2.7c.72-.77 1.26-1.47 1.64-2.09.37-.63.56-1.21.56-1.76 0-.58-.16-1.06-.48-1.44-.32-.37-.8-.56-1.46-.56-.43 0-.82.13-1.18.37-.37.24-.7.52-1 .86l-.75-.75c.43-.47.88-.84 1.36-1.12.5-.29 1.07-.43 1.73-.43a3 3 0 0 1 2.24.83c.54.55.82 1.27.82 2.18 0 .64-.19 1.29-.55 1.95-.35.65-.84 1.34-1.47 2.06-.62.72-1.33 1.5-2.14 2.34l.86-.06c.3-.03.58-.04.85-.04h2.96V198h-6.6Z"/><rect width="96" height="32" x="208" y="288" fill="#ECEDF2" rx="3"/><path fill="#333" d="M232.95 310v-10.5h7.44V310h-1.33v-9.38h-4.78V310h-1.33Zm13.2.2a3.5 3.5 0 0 1-3.1-1.88c-.33-.6-.5-1.34-.5-2.2 0-.87.17-1.6.5-2.22a3.5 3.5 0 0 1 6.2 0c.34.61.5 1.35.5 2.23a4.4 4.4 0 0 1-.5 2.19 3.44 3.44 0 0 1-3.09 1.87Zm0-1.1c.68 0 1.22-.27 1.62-.81a3.5 3.5 0 0 0 .63-2.16c0-.9-.21-1.62-.63-2.18a1.9 1.9 0 0 0-1.61-.83c-.66 0-1.2.28-1.62.83a3.53 3.53 0 0 0-.62 2.18c0 .88.2 1.6.62 2.16.42.54.96.81 1.62.81Zm5.2 1.1a1.92 1.92 0 0 1-.7-.14l.26-1.21c.05 0 .1.02.16.05l.19.01c.28 0 .5-.13.67-.38.17-.27.3-.69.37-1.27l.3-2.5.3-2.54h4.78V310h-1.33v-6.7h-2.42a1565.13 1565.13 0 0 1-.51 4.3c-.22 1.73-.91 2.6-2.06 2.6Zm12.1 0a3.57 3.57 0 0 1-3.23-1.89 4.5 4.5 0 0 1-.5-2.18c0-.86.17-1.59.5-2.2.35-.6.78-1.07 1.32-1.4.53-.33 1.09-.5 1.68-.5.99 0 1.75.33 2.28 1 .55.66.82 1.54.82 2.65a5.26 5.26 0 0 1-.05.75h-5.25c.06.82.31 1.48.77 1.97.47.5 1.08.74 1.83.74.37 0 .71-.06 1.02-.16.32-.12.62-.27.91-.45l.47.86c-.33.22-.71.4-1.14.56-.42.16-.89.24-1.42.24Zm-2.44-4.71h4.16c0-.8-.17-1.39-.51-1.8a1.7 1.7 0 0 0-1.41-.62c-.55 0-1.04.22-1.47.64-.43.42-.69 1.01-.77 1.78Zm10.56 4.51v-10.5h1.38l3.8 6.6 1.13 2.17h.06l-.11-1.65c-.03-.57-.05-1.14-.05-1.7v-5.42h1.27V310h-1.38l-3.8-6.6-1.14-2.17h-.07a71.75 71.75 0 0 1 .18 3.28V310h-1.27Z"/><path stroke="#F7941E" stroke-width="2" d="M160 144h43"/><path fill="#F7941E" d="m208 144-10 5 2-5-2-5 10 5Z"/><path stroke="#F7941E" stroke-width="2" d="M160 192h43"/><path fill="#F7941E" d="m208 192-10 5 2-5-2-5 10 5Z"/><circle cx="108" cy="272" r="1" fill="#333"/><circle cx="112" cy="272" r="1" fill="#333"/><circle cx="116" cy="272" r="1" fill="#333"/><circle cx="252" cy="272" r="1" fill="#333"/><circle cx="256" cy="272" r="1" fill="#333"/><circle cx="260" cy="272" r="1" fill="#333"/><path stroke="#8D4391" stroke-width="3" d="M33.5 65.5h301v285h-301z"/><path fill="#fff" d="M327 200h16v32h-16zM8 200h32v32H8z"/><path stroke="#F7941E" stroke-width="2" d="M320 216h35"/><path fill="#F7941E" d="m360 216-10 5 2-5-2-5 10 5Z"/><path stroke="#F7941E" stroke-width="2" d="M8 216h35"/><path fill="#F7941E" d="m48 216-10 5 2-5-2-5 10 5Z"/><path stroke="#4FAC58" d="M512.5 96.5h127v239h-127zM656.5 96.5h127v239h-127z"/><path fill="#fff" d="M129.5 56h109v16h-109z"/><path fill="#8D4391" d="M136.94 70V59.5h3.12c.72 0 1.34.09 1.87.26.55.17.97.44 1.27.82.3.37.46.87.46 1.48 0 .53-.13 1-.4 1.43a2 2 0 0 1-1.14.86v.07c.63.11 1.14.38 1.54.8.4.41.6.98.6 1.7 0 .7-.16 1.26-.5 1.72-.33.46-.8.8-1.4 1.02-.6.23-1.29.34-2.08.34h-3.34Zm1.33-6.03h1.55c.9 0 1.54-.16 1.94-.47.4-.3.59-.73.59-1.26 0-.6-.21-1.04-.63-1.3a3.5 3.5 0 0 0-1.84-.38h-1.61v3.4Zm0 4.97h1.82c.9 0 1.61-.16 2.11-.5.5-.33.76-.86.76-1.56 0-.65-.25-1.13-.76-1.42-.49-.31-1.2-.47-2.1-.47h-1.83v3.95Zm6.7 1.06 2.55-4.06-2.35-3.72h1.42l1.04 1.72a167.89 167.89 0 0 1 .77 1.3h.06a36.51 36.51 0 0 0 .7-1.3l.95-1.72h1.38l-2.36 3.86 2.53 3.92h-1.42l-1.14-1.8-.41-.71c-.14-.24-.29-.47-.44-.69h-.06a14.18 14.18 0 0 0-.78 1.4l-1.06 1.8h-1.38Zm11 .2a3.5 3.5 0 0 1-3.11-1.88c-.33-.6-.5-1.34-.5-2.2 0-.87.17-1.6.5-2.22a3.5 3.5 0 0 1 6.2 0c.33.61.5 1.35.5 2.23 0 .85-.17 1.58-.51 2.19a3.44 3.44 0 0 1-3.09 1.87Zm0-1.1c.66 0 1.2-.27 1.6-.81a3.5 3.5 0 0 0 .63-2.16c0-.9-.2-1.62-.62-2.18a1.9 1.9 0 0 0-1.62-.83c-.66 0-1.2.28-1.62.83a3.53 3.53 0 0 0-.62 2.18c0 .88.2 1.6.63 2.16.41.54.95.81 1.61.81Zm7.25-3.18c-.08.77-.2 1.4-.35 1.87-.14.48-.3.86-.48 1.14h3.62V63.3h-2.48l-.3 2.62ZM161.88 70v2.75h-1.13l-.15-2.99v-.83h.39c.14-.09.28-.22.4-.4.12-.2.25-.5.36-.95.12-.44.23-1.08.32-1.92l.42-3.44h4.83v6.7h1.14v.84l-.13 3h-1.14V70h-5.3Zm8.25 0v-7.78h1.3v3.16h3.75v-3.16h1.31V70h-1.3v-3.46h-3.75V70h-1.31Zm12 .2a3.5 3.5 0 0 1-3.1-1.88c-.33-.6-.5-1.34-.5-2.2 0-.87.17-1.6.5-2.22a3.5 3.5 0 0 1 6.2 0c.33.61.5 1.35.5 2.23 0 .85-.17 1.58-.5 2.19a3.44 3.44 0 0 1-3.09 1.87Zm0-1.1c.68 0 1.21-.27 1.62-.81a3.5 3.5 0 0 0 .62-2.16c0-.9-.2-1.62-.62-2.18a1.9 1.9 0 0 0-1.62-.83c-.66 0-1.2.28-1.61.83a3.53 3.53 0 0 0-.63 2.18c0 .88.21 1.6.63 2.16.41.54.95.81 1.61.81Zm5.65.9v-7.78h1.28v3.24a78.6 78.6 0 0 1-.13 2.86h.07a102.96 102.96 0 0 1 1.02-1.66l2.94-4.44h1.24V70h-1.28v-3.23c0-.42 0-.88.03-1.38l.1-1.5h-.07c-.14.23-.3.51-.51.83l-.51.83L189 70h-1.22Zm3.25-9.17c-.6 0-1.08-.12-1.44-.35a2.15 2.15 0 0 1-.78-.91 3.2 3.2 0 0 1-.3-1.19h1.1c.02.46.13.86.33 1.19.2.33.57.5 1.09.5.53 0 .9-.17 1.1-.5.2-.33.31-.73.32-1.19h1.1c-.03.42-.13.81-.3 1.19-.17.37-.44.68-.8.91-.35.23-.82.35-1.42.35Zm9 9.17v-7.78h6.22V70h-1.3v-6.7h-3.6V70h-1.32Zm11.87.2a3.5 3.5 0 0 1-3.1-1.88c-.34-.6-.5-1.34-.5-2.2 0-.87.16-1.6.5-2.22a3.5 3.5 0 0 1 6.2 0c.33.61.5 1.35.5 2.23 0 .85-.17 1.58-.51 2.19a3.44 3.44 0 0 1-3.09 1.87Zm0-1.1c.67 0 1.2-.27 1.61-.81a3.5 3.5 0 0 0 .63-2.16c0-.9-.2-1.62-.63-2.18a1.9 1.9 0 0 0-1.61-.83c-.66 0-1.2.28-1.62.83a3.53 3.53 0 0 0-.62 2.18c0 .88.2 1.6.62 2.16.42.54.96.81 1.62.81Zm5.65 4.18V62.22h1.08l.12.9h.04c.36-.3.74-.55 1.16-.77.42-.21.87-.32 1.32-.32 1 0 1.77.36 2.3 1.09.52.71.78 1.67.78 2.88 0 .87-.16 1.63-.48 2.26a3.5 3.5 0 0 1-1.24 1.44c-.5.33-1.05.5-1.64.5-.37 0-.73-.09-1.1-.25-.34-.16-.7-.38-1.06-.65l.03 1.36v2.62h-1.31Zm3.21-4.2c.64 0 1.17-.26 1.59-.8.42-.56.64-1.32.64-2.28 0-.85-.16-1.54-.48-2.06-.31-.54-.84-.8-1.57-.8-.33 0-.67.09-1.01.27-.33.18-.69.44-1.07.78v4.08c.35.3.7.51 1.02.64.33.12.63.18.88.18Zm7.1.92v-6.7h-2.6v-1.08h6.53v1.08h-2.61V70h-1.31Z"/><path fill="#fff" d="M58.5 88h106v14h-106z"/><path fill="#4FAC58" d="M65.76 100v-9.18h2.73c.63 0 1.17.07 1.64.22s.84.39 1.1.71c.27.33.41.76.41 1.3 0 .46-.12.88-.35 1.25-.22.37-.56.62-1 .76v.05c.56.1 1 .34 1.35.7.35.37.53.87.53 1.5 0 .6-.15 1.1-.45 1.5-.29.4-.7.7-1.21.9-.53.2-1.13.29-1.82.29h-2.93Zm1.16-5.28h1.36c.78 0 1.35-.13 1.7-.4.34-.27.51-.64.51-1.11 0-.53-.18-.91-.54-1.13-.36-.23-.9-.34-1.61-.34h-1.42v2.98Zm0 4.36h1.6c.8 0 1.4-.15 1.85-.44.43-.3.65-.75.65-1.37 0-.57-.22-.98-.65-1.25a3.48 3.48 0 0 0-1.85-.4h-1.6v3.46Zm5.87.92 2.23-3.56-2.06-3.24h1.24l.91 1.5a118.56 118.56 0 0 1 .68 1.13h.05a32.82 32.82 0 0 0 .62-1.14l.82-1.5h1.2l-2.05 3.38 2.21 3.43H77.4l-1-1.58-.36-.62-.38-.6h-.06a12.63 12.63 0 0 0-.68 1.22l-.93 1.58h-1.2Zm9.61.17a3.06 3.06 0 0 1-2.71-1.64 3.96 3.96 0 0 1-.44-1.92c0-.76.15-1.41.44-1.94a3.06 3.06 0 0 1 5.42 0c.3.53.44 1.18.44 1.94 0 .75-.15 1.39-.44 1.92a3.01 3.01 0 0 1-2.7 1.64Zm0-.95c.6 0 1.06-.24 1.42-.72.36-.48.54-1.11.54-1.89a3.1 3.1 0 0 0-.54-1.9 1.67 1.67 0 0 0-1.42-.73 1.7 1.7 0 0 0-1.41.73 3.1 3.1 0 0 0-.55 1.9c0 .78.19 1.4.55 1.9.36.47.83.7 1.41.7Zm6.36-2.79a9.04 9.04 0 0 1-.3 1.64c-.13.42-.27.75-.43 1h3.17v-4.94h-2.17l-.27 2.3ZM87.58 100v2.4h-1l-.12-2.61v-.73h.34c.13-.07.25-.19.35-.35.11-.17.22-.44.32-.82.1-.4.2-.96.28-1.68l.37-3.01h4.22v5.86h1v.73l-.11 2.62h-1V100h-4.65Zm7.22 0v-6.8h1.14v2.75h3.28V93.2h1.15v6.8h-1.15v-3.02h-3.28V100H94.8Zm10.5.17a3.06 3.06 0 0 1-2.71-1.64 3.95 3.95 0 0 1-.44-1.92c0-.76.15-1.41.44-1.94a3.06 3.06 0 0 1 5.42 0c.3.53.44 1.18.44 1.94 0 .75-.15 1.39-.44 1.92a3.01 3.01 0 0 1-2.7 1.64Zm0-.95c.6 0 1.06-.24 1.42-.72.36-.48.54-1.11.54-1.89a3.1 3.1 0 0 0-.54-1.9 1.67 1.67 0 0 0-1.42-.73c-.58 0-1.05.24-1.41.73a3.1 3.1 0 0 0-.55 1.9c0 .78.19 1.4.55 1.9.36.47.83.7 1.41.7Zm4.95.78v-6.8h1.12v2.82a66.8 66.8 0 0 1-.11 2.5h.05a80.54 80.54 0 0 1 .9-1.45l2.57-3.87h1.08v6.8h-1.12v-2.83c0-.36 0-.76.03-1.2l.08-1.32h-.05a31.46 31.46 0 0 1-.9 1.46l-2.59 3.89h-1.06Zm2.84-8.02c-.53 0-.95-.1-1.26-.31-.31-.2-.54-.47-.69-.8a2.79 2.79 0 0 1-.25-1.03h.95c.02.4.12.74.3 1.03.17.3.49.44.95.44.46 0 .79-.15.96-.44.18-.29.27-.63.28-1.03h.96c-.02.36-.1.7-.26 1.03-.15.33-.38.6-.7.8-.3.2-.72.3-1.24.3Zm7.87 8.02v-6.8h1.15v2.75h3.28V93.2h1.15v6.8h-1.15v-3.02h-3.28V100h-1.15Zm9.43.17c-.57 0-1.04-.17-1.42-.5a1.85 1.85 0 0 1-.56-1.43c0-.75.33-1.32.99-1.71a8.2 8.2 0 0 1 3.18-.84c0-.3-.04-.57-.13-.83a1.19 1.19 0 0 0-.42-.63c-.2-.17-.48-.25-.85-.25-.4 0-.76.07-1.1.22-.35.15-.66.32-.93.5l-.45-.79c.32-.2.7-.4 1.16-.59.47-.2.97-.3 1.51-.3.83 0 1.44.26 1.81.78.37.5.56 1.18.56 2.03V100h-.95l-.1-.81h-.04c-.32.26-.67.49-1.05.68-.38.2-.78.3-1.2.3Zm.34-.93c.33 0 .63-.08.92-.23.3-.16.6-.39.93-.68v-1.89a6.4 6.4 0 0 0-2.38.63c-.45.28-.67.64-.67 1.08 0 .38.11.66.35.84.23.17.51.25.85.25Zm5.85-3.15c0 1 .18 1.76.53 2.31.36.55.88.82 1.57.82.52 0 .95-.24 1.29-.72.34-.48.52-1.1.52-1.87 0-.7-.16-1.26-.48-1.67a1.6 1.6 0 0 0-1.36-.63c-.32 0-.66.09-1.02.27-.35.17-.7.5-1.05.96v.53Zm2.1 4.08c-1.02 0-1.8-.38-2.37-1.12a5.21 5.21 0 0 1-.84-3.18c0-1.15.1-2.08.3-2.79a3.42 3.42 0 0 1 2.21-2.5 9.4 9.4 0 0 1 1.76-.42c.39-.06.67-.1.84-.16.18-.05.37-.13.58-.22l.22 1.05c-.17.12-.38.21-.61.28-.24.06-.5.1-.79.15-.54.09-1.01.18-1.41.28-.4.1-.74.25-1.01.47-.26.2-.47.5-.62.92-.15.4-.25.95-.3 1.65a2.92 2.92 0 0 1 2.3-1.13c.8 0 1.46.28 1.97.84.51.56.77 1.34.77 2.34 0 .71-.14 1.34-.41 1.87-.27.53-.63.94-1.1 1.23a2.7 2.7 0 0 1-1.49.44Zm7.46 0a3.06 3.06 0 0 1-2.71-1.64 3.95 3.95 0 0 1-.44-1.92c0-.76.15-1.41.44-1.94a3.06 3.06 0 0 1 5.42 0c.3.53.44 1.18.44 1.94 0 .75-.15 1.39-.45 1.92a3.01 3.01 0 0 1-2.7 1.64Zm0-.95c.59 0 1.06-.24 1.42-.72.36-.48.54-1.11.54-1.89a3.1 3.1 0 0 0-.54-1.9 1.67 1.67 0 0 0-1.42-.73c-.58 0-1.05.24-1.41.73a3.1 3.1 0 0 0-.55 1.9c0 .78.18 1.4.55 1.9.36.47.83.7 1.41.7Zm4.94 3.65V93.2h.96l.1.78h.04c.3-.26.64-.49 1-.67.38-.19.76-.28 1.17-.28.87 0 1.54.32 2 .95.46.63.68 1.47.68 2.52a4.3 4.3 0 0 1-.42 1.97c-.27.55-.63.97-1.07 1.26-.44.3-.92.44-1.45.44-.31 0-.63-.07-.95-.21-.3-.14-.62-.33-.94-.58l.03 1.2v2.29h-1.15Zm2.82-3.67c.56 0 1.02-.24 1.38-.71.38-.49.56-1.15.56-1.99 0-.75-.14-1.35-.42-1.8-.27-.47-.72-.7-1.37-.7-.29 0-.58.07-.88.23-.29.16-.6.39-.94.69v3.57c.31.26.6.45.9.56.29.1.54.15.77.15Z"/><path fill="#fff" d="M200 88h115v14H200z"/><path fill="#4FAC58" d="M207.26 100v-9.18h2.73c.63 0 1.17.07 1.64.22s.84.39 1.1.71c.28.33.41.76.41 1.3 0 .46-.12.88-.35 1.25-.22.37-.55.62-1 .76v.05c.56.1 1 .34 1.35.7.36.37.53.87.53 1.5 0 .6-.15 1.1-.45 1.5-.28.4-.7.7-1.21.9-.53.2-1.13.29-1.82.29h-2.93Zm1.16-5.28h1.36c.78 0 1.35-.13 1.7-.4.34-.27.51-.64.51-1.11 0-.53-.18-.91-.54-1.13-.36-.23-.9-.34-1.61-.34h-1.42v2.98Zm0 4.36h1.6c.8 0 1.4-.15 1.85-.44.44-.3.65-.75.65-1.37 0-.57-.22-.98-.65-1.25a3.48 3.48 0 0 0-1.85-.4h-1.6v3.46Zm6.96.92v-6.8h1.15v2.5h.96c.8 0 1.45.17 1.95.5.5.34.75.88.75 1.63 0 .76-.25 1.3-.75 1.65-.5.35-1.15.52-1.95.52h-2.11Zm1.15-.92h.84c1.13 0 1.69-.42 1.69-1.25 0-.43-.14-.74-.42-.94-.27-.2-.7-.3-1.27-.3h-.84v2.49Zm4.84.92v-6.8h1.15v6.8h-1.15Zm2.49 0 2.23-3.56-2.06-3.24h1.24l.91 1.5a91.5 91.5 0 0 1 .68 1.13h.05a32.17 32.17 0 0 0 .62-1.14l.82-1.5h1.2l-2.05 3.38 2.21 3.43h-1.24l-1-1.58-.36-.62-.38-.6h-.06a12.98 12.98 0 0 0-.68 1.22l-.93 1.58h-1.2Zm9.61.17a3.06 3.06 0 0 1-2.71-1.64 3.95 3.95 0 0 1-.44-1.92c0-.76.15-1.41.44-1.94a3.06 3.06 0 0 1 5.42 0c.3.53.44 1.18.44 1.94 0 .75-.15 1.39-.44 1.92a3.01 3.01 0 0 1-2.7 1.64Zm0-.95c.6 0 1.06-.24 1.42-.72.36-.48.54-1.11.54-1.89a3.1 3.1 0 0 0-.54-1.9 1.67 1.67 0 0 0-1.42-.73c-.57 0-1.05.24-1.41.73a3.1 3.1 0 0 0-.55 1.9c0 .78.19 1.4.55 1.9.36.47.84.7 1.41.7Zm6.36-2.79a9.12 9.12 0 0 1-.3 1.64c-.13.42-.27.75-.43 1h3.17v-4.94h-2.17l-.27 2.3Zm-1.18 3.57v2.4h-.99l-.13-2.61v-.73h.34c.13-.07.25-.19.35-.35.11-.17.22-.44.32-.82.1-.4.2-.96.28-1.68l.37-3.01h4.22v5.86h1v.73l-.11 2.62h-1V100h-4.65Zm7.22 0v-6.8H247v2.75h3.28V93.2h1.15v6.8h-1.15v-3.02h-3.28V100h-1.14Zm10.5.17a3.06 3.06 0 0 1-2.71-1.64 3.96 3.96 0 0 1-.44-1.92c0-.76.15-1.41.44-1.94a3.06 3.06 0 0 1 5.42 0c.3.53.44 1.18.44 1.94 0 .75-.14 1.39-.44 1.92s-.68.94-1.15 1.22c-.48.28-1 .42-1.56.42Zm0-.95c.6 0 1.06-.24 1.42-.72.36-.48.54-1.11.54-1.89a3.1 3.1 0 0 0-.54-1.9 1.67 1.67 0 0 0-1.42-.73c-.58 0-1.05.24-1.41.73a3.1 3.1 0 0 0-.55 1.9c0 .78.19 1.4.55 1.9.36.47.83.7 1.41.7Zm4.95.78v-6.8h1.12v2.82a66.8 66.8 0 0 1-.11 2.5h.05a112.27 112.27 0 0 1 .9-1.45l2.57-3.87h1.08v6.8h-1.12v-2.83c0-.36 0-.76.03-1.2l.08-1.32h-.05l-.45.73-.45.73-2.59 3.89h-1.06Zm2.84-8.02c-.53 0-.95-.1-1.26-.31-.31-.2-.54-.47-.69-.8a2.83 2.83 0 0 1-.25-1.03h.95c.02.4.12.74.3 1.03.17.3.5.44.95.44.46 0 .79-.15.96-.44.18-.29.27-.63.28-1.03h.96c-.02.36-.1.7-.26 1.03-.15.33-.38.6-.7.8-.3.2-.72.3-1.24.3Zm7.88 8.02v-6.8h1.14v2.75h3.28V93.2h1.15v6.8h-1.15v-3.02h-3.28V100h-1.14Zm9.42.17c-.56 0-1.04-.17-1.42-.5a1.85 1.85 0 0 1-.56-1.43c0-.75.33-1.32.99-1.71a8.2 8.2 0 0 1 3.18-.84c0-.3-.04-.57-.13-.83a1.19 1.19 0 0 0-.42-.63c-.2-.17-.48-.25-.85-.25-.4 0-.76.07-1.1.22-.35.15-.66.32-.93.5l-.45-.79c.32-.2.7-.4 1.16-.59.47-.2.97-.3 1.51-.3.83 0 1.44.26 1.81.78.37.5.56 1.18.56 2.03V100h-.95l-.1-.81h-.04a5.8 5.8 0 0 1-1.05.68c-.38.2-.78.3-1.2.3Zm.34-.93c.33 0 .63-.08.92-.23.3-.16.6-.39.93-.68v-1.89a6.4 6.4 0 0 0-2.38.63c-.45.28-.67.64-.67 1.08 0 .38.11.66.35.84.23.17.51.25.85.25Zm5.85-3.15c0 1 .18 1.76.53 2.31.36.55.88.82 1.57.82.52 0 .95-.24 1.29-.72.34-.48.52-1.1.52-1.87 0-.7-.16-1.26-.48-1.67a1.6 1.6 0 0 0-1.36-.63c-.32 0-.67.09-1.02.27-.35.17-.7.5-1.05.96v.53Zm2.1 4.08c-1.02 0-1.8-.38-2.37-1.12a5.21 5.21 0 0 1-.83-3.18c0-1.15.1-2.08.29-2.79a3.4 3.4 0 0 1 2.21-2.5 9.4 9.4 0 0 1 1.77-.42c.38-.06.66-.1.83-.16.18-.05.37-.13.58-.22l.22 1.05c-.18.12-.38.21-.61.28-.24.06-.5.1-.79.15-.54.09-1.01.18-1.41.28-.4.1-.74.25-1 .47a2 2 0 0 0-.63.92c-.14.4-.25.95-.3 1.65.3-.37.65-.65 1.05-.84.4-.2.83-.3 1.26-.3.8 0 1.45.29 1.96.85s.77 1.34.77 2.34a4.1 4.1 0 0 1-.4 1.87c-.28.53-.64.94-1.1 1.23a2.7 2.7 0 0 1-1.5.44Zm7.46 0a3.06 3.06 0 0 1-2.71-1.64 3.96 3.96 0 0 1-.44-1.92c0-.76.15-1.41.44-1.94a3.06 3.06 0 0 1 5.42 0c.3.53.44 1.18.44 1.94 0 .75-.15 1.39-.45 1.92a3.01 3.01 0 0 1-2.7 1.64Zm0-.95c.59 0 1.06-.24 1.42-.72.36-.48.54-1.11.54-1.89a3.1 3.1 0 0 0-.54-1.9 1.67 1.67 0 0 0-1.42-.73c-.58 0-1.05.24-1.41.73a3.1 3.1 0 0 0-.55 1.9c0 .78.18 1.4.55 1.9.36.47.83.7 1.41.7Zm4.94 3.65V93.2h.96l.1.78h.04c.3-.26.64-.49 1-.67.38-.19.76-.28 1.17-.28.87 0 1.54.32 2 .95.45.63.68 1.47.68 2.52a4.3 4.3 0 0 1-.42 1.97c-.27.55-.63.97-1.07 1.26-.44.3-.92.44-1.45.44-.31 0-.63-.07-.95-.21-.3-.14-.62-.33-.94-.58l.03 1.2v2.29h-1.15Zm2.82-3.67c.56 0 1.02-.24 1.38-.71.38-.49.56-1.15.56-1.99 0-.75-.14-1.35-.42-1.8-.27-.47-.72-.7-1.37-.7-.29 0-.58.07-.88.23-.29.16-.6.39-.94.69v3.57c.31.26.6.45.9.56.29.1.54.15.77.15Z"/><path fill="#fff" d="M632 296h32v16h-32zM617 187.5l49.5-49.5 11.31 11.31-49.5 49.5z"/><path stroke="#F7941E" stroke-width="2" d="m622.66 193.15 45.96-45.96"/><path fill="#F7941E" d="m672.15 143.66-3.53 10.6-2.12-4.95-4.95-2.12 10.6-3.53Z"/><path fill="#fff" d="m617 235.5 49.5-49.5 11.31 11.31-49.5 49.5z"/><path stroke="#F7941E" stroke-width="2" d="m622.66 241.15 45.96-45.96"/><path fill="#F7941E" d="m672.15 191.66-3.53 10.6-2.12-4.95-4.95-2.12 10.6-3.53Z"/><rect width="96" height="32" x="528" y="128" fill="#ECEDF2" rx="3"/><path fill="#333" d="M554.15 150v-10.5h7.44V150h-1.33v-9.38h-4.78V150h-1.33Zm13.2.2a3.5 3.5 0 0 1-3.1-1.88c-.33-.6-.5-1.34-.5-2.2 0-.87.17-1.6.5-2.22a3.5 3.5 0 0 1 6.2 0c.34.61.5 1.35.5 2.23a4.4 4.4 0 0 1-.5 2.19 3.44 3.44 0 0 1-3.09 1.87Zm0-1.1c.68 0 1.22-.27 1.63-.81a3.5 3.5 0 0 0 .62-2.16c0-.9-.2-1.62-.63-2.18a1.9 1.9 0 0 0-1.61-.83c-.66 0-1.2.28-1.62.83a3.53 3.53 0 0 0-.62 2.18c0 .88.2 1.6.62 2.16.42.54.96.81 1.62.81Zm5.2 1.1a1.92 1.92 0 0 1-.7-.14l.26-1.21c.05 0 .1.03.16.05l.2.01c.27 0 .5-.13.66-.38.18-.27.3-.69.37-1.27l.3-2.5.3-2.54h4.78V150h-1.33v-6.7h-2.41a1565.13 1565.13 0 0 1-.51 4.3c-.23 1.73-.92 2.6-2.07 2.6Zm12.1 0a3.57 3.57 0 0 1-3.23-1.89 4.5 4.5 0 0 1-.49-2.18c0-.85.17-1.59.5-2.2.34-.6.78-1.07 1.3-1.4.54-.33 1.1-.5 1.69-.5 1 0 1.75.33 2.29 1 .54.66.81 1.54.81 2.65a5.26 5.26 0 0 1-.04.75h-5.25c.05.82.3 1.48.76 1.97.48.5 1.08.74 1.83.74.37 0 .71-.06 1.02-.16.32-.12.63-.27.91-.45l.47.86c-.33.22-.71.4-1.14.56-.41.16-.89.24-1.42.24Zm-2.44-4.71h4.16c0-.8-.17-1.39-.51-1.8a1.7 1.7 0 0 0-1.4-.62c-.55 0-1.04.22-1.48.64-.43.42-.68 1.01-.77 1.78ZM592.6 150v-1.09h2.34v-7.52h-1.86v-.85a8.4 8.4 0 0 0 1.22-.3c.35-.13.66-.28.94-.45h1v9.12h2.12V150h-5.76Z"/><rect width="96" height="32" x="528" y="176" fill="#ECEDF2" rx="3"/><path fill="#333" d="M554.15 198v-10.5h7.44V198h-1.33v-9.38h-4.78V198h-1.33Zm13.2.2a3.5 3.5 0 0 1-3.1-1.88c-.33-.6-.5-1.34-.5-2.2 0-.87.17-1.6.5-2.22a3.5 3.5 0 0 1 6.2 0c.34.61.5 1.35.5 2.23a4.4 4.4 0 0 1-.5 2.19 3.44 3.44 0 0 1-3.09 1.87Zm0-1.1c.68 0 1.22-.27 1.63-.81a3.5 3.5 0 0 0 .62-2.16c0-.9-.2-1.62-.63-2.18a1.9 1.9 0 0 0-1.61-.83c-.66 0-1.2.28-1.62.83a3.53 3.53 0 0 0-.62 2.18c0 .88.2 1.6.62 2.16.42.54.96.81 1.62.81Zm5.2 1.1a1.92 1.92 0 0 1-.7-.14l.26-1.21c.05 0 .1.03.16.05l.2.01c.27 0 .5-.13.66-.38.18-.27.3-.69.37-1.27l.3-2.5.3-2.54h4.78V198h-1.33v-6.7h-2.41a1565.13 1565.13 0 0 1-.51 4.3c-.23 1.73-.92 2.6-2.07 2.6Zm12.1 0a3.57 3.57 0 0 1-3.23-1.89 4.5 4.5 0 0 1-.49-2.18c0-.85.17-1.59.5-2.2.34-.6.78-1.07 1.3-1.4.54-.33 1.1-.5 1.69-.5 1 0 1.75.33 2.29 1 .54.66.81 1.54.81 2.65a5.26 5.26 0 0 1-.04.75h-5.25c.05.82.3 1.48.76 1.97.48.5 1.08.74 1.83.74.37 0 .71-.06 1.02-.16.32-.12.63-.27.91-.45l.47.86c-.33.22-.71.4-1.14.56-.41.16-.89.24-1.42.24Zm-2.44-4.71h4.16c0-.8-.17-1.39-.51-1.8a1.7 1.7 0 0 0-1.4-.62c-.55 0-1.04.22-1.48.64-.43.42-.68 1.01-.77 1.78Zm9.77 4.51v-.78a106.8 106.8 0 0 0 2.6-2.7c.72-.77 1.26-1.47 1.64-2.09.37-.63.56-1.21.56-1.76 0-.58-.16-1.06-.48-1.44-.32-.37-.8-.56-1.46-.56-.43 0-.82.13-1.18.37-.37.24-.7.52-1 .86l-.75-.75c.43-.47.88-.84 1.36-1.12.5-.29 1.07-.43 1.73-.43a3 3 0 0 1 2.24.83c.54.55.82 1.27.82 2.18 0 .64-.18 1.29-.55 1.95-.35.65-.84 1.34-1.47 2.06-.62.72-1.33 1.5-2.14 2.34l.86-.06c.3-.03.58-.04.85-.04h2.96V198h-6.6Z"/><rect width="96" height="32" x="528" y="224" fill="#ECEDF2" rx="3"/><path fill="#333" d="M554.15 246v-10.5h7.44V246h-1.33v-9.38h-4.78V246h-1.33Zm13.2.2a3.5 3.5 0 0 1-3.1-1.88c-.33-.6-.5-1.34-.5-2.2 0-.87.17-1.6.5-2.22a3.5 3.5 0 0 1 6.2 0c.34.61.5 1.35.5 2.23a4.4 4.4 0 0 1-.5 2.19 3.44 3.44 0 0 1-3.09 1.87Zm0-1.1c.68 0 1.22-.27 1.63-.81a3.5 3.5 0 0 0 .62-2.16c0-.9-.2-1.62-.63-2.18a1.9 1.9 0 0 0-1.61-.83c-.66 0-1.2.28-1.62.83a3.53 3.53 0 0 0-.62 2.18c0 .88.2 1.6.62 2.16.42.54.96.81 1.62.81Zm5.2 1.1a1.92 1.92 0 0 1-.7-.14l.26-1.21c.05 0 .1.03.16.05l.2.01c.27 0 .5-.13.66-.38.18-.27.3-.69.37-1.27l.3-2.5.3-2.54h4.78V246h-1.33v-6.7h-2.41a1565.13 1565.13 0 0 1-.51 4.3c-.23 1.73-.92 2.6-2.07 2.6Zm12.1 0a3.57 3.57 0 0 1-3.23-1.89 4.5 4.5 0 0 1-.49-2.18c0-.85.17-1.59.5-2.2.34-.6.78-1.07 1.3-1.4.54-.33 1.1-.5 1.69-.5 1 0 1.75.33 2.29 1 .54.66.81 1.54.81 2.65a5.26 5.26 0 0 1-.04.75h-5.25c.05.82.3 1.48.76 1.97.48.5 1.08.74 1.83.74.37 0 .71-.06 1.02-.16.32-.12.63-.27.91-.45l.47.86c-.33.22-.71.4-1.14.56-.41.16-.89.24-1.42.24Zm-2.44-4.71h4.16c0-.8-.17-1.39-.51-1.8a1.7 1.7 0 0 0-1.4-.62c-.55 0-1.04.22-1.48.64-.43.42-.68 1.01-.77 1.78Zm12.9 4.7a4.3 4.3 0 0 1-3.36-1.44l.67-.86c.31.32.68.6 1.1.85.4.24.91.36 1.51.36.62 0 1.13-.17 1.52-.5.4-.35.6-.8.6-1.37 0-.4-.11-.75-.33-1.05-.2-.31-.54-.55-1.02-.72a5.78 5.78 0 0 0-1.92-.26v-1c.73 0 1.3-.1 1.71-.26.43-.18.73-.4.91-.7.18-.28.28-.6.28-.95 0-.5-.16-.9-.48-1.19a1.8 1.8 0 0 0-1.28-.43c-.43 0-.82.1-1.19.29-.35.2-.68.44-.99.75l-.7-.83c.4-.37.83-.68 1.3-.91a3.5 3.5 0 0 1 1.62-.37c.89 0 1.62.23 2.2.69.57.45.86 1.08.86 1.9 0 .62-.17 1.13-.51 1.52-.34.4-.8.7-1.35.91v.07c.62.14 1.14.43 1.57.88.43.44.64 1 .64 1.71a2.68 2.68 0 0 1-1.66 2.56c-.5.23-1.07.35-1.7.35Z"/><rect width="96" height="32" x="528" y="288" fill="#ECEDF2" rx="3"/><path fill="#333" d="M552.95 310v-10.5h7.44V310h-1.33v-9.38h-4.78V310h-1.33Zm13.2.2a3.5 3.5 0 0 1-3.1-1.88c-.33-.6-.5-1.34-.5-2.2 0-.87.17-1.6.5-2.22a3.5 3.5 0 0 1 6.2 0c.34.61.5 1.35.5 2.23a4.4 4.4 0 0 1-.5 2.19 3.44 3.44 0 0 1-3.09 1.87Zm0-1.1c.68 0 1.22-.27 1.62-.81a3.5 3.5 0 0 0 .63-2.16c0-.9-.21-1.62-.63-2.18a1.9 1.9 0 0 0-1.61-.83c-.66 0-1.2.28-1.62.83a3.53 3.53 0 0 0-.62 2.18c0 .88.2 1.6.62 2.16.42.54.96.81 1.62.81Zm5.2 1.1a1.92 1.92 0 0 1-.7-.14l.26-1.21c.05 0 .1.02.16.05l.19.01c.28 0 .5-.13.67-.38.17-.27.3-.69.37-1.27l.3-2.5.3-2.54h4.78V310h-1.33v-6.7h-2.42a1565.13 1565.13 0 0 1-.51 4.3c-.22 1.73-.91 2.6-2.06 2.6Zm12.1 0a3.57 3.57 0 0 1-3.23-1.89 4.5 4.5 0 0 1-.5-2.18c0-.86.17-1.59.5-2.2.35-.6.78-1.07 1.32-1.4.53-.33 1.09-.5 1.68-.5.99 0 1.75.33 2.28 1 .55.66.82 1.54.82 2.65a5.26 5.26 0 0 1-.05.75h-5.25c.06.82.31 1.48.77 1.97.47.5 1.08.74 1.83.74.37 0 .71-.06 1.02-.16.32-.12.62-.27.91-.45l.47.86c-.33.22-.71.4-1.14.56-.42.16-.89.24-1.42.24Zm-2.44-4.71h4.16c0-.8-.17-1.39-.51-1.8a1.7 1.7 0 0 0-1.41-.62c-.55 0-1.04.22-1.47.64-.43.42-.69 1.01-.77 1.78Zm10.56 4.51v-10.5h1.38l3.8 6.6 1.13 2.17h.06l-.11-1.65c-.03-.57-.05-1.14-.05-1.7v-5.42h1.26V310h-1.37l-3.8-6.6-1.14-2.17h-.07a71.75 71.75 0 0 1 .18 3.28V310h-1.27Z"/><rect width="96" height="32" x="672" y="128" fill="#ECEDF2" rx="3"/><path fill="#333" d="M698.15 150v-10.5h7.44V150h-1.33v-9.38h-4.78V150h-1.33Zm13.2.2a3.5 3.5 0 0 1-3.1-1.88c-.33-.6-.5-1.34-.5-2.2 0-.87.17-1.6.5-2.22a3.5 3.5 0 0 1 6.2 0c.34.61.5 1.35.5 2.23a4.4 4.4 0 0 1-.5 2.19 3.44 3.44 0 0 1-3.09 1.87Zm0-1.1c.68 0 1.22-.27 1.63-.81a3.5 3.5 0 0 0 .62-2.16c0-.9-.2-1.62-.63-2.18a1.9 1.9 0 0 0-1.61-.83c-.66 0-1.2.28-1.62.83a3.53 3.53 0 0 0-.62 2.18c0 .88.2 1.6.62 2.16.42.54.96.81 1.62.81Zm5.2 1.1a1.92 1.92 0 0 1-.7-.14l.26-1.21c.05 0 .1.03.16.05l.2.01c.27 0 .5-.13.66-.38.18-.27.3-.69.37-1.27l.3-2.5.3-2.54h4.78V150h-1.33v-6.7h-2.41a1565.13 1565.13 0 0 1-.51 4.3c-.23 1.73-.92 2.6-2.07 2.6Zm12.1 0a3.57 3.57 0 0 1-3.23-1.89 4.5 4.5 0 0 1-.49-2.18c0-.85.17-1.59.5-2.2.34-.6.78-1.07 1.3-1.4.54-.33 1.1-.5 1.69-.5 1 0 1.75.33 2.29 1 .54.66.81 1.54.81 2.65a5.26 5.26 0 0 1-.04.75h-5.25c.05.82.3 1.48.76 1.97.48.5 1.08.74 1.83.74.37 0 .71-.06 1.02-.16.32-.12.63-.27.91-.45l.47.86c-.33.22-.71.4-1.14.56-.41.16-.89.24-1.42.24Zm-2.44-4.71h4.16c0-.8-.17-1.39-.51-1.8a1.7 1.7 0 0 0-1.4-.62c-.55 0-1.04.22-1.48.64-.43.42-.68 1.01-.77 1.78ZM736.6 150v-1.09h2.34v-7.52h-1.86v-.85a8.4 8.4 0 0 0 1.22-.3c.35-.13.66-.28.94-.45h1v9.12h2.12V150h-5.76Z"/><rect width="96" height="32" x="672" y="176" fill="#ECEDF2" rx="3"/><path fill="#333" d="M698.15 198v-10.5h7.44V198h-1.33v-9.38h-4.78V198h-1.33Zm13.2.2a3.5 3.5 0 0 1-3.1-1.88c-.33-.6-.5-1.34-.5-2.2 0-.87.17-1.6.5-2.22a3.5 3.5 0 0 1 6.2 0c.34.61.5 1.35.5 2.23a4.4 4.4 0 0 1-.5 2.19 3.44 3.44 0 0 1-3.09 1.87Zm0-1.1c.68 0 1.22-.27 1.63-.81a3.5 3.5 0 0 0 .62-2.16c0-.9-.2-1.62-.63-2.18a1.9 1.9 0 0 0-1.61-.83c-.66 0-1.2.28-1.62.83a3.53 3.53 0 0 0-.62 2.18c0 .88.2 1.6.62 2.16.42.54.96.81 1.62.81Zm5.2 1.1a1.92 1.92 0 0 1-.7-.14l.26-1.21c.05 0 .1.03.16.05l.2.01c.27 0 .5-.13.66-.38.18-.27.3-.69.37-1.27l.3-2.5.3-2.54h4.78V198h-1.33v-6.7h-2.41a1565.13 1565.13 0 0 1-.51 4.3c-.23 1.73-.92 2.6-2.07 2.6Zm12.1 0a3.57 3.57 0 0 1-3.23-1.89 4.5 4.5 0 0 1-.49-2.18c0-.85.17-1.59.5-2.2.34-.6.78-1.07 1.3-1.4.54-.33 1.1-.5 1.69-.5 1 0 1.75.33 2.29 1 .54.66.81 1.54.81 2.65a5.26 5.26 0 0 1-.04.75h-5.25c.05.82.3 1.48.76 1.97.48.5 1.08.74 1.83.74.37 0 .71-.06 1.02-.16.32-.12.63-.27.91-.45l.47.86c-.33.22-.71.4-1.14.56-.41.16-.89.24-1.42.24Zm-2.44-4.71h4.16c0-.8-.17-1.39-.51-1.8a1.7 1.7 0 0 0-1.4-.62c-.55 0-1.04.22-1.48.64-.43.42-.68 1.01-.77 1.78Zm9.77 4.51v-.78a106.8 106.8 0 0 0 2.6-2.7c.72-.77 1.26-1.47 1.64-2.09.37-.63.56-1.21.56-1.76 0-.58-.16-1.06-.48-1.44-.32-.37-.8-.56-1.46-.56-.43 0-.82.13-1.18.37-.37.24-.7.52-1 .86l-.75-.75c.43-.47.88-.84 1.36-1.12.5-.29 1.07-.43 1.73-.43a3 3 0 0 1 2.24.83c.54.55.82 1.27.82 2.18 0 .64-.18 1.29-.55 1.95-.35.65-.84 1.34-1.47 2.06-.62.72-1.33 1.5-2.14 2.34l.86-.06c.3-.03.58-.04.85-.04h2.96V198h-6.6Z"/><path fill="#BAC0CF" d="M691.33 245.16a2.5 2.5 0 0 1-.84-.13l.22-.98a1.46 1.46 0 0 0 .54.1c.28 0 .5-.06.68-.16.17-.12.32-.3.43-.54l.18-.45-2.91-6.53h1.15l1.6 3.8.64 1.67h.05l.6-1.67 1.47-3.8h1.1l-2.79 6.98c-.22.53-.49.95-.82 1.25-.33.3-.76.46-1.3.46Zm6.51-3.47a8.3 8.3 0 0 1-.28 1.52c-.11.39-.24.7-.4.92h2.95v-4.58h-2.02l-.25 2.13Zm-1.09 3.31v2.24h-.92l-.12-2.44v-.67h.31a.96.96 0 0 0 .33-.33c.1-.15.2-.4.3-.76.1-.37.18-.89.26-1.56l.34-2.8h3.92v5.45h.93v.68l-.1 2.43h-.93V245h-4.32Zm8.2.16c-.52 0-.96-.16-1.32-.47a1.72 1.72 0 0 1-.52-1.33c0-.7.31-1.22.92-1.58.63-.38 1.61-.64 2.96-.78 0-.27-.04-.53-.12-.77a1.1 1.1 0 0 0-.4-.59c-.17-.15-.44-.23-.78-.23-.37 0-.71.07-1.03.2-.32.15-.6.3-.86.48l-.41-.75c.29-.19.65-.37 1.07-.54.44-.18.9-.27 1.4-.27.78 0 1.34.23 1.68.71.35.47.53 1.1.53 1.89V245h-.89l-.09-.75h-.04c-.3.24-.62.45-.97.63-.35.19-.72.28-1.12.28Zm.32-.86c.3 0 .59-.08.86-.22.27-.15.55-.36.86-.63v-1.75a5.95 5.95 0 0 0-2.21.58c-.42.26-.63.6-.63 1 0 .36.11.62.33.78.21.16.48.24.79.24Zm4.42.86a1.56 1.56 0 0 1-.57-.1l.2-1 .13.04.16.02c.23 0 .4-.1.55-.32.13-.21.24-.56.3-1.02l.24-2.04.24-2.06h3.88V245h-1.08v-5.45h-1.96l-.2 1.76-.21 1.74c-.19 1.4-.75 2.1-1.68 2.1Zm9.83 0a2.9 2.9 0 0 1-2.63-1.53c-.26-.5-.4-1.1-.4-1.78 0-.69.13-1.28.4-1.78.28-.5.64-.87 1.07-1.14.43-.27.89-.4 1.37-.4.8 0 1.42.26 1.85.8.45.54.67 1.26.67 2.16a4.24 4.24 0 0 1-.04.61h-4.27c.05.67.25 1.2.63 1.6.38.4.87.6 1.48.6.3 0 .58-.05.83-.13.26-.1.5-.22.74-.37l.38.7c-.27.18-.58.33-.92.46-.34.13-.73.2-1.16.2Zm-1.99-3.83h3.38c0-.64-.14-1.12-.41-1.45-.27-.34-.65-.5-1.15-.5-.44 0-.84.16-1.2.51a2.3 2.3 0 0 0-.62 1.44Zm.55-3.96a.63.63 0 0 1-.47-.18.66.66 0 0 1-.18-.47c0-.18.06-.34.18-.46.12-.13.28-.2.47-.2a.6.6 0 0 1 .45.2c.12.13.18.28.18.46s-.06.34-.18.47a.62.62 0 0 1-.45.18Zm2.5 0a.62.62 0 0 1-.64-.65c0-.18.06-.34.18-.46a.6.6 0 0 1 .45-.2c.2 0 .35.07.47.2s.18.28.18.46-.06.34-.18.47a.63.63 0 0 1-.47.18Zm2.83 7.63v-6.32h1.06v2.56h3.05v-2.56h1.06V245h-1.06v-2.8h-3.05v2.8h-1.06Zm7.3 0v-6.32h1.06v2.56h3.05v-2.56h1.06V245h-1.06v-2.8h-3.05v2.8h-1.06Zm9.75.16a2.84 2.84 0 0 1-2.52-1.53c-.27-.49-.4-1.08-.4-1.78s.13-1.3.4-1.8a2.84 2.84 0 0 1 5.03 0c.28.5.42 1.1.42 1.8s-.14 1.3-.42 1.78a2.8 2.8 0 0 1-2.5 1.52Zm0-.89c.55 0 .99-.22 1.32-.66.34-.45.5-1.04.5-1.76s-.16-1.31-.5-1.76a1.55 1.55 0 0 0-1.31-.68c-.54 0-.98.22-1.32.68-.34.45-.5 1.04-.5 1.76s.16 1.3.5 1.76c.34.44.78.66 1.32.66Zm7.15.89a2.89 2.89 0 0 1-2.63-1.53c-.26-.5-.4-1.1-.4-1.78 0-.69.14-1.28.4-1.78.29-.5.64-.87 1.07-1.14.44-.27.9-.4 1.37-.4.8 0 1.43.26 1.86.8.44.54.66 1.26.66 2.16a4.77 4.77 0 0 1-.04.61h-4.26c.04.67.25 1.2.62 1.6.38.4.88.6 1.49.6.3 0 .58-.05.83-.13.26-.1.5-.22.74-.37l.38.7c-.27.18-.58.33-.93.46-.34.13-.72.2-1.15.2Zm-1.98-3.83H749c0-.64-.14-1.12-.42-1.45-.27-.34-.65-.5-1.14-.5-.45 0-.85.16-1.2.51a2.3 2.3 0 0 0-.62 1.44Z"/><rect width="96" height="32" x="672" y="224" stroke="#DDE0E4" stroke-dasharray="4 4" stroke-linejoin="bevel" stroke-miterlimit="0" stroke-width="2" rx="3"/><rect width="96" height="32" x="672" y="288" fill="#ECEDF2" rx="3"/><path fill="#333" d="M696.95 310v-10.5h7.44V310h-1.33v-9.38h-4.78V310h-1.33Zm13.2.2a3.5 3.5 0 0 1-3.1-1.88c-.33-.6-.5-1.34-.5-2.2 0-.87.17-1.6.5-2.22a3.5 3.5 0 0 1 6.2 0c.34.61.5 1.35.5 2.23a4.4 4.4 0 0 1-.5 2.19 3.44 3.44 0 0 1-3.09 1.87Zm0-1.1c.68 0 1.22-.27 1.62-.81a3.5 3.5 0 0 0 .63-2.16c0-.9-.21-1.62-.63-2.18a1.9 1.9 0 0 0-1.61-.83c-.66 0-1.2.28-1.62.83a3.53 3.53 0 0 0-.62 2.18c0 .88.2 1.6.62 2.16.42.54.96.81 1.62.81Zm5.2 1.1a1.92 1.92 0 0 1-.7-.14l.26-1.21c.05 0 .1.02.16.05l.19.01c.28 0 .5-.13.67-.38.17-.27.3-.69.37-1.27l.3-2.5.3-2.54h4.78V310h-1.33v-6.7h-2.42a1565.13 1565.13 0 0 1-.51 4.3c-.22 1.73-.91 2.6-2.06 2.6Zm12.1 0a3.57 3.57 0 0 1-3.23-1.89 4.5 4.5 0 0 1-.5-2.18c0-.86.17-1.59.5-2.2.35-.6.78-1.07 1.32-1.4.53-.33 1.09-.5 1.68-.5.99 0 1.75.33 2.28 1 .55.66.82 1.54.82 2.65a5.26 5.26 0 0 1-.05.75h-5.25c.06.82.31 1.48.77 1.97.47.5 1.08.74 1.83.74.37 0 .71-.06 1.02-.16.32-.12.62-.27.91-.45l.47.86c-.33.22-.71.4-1.14.56-.42.16-.89.24-1.42.24Zm-2.44-4.71h4.16c0-.8-.17-1.39-.51-1.8a1.7 1.7 0 0 0-1.41-.62c-.55 0-1.04.22-1.47.64-.43.42-.69 1.01-.77 1.78Zm10.56 4.51v-10.5h1.38l3.8 6.6 1.13 2.17h.06l-.11-1.65c-.03-.57-.05-1.14-.05-1.7v-5.42h1.26V310h-1.37l-3.8-6.6-1.14-2.17h-.07a71.75 71.75 0 0 1 .18 3.28V310h-1.27Z"/><path stroke="#F7941E" stroke-width="2" d="M624 304h43"/><path fill="#F7941E" d="m672 304-10 5 2-5-2-5 10 5Z"/><circle cx="572" cy="272" r="1" fill="#333"/><circle cx="576" cy="272" r="1" fill="#333"/><circle cx="580" cy="272" r="1" fill="#333"/><circle cx="716" cy="272" r="1" fill="#333"/><circle cx="720" cy="272" r="1" fill="#333"/><circle cx="724" cy="272" r="1" fill="#333"/><path stroke="#8D4391" stroke-width="3" d="M497.5 65.5h301v285h-301z"/><path fill="#fff" d="M791 200h33v32h-33zM472 200h32v32h-32z"/><path stroke="#F7941E" stroke-width="2" d="M784 216h35"/><path fill="#F7941E" d="m824 216-10 5 2-5-2-5 10 5Z"/><path stroke="#F7941E" stroke-width="2" d="M472 216h35"/><path fill="#F7941E" d="m512 216-10 5 2-5-2-5 10 5Z"/><rect width="112" height="288" x="360" y="64" fill="#ECEDF2" rx="3"/><path fill="#333" d="M383.12 205.2a4.16 4.16 0 0 1-3.92-2.58 6.98 6.98 0 0 1-.56-2.92c0-1.12.18-2.08.56-2.88.38-.8.9-1.42 1.58-1.85a4.24 4.24 0 0 1 2.34-.66 4.19 4.19 0 0 1 3.92 2.51c.38.8.57 1.76.57 2.88 0 1.12-.19 2.1-.57 2.92a4.53 4.53 0 0 1-1.59 1.9c-.67.45-1.45.67-2.33.67Zm0-1.18a2.6 2.6 0 0 0 1.63-.52c.47-.37.83-.87 1.09-1.5.25-.66.38-1.42.38-2.3 0-1.3-.28-2.33-.85-3.08a2.68 2.68 0 0 0-2.25-1.14c-.94 0-1.7.38-2.26 1.14a5.05 5.05 0 0 0-.85 3.08c0 .88.13 1.64.39 2.3.25.63.62 1.13 1.09 1.5.46.35 1 .52 1.63.52Zm7.42-3.48c0 1.13.2 2 .61 2.64a2 2 0 0 0 1.8.92c.59 0 1.08-.27 1.46-.81.4-.56.6-1.27.6-2.15 0-.8-.19-1.43-.55-1.9a1.83 1.83 0 0 0-1.55-.72c-.37 0-.76.1-1.17.3-.4.2-.8.58-1.2 1.1v.61Zm2.4 4.65a3.18 3.18 0 0 1-2.7-1.28c-.64-.85-.96-2.06-.96-3.63 0-1.31.11-2.37.33-3.18a3.89 3.89 0 0 1 2.53-2.86c.61-.22 1.28-.38 2.02-.49.44-.06.75-.12.96-.17.2-.07.42-.15.65-.26l.26 1.2c-.2.14-.44.24-.7.32l-.9.18c-.62.1-1.16.2-1.62.32-.45.1-.84.28-1.15.52-.3.24-.53.6-.7 1.06a7.25 7.25 0 0 0-.35 1.89c.34-.43.74-.75 1.2-.96a3.3 3.3 0 0 1 1.44-.34c.91 0 1.66.32 2.24.96.58.64.88 1.53.88 2.67 0 .83-.16 1.54-.47 2.15a3.5 3.5 0 0 1-1.25 1.4c-.5.34-1.08.5-1.7.5Zm5.5 3.09v-11.06h1.1l.1.9h.05c.36-.3.74-.56 1.16-.77.42-.21.86-.32 1.32-.32 1 0 1.77.37 2.3 1.09.51.72.77 1.67.77 2.88 0 .88-.16 1.63-.48 2.26a3.5 3.5 0 0 1-1.23 1.44c-.5.33-1.05.5-1.64.5-.37 0-.73-.09-1.1-.25a5.58 5.58 0 0 1-1.06-.65l.03 1.36v2.62h-1.31Zm3.22-4.2c.64 0 1.17-.26 1.58-.8.43-.56.64-1.32.64-2.28 0-.85-.15-1.54-.48-2.06-.3-.54-.83-.8-1.56-.8-.33 0-.67.09-1.01.27a6 6 0 0 0-1.07.78v4.08c.35.3.69.51 1.02.64.33.12.63.18.88.18Zm7.23 1.11c-.65 0-1.2-.19-1.63-.57-.43-.4-.64-.94-.64-1.64 0-.85.38-1.5 1.14-1.95a9.37 9.37 0 0 1 3.63-.96c0-.33-.05-.64-.14-.94-.09-.3-.25-.54-.49-.72-.22-.2-.54-.29-.97-.29-.45 0-.87.09-1.27.26-.39.17-.74.36-1.05.57l-.51-.91c.36-.23.8-.46 1.33-.67.53-.23 1.1-.34 1.72-.34.95 0 1.64.3 2.07.88.42.58.64 1.35.64 2.32V205h-1.1l-.1-.93h-.05c-.36.3-.76.56-1.2.79-.43.22-.89.33-1.38.33Zm.39-1.05c.37 0 .72-.1 1.05-.28.33-.18.69-.43 1.06-.76v-2.16c-1.3.16-2.2.4-2.72.72-.51.32-.77.73-.77 1.23 0 .44.13.76.4.96.27.19.6.29.98.29Zm6.68-3.6c0 1.13.2 2 .61 2.64a2 2 0 0 0 1.8.92c.6 0 1.08-.27 1.47-.81.39-.56.59-1.27.59-2.15 0-.8-.18-1.43-.55-1.9a1.83 1.83 0 0 0-1.55-.72c-.37 0-.76.1-1.17.3-.4.2-.8.58-1.2 1.1v.61Zm2.4 4.65a3.18 3.18 0 0 1-2.7-1.28c-.64-.85-.96-2.06-.96-3.63 0-1.31.11-2.37.34-3.18.23-.81.56-1.44.99-1.88.42-.44.94-.78 1.53-.99.61-.21 1.28-.37 2.02-.48.44-.06.76-.12.96-.17.2-.07.42-.15.66-.26l.25 1.2c-.2.14-.44.24-.7.32l-.9.18c-.62.1-1.16.2-1.61.32-.46.1-.85.28-1.16.52-.3.24-.53.6-.7 1.06a7.25 7.25 0 0 0-.35 1.89c.34-.43.74-.75 1.2-.96a3.3 3.3 0 0 1 1.44-.34c.91 0 1.66.32 2.24.96.58.64.88 1.53.88 2.67 0 .83-.16 1.54-.47 2.15a3.5 3.5 0 0 1-1.24 1.4c-.52.34-1.09.5-1.72.5Zm8.53 0a3.5 3.5 0 0 1-3.1-1.87c-.33-.6-.5-1.34-.5-2.2 0-.87.17-1.6.5-2.22a3.5 3.5 0 0 1 6.2 0c.33.61.5 1.35.5 2.23 0 .85-.17 1.58-.51 2.19a3.44 3.44 0 0 1-3.09 1.87Zm0-1.09c.67 0 1.21-.27 1.62-.81a3.5 3.5 0 0 0 .62-2.16c0-.9-.2-1.62-.62-2.18a1.9 1.9 0 0 0-1.62-.83c-.66 0-1.2.28-1.62.83a3.53 3.53 0 0 0-.62 2.18c0 .88.2 1.6.63 2.16.41.54.95.81 1.61.81Zm7.1.9v-6.7h-2.61v-1.08h6.52v1.08h-2.6v6.7h-1.31Zm5.64 0v-7.78h1.31v3.2h1.5l.78-1.72c.21-.47.42-.82.62-1.06.2-.24.42-.4.66-.48.23-.09.49-.13.76-.13.18 0 .32.03.45.08l-.22 1.23a.97.97 0 0 0-.82.14c-.17.13-.36.42-.57.89l-.66 1.53 2.64 4.1h-1.44l-2.16-3.5h-1.54v3.5h-1.3Zm9.6.2c-.64 0-1.19-.2-1.63-.58-.42-.4-.64-.94-.64-1.64 0-.85.38-1.5 1.14-1.95a9.36 9.36 0 0 1 3.63-.96c0-.33-.05-.64-.14-.94-.09-.3-.25-.54-.48-.72-.23-.2-.55-.29-.98-.29-.44 0-.87.09-1.26.26-.4.17-.75.36-1.06.57l-.5-.91c.35-.23.8-.46 1.32-.67.53-.23 1.1-.34 1.73-.34.95 0 1.63.3 2.06.88.43.58.64 1.35.64 2.32V205h-1.09l-.1-.93h-.06c-.36.3-.76.56-1.2.79-.42.22-.88.33-1.37.33Zm.4-1.06c.36 0 .72-.1 1.05-.28.33-.18.68-.43 1.05-.76v-2.16c-1.29.16-2.2.4-2.72.72-.5.32-.76.73-.76 1.23 0 .44.13.76.4.96.26.19.59.29.97.29Zm-56.97 14.78c-.08.77-.2 1.4-.35 1.87-.14.48-.3.86-.48 1.14h3.62v-5.63h-2.48l-.3 2.62Zm-1.34 4.08v2.75h-1.14l-.14-2.99v-.83h.38c.15-.09.28-.22.4-.4.13-.2.25-.5.37-.95.12-.44.22-1.08.32-1.92l.42-3.44h4.83v6.7h1.13v.84l-.12 3h-1.14V223h-5.31Zm10.1.2c-.65 0-1.2-.2-1.63-.58-.43-.4-.65-.94-.65-1.64 0-.85.38-1.5 1.14-1.95a9.36 9.36 0 0 1 3.63-.96c0-.33-.05-.64-.14-.94-.09-.3-.25-.54-.48-.72-.23-.2-.55-.29-.98-.29-.44 0-.87.09-1.26.26-.4.17-.75.36-1.06.57l-.5-.91c.35-.23.8-.46 1.32-.67.53-.23 1.1-.34 1.73-.34.95 0 1.63.3 2.06.88.43.58.64 1.35.64 2.32V223h-1.09l-.1-.93h-.06c-.36.3-.76.56-1.2.79-.42.22-.88.33-1.37.33Zm.38-1.06c.37 0 .73-.1 1.06-.28.33-.18.68-.43 1.05-.76v-2.16c-1.29.16-2.2.4-2.72.72-.5.32-.77.73-.77 1.23 0 .44.14.76.4.96.27.19.6.29.98.29Zm5.89.86v-7.78h1.3v3.16h3.75v-3.16h1.31V223h-1.3v-3.46H409V223h-1.31Zm8.98 0v-7.78h1.31v3.16h3.75v-3.16h1.3V223h-1.3v-3.46h-3.75V223h-1.3Zm8.99 0v-7.78h1.3v2.87h1.11c.92 0 1.66.19 2.23.57.57.39.86 1 .86 1.86 0 .86-.29 1.5-.86 1.89-.57.4-1.31.59-2.23.59h-2.41Zm1.3-1.06h.97c1.29 0 1.93-.47 1.93-1.42 0-.5-.16-.85-.48-1.07-.3-.23-.8-.34-1.45-.34h-.96v2.83Zm5.54 1.06v-7.78h1.32V223h-1.32Zm2.85 0 2.54-4.06-2.35-3.72h1.42l1.05 1.72.36.64.4.65h.07a35.52 35.52 0 0 0 .7-1.3l.94-1.7h1.38l-2.35 3.85 2.53 3.92h-1.43l-1.13-1.8-.42-.71c-.14-.24-.28-.47-.43-.69h-.06a14.04 14.04 0 0 0-.79 1.4l-1.05 1.8h-1.38Z"/><path fill="#fff" d="M360 24h114v16H360z"/><path fill="#5EA1D3" d="M368.18 38.2a3.08 3.08 0 0 1-1.04-.17l.27-1.2a1.84 1.84 0 0 0 .67.11c.34 0 .62-.06.83-.19.21-.14.4-.36.53-.65l.22-.56-3.58-8.04h1.42l1.96 4.68.8 2.06h.06l.74-2.06 1.8-4.68h1.36l-3.44 8.6c-.26.65-.6 1.16-1 1.53-.4.38-.94.56-1.6.56Zm9.03 0a4.24 4.24 0 0 1-2.94-1l.55-.85c.37.3.74.5 1.1.63.4.1.78.16 1.18.16.53 0 .98-.13 1.36-.37.38-.26.57-.6.57-1.03 0-.43-.17-.76-.53-.97a2.65 2.65 0 0 0-1.45-.34h-1.07v-.94h.88c.63 0 1.1-.1 1.4-.32.31-.23.47-.53.47-.91 0-.4-.16-.7-.47-.88-.3-.2-.68-.3-1.15-.3-.45 0-.84.05-1.17.17a3.9 3.9 0 0 0-.94.51l-.56-.86a4.61 4.61 0 0 1 2.74-.87c.5 0 .98.08 1.4.23.43.15.77.37 1.03.68.26.31.4.7.4 1.19 0 .37-.11.71-.34 1.02-.22.31-.54.55-.94.7v.07c.45.12.82.33 1.13.64.32.3.48.73.48 1.3 0 .48-.14.9-.44 1.24-.3.35-.68.61-1.16.8-.47.2-.98.3-1.53.3Zm8.22 0a3.55 3.55 0 0 1-3.23-1.89c-.33-.61-.5-1.34-.5-2.18 0-.86.17-1.59.5-2.2a3.8 3.8 0 0 1 1.31-1.4c.54-.33 1.1-.5 1.68-.5 1 0 1.76.33 2.3 1 .53.66.8 1.54.8 2.65a5.78 5.78 0 0 1-.04.75H383c.05.82.31 1.48.77 1.97.47.5 1.08.74 1.82.74.38 0 .72-.06 1.03-.16.32-.12.62-.27.9-.45l.47.86c-.33.22-.7.4-1.13.56-.42.16-.9.24-1.43.24ZM383 33.48h4.15c0-.8-.17-1.39-.5-1.8a1.7 1.7 0 0 0-1.41-.62c-.55 0-1.04.22-1.48.64-.42.42-.68 1.01-.76 1.78Zm6.78 4.7a1.9 1.9 0 0 1-.7-.13l.25-1.21c.06 0 .1.02.16.05a1 1 0 0 0 .2.01c.27 0 .5-.13.67-.38.17-.27.29-.69.36-1.27l.3-2.5.3-2.54h4.78V38h-1.33v-6.7h-2.41c-.08.71-.16 1.43-.26 2.16l-.26 2.14c-.22 1.73-.9 2.6-2.06 2.6Zm15.22 0c-.68 0-1.3-.16-1.85-.48-.56-.32-1-.78-1.31-1.39a4.65 4.65 0 0 1-.48-2.2c0-.87.17-1.6.5-2.22a3.67 3.67 0 0 1 3.24-1.87c.51 0 .95.1 1.31.27.38.19.7.4.96.64l-.67.87c-.23-.2-.46-.37-.72-.5-.25-.13-.52-.19-.83-.19-.47 0-.9.13-1.27.38-.36.25-.65.6-.86 1.06-.2.45-.3.97-.3 1.57 0 .88.21 1.6.65 2.16.45.54 1.03.81 1.75.81.36 0 .7-.07 1-.22.31-.16.58-.35.82-.56l.57.88a3.58 3.58 0 0 1-2.51 1Zm10.21 2.56V38h-5.98v-7.78h1.31v6.7h3.49v-6.7h1.31v6.7h1.14v.84l-.13 3h-1.14Zm6.03-2.56A3.55 3.55 0 0 1 418 36.3c-.33-.6-.5-1.33-.5-2.17 0-.86.17-1.59.5-2.2a3.8 3.8 0 0 1 1.31-1.4c.53-.33 1.1-.5 1.68-.5 1 0 1.75.33 2.29 1 .54.66.81 1.54.81 2.65a5.78 5.78 0 0 1-.04.75h-5.25c.05.82.3 1.48.77 1.97.47.5 1.07.74 1.82.74.37 0 .71-.06 1.02-.16.32-.12.63-.27.92-.45l.46.86c-.33.22-.71.4-1.14.56-.41.16-.89.24-1.42.24Zm-2.45-4.7h4.16c0-.8-.17-1.39-.51-1.8a1.7 1.7 0 0 0-1.4-.62c-.55 0-1.04.22-1.48.64-.43.42-.68 1.01-.77 1.78Zm7.24 4.51v-7.78h1.3v3.16h3.75v-3.16h1.31V38h-1.3v-3.46h-3.75V38h-1.31Zm10.77.2c-.65 0-1.2-.2-1.63-.58-.43-.4-.64-.94-.64-1.64 0-.85.38-1.5 1.14-1.95a9.37 9.37 0 0 1 3.63-.96c0-.33-.05-.64-.15-.94-.08-.3-.24-.54-.48-.72-.22-.2-.55-.29-.97-.29-.45 0-.87.09-1.27.26s-.74.36-1.05.57l-.51-.91c.36-.23.8-.46 1.32-.67.54-.23 1.11-.34 1.73-.34.95 0 1.64.3 2.07.88.42.58.64 1.35.64 2.32V38h-1.1l-.1-.93h-.05c-.37.3-.76.56-1.2.79-.43.22-.89.33-1.38.33Zm.39-1.06c.37 0 .72-.1 1.05-.28.33-.18.68-.43 1.06-.76v-2.16c-1.3.16-2.2.4-2.72.72-.51.32-.77.73-.77 1.23 0 .44.13.76.4.96.27.19.6.29.98.29Zm5.88 4.14V30.22h1.09l.11.9h.05c.35-.3.74-.55 1.15-.77.43-.21.87-.32 1.33-.32 1 0 1.76.36 2.29 1.09.52.71.78 1.67.78 2.88 0 .87-.16 1.63-.48 2.26a3.5 3.5 0 0 1-1.23 1.44c-.5.33-1.05.5-1.65.5-.36 0-.72-.09-1.09-.25-.35-.16-.7-.38-1.07-.65l.03 1.36v2.62h-1.3Zm3.22-4.2c.64 0 1.17-.26 1.58-.8.43-.56.64-1.32.64-2.28 0-.85-.16-1.54-.48-2.06-.3-.54-.83-.8-1.57-.8-.33 0-.66.09-1 .27a6 6 0 0 0-1.08.78v4.08c.36.3.7.51 1.03.64.33.12.62.18.88.18Zm5.66.92v-7.78h1.28v3.24a71.07 71.07 0 0 1-.13 2.86h.06a102.96 102.96 0 0 1 1.03-1.66l2.94-4.44h1.23V38h-1.28v-3.23c0-.42.01-.88.04-1.38l.1-1.5h-.07l-.51.83-.52.83-2.96 4.45h-1.21Zm13.33 0v-3.07h-1.45L461.67 38h-1.49l2.37-3.25c-.49-.15-.91-.4-1.26-.75a2.06 2.06 0 0 1-.51-1.47c0-.58.13-1.03.4-1.36.26-.34.63-.58 1.08-.72.47-.15 1-.23 1.57-.23h2.75V38h-1.3Zm-1.21-4.03h1.21v-2.72h-1.21c-.61 0-1.1.1-1.44.32-.35.2-.52.53-.52.99 0 .46.17.81.52 1.06.35.23.83.35 1.44.35Z"/><path fill="#fff" d="M588 56h120v16H588z"/><path fill="#8D4391" d="M595.44 70V59.5h3.12c.72 0 1.34.09 1.87.26.55.17.97.44 1.27.82.3.37.46.87.46 1.48 0 .53-.13 1-.4 1.43a2 2 0 0 1-1.14.86v.07c.63.11 1.14.38 1.54.8.4.41.6.98.6 1.7 0 .7-.16 1.26-.5 1.72-.34.46-.8.8-1.4 1.02-.6.23-1.29.34-2.08.34h-3.34Zm1.33-6.03h1.55c.9 0 1.54-.16 1.94-.47.4-.3.59-.73.59-1.26 0-.6-.21-1.04-.63-1.3a3.5 3.5 0 0 0-1.84-.38h-1.61v3.4Zm0 4.97h1.82c.9 0 1.61-.16 2.11-.5.5-.33.76-.86.76-1.56 0-.65-.25-1.13-.76-1.42-.49-.31-1.2-.47-2.1-.47h-1.83v3.95Zm7.95 1.06v-7.78h1.31v2.87h1.1c.92 0 1.66.19 2.23.57.57.39.86 1 .86 1.86 0 .86-.29 1.5-.86 1.89-.57.4-1.3.59-2.23.59h-2.41Zm1.31-1.06h.96c1.3 0 1.94-.47 1.94-1.42 0-.5-.16-.85-.48-1.07-.31-.23-.8-.34-1.46-.34h-.96v2.83Zm5.54 1.06v-7.78h1.3V70h-1.3Zm2.84 0 2.55-4.06-2.36-3.72h1.43l1.04 1.72a167.89 167.89 0 0 1 .77 1.3h.06a44.22 44.22 0 0 0 .7-1.3l.95-1.72h1.37l-2.35 3.86L621.1 70h-1.42l-1.14-1.8-.42-.71c-.13-.24-.28-.47-.43-.69h-.06a14.18 14.18 0 0 0-.79 1.4L615.8 70h-1.38Zm10.99.2a3.5 3.5 0 0 1-3.1-1.88c-.34-.6-.5-1.34-.5-2.2 0-.87.16-1.6.5-2.22a3.5 3.5 0 0 1 6.2 0c.33.61.5 1.35.5 2.23 0 .85-.17 1.58-.51 2.19a3.44 3.44 0 0 1-3.09 1.87Zm0-1.1c.67 0 1.2-.27 1.62-.81a3.5 3.5 0 0 0 .62-2.16c0-.9-.2-1.62-.63-2.18a1.9 1.9 0 0 0-1.61-.83c-.66 0-1.2.28-1.62.83a3.53 3.53 0 0 0-.62 2.18c0 .88.2 1.6.62 2.16.42.54.96.81 1.62.81Zm7.26-3.18c-.08.77-.2 1.4-.35 1.87-.14.48-.3.86-.48 1.14h3.62V63.3h-2.48l-.3 2.62ZM631.32 70v2.75h-1.14l-.14-2.99v-.83h.38c.15-.09.29-.22.4-.4.13-.2.25-.5.37-.95.12-.44.22-1.08.32-1.92l.42-3.44h4.83v6.7h1.13v.84l-.12 3h-1.14V70h-5.31Zm8.24 0v-7.78h1.31v3.16h3.75v-3.16h1.31V70h-1.31v-3.46h-3.75V70h-1.3Zm12.01.2a3.5 3.5 0 0 1-3.1-1.88c-.33-.6-.5-1.34-.5-2.2 0-.87.17-1.6.5-2.22a3.5 3.5 0 0 1 6.2 0c.33.61.5 1.35.5 2.23a4.4 4.4 0 0 1-.51 2.19 3.44 3.44 0 0 1-3.09 1.87Zm0-1.1c.67 0 1.21-.27 1.62-.81a3.5 3.5 0 0 0 .62-2.16c0-.9-.2-1.62-.62-2.18a1.9 1.9 0 0 0-1.62-.83c-.66 0-1.2.28-1.62.83a3.53 3.53 0 0 0-.62 2.18c0 .88.2 1.6.62 2.16.42.54.96.81 1.62.81Zm5.65.9v-7.78h1.28v3.24a71.07 71.07 0 0 1-.13 2.86h.06a142.33 142.33 0 0 1 1.03-1.66l2.94-4.44h1.23V70h-1.28v-3.23c0-.42.01-.88.04-1.38l.1-1.5h-.07l-.51.83-.52.83-2.96 4.45h-1.21Zm3.25-9.17c-.6 0-1.08-.12-1.44-.35a2.16 2.16 0 0 1-.79-.91 3.24 3.24 0 0 1-.29-1.19h1.1c.01.46.13.86.33 1.19.2.33.56.5 1.09.5s.9-.17 1.1-.5c.2-.33.31-.73.32-1.19h1.09a3.2 3.2 0 0 1-.29 1.19c-.17.37-.44.68-.8.91-.35.23-.83.35-1.42.35Zm9 9.17v-7.78h6.22V70h-1.31v-6.7h-3.6V70h-1.31Zm11.87.2a3.5 3.5 0 0 1-3.1-1.88c-.34-.6-.5-1.34-.5-2.2 0-.87.16-1.6.5-2.22a3.5 3.5 0 0 1 6.2 0c.33.61.5 1.35.5 2.23 0 .85-.18 1.58-.52 2.19-.33.6-.76 1.07-1.3 1.4-.55.31-1.14.47-1.78.47Zm0-1.1c.67 0 1.2-.27 1.61-.81a3.5 3.5 0 0 0 .63-2.16c0-.9-.21-1.62-.63-2.18a1.9 1.9 0 0 0-1.61-.83c-.67 0-1.2.28-1.62.83a3.53 3.53 0 0 0-.62 2.18c0 .88.2 1.6.62 2.16.42.54.95.81 1.62.81Zm5.64 4.18V62.22h1.1l.1.9h.05c.35-.3.74-.55 1.15-.77.43-.21.87-.32 1.33-.32 1 0 1.77.36 2.29 1.09.52.71.78 1.67.78 2.88 0 .87-.16 1.63-.48 2.26a3.5 3.5 0 0 1-1.23 1.44c-.5.33-1.05.5-1.65.5-.36 0-.72-.09-1.08-.25-.36-.16-.71-.38-1.08-.65l.04 1.36v2.62h-1.32Zm3.22-4.2c.64 0 1.17-.26 1.58-.8.43-.56.64-1.32.64-2.28 0-.85-.16-1.54-.48-2.06-.3-.54-.83-.8-1.56-.8-.34 0-.67.09-1.01.27a6 6 0 0 0-1.07.78v4.08c.35.3.69.51 1.02.64.33.12.62.18.88.18Zm7.1.92v-6.7h-2.6v-1.08h6.52v1.08h-2.6V70h-1.32Z"/><path fill="#fff" d="M522.5 88h106v14h-106z"/><path fill="#4FAC58" d="M529.76 100v-9.18h2.73c.63 0 1.17.07 1.64.22s.84.39 1.1.71c.27.33.41.76.41 1.3 0 .46-.12.88-.35 1.25-.22.37-.55.62-1 .76v.05c.56.1 1 .34 1.35.7.36.37.53.87.53 1.5 0 .6-.15 1.1-.45 1.5-.29.4-.7.7-1.21.9-.53.2-1.13.29-1.82.29h-2.93Zm1.16-5.28h1.36c.78 0 1.35-.13 1.7-.4.34-.27.51-.64.51-1.11 0-.53-.18-.91-.54-1.13-.36-.23-.9-.34-1.61-.34h-1.42v2.98Zm0 4.36h1.6c.8 0 1.4-.15 1.85-.44.43-.3.65-.75.65-1.37 0-.57-.22-.98-.65-1.25a3.48 3.48 0 0 0-1.85-.4h-1.6v3.46Zm5.87.92 2.23-3.56-2.06-3.24h1.24l.91 1.5.33.55c.1.2.22.4.35.58h.05a40.23 40.23 0 0 0 .62-1.14l.82-1.5h1.2l-2.05 3.38 2.21 3.43h-1.24l-1-1.58-.36-.62-.38-.6h-.06a12.14 12.14 0 0 0-.68 1.22l-.93 1.58h-1.2Zm9.61.17a3.06 3.06 0 0 1-2.71-1.64 3.96 3.96 0 0 1-.44-1.92c0-.76.15-1.41.44-1.94a3.06 3.06 0 0 1 5.42 0c.3.53.44 1.18.44 1.94 0 .75-.15 1.39-.44 1.92a3.01 3.01 0 0 1-2.7 1.64Zm0-.95c.6 0 1.06-.24 1.42-.72.36-.48.54-1.11.54-1.89a3.1 3.1 0 0 0-.54-1.9 1.67 1.67 0 0 0-1.42-.73 1.7 1.7 0 0 0-1.41.73 3.1 3.1 0 0 0-.55 1.9c0 .78.18 1.4.55 1.9.36.47.84.7 1.41.7Zm6.36-2.79a8.94 8.94 0 0 1-.3 1.64c-.13.42-.27.75-.43 1h3.17v-4.94h-2.18l-.26 2.3Zm-1.18 3.57v2.4h-1l-.12-2.61v-.73h.34c.13-.07.25-.19.35-.35.11-.17.22-.44.32-.82.1-.4.2-.96.28-1.68l.37-3.01h4.22v5.86h1v.73l-.12 2.62h-.99V100h-4.65Zm7.22 0v-6.8h1.14v2.75h3.28V93.2h1.15v6.8h-1.15v-3.02h-3.28V100h-1.14Zm10.5.17a3.06 3.06 0 0 1-2.71-1.64 3.95 3.95 0 0 1-.44-1.92c0-.76.15-1.41.44-1.94a3.06 3.06 0 0 1 5.42 0c.3.53.44 1.18.44 1.94 0 .75-.15 1.39-.44 1.92a3.01 3.01 0 0 1-2.7 1.64Zm0-.95c.6 0 1.06-.24 1.42-.72.36-.48.54-1.11.54-1.89a3.1 3.1 0 0 0-.54-1.9 1.67 1.67 0 0 0-1.42-.73c-.57 0-1.05.24-1.41.73a3.1 3.1 0 0 0-.55 1.9c0 .78.19 1.4.55 1.9.36.47.84.7 1.41.7Zm4.95.78v-6.8h1.12v2.82a66.8 66.8 0 0 1-.11 2.5h.05a80.54 80.54 0 0 1 .9-1.45l2.57-3.87h1.08v6.8h-1.12v-2.83c0-.36 0-.76.03-1.2l.08-1.32h-.05a31.46 31.46 0 0 1-.9 1.46l-2.59 3.89h-1.06Zm2.84-8.02c-.52 0-.95-.1-1.26-.31-.31-.2-.54-.47-.69-.8a2.79 2.79 0 0 1-.25-1.03h.95c.02.4.12.74.3 1.03.17.3.49.44.95.44.46 0 .79-.15.96-.44.18-.29.27-.63.28-1.03h.96c-.02.36-.1.7-.26 1.03-.15.33-.38.6-.7.8-.3.2-.72.3-1.24.3Zm7.87 8.02v-6.8h1.15v2.75h3.28V93.2h1.15v6.8h-1.15v-3.02h-3.28V100h-1.15Zm9.43.17c-.57 0-1.04-.17-1.42-.5a1.85 1.85 0 0 1-.56-1.43c0-.75.33-1.32.99-1.71a8.2 8.2 0 0 1 3.18-.84c0-.3-.04-.57-.13-.83a1.19 1.19 0 0 0-.42-.63c-.2-.17-.48-.25-.85-.25-.4 0-.76.07-1.1.22-.35.15-.66.32-.93.5l-.45-.79c.32-.2.7-.4 1.16-.59.47-.2.97-.3 1.51-.3.83 0 1.44.26 1.81.78.37.5.56 1.18.56 2.03V100h-.95l-.1-.81h-.04c-.32.26-.67.49-1.05.68-.38.2-.78.3-1.2.3Zm.34-.93c.33 0 .63-.08.92-.23.3-.16.6-.39.93-.68v-1.89a6.4 6.4 0 0 0-2.38.63c-.45.28-.67.64-.67 1.08 0 .38.11.66.35.84.23.17.51.25.85.25Zm5.85-3.15c0 1 .18 1.76.53 2.31.36.55.88.82 1.57.82.52 0 .95-.24 1.29-.72.34-.48.52-1.1.52-1.87 0-.7-.16-1.26-.48-1.67a1.6 1.6 0 0 0-1.36-.63c-.32 0-.66.09-1.02.27-.35.17-.7.5-1.05.96v.53Zm2.1 4.08c-1.02 0-1.8-.38-2.37-1.12a5.21 5.21 0 0 1-.84-3.18c0-1.15.1-2.08.3-2.79a3.42 3.42 0 0 1 2.21-2.5 9.4 9.4 0 0 1 1.76-.42c.39-.06.67-.1.84-.16.18-.05.37-.13.58-.22l.22 1.05c-.17.12-.38.21-.61.28-.24.06-.5.1-.79.15-.54.09-1.01.18-1.41.28-.4.1-.74.25-1.01.47-.26.2-.47.5-.62.92-.15.4-.25.95-.3 1.65a2.92 2.92 0 0 1 2.3-1.13c.8 0 1.46.28 1.97.84.51.56.77 1.34.77 2.34 0 .71-.14 1.34-.41 1.87-.27.53-.63.94-1.1 1.23a2.7 2.7 0 0 1-1.49.44Zm7.46 0a3.06 3.06 0 0 1-2.71-1.64 3.95 3.95 0 0 1-.44-1.92c0-.76.15-1.41.44-1.94a3.06 3.06 0 0 1 5.42 0c.3.53.44 1.18.44 1.94 0 .75-.15 1.39-.45 1.92a3.01 3.01 0 0 1-2.7 1.64Zm0-.95c.59 0 1.06-.24 1.42-.72.36-.48.54-1.11.54-1.89a3.1 3.1 0 0 0-.54-1.9 1.67 1.67 0 0 0-1.42-.73c-.58 0-1.05.24-1.41.73a3.1 3.1 0 0 0-.55 1.9c0 .78.18 1.4.55 1.9.36.47.83.7 1.41.7Zm4.94 3.65V93.2h.96l.1.78h.04c.3-.26.64-.49 1-.67.38-.19.76-.28 1.17-.28.87 0 1.54.32 2 .95.45.63.68 1.47.68 2.52a4.3 4.3 0 0 1-.42 1.97c-.27.55-.63.97-1.07 1.26-.44.3-.92.44-1.45.44-.31 0-.63-.07-.95-.21-.3-.14-.62-.33-.94-.58l.03 1.2v2.29h-1.15Zm2.82-3.67c.56 0 1.02-.24 1.38-.71.38-.49.56-1.15.56-1.99 0-.75-.14-1.35-.42-1.8-.27-.47-.72-.7-1.37-.7-.29 0-.58.07-.88.23-.29.16-.6.39-.94.69v3.57c.31.26.6.45.9.56.29.1.54.15.77.15Z"/><path fill="#fff" d="M664 88h115v14H664z"/><path fill="#4FAC58" d="M671.26 100v-9.18h2.73c.63 0 1.17.07 1.64.22s.84.39 1.1.71c.27.33.41.76.41 1.3 0 .46-.12.88-.35 1.25-.22.37-.55.62-1 .76v.05c.56.1 1 .34 1.35.7.36.37.53.87.53 1.5 0 .6-.15 1.1-.45 1.5-.29.4-.7.7-1.21.9-.53.2-1.13.29-1.82.29h-2.93Zm1.16-5.28h1.36c.78 0 1.35-.13 1.7-.4.34-.27.51-.64.51-1.11 0-.53-.18-.91-.54-1.13-.36-.23-.9-.34-1.61-.34h-1.42v2.98Zm0 4.36h1.6c.8 0 1.4-.15 1.85-.44.43-.3.65-.75.65-1.37 0-.57-.22-.98-.65-1.25a3.48 3.48 0 0 0-1.85-.4h-1.6v3.46Zm6.96.92v-6.8h1.15v2.5h.96c.8 0 1.45.17 1.95.5.5.34.75.88.75 1.63 0 .76-.25 1.3-.75 1.65-.5.35-1.15.52-1.95.52h-2.11Zm1.15-.92h.84c1.13 0 1.69-.42 1.69-1.25 0-.43-.14-.74-.42-.94-.27-.2-.7-.3-1.27-.3h-.84v2.49Zm4.84.92v-6.8h1.15v6.8h-1.15Zm2.49 0 2.23-3.56-2.06-3.24h1.24l.91 1.5a91.5 91.5 0 0 1 .68 1.13h.05a32.17 32.17 0 0 0 .62-1.14l.82-1.5h1.2l-2.05 3.38 2.21 3.43h-1.24l-1-1.58-.36-.62-.38-.6h-.06a12.98 12.98 0 0 0-.68 1.22l-.93 1.58h-1.2Zm9.61.17a3.06 3.06 0 0 1-2.71-1.64 3.95 3.95 0 0 1-.44-1.92c0-.76.15-1.41.44-1.94a3.06 3.06 0 0 1 5.42 0c.3.53.44 1.18.44 1.94 0 .75-.15 1.39-.44 1.92a3.01 3.01 0 0 1-2.7 1.64Zm0-.95c.6 0 1.06-.24 1.42-.72.36-.48.54-1.11.54-1.89a3.1 3.1 0 0 0-.54-1.9 1.67 1.67 0 0 0-1.42-.73c-.58 0-1.05.24-1.41.73a3.1 3.1 0 0 0-.55 1.9c0 .78.19 1.4.55 1.9.36.47.84.7 1.41.7Zm6.36-2.79a9.12 9.12 0 0 1-.3 1.64c-.13.42-.27.75-.43 1h3.17v-4.94h-2.17l-.27 2.3Zm-1.18 3.57v2.4h-.99l-.13-2.61v-.73h.34c.13-.07.25-.19.35-.35.11-.17.22-.44.32-.82.1-.4.2-.96.28-1.68l.37-3.01h4.22v5.86h1v.73l-.11 2.62h-1V100h-4.65Zm7.22 0v-6.8H711v2.75h3.28V93.2h1.15v6.8h-1.15v-3.02h-3.27V100h-1.15Zm10.5.17a3.06 3.06 0 0 1-2.71-1.64 3.96 3.96 0 0 1-.44-1.92c0-.76.15-1.41.44-1.94a3.06 3.06 0 0 1 5.42 0c.3.53.44 1.18.44 1.94 0 .75-.14 1.39-.44 1.92s-.68.94-1.15 1.22c-.48.28-1 .42-1.56.42Zm0-.95c.6 0 1.06-.24 1.42-.72.36-.48.54-1.11.54-1.89a3.1 3.1 0 0 0-.54-1.9 1.67 1.67 0 0 0-1.42-.73c-.58 0-1.05.24-1.41.73a3.1 3.1 0 0 0-.55 1.9c0 .78.19 1.4.55 1.9.36.47.83.7 1.41.7Zm4.95.78v-6.8h1.12v2.82a66.8 66.8 0 0 1-.11 2.5h.05a112.27 112.27 0 0 1 .9-1.45l2.57-3.87h1.08v6.8h-1.12v-2.83c0-.36 0-.76.03-1.2l.08-1.32h-.05l-.45.73-.45.73-2.59 3.89h-1.06Zm2.84-8.02c-.52 0-.94-.1-1.26-.31-.31-.2-.54-.47-.69-.8a2.83 2.83 0 0 1-.25-1.03h.95c.02.4.12.74.3 1.03.17.3.5.44.95.44.47 0 .79-.15.96-.44.18-.29.27-.63.28-1.03h.96c-.02.36-.1.7-.26 1.03-.14.33-.38.6-.7.8-.3.2-.72.3-1.24.3Zm7.88 8.02v-6.8h1.14v2.75h3.28V93.2h1.15v6.8h-1.15v-3.02h-3.28V100h-1.14Zm9.42.17c-.57 0-1.04-.17-1.42-.5a1.85 1.85 0 0 1-.56-1.43c0-.75.33-1.32.99-1.71a8.2 8.2 0 0 1 3.18-.84c0-.3-.04-.57-.13-.83a1.19 1.19 0 0 0-.42-.63c-.2-.17-.48-.25-.85-.25-.4 0-.76.07-1.1.22-.35.15-.66.32-.93.5l-.45-.79c.32-.2.7-.4 1.16-.59.47-.2.97-.3 1.51-.3.83 0 1.44.26 1.81.78.37.5.56 1.18.56 2.03V100h-.95l-.1-.81h-.04a5.8 5.8 0 0 1-1.05.68c-.38.2-.78.3-1.2.3Zm.34-.93c.33 0 .63-.08.92-.23.3-.16.6-.39.93-.68v-1.89a6.4 6.4 0 0 0-2.38.63c-.45.28-.67.64-.67 1.08 0 .38.11.66.35.84.23.17.51.25.85.25Zm5.85-3.15c0 1 .18 1.76.53 2.31.36.55.88.82 1.57.82.52 0 .95-.24 1.29-.72.34-.48.52-1.1.52-1.87 0-.7-.16-1.26-.48-1.67a1.6 1.6 0 0 0-1.36-.63c-.32 0-.67.09-1.02.27-.35.17-.7.5-1.05.96v.53Zm2.1 4.08c-1.02 0-1.8-.38-2.37-1.12a5.21 5.21 0 0 1-.84-3.18c0-1.15.1-2.08.3-2.79a3.4 3.4 0 0 1 2.21-2.5 9.4 9.4 0 0 1 1.76-.42c.39-.06.67-.1.85-.16.17-.05.36-.13.57-.22l.22 1.05c-.18.12-.38.21-.61.28-.24.06-.5.1-.79.15-.54.09-1.01.18-1.41.28-.4.1-.74.25-1 .47a2 2 0 0 0-.63.92c-.14.4-.25.95-.3 1.65.3-.37.64-.65 1.05-.84.4-.2.83-.3 1.26-.3.8 0 1.45.29 1.96.85s.77 1.34.77 2.34a4.1 4.1 0 0 1-.4 1.87c-.28.53-.64.94-1.1 1.23a2.7 2.7 0 0 1-1.5.44Zm7.46 0a3.06 3.06 0 0 1-2.71-1.64 3.96 3.96 0 0 1-.44-1.92c0-.76.15-1.41.44-1.94a3.06 3.06 0 0 1 5.42 0c.3.53.44 1.18.44 1.94 0 .75-.15 1.39-.45 1.92a3.01 3.01 0 0 1-2.7 1.64Zm0-.95c.59 0 1.06-.24 1.42-.72.36-.48.54-1.11.54-1.89a3.1 3.1 0 0 0-.54-1.9 1.67 1.67 0 0 0-1.42-.73c-.58 0-1.05.24-1.41.73a3.1 3.1 0 0 0-.55 1.9c0 .78.18 1.4.55 1.9.36.47.83.7 1.41.7Zm4.94 3.65V93.2h.96l.1.78h.04c.3-.26.64-.49 1-.67.38-.19.76-.28 1.17-.28.87 0 1.54.32 2 .95.46.63.68 1.47.68 2.52a4.3 4.3 0 0 1-.42 1.97c-.27.55-.63.97-1.07 1.26-.44.3-.92.44-1.45.44-.31 0-.63-.07-.95-.21-.3-.14-.62-.33-.94-.58l.03 1.2v2.29h-1.15Zm2.82-3.67c.56 0 1.02-.24 1.38-.71.38-.49.56-1.15.56-1.99 0-.75-.14-1.35-.42-1.8-.27-.47-.72-.7-1.37-.7-.29 0-.58.07-.88.23-.29.16-.6.39-.94.69v3.57c.31.26.6.45.9.56.29.1.54.15.77.15Z"/><path fill="#fff" d="m155.13 301.36 48.5-64.36 7.98 6.02-48.5 64.36z"/><path stroke="#F7941E" stroke-width="2" d="m159.12 304.37 45.74-60.7"/><path fill="#F7941E" d="m207.87 239.68-2.03 11-2.79-4.61-5.2-1.41 10.02-4.98Z"/><rect width="96" height="32" x="64" y="288" fill="#ECEDF2" rx="3"/><path fill="#333" d="M88.95 310v-10.5h7.44V310h-1.33v-9.38h-4.78V310h-1.33Zm13.2.2a3.5 3.5 0 0 1-3.1-1.88c-.33-.6-.5-1.34-.5-2.2 0-.87.17-1.6.5-2.22a3.5 3.5 0 0 1 6.2 0c.34.61.5 1.35.5 2.23a4.4 4.4 0 0 1-.5 2.19 3.44 3.44 0 0 1-3.09 1.87Zm0-1.1c.68 0 1.22-.27 1.62-.81a3.5 3.5 0 0 0 .63-2.16c0-.9-.21-1.62-.63-2.18a1.9 1.9 0 0 0-1.61-.83c-.66 0-1.2.28-1.62.83a3.53 3.53 0 0 0-.62 2.18c0 .88.2 1.6.62 2.16.42.54.95.81 1.62.81Zm5.2 1.1a1.92 1.92 0 0 1-.7-.14l.26-1.21c.05 0 .1.02.16.05l.19.01c.28 0 .5-.13.67-.38.17-.27.3-.69.37-1.27l.3-2.5.3-2.54h4.78V310h-1.33v-6.7h-2.42a1565.13 1565.13 0 0 1-.51 4.3c-.22 1.73-.91 2.6-2.06 2.6Zm12.1 0a3.57 3.57 0 0 1-3.23-1.89 4.5 4.5 0 0 1-.5-2.18c0-.86.17-1.59.5-2.2.35-.6.78-1.07 1.32-1.4.53-.33 1.09-.5 1.68-.5.99 0 1.75.33 2.28 1 .55.66.82 1.54.82 2.65a5.26 5.26 0 0 1-.05.75h-5.25c.06.82.31 1.48.77 1.97.47.5 1.08.74 1.83.74.37 0 .71-.06 1.02-.16.32-.12.62-.27.91-.45l.47.86c-.33.22-.71.4-1.14.56-.42.16-.89.24-1.42.24Zm-2.44-4.71h4.16c0-.8-.17-1.39-.51-1.8a1.7 1.7 0 0 0-1.41-.62c-.55 0-1.04.22-1.47.64-.43.42-.69 1.01-.77 1.78Zm10.56 4.51v-10.5h1.38l3.8 6.6 1.13 2.17h.06l-.11-1.65c-.03-.57-.05-1.14-.05-1.7v-5.42h1.26V310h-1.37l-3.8-6.6-1.15-2.17h-.06a71.75 71.75 0 0 1 .18 3.28V310h-1.27Z"/><rect width="96" height="32" x="208" y="224" fill="#ECEDF2" rx="3"/><path fill="#333" d="M234.15 246v-10.5h7.44V246h-1.33v-9.38h-4.78V246h-1.33Zm13.2.2a3.5 3.5 0 0 1-3.1-1.88c-.32-.6-.5-1.34-.5-2.2 0-.87.18-1.6.5-2.22a3.5 3.5 0 0 1 6.2 0c.34.61.5 1.35.5 2.23a4.4 4.4 0 0 1-.5 2.19 3.44 3.44 0 0 1-3.09 1.87Zm0-1.1c.68 0 1.22-.27 1.63-.81a3.5 3.5 0 0 0 .62-2.16c0-.9-.2-1.62-.63-2.18a1.9 1.9 0 0 0-1.61-.83c-.66 0-1.2.28-1.62.83a3.53 3.53 0 0 0-.62 2.18c0 .88.2 1.6.62 2.16.42.54.96.81 1.62.81Zm5.2 1.1a1.92 1.92 0 0 1-.7-.14l.26-1.21c.05 0 .1.03.16.05l.2.01c.27 0 .5-.13.66-.38.18-.27.3-.69.37-1.27l.3-2.5.3-2.54h4.78V246h-1.33v-6.7h-2.42a1565.13 1565.13 0 0 1-.51 4.3c-.22 1.73-.9 2.6-2.06 2.6Zm12.1 0a3.57 3.57 0 0 1-3.23-1.89 4.5 4.5 0 0 1-.49-2.18c0-.85.17-1.59.5-2.2.34-.6.78-1.07 1.3-1.4.54-.33 1.1-.5 1.69-.5 1 0 1.75.33 2.29 1 .54.66.81 1.54.81 2.65a5.26 5.26 0 0 1-.04.75h-5.25c.05.82.3 1.48.76 1.97.47.5 1.08.74 1.83.74.37 0 .71-.06 1.02-.16.32-.12.63-.27.92-.45l.46.86c-.33.22-.71.4-1.14.56-.41.16-.89.24-1.42.24Zm-2.44-4.71h4.16c0-.8-.17-1.39-.51-1.8a1.7 1.7 0 0 0-1.4-.62c-.55 0-1.04.22-1.48.64-.43.42-.68 1.01-.77 1.78Zm12.9 4.7a4.3 4.3 0 0 1-3.36-1.44l.67-.86c.31.32.68.6 1.1.85.4.24.92.36 1.51.36.62 0 1.13-.17 1.52-.5.4-.35.6-.8.6-1.37 0-.4-.11-.75-.33-1.05-.2-.31-.54-.55-1.02-.72a5.78 5.78 0 0 0-1.92-.26v-1c.73 0 1.3-.1 1.71-.26.43-.18.73-.4.91-.7.19-.28.28-.6.28-.95 0-.5-.16-.9-.48-1.19a1.8 1.8 0 0 0-1.28-.43c-.43 0-.82.1-1.19.29-.35.2-.68.44-.99.75l-.7-.83c.4-.37.83-.68 1.3-.91a3.5 3.5 0 0 1 1.62-.37c.89 0 1.62.23 2.2.69.57.45.86 1.08.86 1.9 0 .62-.17 1.13-.51 1.52-.34.4-.8.7-1.35.91v.07c.62.14 1.14.43 1.57.88.43.44.64 1 .64 1.71a2.68 2.68 0 0 1-1.66 2.56c-.5.23-1.07.35-1.7.35Z"/></svg>