<?xml version="1.0" encoding="utf-8"?>
<!-- BG Correct +width height -ENTITY -metadata -->
<!-- Generator: Adobe Illustrator 18.0.0, SVG Export Plug-In . SVG Version: 6.00 Build 0)  -->
<!DOCTYPE svg PUBLIC "-//W3C//DTD SVG 1.1//EN" "http://www.w3.org/Graphics/SVG/1.1/DTD/svg11.dtd">
<svg version="1.1" id="Слой_3"
	 xmlns="http://www.w3.org/2000/svg" xmlns:xlink="http://www.w3.org/1999/xlink" x="0px" y="0px" width="18px" height="18px" viewBox="0 0 18 18" 
	 enable-background="new 0 0 18 18" xml:space="preserve">
<path fill="#8DBEC9" d="M13.0018911,2h1v1h-1c-0.5515137,0-1,0.4484863-1,1v4h-1V4C11.0018911,2.8999023,11.9017935,2,13.0018911,2z
	"/>
<path fill="#636F80" d="M12.0018911,16H6.0018907c-1.6500001,0-3-1.3500004-3-3v-3c0-1.6499996,1.3499999-3,3-3h6.0000005
	c1.6499996,0,3,1.3500004,3,3v3C15.0018911,14.6499996,13.6518908,16,12.0018911,16z"/>
<path fill="#FFFFFF" d="M9.0015335,13.3280334H9.0015316c-0.2749996,0-0.499999-0.2249994-0.499999-0.5v-1.781251
	c0-0.2749996,0.2249994-0.499999,0.499999-0.499999h0.0000019c0.2749996,0,0.499999,0.2249994,0.499999,0.499999v1.781251
	C9.5015326,13.103034,9.2765331,13.3280334,9.0015335,13.3280334z"/>
<circle fill="#FFFFFF" cx="9.0019531" cy="11" r="1"/>
</svg>
