<?xml version="1.0" encoding="utf-8"?>
<!-- Generator: Adobe Illustrator 18.1.0, SVG Export Plug-In . SVG Version: 6.00 Build 0)  -->
<svg version="1.1" id="Layer_5" xmlns="http://www.w3.org/2000/svg" xmlns:xlink="http://www.w3.org/1999/xlink" x="0px" y="0px"
	 width="18px" height="18px" viewBox="0 0 18 18" enable-background="new 0 0 18 18" xml:space="preserve">
<polygon fill="#F7931E" points="18,0 0,0 0,18 18,18 18,0 "/>
<polyline fill="#FFFFFF" points="17,1 17,17 1,17 1,1 17,1 "/>
<g>
	<g>
		<path fill="#71B1E4" d="M7.6227865,9.2264977C7.5587564,8.9180822,7.4947267,8.5977049,7.4398112,8.2669592
			c-1.542871-0.1462889-3.2700849,0.1519861-5.3030925,2.1849937c-0.1822916,0.182292-0.1822916,0.4776039,0,0.6598959
			c0.0911458,0.0911455,0.210547,0.1367188,0.3299479,0.1367188s0.238802-0.0455732,0.3299479-0.1367188
			C4.6751304,9.2333336,6.1680989,9.0353193,7.6227865,9.2264977z"/>
		<path fill="#71B1E4" d="M15.8632813,6.8881512c-0.182292-0.182292-0.4776039-0.182292-0.6598959,0
			c-1.8755531,1.8748693-3.3646488,2.0824547-4.8134117,1.8965168c0.0635748,0.3079586,0.1269207,0.6275387,0.1811523,0.9576006
			c1.541048,0.1413898,3.2637043-0.1650877,5.2921553-2.1942215C16.0455723,7.3657551,16.0455723,7.0704427,15.8632813,6.8881512z"
			/>
	</g>
	<g>
		<path fill="#71B1E4" d="M7.2180991,16c-0.119401,0-0.2388024-0.0455732-0.3299479-0.1367188
			c-0.182292-0.182292-0.182292-0.4776039,0-0.6598959c2.4217443-2.4217443,2.0507813-4.2164059,1.6579428-6.1158857
			c-0.4046879-1.9596353-0.8640628-4.1808591,1.905859-6.9507809c0.182292-0.1822916,0.4776039-0.1822916,0.6598959,0
			s0.182292,0.4776042,0,0.6598959C8.698307,5.2101564,9.0683594,7.0020833,9.4602861,8.8979168
			c0.4055996,1.9632807,0.8658857,4.1872396-1.9122391,6.9653645C7.4569011,15.9544268,7.3375001,16,7.2180991,16z"/>
	</g>
	<path fill="#71B1E4" d="M10.7031174,4.1036334l3.772541,3.7725406c0.1822443,0.1822443,0.4777212,0.1822443,0.6599655,0
		l0.000001-0.000001c0.1822443-0.1822443,0.1822443-0.4777207,0-0.6599655l-3.772543-3.7725425
		c-0.1822443-0.1822443-0.4777212-0.1822441-0.6599646,0.0000007l-0.000001,0.0000007
		C10.5208721,3.6259115,10.5208731,3.9213884,10.7031174,4.1036334z"/>
	<path fill="#71B1E4" d="M9.9243441,6.7490716l2.4366417,2.4366422c0.1822443,0.1822443,0.4777203,0.1822443,0.6599646,0
		l0.000001-0.000001c0.1822443-0.1822443,0.1822443-0.4777212,0-0.6599655l-2.4366407-2.4366426
		c-0.1822443-0.1822448-0.4777212-0.1822443-0.6599655,0.0000005l-0.000001,0.0000005
		C9.7420998,6.2713504,9.7420998,6.5668268,9.9243441,6.7490716z"/>
	<path fill="#71B1E4" d="M6.5168538,14.4366283l-3.6469779-3.6469774c-0.1822445-0.1822443-0.1822445-0.4777212-0.0000005-0.6599655
		l0.000001-0.000001c0.1822445-0.1822443,0.4777212-0.1822443,0.6599658,0l3.6469796,3.6469803
		C7.359066,13.958909,7.359066,14.254385,7.1768212,14.4366293h-0.000001
		C6.9945755,14.6188736,6.6990986,14.6188736,6.5168538,14.4366283z"/>
	<path fill="#71B1E4" d="M7.3977122,11.689106L5.0486488,9.340045c-0.1822448-0.1822443-0.1822448-0.4777212,0-0.6599655
		l0.0000005-0.000001c0.1822443-0.1822443,0.4777212-0.1822443,0.6599655,0l2.3490624,2.3490601
		c0.1822443,0.1822443,0.1822453,0.4777203,0.0000019,0.6599655l-0.000001,0.000001
		C7.8754339,11.8713503,7.579957,11.8713503,7.3977122,11.689106z"/>
</g>
</svg>
