<?xml version="1.0" encoding="utf-8"?>
<!-- Generator: Adobe Illustrator 18.1.0, SVG Export Plug-In . SVG Version: 6.00 Build 0)  -->
<svg version="1.1" id="Layer_5" xmlns="http://www.w3.org/2000/svg" xmlns:xlink="http://www.w3.org/1999/xlink" x="0px" y="0px"
	 width="18px" height="18px" viewBox="0 0 18 18" enable-background="new 0 0 18 18" xml:space="preserve">
<path fill="#636F80" d="M13,1H5C2.7907715,1,1,2.7908936,1,5v8c0,2.2091064,1.7907715,4,4,4h8c2.2092285,0,4-1.7908936,4-4V5
	C17,2.7908936,15.2092285,1,13,1z M16,13c0,1.6541748-1.3457031,3-3,3H5c-1.6542969,0-3-1.3458252-3-3V5
	c0-1.6541748,1.3457031-3,3-3h8c1.6542969,0,3,1.3458252,3,3V13z"/>
<path fill="#FFFFFF" d="M13,2c1.6542969,0,3,1.3458252,3,3v8c0,1.6541748-1.3457031,3-3,3H5c-1.6542969,0-3-1.3458252-3-3V5
	c0-1.6541748,1.3457031-3,3-3H13"/>
<g>
	<rect x="6" y="6" fill="#636F80" width="6" height="6"/>
</g>
</svg>
