<?xml version="1.0" encoding="utf-8"?>
<!-- Generator: Adobe Illustrator 18.1.0, SVG Export Plug-In . SVG Version: 6.00 Build 0)  -->
<svg version="1.1" id="Layer_5" xmlns="http://www.w3.org/2000/svg" xmlns:xlink="http://www.w3.org/1999/xlink" x="0px" y="0px"
	 width="18px" height="18px" viewBox="0 0 18 18" enable-background="new 0 0 18 18" xml:space="preserve">
<g>
	<path fill="#636F80" d="M14,5h-4v1h4c0.5515137,0,1,0.4486084,1,1v7c0,0.5513916-0.4484863,1-1,1H7c-0.5515137,0-1-0.4486084-1-1H5
		c0,1.1046143,0.8955078,2,2,2h7c1.1044922,0,2-0.8953857,2-2V7C16,5.8953857,15.1044922,5,14,5z"/>
	<path fill="#636F80" d="M5,10.1894531V9.3713379c3.4980469,0,5.295166,1.5009766,5.295166,1.5009766
		S9.3388672,5.9614258,5,5.9614258V5.0627441V3L1,7.6262207l4,4.6260986V10.1894531z"/>
</g>
</svg>
