<svg xmlns="http://www.w3.org/2000/svg" viewBox="0 0 18 18"><defs><style>.a{fill:#fff;}</style></defs><title>inheritance</title><path class="a" d="M14.88,7.19a0.4,0.4,0,0,0-.57,0l-0.18.16L11,4.24a0.4,0.4,0,0,0-.57.57l3.07,3.07a5.11,5.11,0,0,1-1.13.67l-2-2a0.4,0.4,0,0,0-.57.57l1.74,1.74a4.57,4.57,0,0,1-1.34,0c0.05,0.26.11,0.54,0.16,0.82a5.32,5.32,0,0,0,4.54-1.88A0.4,0.4,0,0,0,14.88,7.19Z"/><path class="a" d="M10.81,3.68a0.4,0.4,0,1,0-.57-0.57,5.55,5.55,0,0,0-1.63,6c0.34,1.63.66,3.17-1.42,5.24a0.4,0.4,0,1,0,.57.57,5.56,5.56,0,0,0,1.64-6C9.06,7.29,8.74,5.75,10.81,3.68Z"/><path class="a" d="M7.44,13.66a0.4,0.4,0,0,0,0-.57l-3-3A5,5,0,0,1,5.72,9.4l1.9,1.9a0.4,0.4,0,1,0,.57-0.57L6.63,9.18a4.78,4.78,0,0,1,1.19,0C7.76,8.93,7.71,8.66,7.66,8.37a5.31,5.31,0,0,0-4.55,1.87,0.4,0.4,0,0,0,.57.57l0.18-.16,3,3A0.4,0.4,0,0,0,7.44,13.66Z"/></svg>