<?xml version="1.0" encoding="utf-8"?>
<!DOCTYPE svg PUBLIC "-//W3C//DTD SVG 1.1//EN" "http://www.w3.org/Graphics/SVG/1.1/DTD/svg11.dtd" [
	<!ENTITY st0 "fill:#FFFFFF;">
]>
<svg version="1.1" id="img" xmlns="http://www.w3.org/2000/svg" xmlns:xlink="http://www.w3.org/1999/xlink" x="0px" y="0px"
	 width="18px" height="18px" viewBox="0 0 18 18" style="enable-background:new 0 0 18 18;" xml:space="preserve">
<g id="inheritance.inverted">
	<path style="&st0;" d="M14.883,7.19c-0.156-0.157-0.409-0.157-0.565,0C14.257,7.25,14.2,7.295,14.14,7.351l-3.114-3.114
		c-0.157-0.156-0.41-0.156-0.566,0c-0.156,0.156-0.156,0.41,0,0.565l3.071,3.073c-0.393,0.302-0.769,0.521-1.129,0.672l-2.043-2.043
		c-0.157-0.156-0.411-0.156-0.567,0c-0.156,0.157-0.156,0.411,0,0.566l1.737,1.736c-0.459,0.074-0.901,0.066-1.337,0.009
		c0.054,0.265,0.109,0.538,0.155,0.821c1.321,0.121,2.798-0.141,4.536-1.881C15.039,7.599,15.039,7.345,14.883,7.19"/>
	<path style="&st0;" d="M10.811,3.683c0.155-0.156,0.155-0.409,0-0.565c-0.156-0.157-0.41-0.157-0.565,0
		C7.871,5.492,8.264,7.396,8.61,9.076c0.337,1.628,0.655,3.167-1.421,5.242c-0.155,0.156-0.155,0.409,0,0.565
		C7.268,14.961,7.371,15,7.472,15c0.103,0,0.205-0.039,0.282-0.117c2.382-2.381,1.988-4.287,1.64-5.97
		C9.058,7.287,8.741,5.752,10.811,3.683"/>
	<path style="&st0;" d="M7.438,13.66c0.156-0.156,0.156-0.409,0-0.565l-2.969-2.969c0.44-0.337,0.857-0.571,1.256-0.723l1.901,1.902
		c0.158,0.156,0.411,0.156,0.567,0c0.156-0.157,0.156-0.41,0-0.566L6.632,9.18C7.037,9.133,7.43,9.143,7.819,9.194
		C7.764,8.93,7.709,8.655,7.663,8.372c-1.324-0.126-2.804,0.13-4.546,1.873c-0.157,0.156-0.157,0.409,0,0.565
		c0.078,0.079,0.18,0.118,0.283,0.118c0.101,0,0.204-0.039,0.282-0.118c0.061-0.06,0.117-0.105,0.178-0.162l3.011,3.012
		C7.028,13.816,7.281,13.816,7.438,13.66"/>
</g>
</svg>
