<?xml version="1.0" encoding="utf-8"?>
<!DOCTYPE svg PUBLIC "-//W3C//DTD SVG 1.1//EN" "http://www.w3.org/Graphics/SVG/1.1/DTD/svg11.dtd" [
	<!ENTITY st0 "fill:#FFFFFF;">
]>
<svg version="1.1" id="img" xmlns="http://www.w3.org/2000/svg" xmlns:xlink="http://www.w3.org/1999/xlink" x="0px" y="0px"
	 width="18px" height="18px" viewBox="0 0 18 18" style="enable-background:new 0 0 18 18;" xml:space="preserve">
<g id="visuilizer.inverted">
	<path style="&st0;" d="M9,8c0.551,0,1,0.449,1,1s-0.449,1-1,1S8,9.551,8,9S8.449,8,9,8 M9,7C7.896,7,7,7.893,7,9
		c0,1.104,0.896,2,2,2c1.104,0,2-0.896,2-2C11,7.893,10.104,7,9,7L9,7z"/>
	<path style="&st0;" d="M9,6c2.003,0,3.849,1.116,4.986,3c-1.137,1.884-2.982,3-4.986,3c-2.003,0-3.849-1.116-4.986-3
		C5.152,7.116,6.997,6,9,6 M9,5C6.692,5,4.385,6.252,3,8.757v0.486C4.385,11.748,6.692,13,9,13s4.615-1.252,6-3.757V8.757
		C13.615,6.252,11.308,5,9,5L9,5z"/>
</g>
</svg>
