<?xml version="1.0" encoding="utf-8"?>
<!DOCTYPE svg PUBLIC "-//W3C//DTD SVG 1.1//EN" "http://www.w3.org/Graphics/SVG/1.1/DTD/svg11.dtd" [
	<!ENTITY st0 "fill:#FFFFFF;">
	<!ENTITY st1 "fill:#808080;">
	<!ENTITY st2 "fill:#636F80;">
	<!ENTITY st3 "opacity:0.2;fill:#FFFFFF;">
	<!ENTITY st4 "opacity:0.2;fill:#636F80;">
	<!ENTITY st5 "opacity:0.2;fill:#808080;">
]>
<svg version="1.1" id="img" xmlns="http://www.w3.org/2000/svg" xmlns:xlink="http://www.w3.org/1999/xlink" x="0px" y="0px"
	 width="18px" height="18px" viewBox="0 0 18 18" style="enable-background:new 0 0 18 18;" xml:space="preserve">
<path id="add-loop.default" style="&st2;" d="M17,15h-2v2h-1v-2h-2v-1h2v-2h1v2h2V15z M14,5v5h1V5c0-1.104-0.896-2-2-2h-2v1h2
	C13.551,4,14,4.448,14,5z M3,13V5c0-0.552,0.449-1,1-1h2v2l3-2.5L6,1v2H4C2.896,3,2,3.896,2,5v8c0,1.104,0.896,2,2,2h6v-1H4
	C3.449,14,3,13.552,3,13z"/>
</svg>
