<?xml version="1.0" encoding="utf-8"?>
<!DOCTYPE svg PUBLIC "-//W3C//DTD SVG 1.1//EN" "http://www.w3.org/Graphics/SVG/1.1/DTD/svg11.dtd" [
	<!ENTITY st0 "fill:#FFFFFF;">
	<!ENTITY st1 "fill:#808080;">
	<!ENTITY st2 "fill:#636F80;">
	<!ENTITY st3 "opacity:0.2;fill:#FFFFFF;">
	<!ENTITY st4 "opacity:0.2;fill:#636F80;">
	<!ENTITY st5 "opacity:0.2;fill:#808080;">
	<!ENTITY st6 "fill-rule:evenodd;clip-rule:evenodd;fill:#FFFFFF;">
	<!ENTITY st7 "fill-rule:evenodd;clip-rule:evenodd;fill:#808080;">
	<!ENTITY st8 "fill-rule:evenodd;clip-rule:evenodd;fill:#636F80;">
	<!ENTITY st9 "fill:#F7931E;">
]>
<svg version="1.1" id="img" xmlns="http://www.w3.org/2000/svg" xmlns:xlink="http://www.w3.org/1999/xlink" x="0px" y="0px"
	 width="18px" height="18px" viewBox="0 0 18 18" style="enable-background:new 0 0 18 18;" xml:space="preserve">
<g id="add-extension.default">
	<rect x="5" y="7" style="&st2;" width="1" height="5"/>
	<rect x="3" y="9" style="&st2;" width="5" height="1"/>
	<g>
		<path style="&st2;" d="M13.399,7.251l-1.449,5.025c-0.08,0.287-0.12,0.476-0.12,0.565c0,0.052,0.021,0.1,0.064,0.145
			c0.042,0.045,0.087,0.067,0.134,0.067c0.08,0,0.161-0.035,0.24-0.106c0.212-0.174,0.466-0.49,0.763-0.947l0.24,0.141
			C12.56,13.381,11.804,14,11.004,14c-0.306,0-0.55-0.086-0.732-0.258C10.091,13.57,10,13.352,10,13.088
			c0-0.174,0.04-0.396,0.12-0.664l0.982-3.378c0.094-0.325,0.141-0.57,0.141-0.735c0-0.103-0.044-0.195-0.134-0.276
			c-0.09-0.08-0.212-0.12-0.367-0.12c-0.071,0-0.155,0.003-0.254,0.007L10.58,7.64l2.396-0.389H13.399z M12.961,4
			c0.292,0,0.538,0.101,0.739,0.304C13.9,4.506,14,4.752,14,5.039s-0.101,0.533-0.304,0.735c-0.203,0.202-0.447,0.304-0.735,0.304
			c-0.283,0-0.525-0.101-0.728-0.304c-0.203-0.202-0.304-0.448-0.304-0.735s0.1-0.533,0.301-0.735C12.43,4.101,12.673,4,12.961,4z"
			/>
	</g>
</g>
</svg>
