<?xml version="1.0" encoding="utf-8"?>
<!DOCTYPE svg PUBLIC "-//W3C//DTD SVG 1.1//EN" "http://www.w3.org/Graphics/SVG/1.1/DTD/svg11.dtd" [
	<!ENTITY st0 "fill:#FFFFFF;">
	<!ENTITY st1 "fill:#808080;">
	<!ENTITY st2 "fill:#636F80;">
	<!ENTITY st3 "opacity:0.2;fill:#FFFFFF;">
	<!ENTITY st4 "opacity:0.2;fill:#636F80;">
	<!ENTITY st5 "opacity:0.2;fill:#808080;">
	<!ENTITY st6 "fill-rule:evenodd;clip-rule:evenodd;fill:#FFFFFF;">
	<!ENTITY st7 "fill-rule:evenodd;clip-rule:evenodd;fill:#808080;">
	<!ENTITY st8 "fill-rule:evenodd;clip-rule:evenodd;fill:#636F80;">
	<!ENTITY st9 "fill:#F7931E;">
]>
<svg version="1.1" id="img" xmlns="http://www.w3.org/2000/svg" xmlns:xlink="http://www.w3.org/1999/xlink" x="0px" y="0px"
	 width="18px" height="18px" viewBox="0 0 18 18" style="enable-background:new 0 0 18 18;" xml:space="preserve">
<g id="add-folder.default">
	<polygon style="&st2;" points="15,10 13,10 13,12 11,12 11,14 13,14 13,16 15,16 15,14 17,14 17,12 15,12 	"/>
	<path style="&st2;" d="M16,5h-4H9.354c-0.27,0-0.53-0.107-0.721-0.299L6.721,2.299C6.53,2.107,6.271,2,6,2H2.02
		C1.457,2,1,2.456,1,3.02v1.49V5v1v9c0,0.552,0.448,1,1,1h8.5c0.276,0,0.5-0.224,0.5-0.5S10.776,15,10.5,15H2V6h7.354H12h4v3.5
		c0,0.276,0.224,0.5,0.5,0.5S17,9.776,17,9.5V6C17,5.448,16.552,5,16,5z M2,4.51L2.02,3H6l0.002,0.001L7.593,5H2V4.51z"/>
</g>
</svg>
