<?xml version="1.0" encoding="utf-8"?>
<!DOCTYPE svg PUBLIC "-//W3C//DTD SVG 1.1//EN" "http://www.w3.org/Graphics/SVG/1.1/DTD/svg11.dtd" [
	<!ENTITY st0 "fill:#FFFFFF;">
	<!ENTITY st1 "fill:#808080;">
	<!ENTITY st2 "fill:#636F80;">
	<!ENTITY st3 "opacity:0.2;fill:#FFFFFF;">
	<!ENTITY st4 "opacity:0.2;fill:#636F80;">
	<!ENTITY st5 "opacity:0.2;fill:#808080;">
	<!ENTITY st6 "fill-rule:evenodd;clip-rule:evenodd;fill:#FFFFFF;">
	<!ENTITY st7 "fill-rule:evenodd;clip-rule:evenodd;fill:#808080;">
	<!ENTITY st8 "fill-rule:evenodd;clip-rule:evenodd;fill:#636F80;">
	<!ENTITY st9 "fill:#F7931E;">
]>
<svg version="1.1" id="img" xmlns="http://www.w3.org/2000/svg" xmlns:xlink="http://www.w3.org/1999/xlink" x="0px" y="0px"
	 width="18px" height="18px" viewBox="0 0 18 18" style="enable-background:new 0 0 18 18;" xml:space="preserve">
<g id="auto-sync-columns.default">
	<polygon style="&st2;" points="7,11 7,16 2,16 	"/>
	<polygon style="&st2;" points="11,7 11,2.018 15.982,2.018 	"/>
	<g>
		<path style="&st2;" d="M12.846,3.154l-0.729,0.729C13.842,4.938,15,6.834,15,9c0,3.308-2.692,6-6,6c-0.341,0-0.674-0.035-1-0.09
			v1.011C8.327,15.968,8.66,16,9,16c3.866,0,7-3.134,7-7C16,6.555,14.745,4.406,12.846,3.154z"/>
		<path style="&st2;" d="M5.154,14.846l0.729-0.729C4.158,13.062,3,11.166,3,9c0-3.308,2.692-6,6-6c0.341,0,0.674,0.035,1,0.09V2.08
			C9.673,2.032,9.34,2,9,2C5.134,2,2,5.134,2,9C2,11.445,3.255,13.594,5.154,14.846z"/>
	</g>
	<g>
		<path style="&st2;" d="M7.517,10.442l-0.831,2.516H5.618l2.718-8h1.247l2.73,8h-1.104l-0.855-2.516H7.517z M10.14,9.635
			L9.357,7.332C9.178,6.81,9.06,6.335,8.941,5.872H8.917C8.798,6.347,8.668,6.834,8.514,7.32L7.73,9.635H10.14z"/>
	</g>
</g>
</svg>
