<?xml version="1.0" encoding="utf-8"?>
<!DOCTYPE svg PUBLIC "-//W3C//DTD SVG 1.1//EN" "http://www.w3.org/Graphics/SVG/1.1/DTD/svg11.dtd" [
	<!ENTITY st0 "fill:#FFFFFF;">
	<!ENTITY st1 "fill:#808080;">
	<!ENTITY st2 "fill:#636F80;">
	<!ENTITY st3 "opacity:0.2;fill:#FFFFFF;">
	<!ENTITY st4 "opacity:0.2;fill:#636F80;">
	<!ENTITY st5 "opacity:0.2;fill:#808080;">
	<!ENTITY st6 "fill-rule:evenodd;clip-rule:evenodd;fill:#FFFFFF;">
	<!ENTITY st7 "fill-rule:evenodd;clip-rule:evenodd;fill:#808080;">
	<!ENTITY st8 "fill-rule:evenodd;clip-rule:evenodd;fill:#636F80;">
	<!ENTITY st9 "fill:#F7931E;">
]>
<svg version="1.1" id="img" xmlns="http://www.w3.org/2000/svg" xmlns:xlink="http://www.w3.org/1999/xlink" x="0px" y="0px"
	 width="18px" height="18px" viewBox="0 0 18 18" style="enable-background:new 0 0 18 18;" xml:space="preserve">
<g id="cancel.default">
	<path style="&st2;" d="M9,2C5.134,2,2,5.134,2,9c0,3.866,3.134,7,7,7s7-3.134,7-7C16,5.134,12.866,2,9,2z M14,9
		c0,1.017-0.309,1.962-0.833,2.753l-6.92-6.92C7.037,4.309,7.982,4,9,4C11.757,4,14,6.243,14,9z M4,9
		c0-1.017,0.309-1.962,0.833-2.753l6.92,6.92C10.963,13.691,10.018,14,9,14C6.243,14,4,11.757,4,9z"/>
</g>
</svg>
