<?xml version="1.0" encoding="utf-8"?>
<!DOCTYPE svg PUBLIC "-//W3C//DTD SVG 1.1//EN" "http://www.w3.org/Graphics/SVG/1.1/DTD/svg11.dtd" [
	<!ENTITY st0 "fill:#FFFFFF;">
	<!ENTITY st1 "fill:#808080;">
	<!ENTITY st2 "fill:#636F80;">
	<!ENTITY st3 "opacity:0.2;fill:#FFFFFF;">
	<!ENTITY st4 "opacity:0.2;fill:#636F80;">
	<!ENTITY st5 "opacity:0.2;fill:#808080;">
]>
<svg version="1.1" id="img" xmlns="http://www.w3.org/2000/svg" xmlns:xlink="http://www.w3.org/1999/xlink" x="0px" y="0px"
	 width="18px" height="18px" viewBox="0 0 18 18" style="enable-background:new 0 0 18 18;" xml:space="preserve">
<path id="close-web-service.default" style="&st2;" d="M17,11.5c0,1.933-1.567,3.5-3.5,3.5H8l1-1h4.5c1.379,0,2.5-1.122,2.5-2.5
	c0-0.983-0.584-1.878-1.488-2.281L13.794,8.9l0.127-0.701l1.065-1.063C14.995,7.256,15,7.377,15,7.5
	c0,0.276-0.034,0.543-0.081,0.806C16.143,8.851,17,10.073,17,11.5z M15.692,3.601L5.292,14H4c-1.103,0-2-0.897-2-2
	c0-0.866,0.563-1.627,1.4-1.893l0.913-0.29L4.062,8.892C4.02,8.735,4,8.611,4,8.5C4,7.673,4.673,7,5.5,7
	c0.129,0,0.269,0.025,0.44,0.078l0.944,0.294l0.304-0.941C7.658,4.977,8.989,4,10.499,4c0.935,0,1.785,0.368,2.414,0.967
	l0.708-0.709C12.811,3.479,11.712,3,10.5,3C8.498,3,6.821,4.316,6.237,6.123C6.003,6.05,5.758,6,5.5,6C4.119,6,3,7.119,3,8.5
	c0,0.228,0.04,0.444,0.097,0.654C1.885,9.539,1,10.66,1,12c0,1.657,1.343,3,3,3h0.292l-0.62,0.621l0.707,0.708L16.399,4.308
	L15.692,3.601z"/>
</svg>
