<?xml version="1.0" encoding="utf-8"?>
<!DOCTYPE svg PUBLIC "-//W3C//DTD SVG 1.1//EN" "http://www.w3.org/Graphics/SVG/1.1/DTD/svg11.dtd" [
	<!ENTITY st0 "fill:#FFFFFF;">
	<!ENTITY st1 "fill:#808080;">
	<!ENTITY st2 "fill:#636F80;">
	<!ENTITY st3 "opacity:0.2;fill:#FFFFFF;">
	<!ENTITY st4 "opacity:0.2;fill:#636F80;">
	<!ENTITY st5 "opacity:0.2;fill:#808080;">
	<!ENTITY st6 "fill-rule:evenodd;clip-rule:evenodd;fill:#FFFFFF;">
	<!ENTITY st7 "fill-rule:evenodd;clip-rule:evenodd;fill:#808080;">
	<!ENTITY st8 "fill-rule:evenodd;clip-rule:evenodd;fill:#636F80;">
	<!ENTITY st9 "fill:#F7931E;">
]>
<svg version="1.1" id="img" xmlns="http://www.w3.org/2000/svg" xmlns:xlink="http://www.w3.org/1999/xlink" x="0px" y="0px"
	 width="18px" height="18px" viewBox="0 0 18 18" style="enable-background:new 0 0 18 18;" xml:space="preserve">
<g id="get-column-list.default">
	<path style="&st2;" d="M15,15v1h-2v-1H15 M16,14h-4v3h4V14L16,14z"/>
	<path style="&st2;" d="M10,15v1H8v-1H10 M11,14H7v3h4V14L11,14z"/>
	<path style="&st2;" d="M5,15v1H3v-1H5 M6,14H2v3h4V14L6,14z"/>
	<path style="&st2;" d="M15,11v1h-2v-1H15 M16,10h-4v3h4V10L16,10z"/>
	<path style="&st2;" d="M10,11v1H8v-1H10 M11,10H7v3h4V10L11,10z"/>
	<path style="&st2;" d="M5,11v1H3v-1H5 M6,10H2v3h4V10L6,10z"/>
	<polygon style="&st2;" points="10.5,6 8,9 5.5,6 	"/>
	<g>
		<path style="&st2;" d="M12,2v1c-1.93,0-3.5,1.57-3.5,3.5h-1C7.5,4.019,9.519,2,12,2z"/>
	</g>
</g>
</svg>
