<?xml version="1.0" encoding="utf-8"?>
<!DOCTYPE svg PUBLIC "-//W3C//DTD SVG 1.1//EN" "http://www.w3.org/Graphics/SVG/1.1/DTD/svg11.dtd" [
	<!ENTITY st0 "fill:#FFFFFF;">
	<!ENTITY st1 "fill:#808080;">
	<!ENTITY st2 "fill:#636F80;">
	<!ENTITY st3 "opacity:0.2;fill:#FFFFFF;">
	<!ENTITY st4 "opacity:0.2;fill:#636F80;">
	<!ENTITY st5 "opacity:0.2;fill:#808080;">
	<!ENTITY st6 "fill-rule:evenodd;clip-rule:evenodd;fill:#FFFFFF;">
	<!ENTITY st7 "fill-rule:evenodd;clip-rule:evenodd;fill:#808080;">
	<!ENTITY st8 "fill-rule:evenodd;clip-rule:evenodd;fill:#636F80;">
	<!ENTITY st9 "fill:#F7931E;">
]>
<svg version="1.1" id="img" xmlns="http://www.w3.org/2000/svg" xmlns:xlink="http://www.w3.org/1999/xlink" x="0px" y="0px"
	 width="18px" height="18px" viewBox="0 0 18 18" style="enable-background:new 0 0 18 18;" xml:space="preserve">
<g id="icon-202.default">
	<rect x="13" y="4" style="&st2;" width="2" height="2"/>
	<path style="&st2;" d="M14,11c1.105,0,2,0.895,2,2s-0.895,2-2,2s-2-0.895-2-2S12.895,11,14,11 M14,10c-1.654,0-3,1.346-3,3
		s1.346,3,3,3s3-1.346,3-3S15.654,10,14,10L14,10z"/>
	<path style="&st2;" d="M16,3v4h-4V3H16 M17,2h-1h-4h-1v1v4v1h1h4h1V7V3V2L17,2z"/>
	<polygon style="&st2;" points="10,4 1,4 6,9.833 6,15 8,14 8,9.833 10,7.5 	"/>
</g>
</svg>
