<?xml version="1.0" encoding="utf-8"?>
<!DOCTYPE svg PUBLIC "-//W3C//DTD SVG 1.1//EN" "http://www.w3.org/Graphics/SVG/1.1/DTD/svg11.dtd" [
	<!ENTITY st0 "fill:#FFFFFF;">
	<!ENTITY st1 "fill:#808080;">
	<!ENTITY st2 "fill:#636F80;">
	<!ENTITY st3 "opacity:0.2;fill:#FFFFFF;">
	<!ENTITY st4 "opacity:0.2;fill:#636F80;">
	<!ENTITY st5 "opacity:0.2;fill:#808080;">
	<!ENTITY st6 "fill-rule:evenodd;clip-rule:evenodd;fill:#FFFFFF;">
	<!ENTITY st7 "fill-rule:evenodd;clip-rule:evenodd;fill:#808080;">
	<!ENTITY st8 "fill-rule:evenodd;clip-rule:evenodd;fill:#636F80;">
	<!ENTITY st9 "fill:#F7931E;">
]>
<svg version="1.1" id="img" xmlns="http://www.w3.org/2000/svg" xmlns:xlink="http://www.w3.org/1999/xlink" x="0px" y="0px"
	 width="18px" height="18px" viewBox="0 0 18 18" style="enable-background:new 0 0 18 18;" xml:space="preserve">
<g id="link-field.default">
	<path style="&st2;" d="M15.276,3.048l-0.324-0.324C14.469,2.241,13.836,2,13.203,2c-0.633,0-1.266,0.241-1.749,0.724L8.838,5.341
		c-0.901,0.902-0.95,2.32-0.169,3.291L8.631,8.669C8.18,8.307,7.638,8.114,7.089,8.114c-0.633,0-1.266,0.241-1.749,0.724
		l-2.616,2.616c-0.966,0.966-0.966,2.532,0,3.498l0.324,0.324C3.531,15.759,4.164,16,4.797,16c0.633,0,1.266-0.241,1.749-0.724
		l2.616-2.616c0.902-0.902,0.95-2.32,0.169-3.291l0.038-0.038c0.451,0.363,0.993,0.555,1.542,0.555c0.633,0,1.266-0.241,1.749-0.724
		l2.617-2.617C16.241,5.58,16.241,4.014,15.276,3.048z M8.897,10.911c0,0.396-0.154,0.769-0.435,1.049l-2.616,2.616
		c-0.28,0.28-0.653,0.435-1.049,0.435c-0.396,0-0.769-0.154-1.05-0.435l-0.323-0.323c-0.579-0.579-0.579-1.52,0-2.099L6.04,9.538
		c0.28-0.28,0.653-0.434,1.049-0.434c0.306,0,0.597,0.094,0.843,0.265l-2.339,2.339c-0.193,0.193-0.193,0.506,0,0.699
		c0.097,0.097,0.223,0.145,0.35,0.145s0.253-0.048,0.35-0.145l2.339-2.339C8.803,10.314,8.897,10.605,8.897,10.911z M14.576,5.846
		l-2.617,2.617c-0.28,0.28-0.653,0.434-1.049,0.434c-0.306,0-0.597-0.094-0.843-0.265l2.339-2.339c0.193-0.193,0.193-0.506,0-0.699
		c-0.193-0.193-0.506-0.193-0.699,0l-2.32,2.32C8.993,7.336,9.025,6.552,9.537,6.04l2.617-2.617c0.28-0.28,0.653-0.434,1.049-0.434
		c0.396,0,0.769,0.154,1.049,0.434l0.324,0.324C15.155,4.326,15.155,5.267,14.576,5.846z"/>
</g>
</svg>
