<?xml version="1.0" encoding="utf-8"?>
<!DOCTYPE svg PUBLIC "-//W3C//DTD SVG 1.1//EN" "http://www.w3.org/Graphics/SVG/1.1/DTD/svg11.dtd" [
	<!ENTITY st0 "fill:#FFFFFF;">
	<!ENTITY st1 "fill:#808080;">
	<!ENTITY st2 "fill:#636F80;">
	<!ENTITY st3 "opacity:0.2;fill:#FFFFFF;">
	<!ENTITY st4 "opacity:0.2;fill:#636F80;">
	<!ENTITY st5 "opacity:0.2;fill:#808080;">
	<!ENTITY st6 "fill-rule:evenodd;clip-rule:evenodd;fill:#FFFFFF;">
	<!ENTITY st7 "fill-rule:evenodd;clip-rule:evenodd;fill:#808080;">
	<!ENTITY st8 "fill-rule:evenodd;clip-rule:evenodd;fill:#636F80;">
	<!ENTITY st9 "fill:#F7931E;">
]>
<svg version="1.1" id="img" xmlns="http://www.w3.org/2000/svg" xmlns:xlink="http://www.w3.org/1999/xlink" x="0px" y="0px"
	 width="18px" height="18px" viewBox="0 0 18 18" style="enable-background:new 0 0 18 18;" xml:space="preserve">
<g id="sort-desc.default">
	<path style="&st2;" d="M2,7.148L5.334,2.35V2.309H2.312V1h5.079v0.914L4.129,6.65v0.041h3.313V8H2V7.148z"/>
	<path style="&st2;" d="M4.139,15.204L3.64,17H2l2.139-7h2.077l2.171,7H6.684l-0.54-1.796H4.139z M5.914,14.019l-0.436-1.486
		c-0.124-0.415-0.249-0.934-0.353-1.35H5.104C5,11.6,4.897,12.129,4.783,12.534l-0.415,1.486H5.914z"/>
	<polygon style="&st2;" points="13.5,1 16,4 11,4 	"/>
	<rect x="13" y="4" style="&st2;" width="1" height="13"/>
</g>
</svg>
