<?xml version="1.0" encoding="utf-8"?>
<!-- Generator: Adobe Illustrator 22.1.0, SVG Export Plug-In . SVG Version: 6.00 Build 0)  -->
<svg version="1.1" id="toolbar" xmlns="http://www.w3.org/2000/svg" xmlns:xlink="http://www.w3.org/1999/xlink" x="0px" y="0px"
	 width="18px" height="18px" viewBox="0 0 18 18" style="enable-background:new 0 0 18 18;" xml:space="preserve">
<style type="text/css">
	.st0{fill:#FFFFFF;}
	.st1{fill:#808080;}
	.st2{fill:#636F80;}
	.st3{fill-rule:evenodd;clip-rule:evenodd;fill:#FFFFFF;}
	.st4{fill-rule:evenodd;clip-rule:evenodd;fill:#808080;}
	.st5{fill-rule:evenodd;clip-rule:evenodd;fill:#636F80;}
	.st6{fill:#F7931E;}
</style>
<path id="publish-disabled" class="st1" d="M17,10.5c0,1.933-1.567,3.5-3.5,3.5H12v-1h1.5c1.379,0,2.5-1.122,2.5-2.5
	c0-0.983-0.584-1.878-1.488-2.281L13.794,7.9l0.14-0.773C13.979,6.882,14,6.683,14,6.5C14,4.57,12.43,3,10.5,3
	C8.99,3,7.659,3.977,7.189,5.431L6.885,6.372L5.94,6.078C5.769,6.025,5.629,6,5.5,6C4.673,6,4,6.673,4,7.5
	c0,0.111,0.02,0.235,0.062,0.392l0.251,0.925L3.4,9.107C2.562,9.373,2,10.133,2,11c0,1.103,0.897,2,2,2h2v1H4c-1.657,0-3-1.343-3-3
	c0-1.34,0.885-2.461,2.097-2.846C3.04,7.944,3,7.728,3,7.5C3,6.119,4.119,5,5.5,5c0.258,0,0.503,0.05,0.737,0.123
	C6.822,3.316,8.498,2,10.5,2C12.985,2,15,4.015,15,6.5c0,0.276-0.034,0.543-0.081,0.806C16.143,7.851,17,9.073,17,10.5z M8,14h2v-1
	H8V14z M8,16h2v-1H8V16z M9,7l-3,3h2v2h2v-2h2L9,7z"/>
</svg>
