<?xml version="1.0" encoding="utf-8"?>
<!-- Generator: Adobe Illustrator 22.1.0, SVG Export Plug-In . SVG Version: 6.00 Build 0)  -->
<svg version="1.1" id="toolbar" xmlns="http://www.w3.org/2000/svg" xmlns:xlink="http://www.w3.org/1999/xlink" x="0px" y="0px"
	 width="18px" height="18px" viewBox="0 0 18 18" style="enable-background:new 0 0 18 18;" xml:space="preserve">
<style type="text/css">
	.st0{fill:#FFFFFF;}
	.st1{fill:#808080;}
	.st2{fill:#636F80;}
	.st3{fill-rule:evenodd;clip-rule:evenodd;fill:#FFFFFF;}
	.st4{fill-rule:evenodd;clip-rule:evenodd;fill:#808080;}
	.st5{fill-rule:evenodd;clip-rule:evenodd;fill:#636F80;}
	.st6{fill:#F7931E;}
</style>
<g id="cut_default">
	<path class="st2" d="M13.421,10.842c-0.328,0-0.638,0.067-0.927,0.179l-1.965-1.867L15,4.947V2L9,7.701L3,2v2.947l4.471,4.207
		l-1.965,1.867c-0.289-0.111-0.6-0.179-0.927-0.179C3.154,10.842,2,11.998,2,13.421C2,14.845,3.154,16,4.579,16
		c1.424,0,2.579-1.155,2.579-2.579c0-0.327-0.067-0.638-0.179-0.926L9,10.593l2.021,1.902c-0.111,0.288-0.179,0.599-0.179,0.926
		c0,1.424,1.155,2.579,2.579,2.579C14.846,16,16,14.845,16,13.421C16,11.998,14.846,10.842,13.421,10.842z M4.579,14.526
		c-0.61,0-1.106-0.495-1.106-1.105c0-0.61,0.495-1.105,1.106-1.105c0.61,0,1.104,0.495,1.104,1.105
		C5.684,14.032,5.189,14.526,4.579,14.526z M9,9.5C8.724,9.5,8.5,9.276,8.5,9c0-0.276,0.224-0.5,0.5-0.5S9.5,8.724,9.5,9
		C9.5,9.276,9.276,9.5,9,9.5z M13.421,14.526c-0.61,0-1.105-0.495-1.105-1.105c0-0.61,0.494-1.105,1.105-1.105
		c0.61,0,1.105,0.495,1.105,1.105C14.526,14.032,14.031,14.526,13.421,14.526z"/>
</g>
</svg>
