<?xml version="1.0" encoding="utf-8"?>
<!-- Generator: Adobe Illustrator 22.1.0, SVG Export Plug-In . SVG Version: 6.00 Build 0)  -->
<svg version="1.1" id="toolbar" xmlns="http://www.w3.org/2000/svg" xmlns:xlink="http://www.w3.org/1999/xlink" x="0px" y="0px"
	 width="18px" height="18px" viewBox="0 0 18 18" style="enable-background:new 0 0 18 18;" xml:space="preserve">
<style type="text/css">
	.st0{fill:#FFFFFF;}
	.st1{fill:#808080;}
	.st2{fill:#636F80;}
	.st3{fill-rule:evenodd;clip-rule:evenodd;fill:#FFFFFF;}
	.st4{fill-rule:evenodd;clip-rule:evenodd;fill:#808080;}
	.st5{fill-rule:evenodd;clip-rule:evenodd;fill:#636F80;}
	.st6{fill:#F7931E;}
</style>
<g id="help_inverted">
	<g>
		<path class="st0" d="M11.382,7.11c0,0.379-0.051,0.686-0.152,0.922c-0.102,0.236-0.226,0.437-0.374,0.603
			c-0.147,0.166-0.311,0.307-0.49,0.423c-0.179,0.116-0.342,0.24-0.49,0.371C9.729,9.561,9.605,9.713,9.504,9.887
			c-0.101,0.174-0.152,0.396-0.152,0.667c-0.031,0.023-0.074,0.046-0.129,0.07c-0.046,0.016-0.105,0.031-0.174,0.046
			c-0.07,0.016-0.152,0.023-0.245,0.023c-0.093,0-0.175-0.008-0.245-0.023c-0.07-0.015-0.132-0.031-0.187-0.046
			C8.31,10.6,8.26,10.577,8.221,10.554c0-0.402,0.041-0.728,0.122-0.98c0.082-0.251,0.183-0.458,0.303-0.62
			c0.121-0.162,0.253-0.297,0.397-0.406C9.187,8.44,9.319,8.326,9.44,8.206c0.12-0.12,0.221-0.257,0.303-0.412
			C9.825,7.64,9.866,7.431,9.866,7.168c0-0.201-0.031-0.365-0.093-0.493C9.71,6.548,9.624,6.449,9.516,6.38
			C9.407,6.31,9.282,6.262,9.143,6.235c-0.14-0.027-0.292-0.041-0.455-0.041c-0.202,0-0.377,0.014-0.525,0.041
			c-0.148,0.027-0.276,0.06-0.385,0.099C7.653,6.372,7.549,6.415,7.463,6.461c-0.35-0.255-0.501-0.603-0.454-1.043
			C7.14,5.34,7.303,5.271,7.498,5.209c0.163-0.054,0.363-0.102,0.6-0.145C8.335,5.021,8.606,5,8.909,5
			c0.327,0,0.639,0.037,0.939,0.11c0.299,0.074,0.564,0.193,0.793,0.359c0.229,0.166,0.41,0.383,0.542,0.649
			C11.316,6.385,11.382,6.716,11.382,7.11z M9.527,12.907c-0.046,0.016-0.109,0.031-0.187,0.046
			c-0.062,0.016-0.14,0.027-0.233,0.035C9.014,12.996,8.909,13,8.792,13C8.66,13,8.55,12.996,8.46,12.988
			c-0.089-0.008-0.165-0.019-0.227-0.035c-0.07-0.015-0.128-0.031-0.175-0.046v-1.333c0.047-0.015,0.105-0.031,0.175-0.046
			c0.062-0.015,0.138-0.027,0.227-0.035c0.09-0.008,0.2-0.012,0.332-0.012c0.117,0,0.222,0.004,0.315,0.012
			c0.093,0.008,0.171,0.019,0.233,0.035c0.078,0.016,0.14,0.031,0.187,0.046V12.907z"/>
	</g>
	<g>
		<path class="st0" d="M9,17l-0.055-0.5L9,16c0.292,0,0.579-0.018,0.862-0.052l0.121,0.992C9.661,16.979,9.333,17,9,17z
			 M7.899,16.925c-0.344-0.047-0.688-0.118-1.023-0.21l0.264-0.964c0.292,0.08,0.591,0.142,0.897,0.184L7.899,16.925z
			 M11.011,16.745l-0.25-0.968c0.298-0.077,0.587-0.173,0.867-0.286l0.377,0.926C11.682,16.548,11.348,16.658,11.011,16.745z
			 M5.889,16.372c-0.319-0.134-0.634-0.292-0.934-0.469l0.506-0.863c0.262,0.154,0.534,0.291,0.816,0.411L5.889,16.372z
			 M12.946,15.962l-0.494-0.87c0.267-0.151,0.522-0.319,0.764-0.503l0.603,0.797C13.543,15.596,13.249,15.79,12.946,15.962z
			 M4.088,15.316c-0.273-0.214-0.534-0.445-0.778-0.693l0.711-0.703c0.215,0.218,0.444,0.42,0.685,0.608L4.088,15.316z
			 M14.609,14.704l-0.701-0.712c0.217-0.214,0.42-0.441,0.607-0.682l0.789,0.615C15.091,14.198,14.857,14.46,14.609,14.704z
			 M2.625,13.835c-0.211-0.278-0.404-0.572-0.576-0.873l0.869-0.495c0.151,0.266,0.319,0.521,0.504,0.763L2.625,13.835z
			 M15.894,13.061l-0.861-0.508c0.154-0.262,0.292-0.534,0.412-0.816l0.92,0.393C16.228,12.451,16.069,12.763,15.894,13.061z
			 M1.59,12.023c-0.131-0.321-0.242-0.655-0.33-0.994l0.967-0.252c0.078,0.297,0.174,0.587,0.289,0.866L1.59,12.023z M16.709,11.144
			l-0.963-0.269c0.081-0.292,0.143-0.59,0.186-0.896l0.99,0.143C16.872,10.471,16.801,10.815,16.709,11.144z M1.062,10.004
			C1.02,9.675,1,9.34,1,9l1-0.036V9c0,0.298,0.019,0.591,0.055,0.879L1.062,10.004z M15.999,9.073L16,8.979
			c0-0.289-0.021-0.593-0.06-0.892l0.992-0.13C16.978,8.3,17,8.65,17,9L15.999,9.073z M2.062,8.055l-0.99-0.136
			c0.047-0.345,0.117-0.69,0.208-1.023l0.965,0.262C2.166,7.45,2.105,7.748,2.062,8.055z M15.764,7.19
			c-0.079-0.297-0.178-0.587-0.293-0.867l0.924-0.382c0.134,0.323,0.246,0.656,0.336,0.991L15.764,7.19z M2.542,6.294L1.62,5.907
			c0.134-0.319,0.291-0.634,0.467-0.935L2.95,5.476C2.797,5.738,2.66,6.011,2.542,6.294z M15.066,5.504
			c-0.153-0.265-0.323-0.519-0.508-0.761l0.793-0.608c0.211,0.275,0.406,0.567,0.58,0.869L15.066,5.504z M3.463,4.719L2.672,4.106
			C2.884,3.832,3.116,3.57,3.363,3.324l0.705,0.709C3.852,4.248,3.649,4.477,3.463,4.719z M13.954,4.055
			c-0.215-0.216-0.444-0.418-0.686-0.604l0.611-0.792c0.276,0.214,0.54,0.445,0.784,0.69L13.954,4.055z M4.758,3.432L4.15,2.637
			c0.276-0.21,0.568-0.405,0.87-0.579l0.498,0.867C5.254,3.078,4.999,3.248,4.758,3.432z M12.509,2.942
			c-0.263-0.152-0.536-0.288-0.818-0.406l0.385-0.923c0.32,0.134,0.636,0.289,0.936,0.464L12.509,2.942z M6.341,2.523L5.96,1.598
			c0.319-0.132,0.653-0.244,0.991-0.333l0.256,0.967C6.91,2.31,6.62,2.408,6.341,2.523z M10.826,2.24
			c-0.292-0.078-0.591-0.139-0.896-0.18l0.131-0.991c0.346,0.046,0.691,0.116,1.025,0.205L10.826,2.24z M8.104,2.057L7.977,1.065
			C8.312,1.023,8.653,1,9,1l0.018,1L8.979,2C8.696,2,8.396,2.02,8.104,2.057z"/>
	</g>
</g>
</svg>
