<?xml version="1.0" encoding="utf-8"?>
<!-- Generator: Adobe Illustrator 22.1.0, SVG Export Plug-In . SVG Version: 6.00 Build 0)  -->
<svg version="1.1" id="toolbar" xmlns="http://www.w3.org/2000/svg" xmlns:xlink="http://www.w3.org/1999/xlink" x="0px" y="0px"
	 width="18px" height="18px" viewBox="0 0 18 18" style="enable-background:new 0 0 18 18;" xml:space="preserve">
<style type="text/css">
	.st0{fill:#FFFFFF;}
	.st1{fill:#808080;}
	.st2{fill:#636F80;}
	.st3{fill-rule:evenodd;clip-rule:evenodd;fill:#FFFFFF;}
	.st4{fill-rule:evenodd;clip-rule:evenodd;fill:#808080;}
	.st5{fill-rule:evenodd;clip-rule:evenodd;fill:#636F80;}
	.st6{fill:#F7931E;}
</style>
<g id="moveup_disabled">
	<rect x="8" y="9" transform="matrix(-1 9.094935e-11 -9.094935e-11 -1 18 22)" class="st1" width="2" height="4"/>
	<polygon class="st1" points="5,9 9,5 13,9 	"/>
	<g>
		<path class="st1" d="M9,1l0.055,0.5L9,2C8.708,2,8.421,2.018,8.138,2.052L8.017,1.06C8.339,1.02,8.667,1,9,1z M10.101,1.075
			c0.344,0.047,0.688,0.118,1.023,0.21L10.86,2.249c-0.292-0.08-0.591-0.142-0.897-0.184L10.101,1.075z M6.989,1.255l0.25,0.968
			C6.941,2.3,6.652,2.397,6.372,2.509L5.995,1.583C6.318,1.452,6.652,1.342,6.989,1.255z M12.111,1.628
			c0.319,0.134,0.634,0.292,0.934,0.469L12.539,2.96c-0.262-0.154-0.534-0.291-0.816-0.411L12.111,1.628z M5.054,2.038l0.494,0.87
			C5.281,3.059,5.026,3.227,4.784,3.41L4.181,2.613C4.457,2.404,4.751,2.21,5.054,2.038z M13.912,2.684
			c0.273,0.214,0.534,0.445,0.778,0.693l-0.711,0.703c-0.215-0.218-0.444-0.42-0.685-0.608L13.912,2.684z M3.391,3.296l0.701,0.712
			C3.875,4.223,3.672,4.45,3.484,4.69L2.695,4.075C2.909,3.802,3.143,3.54,3.391,3.296z M15.375,4.166
			c0.211,0.278,0.404,0.572,0.576,0.873l-0.869,0.495c-0.151-0.266-0.319-0.52-0.504-0.763L15.375,4.166z M2.106,4.938l0.861,0.508
			C2.813,5.708,2.676,5.98,2.556,6.262L1.636,5.87C1.773,5.549,1.931,5.237,2.106,4.938z M16.41,5.977
			c0.131,0.321,0.242,0.655,0.33,0.994l-0.967,0.252c-0.078-0.297-0.174-0.587-0.289-0.866L16.41,5.977z M1.291,6.856l0.963,0.269
			c-0.081,0.292-0.143,0.59-0.187,0.896l-0.99-0.143C1.128,7.529,1.199,7.185,1.291,6.856z M16.938,7.996C16.979,8.325,17,8.66,17,9
			l-1,0.036V9c0-0.298-0.019-0.591-0.055-0.879L16.938,7.996z M2.001,8.927L2,9.021c0,0.289,0.02,0.593,0.06,0.892l-0.992,0.13
			C1.023,9.7,1,9.35,1,9L2.001,8.927z M15.938,9.945l0.99,0.136c-0.047,0.345-0.117,0.69-0.208,1.023l-0.965-0.262
			C15.834,10.55,15.896,10.252,15.938,9.945z M2.236,10.81c0.079,0.297,0.178,0.587,0.293,0.867l-0.924,0.382
			c-0.134-0.323-0.246-0.656-0.336-0.991L2.236,10.81z M15.458,11.706l0.922,0.387c-0.134,0.319-0.291,0.634-0.467,0.935
			l-0.863-0.504C15.203,12.262,15.34,11.989,15.458,11.706z M2.934,12.496c0.153,0.265,0.323,0.519,0.508,0.761l-0.793,0.608
			c-0.211-0.275-0.406-0.567-0.58-0.869L2.934,12.496z M14.537,13.281l0.791,0.612c-0.212,0.274-0.444,0.537-0.691,0.783
			l-0.705-0.709C14.148,13.752,14.351,13.523,14.537,13.281z M4.046,13.945c0.215,0.216,0.444,0.418,0.687,0.604l-0.611,0.792
			c-0.276-0.214-0.54-0.445-0.784-0.69L4.046,13.945z M13.242,14.568l0.607,0.794c-0.276,0.21-0.568,0.405-0.87,0.579l-0.498-0.867
			C12.746,14.922,13.001,14.752,13.242,14.568z M5.491,15.058c0.263,0.152,0.536,0.288,0.818,0.406l-0.385,0.923
			c-0.32-0.134-0.636-0.289-0.936-0.464L5.491,15.058z M11.659,15.477l0.381,0.925c-0.319,0.132-0.653,0.244-0.991,0.333
			l-0.256-0.967C11.09,15.689,11.38,15.592,11.659,15.477z M7.174,15.76c0.292,0.078,0.591,0.139,0.897,0.18L7.939,16.93
			c-0.346-0.046-0.69-0.116-1.025-0.205L7.174,15.76z M9.896,15.943l0.127,0.992C9.688,16.978,9.347,17,9,17l-0.018-1l0.038,0
			C9.304,16,9.604,15.981,9.896,15.943z"/>
	</g>
</g>
</svg>
