<?xml version="1.0" encoding="utf-8"?>
<!-- Generator: Adobe Illustrator 22.1.0, SVG Export Plug-In . SVG Version: 6.00 Build 0)  -->
<svg version="1.1" id="toolbar" xmlns="http://www.w3.org/2000/svg" xmlns:xlink="http://www.w3.org/1999/xlink" x="0px" y="0px"
	 width="18px" height="18px" viewBox="0 0 18 18" style="enable-background:new 0 0 18 18;" xml:space="preserve">
<style type="text/css">
	.st0{fill:#FFFFFF;}
	.st1{fill:#808080;}
	.st2{fill:#636F80;}
	.st3{fill-rule:evenodd;clip-rule:evenodd;fill:#FFFFFF;}
	.st4{fill-rule:evenodd;clip-rule:evenodd;fill:#808080;}
	.st5{fill-rule:evenodd;clip-rule:evenodd;fill:#636F80;}
	.st6{fill:#F7931E;}
</style>
<g id="tree_default">
	<rect x="8" y="14" class="st2" width="1" height="1"/>
	<rect x="6" y="14" class="st2" width="1" height="1"/>
	<rect x="4" y="14" class="st2" width="1" height="1"/>
	<rect x="4" y="12" class="st2" width="1" height="1"/>
	<rect x="8" y="10" class="st2" width="1" height="1"/>
	<rect x="6" y="10" class="st2" width="1" height="1"/>
	<rect x="4" y="10" class="st2" width="1" height="1"/>
	<rect x="4" y="8" class="st2" width="1" height="1"/>
	<rect x="8" y="6" class="st2" width="1" height="1"/>
	<rect x="6" y="6" class="st2" width="1" height="1"/>
	<rect x="4" y="6" class="st2" width="1" height="1"/>
	<path class="st2" d="M15,14v1h-3v-1H15 M16,13h-5v3h5V13L16,13z"/>
	<path class="st2" d="M15,10v1h-3v-1H15 M16,9h-5v3h5V9L16,9z"/>
	<path class="st2" d="M15,6v1h-3V6H15 M16,5h-5v3h5V5L16,5z"/>
	<path class="st2" d="M6,3v1H3V3H6 M7,2H2v3h5V2L7,2z"/>
</g>
</svg>
