<?xml version="1.0" encoding="utf-8"?>
<!-- Generator: Adobe Illustrator 22.1.0, SVG Export Plug-In . SVG Version: 6.00 Build 0)  -->
<svg version="1.1" id="toolbar" xmlns="http://www.w3.org/2000/svg" xmlns:xlink="http://www.w3.org/1999/xlink" x="0px" y="0px"
	 width="18px" height="18px" viewBox="0 0 18 18" style="enable-background:new 0 0 18 18;" xml:space="preserve">
<style type="text/css">
	.st0{fill:#FFFFFF;}
	.st1{fill:#808080;}
	.st2{fill:#636F80;}
	.st3{fill-rule:evenodd;clip-rule:evenodd;fill:#FFFFFF;}
	.st4{fill-rule:evenodd;clip-rule:evenodd;fill:#808080;}
	.st5{fill-rule:evenodd;clip-rule:evenodd;fill:#636F80;}
	.st6{fill:#F7931E;}
</style>
<g id="recommended_default">
	<polygon class="st2" points="14.226,13.677 16,12.4 13.8,12.4 13,10 12.2,12.4 10,12.4 11.774,13.677 11,16 13,14.56 15,16 	"/>
	<polygon class="st2" points="6.226,13.677 8,12.4 5.8,12.4 5,10 4.2,12.4 2,12.4 3.774,13.677 3,16 5,14.56 7,16 	"/>
	<polygon class="st2" points="14.226,5.677 16,4.4 13.8,4.4 13,2 12.2,4.4 10,4.4 11.774,5.677 11,8 13,6.56 15,8 	"/>
	<polygon class="st2" points="6.226,5.677 8,4.4 5.8,4.4 5,2 4.2,4.4 2,4.4 3.774,5.677 3,8 5,6.56 7,8 	"/>
</g>
</svg>
