<?xml version="1.0" encoding="utf-8"?>
<!-- Generator: Adobe Illustrator 22.1.0, SVG Export Plug-In . SVG Version: 6.00 Build 0)  -->
<svg version="1.1" id="toolbar" xmlns="http://www.w3.org/2000/svg" xmlns:xlink="http://www.w3.org/1999/xlink" x="0px" y="0px"
	 width="18px" height="18px" viewBox="0 0 18 18" style="enable-background:new 0 0 18 18;" xml:space="preserve">
<style type="text/css">
	.st0{fill:#FFFFFF;}
	.st1{fill:#808080;}
	.st2{fill:#636F80;}
	.st3{fill-rule:evenodd;clip-rule:evenodd;fill:#FFFFFF;}
	.st4{fill-rule:evenodd;clip-rule:evenodd;fill:#808080;}
	.st5{fill-rule:evenodd;clip-rule:evenodd;fill:#636F80;}
	.st6{fill:#F7931E;}
</style>
<g id="show-data-type_default">
	<path class="st2" d="M7,4.072l1.134,1.964L9.268,8H7H4.732l1.134-1.964L7,4.072 M7,2.072L5,5.536L3,9h4h4L9,5.536L7,2.072L7,2.072z
		"/>
	<path class="st2" d="M12,6c-0.418,0-0.814,0.082-1.193,0.201l0.511,0.885C11.537,7.034,11.765,7,12,7c1.654,0,3,1.346,3,3
		s-1.346,3-3,3s-3-1.346-3-3H8c0,2.209,1.791,4,4,4s4-1.791,4-4S14.209,6,12,6z"/>
	<path class="st2" d="M7,12.281V15H3v-4h3.596C6.535,10.675,6.5,10.342,6.5,10H2v6h6v-2.233C7.59,13.332,7.252,12.831,7,12.281z"/>
</g>
</svg>
