<?xml version="1.0" encoding="utf-8"?>
<!-- Generator: Adobe Illustrator 22.1.0, SVG Export Plug-In . SVG Version: 6.00 Build 0)  -->
<svg version="1.1" id="toolbar" xmlns="http://www.w3.org/2000/svg" xmlns:xlink="http://www.w3.org/1999/xlink" x="0px" y="0px"
	 width="18px" height="18px" viewBox="0 0 18 18" style="enable-background:new 0 0 18 18;" xml:space="preserve">
<style type="text/css">
	.st0{fill:#FFFFFF;}
	.st1{fill:#808080;}
	.st2{fill:#636F80;}
	.st3{fill-rule:evenodd;clip-rule:evenodd;fill:#FFFFFF;}
	.st4{fill-rule:evenodd;clip-rule:evenodd;fill:#808080;}
	.st5{fill-rule:evenodd;clip-rule:evenodd;fill:#636F80;}
	.st6{fill:#F7931E;}
</style>
<g id="visible_default">
	<path class="st2" d="M9,7C8.742,7,8.496,7.051,8.27,7.14c0.309,0.135,0.525,0.443,0.525,0.801c0,0.483-0.391,0.874-0.874,0.874
		c-0.353,0-0.656-0.21-0.794-0.511C7.046,8.521,7,8.755,7,9c0,1.105,0.895,2,2,2c1.105,0,2-0.895,2-2C11,7.895,10.105,7,9,7z"/>
	<g>
		<path class="st2" d="M9,4C4.079,4,2,9,2,9s2.18,5,7,5c4.82,0,7-5,7-5S13.921,4,9,4z M9,13c-2.209,0-4-1.791-4-4
			c0-2.209,1.791-4,4-4c2.209,0,4,1.791,4,4C13,11.209,11.209,13,9,13z"/>
	</g>
</g>
</svg>
