<?xml version="1.0" encoding="utf-8"?>
<!-- Generator: Adobe Illustrator 22.1.0, SVG Export Plug-In . SVG Version: 6.00 Build 0)  -->
<svg version="1.1" id="toolbar" xmlns="http://www.w3.org/2000/svg" xmlns:xlink="http://www.w3.org/1999/xlink" x="0px" y="0px"
	 width="18px" height="18px" viewBox="0 0 18 18" style="enable-background:new 0 0 18 18;" xml:space="preserve">
<style type="text/css">
	.st0{fill:#FFFFFF;}
	.st1{fill:#808080;}
	.st2{fill:#636F80;}
	.st3{fill-rule:evenodd;clip-rule:evenodd;fill:#FFFFFF;}
	.st4{fill-rule:evenodd;clip-rule:evenodd;fill:#808080;}
	.st5{fill-rule:evenodd;clip-rule:evenodd;fill:#636F80;}
	.st6{fill:#F7931E;}
</style>
<g id="null-count_default">
	<path class="st2" d="M12.737,6.2c-0.175-0.681-0.416-1.258-0.724-1.733c-0.308-0.474-0.697-0.837-1.169-1.089
		C10.373,3.126,9.824,3,9.199,3C8.352,3,7.648,3.228,7.088,3.684C6.529,4.14,6.107,4.788,5.824,5.628
		C5.54,6.468,5.398,7.577,5.398,8.956c0,2.189,0.385,3.769,1.153,4.739c0.641,0.806,1.523,1.208,2.647,1.208
		c0.854,0,1.56-0.229,2.119-0.688c0.559-0.458,0.979-1.108,1.26-1.948C12.859,11.427,13,10.323,13,8.956
		C13,7.8,12.912,6.882,12.737,6.2z M7.608,5.019c0.393-0.557,0.918-0.834,1.575-0.834c0.668,0,1.226,0.314,1.674,0.945
		c0.211,0.297,0.37,0.742,0.481,1.323L6.963,10.83C6.9,10.294,6.869,9.67,6.869,8.956C6.869,7.042,7.116,5.73,7.608,5.019z
		 M10.857,12.773c-0.448,0.636-1.001,0.954-1.658,0.954s-1.21-0.317-1.658-0.95c-0.137-0.193-0.25-0.454-0.345-0.766l4.295-4.294
		c0.024,0.379,0.038,0.79,0.038,1.239C11.529,10.865,11.305,12.136,10.857,12.773z"/>
	<rect x="2" y="3" class="st2" width="1" height="12"/>
	<rect x="15" y="3" class="st2" width="1" height="12"/>
</g>
</svg>
