<?xml version="1.0" encoding="utf-8"?>
<!-- Generator: Adobe Illustrator 22.1.0, SVG Export Plug-In . SVG Version: 6.00 Build 0)  -->
<svg version="1.1" id="toolbar" xmlns="http://www.w3.org/2000/svg" xmlns:xlink="http://www.w3.org/1999/xlink" x="0px" y="0px"
	 width="18px" height="18px" viewBox="0 0 18 18" style="enable-background:new 0 0 18 18;" xml:space="preserve">
<style type="text/css">
	.st0{fill:#FFFFFF;}
	.st1{fill:#808080;}
	.st2{fill:#636F80;}
	.st3{fill-rule:evenodd;clip-rule:evenodd;fill:#FFFFFF;}
	.st4{fill-rule:evenodd;clip-rule:evenodd;fill:#808080;}
	.st5{fill-rule:evenodd;clip-rule:evenodd;fill:#636F80;}
	.st6{fill:#F7931E;}
</style>
<g id="show-total-row_inverted">
	<rect x="11" y="10" class="st0" width="4" height="6"/>
	<rect x="6" y="11" class="st0" width="4" height="4"/>
	<rect x="5.5" y="6.5" transform="matrix(6.123234e-17 -1 1 6.123234e-17 -4.5 16.5)" class="st0" width="1" height="8"/>
	<rect x="8.5" y="-1.5" transform="matrix(6.123234e-17 -1 1 6.123234e-17 3.5 14.5)" class="st0" width="1" height="14"/>
	<rect x="10" y="3" class="st0" width="1" height="7"/>
	<rect x="5" y="3" class="st0" width="1" height="12"/>
	<rect x="15" y="3" transform="matrix(-1 -1.224647e-16 1.224647e-16 -1 31 19)" class="st0" width="1" height="13"/>
	<rect x="2" y="3" transform="matrix(-1 -1.224647e-16 1.224647e-16 -1 5 19)" class="st0" width="1" height="13"/>
	<rect x="5.5" y="11.5" transform="matrix(-1.836970e-16 1 -1 -1.836970e-16 21.5 9.5)" class="st0" width="1" height="8"/>
	<rect x="8.5" y="-4.5" transform="matrix(-1.836970e-16 1 -1 -1.836970e-16 11.5 -6.5)" class="st0" width="1" height="14"/>
</g>
</svg>
