<?xml version="1.0" encoding="utf-8"?>
<!-- Generator: Adobe Illustrator 22.1.0, SVG Export Plug-In . SVG Version: 6.00 Build 0)  -->
<svg version="1.1" id="toolbar" xmlns="http://www.w3.org/2000/svg" xmlns:xlink="http://www.w3.org/1999/xlink" x="0px" y="0px"
	 width="18px" height="18px" viewBox="0 0 18 18" style="enable-background:new 0 0 18 18;" xml:space="preserve">
<style type="text/css">
	.st0{fill:#FFFFFF;}
	.st1{fill:#808080;}
	.st2{fill:#636F80;}
	.st3{fill-rule:evenodd;clip-rule:evenodd;fill:#FFFFFF;}
	.st4{fill-rule:evenodd;clip-rule:evenodd;fill:#808080;}
	.st5{fill-rule:evenodd;clip-rule:evenodd;fill:#636F80;}
	.st6{fill:#F7931E;}
</style>
<g id="Монтажная_область_4731">
	<g>
		<path class="st1" d="M12,6.765c0-1.234-0.764-2.285-1.842-2.719C10.086,3.46,9.605,3,9,3S7.914,3.46,7.842,4.046
			C6.764,4.48,6,5.531,6,6.765V10l-1,3h8l-1-3V6.765z"/>
		<path class="st1" d="M9,15c0.552,0,1-0.448,1-1H8C8,14.552,8.448,15,9,15z"/>
		<path class="st1" d="M3.215,6.208C2.454,6.832,2,7.876,2,9s0.454,2.168,1.215,2.792l0.635-0.773C3.317,10.583,3,9.828,3,9
			c0-0.828,0.317-1.583,0.85-2.019L3.215,6.208z"/>
		<path class="st1" d="M4.888,9c0-0.145,0.056-0.256,0.112-0.302L4.366,7.925C4.066,8.17,3.888,8.572,3.888,9
			c0,0.428,0.179,0.831,0.479,1.076L5,9.302C4.944,9.256,4.888,9.145,4.888,9z"/>
		<path class="st1" d="M14.785,6.208L14.15,6.981C14.683,7.417,15,8.172,15,9c0,0.828-0.317,1.583-0.85,2.019l0.635,0.773
			C15.546,11.168,16,10.124,16,9S15.546,6.832,14.785,6.208z"/>
		<path class="st1" d="M13,8.698C13.056,8.744,13.112,8.855,13.112,9S13.056,9.256,13,9.302l0.634,0.773
			c0.3-0.245,0.479-0.647,0.479-1.075c0-0.428-0.179-0.831-0.479-1.076L13,8.698z"/>
	</g>
</g>
</svg>
