<?xml version="1.0" encoding="utf-8"?>
<!-- Generator: Adobe Illustrator 22.1.0, SVG Export Plug-In . SVG Version: 6.00 Build 0)  -->
<svg version="1.1" id="toolbar" xmlns="http://www.w3.org/2000/svg" xmlns:xlink="http://www.w3.org/1999/xlink" x="0px" y="0px"
	 width="18px" height="18px" viewBox="0 0 18 18" style="enable-background:new 0 0 18 18;" xml:space="preserve">
<style type="text/css">
	.st0{fill:#FFFFFF;}
	.st1{fill:#808080;}
	.st2{fill:#636F80;}
	.st3{fill-rule:evenodd;clip-rule:evenodd;fill:#FFFFFF;}
	.st4{fill-rule:evenodd;clip-rule:evenodd;fill:#808080;}
	.st5{fill-rule:evenodd;clip-rule:evenodd;fill:#636F80;}
	.st6{fill:#F7931E;}
</style>
<g id="col-sum_default">
	<rect x="3" y="14" transform="matrix(-1.836970e-16 1 -1 -1.836970e-16 19 10)" class="st2" width="3" height="1"/>
	<rect x="6" y="14" transform="matrix(-1.836970e-16 1 -1 -1.836970e-16 22 7)" class="st2" width="3" height="1"/>
	<rect x="9" y="14" transform="matrix(-1.836970e-16 1 -1 -1.836970e-16 25 4)" class="st2" width="3" height="1"/>
	<rect x="12" y="14" transform="matrix(-1.836970e-16 1 -1 -1.836970e-16 28 1)" class="st2" width="3" height="1"/>
	<g>
		<g>
			<path class="st2" d="M5.088,2h6.399v0.853H6.378l3.138,4.032l-3.359,4.278h5.383V12H5v-0.972l3.207-4.101L5.088,2.911V2z"/>
		</g>
	</g>
</g>
</svg>
