<?xml version="1.0" encoding="utf-8"?>
<!-- Generator: Adobe Illustrator 22.1.0, SVG Export Plug-In . SVG Version: 6.00 Build 0)  -->
<svg version="1.1" id="toolbar" xmlns="http://www.w3.org/2000/svg" xmlns:xlink="http://www.w3.org/1999/xlink" x="0px" y="0px"
	 width="18px" height="18px" viewBox="0 0 18 18" style="enable-background:new 0 0 18 18;" xml:space="preserve">
<style type="text/css">
	.st0{fill:#FFFFFF;}
	.st1{fill:#808080;}
	.st2{fill:#636F80;}
	.st3{fill-rule:evenodd;clip-rule:evenodd;fill:#FFFFFF;}
	.st4{fill-rule:evenodd;clip-rule:evenodd;fill:#808080;}
	.st5{fill-rule:evenodd;clip-rule:evenodd;fill:#636F80;}
	.st6{fill:#F7931E;}
</style>
<g id="format_default">
	<g>
		<path class="st2" d="M9.764,11.016L7.412,8.534c0,0,2.042-0.866,2.758-1.621c0.717-0.756,4.295-4.533,4.295-4.533
			s0.716-0.755,1.304-0.135c0.587,0.62-0.129,1.375-0.129,1.375s-3.578,3.777-4.294,4.532C10.63,8.909,9.764,11.016,9.764,11.016z"
			/>
		<path class="st2" d="M2,15.798c1.828-0.476,1.649-2.039,2.736-4.782c0.534-1.348,1.961-1.727,1.961-1.727l2.351,2.481
			C9.048,11.771,9.048,17.09,2,15.798z"/>
	</g>
</g>
</svg>
