<?xml version="1.0" encoding="utf-8"?>
<!-- Generator: Adobe Illustrator 22.1.0, SVG Export Plug-In . SVG Version: 6.00 Build 0)  -->
<svg version="1.1" id="toolbar" xmlns="http://www.w3.org/2000/svg" xmlns:xlink="http://www.w3.org/1999/xlink" x="0px" y="0px"
	 width="18px" height="18px" viewBox="0 0 18 18" style="enable-background:new 0 0 18 18;" xml:space="preserve">
<style type="text/css">
	.st0{fill:#FFFFFF;}
	.st1{fill:#808080;}
	.st2{fill:#636F80;}
	.st3{fill-rule:evenodd;clip-rule:evenodd;fill:#FFFFFF;}
	.st4{fill-rule:evenodd;clip-rule:evenodd;fill:#808080;}
	.st5{fill-rule:evenodd;clip-rule:evenodd;fill:#636F80;}
	.st6{fill:#F7931E;}
</style>
<g id="derive-node_default">
	<rect x="11" y="13" class="st2" width="5" height="1"/>
	<rect x="13" y="11" class="st2" width="1" height="5"/>
	<path class="st2" d="M6.826,12.906L3.82,9.9c-0.182-0.182-0.182-0.478,0-0.66l0.146-0.146c0.182-0.182,0.478-0.182,0.66,0
		L7.633,12.1c0.182,0.182,0.182,0.478,0,0.66l-0.146,0.146C7.304,13.088,7.008,13.088,6.826,12.906z"/>
	<path class="st2" d="M10.373,5.899l3.007,3.007c0.182,0.182,0.478,0.182,0.66,0l0.145-0.145c0.182-0.182,0.182-0.478,0-0.66
		l-3.007-3.007c-0.182-0.182-0.478-0.182-0.66,0l-0.145,0.145C10.191,5.421,10.191,5.717,10.373,5.899z"/>
	<g>
		<path class="st2" d="M7.218,16c-0.119,0-0.239-0.046-0.33-0.137c-0.182-0.182-0.182-0.478,0-0.66
			c2.422-2.422,2.051-4.216,1.658-6.116c-0.405-1.96-0.864-4.181,1.906-6.951c0.182-0.182,0.478-0.182,0.66,0s0.182,0.478,0,0.66
			C8.698,5.21,9.068,7.002,9.46,8.898c0.406,1.963,0.866,4.187-1.912,6.965C7.457,15.954,7.338,16,7.218,16z"/>
	</g>
	<g>
		<path class="st2" d="M7.623,9.226C7.559,8.918,7.495,8.598,7.44,8.267c-1.543-0.146-3.27,0.152-5.303,2.185
			c-0.182,0.182-0.182,0.478,0,0.66c0.091,0.091,0.211,0.137,0.33,0.137s0.239-0.046,0.33-0.137
			C4.675,9.233,6.168,9.035,7.623,9.226z"/>
		<path class="st2" d="M15.863,6.888c-0.182-0.182-0.478-0.182-0.66,0c-1.876,1.875-3.365,2.082-4.813,1.897
			c0.064,0.308,0.127,0.628,0.181,0.958c1.541,0.141,3.264-0.165,5.292-2.194C16.046,7.366,16.046,7.07,15.863,6.888z"/>
	</g>
</g>
</svg>
