<?xml version="1.0" encoding="utf-8"?>
<!-- Generator: Adobe Illustrator 22.1.0, SVG Export Plug-In . SVG Version: 6.00 Build 0)  -->
<svg version="1.1" id="toolbar" xmlns="http://www.w3.org/2000/svg" xmlns:xlink="http://www.w3.org/1999/xlink" x="0px" y="0px"
	 width="18px" height="18px" viewBox="0 0 18 18" style="enable-background:new 0 0 18 18;" xml:space="preserve">
<style type="text/css">
	.st0{fill:#FFFFFF;}
	.st1{fill:#808080;}
	.st2{fill:#636F80;}
	.st3{fill-rule:evenodd;clip-rule:evenodd;fill:#FFFFFF;}
	.st4{fill-rule:evenodd;clip-rule:evenodd;fill:#808080;}
	.st5{fill-rule:evenodd;clip-rule:evenodd;fill:#636F80;}
	.st6{fill:#F7931E;}
</style>
<g id="stop-all_default">
	<g>
		<g>
			<polygon class="st2" points="17,14 15,14 15,10 13,10 13,14 11,14 14,17 			"/>
		</g>
		<path class="st2" d="M9,17l-0.055-0.5L9,16c0.292,0,0.579-0.018,0.862-0.052l0.121,0.992C9.661,16.979,9.333,17,9,17z"/>
		<path class="st2" d="M7.899,16.925c-0.344-0.047-0.688-0.118-1.023-0.21l0.264-0.964c0.292,0.08,0.591,0.142,0.897,0.184
			L7.899,16.925z"/>
		<path class="st2" d="M5.889,16.372c-0.319-0.134-0.634-0.292-0.934-0.469l0.506-0.863c0.262,0.154,0.534,0.291,0.816,0.411
			L5.889,16.372z"/>
		<path class="st2" d="M4.088,15.316c-0.273-0.214-0.534-0.445-0.778-0.693l0.711-0.703c0.215,0.218,0.444,0.42,0.685,0.608
			L4.088,15.316z"/>
		<path class="st2" d="M2.625,13.835c-0.211-0.278-0.404-0.572-0.576-0.873l0.869-0.495c0.151,0.266,0.319,0.521,0.504,0.763
			L2.625,13.835z"/>
		<path class="st2" d="M1.59,12.023c-0.131-0.321-0.242-0.655-0.33-0.994l0.967-0.252c0.078,0.297,0.174,0.587,0.289,0.866
			L1.59,12.023z"/>
		<path class="st2" d="M1.062,10.004C1.02,9.675,1,9.34,1,9l1-0.036V9c0,0.298,0.019,0.591,0.055,0.879L1.062,10.004z"/>
		<path class="st2" d="M15.999,9.073L16,8.979c0-0.289-0.021-0.593-0.06-0.892l0.992-0.13C16.978,8.3,17,8.65,17,9L15.999,9.073z"/>
		<path class="st2" d="M2.062,8.055l-0.99-0.136c0.047-0.345,0.117-0.69,0.208-1.023l0.965,0.262
			C2.166,7.45,2.105,7.748,2.062,8.055z"/>
		<path class="st2" d="M15.764,7.19c-0.079-0.297-0.178-0.587-0.293-0.867l0.924-0.382c0.134,0.323,0.246,0.656,0.336,0.991
			L15.764,7.19z"/>
		<path class="st2" d="M2.542,6.294L1.62,5.907c0.134-0.319,0.291-0.634,0.467-0.935L2.95,5.476C2.797,5.738,2.66,6.011,2.542,6.294
			z"/>
		<path class="st2" d="M15.066,5.504c-0.153-0.265-0.323-0.519-0.508-0.761l0.793-0.608c0.211,0.275,0.406,0.567,0.58,0.869
			L15.066,5.504z"/>
		<path class="st2" d="M3.463,4.719L2.672,4.106C2.884,3.832,3.116,3.57,3.363,3.324l0.705,0.709
			C3.852,4.248,3.649,4.477,3.463,4.719z"/>
		<path class="st2" d="M13.954,4.055c-0.215-0.216-0.444-0.418-0.686-0.604l0.611-0.792c0.276,0.214,0.54,0.445,0.784,0.69
			L13.954,4.055z"/>
		<path class="st2" d="M4.758,3.432L4.15,2.637c0.276-0.21,0.568-0.405,0.87-0.579l0.498,0.867C5.254,3.078,4.999,3.248,4.758,3.432
			z"/>
		<path class="st2" d="M12.509,2.942c-0.263-0.152-0.536-0.288-0.818-0.406l0.385-0.923c0.32,0.134,0.636,0.289,0.936,0.464
			L12.509,2.942z"/>
		<path class="st2" d="M6.341,2.523L5.96,1.598c0.319-0.132,0.653-0.244,0.991-0.333l0.256,0.967C6.91,2.31,6.62,2.408,6.341,2.523z
			"/>
		<path class="st2" d="M10.826,2.24c-0.292-0.078-0.591-0.139-0.896-0.18l0.131-0.991c0.346,0.046,0.691,0.116,1.025,0.205
			L10.826,2.24z"/>
		<path class="st2" d="M8.104,2.057L7.977,1.065C8.312,1.023,8.653,1,9,1l0.018,1L8.979,2C8.696,2,8.396,2.02,8.104,2.057z"/>
		<rect x="7" y="7" class="st2" width="4" height="4"/>
	</g>
</g>
</svg>
