<?xml version="1.0" encoding="utf-8"?>
<!-- Generator: Adobe Illustrator 22.1.0, SVG Export Plug-In . SVG Version: 6.00 Build 0)  -->
<svg version="1.1" id="toolbar" xmlns="http://www.w3.org/2000/svg" xmlns:xlink="http://www.w3.org/1999/xlink" x="0px" y="0px"
	 width="18px" height="18px" viewBox="0 0 18 18" style="enable-background:new 0 0 18 18;" xml:space="preserve">
<style type="text/css">
	.st0{fill:#FFFFFF;}
	.st1{fill:#808080;}
	.st2{fill:#636F80;}
	.st3{fill-rule:evenodd;clip-rule:evenodd;fill:#FFFFFF;}
	.st4{fill-rule:evenodd;clip-rule:evenodd;fill:#808080;}
	.st5{fill-rule:evenodd;clip-rule:evenodd;fill:#636F80;}
	.st6{fill:#F7931E;}
</style>
<g id="hand_inverted">
	<path class="st0" d="M14.559,7.642l-0.012-0.009c-0.455-0.341-1.108-0.238-1.434,0.225L12.101,9.3
		c-0.132,0.189-0.386,0.252-0.595,0.153c-0.222-0.108-0.363-0.332-0.363-0.574V3.962c0-0.491-0.406-0.889-0.907-0.889
		c-0.501,0-0.907,0.398-0.907,0.889V8.06c0,0.148-0.123,0.269-0.275,0.269c-0.152,0-0.275-0.122-0.275-0.269V2.784
		C8.777,2.352,8.421,2,7.979,2c-0.44,0-0.798,0.352-0.798,0.784v5.269c0,0.153-0.127,0.277-0.283,0.277
		c-0.155,0-0.282-0.123-0.282-0.277V3.681c0-0.427-0.352-0.774-0.787-0.774c-0.436,0-0.788,0.347-0.788,0.774V8.06
		c0,0.148-0.123,0.269-0.274,0.269S4.492,8.208,4.492,8.06V5.123c0-0.403-0.334-0.731-0.746-0.731S3,4.719,3,5.123v6.585
		c0,0.678,0.161,1.35,0.469,1.957l0.553,1.09C4.408,15.518,5.202,16,6.071,16h2.855c0.766,0,1.481-0.377,1.906-1.002l3.981-5.872
		C15.141,8.644,15.029,7.993,14.559,7.642z"/>
</g>
</svg>
