<?xml version="1.0" encoding="utf-8"?>
<!-- Generator: Adobe Illustrator 22.1.0, SVG Export Plug-In . SVG Version: 6.00 Build 0)  -->
<svg version="1.1" id="toolbar" xmlns="http://www.w3.org/2000/svg" xmlns:xlink="http://www.w3.org/1999/xlink" x="0px" y="0px"
	 width="18px" height="18px" viewBox="0 0 18 18" style="enable-background:new 0 0 18 18;" xml:space="preserve">
<style type="text/css">
	.st0{fill:#FFFFFF;}
	.st1{fill:#808080;}
	.st2{fill:#636F80;}
	.st3{fill-rule:evenodd;clip-rule:evenodd;fill:#FFFFFF;}
	.st4{fill-rule:evenodd;clip-rule:evenodd;fill:#808080;}
	.st5{fill-rule:evenodd;clip-rule:evenodd;fill:#636F80;}
	.st6{fill:#F7931E;}
</style>
<g id="locked_default">
	<path class="st2" d="M13.398,8H13V5.033C13,3.36,11.64,2,9.967,2H8.033C6.361,2,5,3.36,5,5.033V8H4.602C4.27,8,4,8.27,4,8.602
		v6.796C4,15.73,4.27,16,4.602,16h8.796C13.73,16,14,15.73,14,15.398V8.602C14,8.27,13.73,8,13.398,8z M11,8H7V5.127
		C7,4.506,7.506,4,8.127,4h1.746C10.495,4,11,4.506,11,5.127V8z"/>
</g>
</svg>
