<?xml version="1.0" encoding="utf-8"?>
<!-- Generator: Adobe Illustrator 22.1.0, SVG Export Plug-In . SVG Version: 6.00 Build 0)  -->
<svg version="1.1" id="toolbar" xmlns="http://www.w3.org/2000/svg" xmlns:xlink="http://www.w3.org/1999/xlink" x="0px" y="0px"
	 width="18px" height="18px" viewBox="0 0 18 18" style="enable-background:new 0 0 18 18;" xml:space="preserve">
<style type="text/css">
	.st0{fill:#FFFFFF;}
	.st1{fill:#808080;}
	.st2{fill:#636F80;}
	.st3{fill-rule:evenodd;clip-rule:evenodd;fill:#FFFFFF;}
	.st4{fill-rule:evenodd;clip-rule:evenodd;fill:#808080;}
	.st5{fill-rule:evenodd;clip-rule:evenodd;fill:#636F80;}
	.st6{fill:#F7931E;}
</style>
<g id="tune_disabled">
	<path class="st1" d="M14,13H7.723C7.376,12.405,6.738,12,6,12s-1.376,0.405-1.723,1H4c-0.553,0-1,0.448-1,1c0,0.552,0.447,1,1,1
		h0.277C4.624,15.595,5.262,16,6,16s1.376-0.405,1.723-1H14c0.552,0,1-0.448,1-1C15,13.448,14.552,13,14,13z M6,15
		c-0.553,0-1-0.448-1-1c0-0.552,0.447-1,1-1c0.552,0,1,0.448,1,1C7,14.552,6.552,15,6,15z"/>
	<path class="st1" d="M14,8h-0.277C13.376,7.405,12.738,7,12,7s-1.376,0.405-1.723,1H4C3.447,8,3,8.448,3,9c0,0.552,0.447,1,1,1
		h6.277c0.347,0.595,0.984,1,1.723,1s1.376-0.405,1.723-1H14c0.552,0,1-0.448,1-1C15,8.448,14.552,8,14,8z M12,10
		c-0.553,0-1-0.448-1-1c0-0.552,0.447-1,1-1c0.552,0,1,0.448,1,1C13,9.552,12.552,10,12,10z"/>
	<path class="st1" d="M14,3H9.723C9.376,2.405,8.738,2,8,2S6.624,2.405,6.277,3H4C3.447,3,3,3.448,3,4c0,0.552,0.447,1,1,1h2.277
		C6.624,5.595,7.262,6,8,6s1.376-0.405,1.723-1H14c0.552,0,1-0.448,1-1C15,3.448,14.552,3,14,3z M8,5C7.447,5,7,4.552,7,4
		c0-0.552,0.447-1,1-1c0.552,0,1,0.448,1,1C9,4.552,8.552,5,8,5z"/>
</g>
</svg>
