<?xml version="1.0" encoding="utf-8"?>
<!-- Generator: Adobe Illustrator 22.1.0, SVG Export Plug-In . SVG Version: 6.00 Build 0)  -->
<svg version="1.1" id="toolbar" xmlns="http://www.w3.org/2000/svg" xmlns:xlink="http://www.w3.org/1999/xlink" x="0px" y="0px"
	 width="18px" height="18px" viewBox="0 0 18 18" style="enable-background:new 0 0 18 18;" xml:space="preserve">
<style type="text/css">
	.st0{fill:#FFFFFF;}
	.st1{fill:#808080;}
	.st2{fill:#636F80;}
	.st3{fill-rule:evenodd;clip-rule:evenodd;fill:#FFFFFF;}
	.st4{fill-rule:evenodd;clip-rule:evenodd;fill:#808080;}
	.st5{fill-rule:evenodd;clip-rule:evenodd;fill:#636F80;}
	.st6{fill:#F7931E;}
</style>
<g id="Монтажная_область_4741">
	<g>
		<g>
			<polygon class="st2" points="5.25,8 1,8 1,10 4.167,10 			"/>
		</g>
		<g>
			<polygon class="st2" points="15,5 15,6 17,4 15,2 15,3 9.042,3 10.125,5 			"/>
		</g>
		<g>
			<polygon class="st2" points="7.958,3 1,3 1,5 6.875,5 			"/>
		</g>
		<g>
			<polygon class="st2" points="15,13 14.458,13 15,14 2,14 2.542,13 1,13 1,15 15,15 15,16 17,14 15,12 			"/>
		</g>
		<g>
			<polygon class="st2" points="15,8 11.75,8 12.833,10 15,10 15,11 17,9 15,7 			"/>
		</g>
		<g>
			<path class="st2" d="M13,13L8.5,5L4,13H13z M8,8h1v2H8V8z M9,11v1H8v-1H9z"/>
		</g>
	</g>
</g>
</svg>
