<?xml version="1.0" encoding="utf-8"?>
<!-- Generator: Adobe Illustrator 22.1.0, SVG Export Plug-In . SVG Version: 6.00 Build 0)  -->
<svg version="1.1" id="toolbar" xmlns="http://www.w3.org/2000/svg" xmlns:xlink="http://www.w3.org/1999/xlink" x="0px" y="0px"
	 width="18px" height="18px" viewBox="0 0 18 18" style="enable-background:new 0 0 18 18;" xml:space="preserve">
<style type="text/css">
	.st0{fill:#FFFFFF;}
	.st1{fill:#808080;}
	.st2{fill:#636F80;}
	.st3{fill-rule:evenodd;clip-rule:evenodd;fill:#FFFFFF;}
	.st4{fill-rule:evenodd;clip-rule:evenodd;fill:#808080;}
	.st5{fill-rule:evenodd;clip-rule:evenodd;fill:#636F80;}
	.st6{fill:#F7931E;}
</style>
<g id="refresh-data_inverted">
	<g>
		<path class="st0" d="M10,12.858C9.678,12.941,9.347,13,9,13c-1.858,0-3.411-1.28-3.858-3H3.09c0.477,2.837,2.938,5,5.91,5
			c0.342,0,0.674-0.035,1-0.09V12.858z"/>
		<path class="st0" d="M6.183,6.183C6.903,5.455,7.896,5,9,5c2.206,0,4,1.794,4,4c0,0.347-0.058,0.678-0.142,1h2.052
			C14.965,9.674,15,9.342,15,9c0-3.314-2.686-6-6-6C7.343,3,5.848,3.677,4.764,4.764L3,3v5h5L6.183,6.183z"/>
	</g>
	<g>
		<polygon class="st0" points="13,12 14,12 14,11 13,11 12,11 12,15 13,15 14,15 14,14 13,14 		"/>
		<rect x="14" y="12" class="st0" width="1" height="2"/>
	</g>
	<path class="st0" d="M15,9h-4c-1.105,0-2,0.896-2,2v4c0,1.104,0.895,2,2,2h4c1.105,0,2-0.896,2-2v-4C17,9.896,16.105,9,15,9z
		 M16,15c0,0.552-0.449,1-1,1h-4c-0.551,0-1-0.448-1-1v-4c0-0.552,0.449-1,1-1h4c0.551,0,1,0.448,1,1V15z"/>
</g>
</svg>
