<?xml version="1.0" encoding="utf-8"?>
<!-- Generator: Adobe Illustrator 22.1.0, SVG Export Plug-In . SVG Version: 6.00 Build 0)  -->
<svg version="1.1" id="toolbar" xmlns="http://www.w3.org/2000/svg" xmlns:xlink="http://www.w3.org/1999/xlink" x="0px" y="0px"
	 width="18px" height="18px" viewBox="0 0 18 18" style="enable-background:new 0 0 18 18;" xml:space="preserve">
<style type="text/css">
	.st0{fill:#FFFFFF;}
	.st1{fill:#808080;}
	.st2{fill:#636F80;}
	.st3{fill-rule:evenodd;clip-rule:evenodd;fill:#FFFFFF;}
	.st4{fill-rule:evenodd;clip-rule:evenodd;fill:#808080;}
	.st5{fill-rule:evenodd;clip-rule:evenodd;fill:#636F80;}
	.st6{fill:#F7931E;}
</style>
<g id="type-string_default">
	<path class="st2" d="M13,2v1.547c0,1.55-0.667,2.368-2,2.453V5.154c0.482-0.148,0.725-0.478,0.725-0.991H11V2H13z"/>
	<path class="st2" d="M16,2v1.547c0,1.55-0.667,2.368-2,2.453V5.154c0.482-0.148,0.725-0.478,0.725-0.991H14V2H16z"/>
	<path class="st2" d="M5,6V4.453C5,2.903,5.667,2.086,7,2v0.846C6.518,2.994,6.274,3.325,6.274,3.838H7V6H5z"/>
	<path class="st2" d="M2,6V4.453C2,2.903,2.667,2.086,4,2v0.846C3.518,2.994,3.274,3.325,3.274,3.838H4V6H2z"/>
</g>
</svg>
