<?xml version="1.0" encoding="utf-8"?>
<!DOCTYPE svg PUBLIC "-//W3C//DTD SVG 1.1//EN" "http://www.w3.org/Graphics/SVG/1.1/DTD/svg11.dtd" [
	<!ENTITY st0 "fill:#FFFFFF;">
	<!ENTITY st1 "fill:#808080;">
	<!ENTITY st2 "fill:#636F80;">
	<!ENTITY st3 "opacity:0.2;fill:#FFFFFF;">
	<!ENTITY st4 "opacity:0.2;fill:#636F80;">
	<!ENTITY st5 "opacity:0.2;fill:#808080;">
	<!ENTITY st6 "fill-rule:evenodd;clip-rule:evenodd;fill:#FFFFFF;">
	<!ENTITY st7 "fill-rule:evenodd;clip-rule:evenodd;fill:#808080;">
	<!ENTITY st8 "fill-rule:evenodd;clip-rule:evenodd;fill:#636F80;">
]>
<svg version="1.1" id="img" xmlns="http://www.w3.org/2000/svg" xmlns:xlink="http://www.w3.org/1999/xlink" x="0px" y="0px"
	 width="18px" height="18px" viewBox="0 0 18 18" style="enable-background:new 0 0 18 18;" xml:space="preserve">
<g id="tune-chart.default">
	<g>
		<path style="&st2;" d="M12,7.5c0-0.172-0.035-0.335-0.089-0.489l2.8-2.24C14.941,4.914,15.21,5,15.5,5C16.328,5,17,4.329,17,3.5
			C17,2.672,16.328,2,15.5,2S14,2.672,14,3.5c0,0.172,0.035,0.335,0.089,0.489l-2.8,2.24C11.059,6.086,10.79,6,10.5,6
			c-0.307,0-0.593,0.093-0.831,0.252L7.925,4.945C7.97,4.803,8,4.656,8,4.5C8,3.672,7.328,3,6.5,3S5,3.672,5,4.5
			c0,0.237,0.06,0.458,0.157,0.657L3.183,7.172C2.977,7.066,2.747,7,2.5,7C1.672,7,1,7.672,1,8.5C1,9.329,1.672,10,2.5,10
			S4,9.329,4,8.5c0-0.215-0.047-0.418-0.128-0.602l1.999-2.04C6.063,5.947,6.274,6,6.5,6c0.307,0,0.593-0.093,0.831-0.252
			l1.744,1.308C9.031,7.197,9,7.344,9,7.5C9,8.329,9.672,9,10.5,9S12,8.329,12,7.5z"/>
		<path style="&st2;" d="M17,14c0-0.193-0.022-0.382-0.057-0.565l0.985-0.569l-1-1.732l-1.007,0.581
			c-0.272-0.229-0.58-0.409-0.921-0.531V10h-2v1.184c-0.353,0.126-0.672,0.315-0.951,0.555L11,11.134l-1,1.732l1.053,0.608
			C11.023,13.646,11,13.82,11,14s0.023,0.354,0.053,0.526L10,15.134l1,1.732l1.049-0.606c0.278,0.24,0.6,0.429,0.951,0.557V18h2
			v-1.181c0.338-0.124,0.65-0.305,0.921-0.534l1.007,0.581l1-1.732l-0.985-0.569C16.978,14.382,17,14.193,17,14z M14,15
			c-0.552,0-1-0.448-1-1c0-0.552,0.448-1,1-1c0.552,0,1,0.448,1,1C15,14.552,14.552,15,14,15z"/>
		<polygon style="&st2;" points="8,9 6,9 6,15 4,15 4,12 2,12 2,15 1,15 1,16 9,16 9,15 8,15 		"/>
	</g>
</g>
</svg>
