<?xml version="1.0" encoding="utf-8"?>
<!DOCTYPE svg PUBLIC "-//W3C//DTD SVG 1.1//EN" "http://www.w3.org/Graphics/SVG/1.1/DTD/svg11.dtd" [
	<!ENTITY st0 "fill:#FFFFFF;">
	<!ENTITY st1 "fill:#808080;">
	<!ENTITY st2 "fill:#636F80;">
	<!ENTITY st3 "opacity:0.2;fill:#FFFFFF;">
	<!ENTITY st4 "opacity:0.2;fill:#636F80;">
	<!ENTITY st5 "opacity:0.2;fill:#808080;">
	<!ENTITY st6 "fill-rule:evenodd;clip-rule:evenodd;fill:#FFFFFF;">
	<!ENTITY st7 "fill-rule:evenodd;clip-rule:evenodd;fill:#808080;">
	<!ENTITY st8 "fill-rule:evenodd;clip-rule:evenodd;fill:#636F80;">
	<!ENTITY st9 "fill:#F7931E;">
]>
<svg version="1.1" id="img" xmlns="http://www.w3.org/2000/svg" xmlns:xlink="http://www.w3.org/1999/xlink" x="0px" y="0px"
	 width="18px" height="18px" viewBox="0 0 18 18" style="enable-background:new 0 0 18 18;" xml:space="preserve">
<path id="type-date.default" style="&st2;" d="M3.995,13.196l0.562-0.755c0.388,0.398,0.889,0.715,1.542,0.715
	c0.705,0,1.195-0.368,1.195-0.98c0-0.674-0.429-1.103-1.91-1.103v-0.858c1.277,0,1.696-0.439,1.696-1.042
	c0-0.541-0.368-0.868-0.96-0.868c-0.511,0-0.909,0.246-1.307,0.613L4.209,8.192c0.551-0.49,1.175-0.817,1.951-0.817
	c1.246,0,2.104,0.612,2.104,1.716c0,0.725-0.429,1.215-1.134,1.491v0.042c0.766,0.204,1.348,0.755,1.348,1.613
	c0,1.184-1.031,1.88-2.278,1.88C5.149,14.116,4.454,13.707,3.995,13.196z M9.742,13.033h1.45V8.764H9.997V8.029
	c0.643-0.123,1.093-0.287,1.501-0.532h0.878v5.536h1.277v0.96H9.742V13.033z M15,3H3v2h12V3z"/>
</svg>
