<?xml version="1.0" encoding="utf-8"?>
<!DOCTYPE svg PUBLIC "-//W3C//DTD SVG 1.1//EN" "http://www.w3.org/Graphics/SVG/1.1/DTD/svg11.dtd" [
	<!ENTITY st0 "fill:#FFFFFF;">
	<!ENTITY st1 "fill:#808080;">
	<!ENTITY st2 "fill:#636F80;">
	<!ENTITY st3 "opacity:0.2;fill:#FFFFFF;">
	<!ENTITY st4 "opacity:0.2;fill:#636F80;">
	<!ENTITY st5 "opacity:0.2;fill:#808080;">
	<!ENTITY st6 "fill-rule:evenodd;clip-rule:evenodd;fill:#FFFFFF;">
	<!ENTITY st7 "fill-rule:evenodd;clip-rule:evenodd;fill:#808080;">
	<!ENTITY st8 "fill-rule:evenodd;clip-rule:evenodd;fill:#636F80;">
	<!ENTITY st9 "fill:#F7931E;">
]>
<svg version="1.1" id="img" xmlns="http://www.w3.org/2000/svg" xmlns:xlink="http://www.w3.org/1999/xlink" x="0px" y="0px"
	 width="18px" height="18px" viewBox="0 0 18 18" style="enable-background:new 0 0 18 18;" xml:space="preserve">
<g id="type-time.default">
	<g>
		<polygon style="&st2;" points="10.961,11.668 8.5,9.207 8.5,5.111 9.5,5.111 9.5,8.793 11.668,10.961 		"/>
	</g>
	<g>
		<path style="&st2;" d="M9,3c3.309,0,6,2.692,6,6c0,3.309-2.691,6-6,6s-6-2.691-6-6C3,5.692,5.691,3,9,3 M9,2C5.134,2,2,5.134,2,9
			c0,3.866,3.134,7,7,7s7-3.134,7-7C16,5.134,12.866,2,9,2L9,2z"/>
	</g>
</g>
</svg>
