<?xml version="1.0" encoding="utf-8"?>
<!-- Generator: Adobe Illustrator 23.0.0, SVG Export Plug-In . SVG Version: 6.00 Build 0)  -->
<!DOCTYPE svg PUBLIC "-//W3C//DTD SVG 1.1//EN" "http://www.w3.org/Graphics/SVG/1.1/DTD/svg11.dtd" [
	<!ENTITY st0 "fill:#636F80;">
	<!ENTITY st1 "fill:#4C5866;">
]>
<svg version="1.1" id="tool-sprites" xmlns="http://www.w3.org/2000/svg" xmlns:xlink="http://www.w3.org/1999/xlink" x="0px"
	 y="0px" width="18px" height="18px" viewBox="0 0 18 18" style="enable-background:new 0 0 18 18;" xml:space="preserve">
<g id="icon-22">
	<path style="&st0;" d="M12.791,14H5.209C5.094,14,5,14.446,5,15c0,0.552,0.094,1,0.209,1h7.582C12.906,16,13,15.552,13,15
		C13,14.446,12.906,14,12.791,14z"/>
	<path style="&st0;" d="M14.988,9.178H14V5.586L10.414,2H4v7.178H3.335C2.687,9.178,2,9.532,2,10.167v2.851
		c0,0.635,0.525,1.149,1.173,1.149H3.74c0.258,0,0.466-0.204,0.466-0.457v-0.115c0-0.435,0.36-0.954,0.803-0.954h7.981
		c0.444,0,0.804,0.52,0.804,0.954v0.115c0,0.252,0.209,0.457,0.466,0.457h0.566c0.648,0,1.173-0.515,1.173-1.149v-2.851
		C16,9.532,15.636,9.178,14.988,9.178z M5,3h5v3h3v3.178H5V3z"/>
</g>
</svg>
