<?xml version="1.0" encoding="utf-8"?>
<!-- Generator: Adobe Illustrator 23.0.1, SVG Export Plug-In . SVG Version: 6.00 Build 0)  -->
<!DOCTYPE svg PUBLIC "-//W3C//DTD SVG 1.1//EN" "http://www.w3.org/Graphics/SVG/1.1/DTD/svg11.dtd" [
	<!ENTITY st0 "fill:#DDE0E5;">
	<!ENTITY st1 "fill:#F8F9FB;">
	<!ENTITY st2 "fill:none;stroke:#F7931E;stroke-width:2;stroke-miterlimit:10;">
]>
<svg version="1.1" id="Layer_1" xmlns="http://www.w3.org/2000/svg" xmlns:xlink="http://www.w3.org/1999/xlink" x="0px" y="0px"
	 width="800px" height="330px" viewBox="0 0 800 330" style="enable-background:new 0 0 800 330;" xml:space="preserve">
<g>
	<path d="M442.8222656,181.3623505h6.8359375v9.1611328h-1.625v-7.7880859h-3.5859375v7.7880859h-1.625V181.3623505z"/>
	<path d="M451.8378906,183.6455536h1.3310547l0.1123047,0.7285156h0.0556641
		c0.5742188-0.4902344,1.3164062-0.8964844,2.0732422-0.8964844c1.7089844,0,2.703125,1.3730469,2.703125,3.5019531
		c0,2.3535156-1.4140625,3.7119141-2.9414062,3.7119141c-0.6025391,0-1.2050781-0.2802734-1.765625-0.7558594l0.0429688,1.1484375
		v2.1572266h-1.6113281V183.6455536z M456.4462891,186.9932098c0-1.3720703-0.4482422-2.1845703-1.484375-2.1845703
		c-0.5048828,0-0.9814453,0.2519531-1.5126953,0.7705078v3.2070312c0.5039062,0.4208984,0.9804688,0.5742188,1.3867188,0.5742188
		C455.7460938,189.3603973,456.4462891,188.5488739,456.4462891,186.9932098z"/>
	<path d="M459.734375,183.6455536h1.5683594v2.3671875c0,0.7148438-0.0839844,1.625-0.140625,2.4941406h0.0429688
		c0.2382812-0.4208984,0.6298828-1.0507812,0.8535156-1.4570312l2.1855469-3.4042969h1.484375v6.8779297h-1.5683594v-2.3671875
		c0-0.7148438,0.0839844-1.625,0.1542969-2.4931641h-0.0566406c-0.2373047,0.4199219-0.6152344,1.0507812-0.8535156,1.4560547
		l-2.1855469,3.4042969h-1.484375V183.6455536z"/>
	<path d="M467.3212891,187.0918427c0-2.2978516,1.6103516-3.6142578,3.4462891-3.6142578
		c0.8828125,0,1.5126953,0.3359375,2.0166016,0.7705078L472,185.2988739
		c-0.3642578-0.3222656-0.7148438-0.5048828-1.1484375-0.5048828c-1.1074219,0-1.8769531,0.9111328-1.8769531,2.2978516
		c0,1.3720703,0.7558594,2.2832031,1.8339844,2.2832031c0.5332031,0,1.0234375-0.2666016,1.4160156-0.5888672l0.6582031,1.0644531
		c-0.6445312,0.5605469-1.4570312,0.8408203-2.2421875,0.8408203
		C468.7636719,190.691452,467.3212891,189.3750458,467.3212891,187.0918427z"/>
	<path d="M473.453125,187.0918427c0-2.2978516,1.5546875-3.6142578,3.2636719-3.6142578
		c1.7226562,0,3.2773438,1.3164062,3.2773438,3.6142578c0,2.2832031-1.5546875,3.5996094-3.2773438,3.5996094
		C475.0078125,190.691452,473.453125,189.3750458,473.453125,187.0918427z M478.3417969,187.0918427
		c0-1.3867188-0.6162109-2.2978516-1.625-2.2978516c-1.0078125,0-1.6113281,0.9111328-1.6113281,2.2978516
		c0,1.3720703,0.6035156,2.2832031,1.6113281,2.2832031C477.7255859,189.3750458,478.3417969,188.463913,478.3417969,187.0918427z"
		/>
	<path d="M481.1386719,187.0918427c0-2.2412109,1.5556641-3.6142578,3.1660156-3.6142578
		c1.8632812,0,2.84375,1.3447266,2.84375,3.2636719c0,0.3085938-0.0273438,0.6162109-0.0703125,0.7841797h-4.3701172
		c0.1396484,1.21875,0.9248047,1.9199219,2.03125,1.9199219c0.5888672,0,1.0927734-0.1826172,1.5966797-0.5048828
		l0.546875,1.0087891c-0.6582031,0.4345703-1.4853516,0.7421875-2.3535156,0.7421875
		C482.6240234,190.691452,481.1386719,189.3603973,481.1386719,187.0918427z M485.7480469,186.4336395
		c0-1.0654297-0.4628906-1.7089844-1.4003906-1.7089844c-0.8125,0-1.5136719,0.6015625-1.6533203,1.7089844H485.7480469z"/>
	<path d="M489.4277344,192.932663h-1.4003906l-0.1542969-2.6474609v-1.0507812h0.3925781
		c0.3496094-0.1816406,0.6298828-0.6298828,0.8818359-2.703125l0.3359375-2.8857422h4.7207031v5.5888672h1.0507812v1.0507812
		l-0.1689453,2.6474609h-1.3867188v-2.4091797h-4.2714844V192.932663z M489.8896484,189.2344208h2.7041016v-4.3134766h-1.8359375
		l-0.2089844,1.9609375C490.421875,187.9600067,490.1972656,188.7168427,489.8896484,189.2344208z"/>
	<path d="M496.4970703,183.6455536h1.5693359v2.3671875c0,0.7148438-0.0839844,1.625-0.140625,2.4941406h0.0419922
		c0.2382812-0.4208984,0.6298828-1.0507812,0.8544922-1.4570312l2.1855469-3.4042969h1.484375v6.8779297h-1.5683594v-2.3671875
		c0-0.7148438,0.0839844-1.625,0.1542969-2.4931641h-0.0566406c-0.2382812,0.4199219-0.6162109,1.0507812-0.8544922,1.4560547
		l-2.1845703,3.4042969h-1.4853516V183.6455536z"/>
	<path d="M504.5332031,183.6455536h1.6103516v2.6337891h2.7451172v-2.6337891H510.5v6.8779297h-1.6113281v-2.8291016h-2.7451172
		v2.8291016h-1.6103516V183.6455536z"/>
	<path d="M516.2949219,188.057663h-1.0087891h-0.0283203l-1.6103516,2.4658203h-1.8076172l1.9472656-2.7451172
		c-0.7695312-0.3369141-1.3583984-0.953125-1.3583984-1.9755859c0-1.6103516,1.21875-2.1572266,2.7871094-2.1572266h2.6894531
		v6.8779297h-1.6103516V188.057663z M516.2949219,186.9238739v-2.0732422h-0.8544922
		c-0.8964844,0-1.4150391,0.3076172-1.4150391,0.9941406c0,0.6728516,0.5185547,1.0791016,1.4150391,1.0791016H516.2949219z"/>
	<path d="M519.5117188,187.0918427c0-2.2412109,1.5556641-3.6142578,3.1660156-3.6142578
		c1.8632812,0,2.84375,1.3447266,2.84375,3.2636719c0,0.3085938-0.0273438,0.6162109-0.0703125,0.7841797h-4.3701172
		c0.1396484,1.21875,0.9248047,1.9199219,2.03125,1.9199219c0.5888672,0,1.0927734-0.1826172,1.5966797-0.5048828
		l0.546875,1.0087891c-0.6582031,0.4345703-1.4853516,0.7421875-2.3535156,0.7421875
		C520.9970703,190.691452,519.5117188,189.3603973,519.5117188,187.0918427z M524.1210938,186.4336395
		c0-1.0654297-0.4628906-1.7089844-1.4003906-1.7089844c-0.8125,0-1.5136719,0.6015625-1.6533203,1.7089844H524.1210938z"/>
	<path d="M527.0585938,183.6455536h1.8486328l1.1064453,2.7734375c0.1962891,0.5742188,0.3789062,1.0927734,0.546875,1.6113281
		h0.0556641c0.1826172-0.5185547,0.3916016-1.0371094,0.5595703-1.6113281l1.0507812-2.7734375h1.8496094v6.8779297h-1.4570312
		v-2.4091797c0-0.6728516,0.1123047-1.9335938,0.1816406-2.6757812h-0.0556641
		c-0.1962891,0.5742188-0.4619141,1.2324219-0.6582031,1.7792969l-1.0361328,2.6894531h-0.953125l-1.0644531-2.6894531
		c-0.1962891-0.546875-0.4628906-1.21875-0.6582031-1.7792969h-0.0566406
		c0.0566406,0.7421875,0.1679688,2.0029297,0.1679688,2.6757812v2.4091797h-1.4277344V183.6455536z"/>
	<path d="M535.7519531,188.6748505c0-1.4707031,1.21875-2.2412109,4.0478516-2.5498047
		c-0.0283203-0.7285156-0.3222656-1.3447266-1.2607422-1.3447266c-0.671875,0-1.3164062,0.3085938-1.9335938,0.6728516
		l-0.5878906-1.0791016c0.7568359-0.4765625,1.7373047-0.8964844,2.8300781-0.8964844
		c1.7089844,0,2.5625,1.0507812,2.5625,2.9697266v4.0761719h-1.3300781l-0.1123047-0.7568359h-0.0556641
		c-0.6171875,0.5185547-1.3164062,0.9248047-2.1289062,0.9248047
		C536.578125,190.691452,535.7519531,189.878952,535.7519531,188.6748505z M539.7998047,188.6748505v-1.5410156
		c-1.8769531,0.2382812-2.4931641,0.7285156-2.4931641,1.4150391c0,0.6162109,0.4199219,0.8818359,0.9941406,0.8818359
		C538.8613281,189.4307098,539.28125,189.1504364,539.7998047,188.6748505z"/>
	<path d="M547.09375,188.057663h-1.0078125h-0.0283203l-1.6113281,2.4658203h-1.8066406l1.9462891-2.7451172
		c-0.7695312-0.3369141-1.3574219-0.953125-1.3574219-1.9755859c0-1.6103516,1.2177734-2.1572266,2.7871094-2.1572266h2.6894531
		v6.8779297H547.09375V188.057663z M547.09375,186.9238739v-2.0732422h-0.8544922
		c-0.8964844,0-1.4150391,0.3076172-1.4150391,0.9941406c0,0.6728516,0.5185547,1.0791016,1.4150391,1.0791016H547.09375z"/>
	<path d="M555.0585938,184.9209442h-2.1572266v-1.2753906h5.9384766v1.2753906h-2.15625v5.6025391h-1.625V184.9209442z"/>
	<path d="M559.5654297,188.6748505c0-1.4707031,1.21875-2.2412109,4.0478516-2.5498047
		c-0.0273438-0.7285156-0.3222656-1.3447266-1.2597656-1.3447266c-0.6728516,0-1.3173828,0.3085938-1.9335938,0.6728516
		l-0.5878906-1.0791016c0.7558594-0.4765625,1.7363281-0.8964844,2.8291016-0.8964844
		c1.7089844,0,2.5634766,1.0507812,2.5634766,2.9697266v4.0761719h-1.3300781l-0.1132812-0.7568359h-0.0556641
		c-0.6162109,0.5185547-1.3164062,0.9248047-2.1289062,0.9248047
		C560.3925781,190.691452,559.5654297,189.878952,559.5654297,188.6748505z M563.6132812,188.6748505v-1.5410156
		c-1.8769531,0.2382812-2.4921875,0.7285156-2.4921875,1.4150391c0,0.6162109,0.4199219,0.8818359,0.9941406,0.8818359
		C562.6757812,189.4307098,563.0957031,189.1504364,563.6132812,188.6748505z"/>
	<path d="M566.8027344,186.2930145c0-4.3984375,1.7373047-5.2246094,4.3144531-5.6025391
		c0.8125-0.1123047,1.1210938-0.1962891,1.5410156-0.3925781l0.3222656,1.4287109
		c-0.3642578,0.2519531-0.9238281,0.3925781-1.5273438,0.4765625c-2.0722656,0.2939453-2.8427734,0.4199219-3.0527344,2.7314453
		c0.5458984-0.6582031,1.3300781-0.9951172,2.1425781-0.9951172c1.5410156,0,2.703125,1.1494141,2.703125,3.2080078
		c0,2.1435547-1.3574219,3.5439453-3.1230469,3.5439453C568.0078125,190.691452,566.8027344,189.0811005,566.8027344,186.2930145z
		 M571.59375,187.1475067c0-1.3300781-0.546875-1.9892578-1.4980469-1.9892578
		c-0.5751953,0-1.2050781,0.2529297-1.7519531,1.0224609c0,0.1542969,0,0.3085938,0,0.4628906
		c0,1.7783203,0.6171875,2.7314453,1.765625,2.7314453C571.0058594,189.3750458,571.59375,188.4922333,571.59375,187.1475067z"/>
	<path d="M573.8447266,190.5518036l0.2802734-1.4570312c0.0976562,0.0283203,0.1962891,0.0556641,0.3359375,0.0556641
		c0.4199219,0,0.7148438-0.3642578,0.8261719-1.2324219c0.1826172-1.4287109,0.3369141-2.84375,0.4902344-4.2724609h4.6650391
		v6.8779297h-1.6103516v-5.6025391h-1.765625c-0.1396484,1.1337891-0.2792969,2.296875-0.4199219,3.4316406
		c-0.2099609,1.5263672-0.8964844,2.3388672-2.0732422,2.3388672
		C574.2792969,190.691452,574.0693359,190.6494598,573.8447266,190.5518036z"/>
	<path d="M582.4833984,183.6455536h1.5693359v2.3671875c0,0.7148438-0.0839844,1.625-0.140625,2.4941406h0.0419922
		c0.2382812-0.4208984,0.6298828-1.0507812,0.8544922-1.4570312l2.1855469-3.4042969h1.484375v6.8779297h-1.5683594v-2.3671875
		c0-0.7148438,0.0839844-1.625,0.1542969-2.4931641h-0.0566406c-0.2382812,0.4199219-0.6162109,1.0507812-0.8544922,1.4560547
		l-2.1845703,3.4042969h-1.4853516V183.6455536z"/>
	<path d="M590.5195312,183.6455536h1.6103516v5.5888672h2.5498047v-5.5888672h1.6103516v5.5888672h1.0507812v1.0507812
		l-0.1679688,2.6474609h-1.3867188v-2.4091797h-5.2666016V183.6455536z"/>
	<path d="M598.2890625,188.6748505c0-1.4707031,1.21875-2.2412109,4.0478516-2.5498047
		c-0.0283203-0.7285156-0.3222656-1.3447266-1.2607422-1.3447266c-0.671875,0-1.3164062,0.3085938-1.9335938,0.6728516
		l-0.5878906-1.0791016c0.7568359-0.4765625,1.7373047-0.8964844,2.8300781-0.8964844
		c1.7089844,0,2.5625,1.0507812,2.5625,2.9697266v4.0761719h-1.3300781l-0.1123047-0.7568359h-0.0556641
		c-0.6171875,0.5185547-1.3164062,0.9248047-2.1289062,0.9248047
		C599.1152344,190.691452,598.2890625,189.878952,598.2890625,188.6748505z M602.3369141,188.6748505v-1.5410156
		c-1.8769531,0.2382812-2.4931641,0.7285156-2.4931641,1.4150391c0,0.6162109,0.4199219,0.8818359,0.9941406,0.8818359
		C601.3984375,189.4307098,601.8183594,189.1504364,602.3369141,188.6748505z"/>
	<path d="M608.1865234,189.5850067c2.4794922-2.3955078,4.0341797-3.9638672,4.0341797-5.3232422
		c0-0.9384766-0.5175781-1.5400391-1.4707031-1.5400391c-0.6865234,0-1.2607422,0.4619141-1.7363281,0.9941406l-0.8964844-0.8964844
		c0.8125-0.8681641,1.6240234-1.3730469,2.8427734-1.3730469c1.7089844,0,2.8154297,1.0791016,2.8154297,2.7314453
		c0,1.5830078-1.4707031,3.2080078-3.2353516,5.0712891c0.4619141-0.0419922,1.0498047-0.0986328,1.484375-0.0986328h2.1855469
		v1.3730469h-6.0234375V189.5850067z"/>
</g>
<g>
	<g>
		<rect x="441.6595459" y="209.0418396" style="&st0;" width="182.3246918" height="28"/>
	</g>
	<rect x="441.6595459" y="262.8656616" style="&st1;" width="182.3246918" height="24"/>
	<g>
		<rect x="441.6595459" y="285.9589844" style="&st0;" width="182.3246918" height="1"/>
	</g>
	<g>
		<rect x="441.6595459" y="262.8656616" style="&st0;" width="182.3246918" height="1"/>
	</g>
	<g>
		<g>
			<rect x="622.9842529" y="236.0691681" style="&st0;" width="1" height="50.8898163"/>
		</g>
	</g>
	<g>
		<path d="M459.390625,218.1494598h2.6191406c2.0595703,0,3.4472656,0.6855469,3.4472656,2.703125
			c0,1.9326172-1.3730469,2.84375-3.390625,2.84375h-1.5126953v3.6416016h-1.1630859V218.1494598z M461.9257812,222.7432098
			c1.5976562,0,2.3681641-0.5878906,2.3681641-1.890625c0-1.3310547-0.8125-1.7646484-2.4228516-1.7646484h-1.3173828v3.6552734
			H461.9257812z"/>
		<path d="M466.3632812,223.948288c0-2.2275391,1.4980469-3.5859375,3.0527344-3.5859375
			c1.7373047,0,2.7177734,1.2460938,2.7177734,3.1933594c0,0.2382812-0.0146484,0.4902344-0.0419922,0.6582031h-4.5947266
			c0.0839844,1.4433594,0.9667969,2.3671875,2.2695312,2.3671875c0.6435547,0,1.1904297-0.2099609,1.6943359-0.5322266
			l0.40625,0.7568359c-0.5878906,0.3779297-1.3164062,0.7001953-2.2402344,0.7001953
			C467.8046875,227.5059052,466.3632812,226.1748505,466.3632812,223.948288z M471.125,223.3877411
			c0-1.3730469-0.6162109-2.1152344-1.6806641-2.1152344c-0.9521484,0-1.8212891,0.7705078-1.9609375,2.1152344H471.125z"/>
		<path d="M473.8105469,220.5303192h4.2441406v0.9384766h-3.0957031v5.8691406h-1.1484375V220.5303192z"/>
		<path d="M479.5644531,220.5303192h1.1210938v2.8291016c0,0.7285156-0.0566406,1.6396484-0.1123047,2.5078125h0.0556641
			c0.2519531-0.4199219,0.6582031-1.0371094,0.8964844-1.4570312l2.578125-3.8798828h1.078125v6.8076172h-1.1210938v-2.8291016
			c0-0.7285156,0.0566406-1.6396484,0.1132812-2.5214844h-0.0566406c-0.2519531,0.4199219-0.6582031,1.0498047-0.8964844,1.4560547
			l-2.5917969,3.8945312h-1.0644531V220.5303192z"/>
		<path d="M486.9707031,223.948288c0-2.2832031,1.484375-3.5859375,3.1503906-3.5859375
			c1.6679688,0,3.1523438,1.3027344,3.1523438,3.5859375c0,2.2548828-1.484375,3.5576172-3.1523438,3.5576172
			C488.4550781,227.5059052,486.9707031,226.2031708,486.9707031,223.948288z M492.0830078,223.948288
			c0-1.5693359-0.7841797-2.6337891-1.9619141-2.6337891c-1.1621094,0-1.9609375,1.0644531-1.9609375,2.6337891
			c0,1.5546875,0.7988281,2.6054688,1.9609375,2.6054688C491.2988281,226.5537567,492.0830078,225.5029755,492.0830078,223.948288z"
			/>
		<path d="M495.0625,220.5303192h1.1484375v2.7597656h3.2773438v-2.7597656h1.1484375v6.8076172h-1.1484375v-3.0253906h-3.2773438
			v3.0253906H495.0625V220.5303192z"/>
	</g>
	<g>
		<path d="M459.0683594,244.0596161c0-0.4482422,0.3505859-0.7421875,0.7988281-0.7421875s0.7988281,0.2939453,0.7988281,0.7421875
			c0,0.4345703-0.3505859,0.7431641-0.7988281,0.7431641S459.0683594,244.4941864,459.0683594,244.0596161z
			 M459.2792969,246.2031708h1.1484375v6.8076172h-1.1484375V246.2031708z"/>
		<path d="M462.2324219,249.6211395c0-2.2128906,1.4003906-3.5859375,2.9550781-3.5859375
			c0.7851562,0,1.3027344,0.2939453,1.90625,0.7841797l-0.0566406-1.1621094v-2.6201172h1.1621094v9.9736328h-0.9521484
			l-0.0976562-0.7988281h-0.0419922c-0.5332031,0.5185547-1.2607422,0.9667969-2.0595703,0.9667969
			C463.3398438,253.1787567,462.2324219,251.8906708,462.2324219,249.6211395z M467.0371094,251.2734833v-3.5576172
			c-0.5742188-0.5185547-1.0927734-0.7138672-1.6523438-0.7138672c-1.09375,0-1.9609375,1.0498047-1.9609375,2.6044922
			c0,1.625,0.6855469,2.6054688,1.8769531,2.6054688C465.9306641,252.2119598,466.4765625,251.9043427,467.0371094,251.2734833z"/>
		<path d="M473.2929688,246.2031708h4.2441406v0.9384766h-3.0957031v5.8691406h-1.1484375V246.2031708z"/>
		<path d="M477.9404297,249.6211395c0-2.2832031,1.484375-3.5859375,3.1513672-3.5859375s3.1523438,1.3027344,3.1523438,3.5859375
			c0,2.2548828-1.4853516,3.5576172-3.1523438,3.5576172S477.9404297,251.8760223,477.9404297,249.6211395z
			 M483.0527344,249.6211395c0-1.5693359-0.7841797-2.6337891-1.9609375-2.6337891
			c-1.1621094,0-1.9609375,1.0644531-1.9609375,2.6337891c0,1.5546875,0.7988281,2.6054688,1.9609375,2.6054688
			C482.2685547,252.2266083,483.0527344,251.175827,483.0527344,249.6211395z"/>
		<path d="M486.0322266,246.2031708h0.9521484l0.0986328,0.7841797H487.125
			c0.6162109-0.5185547,1.3730469-0.9521484,2.171875-0.9521484c1.75,0,2.6894531,1.3583984,2.6894531,3.4736328
			c0,2.3115234-1.3876953,3.6699219-2.9423828,3.6699219c-0.6298828,0-1.2607422-0.2939453-1.8916016-0.7841797l0.0292969,1.1904297
			v2.296875h-1.1494141V246.2031708z M490.7949219,249.5088348c0-1.4990234-0.5039062-2.5068359-1.7929688-2.5068359
			c-0.5742188,0-1.1484375,0.3212891-1.8203125,0.9238281v3.5722656c0.6152344,0.5185547,1.21875,0.7138672,1.6660156,0.7138672
			C489.96875,252.2119598,490.7949219,251.1894989,490.7949219,249.5088348z"/>
		<path d="M493.2988281,249.6211395c0-2.2832031,1.484375-3.5859375,3.1503906-3.5859375
			c1.6679688,0,3.1523438,1.3027344,3.1523438,3.5859375c0,2.2548828-1.484375,3.5576172-3.1523438,3.5576172
			C494.7832031,253.1787567,493.2988281,251.8760223,493.2988281,249.6211395z M498.4111328,249.6211395
			c0-1.5693359-0.7841797-2.6337891-1.9619141-2.6337891c-1.1621094,0-1.9609375,1.0644531-1.9609375,2.6337891
			c0,1.5546875,0.7988281,2.6054688,1.9609375,2.6054688C497.6269531,252.2266083,498.4111328,251.175827,498.4111328,249.6211395z"
			/>
		<path d="M501.6289062,255.4199677h-0.9951172l-0.1259766-2.6191406v-0.7285156h0.3359375
			c0.3789062-0.2099609,0.6865234-0.6582031,0.953125-2.8574219l0.3632812-3.0117188h4.2304688v5.8691406h0.9951172v0.7285156
			l-0.1123047,2.6191406h-0.9941406v-2.4091797h-4.6503906V255.4199677z M502.0761719,252.0723114h3.1660156v-4.9306641h-2.1708984
			l-0.2666016,2.296875C502.6503906,250.7832489,502.3984375,251.582077,502.0761719,252.0723114z"/>
		<path d="M508.4746094,251.2461395c0-1.4853516,1.2734375-2.2275391,4.1738281-2.5498047
			c0-0.8681641-0.2802734-1.7089844-1.4003906-1.7089844c-0.7851562,0-1.5,0.3642578-2.03125,0.7285156l-0.4492188-0.7988281
			c0.6308594-0.4052734,1.5839844-0.8818359,2.6757812-0.8818359c1.6669922,0,2.3671875,1.1064453,2.3671875,2.8017578v4.1738281
			h-0.9521484l-0.0986328-0.8125H512.71875c-0.6445312,0.5322266-1.4013672,0.9804688-2.2558594,0.9804688
			C509.328125,253.1787567,508.4746094,252.4648895,508.4746094,251.2461395z M512.6484375,251.3437958v-1.890625
			c-2.2695312,0.2802734-3.0537109,0.8398438-3.0537109,1.7089844c0,0.7705078,0.5322266,1.0917969,1.2041016,1.0917969
			C511.4570312,252.253952,511.9902344,251.932663,512.6484375,251.3437958z"/>
	</g>
	<g>
		<path d="M459.390625,269.4951477h2.6191406c2.0595703,0,3.4472656,0.6855469,3.4472656,2.703125
			c0,1.9326172-1.3730469,2.84375-3.390625,2.84375h-1.5126953v3.6416016h-1.1630859V269.4951477z M461.9257812,274.0888977
			c1.5976562,0,2.3681641-0.5878906,2.3681641-1.890625c0-1.3310547-0.8125-1.7646484-2.4228516-1.7646484h-1.3173828v3.6552734
			H461.9257812z"/>
		<path d="M466.3632812,275.2939758c0-2.2275391,1.4980469-3.5859375,3.0527344-3.5859375
			c1.7373047,0,2.7177734,1.2460938,2.7177734,3.1933594c0,0.2382812-0.0146484,0.4902344-0.0419922,0.6582031h-4.5947266
			c0.0839844,1.4433594,0.9667969,2.3671875,2.2695312,2.3671875c0.6435547,0,1.1904297-0.2099609,1.6943359-0.5322266
			l0.40625,0.7568359c-0.5878906,0.3779297-1.3164062,0.7001953-2.2402344,0.7001953
			C467.8046875,278.851593,466.3632812,277.5205383,466.3632812,275.2939758z M471.125,274.733429
			c0-1.3730469-0.6162109-2.1152344-1.6806641-2.1152344c-0.9521484,0-1.8212891,0.7705078-1.9609375,2.1152344H471.125z"/>
		<path d="M473.8105469,271.8760071h4.2441406v0.9384766h-3.0957031v5.8691406h-1.1484375V271.8760071z"/>
		<path d="M479.5644531,271.8760071h1.1210938v2.8291016c0,0.7285156-0.0566406,1.6396484-0.1123047,2.5078125h0.0556641
			c0.2519531-0.4199219,0.6582031-1.0371094,0.8964844-1.4570312l2.578125-3.8798828h1.078125v6.8076172h-1.1210938v-2.8291016
			c0-0.7285156,0.0566406-1.6396484,0.1132812-2.5214844h-0.0566406c-0.2519531,0.4199219-0.6582031,1.0498047-0.8964844,1.4560547
			l-2.5917969,3.8945312h-1.0644531V271.8760071z"/>
		<path d="M486.9707031,275.2939758c0-2.2832031,1.484375-3.5859375,3.1503906-3.5859375
			c1.6679688,0,3.1523438,1.3027344,3.1523438,3.5859375c0,2.2548828-1.484375,3.5576172-3.1523438,3.5576172
			C488.4550781,278.851593,486.9707031,277.5488586,486.9707031,275.2939758z M492.0830078,275.2939758
			c0-1.5693359-0.7841797-2.6337891-1.9619141-2.6337891c-1.1621094,0-1.9609375,1.0644531-1.9609375,2.6337891
			c0,1.5546875,0.7988281,2.6054688,1.9609375,2.6054688C491.2988281,277.8994446,492.0830078,276.8486633,492.0830078,275.2939758z
			"/>
		<path d="M495.0625,271.8760071h1.1484375v2.7597656h3.2773438v-2.7597656h1.1484375v6.8076172h-1.1484375v-3.0253906h-3.2773438
			v3.0253906H495.0625V271.8760071z"/>
	</g>
</g>
<polyline style="&st2;" points="442.6595459,248.000412 399.8146973,248.000412 399.8146973,107.8363419 357.4051514,107.8363419 
	"/>
<g>
	<g>
		<rect x="441.6595459" y="236.0691681" style="&st0;" width="1" height="50.8898163"/>
	</g>
</g>
<g>
	<rect x="175.1451416" y="62.20755" style="&st0;" width="182.3246918" height="28"/>
</g>
<rect x="175.1451416" y="116.0313873" style="&st1;" width="182.3246918" height="24"/>
<g>
	<rect x="175.1451416" y="139.1246948" style="&st0;" width="182.3246918" height="1"/>
</g>
<g>
	<rect x="175.1451416" y="116.0313873" style="&st0;" width="182.3246918" height="1"/>
</g>
<g>
	<g>
		<rect x="175.1451416" y="89.2348785" style="&st0;" width="1" height="50.8898163"/>
	</g>
</g>
<g>
	<g>
		<rect x="356.4698486" y="89.2348785" style="&st0;" width="1" height="50.8898163"/>
	</g>
</g>
<g>
	<path d="M192.8769379,71.3144989h6.5136719v9.1894531h-1.1621094v-8.2089844h-4.1894531v8.2089844h-1.1621094V71.3144989z"/>
	<path d="M201.2910004,77.113327c0-2.2265625,1.4980469-3.5859375,3.0527344-3.5859375
		c1.7373047,0,2.7177734,1.2460938,2.7177734,3.1933594c0,0.2382812-0.0146484,0.4902344-0.0419922,0.6582031h-4.5947266
		c0.0839844,1.4433594,0.9667969,2.3671875,2.2695312,2.3671875c0.6435547,0,1.1904297-0.2089844,1.6943359-0.53125
		l0.40625,0.7558594c-0.5878906,0.3789062-1.3164062,0.7011719-2.2402344,0.7011719
		C202.7324066,80.6719208,201.2910004,79.3398895,201.2910004,77.113327z M206.0527191,76.5527802
		c0-1.3730469-0.6162109-2.1152344-1.6806641-2.1152344c-0.9521484,0-1.8212891,0.7714844-1.9609375,2.1152344H206.0527191z"/>
	<path d="M208.738266,73.6953583h0.953125l0.0976562,0.7851562h0.0419922
		c0.6162109-0.5195312,1.3720703-0.953125,2.1708984-0.953125c1.7519531,0,2.6894531,1.359375,2.6894531,3.4746094
		c0,2.3105469-1.3867188,3.6699219-2.9414062,3.6699219c-0.6308594,0-1.2607422-0.2949219-1.890625-0.7851562l0.0273438,1.1914062
		v2.296875h-1.1484375V73.6953583z M213.5009613,77.0019989c0-1.5-0.5048828-2.5078125-1.7929688-2.5078125
		c-0.5742188,0-1.1484375,0.3222656-1.8212891,0.9238281v3.5722656c0.6171875,0.5195312,1.21875,0.7148438,1.6679688,0.7148438
		C212.6747894,79.7051239,213.5009613,78.6816864,213.5009613,77.0019989z"/>
	<path d="M216.003891,77.113327c0-2.2832031,1.5273438-3.5859375,3.2773438-3.5859375
		c0.8964844,0,1.5136719,0.3652344,1.9902344,0.7988281l-0.5888672,0.7558594
		c-0.3916016-0.3496094-0.8125-0.6015625-1.3583984-0.6015625c-1.2324219,0-2.1289062,1.0644531-2.1289062,2.6328125
		c0,1.5546875,0.8535156,2.6054688,2.1005859,2.6054688c0.6298828,0,1.1767578-0.3085938,1.5966797-0.6855469l0.5039062,0.7695312
		c-0.6152344,0.546875-1.3867188,0.8691406-2.1992188,0.8691406C217.3906097,80.6719208,216.003891,79.3691864,216.003891,77.113327
		z"/>
	<path d="M222.0937347,77.113327c0-2.2832031,1.484375-3.5859375,3.1523438-3.5859375
		c1.6660156,0,3.1513672,1.3027344,3.1513672,3.5859375c0,2.2558594-1.4853516,3.5585938-3.1513672,3.5585938
		C223.5781097,80.6719208,222.0937347,79.3691864,222.0937347,77.113327z M227.207016,77.113327
		c0-1.5683594-0.7851562-2.6328125-1.9609375-2.6328125c-1.1630859,0-1.9609375,1.0644531-1.9609375,2.6328125
		c0,1.5546875,0.7978516,2.6054688,1.9609375,2.6054688C226.4218597,79.7187958,227.207016,78.6680145,227.207016,77.113327z"/>
	<path d="M230.1855316,73.6953583h1.1494141v2.7597656h3.2783203v-2.7597656h1.1484375v6.8085938h-1.1484375v-3.0253906h-3.2783203
		v3.0253906h-1.1494141V73.6953583z"/>
	<path d="M237.6347504,78.738327c0-1.484375,1.2734375-2.2265625,4.1738281-2.5488281
		c0-0.8691406-0.2802734-1.7089844-1.4003906-1.7089844c-0.7851562,0-1.5,0.3632812-2.03125,0.7285156l-0.4492188-0.7988281
		c0.6308594-0.40625,1.5839844-0.8828125,2.6757812-0.8828125c1.6669922,0,2.3671875,1.1074219,2.3671875,2.8027344v4.1738281
		h-0.9521484l-0.0986328-0.8125h-0.0410156c-0.6445312,0.53125-1.4013672,0.9804688-2.2558594,0.9804688
		C238.488266,80.6719208,237.6347504,79.957077,237.6347504,78.738327z M241.8085785,78.8359833v-1.890625
		c-2.2695312,0.28125-3.0537109,0.8398438-3.0537109,1.7089844c0,0.7714844,0.5322266,1.0917969,1.2041016,1.0917969
		C240.6171722,79.7461395,241.1503754,79.425827,241.8085785,78.8359833z"/>
</g>
<g>
	<path d="M177.3076019,35.5010185h5.5332031v1.3730469h-3.9082031v7.7880859h-1.625V35.5010185z"/>
	<path d="M181.8857269,44.6904716l0.2802734-1.4570312c0.0976562,0.0283203,0.1953125,0.0556641,0.3359375,0.0556641
		c0.4199219,0,0.7148438-0.3642578,0.8261719-1.2324219c0.1816406-1.4287109,0.3359375-2.84375,0.4902344-4.2724609h4.6640625
		v6.8779297h-1.6103516v-5.6025391h-1.7646484c-0.140625,1.1337891-0.2802734,2.296875-0.4199219,3.4316406
		c-0.2109375,1.5263672-0.8964844,2.3388672-2.0742188,2.3388672
		C182.3202972,44.8301201,182.1093597,44.7881279,181.8857269,44.6904716z"/>
	<path d="M190.160141,42.8135185c0-1.4707031,1.21875-2.2412109,4.0478516-2.5498047
		c-0.0283203-0.7285156-0.3222656-1.3447266-1.2607422-1.3447266c-0.671875,0-1.3164062,0.3085938-1.9335938,0.6728516
		l-0.5878906-1.0791016c0.7568359-0.4765625,1.7373047-0.8964844,2.8300781-0.8964844
		c1.7089844,0,2.5625,1.0507812,2.5625,2.9697266v4.0761719h-1.3300781l-0.1123047-0.7568359h-0.0556641
		c-0.6171875,0.5185547-1.3164062,0.9248047-2.1289062,0.9248047
		C190.9863129,44.8301201,190.160141,44.0176201,190.160141,42.8135185z M194.2079926,42.8135185v-1.5410156
		c-1.8769531,0.2382812-2.4931641,0.7285156-2.4931641,1.4150391c0,0.6162109,0.4199219,0.8818359,0.9941406,0.8818359
		C193.269516,43.5693779,193.6894379,43.2891045,194.2079926,42.8135185z"/>
	<path d="M197.7480316,37.7842216h2.7871094c1.5273438,0,2.6621094,0.4628906,2.6621094,1.7792969
		c0,0.671875-0.3925781,1.21875-1.1484375,1.4423828v0.0566406c0.8125,0.1953125,1.4277344,0.671875,1.4277344,1.625
		c0,1.3867188-1.2177734,1.9746094-2.8007812,1.9746094h-2.9277344V37.7842216z M200.3808441,40.5723076
		c0.8964844,0,1.2617188-0.3222656,1.2617188-0.8408203c0-0.5322266-0.3505859-0.8544922-1.21875-0.8544922h-1.0927734v1.6953125
		H200.3808441z M200.5634613,43.5693779c0.9248047,0,1.3310547-0.3779297,1.3310547-0.9804688
		c0-0.5605469-0.4482422-0.9248047-1.3867188-0.9248047h-1.1767578v1.9052734H200.5634613z"/>
	<path d="M204.9999847,37.7842216h1.6113281v2.6337891h2.7451172v-2.6337891h1.6103516v6.8779297h-1.6103516v-2.8291016h-2.7451172
		v2.8291016h-1.6113281V37.7842216z"/>
	<path d="M212.6435394,42.8135185c0-1.4707031,1.21875-2.2412109,4.0478516-2.5498047
		c-0.0273438-0.7285156-0.3222656-1.3447266-1.2597656-1.3447266c-0.6728516,0-1.3173828,0.3085938-1.9335938,0.6728516
		l-0.5878906-1.0791016c0.7558594-0.4765625,1.7363281-0.8964844,2.8291016-0.8964844
		c1.7089844,0,2.5634766,1.0507812,2.5634766,2.9697266v4.0761719h-1.3300781l-0.1132812-0.7568359h-0.0556641
		c-0.6162109,0.5185547-1.3164062,0.9248047-2.1289062,0.9248047
		C213.4706879,44.8301201,212.6435394,44.0176201,212.6435394,42.8135185z M216.691391,42.8135185v-1.5410156
		c-1.8769531,0.2382812-2.4921875,0.7285156-2.4921875,1.4150391c0,0.6162109,0.4199219,0.8818359,0.9941406,0.8818359
		C215.753891,43.5693779,216.1738129,43.2891045,216.691391,42.8135185z"/>
	<path d="M223.9853363,42.196331h-1.0087891h-0.0273438l-1.6113281,2.4658203h-1.8066406l1.9472656-2.7451172
		c-0.7705078-0.3369141-1.359375-0.953125-1.359375-1.9755859c0-1.6103516,1.21875-2.1572266,2.7880859-2.1572266h2.6894531
		v6.8779297h-1.6113281V42.196331z M223.9853363,41.062542v-2.0732422h-0.8544922
		c-0.8964844,0-1.4140625,0.3076172-1.4140625,0.9941406c0,0.6728516,0.5175781,1.0791016,1.4140625,1.0791016H223.9853363z"/>
	<path d="M231.9501801,39.0596123h-2.1572266v-1.2753906h5.9394531v1.2753906h-2.1572266v5.6025391h-1.625V39.0596123z"/>
	<path d="M236.457016,42.8135185c0-1.4707031,1.21875-2.2412109,4.0488281-2.5498047
		c-0.0283203-0.7285156-0.3222656-1.3447266-1.2617188-1.3447266c-0.671875,0-1.3164062,0.3085938-1.9326172,0.6728516
		l-0.5888672-1.0791016c0.7568359-0.4765625,1.7382812-0.8964844,2.8300781-0.8964844
		c1.7089844,0,2.5634766,1.0507812,2.5634766,2.9697266v4.0761719h-1.3310547l-0.1113281-0.7568359h-0.0566406
		c-0.6162109,0.5185547-1.3164062,0.9248047-2.1289062,0.9248047
		C237.2831879,44.8301201,236.457016,44.0176201,236.457016,42.8135185z M240.5058441,42.8135185v-1.5410156
		c-1.8769531,0.2382812-2.4941406,0.7285156-2.4941406,1.4150391c0,0.6162109,0.4199219,0.8818359,0.9941406,0.8818359
		C239.566391,43.5693779,239.9872894,43.2891045,240.5058441,42.8135185z"/>
	<path d="M243.6952972,40.4316826c0-4.3984375,1.7363281-5.2246094,4.3144531-5.6025391
		c0.8125-0.1123047,1.1201172-0.1962891,1.5400391-0.3925781l0.3222656,1.4287109
		c-0.3642578,0.2519531-0.9248047,0.3925781-1.5263672,0.4765625c-2.0732422,0.2939453-2.84375,0.4199219-3.0546875,2.7314453
		c0.546875-0.6582031,1.3320312-0.9951172,2.1445312-0.9951172c1.5400391,0,2.703125,1.1494141,2.703125,3.2080078
		c0,2.1435547-1.359375,3.5439453-3.1240234,3.5439453C244.8993988,44.8301201,243.6952972,43.2197685,243.6952972,40.4316826z
		 M248.4853363,41.2861748c0-1.3300781-0.5458984-1.9892578-1.4990234-1.9892578c-0.5742188,0-1.2050781,0.2529297-1.75,1.0224609
		c0,0.1542969,0,0.3085938,0,0.4628906c0,1.7783203,0.6152344,2.7314453,1.7636719,2.7314453
		C247.8964691,43.5137138,248.4853363,42.6309013,248.4853363,41.2861748z"/>
	<path d="M250.7363129,44.6904716l0.2792969-1.4570312c0.0986328,0.0283203,0.1972656,0.0556641,0.3369141,0.0556641
		c0.4199219,0,0.7138672-0.3642578,0.8261719-1.2324219c0.1826172-1.4287109,0.3369141-2.84375,0.4902344-4.2724609h4.6650543
		v6.8779297h-1.6113434v-5.6025391h-1.7646484c-0.1396484,1.1337891-0.2802734,2.296875-0.4208984,3.4316406
		c-0.2089844,1.5263672-0.8964844,2.3388672-2.0722656,2.3388672
		C251.1699066,44.8301201,250.9599457,44.7881279,250.7363129,44.6904716z"/>
	<path d="M259.375,37.7842216h1.5683594v2.3671875c0,0.7148438-0.0839844,1.625-0.140625,2.4941406h0.0429688
		c0.2382812-0.4208984,0.6298828-1.0507812,0.8535156-1.4570312l2.1855469-3.4042969h1.484375v6.8779297h-1.5683594v-2.3671875
		c0-0.7148438,0.0839844-1.625,0.1542969-2.4931641h-0.0566406c-0.2373047,0.4199219-0.6152344,1.0507812-0.8535156,1.4560547
		l-2.1855469,3.4042969H259.375V37.7842216z"/>
	<path d="M267.4101562,37.7842216h1.6113281v5.5888672h2.5488281v-5.5888672h1.6113281v5.5888672h1.0507812v1.0507812
		l-0.1679688,2.6474609h-1.3867188v-2.4091797h-5.2675781V37.7842216z"/>
	<path d="M275.1796875,42.8135185c0-1.4707031,1.21875-2.2412109,4.0488281-2.5498047
		c-0.0283203-0.7285156-0.3222656-1.3447266-1.2617188-1.3447266c-0.671875,0-1.3164062,0.3085938-1.9326172,0.6728516
		l-0.5888672-1.0791016c0.7568359-0.4765625,1.7382812-0.8964844,2.8300781-0.8964844
		c1.7089844,0,2.5634766,1.0507812,2.5634766,2.9697266v4.0761719h-1.3310547l-0.1113281-0.7568359h-0.0566406
		c-0.6162109,0.5185547-1.3164062,0.9248047-2.1289062,0.9248047
		C276.0058594,44.8301201,275.1796875,44.0176201,275.1796875,42.8135185z M279.2285156,42.8135185v-1.5410156
		c-1.8769531,0.2382812-2.4941406,0.7285156-2.4941406,1.4150391c0,0.6162109,0.4199219,0.8818359,0.9941406,0.8818359
		C278.2890625,43.5693779,278.7099609,43.2891045,279.2285156,42.8135185z"/>
</g>
<g>
	<path d="M442.8222656,35.500042h6.8359375v9.1611328h-1.625v-7.7880859h-3.5859375v7.7880859h-1.625V35.500042z"/>
	<path d="M451.8378906,37.7832451h1.3310547l0.1123047,0.7285156h0.0556641
		c0.5742188-0.4902344,1.3164062-0.8964844,2.0732422-0.8964844c1.7089844,0,2.703125,1.3730469,2.703125,3.5019531
		c0,2.3535156-1.4140625,3.7119141-2.9414062,3.7119141c-0.6025391,0-1.2050781-0.2802734-1.765625-0.7558594l0.0429688,1.1484375
		v2.1572266h-1.6113281V37.7832451z M456.4462891,41.1309013c0-1.3720703-0.4482422-2.1845703-1.484375-2.1845703
		c-0.5048828,0-0.9814453,0.2519531-1.5126953,0.7705078v3.2070312c0.5039062,0.4208984,0.9804688,0.5742188,1.3867188,0.5742188
		C455.7460938,43.4980888,456.4462891,42.6865654,456.4462891,41.1309013z"/>
	<path d="M459.734375,37.7832451h1.5683594v2.3671875c0,0.7148438-0.0839844,1.625-0.140625,2.4941406h0.0429688
		c0.2382812-0.4208984,0.6298828-1.0507812,0.8535156-1.4570312l2.1855469-3.4042969h1.484375v6.8779297h-1.5683594v-2.3671875
		c0-0.7148438,0.0839844-1.625,0.1542969-2.4931641h-0.0566406c-0.2373047,0.4199219-0.6152344,1.0507812-0.8535156,1.4560547
		l-2.1855469,3.4042969h-1.484375V37.7832451z"/>
	<path d="M467.3212891,41.2295341c0-2.2978516,1.6103516-3.6142578,3.4462891-3.6142578
		c0.8828125,0,1.5126953,0.3359375,2.0166016,0.7705078L472,39.4365654
		c-0.3642578-0.3222656-0.7148438-0.5048828-1.1484375-0.5048828c-1.1074219,0-1.8769531,0.9111328-1.8769531,2.2978516
		c0,1.3720703,0.7558594,2.2832031,1.8339844,2.2832031c0.5332031,0,1.0234375-0.2666016,1.4160156-0.5888672l0.6582031,1.0644531
		c-0.6445312,0.5605469-1.4570312,0.8408203-2.2421875,0.8408203
		C468.7636719,44.8291435,467.3212891,43.5127373,467.3212891,41.2295341z"/>
	<path d="M473.453125,41.2295341c0-2.2978516,1.5546875-3.6142578,3.2636719-3.6142578
		c1.7226562,0,3.2773438,1.3164062,3.2773438,3.6142578c0,2.2832031-1.5546875,3.5996094-3.2773438,3.5996094
		C475.0078125,44.8291435,473.453125,43.5127373,473.453125,41.2295341z M478.3417969,41.2295341
		c0-1.3867188-0.6162109-2.2978516-1.625-2.2978516c-1.0078125,0-1.6113281,0.9111328-1.6113281,2.2978516
		c0,1.3720703,0.6035156,2.2832031,1.6113281,2.2832031C477.7255859,43.5127373,478.3417969,42.6016045,478.3417969,41.2295341z"/>
	<path d="M481.1386719,41.2295341c0-2.2412109,1.5556641-3.6142578,3.1660156-3.6142578
		c1.8632812,0,2.84375,1.3447266,2.84375,3.2636719c0,0.3085938-0.0273438,0.6162109-0.0703125,0.7841797h-4.3701172
		c0.1396484,1.21875,0.9248047,1.9199219,2.03125,1.9199219c0.5888672,0,1.0927734-0.1826172,1.5966797-0.5048828
		l0.546875,1.0087891c-0.6582031,0.4345703-1.4853516,0.7421875-2.3535156,0.7421875
		C482.6240234,44.8291435,481.1386719,43.4980888,481.1386719,41.2295341z M485.7480469,40.571331
		c0-1.0654297-0.4628906-1.7089844-1.4003906-1.7089844c-0.8125,0-1.5136719,0.6015625-1.6533203,1.7089844H485.7480469z"/>
	<path d="M489.4277344,47.0703545h-1.4003906l-0.1542969-2.6474609v-1.0507812h0.3925781
		c0.3496094-0.1816406,0.6298828-0.6298828,0.8818359-2.703125l0.3359375-2.8857422h4.7207031v5.5888672h1.0507812v1.0507812
		l-0.1689453,2.6474609h-1.3867188v-2.4091797h-4.2714844V47.0703545z M489.8896484,43.3721123h2.7041016v-4.3134766h-1.8359375
		l-0.2089844,1.9609375C490.421875,42.0976982,490.1972656,42.8545341,489.8896484,43.3721123z"/>
	<path d="M496.4970703,37.7832451h1.5693359v2.3671875c0,0.7148438-0.0839844,1.625-0.140625,2.4941406h0.0419922
		c0.2382812-0.4208984,0.6298828-1.0507812,0.8544922-1.4570312l2.1855469-3.4042969h1.484375v6.8779297h-1.5683594v-2.3671875
		c0-0.7148438,0.0839844-1.625,0.1542969-2.4931641h-0.0566406c-0.2382812,0.4199219-0.6162109,1.0507812-0.8544922,1.4560547
		l-2.1845703,3.4042969h-1.4853516V37.7832451z"/>
	<path d="M504.5332031,37.7832451h1.6103516v2.6337891h2.7451172v-2.6337891H510.5v6.8779297h-1.6113281v-2.8291016h-2.7451172
		v2.8291016h-1.6103516V37.7832451z"/>
	<path d="M516.2949219,42.1953545h-1.0087891h-0.0283203l-1.6103516,2.4658203h-1.8076172l1.9472656-2.7451172
		c-0.7695312-0.3369141-1.3583984-0.953125-1.3583984-1.9755859c0-1.6103516,1.21875-2.1572266,2.7871094-2.1572266h2.6894531
		v6.8779297h-1.6103516V42.1953545z M516.2949219,41.0615654v-2.0732422h-0.8544922
		c-0.8964844,0-1.4150391,0.3076172-1.4150391,0.9941406c0,0.6728516,0.5185547,1.0791016,1.4150391,1.0791016H516.2949219z"/>
	<path d="M519.5117188,41.2295341c0-2.2412109,1.5556641-3.6142578,3.1660156-3.6142578
		c1.8632812,0,2.84375,1.3447266,2.84375,3.2636719c0,0.3085938-0.0273438,0.6162109-0.0703125,0.7841797h-4.3701172
		c0.1396484,1.21875,0.9248047,1.9199219,2.03125,1.9199219c0.5888672,0,1.0927734-0.1826172,1.5966797-0.5048828
		l0.546875,1.0087891c-0.6582031,0.4345703-1.4853516,0.7421875-2.3535156,0.7421875
		C520.9970703,44.8291435,519.5117188,43.4980888,519.5117188,41.2295341z M524.1210938,40.571331
		c0-1.0654297-0.4628906-1.7089844-1.4003906-1.7089844c-0.8125,0-1.5136719,0.6015625-1.6533203,1.7089844H524.1210938z"/>
	<path d="M527.0585938,37.7832451h1.8486328l1.1064453,2.7734375c0.1962891,0.5742188,0.3789062,1.0927734,0.546875,1.6113281
		h0.0556641c0.1826172-0.5185547,0.3916016-1.0371094,0.5595703-1.6113281l1.0507812-2.7734375h1.8496094v6.8779297h-1.4570312
		v-2.4091797c0-0.6728516,0.1123047-1.9335938,0.1816406-2.6757812h-0.0556641
		c-0.1962891,0.5742188-0.4619141,1.2324219-0.6582031,1.7792969l-1.0361328,2.6894531h-0.953125l-1.0644531-2.6894531
		c-0.1962891-0.546875-0.4628906-1.21875-0.6582031-1.7792969h-0.0566406
		c0.0566406,0.7421875,0.1679688,2.0029297,0.1679688,2.6757812v2.4091797h-1.4277344V37.7832451z"/>
	<path d="M535.7519531,42.812542c0-1.4707031,1.21875-2.2412109,4.0478516-2.5498047
		c-0.0283203-0.7285156-0.3222656-1.3447266-1.2607422-1.3447266c-0.671875,0-1.3164062,0.3085938-1.9335938,0.6728516
		l-0.5878906-1.0791016c0.7568359-0.4765625,1.7373047-0.8964844,2.8300781-0.8964844
		c1.7089844,0,2.5625,1.0507812,2.5625,2.9697266v4.0761719h-1.3300781l-0.1123047-0.7568359h-0.0556641
		c-0.6171875,0.5185547-1.3164062,0.9248047-2.1289062,0.9248047
		C536.578125,44.8291435,535.7519531,44.0166435,535.7519531,42.812542z M539.7998047,42.812542v-1.5410156
		c-1.8769531,0.2382812-2.4931641,0.7285156-2.4931641,1.4150391c0,0.6162109,0.4199219,0.8818359,0.9941406,0.8818359
		C538.8613281,43.5684013,539.28125,43.2881279,539.7998047,42.812542z"/>
	<path d="M547.09375,42.1953545h-1.0078125h-0.0283203l-1.6113281,2.4658203h-1.8066406l1.9462891-2.7451172
		c-0.7695312-0.3369141-1.3574219-0.953125-1.3574219-1.9755859c0-1.6103516,1.2177734-2.1572266,2.7871094-2.1572266h2.6894531
		v6.8779297H547.09375V42.1953545z M547.09375,41.0615654v-2.0732422h-0.8544922
		c-0.8964844,0-1.4150391,0.3076172-1.4150391,0.9941406c0,0.6728516,0.5185547,1.0791016,1.4150391,1.0791016H547.09375z"/>
	<path d="M555.0585938,39.0586357h-2.1572266v-1.2753906h5.9384766v1.2753906h-2.15625v5.6025391h-1.625V39.0586357z"/>
	<path d="M559.5654297,42.812542c0-1.4707031,1.21875-2.2412109,4.0478516-2.5498047
		c-0.0273438-0.7285156-0.3222656-1.3447266-1.2597656-1.3447266c-0.6728516,0-1.3173828,0.3085938-1.9335938,0.6728516
		l-0.5878906-1.0791016c0.7558594-0.4765625,1.7363281-0.8964844,2.8291016-0.8964844
		c1.7089844,0,2.5634766,1.0507812,2.5634766,2.9697266v4.0761719h-1.3300781l-0.1132812-0.7568359h-0.0556641
		c-0.6162109,0.5185547-1.3164062,0.9248047-2.1289062,0.9248047
		C560.3925781,44.8291435,559.5654297,44.0166435,559.5654297,42.812542z M563.6132812,42.812542v-1.5410156
		c-1.8769531,0.2382812-2.4921875,0.7285156-2.4921875,1.4150391c0,0.6162109,0.4199219,0.8818359,0.9941406,0.8818359
		C562.6757812,43.5684013,563.0957031,43.2881279,563.6132812,42.812542z"/>
	<path d="M566.8027344,40.430706c0-4.3984375,1.7373047-5.2246094,4.3144531-5.6025391
		c0.8125-0.1123047,1.1210938-0.1962891,1.5410156-0.3925781l0.3222656,1.4287109
		c-0.3642578,0.2519531-0.9238281,0.3925781-1.5273438,0.4765625c-2.0722656,0.2939453-2.8427734,0.4199219-3.0527344,2.7314453
		c0.5458984-0.6582031,1.3300781-0.9951172,2.1425781-0.9951172c1.5410156,0,2.703125,1.1494141,2.703125,3.2080078
		c0,2.1435547-1.3574219,3.5439453-3.1230469,3.5439453C568.0078125,44.8291435,566.8027344,43.218792,566.8027344,40.430706z
		 M571.59375,41.2851982c0-1.3300781-0.546875-1.9892578-1.4980469-1.9892578c-0.5751953,0-1.2050781,0.2529297-1.7519531,1.0224609
		c0,0.1542969,0,0.3085938,0,0.4628906c0,1.7783203,0.6171875,2.7314453,1.765625,2.7314453
		C571.0058594,43.5127373,571.59375,42.6299248,571.59375,41.2851982z"/>
	<path d="M573.8447266,44.6894951L574.125,43.2324638c0.0976562,0.0283203,0.1962891,0.0556641,0.3359375,0.0556641
		c0.4199219,0,0.7148438-0.3642578,0.8261719-1.2324219c0.1826172-1.4287109,0.3369141-2.84375,0.4902344-4.2724609h4.6650391
		v6.8779297h-1.6103516v-5.6025391h-1.765625c-0.1396484,1.1337891-0.2792969,2.296875-0.4199219,3.4316406
		c-0.2099609,1.5263672-0.8964844,2.3388672-2.0732422,2.3388672
		C574.2792969,44.8291435,574.0693359,44.7871513,573.8447266,44.6894951z"/>
	<path d="M582.4833984,37.7832451h1.5693359v2.3671875c0,0.7148438-0.0839844,1.625-0.140625,2.4941406h0.0419922
		c0.2382812-0.4208984,0.6298828-1.0507812,0.8544922-1.4570312l2.1855469-3.4042969h1.484375v6.8779297h-1.5683594v-2.3671875
		c0-0.7148438,0.0839844-1.625,0.1542969-2.4931641h-0.0566406c-0.2382812,0.4199219-0.6162109,1.0507812-0.8544922,1.4560547
		l-2.1845703,3.4042969h-1.4853516V37.7832451z"/>
	<path d="M590.5195312,37.7832451h1.6103516v5.5888672h2.5498047v-5.5888672h1.6103516v5.5888672h1.0507812v1.0507812
		l-0.1679688,2.6474609h-1.3867188v-2.4091797h-5.2666016V37.7832451z"/>
	<path d="M598.2890625,42.812542c0-1.4707031,1.21875-2.2412109,4.0478516-2.5498047
		c-0.0283203-0.7285156-0.3222656-1.3447266-1.2607422-1.3447266c-0.671875,0-1.3164062,0.3085938-1.9335938,0.6728516
		l-0.5878906-1.0791016c0.7568359-0.4765625,1.7373047-0.8964844,2.8300781-0.8964844
		c1.7089844,0,2.5625,1.0507812,2.5625,2.9697266v4.0761719h-1.3300781l-0.1123047-0.7568359h-0.0556641
		c-0.6171875,0.5185547-1.3164062,0.9248047-2.1289062,0.9248047
		C599.1152344,44.8291435,598.2890625,44.0166435,598.2890625,42.812542z M602.3369141,42.812542v-1.5410156
		c-1.8769531,0.2382812-2.4931641,0.7285156-2.4931641,1.4150391c0,0.6162109,0.4199219,0.8818359,0.9941406,0.8818359
		C601.3984375,43.5684013,601.8183594,43.2881279,602.3369141,42.812542z"/>
</g>
<g>
	<path d="M192.5546722,97.2256317c0-0.4482422,0.3496094-0.7421875,0.7988281-0.7421875
		c0.4472656,0,0.7978516,0.2939453,0.7978516,0.7421875c0,0.4345703-0.3505859,0.7431641-0.7978516,0.7431641
		C192.9042816,97.9687958,192.5546722,97.660202,192.5546722,97.2256317z M192.7646332,99.3691864h1.1494141v6.8076172h-1.1494141
		V99.3691864z"/>
	<path d="M195.7187347,102.7871552c0-2.2128906,1.4003906-3.5859375,2.9550781-3.5859375
		c0.7851562,0,1.3027344,0.2939453,1.9052734,0.7841797l-0.0556641-1.1621094v-2.6201172h1.1621094v9.9736328h-0.953125
		l-0.0976562-0.7988281h-0.0410156c-0.5332031,0.5185547-1.2617188,0.9667969-2.0605469,0.9667969
		C196.8251801,106.3447723,195.7187347,105.0566864,195.7187347,102.7871552z M200.5234222,104.4394989v-3.5576172
		c-0.5742188-0.5185547-1.09375-0.7138672-1.6533203-0.7138672c-1.0927734,0-1.9609375,1.0498047-1.9609375,2.6044922
		c0,1.625,0.6865234,2.6054688,1.8769531,2.6054688C199.4160004,105.3779755,199.9628754,105.0703583,200.5234222,104.4394989z"/>
	<path d="M206.7783051,99.3691864h4.2451172v0.9384766h-3.0957031v5.8691406h-1.1494141V99.3691864z"/>
	<path d="M211.425766,102.7871552c0-2.2832031,1.484375-3.5859375,3.1523438-3.5859375
		c1.6660156,0,3.1513672,1.3027344,3.1513672,3.5859375c0,2.2548828-1.4853516,3.5576172-3.1513672,3.5576172
		C212.910141,106.3447723,211.425766,105.042038,211.425766,102.7871552z M216.5390472,102.7871552
		c0-1.5693359-0.7851562-2.6337891-1.9609375-2.6337891c-1.1630859,0-1.9609375,1.0644531-1.9609375,2.6337891
		c0,1.5546875,0.7978516,2.6054688,1.9609375,2.6054688C215.753891,105.3926239,216.5390472,104.3418427,216.5390472,102.7871552z"
		/>
	<path d="M219.5175629,99.3691864h0.953125l0.0976562,0.7841797h0.0429688
		c0.6152344-0.5185547,1.3720703-0.9521484,2.1708984-0.9521484c1.7509766,0,2.6894531,1.3583984,2.6894531,3.4736328
		c0,2.3115234-1.3876953,3.6699219-2.9423828,3.6699219c-0.6298828,0-1.2597656-0.2939453-1.890625-0.7841797l0.0283203,1.1904297
		v2.296875h-1.1494141V99.3691864z M224.2812347,102.6748505c0-1.4990234-0.5048828-2.5068359-1.7929688-2.5068359
		c-0.5742188,0-1.1484375,0.3212891-1.8212891,0.9238281v3.5722656c0.6162109,0.5185547,1.21875,0.7138672,1.6669922,0.7138672
		C223.4550629,105.3779755,224.2812347,104.3555145,224.2812347,102.6748505z"/>
	<path d="M226.7841644,102.7871552c0-2.2832031,1.4853516-3.5859375,3.1513672-3.5859375
		c1.6669922,0,3.1523438,1.3027344,3.1523438,3.5859375c0,2.2548828-1.4853516,3.5576172-3.1523438,3.5576172
		C228.269516,106.3447723,226.7841644,105.042038,226.7841644,102.7871552z M231.8964691,102.7871552
		c0-1.5693359-0.7841797-2.6337891-1.9609375-2.6337891c-1.1621094,0-1.9609375,1.0644531-1.9609375,2.6337891
		c0,1.5546875,0.7988281,2.6054688,1.9609375,2.6054688C231.1122894,105.3926239,231.8964691,104.3418427,231.8964691,102.7871552z"
		/>
	<path d="M235.1142426,108.5859833h-0.9951172l-0.125-2.6191406v-0.7285156h0.3359375
		c0.3779297-0.2099609,0.6855469-0.6582031,0.9521484-2.8574219l0.3642578-3.0117188h4.2304688v5.8691406h0.9941406v0.7285156
		l-0.1113281,2.6191406h-0.9951172v-2.4091797h-4.6503906V108.5859833z M235.5624847,105.238327h3.1660156v-4.9306641h-2.171875
		l-0.265625,2.296875C236.1367035,103.9492645,235.8847504,104.7480927,235.5624847,105.238327z"/>
	<path d="M241.9599457,104.4121552c0-1.4853516,1.2744141-2.2275391,4.1748047-2.5498047
		c0-0.8681641-0.28125-1.7089844-1.4013672-1.7089844c-0.7841797,0-1.4990234,0.3642578-2.03125,0.7285156l-0.4482422-0.7988281
		c0.6308594-0.4052734,1.5830078-0.8818359,2.6757812-0.8818359c1.6660156,0,2.3671875,1.1064453,2.3671875,2.8017578v4.1738281
		h-0.953125l-0.0976562-0.8125h-0.0419922c-0.6445312,0.5322266-1.4013672,0.9804688-2.2548828,0.9804688
		C242.8144379,106.3447723,241.9599457,105.6309052,241.9599457,104.4121552z M246.1347504,104.5098114v-1.890625
		c-2.2695312,0.2802734-3.0546875,0.8398438-3.0546875,1.7089844c0,0.7705078,0.5332031,1.0917969,1.2050781,1.0917969
		C244.9433441,105.4199677,245.4755707,105.0986786,246.1347504,104.5098114z"/>
</g>
<g>
	<path d="M192.8769379,122.6611786h1.1484375v4.7480469c0,0.9667969-0.0839844,2.0029297-0.140625,2.9277344h0.0566406
		l0.9941406-1.8769531l3.3769531-5.7988281h1.2324219v9.1884766h-1.1484375v-4.8046875
		c0-0.9667969,0.0839844-1.9472656,0.1396484-2.8710938h-0.0556641l-0.9951172,1.8769531l-3.3759766,5.7988281h-1.2324219
		V122.6611786z"/>
	<path d="M201.9492035,125.042038h1.3300781l1.3310547,3.1933594c0.2099609,0.5605469,0.4208984,1.1064453,0.6162109,1.6533203
		h0.0566406c0.2089844-0.546875,0.4335938-1.0927734,0.6152344-1.6533203l1.3027344-3.1933594h1.3173828v6.8076172h-1.0507812
		v-3.0537109c0-0.6025391,0.0839844-1.6523438,0.1396484-2.3535156h-0.0556641
		c-0.1962891,0.5322266-0.4345703,1.1064453-0.6298828,1.6113281l-1.2890625,3.1513672h-0.7705078l-1.3164062-3.1513672
		c-0.1962891-0.5048828-0.4345703-1.0791016-0.6298828-1.6113281h-0.0566406
		c0.0419922,0.7011719,0.1259766,1.7509766,0.1259766,2.3535156v3.0537109h-1.0361328V125.042038z"/>
	<path d="M214.5644379,129.160202h-1.2597656h-0.0146484l-1.8769531,2.6894531h-1.3027344l2.0732422-2.84375
		c-0.8691406-0.265625-1.5546875-0.8681641-1.5546875-1.9472656c0-1.4980469,1.1484375-2.0166016,2.6757812-2.0166016h2.4082031
		v6.8076172h-1.1484375V129.160202z M214.5644379,128.3193817v-2.3808594h-1.0644531
		c-1.0644531,0-1.7089844,0.3505859-1.7089844,1.1484375c0,0.7988281,0.6445312,1.2324219,1.7089844,1.2324219H214.5644379z"/>
</g>
<g>
	<rect x="441.6595459" y="62.20755" style="&st0;" width="182.3246918" height="28"/>
</g>
<rect x="441.6595459" y="116.0313873" style="&st1;" width="182.3246918" height="24"/>
<g>
	<rect x="441.6595459" y="139.1246948" style="&st0;" width="182.3246918" height="1"/>
</g>
<g>
	<rect x="441.6595459" y="116.0313873" style="&st0;" width="182.3246918" height="1"/>
</g>
<g>
	<g>
		<rect x="622.9842529" y="89.2348785" style="&st0;" width="1" height="50.8898163"/>
	</g>
</g>
<g>
	<path d="M459.390625,71.3144989h5.2949219v0.9804688h-4.1318359v8.2089844h-1.1630859V71.3144989z"/>
	<path d="M464.2773438,77.113327c0-2.2832031,1.484375-3.5859375,3.1503906-3.5859375
		c1.6679688,0,3.1523438,1.3027344,3.1523438,3.5859375c0,2.2558594-1.484375,3.5585938-3.1523438,3.5585938
		C465.7617188,80.6719208,464.2773438,79.3691864,464.2773438,77.113327z M469.3896484,77.113327
		c0-1.5683594-0.7841797-2.6328125-1.9619141-2.6328125c-1.1621094,0-1.9609375,1.0644531-1.9609375,2.6328125
		c0,1.5546875,0.7988281,2.6054688,1.9609375,2.6054688C468.6054688,79.7187958,469.3896484,78.6680145,469.3896484,77.113327z"/>
	<path d="M472.3691406,73.6953583h0.9521484l0.0986328,0.7851562h0.0410156
		c0.6171875-0.5195312,1.3730469-0.953125,2.171875-0.953125c1.7509766,0,2.6894531,1.359375,2.6894531,3.4746094
		c0,2.3105469-1.3867188,3.6699219-2.9414062,3.6699219c-0.6308594,0-1.2617188-0.2949219-1.8916016-0.7851562l0.0283203,1.1914062
		v2.296875h-1.1484375V73.6953583z M477.1308594,77.0019989c0-1.5-0.5039062-2.5078125-1.7929688-2.5078125
		c-0.5742188,0-1.1484375,0.3222656-1.8203125,0.9238281v3.5722656c0.6162109,0.5195312,1.21875,0.7148438,1.6669922,0.7148438
		C476.3046875,79.7051239,477.1308594,78.6816864,477.1308594,77.0019989z"/>
	<path d="M479.6347656,77.113327c0-2.2832031,1.484375-3.5859375,3.1513672-3.5859375S485.9375,74.8301239,485.9375,77.113327
		c0,2.2558594-1.484375,3.5585938-3.1513672,3.5585938S479.6347656,79.3691864,479.6347656,77.113327z M484.7480469,77.113327
		c0-1.5683594-0.7851562-2.6328125-1.9619141-2.6328125c-1.1630859,0-1.9609375,1.0644531-1.9609375,2.6328125
		c0,1.5546875,0.7978516,2.6054688,1.9609375,2.6054688C483.9628906,79.7187958,484.7480469,78.6680145,484.7480469,77.113327z"/>
	<path d="M487.9648438,82.9121552h-0.9941406l-0.1269531-2.6191406v-0.7285156h0.3369141
		c0.3779297-0.2089844,0.6865234-0.6582031,0.9521484-2.8574219l0.3642578-3.0117188h4.2304688v5.8691406h0.9951172v0.7285156
		l-0.1132812,2.6191406h-0.9941406V80.503952h-4.6503906V82.9121552z M488.4130859,79.5644989h3.1650391v-4.9296875h-2.1699219
		l-0.2666016,2.296875C488.9873047,78.2754364,488.7353516,79.0742645,488.4130859,79.5644989z"/>
</g>
<g>
	<path d="M459.0683594,97.2256317c0-0.4482422,0.3505859-0.7421875,0.7988281-0.7421875s0.7988281,0.2939453,0.7988281,0.7421875
		c0,0.4345703-0.3505859,0.7431641-0.7988281,0.7431641S459.0683594,97.660202,459.0683594,97.2256317z M459.2792969,99.3691864
		h1.1484375v6.8076172h-1.1484375V99.3691864z"/>
	<path d="M462.2324219,102.7871552c0-2.2128906,1.4003906-3.5859375,2.9550781-3.5859375
		c0.7851562,0,1.3027344,0.2939453,1.90625,0.7841797l-0.0566406-1.1621094v-2.6201172h1.1621094v9.9736328h-0.9521484
		l-0.0976562-0.7988281h-0.0419922c-0.5332031,0.5185547-1.2607422,0.9667969-2.0595703,0.9667969
		C463.3398438,106.3447723,462.2324219,105.0566864,462.2324219,102.7871552z M467.0371094,104.4394989v-3.5576172
		c-0.5742188-0.5185547-1.0927734-0.7138672-1.6523438-0.7138672c-1.09375,0-1.9609375,1.0498047-1.9609375,2.6044922
		c0,1.625,0.6855469,2.6054688,1.8769531,2.6054688C465.9306641,105.3779755,466.4765625,105.0703583,467.0371094,104.4394989z"/>
</g>
<g>
	<path d="M459.390625,122.6611786h5.2949219v0.9804688h-4.1318359v8.2080078h-1.1630859V122.6611786z"/>
	<path d="M464.2773438,128.4600067c0-2.2832031,1.484375-3.5859375,3.1503906-3.5859375
		c1.6679688,0,3.1523438,1.3027344,3.1523438,3.5859375c0,2.2548828-1.484375,3.5576172-3.1523438,3.5576172
		C465.7617188,132.0176239,464.2773438,130.7148895,464.2773438,128.4600067z M469.3896484,128.4600067
		c0-1.5693359-0.7841797-2.6337891-1.9619141-2.6337891c-1.1621094,0-1.9609375,1.0644531-1.9609375,2.6337891
		c0,1.5546875,0.7988281,2.6054688,1.9609375,2.6054688C468.6054688,131.0654755,469.3896484,130.0146942,469.3896484,128.4600067z"
		/>
	<path d="M472.3691406,125.042038h0.9521484l0.0986328,0.7841797h0.0410156
		c0.6171875-0.5185547,1.3730469-0.9521484,2.171875-0.9521484c1.7509766,0,2.6894531,1.3583984,2.6894531,3.4736328
		c0,2.3115234-1.3867188,3.6699219-2.9414062,3.6699219c-0.6308594,0-1.2617188-0.2939453-1.8916016-0.7841797l0.0283203,1.1904297
		v2.296875h-1.1484375V125.042038z M477.1308594,128.347702c0-1.4990234-0.5039062-2.5068359-1.7929688-2.5068359
		c-0.5742188,0-1.1484375,0.3212891-1.8203125,0.9238281v3.5722656c0.6162109,0.5185547,1.21875,0.7138672,1.6669922,0.7138672
		C476.3046875,131.050827,477.1308594,130.0283661,477.1308594,128.347702z"/>
	<path d="M479.6347656,128.4600067c0-2.2832031,1.484375-3.5859375,3.1513672-3.5859375s3.1513672,1.3027344,3.1513672,3.5859375
		c0,2.2548828-1.484375,3.5576172-3.1513672,3.5576172S479.6347656,130.7148895,479.6347656,128.4600067z M484.7480469,128.4600067
		c0-1.5693359-0.7851562-2.6337891-1.9619141-2.6337891c-1.1630859,0-1.9609375,1.0644531-1.9609375,2.6337891
		c0,1.5546875,0.7978516,2.6054688,1.9609375,2.6054688C483.9628906,131.0654755,484.7480469,130.0146942,484.7480469,128.4600067z"
		/>
	<path d="M487.9648438,134.2588348h-0.9941406l-0.1269531-2.6191406v-0.7285156h0.3369141
		c0.3779297-0.2099609,0.6865234-0.6582031,0.9521484-2.8574219l0.3642578-3.0117188h4.2304688v5.8691406h0.9951172v0.7285156
		l-0.1132812,2.6191406h-0.9941406v-2.4091797h-4.6503906V134.2588348z M488.4130859,130.9111786h3.1650391v-4.9306641h-2.1699219
		l-0.2666016,2.296875C488.9873047,129.6221161,488.7353516,130.4209442,488.4130859,130.9111786z"/>
</g>
<line style="&st2;" x1="356.9698486" y1="98.4025955" x2="442.6595459" y2="98.4025955"/>
<g>
	<g>
		<rect x="441.6595459" y="89.2348785" style="&st0;" width="1" height="50.8898163"/>
	</g>
</g>
</svg>