<?xml version="1.0" encoding="utf-8"?>
<!DOCTYPE svg PUBLIC "-//W3C//DTD SVG 1.1//EN" "http://www.w3.org/Graphics/SVG/1.1/DTD/svg11.dtd" [
	<!ENTITY st0 "fill:#71B1E4;">
	<!ENTITY st1 "fill:#E30612;">
	<!ENTITY st2 "fill:#F7931E;">
	<!ENTITY st3 "fill:#39B54A;">
	<!ENTITY st4 "fill:#9A9FAF;">
	<!ENTITY st5 "fill:#8ABDE8;">
]>
<svg version="1.1" id="img" xmlns="http://www.w3.org/2000/svg" xmlns:xlink="http://www.w3.org/1999/xlink" x="0px" y="0px"
	 width="24px" height="24px" viewBox="0 0 24 24" style="enable-background:new 0 0 24 24;" xml:space="preserve">
<g id="setting.inactive">
	<path style="&st4;" d="M12,11c0.553,0,1,0.448,1,1c0,0.553-0.447,1-1,1s-1-0.447-1-1C11,11.448,11.447,11,12,11 M12,10
		c-1.102,0-2,0.897-2,2c0,1.102,0.898,2,2,2s2-0.898,2-2C14,10.897,13.102,10,12,10L12,10z"/>
	<path style="&st4;" d="M18.693,13.158l-0.553-0.213c-0.134-0.051-0.207-0.193-0.192-0.336c0.055-0.514,0.049-1.035-0.035-1.557
		c-0.021-0.134,0.054-0.265,0.178-0.32l0.533-0.238c0.241-0.107,0.35-0.39,0.242-0.631l-0.684-1.535
		c-0.107-0.242-0.39-0.351-0.632-0.243L17.002,8.33c-0.132,0.059-0.284,0.008-0.378-0.103c-0.334-0.4-0.72-0.744-1.137-1.038
		c-0.108-0.076-0.143-0.22-0.094-0.346l0.226-0.591c0.094-0.246-0.029-0.523-0.275-0.618l-1.569-0.602
		c-0.247-0.095-0.523,0.028-0.618,0.275l-0.233,0.61c-0.051,0.133-0.189,0.209-0.33,0.195c-0.5-0.049-1.01-0.04-1.518,0.042
		c-0.133,0.022-0.26-0.056-0.314-0.179l-0.267-0.598c-0.107-0.242-0.391-0.351-0.632-0.243L8.328,5.818
		c-0.241,0.107-0.35,0.391-0.242,0.632L8.36,7.066c0.058,0.13,0.012,0.282-0.099,0.374c-0.383,0.319-0.715,0.685-1,1.08
		c-0.082,0.113-0.229,0.161-0.36,0.111L6.252,8.382C6.005,8.287,5.728,8.41,5.634,8.656l-0.602,1.569
		c-0.095,0.248,0.028,0.523,0.275,0.618l0.649,0.249c0.131,0.051,0.207,0.187,0.192,0.327c-0.054,0.494-0.05,0.997,0.025,1.5
		c0.02,0.133-0.06,0.258-0.182,0.312l-0.616,0.274c-0.241,0.108-0.35,0.39-0.242,0.631l0.684,1.535
		c0.107,0.242,0.391,0.35,0.632,0.243l0.602-0.268c0.131-0.058,0.282-0.009,0.372,0.102c0.318,0.39,0.684,0.729,1.082,1.023
		c0.113,0.083,0.162,0.232,0.111,0.363l-0.236,0.612c-0.095,0.247,0.028,0.524,0.275,0.618l1.569,0.604
		c0.246,0.094,0.523-0.029,0.617-0.276l0.227-0.59c0.051-0.133,0.191-0.206,0.333-0.189c0.508,0.058,1.024,0.057,1.54-0.02
		c0.134-0.02,0.263,0.058,0.318,0.182l0.244,0.548c0.107,0.242,0.391,0.35,0.632,0.243l1.535-0.684
		c0.241-0.107,0.35-0.39,0.242-0.63l-0.237-0.534c-0.059-0.133-0.005-0.286,0.107-0.377c0.409-0.333,0.761-0.719,1.063-1.138
		c0.078-0.109,0.224-0.144,0.35-0.096l0.551,0.212c0.247,0.095,0.523-0.029,0.618-0.276l0.603-1.567
		C19.063,13.529,18.94,13.253,18.693,13.158 M13.398,15.052c-1.675,0.746-3.637-0.009-4.382-1.683
		c-0.746-1.677,0.008-3.636,1.682-4.383c1.676-0.746,3.638,0.005,4.384,1.682C15.827,12.343,15.074,14.306,13.398,15.052"/>
</g>
</svg>
