<?xml version="1.0" encoding="utf-8"?>
<!DOCTYPE svg PUBLIC "-//W3C//DTD SVG 1.1//EN" "http://www.w3.org/Graphics/SVG/1.1/DTD/svg11.dtd" [
	<!ENTITY st0 "fill:#FFFFFF;">
	<!ENTITY st1 "fill:#D3DEED;">
	<!ENTITY st2 "fill:#71B1E4;">
	<!ENTITY st3 "opacity:0.5;fill:#FFFFFF;">
	<!ENTITY st4 "fill:#BAC0CF;">
	<!ENTITY st5 "fill:#636F80;">
	<!ENTITY st6 "fill:#D9D9D9;">
	<!ENTITY st7 "fill:#9D9D9C;">
]>
<svg version="1.1" id="img" xmlns="http://www.w3.org/2000/svg" xmlns:xlink="http://www.w3.org/1999/xlink" x="0px" y="0px"
	 width="32px" height="19px" viewBox="0 0 32 19" style="enable-background:new 0 0 32 19;" xml:space="preserve">
<g id="row.default">
	<path style="&st4;" d="M23.5,16h-15C4.91,16,2,13.09,2,9.5v0C2,5.91,4.91,3,8.5,3h15C27.09,3,30,5.91,30,9.5v0
		C30,13.09,27.09,16,23.5,16z"/>
	<circle style="&st5;" cx="9.5" cy="9.5" r="7.5"/>
	<path style="&st3;" d="M26,7h-7V6h7V7z M26,9h-7v1h7V9z M26,12h-7v1h7V12z"/>
	<path style="&st0;" d="M12,6l-4.006,7.001L7,12.997L11.007,6H12z M7,10c-1.103,0-2-0.897-2-2s0.897-2,2-2s2,0.897,2,2
		S8.103,10,7,10z M7,7C6.449,7,6,7.449,6,8s0.449,1,1,1s1-0.449,1-1S7.551,7,7,7z M12,13c-1.103,0-2-0.897-2-2s0.897-2,2-2
		s2,0.897,2,2S13.103,13,12,13z M12,10c-0.551,0-1,0.449-1,1s0.449,1,1,1s1-0.449,1-1S12.551,10,12,10z"/>
</g>
</svg>
