<?xml version="1.0" encoding="utf-8"?>
<!DOCTYPE svg PUBLIC "-//W3C//DTD SVG 1.1//EN" "http://www.w3.org/Graphics/SVG/1.1/DTD/svg11.dtd" [
	<!ENTITY st0 "fill:#FFFFFF;">
	<!ENTITY st1 "fill:#8C8C8C;">
	<!ENTITY st2 "fill:#71B1E4;">
	<!ENTITY st3 "fill:#BFBFBF;">
	<!ENTITY st4 "fill:#F7931E;">
]>
<svg version="1.1" id="aggregation-misc" xmlns="http://www.w3.org/2000/svg" xmlns:xlink="http://www.w3.org/1999/xlink" x="0px"
	 y="0px" width="18px" height="18px" viewBox="0 0 18 18" style="enable-background:new 0 0 18 18;" xml:space="preserve">
<g id="col-percent.default">
	<path style="&st4;" d="M14.5,2L13,4h1v10h-1l1.5,2l1.5-2h-1V4h1L14.5,2z"/>
	<path style="&st2;" d="M10,4l-5,9l-1-0.004L9,4H10z M12,11v-1c0-1.103-0.897-2-2-2s-2,0.897-2,2v1c0,1.103,0.897,2,2,2
		S12,12.103,12,11z M11,10v1c0,0.551-0.449,1-1,1s-1-0.449-1-1v-1c0-0.551,0.449-1,1-1S11,9.449,11,10z M6,7V6c0-1.103-0.897-2-2-2
		S2,4.897,2,6v1c0,1.103,0.897,2,2,2S6,8.103,6,7z M5,6v1c0,0.551-0.449,1-1,1S3,7.551,3,7V6c0-0.551,0.449-1,1-1S5,5.449,5,6z"/>
</g>
</svg>
