<?xml version="1.0" encoding="utf-8"?>
<!DOCTYPE svg PUBLIC "-//W3C//DTD SVG 1.1//EN" "http://www.w3.org/Graphics/SVG/1.1/DTD/svg11.dtd" [
	<!ENTITY st0 "fill:#FFFFFF;">
	<!ENTITY st1 "fill:#8C8C8C;">
	<!ENTITY st2 "fill:#71B1E4;">
	<!ENTITY st3 "fill:#BFBFBF;">
	<!ENTITY st4 "fill:#F7931E;">
]>
<svg version="1.1" id="aggregation-misc" xmlns="http://www.w3.org/2000/svg" xmlns:xlink="http://www.w3.org/1999/xlink" x="0px"
	 y="0px" width="18px" height="18px" viewBox="0 0 18 18" style="enable-background:new 0 0 18 18;" xml:space="preserve">
<g id="row-percent.default">
	<path style="&st4;" d="M16,13.5L14,12v1H4v-1l-2,1.5L4,15v-1h10v1L16,13.5z"/>
	<path style="&st2;" d="M12,2l-5,9l-1-0.004L11,2H12z M14,9V8c0-1.103-0.897-2-2-2s-2,0.897-2,2v1c0,1.103,0.897,2,2,2
		S14,10.103,14,9z M13,8v1c0,0.551-0.449,1-1,1s-1-0.449-1-1V8c0-0.551,0.449-1,1-1S13,7.449,13,8z M8,5V4c0-1.103-0.897-2-2-2
		S4,2.897,4,4v1c0,1.103,0.897,2,2,2S8,6.103,8,5z M7,4v1c0,0.551-0.449,1-1,1S5,5.551,5,5V4c0-0.551,0.449-1,1-1S7,3.449,7,4z"/>
</g>
</svg>
