<?xml version="1.0" encoding="utf-8"?>
<!-- Generator: Adobe Illustrator 22.1.0, SVG Export Plug-In . SVG Version: 6.00 Build 0)  -->
<svg version="1.1" id="toolbar" xmlns="http://www.w3.org/2000/svg" xmlns:xlink="http://www.w3.org/1999/xlink" x="0px" y="0px"
	 width="18px" height="18px" viewBox="0 0 18 18" style="enable-background:new 0 0 18 18;" xml:space="preserve">
<style type="text/css">
	.st0{fill:#FFFFFF;}
	.st1{fill:#808080;}
	.st2{fill:#636F80;}
	.st3{fill-rule:evenodd;clip-rule:evenodd;fill:#FFFFFF;}
	.st4{fill-rule:evenodd;clip-rule:evenodd;fill:#808080;}
	.st5{fill-rule:evenodd;clip-rule:evenodd;fill:#636F80;}
	.st6{fill:#F7931E;}
</style>
<g id="get-column-list_inverted">
	<path class="st0" d="M15,15v1h-2v-1H15 M16,14h-4v3h4V14L16,14z"/>
	<path class="st0" d="M10,15v1H8v-1H10 M11,14H7v3h4V14L11,14z"/>
	<path class="st0" d="M5,15v1H3v-1H5 M6,14H2v3h4V14L6,14z"/>
	<path class="st0" d="M15,11v1h-2v-1H15 M16,10h-4v3h4V10L16,10z"/>
	<path class="st0" d="M10,11v1H8v-1H10 M11,10H7v3h4V10L11,10z"/>
	<path class="st0" d="M5,11v1H3v-1H5 M6,10H2v3h4V10L6,10z"/>
	<polygon class="st0" points="10.5,6 8,9 5.5,6 	"/>
	<g>
		<path class="st0" d="M12,2v1c-1.93,0-3.5,1.57-3.5,3.5h-1C7.5,4.019,9.519,2,12,2z"/>
	</g>
</g>
</svg>
