<?xml version="1.0" encoding="utf-8"?>
<!-- Generator: Adobe Illustrator 22.1.0, SVG Export Plug-In . SVG Version: 6.00 Build 0)  -->
<svg version="1.1" id="toolbar" xmlns="http://www.w3.org/2000/svg" xmlns:xlink="http://www.w3.org/1999/xlink" x="0px" y="0px"
	 width="18px" height="18px" viewBox="0 0 18 18" style="enable-background:new 0 0 18 18;" xml:space="preserve">
<style type="text/css">
	.st0{fill:#FFFFFF;}
	.st1{fill:#808080;}
	.st2{fill:#636F80;}
	.st3{fill-rule:evenodd;clip-rule:evenodd;fill:#FFFFFF;}
	.st4{fill-rule:evenodd;clip-rule:evenodd;fill:#808080;}
	.st5{fill-rule:evenodd;clip-rule:evenodd;fill:#636F80;}
	.st6{fill:#F7931E;}
</style>
<g id="rec-no_default">
	<polygon class="st2" points="7,12 7,13 10,13 10,14 7,14 7,15 10,15 10,16 7,16 7,17 10,17 11,17 11,16 11,15 11,14 11,13 11,12 
		10,12 	"/>
	<polygon class="st2" points="11,6 11,5 8,5 8,4 10,4 11,4 11,3 11,2 11,1 10,1 7,1 7,2 10,2 10,3 8,3 7,3 7,4 7,5 7,6 8,6 	"/>
	<polygon class="st2" points="15,1 15,7 3,7 3,1 2,1 2,7 2,8 16,8 16,7 16,1 	"/>
	<polygon class="st2" points="3,10 2,10 2,11 2,17 3,17 3,11 15,11 15,17 16,17 16,11 16,10 15,10 	"/>
</g>
</svg>
