<?xml version="1.0" encoding="utf-8"?>
<!-- Generator: Adobe Illustrator 22.1.0, SVG Export Plug-In . SVG Version: 6.00 Build 0)  -->
<svg version="1.1" id="toolbar" xmlns="http://www.w3.org/2000/svg" xmlns:xlink="http://www.w3.org/1999/xlink" x="0px" y="0px"
	 width="18px" height="18px" viewBox="0 0 18 18" style="enable-background:new 0 0 18 18;" xml:space="preserve">
<style type="text/css">
	.st0{fill:#FFFFFF;}
	.st1{fill:#808080;}
	.st2{fill:#636F80;}
	.st3{fill-rule:evenodd;clip-rule:evenodd;fill:#FFFFFF;}
	.st4{fill-rule:evenodd;clip-rule:evenodd;fill:#808080;}
	.st5{fill-rule:evenodd;clip-rule:evenodd;fill:#636F80;}
	.st6{fill:#F7931E;}
</style>
<g id="avg_inverted">
	<rect x="6" y="4" transform="matrix(-1.836970e-16 1 -1 -1.836970e-16 14 -4)" class="st0" width="6" height="2"/>
	<rect x="7" y="14" transform="matrix(-1 -1.224647e-16 1.224647e-16 -1 18 30)" class="st0" width="4" height="2"/>
	<rect x="7" y="2" transform="matrix(-1 -1.224647e-16 1.224647e-16 -1 18 6)" class="st0" width="4" height="2"/>
	<path class="st0" d="M13,8v2H5V8H13 M14,7H4v4h10V7L14,7z"/>
	<rect x="6" y="12" transform="matrix(-1.836970e-16 1 -1 -1.836970e-16 22 4)" class="st0" width="6" height="2"/>
</g>
</svg>
