<?xml version="1.0" encoding="utf-8"?>
<!-- Generator: Adobe Illustrator 22.1.0, SVG Export Plug-In . SVG Version: 6.00 Build 0)  -->
<svg version="1.1" id="toolbar" xmlns="http://www.w3.org/2000/svg" xmlns:xlink="http://www.w3.org/1999/xlink" x="0px" y="0px"
	 width="18px" height="18px" viewBox="0 0 18 18" style="enable-background:new 0 0 18 18;" xml:space="preserve">
<style type="text/css">
	.st0{fill:#FFFFFF;}
	.st1{fill:#808080;}
	.st2{fill:#636F80;}
	.st3{fill-rule:evenodd;clip-rule:evenodd;fill:#FFFFFF;}
	.st4{fill-rule:evenodd;clip-rule:evenodd;fill:#808080;}
	.st5{fill-rule:evenodd;clip-rule:evenodd;fill:#636F80;}
	.st6{fill:#F7931E;}
</style>
<path id="new-disabled" class="st1" d="M8,9H6V6h2V9z M9,13h2v-3H9V13z M12,13h2v-3h-2V13z M11,6H9v3h2V6z M14,6h-2v3h2V6z M13,2H4
	v8h1V3h8v2h2v10H8v1h8V5L13,2z M8,13H6v-2H5v2H3v1h2v2h1v-2h2V13z"/>
</svg>
