<?xml version="1.0" encoding="utf-8"?>
<!-- Generator: Adobe Illustrator 22.1.0, SVG Export Plug-In . SVG Version: 6.00 Build 0)  -->
<svg version="1.1" id="toolbar" xmlns="http://www.w3.org/2000/svg" xmlns:xlink="http://www.w3.org/1999/xlink" x="0px" y="0px"
	 width="18px" height="18px" viewBox="0 0 18 18" style="enable-background:new 0 0 18 18;" xml:space="preserve">
<style type="text/css">
	.st0{fill:#FFFFFF;}
	.st1{fill:#808080;}
	.st2{fill:#636F80;}
	.st3{fill-rule:evenodd;clip-rule:evenodd;fill:#FFFFFF;}
	.st4{fill-rule:evenodd;clip-rule:evenodd;fill:#808080;}
	.st5{fill-rule:evenodd;clip-rule:evenodd;fill:#636F80;}
	.st6{fill:#F7931E;}
</style>
<g id="ungroup_inverted">
	<g>
		<path class="st0" d="M15.998,9V6H13v1h-1V5h1V2h-2.998v1H4.998V2H2v3h1v4H2v3h2.998v-1H6v2H5.002v3H8v-1h5v1h2.998v-3H15V9H15.998
			z M4.998,10V9H4V5h0.998V4h5.004v1H11v2H8V6H5.002v3H6v1H4.998z M14,13h-1v1H8v-1H7V9h1V8h5v1h1V13z"/>
	</g>
</g>
</svg>
