<?xml version="1.0" encoding="utf-8"?>
<!-- Generator: Adobe Illustrator 22.1.0, SVG Export Plug-In . SVG Version: 6.00 Build 0)  -->
<svg version="1.1" id="toolbar" xmlns="http://www.w3.org/2000/svg" xmlns:xlink="http://www.w3.org/1999/xlink" x="0px" y="0px"
	 width="18px" height="18px" viewBox="0 0 18 18" style="enable-background:new 0 0 18 18;" xml:space="preserve">
<style type="text/css">
	.st0{fill:#FFFFFF;}
	.st1{fill:#808080;}
	.st2{fill:#636F80;}
	.st3{fill-rule:evenodd;clip-rule:evenodd;fill:#FFFFFF;}
	.st4{fill-rule:evenodd;clip-rule:evenodd;fill:#808080;}
	.st5{fill-rule:evenodd;clip-rule:evenodd;fill:#636F80;}
	.st6{fill:#F7931E;}
</style>
<g id="variable-add-input-port_inverted">
	<g>
		<path class="st0" d="M3,9c0-3.521,2.612-6.442,6-6.929V7h1V1C5.582,1,2,4.582,2,9c0,3.356,2.069,6.226,5,7.413v-1.096
			C4.639,14.191,3,11.786,3,9z"/>
		<path class="st0" d="M11.5,8C9.015,8,7,10.015,7,12.5S9.015,17,11.5,17s4.5-2.015,4.5-4.5S13.985,8,11.5,8z M11.5,16
			C9.57,16,8,14.43,8,12.5S9.57,9,11.5,9s3.5,1.57,3.5,3.5S13.43,16,11.5,16z"/>
		<polygon class="st0" points="12,11 11,11 11,12 10,12 10,13 11,13 11,14 12,14 12,13 13,13 13,12 12,12 		"/>
	</g>
</g>
</svg>
