<?xml version="1.0" encoding="utf-8"?>
<!-- Generator: Adobe Illustrator 22.1.0, SVG Export Plug-In . SVG Version: 6.00 Build 0)  -->
<svg version="1.1" id="toolbar" xmlns="http://www.w3.org/2000/svg" xmlns:xlink="http://www.w3.org/1999/xlink" x="0px" y="0px"
	 width="18px" height="18px" viewBox="0 0 18 18" style="enable-background:new 0 0 18 18;" xml:space="preserve">
<style type="text/css">
	.st0{fill:#FFFFFF;}
	.st1{fill:#808080;}
	.st2{fill:#636F80;}
	.st3{fill-rule:evenodd;clip-rule:evenodd;fill:#FFFFFF;}
	.st4{fill-rule:evenodd;clip-rule:evenodd;fill:#808080;}
	.st5{fill-rule:evenodd;clip-rule:evenodd;fill:#636F80;}
	.st6{fill:#F7931E;}
</style>
<g id="dec-decimal-places-count_inverted">
	<rect x="2" y="12" transform="matrix(-1 -1.224647e-16 1.224647e-16 -1 7 26.001)" class="st0" width="3" height="2"/>
	<rect x="4" y="6" class="st0" width="2" height="2"/>
	<rect x="9" y="14" class="st0" width="2" height="2"/>
	<path class="st0" d="M9.05,2C7.852,2,7,3.071,7,5.018C7.019,6.938,7.799,8,8.95,8C10.257,8,11,6.91,11,4.938
		C11,3.09,10.293,2,9.05,2z M9.004,2.607c0.441,0,0.748,0.273,0.943,0.739l-2.131,2.13c-0.01-0.144-0.018-0.291-0.018-0.45
		C7.799,3.446,8.307,2.607,9.004,2.607z M8.996,7.393c-0.4,0-0.719-0.268-0.928-0.754l2.118-2.118
		c0.009,0.145,0.015,0.295,0.015,0.453C10.201,6.455,9.811,7.393,8.996,7.393z"/>
	<path class="st0" d="M14.05,2C12.852,2,12,3.071,12,5.018C12.019,6.938,12.799,8,13.95,8C15.257,8,16,6.91,16,4.938
		C16,3.09,15.293,2,14.05,2z M14.004,2.607c0.441,0,0.748,0.273,0.943,0.739l-2.131,2.13c-0.01-0.144-0.018-0.291-0.018-0.45
		C12.799,3.446,13.307,2.607,14.004,2.607z M13.996,7.393c-0.4,0-0.719-0.268-0.928-0.754l2.118-2.118
		c0.009,0.145,0.015,0.295,0.015,0.453C15.201,6.455,14.811,7.393,13.996,7.393z"/>
	<path class="st0" d="M14.05,10C12.852,10,12,11.071,12,13.018C12.019,14.938,12.799,16,13.95,16c1.307,0,2.05-1.09,2.05-3.062
		C16,11.09,15.293,10,14.05,10z M14.004,10.607c0.441,0,0.748,0.273,0.943,0.739l-2.131,2.13c-0.01-0.144-0.018-0.291-0.018-0.45
		C12.799,11.446,13.307,10.607,14.004,10.607z M13.996,15.393c-0.4,0-0.719-0.268-0.928-0.754l2.118-2.118
		c0.009,0.146,0.015,0.295,0.015,0.453C15.201,14.455,14.811,15.393,13.996,15.393z"/>
	<polygon class="st0" points="5,16 8,13 5,10 	"/>
</g>
</svg>
