<?xml version="1.0" encoding="utf-8"?>
<!-- Generator: Adobe Illustrator 22.1.0, SVG Export Plug-In . SVG Version: 6.00 Build 0)  -->
<svg version="1.1" id="toolbar" xmlns="http://www.w3.org/2000/svg" xmlns:xlink="http://www.w3.org/1999/xlink" x="0px" y="0px"
	 width="18px" height="18px" viewBox="0 0 18 18" style="enable-background:new 0 0 18 18;" xml:space="preserve">
<style type="text/css">
	.st0{fill:#FFFFFF;}
	.st1{fill:#808080;}
	.st2{fill:#636F80;}
	.st3{fill-rule:evenodd;clip-rule:evenodd;fill:#FFFFFF;}
	.st4{fill-rule:evenodd;clip-rule:evenodd;fill:#808080;}
	.st5{fill-rule:evenodd;clip-rule:evenodd;fill:#636F80;}
	.st6{fill:#F7931E;}
</style>
<g id="information-value_default">
	<g>
		<rect x="6" y="10" class="st2" width="3" height="4"/>
		<rect x="10" y="7" class="st2" width="3" height="7"/>
		<rect x="2" y="3" class="st2" width="1" height="1"/>
		<rect x="2" y="5" class="st2" width="1" height="1"/>
		<rect x="2" y="7" class="st2" width="1" height="1"/>
		<rect x="2" y="9" class="st2" width="1" height="1"/>
		<rect x="2" y="11" class="st2" width="1" height="1"/>
		<rect x="2" y="13" class="st2" width="1" height="1"/>
		<rect x="2" y="15" class="st2" width="1" height="1"/>
		<rect x="4" y="15" class="st2" width="1" height="1"/>
		<rect x="6" y="15" class="st2" width="1" height="1"/>
		<rect x="8" y="15" class="st2" width="1" height="1"/>
		<rect x="10" y="15" class="st2" width="1" height="1"/>
		<rect x="12" y="15" class="st2" width="1" height="1"/>
		<rect x="14" y="15" class="st2" width="1" height="1"/>
	</g>
</g>
</svg>
