<?xml version="1.0" encoding="utf-8"?>
<!-- Generator: Adobe Illustrator 22.1.0, SVG Export Plug-In . SVG Version: 6.00 Build 0)  -->
<svg version="1.1" id="toolbar" xmlns="http://www.w3.org/2000/svg" xmlns:xlink="http://www.w3.org/1999/xlink" x="0px" y="0px"
	 width="18px" height="18px" viewBox="0 0 18 18" style="enable-background:new 0 0 18 18;" xml:space="preserve">
<style type="text/css">
	.st0{fill:#FFFFFF;}
	.st1{fill:#808080;}
	.st2{fill:#636F80;}
	.st3{fill-rule:evenodd;clip-rule:evenodd;fill:#FFFFFF;}
	.st4{fill-rule:evenodd;clip-rule:evenodd;fill:#808080;}
	.st5{fill-rule:evenodd;clip-rule:evenodd;fill:#636F80;}
	.st6{fill:#F7931E;}
</style>
<g id="cancel_disabled">
	<path class="st1" d="M9,2C5.134,2,2,5.134,2,9c0,3.866,3.134,7,7,7s7-3.134,7-7C16,5.134,12.866,2,9,2z M14,9
		c0,1.017-0.309,1.962-0.833,2.753l-6.92-6.92C7.037,4.309,7.982,4,9,4C11.757,4,14,6.243,14,9z M4,9
		c0-1.017,0.309-1.962,0.833-2.753l6.92,6.92C10.963,13.691,10.018,14,9,14C6.243,14,4,11.757,4,9z"/>
</g>
</svg>
