<?xml version="1.0" encoding="utf-8"?>
<!-- Generator: Adobe Illustrator 22.1.0, SVG Export Plug-In . SVG Version: 6.00 Build 0)  -->
<svg version="1.1" id="toolbar" xmlns="http://www.w3.org/2000/svg" xmlns:xlink="http://www.w3.org/1999/xlink" x="0px" y="0px"
	 width="18px" height="18px" viewBox="0 0 18 18" style="enable-background:new 0 0 18 18;" xml:space="preserve">
<style type="text/css">
	.st0{fill:#FFFFFF;}
	.st1{fill:#808080;}
	.st2{fill:#636F80;}
	.st3{fill-rule:evenodd;clip-rule:evenodd;fill:#FFFFFF;}
	.st4{fill-rule:evenodd;clip-rule:evenodd;fill:#808080;}
	.st5{fill-rule:evenodd;clip-rule:evenodd;fill:#636F80;}
	.st6{fill:#F7931E;}
</style>
<g id="navigator_default">
	<rect x="12" y="10" transform="matrix(-1 -1.224647e-16 1.224647e-16 -1 25 21)" class="st2" width="1" height="1"/>
	<rect x="5" y="2" class="st2" width="1" height="1"/>
	<rect x="3" y="2" class="st2" width="1" height="1"/>
	<rect x="1" y="2" class="st2" width="1" height="1"/>
	<rect x="1" y="4" class="st2" width="1" height="1"/>
	<rect x="1" y="8" class="st2" width="1" height="1"/>
	<rect x="1" y="6" class="st2" width="1" height="1"/>
	<rect x="1" y="10" class="st2" width="1" height="1"/>
	<rect x="1" y="12" class="st2" width="1" height="1"/>
	<rect x="1" y="14" class="st2" width="1" height="1"/>
	<rect x="3" y="16" class="st2" width="1" height="1"/>
	<rect x="5" y="16" class="st2" width="1" height="1"/>
	<rect x="1" y="16" class="st2" width="1" height="1"/>
	<rect x="12" y="2" transform="matrix(-1 -1.224647e-16 1.224647e-16 -1 25 5)" class="st2" width="1" height="1"/>
	<rect x="12" y="16" transform="matrix(-1 -1.224647e-16 1.224647e-16 -1 25 33)" class="st2" width="1" height="1"/>
	<rect x="14" y="16" transform="matrix(-1 -1.224647e-16 1.224647e-16 -1 29 33)" class="st2" width="1" height="1"/>
	<rect x="16" y="16" transform="matrix(-1 -1.224647e-16 1.224647e-16 -1 33 33)" class="st2" width="1" height="1"/>
	<rect x="16" y="12" transform="matrix(-1 -1.224647e-16 1.224647e-16 -1 33 25)" class="st2" width="1" height="1"/>
	<rect x="16" y="14" transform="matrix(-1 -1.224647e-16 1.224647e-16 -1 33 29)" class="st2" width="1" height="1"/>
	<rect x="16" y="10" transform="matrix(-1 -1.224647e-16 1.224647e-16 -1 33 21)" class="st2" width="1" height="1"/>
	<rect x="16" y="8" transform="matrix(-1 -1.224647e-16 1.224647e-16 -1 33 17)" class="st2" width="1" height="1"/>
	<rect x="16" y="6" transform="matrix(-1 -1.224647e-16 1.224647e-16 -1 33 13)" class="st2" width="1" height="1"/>
	<rect x="16" y="4" transform="matrix(-1 -1.224647e-16 1.224647e-16 -1 33 9)" class="st2" width="1" height="1"/>
	<rect x="14" y="2" transform="matrix(-1 -1.224647e-16 1.224647e-16 -1 29 5)" class="st2" width="1" height="1"/>
	<rect x="16" y="2" transform="matrix(-1 -1.224647e-16 1.224647e-16 -1 33 5)" class="st2" width="1" height="1"/>
	<rect x="12" y="8" transform="matrix(-1 -1.224647e-16 1.224647e-16 -1 25 17)" class="st2" width="1" height="1"/>
	<rect x="13" y="9" transform="matrix(-1 -1.224647e-16 1.224647e-16 -1 27 19)" class="st2" width="1" height="1"/>
	<rect x="12" y="9" transform="matrix(-1 -1.224647e-16 1.224647e-16 -1 25 19)" class="st2" width="1" height="1"/>
	<rect x="5" y="8" class="st2" width="1" height="1"/>
	<rect x="5" y="10" class="st2" width="1" height="1"/>
	<rect x="4" y="9" class="st2" width="1" height="1"/>
	<rect x="5" y="9" class="st2" width="1" height="1"/>
	<path class="st2" d="M10,3v13H8V3H10 M11,2H7v15h4V2L11,2z"/>
</g>
</svg>
