<?xml version="1.0" encoding="utf-8"?>
<!-- Generator: Adobe Illustrator 22.1.0, SVG Export Plug-In . SVG Version: 6.00 Build 0)  -->
<svg version="1.1" id="toolbar" xmlns="http://www.w3.org/2000/svg" xmlns:xlink="http://www.w3.org/1999/xlink" x="0px" y="0px"
	 width="18px" height="18px" viewBox="0 0 18 18" style="enable-background:new 0 0 18 18;" xml:space="preserve">
<style type="text/css">
	.st0{fill:#FFFFFF;}
	.st1{fill:#808080;}
	.st2{fill:#636F80;}
	.st3{fill-rule:evenodd;clip-rule:evenodd;fill:#FFFFFF;}
	.st4{fill-rule:evenodd;clip-rule:evenodd;fill:#808080;}
	.st5{fill-rule:evenodd;clip-rule:evenodd;fill:#636F80;}
	.st6{fill:#F7931E;}
</style>
<g id="axis_inverted">
	<g>
		<rect x="4" y="2" class="st0" width="1" height="14"/>
		<rect x="2" y="13" class="st0" width="14" height="1"/>
		<rect x="2" y="10" class="st0" width="3" height="1"/>
		<rect x="2" y="7" class="st0" width="3" height="1"/>
		<rect x="2" y="4" class="st0" width="3" height="1"/>
		<rect x="12" y="14" transform="matrix(4.668738e-11 -1 1 4.668738e-11 -1 28)" class="st0" width="3" height="1"/>
		<rect x="9" y="14" transform="matrix(4.668738e-11 -1 1 4.668738e-11 -4 25)" class="st0" width="3" height="1"/>
		<rect x="6" y="14" transform="matrix(4.668738e-11 -1 1 4.668738e-11 -7 22)" class="st0" width="3" height="1"/>
	</g>
</g>
</svg>
