<?xml version="1.0" encoding="utf-8"?>
<!-- Generator: Adobe Illustrator 22.1.0, SVG Export Plug-In . SVG Version: 6.00 Build 0)  -->
<svg version="1.1" id="toolbar" xmlns="http://www.w3.org/2000/svg" xmlns:xlink="http://www.w3.org/1999/xlink" x="0px" y="0px"
	 width="18px" height="18px" viewBox="0 0 18 18" style="enable-background:new 0 0 18 18;" xml:space="preserve">
<style type="text/css">
	.st0{fill:#FFFFFF;}
	.st1{fill:#808080;}
	.st2{fill:#636F80;}
	.st3{fill-rule:evenodd;clip-rule:evenodd;fill:#FFFFFF;}
	.st4{fill-rule:evenodd;clip-rule:evenodd;fill:#808080;}
	.st5{fill-rule:evenodd;clip-rule:evenodd;fill:#636F80;}
	.st6{fill:#F7931E;}
</style>
<g id="unlocked_disabled">
	<path class="st1" d="M13.967,2h-1.935C10.361,2,9,3.36,9,5.033V8H7H5H4.602C4.27,8,4,8.27,4,8.602v6.796C4,15.73,4.27,16,4.602,16
		h8.796C13.73,16,14,15.73,14,15.398V8.602C14,8.27,13.73,8,13.398,8H13h-2V5.127C11,4.506,11.506,4,12.127,4h1.746
		C14.495,4,15,4.506,15,5.127V8h2V5.033C17,3.36,15.64,2,13.967,2z"/>
</g>
</svg>
