<?xml version="1.0" encoding="utf-8"?>
<!-- Generator: Adobe Illustrator 22.1.0, SVG Export Plug-In . SVG Version: 6.00 Build 0)  -->
<svg version="1.1" id="toolbar" xmlns="http://www.w3.org/2000/svg" xmlns:xlink="http://www.w3.org/1999/xlink" x="0px" y="0px"
	 width="18px" height="18px" viewBox="0 0 18 18" style="enable-background:new 0 0 18 18;" xml:space="preserve">
<style type="text/css">
	.st0{fill:#FFFFFF;}
	.st1{fill:#808080;}
	.st2{fill:#636F80;}
	.st3{fill-rule:evenodd;clip-rule:evenodd;fill:#FFFFFF;}
	.st4{fill-rule:evenodd;clip-rule:evenodd;fill:#808080;}
	.st5{fill-rule:evenodd;clip-rule:evenodd;fill:#636F80;}
	.st6{fill:#F7931E;}
</style>
<g id="zoom-out_default">
	<rect x="6" y="8" class="st2" width="5" height="1"/>
	<path class="st2" d="M16.096,14.904l-2.602-2.603c0.828-1.08,1.325-2.426,1.325-3.892C14.818,4.87,11.949,2,8.409,2
		C4.869,2,2,4.87,2,8.409c0,3.54,2.869,6.409,6.409,6.409c1.466,0,2.812-0.498,3.892-1.325l2.603,2.603
		c0.164,0.164,0.38,0.247,0.596,0.247s0.432-0.083,0.596-0.247C16.426,15.767,16.426,15.234,16.096,14.904z M8.409,13.149
		c-2.618,0-4.739-2.123-4.739-4.74c0-2.618,2.121-4.739,4.739-4.739c2.617,0,4.739,2.122,4.739,4.739
		C13.148,11.026,11.026,13.149,8.409,13.149z"/>
</g>
</svg>
