<?xml version="1.0" encoding="utf-8"?>
<!-- Generator: Adobe Illustrator 22.1.0, SVG Export Plug-In . SVG Version: 6.00 Build 0)  -->
<svg version="1.1" id="toolbar" xmlns="http://www.w3.org/2000/svg" xmlns:xlink="http://www.w3.org/1999/xlink" x="0px" y="0px"
	 width="18px" height="18px" viewBox="0 0 18 18" style="enable-background:new 0 0 18 18;" xml:space="preserve">
<style type="text/css">
	.st0{fill:#FFFFFF;}
	.st1{fill:#808080;}
	.st2{fill:#636F80;}
	.st3{fill-rule:evenodd;clip-rule:evenodd;fill:#FFFFFF;}
	.st4{fill-rule:evenodd;clip-rule:evenodd;fill:#808080;}
	.st5{fill-rule:evenodd;clip-rule:evenodd;fill:#636F80;}
	.st6{fill:#F7931E;}
</style>
<g id="autosync_disabled">
	<path class="st1" d="M14.189,12c-0.06,0.12-0.13,0.23-0.199,0.34c-0.01,0-0.01,0.01-0.021,0.021c-0.09,0.13-0.18,0.26-0.29,0.39
		c-0.13,0.17-0.279,0.33-0.439,0.49c-0.12,0.12-0.24,0.229-0.37,0.35C12.6,13.81,12.31,14.02,12,14.19
		c-0.11,0.069-0.231,0.13-0.34,0.18c-0.12,0.061-0.24,0.12-0.36,0.17c-0.24,0.09-0.479,0.18-0.729,0.25
		c-0.011,0.01-0.021,0.01-0.03,0.01c-0.12,0.03-0.24,0.061-0.36,0.08c-0.05,0.01-0.1,0.021-0.149,0.03
		c-0.12,0.021-0.25,0.04-0.391,0.059H9.58C9.39,14.99,9.2,15,9,15c-0.82,0-1.61-0.17-2.34-0.47c-0.351-0.15-0.68-0.34-1-0.55
		c-0.32-0.21-0.62-0.46-0.9-0.74L3,15V9.86h5.14l-2.17,2.17c0.45,0.439,0.981,0.78,1.561,0.99c0.069,0.04,0.14,0.06,0.22,0.08
		c0.4,0.12,0.82,0.19,1.25,0.19c0.189,0,0.37-0.01,0.55-0.04c0.021,0,0.05,0,0.07-0.01c0.14-0.021,0.29-0.04,0.42-0.08
		c0.04-0.01,0.08-0.02,0.12-0.03c0.12-0.03,0.24-0.07,0.35-0.12c0.101-0.03,0.19-0.069,0.28-0.12c0.12-0.05,0.24-0.11,0.35-0.18
		c0.141-0.08,0.271-0.16,0.4-0.27c0.17-0.11,0.33-0.25,0.479-0.41c0.101-0.09,0.2-0.2,0.29-0.311c0.051-0.059,0.091-0.12,0.13-0.18
		c0.11-0.13,0.19-0.26,0.271-0.4L14.189,12z"/>
	<path class="st1" d="M15,3v5.14H9.86l2.17-2.17C11.59,5.53,11.06,5.19,10.47,4.98C10.4,4.94,10.33,4.92,10.25,4.9
		C9.86,4.78,9.439,4.71,9,4.71c-0.19,0-0.37,0.01-0.55,0.04c-0.021,0-0.04,0-0.07,0.01C8.24,4.78,8.09,4.8,7.96,4.84
		C7.92,4.85,7.88,4.86,7.84,4.87C7.72,4.9,7.6,4.94,7.49,4.99C7.4,5.02,7.3,5.06,7.21,5.11C7.09,5.16,6.97,5.22,6.86,5.29
		C6.72,5.37,6.59,5.45,6.46,5.56C6.29,5.68,6.13,5.82,5.981,5.97C5.86,6.08,5.75,6.21,5.64,6.34C5.61,6.38,5.58,6.42,5.56,6.46
		C5.45,6.59,5.37,6.72,5.29,6.86L3.81,6c0.06-0.12,0.13-0.23,0.2-0.34c0.01,0,0.01-0.01,0.021-0.02c0.09-0.13,0.18-0.26,0.29-0.39
		C4.45,5.08,4.6,4.91,4.76,4.76C4.88,4.64,5,4.53,5.13,4.41C5.4,4.19,5.7,3.98,6,3.81c0.11-0.07,0.231-0.13,0.34-0.18
		C6.46,3.57,6.58,3.51,6.7,3.46C6.939,3.37,7.18,3.28,7.43,3.21c0.01,0,0.021,0,0.03-0.01C7.58,3.17,7.7,3.14,7.82,3.12
		C7.87,3.11,7.92,3.1,7.97,3.09C8.09,3.07,8.22,3.05,8.36,3.03H8.42C8.61,3.01,8.8,3,9,3c0.83,0,1.62,0.17,2.34,0.47
		c0.35,0.15,0.68,0.33,1,0.55c0.32,0.21,0.62,0.46,0.9,0.74L15,3z"/>
</g>
</svg>
