<?xml version="1.0" encoding="utf-8"?>
<!-- Generator: Adobe Illustrator 22.1.0, SVG Export Plug-In . SVG Version: 6.00 Build 0)  -->
<svg version="1.1" id="toolbar" xmlns="http://www.w3.org/2000/svg" xmlns:xlink="http://www.w3.org/1999/xlink" x="0px" y="0px"
	 width="18px" height="18px" viewBox="0 0 18 18" style="enable-background:new 0 0 18 18;" xml:space="preserve">
<style type="text/css">
	.st0{fill:#FFFFFF;}
	.st1{fill:#808080;}
	.st2{fill:#636F80;}
	.st3{fill-rule:evenodd;clip-rule:evenodd;fill:#FFFFFF;}
	.st4{fill-rule:evenodd;clip-rule:evenodd;fill:#808080;}
	.st5{fill-rule:evenodd;clip-rule:evenodd;fill:#636F80;}
	.st6{fill:#F7931E;}
</style>
<g id="col-percent_disabled">
	<rect x="9.5" y="8.5" transform="matrix(-1.836970e-16 1 -1 -1.836970e-16 23.5 -5.5)" class="st1" width="10" height="1"/>
	<polygon class="st1" points="13,14 16,14 14.5,16 	"/>
	<polygon class="st1" points="16,4 13,4 14.5,2 	"/>
	<polygon class="st1" points="8.92,4 4.221,13.053 5.094,13.053 9.776,4 	"/>
	<path class="st1" d="M11.47,9.089c-0.353-0.385-0.8-0.577-1.339-0.577c-0.59,0-1.039,0.214-1.348,0.642
		C8.475,9.582,8.32,10.104,8.32,10.721c0,0.777,0.173,1.36,0.519,1.749c0.346,0.389,0.778,0.583,1.298,0.583
		c0.527,0,0.97-0.196,1.327-0.589C11.821,12.071,12,11.512,12,10.786C12,10.039,11.823,9.474,11.47,9.089z M10.819,11.987
		c-0.174,0.226-0.395,0.34-0.665,0.34c-0.258,0-0.475-0.113-0.65-0.34c-0.176-0.227-0.264-0.614-0.264-1.16
		c0-0.606,0.087-1.022,0.261-1.248c0.174-0.227,0.393-0.34,0.659-0.34c0.262,0,0.48,0.112,0.656,0.337
		c0.176,0.225,0.264,0.615,0.264,1.169C11.08,11.346,10.993,11.76,10.819,11.987z"/>
	<path class="st1" d="M5.674,6.274c0-0.747-0.177-1.312-0.53-1.697C4.79,4.192,4.344,4,3.805,4C3.219,4,2.772,4.215,2.463,4.644
		C2.154,5.075,2,5.596,2,6.209c0,0.782,0.173,1.366,0.519,1.752c0.346,0.387,0.778,0.58,1.298,0.58c0.523,0,0.964-0.196,1.321-0.589
		C5.495,7.56,5.674,7,5.674,6.274z M4.493,7.475C4.319,7.701,4.1,7.814,3.834,7.814c-0.258,0-0.475-0.112-0.65-0.337
		C3.008,7.253,2.92,6.865,2.92,6.314c0-0.605,0.087-1.021,0.261-1.248c0.174-0.226,0.392-0.34,0.653-0.34
		c0.262,0,0.48,0.112,0.656,0.337c0.176,0.225,0.264,0.614,0.264,1.169C4.754,6.834,4.667,7.248,4.493,7.475z"/>
</g>
</svg>
