<?xml version="1.0" encoding="utf-8"?>
<!-- Generator: Adobe Illustrator 22.1.0, SVG Export Plug-In . SVG Version: 6.00 Build 0)  -->
<svg version="1.1" id="toolbar" xmlns="http://www.w3.org/2000/svg" xmlns:xlink="http://www.w3.org/1999/xlink" x="0px" y="0px"
	 width="18px" height="18px" viewBox="0 0 18 18" style="enable-background:new 0 0 18 18;" xml:space="preserve">
<style type="text/css">
	.st0{fill:#FFFFFF;}
	.st1{fill:#808080;}
	.st2{fill:#636F80;}
	.st3{fill-rule:evenodd;clip-rule:evenodd;fill:#FFFFFF;}
	.st4{fill-rule:evenodd;clip-rule:evenodd;fill:#808080;}
	.st5{fill-rule:evenodd;clip-rule:evenodd;fill:#636F80;}
	.st6{fill:#F7931E;}
</style>
<g id="configure-viewers_default">
	<g>
		<path class="st2" d="M16.256,3.543c-0.059-0.166-0.129-0.33-0.22-0.488c-0.091-0.158-0.199-0.3-0.313-0.434l0.372-0.644L14.404,1
			l-0.376,0.652c-0.347-0.064-0.703-0.067-1.057-0.002L12.596,1l-1.691,0.976l0.375,0.65c-0.234,0.274-0.409,0.584-0.527,0.916H10
			v1.953h0.744c0.059,0.166,0.129,0.33,0.22,0.488c0.091,0.158,0.198,0.3,0.313,0.434l-0.372,0.644l1.691,0.976l0.376-0.652
			c0.347,0.064,0.703,0.067,1.057,0.002l0.375,0.65l1.691-0.976l-0.375-0.65c0.234-0.274,0.409-0.584,0.527-0.916H17V3.543H16.256z
			 M14.25,5.818c-0.717,0.414-1.635,0.168-2.049-0.549c-0.414-0.717-0.168-1.635,0.549-2.049c0.717-0.414,1.634-0.168,2.049,0.549
			C15.213,4.487,14.967,5.404,14.25,5.818z"/>
	</g>
	<path class="st2" d="M15.386,8.626l-0.482,0.278c-0.157,0.091-0.329,0.134-0.498,0.134c-0.346,0-0.682-0.179-0.867-0.5L13.5,8.472
		l-0.039,0.066c-0.185,0.321-0.521,0.5-0.867,0.5c-0.046,0-0.092-0.011-0.137-0.018C12.793,9.606,13,10.275,13,11
		c0,2.208-1.792,4-4,4c-2.208,0-4-1.792-4-4c0-2.214,1.792-4,4-4c0.32,0,0.627,0.047,0.925,0.118
		C9.914,6.925,9.94,6.732,10.038,6.563l0.039-0.066H10c-0.36,0-0.661-0.2-0.837-0.486C6.032,5.954,2.879,7.51,1,10.697V11v0.304
		c3.692,6.262,12.308,6.262,16,0V11v-0.304C16.534,9.906,15.989,9.217,15.386,8.626z"/>
	<g>
		<path class="st2" d="M16.256,3.543c-0.059-0.166-0.129-0.33-0.22-0.488c-0.091-0.158-0.199-0.3-0.313-0.434l0.372-0.644L14.404,1
			l-0.376,0.652c-0.347-0.064-0.703-0.067-1.057-0.002L12.596,1l-1.691,0.976l0.375,0.65c-0.234,0.274-0.409,0.584-0.527,0.916H10
			v1.953h0.744c0.059,0.166,0.129,0.33,0.22,0.488c0.091,0.158,0.198,0.3,0.313,0.434l-0.372,0.644l1.691,0.976l0.376-0.652
			c0.347,0.064,0.703,0.067,1.057,0.002l0.375,0.65l1.691-0.976l-0.375-0.65c0.234-0.274,0.409-0.584,0.527-0.916H17V3.543H16.256z
			 M14.232,5.788c-0.7,0.404-1.596,0.164-2-0.536c-0.404-0.7-0.164-1.596,0.536-2c0.7-0.404,1.596-0.164,2,0.536
			S14.932,5.383,14.232,5.788z"/>
	</g>
	<circle class="st2" cx="9" cy="11" r="2"/>
</g>
</svg>
