<?xml version="1.0" encoding="utf-8"?>
<!DOCTYPE svg PUBLIC "-//W3C//DTD SVG 1.1//EN" "http://www.w3.org/Graphics/SVG/1.1/DTD/svg11.dtd" [
	<!ENTITY st0 "fill:#FFFFFF;">
	<!ENTITY st1 "fill:#8C8C8C;">
	<!ENTITY st2 "fill:#BFBFBF;">
	<!ENTITY st3 "fill:#71B1E4;">
	<!ENTITY st4 "fill:#F7931E;">
]>
<svg version="1.1" id="img" xmlns="http://www.w3.org/2000/svg" xmlns:xlink="http://www.w3.org/1999/xlink" x="0px" y="0px"
	 width="18px" height="18px" viewBox="0 0 18 18" style="enable-background:new 0 0 18 18;" xml:space="preserve">
<g id="generic.disabled">
	<path style="&st1;" d="M13,3h-2v1h2c0.552,0,1,0.448,1,1v8c0,0.552-0.448,1-1,1H5c-0.552,0-1-0.448-1-1V5c0-0.552,0.448-1,1-1h1V3
		H5C3.895,3,3,3.895,3,5v8c0,1.104,0.895,2,2,2h8c1.104,0,2-0.896,2-2V5C15,3.895,14.104,3,13,3z"/>
	<g>
		<path style="&st2;" d="M12,8l-2.94,3L6,8h2c0-5.384-2-6-2-6s4,0.578,4,6H12z"/>
	</g>
	<path style="&st1;" d="M2,11L2,11c-0.553,0-1-0.447-1-1V8c0-0.553,0.447-1,1-1l0,0V11z"/>
	<path style="&st1;" d="M16,7L16,7c0.553,0,1,0.447,1,1v2c0,0.553-0.447,1-1,1l0,0V7z"/>
</g>
</svg>
