<?xml version="1.0" encoding="utf-8"?>
<!DOCTYPE svg PUBLIC "-//W3C//DTD SVG 1.1//EN" "http://www.w3.org/Graphics/SVG/1.1/DTD/svg11.dtd" [
	<!ENTITY st0 "fill:#FFFFFF;">
	<!ENTITY st1 "fill:#8C8C8C;">
	<!ENTITY st2 "fill:#BFBFBF;">
	<!ENTITY st3 "fill:#71B1E4;">
	<!ENTITY st4 "fill:#F7931E;">
]>
<svg version="1.1" id="img" xmlns="http://www.w3.org/2000/svg" xmlns:xlink="http://www.w3.org/1999/xlink" x="0px" y="0px"
	 width="18px" height="18px" viewBox="0 0 18 18" style="enable-background:new 0 0 18 18;" xml:space="preserve">
<path id="regressionneuralnet.inverted" style="&st0;" d="M13,11c1.105,0,2-0.895,2-2c0-1.105-0.895-2-2-2
	c-0.677,0-1.273,0.339-1.635,0.853v0l-1.099-0.412l1.724-1.724C12.287,5.892,12.63,6,13,6c1.105,0,2-0.895,2-2c0-1.105-0.895-2-2-2
	s-2,0.895-2,2c0-0.005,0.002-0.011,0.002-0.016L6.748,5.047l0,0C6.409,4.426,5.758,4,5,4C3.895,4,3,4.895,3,6c0,1.105,0.895,2,2,2
	c0.37,0,0.713-0.108,1.01-0.283L7.293,9L6.01,10.283C5.713,10.108,5.37,10,5,10c-1.105,0-2,0.895-2,2c0,1.105,0.895,2,2,2
	c0.758,0,1.409-0.426,1.748-1.047l0,0l4.253,1.063C11.002,14.011,11,14.005,11,14c0,1.105,0.895,2,2,2s2-0.895,2-2
	c0-1.105-0.895-2-2-2c-0.37,0-0.713,0.108-1.01,0.283l-1.724-1.724l1.099-0.412v0C11.727,10.662,12.323,11,13,11z M6.979,6.209
	C6.986,6.139,7,6.071,7,6c0,0.005-0.002,0.01-0.002,0.016l4.253-1.063l0,0c0.01,0.019,0.02,0.039,0.031,0.057L9.238,7.055
	L6.979,6.209C6.979,6.208,6.979,6.208,6.979,6.209z M6.985,7.278l1.476,0.554L8,8.293L6.985,7.278z M8,9.707l0.461,0.461
	l-1.476,0.554L8,9.707z M11.283,12.99c-0.011,0.019-0.021,0.038-0.031,0.057l0,0l-4.253-1.063C6.998,11.99,7,11.995,7,12
	c0-0.071-0.014-0.139-0.021-0.209c0,0,0,0,0,0l2.259-0.847L11.283,12.99z M11.021,9.208L9.49,9.783L8.707,9L9.49,8.217l1.531,0.574
	c0,0,0,0,0,0C11.014,8.861,11,8.929,11,9S11.014,9.139,11.021,9.208C11.021,9.209,11.021,9.208,11.021,9.208z"/>
</svg>
