<?xml version="1.0" encoding="utf-8"?>
<!DOCTYPE svg PUBLIC "-//W3C//DTD SVG 1.1//EN" "http://www.w3.org/Graphics/SVG/1.1/DTD/svg11.dtd" [
	<!ENTITY st0 "fill:#FFFFFF;">
	<!ENTITY st1 "fill:#8C8C8C;">
	<!ENTITY st2 "fill:#BFBFBF;">
	<!ENTITY st3 "fill:#71B1E4;">
	<!ENTITY st4 "fill:#F7931E;">
]>
<svg version="1.1" id="img" xmlns="http://www.w3.org/2000/svg" xmlns:xlink="http://www.w3.org/1999/xlink" x="0px" y="0px"
	 width="18px" height="18px" viewBox="0 0 18 18" style="enable-background:new 0 0 18 18;" xml:space="preserve">
<g id="script.disabled">
	<g>
		<path style="&st1;" d="M10.878,13.362l-0.369,0.359c-0.818,0.69-1.374,1.238-1.367,2.112c-0.027,0.383,0.017,0.604,0.132,0.854
			c0.287,0.192,0.631,0.314,1.013,0.312c0.951-0.007,1.93-0.502,1.924-1.377c0,0,0.082-0.442-0.246-1.062
			C11.779,14.209,10.878,13.362,10.878,13.362z"/>
	</g>
	<path style="&st2;" d="M14.811,7.625l-0.452-0.552c-0.218-0.274-0.569-0.438-0.939-0.438c-0.639,0-1.158,0.476-1.158,1.06
		c-0.01,0.266,0.43,2.2,0.43,2.2l-1.317-1.034c-1.359-1.07-2.716-2.275-4.186-3.72L3.734,8.141c0,0-1.303,0.967-0.176,2.221
		c1.125,1.255,5.239,6.097,5.239,6.097c-0.17-0.321-0.233-0.545-0.2-1c-0.007-0.874,0.548-1.422,1.368-2.113l3.748-3.634
		c0.824-0.687,1.383-1.23,1.383-2.105c0,0,0.016-0.115-0.028-0.296L14.811,7.625z"/>
	<path style="&st1;" d="M6.394,3.577C5.312,2.568,7.463-0.052,9.192,1.459c0,0,4.654,4.38,5.36,5.017
		c0.106,0.095,0.192,0.188,0.265,0.277l-0.007,0.009c-0.312-0.394-0.819-0.649-1.391-0.649c-0.95,0-1.721,0.709-1.721,1.583
		c0,0-0.02,0.547,0.038,0.767C9.791,6.932,8.033,5.26,6.394,3.577z"/>
</g>
</svg>
