<?xml version="1.0" encoding="utf-8"?>
<!-- Generator: Adobe Illustrator 23.0.0, SVG Export Plug-In . SVG Version: 6.00 Build 0)  -->
<!DOCTYPE svg PUBLIC "-//W3C//DTD SVG 1.1//EN" "http://www.w3.org/Graphics/SVG/1.1/DTD/svg11.dtd" [
	<!ENTITY st0 "fill:#636F80;">
	<!ENTITY st1 "fill:#4C5866;">
]>
<svg version="1.1" id="tool-sprites" xmlns="http://www.w3.org/2000/svg" xmlns:xlink="http://www.w3.org/1999/xlink" x="0px"
	 y="0px" width="18px" height="18px" viewBox="0 0 18 18" style="enable-background:new 0 0 18 18;" xml:space="preserve">
<path id="icon-7" style="&st0;" d="M15.222,7.637h-1.951c-0.118-0.373-0.28-0.727-0.479-1.055l1.294-1.297
	c0.307-0.302,0.307-0.795,0-1.099l-0.55-0.549c-0.303-0.303-0.797-0.302-1.101,0l-1.313,1.315c-0.356-0.203-0.741-0.359-1.152-0.465
	v-1.71C9.972,2.349,9.625,2,9.195,2H8.419C7.991,2,7.642,2.349,7.642,2.778v1.71C7.196,4.6,6.775,4.779,6.39,5.013L5.288,3.911
	c-0.303-0.302-0.799-0.303-1.101,0l-0.554,0.55c-0.303,0.303-0.3,0.798,0.003,1.103L4.76,6.684C4.523,7.098,4.343,7.549,4.242,8.027
	H2.779C2.348,8.027,2,8.375,2,8.806v0.778c0,0.428,0.348,0.775,0.779,0.775h1.563c0.141,0.47,0.356,0.902,0.63,1.294L3.913,12.71
	c-0.305,0.306-0.305,0.8-0.002,1.103l0.55,0.549c0.305,0.302,0.799,0.302,1.102-0.001l1.183-1.181
	c0.398,0.197,0.83,0.341,1.284,0.415v1.625c0,0.43,0.346,0.779,0.776,0.779h0.777c0.429,0,0.777-0.349,0.777-0.779v-1.826
	c0.393-0.14,0.764-0.326,1.099-0.562l1.251,1.254c0.305,0.303,0.797,0.303,1.102,0l0.55-0.55c0.305-0.304,0.305-0.796-0.003-1.101
	l-1.372-1.374c0.169-0.341,0.3-0.705,0.381-1.09h1.853c0.431,0,0.779-0.346,0.781-0.778V8.416
	C16.001,7.987,15.653,7.637,15.222,7.637z M9,11c-1.103,0-2-0.894-2-2c0-1.107,0.897-2,2-2c1.103,0,2,0.893,2,2
	C11,10.106,10.103,11,9,11z"/>
</svg>
