<?xml version="1.0" encoding="utf-8"?>
<!-- Generator: Adobe Illustrator 23.0.0, SVG Export Plug-In . SVG Version: 6.00 Build 0)  -->
<!DOCTYPE svg PUBLIC "-//W3C//DTD SVG 1.1//EN" "http://www.w3.org/Graphics/SVG/1.1/DTD/svg11.dtd" [
	<!ENTITY st0 "fill:#636F80;">
	<!ENTITY st1 "fill:#4C5866;">
]>
<svg version="1.1" id="tool-sprites" xmlns="http://www.w3.org/2000/svg" xmlns:xlink="http://www.w3.org/1999/xlink" x="0px"
	 y="0px" width="18px" height="18px" viewBox="0 0 18 18" style="enable-background:new 0 0 18 18;" xml:space="preserve">
<path id="icon-19" style="&st0;" d="M15.697,14.233l-0.523-0.523l-2.064-2.064l-0.201-0.201C13.594,10.469,14,9.283,14,8
	c0-3.314-2.686-6-6-6C4.686,2,2,4.686,2,8s2.686,6,6,6c1.283,0,2.469-0.406,3.445-1.092l0.201,0.201l2.064,2.064l0.523,0.523
	C14.435,15.899,14.7,16,14.965,16c0.265,0,0.53-0.101,0.732-0.303C16.101,15.292,16.101,14.637,15.697,14.233z M8,12
	c-2.209,0-4-1.791-4-4s1.791-4,4-4c2.209,0,4,1.791,4,4S10.209,12,8,12z"/>
</svg>
