<?xml version="1.0" encoding="utf-8"?>
<!-- Generator: Adobe Illustrator 23.0.0, SVG Export Plug-In . SVG Version: 6.00 Build 0)  -->
<!DOCTYPE svg PUBLIC "-//W3C//DTD SVG 1.1//EN" "http://www.w3.org/Graphics/SVG/1.1/DTD/svg11.dtd" [
	<!ENTITY st0 "fill:#636F80;">
	<!ENTITY st1 "fill:#4C5866;">
]>
<svg version="1.1" id="tool-sprites" xmlns="http://www.w3.org/2000/svg" xmlns:xlink="http://www.w3.org/1999/xlink" x="0px"
	 y="0px" width="18px" height="18px" viewBox="0 0 18 18" style="enable-background:new 0 0 18 18;" xml:space="preserve">
<g id="icon-21">
	<path style="&st0;" d="M7.255,11c-0.054-0.559-0.026-0.869,0.081-1.261C7.443,9.346,7.591,9.007,7.78,8.721
		c0.188-0.284,0.403-0.532,0.645-0.742c0.242-0.21,0.468-0.411,0.678-0.605c0.21-0.193,0.385-0.395,0.525-0.604
		c0.139-0.21,0.209-0.461,0.209-0.751c0-0.376-0.105-0.678-0.314-0.904c-0.21-0.226-0.584-0.339-1.122-0.339
		c-0.173,0-0.356,0.018-0.549,0.056C7.658,4.87,7.465,4.924,7.271,4.994c-0.193,0.07-0.378,0.151-0.556,0.242
		C6.537,5.327,6.378,5.422,6.239,5.518L5.432,3.969c0.408-0.28,0.879-0.511,1.412-0.695C7.376,3.092,8.019,3,8.772,3
		c1.011,0,1.802,0.246,2.373,0.734C11.715,4.224,12,4.883,12,5.712c0,0.549-0.072,1.003-0.218,1.363
		c-0.146,0.361-0.326,0.667-0.541,0.921c-0.215,0.252-0.452,0.475-0.709,0.668c-0.259,0.194-0.495,0.402-0.71,0.622
		c-0.215,0.221-0.398,0.475-0.549,0.766C9.121,10.343,9.046,10.548,9.046,11H7.255z"/>
	<path style="&st0;" d="M8.5,15L8.5,15C7.675,15,7,14.325,7,13.5l0,0C7,12.675,7.675,12,8.5,12h0c0.825,0,1.5,0.675,1.5,1.5l0,0
		C10,14.325,9.325,15,8.5,15z"/>
</g>
</svg>
