<?xml version="1.0" encoding="utf-8"?>
<svg version="1.1" id="img" xmlns="http://www.w3.org/2000/svg" xmlns:xlink="http://www.w3.org/1999/xlink" x="0px" y="0px"
	 width="18px" height="18px" viewBox="0 0 18 18" style="enable-background:new 0 0 18 18;" xml:space="preserve">
<g id="crm-1cv7-7-export.inverted">
	<path style="fill:#FFFFFF;" d="M1,5h3v9h1V1H1V5z M2,3h1V2h1v2H2V3z"/>
	<path style="fill:#FFFFFF;" d="M7,9c0-2.206,1.794-4,4-4s4,1.794,4,4h1c0-2.757-2.243-5-5-5S6,6.243,6,9s2.243,5,5,5h6v-1h-6
		C8.794,13,7,11.206,7,9z"/>
	<path style="fill:#FFFFFF;" d="M11,11c-1.103,0-2-0.897-2-2s0.897-2,2-2s2,0.897,2,2h1c0-1.654-1.346-3-3-3S8,7.346,8,9
		s1.346,3,3,3h6v-1H11z"/>
	<polygon style="fill:#FFFFFF;" points="1,7 2,7 2,14 3,14 3,6 1,6 	"/>
</g>
</svg>
