<?xml version="1.0" encoding="utf-8"?>
<svg version="1.1" id="img" xmlns="http://www.w3.org/2000/svg" xmlns:xlink="http://www.w3.org/1999/xlink" x="0px" y="0px"
	 width="18px" height="18px" viewBox="0 0 18 18" style="enable-background:new 0 0 18 18;" xml:space="preserve">
<g id="crm-microsoftcrm-export.inverted">
	<path style="fill:#FFFFFF;" d="M9,9.808v-6.82v-2c-1.44,8.62-7.18,13.37-8,13.94c0,0,0,0.609,0,1.39
		c1.994-0.886,4.949-1.349,8-1.338V9.808z"/>
	<path style="fill:#FFFFFF;" d="M13,14.537v-8.55v-2.42c-0.608,1.976-1.706,3.704-3,5.179v6.253c1.013,0.039,2.018,0.144,3,0.289
		V14.537z"/>
	<path style="fill:#FFFFFF;" d="M14,9.258v6.195c1.062,0.205,2.082,0.468,3,0.814c0,0,0-6.04,0-10.02
		C15.966,7.339,15.113,8.314,14,9.258z"/>
	<path style="fill:#FFFFFF;" d="M4,2v1v1H3H2V3h1V2H4z M5,1H1v4h4V1z"/>
</g>
</svg>
