<?xml version="1.0" encoding="utf-8"?>
<svg version="1.1" id="img" xmlns="http://www.w3.org/2000/svg" xmlns:xlink="http://www.w3.org/1999/xlink" x="0px" y="0px"
	 width="18px" height="18px" viewBox="0 0 18 18" style="enable-background:new 0 0 18 18;" xml:space="preserve">
<g id="crm-microsoftcrm-import.default">
	<linearGradient id="SVGID_1_" gradientUnits="userSpaceOnUse" x1="1" y1="8.0796" x2="9.0513" y2="8.0796">
		<stop  offset="0" style="stop-color:#D2572B"/>
		<stop  offset="1" style="stop-color:#FDCB08"/>
	</linearGradient>
	<path style="fill:url(#SVGID_1_);" d="M9.051,1.112v8.954C5.956,12.976,2.269,14.658,1,15.047
		C1.827,14.481,7.606,9.731,9.051,1.112z"/>
	<linearGradient id="SVGID_2_" gradientUnits="userSpaceOnUse" x1="1" y1="11.4092" x2="17" y2="11.4092">
		<stop  offset="0" style="stop-color:#C6A85F"/>
		<stop  offset="0.5333" style="stop-color:#96BA59"/>
		<stop  offset="1" style="stop-color:#2A7C34"/>
	</linearGradient>
	<path style="fill:url(#SVGID_2_);" d="M17,6.377c0,3.974,0,10.013,0,10.013c-4.798-1.807-12.169-1.651-16,0.052
		c2.914-1.703,8.464-2.941,12.284-1.703c0,0,0-2.161,0-4.763C14.788,8.847,15.75,7.689,17,6.377z"/>
	<linearGradient id="SVGID_3_" gradientUnits="userSpaceOnUse" x1="1" y1="13.2539" x2="9.0513" y2="13.2539">
		<stop  offset="0" style="stop-color:#9B3425"/>
		<stop  offset="1" style="stop-color:#FDBB1C"/>
	</linearGradient>
	<path style="fill:url(#SVGID_3_);" d="M9.051,10.066v2.281c0,0.778,0,1.254,0,1.254C7.297,13.758,2.909,14.738,1,16.441
		c0-0.774,0-1.395,0-1.395C2.269,14.658,5.956,12.976,9.051,10.066z"/>
	<linearGradient id="SVGID_4_" gradientUnits="userSpaceOnUse" x1="1" y1="13.2085" x2="13.2842" y2="13.2085">
		<stop  offset="0" style="stop-color:#9692A1"/>
		<stop  offset="1" style="stop-color:#236C7D"/>
	</linearGradient>
	<path style="fill:url(#SVGID_4_);" d="M13.284,9.976c0,2.601,0,4.763,0,4.763c-3.82-1.238-9.37,0-12.284,1.703
		c1.909-1.703,6.297-2.684,8.051-2.84c0,0,0-0.476,0-1.254C10.915,11.54,12.231,10.765,13.284,9.976z"/>
	<linearGradient id="SVGID_5_" gradientUnits="userSpaceOnUse" x1="9.0513" y1="8.0196" x2="13.2842" y2="8.0196">
		<stop  offset="0" style="stop-color:#6FB1D4"/>
		<stop  offset="1" style="stop-color:#0270AB"/>
	</linearGradient>
	<path style="fill:url(#SVGID_5_);" d="M13.284,3.691v6.284c-1.053,0.789-2.369,1.564-4.233,2.372v-2.281
		C10.869,8.361,12.481,6.232,13.284,3.691z"/>
	<rect x="13" y="13" style="fill:#373943;" width="4" height="4"/>
	<polygon style="fill:#BDCCD4;" points="15,14 15,15 14,15 14,16 15,16 16,16 16,15 16,14 	"/>
</g>
</svg>
