<?xml version="1.0" encoding="utf-8"?>
<svg version="1.1" id="img" xmlns="http://www.w3.org/2000/svg" xmlns:xlink="http://www.w3.org/1999/xlink" x="0px" y="0px"
	 width="18px" height="18px" viewBox="0 0 18 18" style="enable-background:new 0 0 18 18;" xml:space="preserve">
<path id="crm-1cv8-export.inverted" style="fill:#FFFFFF;" d="M11,14c-2.757,0-5-2.243-5-5s2.243-5,5-5s5,2.243,5,5h-1
	c0-2.206-1.794-4-4-4S7,6.794,7,9s1.794,4,4,4h6.053c0.161-0.323,0.302-0.656,0.424-1H11c-1.654,0-3-1.346-3-3s1.346-3,3-3
	s3,1.346,3,3h-1c0-1.103-0.897-2-2-2S9,7.897,9,9s0.897,2,2,2h6.769C17.916,10.356,18,9.688,18,9c0-4.971-4.029-9-9-9
	C7.517,0,6.122,0.365,4.889,1H1v3.889C0.365,6.122,0,7.517,0,9c0,4.971,4.029,9,9,9c3.12,0,5.868-1.589,7.482-4H11z M3,14H2V7H1V6h2
	V14z M2,4V3h1V2h1v2H3H2z M5,14H4V5h1V14z"/>
</svg>
