<?xml version="1.0" encoding="utf-8"?>
<svg version="1.1" id="img" xmlns="http://www.w3.org/2000/svg" xmlns:xlink="http://www.w3.org/1999/xlink" x="0px" y="0px"
	 width="18px" height="18px" viewBox="0 0 18 18" style="enable-background:new 0 0 18 18;" xml:space="preserve">
<path id="crm-1cv7-7-import.inverted" style="fill:#FFFFFF;" d="M2,4h3v10H4V5H2V4z M1,6v1h1v7h1V6H1z M11,11c-1.103,0-2-0.897-2-2
	s0.897-2,2-2s2,0.897,2,2h1c0-1.654-1.346-3-3-3S8,7.346,8,9s1.346,3,3,3h6v-1H11z M17,13v1v3h-4v-3h-2c-2.757,0-5-2.243-5-5
	s2.243-5,5-5s5,2.243,5,5h-1c0-2.206-1.794-4-4-4S7,6.794,7,9s1.794,4,4,4H17z M15,14v1h-1v1h2v-2H15z"/>
</svg>
