<?xml version="1.0" encoding="utf-8"?>
<svg version="1.1" id="img" xmlns="http://www.w3.org/2000/svg" xmlns:xlink="http://www.w3.org/1999/xlink" x="0px" y="0px"
	 width="18px" height="18px" viewBox="0 0 18 18" style="enable-background:new 0 0 18 18;" xml:space="preserve">
<g id="db-bigquery.inverted">
	<path style="fill:#FFFFFF;" d="M9,6.528C7.635,6.528,6.529,7.635,6.529,9c0,1.365,1.107,2.471,2.471,2.471
		c1.365,0,2.472-1.107,2.472-2.471C11.472,7.635,10.365,6.528,9,6.528z M8.069,10.515c-0.254-0.155-0.466-0.371-0.615-0.628V8.874
		h0.615V10.515z M9.289,10.751c-0.096,0.016-0.194,0.027-0.294,0.027c-0.11,0-0.217-0.012-0.321-0.031V8.021h0.615V10.751z
		 M10.566,9.837c-0.145,0.269-0.358,0.496-0.615,0.66V9.295h0.615V9.837z"/>
	<path style="fill:#FFFFFF;" d="M17.771,8.193l-3.686-6.385C13.797,1.308,13.263,1,12.686,1H5.314c-0.577,0-1.11,0.308-1.399,0.807
		L0.229,8.193c-0.288,0.5-0.288,1.115,0,1.615l3.686,6.385C4.203,16.692,4.737,17,5.314,17h7.373c0.577,0,1.11-0.308,1.399-0.807
		l3.686-6.385C18.06,9.308,18.06,8.692,17.771,8.193z M12.84,12.502l-0.337,0.337c-0.059,0.06-0.156,0.06-0.216,0l-1.28-1.28
		c-0.002-0.002-0.001-0.006-0.004-0.009C10.449,11.987,9.759,12.257,9,12.257c-1.799,0-3.257-1.458-3.257-3.257
		c0-1.799,1.458-3.258,3.257-3.258c1.799,0,3.257,1.458,3.257,3.258c0,0.759-0.271,1.449-0.706,2.003
		c0.003,0.002,0.006,0.001,0.009,0.004l1.28,1.28C12.899,12.346,12.899,12.443,12.84,12.502z"/>
</g>
</svg>
