<?xml version="1.0" encoding="utf-8"?>
<svg version="1.1" id="img" xmlns="http://www.w3.org/2000/svg" xmlns:xlink="http://www.w3.org/1999/xlink" x="0px" y="0px"
	 width="18px" height="18px" viewBox="0 0 18 18" style="enable-background:new 0 0 18 18;" xml:space="preserve">
<g id="db-database-export.default">
	<path style="fill:#71B1E4;" d="M15.988,12c-0.024,0.14-0.178,0.273-0.318,0.366c-0.308,0.2-0.797,0.392-1.418,0.553
		c-0.653,0.173-1.431,0.309-2.312,0.404c-0.92,0.104-1.906,0.156-2.924,0.156H8.953c-1.001,0-1.968-0.048-2.868-0.144
		c-0.881-0.092-1.66-0.226-2.323-0.392c-0.626-0.161-1.119-0.348-1.422-0.548C2.184,12.297,2.013,12.15,2.009,12H2v3.5h0.006
		c-0.013,0.157,0.17,0.314,0.334,0.417c0.303,0.2,0.796,0.387,1.422,0.548c0.663,0.166,1.441,0.3,2.323,0.392
		C6.985,16.952,7.952,17,8.953,17h0.062c1.019,0,2.004-0.052,2.924-0.156c0.881-0.096,1.66-0.23,2.312-0.403
		c0.622-0.162,1.11-0.353,1.418-0.554c0.148-0.098,0.31-0.239,0.321-0.387H16V12H15.988z"/>
	<path style="fill:#71B1E4;" d="M15.988,2.5c-0.024,0.14-0.178,0.273-0.318,0.366c-0.308,0.2-0.797,0.392-1.418,0.553
		c-0.653,0.173-1.431,0.309-2.312,0.404c-0.92,0.104-1.906,0.156-2.924,0.156H8.953c-1.001,0-1.968-0.048-2.868-0.144
		C5.204,3.744,4.425,3.61,3.762,3.444C3.136,3.283,2.643,3.097,2.34,2.897C2.184,2.797,2.013,2.65,2.009,2.5H2V6h0.006
		C1.993,6.157,2.177,6.314,2.34,6.417c0.303,0.2,0.796,0.387,1.422,0.548c0.663,0.166,1.441,0.3,2.323,0.392
		C6.985,7.452,7.952,7.5,8.953,7.5h0.062c1.019,0,2.004-0.052,2.924-0.156c0.881-0.096,1.66-0.231,2.312-0.403
		c0.622-0.162,1.11-0.353,1.418-0.554c0.148-0.098,0.31-0.239,0.321-0.387H16V2.5H15.988z"/>
	<path style="fill:#71B1E4;" d="M15.988,7.25c-0.024,0.14-0.178,0.273-0.318,0.366c-0.308,0.2-0.797,0.392-1.418,0.553
		c-0.653,0.173-1.431,0.309-2.312,0.404c-0.92,0.104-1.906,0.156-2.924,0.156H8.953c-1.001,0-1.968-0.048-2.868-0.144
		C5.204,8.494,4.425,8.36,3.762,8.194C3.136,8.033,2.643,7.847,2.34,7.647C2.184,7.547,2.013,7.4,2.009,7.25H2v3.5h0.006
		c-0.013,0.157,0.17,0.314,0.334,0.417c0.303,0.2,0.796,0.387,1.422,0.548c0.663,0.166,1.441,0.3,2.323,0.392
		c0.9,0.096,1.867,0.144,2.868,0.144h0.062c1.019,0,2.004-0.052,2.924-0.156c0.881-0.096,1.66-0.23,2.312-0.403
		c0.622-0.162,1.11-0.353,1.418-0.554c0.148-0.098,0.31-0.239,0.321-0.387H16v-3.5H15.988z"/>
	<path style="fill:#F7931E;" d="M15.996,2.448c0.033,0.165-0.161,0.329-0.326,0.438c-0.308,0.2-0.797,0.392-1.418,0.554
		c-0.653,0.173-1.431,0.308-2.312,0.403C11.019,3.948,10.033,4,9.015,4H8.953C7.952,4,6.985,3.952,6.085,3.856
		c-0.881-0.092-1.66-0.225-2.323-0.392C3.136,3.304,2.643,3.117,2.34,2.917c-0.171-0.108-0.37-0.273-0.336-0.439
		c0.023-0.152,0.222-0.326,0.545-0.491c0.365-0.187,0.882-0.36,1.527-0.509C4.729,1.33,5.479,1.213,6.302,1.131
		C7.156,1.043,8.062,1,8.991,1h0.056c0.91,0,1.796,0.039,2.631,0.117c0.83,0.083,1.579,0.195,2.228,0.339
		c0.64,0.144,1.171,0.318,1.536,0.505C15.769,2.126,15.964,2.3,15.996,2.448z"/>
	<rect x="1" y="1" style="fill:#373943;" width="4" height="4"/>
	<polygon style="fill:#BDCCD4;" points="3,2 3,3 2,3 2,4 3,4 4,4 4,3 4,2 	"/>
</g>
</svg>
