<?xml version="1.0" encoding="utf-8"?>
<svg version="1.1" id="img" xmlns="http://www.w3.org/2000/svg" xmlns:xlink="http://www.w3.org/1999/xlink" x="0px" y="0px"
	 width="18px" height="18px" viewBox="0 0 18 18" style="enable-background:new 0 0 18 18;" xml:space="preserve">
<g id="db-dbase-import.default">
	<path style="fill:#3E7FAA;" d="M16,2.5H2v13h0.006c-0.013,0.157,0.17,0.314,0.333,0.417c0.303,0.2,0.796,0.387,1.422,0.548
		c0.663,0.166,1.441,0.3,2.323,0.392C6.985,16.952,7.952,17,8.953,17h0.062c1.019,0,2.004-0.052,2.924-0.156
		c0.881-0.096,1.66-0.23,2.312-0.403c0.622-0.162,1.11-0.353,1.418-0.554c0.148-0.098,0.31-0.239,0.321-0.387H16V2.5z"/>
	<path style="fill:#71B1E4;" d="M15.996,2.448c0.033,0.165-0.161,0.329-0.326,0.438c-0.308,0.2-0.797,0.392-1.418,0.554
		c-0.653,0.173-1.431,0.308-2.312,0.403C11.019,3.948,10.033,4,9.015,4H8.953C7.952,4,6.985,3.952,6.085,3.856
		c-0.881-0.092-1.66-0.226-2.323-0.392C3.136,3.304,2.643,3.117,2.34,2.917C2.169,2.809,1.971,2.644,2.004,2.478
		c0.023-0.152,0.222-0.326,0.544-0.491c0.365-0.187,0.882-0.36,1.527-0.509C4.729,1.33,5.479,1.213,6.302,1.131
		C7.156,1.043,8.062,1,8.991,1h0.056c0.91,0,1.796,0.039,2.631,0.117c0.83,0.083,1.579,0.195,2.228,0.339
		c0.64,0.143,1.171,0.318,1.536,0.505C15.769,2.126,15.964,2.3,15.996,2.448z"/>
	<path style="fill:#FFFFFF;" d="M8.681,5.725l1.568,2.801c0.096,0.177,0.09,0.384-0.002,0.547c-0.005,0.01-0.011,0.019-0.016,0.029
		c-0.092,0.165-0.099,0.373,0.001,0.549l0.015,0.028l0.033,0.059l2.663,4.758c0.153,0.271,0.497,0.369,0.769,0.217
		c0.272-0.152,0.369-0.496,0.217-0.768l-0.136-0.241c-0.005-0.021-0.012-0.041-0.024-0.061L9.181,5.446
		c-0.077-0.138-0.251-0.188-0.39-0.11C8.653,5.412,8.603,5.587,8.681,5.725z"/>
	<path style="fill:#FFFFFF;" d="M6.66,14.357l-1.243-2.221c-0.077-0.138-0.251-0.188-0.39-0.109
		c-0.138,0.076-0.187,0.252-0.11,0.389l1.243,2.221c0.078,0.139,0.252,0.188,0.39,0.11C6.688,14.671,6.736,14.495,6.66,14.357z"/>
	<path style="fill:#FFFFFF;" d="M4.878,14.333l-0.342-0.61c-0.078-0.138-0.252-0.187-0.39-0.109
		c-0.138,0.077-0.188,0.251-0.11,0.389l0.342,0.611c0.077,0.138,0.252,0.188,0.39,0.11C4.906,14.646,4.955,14.471,4.878,14.333z"/>
	<path style="fill:#FFFFFF;" d="M12.049,13.956l-0.167-0.299l-1.62-2.894L8.247,7.163c-0.078-0.138-0.251-0.188-0.391-0.11
		C7.718,7.13,7.669,7.304,7.746,7.441l1.539,2.75c0.057,0.157,0.042,0.328-0.037,0.469c-0.005,0.009-0.011,0.017-0.016,0.027
		c-0.092,0.164-0.098,0.372,0.001,0.551l0.044,0.077l0.004,0.007l1.783,3.186c0.153,0.271,0.496,0.369,0.768,0.217
		C12.104,14.572,12.201,14.229,12.049,13.956z"/>
	<path style="fill:#FFFFFF;" d="M10.219,13.96l-0.648-1.159c-0.006-0.02-0.014-0.041-0.025-0.06L7.324,8.773
		c-0.077-0.139-0.251-0.188-0.389-0.11c-0.139,0.076-0.188,0.252-0.11,0.389l1.474,2.632c0.096,0.177,0.089,0.383-0.002,0.548
		c-0.006,0.01-0.011,0.017-0.017,0.027c-0.091,0.165-0.098,0.373,0.001,0.55l0.034,0.062c0.001,0.001,0.001,0.003,0.002,0.004
		l0.916,1.638c0.077,0.137,0.201,0.228,0.34,0.268c0.139,0.039,0.293,0.025,0.429-0.051C10.274,14.576,10.371,14.231,10.219,13.96z"
		/>
	<path style="fill:#FFFFFF;" d="M8.321,13.956l-0.007-0.014c-0.005-0.021-0.014-0.041-0.025-0.061l-1.896-3.387
		c-0.078-0.137-0.251-0.186-0.389-0.108c-0.138,0.076-0.188,0.251-0.11,0.39l1.426,2.546c0.097,0.177,0.09,0.384-0.001,0.549
		c-0.006,0.01-0.012,0.018-0.016,0.027c-0.092,0.165-0.099,0.373,0,0.55l0.017,0.031l0.015,0.027l0.017,0.027l0.001-0.001
		c0.158,0.252,0.489,0.339,0.751,0.19C8.376,14.572,8.473,14.229,8.321,13.956z"/>
	<rect x="13" y="13" style="fill:#373943;" width="4" height="4"/>
	<polygon style="fill:#BDCCD4;" points="15,14 15,15 14,15 14,16 15,16 16,16 16,15 16,14 	"/>
</g>
</svg>
