<?xml version="1.0" encoding="utf-8"?>
<svg version="1.1" id="img" xmlns="http://www.w3.org/2000/svg" xmlns:xlink="http://www.w3.org/1999/xlink" x="0px" y="0px"
	 width="18px" height="18px" viewBox="0 0 18 18" style="enable-background:new 0 0 18 18;" xml:space="preserve">
<g id="db-database-export.inverted">
	<path style="fill:#FFFFFF;" d="M15.988,12c-0.024,0.14-0.178,0.273-0.318,0.366c-0.308,0.2-0.797,0.392-1.418,0.553
		c-0.653,0.173-1.432,0.309-2.312,0.404c-0.921,0.104-1.906,0.156-2.925,0.156H8.953c-1.001,0-1.968-0.048-2.868-0.144
		c-0.882-0.092-1.66-0.226-2.323-0.392c-0.626-0.161-1.118-0.348-1.422-0.548C2.184,12.297,2.013,12.15,2.009,12H2v3.5h0.006
		c-0.013,0.157,0.171,0.314,0.334,0.417c0.304,0.2,0.796,0.387,1.422,0.548c0.663,0.166,1.441,0.3,2.323,0.392
		C6.985,16.952,7.952,17,8.953,17h0.061c1.019,0,2.004-0.052,2.925-0.156c0.881-0.096,1.659-0.23,2.312-0.403
		c0.621-0.162,1.11-0.353,1.418-0.554c0.148-0.098,0.31-0.239,0.32-0.387H16V12H15.988z"/>
	<path style="fill:#FFFFFF;" d="M2,3V2.5h0.01c0,0.15,0.17,0.3,0.33,0.4C2.39,2.93,2.45,2.97,2.51,3H2z"/>
	<path style="fill:#FFFFFF;" d="M15.988,7.25c-0.024,0.14-0.178,0.273-0.318,0.366c-0.308,0.2-0.797,0.392-1.418,0.553
		c-0.653,0.173-1.432,0.309-2.312,0.404c-0.921,0.104-1.906,0.156-2.925,0.156H8.953c-1.001,0-1.968-0.048-2.868-0.144
		C5.203,8.494,4.425,8.36,3.762,8.194C3.136,8.033,2.644,7.847,2.34,7.647C2.184,7.547,2.013,7.4,2.009,7.25H2v3.5h0.006
		c-0.013,0.157,0.171,0.314,0.334,0.417c0.304,0.2,0.796,0.387,1.422,0.548c0.663,0.166,1.441,0.3,2.323,0.392
		c0.9,0.096,1.867,0.144,2.868,0.144h0.061c1.019,0,2.004-0.052,2.925-0.156c0.881-0.096,1.659-0.23,2.312-0.403
		c0.621-0.162,1.11-0.353,1.418-0.554c0.148-0.098,0.31-0.239,0.32-0.387H16v-3.5H15.988z"/>
	<path style="fill:#FFFFFF;" d="M1,1v4h4V1H1z M4,4H2V3h1V2h1V4z"/>
	<path style="fill:#FFFFFF;" d="M15.44,1.96c-0.36-0.19-0.891-0.36-1.53-0.5c-0.65-0.15-1.4-0.26-2.231-0.34
		C10.84,1.04,9.96,1,9.05,1H8.99C8.06,1,7.16,1.04,6.3,1.13C6.193,1.14,6.103,1.158,6,1.169V6H2.01C1.99,6.16,2.18,6.31,2.34,6.42
		c0.3,0.2,0.8,0.38,1.42,0.54c0.67,0.17,1.44,0.3,2.32,0.4C6.99,7.45,7.95,7.5,8.95,7.5h0.06c1.021,0,2.01-0.05,2.931-0.16
		C12.82,7.25,13.6,7.11,14.25,6.94c0.62-0.16,1.11-0.351,1.42-0.551c0.15-0.1,0.311-0.239,0.32-0.39H16V2.5V2.45
		C15.96,2.3,15.769,2.13,15.44,1.96z"/>
</g>
</svg>
