<?xml version="1.0" encoding="utf-8"?>
<svg version="1.1" id="img" xmlns="http://www.w3.org/2000/svg" xmlns:xlink="http://www.w3.org/1999/xlink" x="0px" y="0px"
	 width="18px" height="18px" viewBox="0 0 18 18" style="enable-background:new 0 0 18 18;" xml:space="preserve">
<g id="db-dbase-import.inverted">
	<path style="fill:#FFFFFF;" d="M16,14v1v1h-1h-1v-1h1v-1H16z M17,13h-4v4h4V13z"/>
	<path style="fill:#FFFFFF;" d="M15.99,2.5C15.992,2.483,16,2.466,15.996,2.448c-0.032-0.148-0.227-0.322-0.554-0.487
		c-0.365-0.186-0.896-0.361-1.536-0.505c-0.649-0.144-1.398-0.256-2.229-0.339C10.844,1.039,9.957,1,9.047,1H8.991
		c-0.93,0-1.835,0.043-2.689,0.131C5.478,1.213,4.729,1.33,4.075,1.479C3.431,1.627,2.914,1.801,2.549,1.987
		C2.227,2.152,2.027,2.326,2.004,2.478C2.002,2.486,2.007,2.493,2.007,2.5H2v13h0.006c-0.013,0.157,0.171,0.314,0.334,0.417
		c0.304,0.2,0.796,0.387,1.422,0.548c0.663,0.166,1.441,0.3,2.323,0.392C6.985,16.952,7.952,17,8.953,17h0.061
		c1.019,0,2.004-0.052,2.925-0.156c0.022-0.002,0.039-0.006,0.061-0.008V14.58c-0.045,0.057-0.101,0.107-0.169,0.144
		c-0.272,0.152-0.615,0.055-0.768-0.217L9.28,11.322l-0.004-0.007l-0.043-0.077c-0.1-0.179-0.094-0.387-0.002-0.551
		c0.006-0.011,0.012-0.019,0.017-0.027c0.079-0.141,0.094-0.312,0.037-0.469l-1.539-2.75C7.669,7.304,7.718,7.13,7.856,7.053
		c0.139-0.077,0.312-0.027,0.391,0.11l2.015,3.601l1.621,2.894L12,13.868v-1.057l-1.72-3.073l-0.033-0.059L10.232,9.65
		c-0.101-0.176-0.093-0.384-0.001-0.549c0.005-0.01,0.011-0.02,0.016-0.029c0.093-0.163,0.099-0.37,0.002-0.547L8.682,5.725
		C8.604,5.587,8.653,5.412,8.791,5.336c0.139-0.078,0.312-0.027,0.39,0.11L12.849,12H16V2.5H15.99z M4.769,14.724
		c-0.139,0.077-0.313,0.027-0.391-0.11l-0.342-0.611c-0.077-0.138-0.027-0.312,0.11-0.389c0.138-0.077,0.312-0.028,0.391,0.109
		l0.341,0.61C4.955,14.471,4.906,14.646,4.769,14.724z M6.549,14.747c-0.138,0.077-0.312,0.028-0.39-0.11l-1.243-2.221
		c-0.076-0.137-0.027-0.312,0.11-0.389c0.139-0.078,0.313-0.028,0.39,0.109l1.243,2.221C6.736,14.495,6.688,14.671,6.549,14.747z
		 M8.104,14.724c-0.264,0.148-0.594,0.062-0.752-0.19l-0.001,0.001l-0.017-0.027L7.32,14.479l-0.018-0.031
		c-0.099-0.177-0.092-0.385,0-0.55c0.005-0.01,0.011-0.017,0.016-0.027c0.092-0.165,0.099-0.372,0.002-0.549l-1.426-2.546
		c-0.078-0.139-0.028-0.313,0.11-0.39c0.138-0.078,0.312-0.028,0.389,0.108l1.895,3.387c0.011,0.02,0.02,0.04,0.024,0.061
		l0.008,0.014C8.473,14.229,8.376,14.572,8.104,14.724z M9.546,12.741c0.011,0.019,0.019,0.04,0.024,0.06l0.648,1.159
		c0.152,0.271,0.056,0.616-0.217,0.769c-0.136,0.076-0.29,0.09-0.429,0.051c-0.139-0.04-0.264-0.131-0.34-0.268l-0.917-1.639
		c0,0-0.001-0.002-0.002-0.003l-0.033-0.062c-0.101-0.177-0.093-0.385-0.002-0.55c0.005-0.01,0.011-0.018,0.017-0.027
		c0.092-0.165,0.099-0.371,0.002-0.548L6.825,9.051c-0.078-0.137-0.029-0.312,0.11-0.389c0.138-0.077,0.312-0.028,0.389,0.11
		L9.546,12.741z"/>
</g>
</svg>
