<?xml version="1.0" encoding="utf-8"?>
<svg version="1.1" id="img" xmlns="http://www.w3.org/2000/svg" xmlns:xlink="http://www.w3.org/1999/xlink" x="0px" y="0px"
	 width="18px" height="18px" viewBox="0 0 18 18" style="enable-background:new 0 0 18 18;" xml:space="preserve">
<g id="db-database.disabled">
	<path style="fill:#8C8C8C;" d="M15.988,12c-0.024,0.14-0.178,0.273-0.318,0.366c-0.308,0.2-0.797,0.392-1.418,0.553
		c-0.653,0.173-1.432,0.309-2.312,0.404c-0.921,0.104-1.906,0.156-2.925,0.156H8.953c-1.001,0-1.968-0.048-2.868-0.144
		c-0.882-0.092-1.66-0.225-2.323-0.392c-0.626-0.161-1.118-0.348-1.422-0.548C2.184,12.297,2.013,12.15,2.009,12H2v3.5h0.006
		c-0.013,0.157,0.171,0.314,0.334,0.417c0.304,0.2,0.796,0.387,1.422,0.548c0.663,0.166,1.441,0.3,2.323,0.392
		C6.985,16.952,7.952,17,8.953,17h0.061c1.019,0,2.004-0.052,2.925-0.156c0.881-0.096,1.659-0.23,2.312-0.403
		c0.621-0.162,1.11-0.353,1.418-0.554c0.148-0.098,0.31-0.239,0.32-0.387H16V12H15.988z"/>
	<path style="fill:#8C8C8C;" d="M15.988,2.5c-0.024,0.14-0.178,0.273-0.318,0.366c-0.308,0.2-0.797,0.392-1.418,0.553
		c-0.653,0.173-1.432,0.309-2.312,0.404C11.019,3.927,10.033,3.98,9.015,3.98H8.953c-1.001,0-1.968-0.048-2.868-0.144
		C5.203,3.744,4.425,3.61,3.762,3.444C3.136,3.283,2.644,3.097,2.34,2.897C2.184,2.797,2.013,2.65,2.009,2.5H2V6h0.006
		C1.993,6.157,2.177,6.314,2.34,6.417c0.304,0.2,0.796,0.387,1.422,0.548c0.663,0.166,1.441,0.3,2.323,0.392
		C6.985,7.452,7.952,7.5,8.953,7.5h0.061c1.019,0,2.004-0.052,2.925-0.156c0.881-0.096,1.659-0.231,2.312-0.403
		c0.621-0.162,1.11-0.353,1.418-0.554c0.148-0.098,0.31-0.239,0.32-0.387H16V2.5H15.988z"/>
	<path style="fill:#8C8C8C;" d="M15.988,7.25c-0.024,0.14-0.178,0.273-0.318,0.366c-0.308,0.2-0.797,0.392-1.418,0.553
		c-0.653,0.173-1.432,0.309-2.312,0.404c-0.921,0.104-1.906,0.156-2.925,0.156H8.953c-1.001,0-1.968-0.048-2.868-0.144
		C5.203,8.494,4.425,8.36,3.762,8.194C3.136,8.033,2.644,7.847,2.34,7.647C2.184,7.547,2.013,7.4,2.009,7.25H2v3.5h0.006
		c-0.013,0.157,0.171,0.314,0.334,0.417c0.304,0.2,0.796,0.387,1.422,0.548c0.663,0.166,1.441,0.3,2.323,0.392
		c0.9,0.096,1.867,0.144,2.868,0.144h0.061c1.019,0,2.004-0.052,2.925-0.156c0.881-0.096,1.659-0.23,2.312-0.403
		c0.621-0.162,1.11-0.353,1.418-0.554c0.148-0.098,0.31-0.239,0.32-0.387H16v-3.5H15.988z"/>
	<path style="fill:#BFBFBF;" d="M15.996,2.448c0.033,0.165-0.161,0.329-0.326,0.438c-0.308,0.2-0.797,0.392-1.418,0.554
		c-0.653,0.173-1.432,0.308-2.312,0.403C11.019,3.948,10.033,4,9.015,4H8.953C7.952,4,6.985,3.952,6.085,3.856
		c-0.882-0.092-1.66-0.225-2.323-0.392C3.136,3.304,2.644,3.117,2.34,2.917C2.169,2.809,1.971,2.644,2.004,2.478
		c0.023-0.152,0.223-0.326,0.545-0.491c0.365-0.187,0.882-0.36,1.526-0.509C4.729,1.33,5.478,1.213,6.302,1.131
		C7.156,1.043,8.061,1,8.991,1h0.056c0.91,0,1.797,0.039,2.631,0.117c0.83,0.083,1.579,0.195,2.229,0.339
		c0.64,0.144,1.171,0.318,1.536,0.505C15.769,2.126,15.964,2.3,15.996,2.448z"/>
</g>
</svg>
