<?xml version="1.0" encoding="utf-8"?>
<svg version="1.1" id="img" xmlns="http://www.w3.org/2000/svg" xmlns:xlink="http://www.w3.org/1999/xlink" x="0px" y="0px"
	 width="18px" height="18px" viewBox="0 0 18 18" style="enable-background:new 0 0 18 18;" xml:space="preserve">
<g id="db-firebird-import.inverted">
	<path style="fill:#FFFFFF;" d="M15.99,2.5C15.992,2.483,16,2.466,15.996,2.448c-0.032-0.148-0.227-0.322-0.554-0.487
		c-0.365-0.186-0.896-0.361-1.536-0.505c-0.649-0.144-1.398-0.256-2.229-0.339C10.844,1.039,9.957,1,9.047,1H8.991
		c-0.93,0-1.835,0.043-2.689,0.131C5.478,1.213,4.729,1.33,4.075,1.479C3.431,1.627,2.914,1.801,2.549,1.987
		C2.227,2.152,2.027,2.326,2.004,2.478C2.002,2.486,2.007,2.493,2.007,2.5H2v13h0.006c-0.013,0.157,0.171,0.314,0.334,0.417
		c0.304,0.2,0.796,0.387,1.422,0.548c0.663,0.166,1.441,0.3,2.323,0.392C6.985,16.952,7.952,17,8.953,17h0.061
		c1.019,0,2.004-0.052,2.925-0.156c0.022-0.002,0.039-0.006,0.061-0.008v-2.331c-0.778,0.577-1.731,0.937-2.785,0.985
		c-0.255,0.013-0.511-0.03-0.759-0.109c-0.579-0.179-1.099-0.541-1.352-0.792c-0.448-0.462-0.751-1.205-0.863-2.28
		c0-0.005-0.002-0.012-0.002-0.018v-0.364c0.07-0.859,0.644-1.466,1.726-1.814c0.246-0.12,0.41-0.243,0.491-0.368
		c0.081-0.125,0.081-0.249,0-0.373c-0.034-0.054-0.088-0.11-0.151-0.166c-0.061-0.06-0.186-0.118-0.38-0.176
		C7.486,9.016,7.249,9.126,7.211,9.36C6.466,9.029,6.443,8.65,7.144,8.229c0.14-0.053,0.339-0.072,0.604-0.061
		C7.64,7.682,7.825,7.495,8.31,7.608c0.05,0.02,0.099,0.037,0.147,0.058c1.449,0.552,2.123,0.615,2.022,0.184
		c0.125,0.357,0.016,0.519-0.329,0.482C9.75,8.271,9.503,8.298,9.406,8.417c0.716,0.354,1.097,0.698,1.146,1.032
		c0.068,0.564-0.199,1.18-0.798,1.858c-0.378,0.471-0.182,0.97,0.428,1.05c1.895-0.093,2.819-1.256,2.773-3.484
		c-0.226-1.616-1.47-2.749-3.734-3.401C11.892,5.59,14,7.795,14,10.468c0,0.542-0.101,1.049-0.25,1.532H16V2.5H15.99z M6.122,13.3
		c0.094,0.755,0.504,1.322,1.131,1.881l-0.225-0.114C5.246,14.299,4,12.528,4,10.468c0-2.616,2.019-4.792,4.633-4.986
		C5.639,6.072,2.773,9.529,6.122,13.3z"/>
	<path style="fill:#FFFFFF;" d="M16,14v1v1h-1h-1v-1h1v-1H16z M17,13h-4v4h4V13z"/>
</g>
</svg>
