<?xml version="1.0" encoding="utf-8"?>
<svg version="1.1" id="img" xmlns="http://www.w3.org/2000/svg" xmlns:xlink="http://www.w3.org/1999/xlink" x="0px" y="0px"
	 width="18px" height="18px" viewBox="0 0 18 18" style="enable-background:new 0 0 18 18;" xml:space="preserve">
<path id="db-interbase.inverted" style="fill:#FFFFFF;" d="M16,4.76V2.5h-0.01C15.992,2.483,16,2.466,15.996,2.448
	c-0.032-0.148-0.227-0.322-0.554-0.487c-0.365-0.186-0.896-0.361-1.536-0.505c-0.649-0.144-1.398-0.256-2.229-0.339
	C10.844,1.039,9.957,1,9.047,1H8.991c-0.93,0-1.835,0.043-2.689,0.131C5.478,1.213,4.729,1.33,4.075,1.479
	C3.431,1.627,2.914,1.801,2.549,1.987C2.227,2.152,2.027,2.326,2.004,2.478C2.002,2.486,2.007,2.493,2.007,2.5H2v3.52
	c1.39,0.07,2.95,0.79,3.269,0.94C5.65,7.12,6.35,7.35,7.05,7.4C7.76,7.46,8.4,7.91,8.4,8.36C8.4,8.8,8.46,9.01,8.25,8.95
	C8.13,7.75,7.06,7.7,6.91,7.92c-0.16,0.22-0.13,0.5,0.51,0.83c0.72,0.37,0.8,0.83,0.68,1.13C8.07,9.77,7.92,9.65,7.55,9.46
	c0.21,0.26,0.37,0.47,0.2,1.65c-0.17,1.17,0.57,1.55,1.41,2.13c-3-1.11-2.75-3.391-2.72-4.061C6.46,8.51,6.54,7.99,5.57,7.36
	C4.82,6.88,3.04,6.37,2,6.14v9.36h0.006c-0.013,0.157,0.171,0.314,0.334,0.417c0.304,0.2,0.796,0.387,1.422,0.548
	c0.663,0.166,1.441,0.3,2.323,0.392C6.985,16.952,7.952,17,8.953,17h0.061c1.019,0,2.004-0.052,2.925-0.156
	c0.881-0.096,1.659-0.23,2.312-0.403c0.621-0.162,1.11-0.353,1.418-0.554c0.148-0.098,0.31-0.239,0.32-0.387H16V5.24
	c-0.37,0.18-0.76,0.319-0.67,0.39c0.18,0.14-0.42,0.54-0.71,0.67c-0.21,0.09-0.26,0.11-0.19,0.231c0.2,0.359-1,0.779-1.22,0.809
	C13.06,7.37,13,7.42,13.019,7.6c0.04,0.29-0.76,0.681-1.309,0.96c-0.56,0.28-1.79,0.671-2.38,1.53c-0.61,0.851-0.22,1.5-0.17,1.771
	c-1.18-1.511,1.07-3.03,1.07-3.03c0.63-0.57-0.49-0.26-1.08,0.5C8.76,9.82,7.96,9.5,9.21,8.02C10.24,6.8,14.46,5.14,16,4.76z
	 M7.357,8.389c-0.11,0-0.203-0.091-0.203-0.204c0-0.108,0.093-0.202,0.203-0.202c0.113,0,0.203,0.094,0.203,0.202
	C7.561,8.298,7.471,8.389,7.357,8.389z M9.863,12.604c0.53,0.169,0.739,0.504,0.769,0.631c-0.31-0.099-0.464-0.168-0.533-0.099
	c0.336,0.28,1.272,1.371,1.076,2.168c-0.294-0.797-0.559-1.078-1.062-1.398c-0.505-0.324-1.274-1.064-1.217-2.042
	C9.162,12.332,9.329,12.438,9.863,12.604z"/>
</svg>
