<?xml version="1.0" encoding="utf-8"?>
<svg version="1.1" id="img" xmlns="http://www.w3.org/2000/svg" xmlns:xlink="http://www.w3.org/1999/xlink" x="0px" y="0px"
	 width="18px" height="18px" viewBox="0 0 18 18" style="enable-background:new 0 0 18 18;" xml:space="preserve">
<g id="db-mysql-import.disabled">
	<path style="fill:#8C8C8C;" d="M16,2.5H2v13h0.006c-0.013,0.157,0.171,0.314,0.334,0.417c0.304,0.2,0.796,0.387,1.422,0.548
		c0.663,0.166,1.441,0.3,2.323,0.392C6.985,16.952,7.952,17,8.953,17h0.061c1.019,0,2.004-0.052,2.925-0.156
		c0.881-0.096,1.659-0.23,2.312-0.403c0.621-0.162,1.11-0.353,1.418-0.554c0.148-0.098,0.31-0.239,0.32-0.387H16V2.5z"/>
	<path style="fill:#BFBFBF;" d="M15.996,2.448c0.033,0.165-0.161,0.329-0.326,0.438c-0.308,0.2-0.797,0.392-1.418,0.554
		c-0.653,0.173-1.432,0.308-2.312,0.403C11.019,3.948,10.033,4,9.015,4H8.953C7.952,4,6.985,3.952,6.085,3.856
		c-0.882-0.092-1.66-0.226-2.323-0.392C3.136,3.304,2.644,3.117,2.34,2.917C2.169,2.809,1.971,2.644,2.004,2.478
		c0.023-0.152,0.223-0.326,0.545-0.491c0.365-0.187,0.882-0.36,1.526-0.509C4.729,1.33,5.478,1.213,6.302,1.131
		C7.156,1.043,8.061,1,8.991,1h0.056c0.91,0,1.797,0.039,2.631,0.117c0.83,0.083,1.579,0.195,2.229,0.339
		c0.64,0.143,1.171,0.318,1.536,0.505C15.769,2.126,15.964,2.3,15.996,2.448z"/>
	<path style="fill-rule:evenodd;clip-rule:evenodd;fill:none;" d="M9.3,16.32c-0.01,0-0.019-0.011-0.03-0.02H9.3
		C9.3,16.31,9.3,16.32,9.3,16.32z"/>
	<path style="fill-rule:evenodd;clip-rule:evenodd;fill:#FFFFFF;" d="M16,15.39v0.11h-0.01c-0.01,0.09-0.061,0.17-0.141,0.24
		c-0.109-0.17-0.47-0.36-0.6-0.44c-0.31-0.22-0.63-0.46-0.96-0.649c-0.17-0.101-0.47-0.19-0.65-0.271
		c-0.25-0.1-0.83-0.21-0.979-0.41C12.39,13.6,12.19,13.14,12,12.69c-0.21-0.45-0.46-0.921-0.66-1.391
		c-0.1-0.229-0.14-0.43-0.26-0.649C10.38,9.31,9.36,8.18,8.1,7.39C7.69,7.13,7.231,6.89,6.731,6.74C6.44,6.65,6.1,6.7,5.79,6.63H5.6
		C5.43,6.58,5.29,6.4,5.15,6.31C4.85,6.11,4.56,5.97,4.21,5.82C4.08,5.769,3.73,5.64,3.6,5.74C3.53,5.76,3.5,5.79,3.47,5.87
		c-0.069,0.11,0,0.28,0.05,0.39C3.66,6.56,3.86,6.74,4.04,7C4.2,7.22,4.39,7.481,4.519,7.74C4.76,8.269,4.87,8.86,5.1,9.39
		C5.19,9.59,5.32,9.82,5.45,9.99c0.1,0.149,0.29,0.26,0.34,0.439c0.13,0.19-0.17,0.82-0.24,1.021c-0.24,0.78-0.18,1.87,0.09,2.54
		c0.12,0.27,0.221,0.58,0.53,0.66c0.01-0.021,0.01-0.011,0.04-0.03c0.059-0.51,0.09-1.021,0.26-1.43c0.11-0.25,0.311-0.44,0.46-0.65
		c0.101,0.06,0.101,0.229,0.15,0.35c0.12,0.29,0.26,0.62,0.41,0.91C7.81,14.41,8.17,15,8.56,15.54c0.141,0.191,0.33,0.4,0.5,0.57
		c0.07,0.06,0.15,0.1,0.21,0.189c-0.279-0.1-0.46-0.38-0.659-0.54c-0.441-0.33-0.96-0.819-1.24-1.29
		c-0.14-0.26-0.271-0.51-0.39-0.779c0,0,0-0.011,0-0.021c-0.061,0.07-0.04,0.15-0.07,0.26c-0.13,0.481-0.03,1.021-0.46,1.2
		c-0.49,0.2-0.851-0.33-1-0.56c-0.49-0.801-0.62-2.13-0.29-3.2c0.08-0.24,0.09-0.53,0.22-0.72c-0.01-0.17-0.16-0.221-0.229-0.32
		C5.01,10.14,4.9,9.94,4.79,9.74c-0.2-0.4-0.33-0.86-0.49-1.29C4.231,8.28,4.22,8.12,4.15,7.95C4.03,7.71,3.83,7.46,3.67,7.24
		C3.44,6.93,2.8,6.32,3.06,5.7C3.46,4.71,4.86,5.46,5.4,5.8C5.55,5.89,5.7,6.07,5.84,6.12C6.08,6.14,6.32,6.15,6.56,6.17
		C7,6.28,7.42,6.36,7.78,6.56c1.64,0.971,2.7,1.95,3.689,3.57c0.2,0.34,0.311,0.71,0.481,1.08c0.24,0.559,0.5,1.13,0.78,1.66
		c0.13,0.25,0.22,0.519,0.39,0.729c0.08,0.101,0.269,0.131,0.37,0.17c0.33,0.171,0.7,0.29,1,0.49C15.01,14.59,15.53,14.981,16,15.39
		z"/>
	<path style="fill-rule:evenodd;clip-rule:evenodd;fill:#FFFFFF;" d="M6.185,7.562c-0.152,0-0.267,0.022-0.391,0.049
		c0,0,0,0.009,0,0.019c0.009,0,0.02,0,0.027,0c0.078,0.153,0.211,0.257,0.306,0.391c0.066,0.151,0.144,0.306,0.21,0.457
		c0.01-0.009,0.018-0.019,0.028-0.027c0.134-0.087,0.19-0.239,0.19-0.478C6.509,7.916,6.499,7.849,6.451,7.783
		C6.385,7.688,6.271,7.64,6.185,7.562L6.185,7.562z"/>
	<rect x="13" y="13" style="fill:#595959;" width="4" height="4"/>
	<polygon style="fill:#E6E6E6;" points="15,14 15,15 14,15 14,16 15,16 16,16 16,15 16,14 	"/>
</g>
</svg>
