<?xml version="1.0" encoding="utf-8"?>
<svg version="1.1" id="img" xmlns="http://www.w3.org/2000/svg" xmlns:xlink="http://www.w3.org/1999/xlink" x="0px" y="0px"
	 width="18px" height="18px" viewBox="0 0 18 18" style="enable-background:new 0 0 18 18;" xml:space="preserve">
<g id="db-mssql.default">
	<g>
		<path style="fill:#5EAFE3;" d="M16,2.5H2v13h0.006c-0.013,0.157,0.17,0.314,0.334,0.417c0.303,0.2,0.796,0.387,1.422,0.548
			c0.663,0.166,1.441,0.3,2.323,0.392C6.985,16.952,7.952,17,8.953,17h0.062c1.019,0,2.004-0.052,2.924-0.156
			c0.881-0.096,1.66-0.23,2.312-0.403c0.622-0.162,1.11-0.353,1.418-0.554c0.148-0.098,0.31-0.239,0.321-0.387H16V2.5z"/>
	</g>
	<g>
		<path style="fill:#B3E8FF;" d="M15.996,2.448c0.033,0.165-0.161,0.329-0.326,0.438c-0.308,0.2-0.797,0.392-1.418,0.554
			c-0.653,0.173-1.431,0.308-2.312,0.403C11.019,3.948,10.033,4,9.015,4H8.953C7.952,4,6.985,3.952,6.085,3.856
			c-0.881-0.092-1.66-0.225-2.323-0.392C3.136,3.304,2.643,3.117,2.34,2.917c-0.171-0.108-0.37-0.273-0.336-0.439
			c0.023-0.152,0.222-0.326,0.545-0.491c0.365-0.187,0.882-0.36,1.527-0.509C4.729,1.33,5.479,1.213,6.302,1.131
			C7.156,1.043,8.062,1,8.991,1h0.056c0.91,0,1.796,0.039,2.631,0.117c0.83,0.083,1.579,0.195,2.228,0.339
			c0.64,0.144,1.171,0.318,1.536,0.505C15.769,2.126,15.964,2.3,15.996,2.448z"/>
	</g>
	<path style="fill-rule:evenodd;clip-rule:evenodd;fill:#FFFFFF;" d="M6.388,6.222C6.986,5.707,7.759,5.35,8.542,5
		c0.193,0.64,0.471,1.251,0.867,1.82C9.168,6.778,8.917,6.74,8.66,6.702c0.17-0.01,0.408,0.02,0.578,0.009
		C9.166,6.614,9,6.423,8.918,6.275c-0.136,0.12-0.41,0.243-0.638,0.311c0.042,0.029,0.192,0.065,0.233,0.095
		C7.762,6.57,6.988,6.454,6.388,6.222L6.388,6.222z M7.122,5.926C6.965,5.986,6.844,6.121,6.78,6.283
		c0.231,0.041,0.276,0.104,0.364,0.147c0.144-0.01,0.287-0.02,0.43-0.029C7.368,6.27,7.235,6.077,7.122,5.926L7.122,5.926z
		 M7.417,5.754c0.477,0.123,0.925,0.17,1.361,0.18C8.651,5.776,8.552,5.547,8.466,5.279C8.079,5.399,7.724,5.553,7.417,5.754
		L7.417,5.754z M8.846,6.158C8.391,6.143,7.751,5.99,7.296,5.853c0.161,0.221,0.477,0.528,0.791,0.688
		C8.375,6.44,8.66,6.3,8.846,6.158z"/>
	<path style="fill-rule:evenodd;clip-rule:evenodd;fill:#FFFFFF;" d="M9.409,15c0.83-1.838,1.15-3.355,0.942-5.106
		c-1.359,0.463-2.651,0.87-3.838,1.561c-0.031,0.35,0.027,0.676,0.22,0.965c-0.497,0.13-0.994,0.259-1.491,0.389
		c0.049-0.635,0.593-0.938,1.268-1.352c-0.172,0.1-0.341,0.205-0.508,0.316C3.153,13.681,7.043,14.921,9.409,15L9.409,15z
		 M7.183,14.514c-0.4-0.102-0.779-0.257-1.118-0.511c0.612-0.11,1.278-0.337,1.839-0.54C7.833,13.826,7.516,14.221,7.183,14.514
		L7.183,14.514z M7.683,14.65c0.665-0.153,1.309-0.362,1.942-0.605c-0.097,0.295-0.172,0.573-0.33,0.817
		C8.747,14.847,8.21,14.77,7.683,14.65L7.683,14.65z M7.345,14.575c0.323-0.348,0.561-0.659,0.732-1.035
		c0.434,0.253,0.934,0.327,1.408,0.418C8.824,14.258,8.097,14.438,7.345,14.575L7.345,14.575z M8.223,13.394
		c0.598-0.254,1.279-0.53,1.877-0.782c-0.068,0.436-0.204,0.818-0.349,1.217C9.27,13.74,8.599,13.696,8.223,13.394L8.223,13.394z
		 M8.086,13.349c0.298-0.307,0.732-1.02,0.826-1.488c0.408,0.288,0.894,0.537,1.2,0.583C9.56,12.659,8.638,13.133,8.086,13.349
		L8.086,13.349z M10.181,12.222c-0.435-0.039-0.85-0.193-1.192-0.462c0.405-0.212,0.866-0.423,1.271-0.633
		C10.278,11.521,10.223,11.837,10.181,12.222L10.181,12.222z M10.268,10.792c-0.165-0.233-0.426-0.382-0.752-0.473
		c0.23-0.056,0.46-0.112,0.691-0.168C10.254,10.364,10.281,10.578,10.268,10.792L10.268,10.792z M8.945,11.66
		c0.071-0.399,0.226-0.874,0.297-1.272c0.427,0.144,0.78,0.328,0.964,0.593C9.814,11.183,9.338,11.459,8.945,11.66L8.945,11.66z
		 M8.838,11.599c-0.134-0.062-0.478-0.28-0.745-0.739c0.261-0.093,0.605-0.239,0.866-0.335C9.013,10.825,8.899,11.262,8.838,11.599
		L8.838,11.599z M8.725,11.727c-0.463,0.253-1.229,0.586-1.709,0.636c0.243-0.441,0.706-0.984,0.948-1.427
		C8.167,11.36,8.481,11.588,8.725,11.727L8.725,11.727z M8.811,11.822c-0.065,0.429-0.485,1.056-0.854,1.443
		c-0.357-0.189-0.667-0.42-0.859-0.761C7.639,12.403,8.341,12.016,8.811,11.822L8.811,11.822z M7.737,13.387
		c-0.576,0.246-1.168,0.418-1.764,0.564c0.375-0.407,0.692-0.84,0.927-1.309C7.085,12.9,7.349,13.132,7.737,13.387L7.737,13.387z
		 M5.783,13.859c-0.383-0.169-0.541-0.502-0.55-0.944c0.493-0.112,0.985-0.223,1.477-0.335C6.54,13.043,6.217,13.466,5.783,13.859
		L5.783,13.859z M6.938,12.253c-0.21-0.159-0.301-0.559-0.183-0.838c0.315-0.131,0.629-0.264,0.942-0.394
		C7.525,11.441,7.254,11.851,6.938,12.253z"/>
	<path style="fill-rule:evenodd;clip-rule:evenodd;fill:#BC2836;" d="M6.514,11.455c-0.171,0.105-0.34,0.212-0.511,0.317
		c0.176-0.186,0.358-0.379,0.525-0.54C8.466,9.365,8.417,7.684,6.68,6.42C6.188,6.063,6.284,6.234,6.789,6.352
		c2.939,0.68,5.456,0.441,7.166,2.554c0.123,0.151,0.113,0.187-0.006,0.195C12.956,9.163,9.518,9.875,6.514,11.455L6.514,11.455z
		 M7.727,7.297C7.691,7.086,7.602,6.824,7.475,6.623C7.294,6.552,7.129,6.522,6.983,6.519C7.263,6.729,7.547,7.035,7.727,7.297
		L7.727,7.297z M7.708,6.706c0.125,0.329,0.186,0.586,0.246,0.841c0.234-0.26,0.543-0.473,0.849-0.65
		C8.451,6.776,8.07,6.735,7.708,6.706L7.708,6.706z M8.14,7.638c0.3,0.097,0.6,0.192,0.9,0.289C9.013,7.602,8.985,7.277,8.958,6.953
		C8.652,7.144,8.34,7.323,8.14,7.638L8.14,7.638z M9.215,7.957c0.376-0.319,0.783-0.582,1.22-0.792
		C9.996,7.043,9.543,6.971,9.075,6.961C9.121,7.293,9.168,7.625,9.215,7.957L9.215,7.957z M9.375,8.037
		c0.302,0.088,0.568,0.223,0.789,0.411c0.25-0.376,0.375-0.791,0.461-1.217C10.179,7.43,9.761,7.695,9.375,8.037L9.375,8.037z
		 M10.325,8.524c0.606-0.327,1.249-0.588,1.926-0.784c-0.486-0.204-1.028-0.372-1.534-0.476C10.704,7.657,10.52,8.191,10.325,8.524
		L10.325,8.524z M10.432,8.6c0.352,0.233,0.633,0.555,0.814,0.888c0.417-0.545,0.843-1.076,1.201-1.622
		C11.75,8.066,11.065,8.289,10.432,8.6L10.432,8.6z M11.433,9.437c0.801-0.216,1.593-0.378,2.373-0.452
		c-0.334-0.428-0.75-0.782-1.266-1.047C12.221,8.454,11.875,8.962,11.433,9.437L11.433,9.437z M8.095,8.82
		C8.357,8.589,8.606,8.356,8.87,8.124C8.6,8.049,8.333,7.974,8.062,7.898C8.101,8.221,8.109,8.539,8.095,8.82L8.095,8.82z
		 M8.086,9.11C8.28,9.154,8.44,9.247,8.554,9.403c0.159-0.401,0.318-0.805,0.475-1.206C8.714,8.501,8.401,8.806,8.086,9.11
		L8.086,9.11z M8.618,9.468c0.417-0.294,0.834-0.588,1.25-0.883C9.677,8.441,9.457,8.327,9.185,8.266
		C8.996,8.667,8.807,9.066,8.618,9.468L8.618,9.468z M8.67,9.561c0.101,0.2,0.158,0.439,0.175,0.71
		c0.375-0.507,0.819-1.06,1.193-1.567C9.584,8.988,9.127,9.274,8.67,9.561L8.67,9.561z M9.09,10.169
		c0.667-0.216,1.335-0.432,2.002-0.647C10.815,9.204,10.54,8.965,10.2,8.811C9.842,9.259,9.447,9.72,9.09,10.169L9.09,10.169z
		 M7.315,10.913c0.488-0.258,0.982-0.465,1.401-0.596C8.689,10.079,8.685,9.8,8.535,9.632C8.162,10.021,7.688,10.524,7.315,10.913
		L7.315,10.913z M7.081,10.804c0.238-0.162,0.474-0.325,0.709-0.486c-0.03-0.093-0.058-0.183-0.087-0.274
		C7.565,10.249,7.411,10.485,7.081,10.804L7.081,10.804z M7.749,9.943c0.188-0.127,0.38-0.256,0.568-0.383
		C8.222,9.434,8.106,9.367,7.98,9.342C7.939,9.561,7.849,9.755,7.749,9.943z"/>
</g>
</svg>
