<?xml version="1.0" encoding="utf-8"?>
<svg version="1.1" id="img" xmlns="http://www.w3.org/2000/svg" xmlns:xlink="http://www.w3.org/1999/xlink" x="0px" y="0px"
	 width="18px" height="18px" viewBox="0 0 18 18" style="enable-background:new 0 0 18 18;" xml:space="preserve">
<g id="db-mysql.inverted">
	<path style="fill:#FFFFFF;" d="M15.99,2.5C15.992,2.483,16,2.466,15.996,2.448c-0.032-0.148-0.227-0.322-0.554-0.487
		c-0.365-0.186-0.896-0.361-1.536-0.505c-0.649-0.144-1.398-0.256-2.229-0.339C10.844,1.039,9.957,1,9.047,1H8.991
		c-0.93,0-1.835,0.043-2.689,0.131C5.478,1.213,4.729,1.33,4.075,1.479C3.431,1.627,2.914,1.801,2.549,1.987
		C2.227,2.152,2.027,2.326,2.004,2.478C2.002,2.486,2.007,2.493,2.007,2.5H2v13h0.006c-0.013,0.157,0.171,0.314,0.334,0.417
		c0.304,0.2,0.796,0.387,1.422,0.548c0.663,0.166,1.441,0.3,2.323,0.392C6.985,16.952,7.952,17,8.953,17h0.061
		c1.019,0,2.004-0.052,2.925-0.156c0.881-0.096,1.659-0.23,2.312-0.403c0.621-0.162,1.11-0.353,1.418-0.554
		c0.095-0.063,0.191-0.144,0.254-0.233c-0.021,0.03-0.044,0.06-0.074,0.087c-0.109-0.17-0.47-0.36-0.6-0.44
		c-0.31-0.22-0.63-0.46-0.96-0.649c-0.17-0.101-0.47-0.19-0.65-0.271c-0.25-0.1-0.83-0.21-0.979-0.41
		C12.39,13.6,12.19,13.14,12,12.69c-0.21-0.45-0.46-0.921-0.66-1.391c-0.1-0.229-0.14-0.43-0.26-0.649
		C10.38,9.31,9.36,8.18,8.1,7.39C7.69,7.13,7.231,6.89,6.731,6.74C6.44,6.65,6.1,6.7,5.79,6.63H5.6C5.43,6.58,5.29,6.4,5.15,6.31
		C4.85,6.11,4.56,5.97,4.21,5.82C4.08,5.77,3.73,5.64,3.6,5.74C3.53,5.76,3.5,5.79,3.47,5.87c-0.069,0.11,0,0.28,0.05,0.39
		C3.66,6.56,3.86,6.74,4.04,7C4.2,7.22,4.39,7.481,4.519,7.74C4.76,8.27,4.87,8.86,5.1,9.39C5.19,9.59,5.32,9.82,5.45,9.99
		c0.1,0.149,0.29,0.26,0.34,0.439c0.13,0.19-0.17,0.82-0.24,1.021c-0.24,0.78-0.18,1.87,0.09,2.54c0.12,0.27,0.221,0.58,0.53,0.66
		c0.01-0.021,0.01-0.011,0.04-0.03c0.059-0.51,0.09-1.021,0.26-1.43c0.11-0.25,0.311-0.44,0.46-0.65
		c0.101,0.06,0.101,0.23,0.15,0.35c0.12,0.29,0.26,0.62,0.41,0.91C7.81,14.41,8.17,15,8.56,15.54c0.141,0.191,0.33,0.4,0.5,0.57
		c0.07,0.059,0.15,0.1,0.21,0.189H9.3c0,0.01,0,0.02,0,0.02c-0.01,0-0.019-0.011-0.03-0.02c-0.279-0.1-0.46-0.38-0.659-0.54
		c-0.441-0.33-0.96-0.819-1.24-1.29c-0.14-0.26-0.271-0.51-0.39-0.779c0,0,0-0.011,0-0.021c-0.061,0.07-0.04,0.15-0.07,0.26
		c-0.13,0.481-0.03,1.021-0.46,1.2c-0.49,0.2-0.851-0.33-1-0.56c-0.49-0.801-0.62-2.13-0.29-3.2c0.08-0.24,0.09-0.53,0.22-0.72
		c-0.01-0.17-0.16-0.221-0.229-0.32C5.01,10.14,4.9,9.94,4.79,9.74c-0.2-0.4-0.33-0.86-0.49-1.29C4.231,8.28,4.22,8.12,4.15,7.95
		C4.03,7.71,3.83,7.46,3.67,7.24C3.44,6.93,2.8,6.32,3.06,5.7C3.46,4.71,4.86,5.46,5.4,5.8C5.55,5.89,5.7,6.07,5.84,6.12
		C6.08,6.14,6.32,6.15,6.56,6.17C7,6.28,7.42,6.36,7.78,6.56c1.64,0.971,2.7,1.95,3.689,3.57c0.2,0.34,0.311,0.71,0.481,1.08
		c0.24,0.56,0.5,1.13,0.78,1.66c0.13,0.25,0.22,0.519,0.39,0.729c0.08,0.101,0.269,0.131,0.37,0.17c0.33,0.171,0.7,0.29,1,0.49
		c0.52,0.33,1.04,0.721,1.51,1.13V2.5H15.99z M6.365,8.45C6.354,8.459,6.347,8.469,6.337,8.477c-0.066-0.151-0.144-0.306-0.21-0.457
		C6.032,7.887,5.899,7.783,5.821,7.63c-0.008,0-0.019,0-0.027,0c0-0.01,0-0.019,0-0.019c0.124-0.027,0.238-0.049,0.391-0.049
		c0.086,0.077,0.2,0.125,0.267,0.221c0.048,0.065,0.058,0.133,0.104,0.188C6.556,8.211,6.499,8.363,6.365,8.45z"/>
	<path style="fill:#FFFFFF;" d="M15.949,15.619c0.022-0.039,0.038-0.078,0.041-0.119C15.986,15.542,15.97,15.581,15.949,15.619z"/>
</g>
</svg>
