<?xml version="1.0" encoding="utf-8"?>
<svg version="1.1" id="img" xmlns="http://www.w3.org/2000/svg" xmlns:xlink="http://www.w3.org/1999/xlink" x="0px" y="0px"
	 width="18px" height="18px" viewBox="0 0 18 18" style="enable-background:new 0 0 18 18;" xml:space="preserve">
<g id="db-msaccess-export.inverted">
	<path style="fill:#FFFFFF;" d="M1,1v4h4V1H1z M4,4H2V3h1V2h1V4z"/>
	<path style="fill:#FFFFFF;" d="M11.133,6.805c-0.396,0-0.714,0.256-0.714,0.57c0,0.315,0.317,0.574,0.714,0.574
		c0.393,0,0.712-0.259,0.712-0.574C11.845,7.061,11.525,6.805,11.133,6.805z"/>
	<path style="fill:#FFFFFF;" d="M15.99,2.5C15.992,2.483,16,2.466,15.996,2.448c-0.032-0.148-0.227-0.322-0.554-0.487
		c-0.365-0.187-0.896-0.361-1.536-0.505c-0.649-0.144-1.398-0.256-2.229-0.339C10.844,1.039,9.957,1,9.047,1H8.991
		c-0.93,0-1.835,0.043-2.689,0.131C6.196,1.141,6.103,1.157,6,1.169V6H2v9.5h0.006c-0.013,0.157,0.171,0.314,0.334,0.417
		c0.304,0.2,0.796,0.387,1.422,0.548c0.663,0.166,1.441,0.3,2.323,0.392C6.985,16.952,7.952,17,8.953,17h0.061
		c1.019,0,2.004-0.052,2.925-0.156c0.881-0.096,1.659-0.23,2.312-0.403c0.621-0.162,1.11-0.353,1.418-0.554
		c0.148-0.098,0.31-0.239,0.32-0.387H16v-13H15.99z M12.545,9.727c-0.91,0.938-2.808,0.796-2.808,0.796l-0.493,0.653H8.006
		l-0.024,1.01H6.575v1.403H4.798v-1.078l3.045-3.494c0,0-0.974-1.466,1.097-2.685c1.873-1.099,3.939,0.202,4.191,1.031
		C13.505,8.58,13.246,9.008,12.545,9.727z"/>
</g>
</svg>
