<?xml version="1.0" encoding="utf-8"?>
<svg version="1.1" id="img" xmlns="http://www.w3.org/2000/svg" xmlns:xlink="http://www.w3.org/1999/xlink" x="0px" y="0px"
	 width="18px" height="18px" viewBox="0 0 18 18" style="enable-background:new 0 0 18 18;" xml:space="preserve">
<g id="db-oracle-import.inverted">
	<path style="fill:#FFFFFF;" d="M16,14v1v1h-1h-1v-1h1v-1H16z M17,13h-4v4h4V13z"/>
	<path style="fill:#FFFFFF;" d="M11,8H7c-1.103,0-2,0.897-2,2s0.897,2,2,2h4c1.103,0,2-0.897,2-2S12.103,8,11,8z"/>
	<path style="fill:#FFFFFF;" d="M15.99,2.5C15.992,2.483,16,2.466,15.996,2.448c-0.032-0.148-0.227-0.322-0.554-0.487
		c-0.365-0.186-0.896-0.361-1.536-0.505c-0.65-0.144-1.398-0.256-2.229-0.339C10.844,1.039,9.957,1,9.047,1H8.991
		c-0.93,0-1.835,0.043-2.689,0.131C5.479,1.213,4.729,1.33,4.075,1.479C3.431,1.627,2.914,1.801,2.549,1.987
		C2.227,2.152,2.027,2.326,2.004,2.479C2.002,2.486,2.007,2.493,2.006,2.5H2v13h0.006c-0.013,0.158,0.17,0.313,0.333,0.417
		c0.304,0.2,0.796,0.387,1.422,0.548c0.663,0.166,1.441,0.3,2.323,0.392C6.985,16.952,7.952,17,8.953,17h0.061
		c1.04,0,2.046-0.054,2.984-0.163c0-0.001,0.001-0.001,0.001-0.002v-4.02C11.686,12.928,11.352,13,11,13H7c-1.654,0-3-1.346-3-3
		s1.346-3,3-3h4c1.654,0,3,1.346,3,3c0,0.771-0.301,1.468-0.78,2c1.518,0,2.78,0,2.78,0V2.5H15.99z"/>
</g>
</svg>
