<?xml version="1.0" encoding="utf-8"?>
<svg version="1.1" id="img" xmlns="http://www.w3.org/2000/svg" xmlns:xlink="http://www.w3.org/1999/xlink" x="0px" y="0px"
	 width="18px" height="18px" viewBox="0 0 18 18" style="enable-background:new 0 0 18 18;" xml:space="preserve">
<g id="db-oracle-import.disabled">
	<rect x="2" y="2.5" style="fill:#8C8C8C;" width="14" height="13"/>
	<path style="fill:#BFBFBF;" d="M15.996,2.448c0.033,0.165-0.161,0.329-0.326,0.438c-0.308,0.2-0.797,0.392-1.418,0.554
		c-0.653,0.173-1.432,0.308-2.312,0.403C11.019,3.948,10.033,4,9.015,4H8.953C7.952,4,6.985,3.952,6.085,3.856
		c-0.882-0.092-1.66-0.225-2.323-0.392C3.136,3.304,2.644,3.117,2.34,2.917C2.169,2.809,1.971,2.644,2.004,2.478
		c0.023-0.152,0.223-0.326,0.545-0.491c0.365-0.187,0.882-0.36,1.526-0.509C4.729,1.33,5.478,1.213,6.302,1.131
		C7.156,1.043,8.061,1,8.991,1h0.056c0.91,0,1.797,0.039,2.631,0.117c0.83,0.083,1.579,0.195,2.229,0.339
		c0.64,0.144,1.171,0.318,1.536,0.505C15.769,2.126,15.964,2.3,15.996,2.448z"/>
	<path style="fill:#8C8C8C;" d="M15.996,15.448c0.033,0.165-0.161,0.329-0.326,0.438c-0.308,0.2-0.797,0.392-1.418,0.554
		c-0.653,0.173-1.432,0.308-2.312,0.403C11.019,16.948,10.033,17,9.015,17H8.953c-1.001,0-1.968-0.048-2.868-0.144
		c-0.882-0.092-1.66-0.226-2.323-0.392c-0.626-0.161-1.118-0.348-1.422-0.548c-0.171-0.108-0.369-0.273-0.336-0.438
		c0.023-0.152,0.223-0.326,0.545-0.491c0.365-0.186,0.882-0.36,1.526-0.509c0.654-0.148,1.403-0.266,2.227-0.348
		C7.156,14.043,8.061,14,8.991,14h0.056c0.91,0,1.797,0.039,2.631,0.117c0.83,0.083,1.579,0.195,2.229,0.339
		c0.64,0.143,1.171,0.318,1.536,0.505C15.769,15.126,15.964,15.3,15.996,15.448z"/>
	<rect x="13" y="13" style="fill:#595959;" width="4" height="4"/>
	<polygon style="fill:#E6E6E6;" points="15,14 15,15 14,15 14,16 15,16 16,16 16,15 16,14 	"/>
	<path style="fill:#FFFFFF;" d="M11,13H7c-1.654,0-3-1.346-3-3s1.346-3,3-3h4c1.654,0,3,1.346,3,3S12.654,13,11,13z M7,8
		c-1.103,0-2,0.897-2,2s0.897,2,2,2h4c1.103,0,2-0.897,2-2s-0.897-2-2-2H7z"/>
</g>
</svg>
