<?xml version="1.0" encoding="utf-8"?>
<svg version="1.1" id="img" xmlns="http://www.w3.org/2000/svg" xmlns:xlink="http://www.w3.org/1999/xlink" x="0px" y="0px"
	 width="18px" height="18px" viewBox="0 0 18 18" style="enable-background:new 0 0 18 18;" xml:space="preserve">
<g id="db-sqlite-import.inverted">
	<path style="fill:#FFFFFF;" d="M13,13v4h4v-4H13z M16,15v1h-1h-1v-1h1v-1h1V15z"/>
	<path style="fill:#FFFFFF;" d="M15.99,2.5C15.992,2.483,16,2.466,15.996,2.448c-0.032-0.148-0.227-0.322-0.554-0.487
		c-0.365-0.186-0.896-0.361-1.536-0.505c-0.649-0.144-1.398-0.256-2.228-0.339C10.844,1.039,9.958,1,9.047,1H8.991
		c-0.93,0-1.835,0.043-2.689,0.131C5.478,1.213,4.729,1.33,4.076,1.479C3.431,1.627,2.914,1.801,2.549,1.987
		C2.226,2.152,2.027,2.326,2.004,2.478C2.002,2.486,2.007,2.493,2.007,2.5H2v13h0.007c-0.013,0.158,0.17,0.313,0.334,0.417
		c0.303,0.2,0.796,0.387,1.422,0.548c0.663,0.166,1.441,0.3,2.323,0.392C6.985,16.952,7.952,17,8.953,17h0.061
		c1.019,0,2.004-0.052,2.924-0.156c0.022-0.002,0.04-0.006,0.061-0.009V12h4V2.5H15.99z M9.385,10.277
		c-0.765,0.246-1.656,0.788-1.656,0.788s0.074-0.039,0.349-0.155c0.186-0.078,0.743-0.211,1.082-0.288
		c-0.566,0.853-1.051,1.451-1.051,1.451s-0.988,0.401-1.293,1.335c0.177-0.996,0.471-2.035,0.885-3.143
		c0.37-0.989,1.607-3.66,2.521-4.486c-1.002,0.799-2.098,2.472-2.887,4.558c-0.467,1.381-0.72,2.707-0.761,3.806
		c-0.027,0.719,0.035,1.343,0.188,1.818L6.692,16c-0.104-0.241-0.186-0.693-0.23-1.218c-0.033-0.397-0.044-0.836-0.025-1.259
		C6.432,13.46,6.429,13.42,6.429,13.42s-0.091-0.614-0.222-1.118c-0.058-0.224-0.124-0.426-0.194-0.544
		c-0.036-0.06,0.004-0.309,0.104-0.677c0.058,0.101,0.304,0.532,0.354,0.671c0.056,0.157,0.067,0.202,0.067,0.202
		s-0.135-0.695-0.356-1.1c0.049-0.164,0.106-0.345,0.172-0.539c0.077,0.135,0.251,0.444,0.314,0.591
		c0.006,0.014,0.011,0.026,0.015,0.037c0.009,0.025,0.016,0.047,0.023,0.067c0.036,0.103,0.044,0.136,0.044,0.136
		s-0.013-0.067-0.038-0.172c-0.01-0.044-0.023-0.096-0.038-0.151c-0.056-0.215-0.141-0.496-0.249-0.715
		c0.279-1.45,1.176-3.349,2.142-4.374c0.083-0.088,0.167-0.171,0.251-0.245c0.565-0.501,1.137-0.671,1.61-0.249
		C11.582,6.268,10.436,8.621,9.385,10.277z"/>
</g>
</svg>
