<?xml version="1.0" encoding="utf-8"?>
<svg version="1.1" id="img" xmlns="http://www.w3.org/2000/svg" xmlns:xlink="http://www.w3.org/1999/xlink" x="0px" y="0px"
	 width="18px" height="18px" viewBox="0 0 18 18" style="enable-background:new 0 0 18 18;" xml:space="preserve">
<g id="db-sybase-import.inverted">
	<path style="fill:#FFFFFF;" d="M15.99,2.5C15.992,2.483,16,2.466,15.996,2.448c-0.032-0.148-0.227-0.322-0.554-0.487
		c-0.365-0.186-0.896-0.361-1.536-0.505c-0.649-0.144-1.398-0.256-2.229-0.339C10.844,1.039,9.957,1,9.047,1H8.991
		c-0.93,0-1.835,0.043-2.689,0.131C5.478,1.213,4.729,1.33,4.075,1.479C3.431,1.627,2.914,1.801,2.549,1.987
		C2.227,2.152,2.027,2.326,2.004,2.478C2.002,2.486,2.007,2.493,2.007,2.5H2v13h0.006c-0.013,0.157,0.171,0.314,0.334,0.417
		c0.304,0.2,0.796,0.387,1.422,0.548c0.663,0.166,1.441,0.3,2.323,0.392C6.985,16.952,7.952,17,8.953,17h0.061
		c1.019,0,2.004-0.052,2.925-0.156c0.022-0.002,0.039-0.006,0.061-0.008v-1.834c-0.114,0.02-0.224,0.054-0.34,0.069
		c-0.231,0.029-0.47,0.04-0.71,0.04c-1.24,0-2.44-0.41-3.44-1.191C6.32,13,5.56,11.67,5.38,10.17C5.24,9.11,5.53,8.06,6.19,7.22
		C6.84,6.38,7.79,5.84,8.85,5.71c0.771-0.1,1.53,0.11,2.141,0.58c0.609,0.479,1,1.16,1.09,1.93C12.15,8.78,12,9.34,11.65,9.79
		c-0.351,0.45-0.86,0.74-1.42,0.81C9.8,10.65,9.38,10.54,9.04,10.269C8.7,10.01,8.481,9.62,8.43,9.2l0.99-0.13
		c0.021,0.17,0.1,0.31,0.231,0.41c0.13,0.1,0.29,0.14,0.46,0.13c0.3-0.04,0.559-0.191,0.75-0.431C11.05,8.94,11.13,8.64,11.09,8.34
		C10.96,7.31,10.01,6.57,8.981,6.7c-0.801,0.1-1.511,0.5-2,1.13c-0.5,0.64-0.711,1.42-0.61,2.22c0.149,1.231,0.769,2.33,1.75,3.08
		c0.979,0.76,2.189,1.101,3.42,0.95c0.157-0.02,0.306-0.066,0.46-0.095V12h4V2.5H15.99z"/>
	<path style="fill:#FFFFFF;" d="M16,14v1v1h-1h-1v-1h1v-1H16z M17,13h-4v4h4V13z"/>
</g>
</svg>
