<?xml version="1.0" encoding="utf-8"?>
<svg version="1.1" id="img" xmlns="http://www.w3.org/2000/svg" xmlns:xlink="http://www.w3.org/1999/xlink" x="0px" y="0px"
	 width="18px" height="18px" viewBox="0 0 18 18" style="enable-background:new 0 0 18 18;" xml:space="preserve">
<g id="driver-ole-export.inverted">
	<path style="fill:#FFFFFF;" d="M5,2.12C4.769,2.04,4.519,2,4.25,2C4.17,2,4.08,2,4,2.01v0.52c0.07-0.01,0.14-0.02,0.22-0.02
		C4.53,2.51,4.78,2.6,5,2.74C5.51,3.1,5.76,3.8,5.76,4.48c0,1.1-0.56,2.01-1.55,2.01C3.38,6.49,2.86,5.83,2.72,5
		C2.68,4.85,2.67,4.69,2.67,4.53c0-0.18,0.02-0.36,0.05-0.53H2.04C2.01,4.17,2,4.35,2,4.54C2,4.7,2.01,4.85,2.03,5
		C2.2,6.21,3.04,7,4.18,7C5.41,7,6.43,6.12,6.43,4.45C6.43,3.31,5.89,2.43,5,2.12z M2.42,3H3V2.38C2.77,2.54,2.57,2.75,2.42,3z"/>
	<path style="fill:#FFFFFF;" d="M8,2h0.625v4.317h2.068v0.525H8V2z"/>
	<path style="fill:#FFFFFF;" d="M14.723,4.651h-2.098v1.745h2.098v0.525H12V2.079h2.723v0.524h-2.098v1.53h2.098V4.651z"/>
	<rect x="2" y="8" style="fill:#FFFFFF;" width="4" height="2"/>
	<rect x="7" y="8" style="fill:#FFFFFF;" width="4" height="2"/>
	<rect x="12" y="8" style="fill:#FFFFFF;" width="4" height="2"/>
	<rect x="2" y="11" style="fill:#FFFFFF;" width="4" height="2"/>
	<rect x="7" y="11" style="fill:#FFFFFF;" width="4" height="2"/>
	<rect x="12" y="11" style="fill:#FFFFFF;" width="4" height="2"/>
	<rect x="2" y="14" style="fill:#FFFFFF;" width="4" height="2"/>
	<rect x="7" y="14" style="fill:#FFFFFF;" width="4" height="2"/>
	<rect x="12" y="14" style="fill:#FFFFFF;" width="4" height="2"/>
	<path style="fill:#FFFFFF;" d="M1,1v4h4V1H1z M4,4H2V3h1V2h1V4z"/>
</g>
</svg>
