<?xml version="1.0" encoding="utf-8"?>
<svg version="1.1" id="img" xmlns="http://www.w3.org/2000/svg" xmlns:xlink="http://www.w3.org/1999/xlink" x="0px" y="0px"
	 width="18px" height="18px" viewBox="0 0 18 18" style="enable-background:new 0 0 18 18;" xml:space="preserve">
<g id="file-html-import.inverted">
	<polygon style="fill:#FFFFFF;" points="12,15 4,15 4,3 12,3 12,5 14,5 14,12 15,12 15,5 12,2 3,2 3,16 12,16 	"/>
	<path style="fill:#FFFFFF;" d="M9,8c0.552,0,1,0.448,1,1s-0.448,1-1,1S8,9.552,8,9S8.448,8,9,8 M9,7C7.896,7,7,7.896,7,9
		s0.896,2,2,2s2-0.896,2-2S10.104,7,9,7L9,7z"/>
	<polygon style="fill:#FFFFFF;" points="12,7 14,9 12,11 	"/>
	<polygon style="fill:#FFFFFF;" points="6,11 4,9 6,7 	"/>
	<path style="fill:#FFFFFF;" d="M13,13v4h4v-4H13z M16,15v1h-1h-1v-1h1v-1h1V15z"/>
</g>
</svg>
