<?xml version="1.0" encoding="utf-8"?>
<svg version="1.1" id="img" xmlns="http://www.w3.org/2000/svg" xmlns:xlink="http://www.w3.org/1999/xlink" x="0px" y="0px"
	 width="18px" height="18px" viewBox="0 0 18 18" style="enable-background:new 0 0 18 18;" xml:space="preserve">
<g id="file-native-export.default">
	<polygon style="fill:#3E7FAA;" points="12,5 15,5 12,2 	"/>
	<polygon style="fill:#71B1E4;" points="14,15 4,15 4,3 12,3 12,2 3,2 3,16 15,16 15,5 14,5 	"/>
	<rect x="1" y="1" style="fill:#373943;" width="4" height="4"/>
	<polygon style="fill:#BDCCD4;" points="3,2 3,3 2,3 2,4 3,4 4,4 4,3 4,2 	"/>
	<polygon style="fill:#940508;" points="5,10 8,10 8,11.239 8.833,11.026 10.408,7.277 12.851,6 12.95,6.305 10.84,7.573 
		9.247,12.224 8,13 5,13 	"/>
</g>
</svg>
