<?xml version="1.0" encoding="utf-8"?>
<svg version="1.1" id="img" xmlns="http://www.w3.org/2000/svg" xmlns:xlink="http://www.w3.org/1999/xlink" x="0px" y="0px"
	 width="18px" height="18px" viewBox="0 0 18 18" style="enable-background:new 0 0 18 18;" xml:space="preserve">
<g id="file-html-export.default">
	<polygon style="fill:#3E7FAA;" points="12,5 15,5 12,2 	"/>
	<polygon style="fill:#71B1E4;" points="14,15 4,15 4,3 12,3 12,2 3,2 3,16 15,16 15,5 14,5 	"/>
	<path style="fill:#F7931E;" d="M9,8c0.551,0,1,0.448,1,1s-0.449,1-1,1S8,9.552,8,9S8.449,8,9,8 M9,7C7.896,7,7,7.896,7,9
		s0.896,2,2,2c1.104,0,2-0.896,2-2S10.104,7,9,7L9,7z"/>
	<polygon style="fill:#F7931E;" points="12,7 14,9 12,11 	"/>
	<polygon style="fill:#F7931E;" points="6,11 4,9 6,7 	"/>
	<rect x="1" y="1" style="fill:#373943;" width="4" height="4"/>
	<polygon style="fill:#BDCCD4;" points="3,2 3,3 2,3 2,4 3,4 4,4 4,3 4,2 	"/>
</g>
</svg>
