<?xml version="1.0" encoding="utf-8"?>
<svg version="1.1" id="img" xmlns="http://www.w3.org/2000/svg" xmlns:xlink="http://www.w3.org/1999/xlink" x="0px" y="0px"
	 width="18px" height="18px" viewBox="0 0 18 18" style="enable-background:new 0 0 18 18;" xml:space="preserve">
<g id="file-tableau-export.default">
	<rect x="4" y="2" style="fill:#3582B5;" width="1" height="5"/>
	<path style="fill:#3582B5;" d="M8,3H7V2h1V1h1v1h1v1H9v1H8V3z M13,7V5h2V4h-2V2h-1v2h-2v1h2v2H13z M15,8V7h-1v1h-1v1h1h1h1V8H15z
		 M9,13H8v1H7v1h1v1h1v-1h1v-1H9V13z M7,13v-1H5v-2H4v2H2v1h2v2h1v-2H7z M9,5H8v3H5v1h3v3h1V9h3V8H9V5z M2,10h1V9h1V8H3V7H2v1H1v1h1
		V10z M7,4H2v1h5V4z"/>
	<rect x="1" y="1" style="fill:#373943;" width="4" height="4"/>
	<polygon style="fill:#BDCCD4;" points="3,2 3,3 2,3 2,4 4,4 4,2 	"/>
	<path style="fill:#63BA9E;" d="M11,11v5c0,0.552,1.343,1,3,1s3-0.448,3-1v-5H11z"/>
	<ellipse style="fill:#9ED4C2;" cx="14" cy="11" rx="3" ry="1"/>
</g>
</svg>
