<?xml version="1.0" encoding="utf-8"?>
<svg version="1.1" id="img" xmlns="http://www.w3.org/2000/svg" xmlns:xlink="http://www.w3.org/1999/xlink" x="0px" y="0px"
	 width="18px" height="18px" viewBox="0 0 18 18" style="enable-background:new 0 0 18 18;" xml:space="preserve">
<g id="file-excel-import.inverted">
	<polygon style="fill:#FFFFFF;" points="12,15 4,15 4,3 12,3 12,5 14,5 14,12 15,12 15,5 12,2 3,2 3,16 12,16 	"/>
	<polygon style="fill:#FFFFFF;" points="12.634,6 7.92,12.676 9,12.676 8.998,14 5,14 10.526,6 	"/>
	<polygon style="fill:#FFFFFF;" points="11.029,14 5.409,6.022 7.473,6.022 13,14 	"/>
	<path style="fill:#FFFFFF;" d="M13,13v4h4v-4H13z M16,15v1h-1h-1v-1h1v-1h1V15z"/>
</g>
</svg>
