<?xml version="1.0" encoding="utf-8"?>
<svg version="1.1" id="img" xmlns="http://www.w3.org/2000/svg" xmlns:xlink="http://www.w3.org/1999/xlink" x="0px" y="0px"
	 width="18px" height="18px" viewBox="0 0 18 18" style="enable-background:new 0 0 18 18;" xml:space="preserve">
<g id="file-excel-export.disabled">
	<polygon style="fill:#BFBFBF;" points="12,5 15,5 12,2 	"/>
	<polygon style="fill:#8C8C8C;" points="14,15 4,15 4,3 12,3 12,2 3,2 3,16 15,16 15,5 14,5 	"/>
	<polygon style="fill:#8C8C8C;" points="12.634,6 7.92,12.676 9,12.676 8.998,14 5,14 10.526,6 	"/>
	<polygon style="fill:#BFBFBF;" points="10.997,14 5.409,6.022 7.461,6.022 12.957,14 	"/>
	<rect x="1" y="1" style="fill:#595959;" width="4" height="4"/>
	<polygon style="fill:#E6E6E6;" points="3,2 3,3 2,3 2,4 3,4 4,4 4,3 4,2 	"/>
</g>
</svg>
