<?xml version="1.0" encoding="utf-8"?>
<svg version="1.1" id="img" xmlns="http://www.w3.org/2000/svg" xmlns:xlink="http://www.w3.org/1999/xlink" x="0px" y="0px"
	 width="18px" height="18px" viewBox="0 0 18 18" style="enable-background:new 0 0 18 18;" xml:space="preserve">
<path id="file-tableau-export.inverted" style="fill:#FFFFFF;" d="M10,4h2V2h1v2h2v1h-2v2h-1V5h-2V4z M15,7h-1v1h-1v1h1h1h1V8h-1V7z
	 M9,12V9h3V8H9V5H8v3H5v1h3v3H9z M11,11c0,0.552,1.343,1,3,1s3-0.448,3-1s-1.343-1-3-1S11,10.448,11,11z M14,13
	c-1.657,0-3-0.448-3-1v4c0,0.552,1.343,1,3,1s3-0.448,3-1v-4C17,12.552,15.657,13,14,13z M7,12H5v-2H4v2H2v1h2v2h1v-2h2V12z M2,10h1
	V9h1V8H3V7H2v1H1v1h1V10z M8,4h1V3h1V2H9V1H8v1H7v1h1V4z M9,13H8v1H7v1h1v1h1v-1h1v-1H9V13z M2,5H1V1h4v1v2h2v1H5v2H4V5H2z M2,4h2V2
	H3v1H2V4z"/>
</svg>
