<?xml version="1.0" encoding="utf-8"?>
<svg version="1.1" id="img" xmlns="http://www.w3.org/2000/svg" xmlns:xlink="http://www.w3.org/1999/xlink" x="0px" y="0px"
	 width="18px" height="18px" viewBox="0 0 18 18" style="enable-background:new 0 0 18 18;" xml:space="preserve">
<g id="file-txt-import.default">
	<polygon style="fill:#3E7FAA;" points="12,5 15,5 12,2 	"/>
	<polygon style="fill:#71B1E4;" points="14,15 4,15 4,3 12,3 12,2 3,2 3,16 15,16 15,5 14,5 	"/>
	<rect x="6" y="7" style="fill:#F7931E;" width="6" height="1"/>
	<rect x="6" y="9" style="fill:#F7931E;" width="6" height="1"/>
	<rect x="6" y="11" style="fill:#F7931E;" width="6" height="1"/>
	<rect x="13" y="13" style="fill:#373943;" width="4" height="4"/>
	<polygon style="fill:#BDCCD4;" points="15,14 15,15 14,15 14,16 15,16 16,16 16,15 16,14 	"/>
</g>
</svg>
