<?xml version="1.0" encoding="utf-8"?>
<svg version="1.1" id="img" xmlns="http://www.w3.org/2000/svg" xmlns:xlink="http://www.w3.org/1999/xlink" x="0px" y="0px"
	 width="18px" height="18px" viewBox="0 0 18 18" style="enable-background:new 0 0 18 18;" xml:space="preserve">
<g id="kafka-import.disabled">
	<path style="fill:#8C8C8C;" d="M10,10c-0.547,0-1.042,0.221-1.403,0.578L7.79,10.09l-0.001-0.001c0,0.001-0.001,0.002-0.002,0.003
		C7.921,9.753,8,9.386,8,9c0-0.216-0.036-0.422-0.083-0.625L8.39,8.18l0.003-0.001C8.757,8.674,9.339,9,10,9c1.103,0,2-0.897,2-2
		s-0.897-2-2-2S8,5.897,8,7c0,0.088,0.015,0.172,0.026,0.258L7.544,7.444C7.101,6.722,6.364,6.218,5.5,6.068V4.929
		C6.36,4.705,7,3.929,7,3c0-1.103-0.897-2-2-2S3,1.897,3,3c0,0.929,0.64,1.705,1.5,1.929v1.122C3.084,6.29,2,7.517,2,9
		s1.084,2.71,2.5,2.949v1.122C3.64,13.295,3,14.071,3,15c0,1.103,0.897,2,2,2s2-0.897,2-2c0-0.929-0.64-1.705-1.5-1.929v-1.128
		c0.709-0.123,1.334-0.488,1.782-1.018c-0.005,0.006-0.008,0.013-0.013,0.018L7.28,10.95l0.8,0.48l0.008,0.005
		c0.003-0.009,0.009-0.017,0.011-0.026C8.041,11.597,8,11.793,8,12c0,1.103,0.897,2,2,2s2-0.897,2-2S11.103,10,10,10z M10,6
		c0.551,0,1,0.449,1,1s-0.449,1-1,1S9,7.551,9,7S9.449,6,10,6z M4,3c0-0.551,0.449-1,1-1s1,0.449,1,1S5.551,4,5,4S4,3.551,4,3z
		 M6,15c0,0.551-0.449,1-1,1s-1-0.449-1-1s0.449-1,1-1S6,14.449,6,15z M5,11c-1.103,0-2-0.897-2-2s0.897-2,2-2s2,0.897,2,2
		S6.103,11,5,11z M10,13c-0.551,0-1-0.449-1-1s0.449-1,1-1s1,0.449,1,1S10.551,13,10,13z"/>
	<rect x="13" y="13" style="fill:#595959;" width="4" height="4"/>
	<polygon style="fill:#E6E6E6;" points="15,14 15,15 14,15 14,16 16,16 16,14 	"/>
</g>
</svg>
