<?xml version="1.0" encoding="utf-8"?>
<svg version="1.1" id="img" xmlns="http://www.w3.org/2000/svg" xmlns:xlink="http://www.w3.org/1999/xlink" x="0px" y="0px"
	 width="18px" height="18px" viewBox="0 0 18 18" style="enable-background:new 0 0 18 18;" xml:space="preserve">
<g id="web-mail-export.default">
	<path style="fill:#71B1E4;" d="M2.44,8.186l6.526,1.072c0.155,0.025,0.313-0.012,0.442-0.106c0.13-0.093,0.216-0.229,0.242-0.386
		l1.072-6.525L2.44,8.186z"/>
	<path style="fill:#71B1E4;" d="M10.462,7.552L10.248,8.85C10.195,9.172,10.016,9.443,9.77,9.62
		C9.521,9.798,9.208,9.881,8.886,9.828L7.561,9.61l-0.897,5.463c-0.006,0.037-0.015,0.068-0.023,0.102
		c0.152,0.025,0.315-0.005,0.45-0.102L15.76,8.85c0.136-0.099,0.217-0.241,0.24-0.396c-0.033-0.002-0.065-0.005-0.102-0.01
		L10.462,7.552z"/>
	<path style="fill:#71B1E4;" d="M2.125,8.717C2.083,8.711,2.05,8.7,2.013,8.691C1.98,8.848,2.009,9.017,2.11,9.156l4.01,5.585
		l0.857-5.227L2.125,8.717z"/>
	<path style="fill:#71B1E4;" d="M11.358,2.089L10.557,6.97l5.2,0.853l-4.01-5.586C11.652,2.106,11.514,2.025,11.366,2
		C11.364,2.03,11.364,2.057,11.358,2.089z"/>
	<rect x="2" y="14" style="fill:#F7931E;" width="14" height="2"/>
	<rect x="1" y="1" style="fill:#373943;" width="4" height="4"/>
	<polygon style="fill:#BDCCD4;" points="3,2 3,3 2,3 2,4 3,4 4,4 4,3 4,2 	"/>
</g>
</svg>
