<?xml version="1.0" encoding="utf-8"?>
<svg version="1.1" id="img" xmlns="http://www.w3.org/2000/svg" xmlns:xlink="http://www.w3.org/1999/xlink" x="0px" y="0px"
	 width="18px" height="18px" viewBox="0 0 18 18" style="enable-background:new 0 0 18 18;" xml:space="preserve">
<g id="web-mail.disabled">
	<path style="fill:#8C8C8C;" d="M2.44,8.186l6.526,1.072c0.155,0.025,0.312-0.012,0.442-0.106c0.13-0.093,0.215-0.229,0.241-0.386
		l1.071-6.525L2.44,8.186z"/>
	<path style="fill:#8C8C8C;" d="M10.462,7.552L10.248,8.85c-0.054,0.322-0.231,0.594-0.479,0.771
		C9.521,9.798,9.208,9.881,8.887,9.828L7.561,9.61l-0.896,5.463c-0.007,0.037-0.015,0.068-0.023,0.102
		C6.793,15.2,6.956,15.17,7.09,15.072l8.67-6.223c0.136-0.099,0.217-0.241,0.24-0.396c-0.033-0.002-0.065-0.005-0.102-0.01
		L10.462,7.552z"/>
	<path style="fill:#8C8C8C;" d="M2.125,8.717C2.083,8.711,2.05,8.7,2.013,8.691C1.98,8.848,2.01,9.017,2.11,9.156l4.01,5.585
		l0.857-5.227L2.125,8.717z"/>
	<path style="fill:#8C8C8C;" d="M11.357,2.089L10.557,6.97l5.2,0.853l-4.01-5.586C11.652,2.106,11.515,2.025,11.366,2
		C11.364,2.03,11.364,2.057,11.357,2.089z"/>
	<rect x="2" y="14" style="fill:#BFBFBF;" width="14" height="2"/>
</g>
</svg>
