<?xml version="1.0" encoding="utf-8"?>
<svg version="1.1" id="img" xmlns="http://www.w3.org/2000/svg" xmlns:xlink="http://www.w3.org/1999/xlink" x="0px" y="0px"
	 width="18px" height="18px" viewBox="0 0 18 18" style="enable-background:new 0 0 18 18;" xml:space="preserve">
<path id="web-equifax.inverted" style="fill:#FFFFFF;" d="M14.708,7.731c0.096-0.369,0.163-0.749,0.163-1.147
	C14.871,4.052,12.818,2,10.287,2C8.229,2,6.509,3.365,5.929,5.232C5.56,4.884,5.064,4.666,4.517,4.666
	c-1.139,0-2.063,0.923-2.063,2.062c0,0.482,0.173,0.919,0.449,1.27C1.754,8.825,1,10.081,1,11.5C1,13.975,3.25,16,6,16h6
	c2.75,0,5-2.025,5-4.5C17,9.923,16.082,8.535,14.708,7.731z M13.24,7.549H9.111L8.797,9.097h3.354L12.067,9.51l-0.232,1.135H8.481
	l-0.366,1.808h4.128L11.928,14H4.443l1.314-6.451L6.072,6h7.484L13.24,7.549z"/>
</svg>
