<?xml version="1.0" encoding="utf-8"?>
<svg version="1.1" id="img" xmlns="http://www.w3.org/2000/svg" xmlns:xlink="http://www.w3.org/1999/xlink" x="0px" y="0px"
	 width="18px" height="18px" viewBox="0 0 18 18" style="enable-background:new 0 0 18 18;" xml:space="preserve">
<g id="web-odant.default">
	<path style="fill:#F7931E;" d="M15.996,2.448c0.033,0.165-0.161,0.329-0.326,0.438c-0.308,0.2-0.797,0.392-1.418,0.554
		c-0.653,0.173-1.431,0.308-2.312,0.403C11.019,3.948,10.033,4,9.015,4H8.953C7.952,4,6.985,3.952,6.085,3.856
		c-0.881-0.092-1.66-0.226-2.323-0.392C3.136,3.304,2.643,3.117,2.34,2.917c-0.171-0.108-0.37-0.273-0.336-0.439
		c0.023-0.152,0.222-0.326,0.545-0.491c0.365-0.187,0.882-0.36,1.527-0.509C4.729,1.33,5.479,1.213,6.302,1.131
		C7.156,1.043,8.062,1,8.991,1h0.056c0.91,0,1.796,0.039,2.631,0.117c0.83,0.083,1.579,0.195,2.228,0.339
		c0.64,0.143,1.171,0.318,1.536,0.505C15.769,2.126,15.964,2.3,15.996,2.448z"/>
	<path style="fill:#71B1E4;" d="M15.99,2.5c-0.011,0.147-0.173,0.289-0.32,0.387c-0.308,0.2-0.797,0.392-1.418,0.554
		c-0.653,0.173-1.431,0.308-2.312,0.403C11.019,3.948,10.033,4,9.015,4H8.953C7.952,4,6.985,3.952,6.085,3.856
		c-0.881-0.092-1.66-0.226-2.323-0.392C3.136,3.304,2.643,3.117,2.34,2.917C2.177,2.813,1.994,2.658,2.006,2.5H2v13h0.006
		c-0.013,0.158,0.17,0.313,0.334,0.417c0.303,0.2,0.796,0.387,1.422,0.548c0.663,0.166,1.441,0.3,2.323,0.392
		C6.985,16.952,7.952,17,8.953,17h0.062c1.019,0,2.004-0.052,2.924-0.156c0.881-0.096,1.66-0.23,2.312-0.403
		c0.622-0.162,1.11-0.353,1.418-0.554c0.148-0.098,0.31-0.24,0.32-0.387H16v-13H15.99z M15,4.205v3
		c-0.221,0.083-0.469,0.162-0.748,0.235C13.615,7.609,12.855,7.74,12,7.835v-3c0.855-0.095,1.615-0.226,2.252-0.395
		C14.531,4.368,14.779,4.288,15,4.205z M3,8.23c0.224,0.083,0.477,0.162,0.762,0.235C4.403,8.625,5.156,8.753,6,8.845v3
		c-0.844-0.092-1.597-0.22-2.238-0.38C3.477,11.392,3.224,11.312,3,11.23V8.23z M7,8.927C7.632,8.97,8.28,9,8.953,9h0.062
		C9.698,9,10.356,8.968,11,8.921v3C10.356,11.968,9.698,12,9.015,12H8.953C8.28,12,7.632,11.97,7,11.927V8.927z M12,8.835
		c0.855-0.095,1.615-0.226,2.252-0.395C14.531,8.368,14.779,8.288,15,8.205v3c-0.221,0.083-0.469,0.162-0.748,0.235
		c-0.637,0.169-1.397,0.3-2.252,0.395V8.835z M9.015,5C9.698,5,10.356,4.968,11,4.921v3C10.356,7.968,9.698,8,9.015,8H8.953
		C8.28,8,7.632,7.97,7,7.927v-3C7.632,4.97,8.28,5,8.953,5H9.015z M6,4.845v3c-0.844-0.092-1.597-0.22-2.238-0.38
		C3.477,7.392,3.224,7.312,3,7.23v-3c0.224,0.083,0.477,0.162,0.762,0.235C4.403,4.625,5.156,4.753,6,4.845z M3,15.23v-3
		c0.224,0.083,0.477,0.162,0.762,0.235c0.64,0.16,1.393,0.289,2.238,0.38v3c-0.844-0.092-1.597-0.22-2.238-0.38
		C3.477,15.392,3.224,15.312,3,15.23z M8.953,16C8.28,16,7.632,15.97,7,15.927v-3C7.632,12.97,8.28,13,8.953,13h0.062
		c0.683,0,1.342-0.032,1.985-0.079v3C10.356,15.968,9.698,16,9.015,16H8.953z M12,15.835v-3c0.855-0.095,1.615-0.226,2.252-0.395
		c0.279-0.073,0.527-0.152,0.748-0.235v3c-0.221,0.083-0.469,0.162-0.748,0.235C13.615,15.609,12.855,15.74,12,15.835z"/>
</g>
</svg>
