<?xml version="1.0" encoding="utf-8"?>
<svg version="1.1" id="img" xmlns="http://www.w3.org/2000/svg" xmlns:xlink="http://www.w3.org/1999/xlink" x="0px" y="0px"
	 width="18px" height="18px" viewBox="0 0 18 18" style="enable-background:new 0 0 18 18;" xml:space="preserve">
<g id="web-okb.default">
	<path style="fill:#71B1E4;" d="M14.708,7.731c0.095-0.369,0.162-0.749,0.162-1.147C14.871,4.052,12.818,2,10.287,2
		C8.229,2,6.508,3.365,5.929,5.232C5.56,4.884,5.064,4.666,4.517,4.666c-1.139,0-2.062,0.923-2.062,2.062
		c0,0.482,0.172,0.919,0.449,1.27C1.754,8.825,1,10.081,1,11.5C1,13.975,3.25,16,6,16h6c2.75,0,5-2.025,5-4.5
		C17,9.923,16.083,8.535,14.708,7.731z"/>
	<path style="fill:#FFFFFF;" d="M7.271,14.912c0.111-0.293-0.22-0.532-0.738-0.532c-0.515,0-1.027,0.239-1.136,0.532
		c-0.111,0.294,0.219,0.532,0.738,0.532C6.652,15.444,7.162,15.206,7.271,14.912z"/>
	<path style="fill:#FFFFFF;" d="M5.643,13.602c0.111-0.294-0.219-0.533-0.738-0.533c-0.519,0-1.028,0.239-1.139,0.533
		c-0.108,0.293,0.222,0.532,0.737,0.532C5.021,14.134,5.531,13.895,5.643,13.602z"/>
	<path style="fill:#FFFFFF;" d="M4.757,11.944c0.111-0.295-0.219-0.533-0.738-0.533c-0.515,0-1.027,0.238-1.136,0.533
		c-0.111,0.294,0.219,0.531,0.737,0.531C4.139,12.476,4.648,12.238,4.757,11.944z"/>
	<path style="fill:#FFFFFF;" d="M4.871,10.116c0.112-0.294-0.219-0.531-0.737-0.531c-0.517,0-1.028,0.237-1.137,0.531
		c-0.111,0.295,0.219,0.532,0.737,0.532C4.253,10.648,4.763,10.411,4.871,10.116z"/>
	<path style="fill:#FFFFFF;" d="M5.883,8.444C5.995,8.15,5.664,7.911,5.146,7.911c-0.519,0-1.028,0.239-1.139,0.533
		C3.898,8.738,4.228,8.977,4.744,8.977C5.263,8.977,5.772,8.738,5.883,8.444z"/>
	<path style="fill:#FFFFFF;" d="M7.689,6.991C7.8,6.697,7.47,6.459,6.951,6.459c-0.519,0-1.027,0.238-1.137,0.532
		C5.704,7.285,6.033,7.523,6.552,7.523C7.071,7.523,7.58,7.285,7.689,6.991z"/>
	<path style="fill:#FFFFFF;" d="M10.138,6.052c0.111-0.294-0.22-0.532-0.738-0.532c-0.519,0-1.027,0.238-1.139,0.532
		C8.151,6.346,8.481,6.584,9,6.584C9.518,6.584,10.029,6.346,10.138,6.052z"/>
	<path style="fill:#FFFFFF;" d="M13.028,5.681c0.112-0.294-0.219-0.533-0.737-0.533c-0.519,0-1.028,0.239-1.139,0.533
		c-0.111,0.293,0.219,0.532,0.737,0.532C12.408,6.213,12.918,5.974,13.028,5.681z"/>
	<path style="fill:#FFFFFF;" d="M8.536,13.539c0.075-0.2-0.15-0.36-0.5-0.36c-0.353,0-0.697,0.16-0.772,0.36
		c-0.075,0.199,0.15,0.36,0.5,0.36C8.116,13.899,8.46,13.738,8.536,13.539z"/>
	<path style="fill:#FFFFFF;" d="M7.431,12.649c0.075-0.199-0.15-0.36-0.5-0.36c-0.352,0-0.697,0.161-0.772,0.36
		c-0.075,0.199,0.15,0.361,0.5,0.361C7.011,13.011,7.355,12.849,7.431,12.649z"/>
	<path style="fill:#FFFFFF;" d="M6.832,11.525c0.075-0.198-0.149-0.36-0.501-0.36c-0.35,0-0.697,0.162-0.77,0.36
		c-0.075,0.199,0.147,0.362,0.5,0.362C6.412,11.888,6.756,11.725,6.832,11.525z"/>
	<path style="fill:#FFFFFF;" d="M6.909,10.287c0.075-0.2-0.149-0.361-0.502-0.361c-0.35,0-0.694,0.161-0.769,0.361
		c-0.076,0.199,0.147,0.36,0.499,0.36C6.489,10.648,6.834,10.486,6.909,10.287z"/>
	<path style="fill:#FFFFFF;" d="M7.595,9.153c0.075-0.2-0.15-0.361-0.502-0.361c-0.35,0-0.694,0.161-0.769,0.361
		c-0.076,0.198,0.147,0.36,0.499,0.36C7.175,9.514,7.52,9.352,7.595,9.153z"/>
	<path style="fill:#FFFFFF;" d="M8.819,8.168c0.075-0.2-0.148-0.36-0.5-0.36c-0.352,0-0.696,0.16-0.771,0.36
		c-0.075,0.2,0.149,0.361,0.501,0.361C8.398,8.529,8.743,8.368,8.819,8.168z"/>
	<path style="fill:#FFFFFF;" d="M10.479,7.531c0.075-0.2-0.149-0.361-0.5-0.361c-0.352,0-0.697,0.161-0.772,0.361
		c-0.074,0.198,0.15,0.359,0.5,0.359C10.059,7.891,10.404,7.729,10.479,7.531z"/>
	<path style="fill:#FFFFFF;" d="M12.441,7.278c0.073-0.2-0.15-0.361-0.502-0.361c-0.352,0-0.697,0.161-0.773,0.361
		c-0.075,0.2,0.15,0.36,0.502,0.36C12.019,7.639,12.366,7.478,12.441,7.278z"/>
	<path style="fill:#FFFFFF;" d="M9.577,12.486c0.048-0.124-0.092-0.225-0.313-0.225c-0.219,0-0.436,0.101-0.484,0.225
		c-0.045,0.126,0.095,0.227,0.314,0.227C9.312,12.713,9.529,12.612,9.577,12.486z"/>
	<path style="fill:#FFFFFF;" d="M8.886,11.931c0.045-0.124-0.095-0.225-0.314-0.225c-0.219,0-0.435,0.101-0.483,0.225
		c-0.047,0.125,0.093,0.226,0.314,0.226C8.623,12.156,8.838,12.056,8.886,11.931z"/>
	<path style="fill:#FFFFFF;" d="M8.51,11.227c0.047-0.125-0.092-0.226-0.313-0.226c-0.219,0-0.436,0.101-0.483,0.226
		c-0.045,0.125,0.095,0.227,0.313,0.227C8.246,11.454,8.462,11.352,8.51,11.227z"/>
	<path style="fill:#FFFFFF;" d="M8.559,10.453c0.047-0.125-0.095-0.226-0.314-0.226c-0.219,0-0.435,0.101-0.483,0.226
		c-0.047,0.124,0.093,0.226,0.314,0.226C8.295,10.679,8.511,10.577,8.559,10.453z"/>
	<path style="fill:#FFFFFF;" d="M8.988,9.743c0.045-0.125-0.095-0.227-0.313-0.227c-0.219,0-0.436,0.102-0.483,0.227
		C8.144,9.868,8.284,9.969,8.505,9.969C8.725,9.969,8.94,9.868,8.988,9.743z"/>
	<path style="fill:#FFFFFF;" d="M9.754,9.126C9.802,9.003,9.662,8.901,9.44,8.901c-0.219,0-0.435,0.102-0.483,0.225
		C8.912,9.251,9.052,9.352,9.271,9.352C9.49,9.352,9.707,9.251,9.754,9.126z"/>
	<path style="fill:#FFFFFF;" d="M10.793,8.729c0.045-0.125-0.095-0.227-0.314-0.227c-0.219,0-0.436,0.102-0.483,0.227
		c-0.047,0.125,0.093,0.226,0.314,0.226C10.529,8.954,10.745,8.854,10.793,8.729z"/>
	<path style="fill:#FFFFFF;" d="M12.019,8.57c0.047-0.124-0.093-0.226-0.312-0.226c-0.221,0-0.437,0.102-0.483,0.226
		c-0.047,0.124,0.093,0.226,0.312,0.226C11.757,8.796,11.973,8.694,12.019,8.57z"/>
</g>
</svg>
