<?xml version="1.0" encoding="utf-8"?>
<svg version="1.1" id="img" xmlns="http://www.w3.org/2000/svg" xmlns:xlink="http://www.w3.org/1999/xlink" x="0px" y="0px"
	 width="18px" height="18px" viewBox="0 0 18 18" style="enable-background:new 0 0 18 18;" xml:space="preserve">
<path id="web-okb-client.inverted" style="fill:#FFFFFF;" d="M16.99,14.103l-0.614-0.477C16.761,12.989,17,12.272,17,11.5
	c0-1.577-0.917-2.965-2.292-3.769c0.095-0.369,0.162-0.749,0.162-1.147C14.871,4.052,12.818,2,10.287,2
	C8.229,2,6.508,3.365,5.929,5.232C5.56,4.884,5.064,4.666,4.517,4.666c-1.139,0-2.062,0.923-2.062,2.062
	c0,0.482,0.172,0.919,0.449,1.269C1.754,8.825,1,10.081,1,11.5C1,13.975,3.25,16,6,16h6c0.342,0,0.677-0.032,1-0.091v1.063
	c0,0.418,0.481,0.654,0.811,0.397l3.178-2.472C17.249,14.696,17.249,14.304,16.99,14.103z M10.479,7.531
	c-0.075,0.198-0.42,0.359-0.772,0.359c-0.35,0-0.575-0.161-0.5-0.359c0.076-0.2,0.421-0.361,0.772-0.361
	C10.33,7.17,10.555,7.331,10.479,7.531z M8.261,6.052C8.372,5.758,8.881,5.52,9.399,5.52s0.85,0.238,0.738,0.532
	C10.029,6.346,9.518,6.584,9,6.584C8.481,6.584,8.151,6.346,8.261,6.052z M6.33,11.165c0.352,0,0.577,0.162,0.501,0.36
	c-0.075,0.199-0.42,0.362-0.772,0.362c-0.353,0-0.575-0.163-0.5-0.362C5.633,11.327,5.98,11.165,6.33,11.165z M5.638,10.287
	c0.075-0.2,0.419-0.361,0.769-0.361c0.353,0,0.577,0.161,0.502,0.361c-0.075,0.199-0.42,0.36-0.772,0.36
	C5.785,10.648,5.562,10.486,5.638,10.287z M6.159,12.649c0.076-0.199,0.42-0.36,0.772-0.36c0.35,0,0.574,0.161,0.5,0.36
	c-0.076,0.199-0.42,0.361-0.772,0.361C6.309,13.011,6.084,12.849,6.159,12.649z M6.822,9.514c-0.352,0-0.574-0.162-0.499-0.36
	c0.075-0.2,0.419-0.361,0.769-0.361c0.353,0,0.577,0.161,0.502,0.361C7.52,9.352,7.175,9.514,6.822,9.514z M7.547,8.168
	c0.075-0.2,0.42-0.36,0.771-0.36c0.353,0,0.575,0.16,0.5,0.36c-0.076,0.2-0.42,0.361-0.771,0.361
	C7.696,8.529,7.472,8.368,7.547,8.168z M8.245,10.227c0.219,0,0.361,0.102,0.314,0.227c-0.048,0.124-0.264,0.226-0.483,0.226
	c-0.222,0-0.361-0.102-0.314-0.226C7.81,10.328,8.026,10.227,8.245,10.227z M7.713,11.227c0.048-0.125,0.264-0.225,0.483-0.225
	c0.221,0,0.361,0.1,0.313,0.225c-0.048,0.125-0.264,0.227-0.483,0.227C7.808,11.454,7.668,11.352,7.713,11.227z M8.089,11.931
	c0.048-0.124,0.264-0.225,0.483-0.225s0.359,0.101,0.314,0.225c-0.048,0.125-0.264,0.226-0.482,0.226
	C8.182,12.156,8.042,12.056,8.089,11.931z M8.505,9.969c-0.221,0-0.361-0.101-0.314-0.226c0.048-0.125,0.264-0.227,0.483-0.227
	c0.219,0,0.359,0.102,0.313,0.227C8.94,9.868,8.725,9.969,8.505,9.969z M5.814,6.991c0.109-0.294,0.618-0.532,1.137-0.532
	S7.8,6.697,7.689,6.991C7.58,7.285,7.071,7.523,6.552,7.523C6.033,7.523,5.704,7.285,5.814,6.991z M4.007,8.444
	C4.118,8.15,4.627,7.911,5.146,7.911c0.518,0,0.849,0.239,0.737,0.533c-0.11,0.294-0.62,0.533-1.139,0.533
	C4.228,8.977,3.898,8.738,4.007,8.444z M2.998,10.116c0.109-0.294,0.62-0.531,1.137-0.531c0.518,0,0.849,0.237,0.737,0.531
	c-0.108,0.295-0.618,0.532-1.136,0.532S2.886,10.411,2.998,10.116z M2.883,11.944c0.109-0.295,0.621-0.533,1.136-0.533
	c0.519,0,0.85,0.238,0.738,0.533c-0.109,0.294-0.618,0.531-1.137,0.531S2.771,12.238,2.883,11.944z M3.766,13.602
	c0.111-0.294,0.621-0.533,1.139-0.533s0.849,0.239,0.738,0.533c-0.111,0.293-0.621,0.532-1.14,0.532
	C3.988,14.134,3.657,13.895,3.766,13.602z M7.271,14.912c-0.109,0.294-0.618,0.532-1.137,0.532s-0.849-0.238-0.738-0.532
	c0.109-0.293,0.621-0.532,1.136-0.532C7.051,14.38,7.382,14.619,7.271,14.912z M8.536,13.539c-0.076,0.199-0.42,0.36-0.772,0.36
	c-0.35,0-0.575-0.161-0.5-0.36c0.075-0.2,0.42-0.36,0.772-0.36C8.386,13.179,8.61,13.339,8.536,13.539z M9.577,12.486
	c-0.048,0.126-0.264,0.227-0.483,0.227c-0.219,0-0.359-0.101-0.314-0.227c0.048-0.124,0.265-0.225,0.484-0.225
	C9.484,12.262,9.625,12.362,9.577,12.486z M9.754,9.126C9.707,9.251,9.49,9.352,9.271,9.352c-0.219,0-0.36-0.102-0.314-0.227
	C9.005,9.003,9.221,8.901,9.44,8.901C9.662,8.901,9.802,9.003,9.754,9.126z M10.793,8.729c-0.048,0.125-0.264,0.226-0.483,0.226
	c-0.222,0-0.361-0.101-0.314-0.226c0.048-0.125,0.264-0.227,0.483-0.227C10.698,8.502,10.838,8.604,10.793,8.729z M12.019,8.57
	c-0.046,0.124-0.262,0.226-0.483,0.226c-0.219,0-0.359-0.102-0.312-0.226c0.046-0.124,0.262-0.226,0.483-0.226
	C11.926,8.345,12.065,8.446,12.019,8.57z M12.441,7.278c-0.075,0.2-0.422,0.36-0.773,0.36c-0.352,0-0.576-0.16-0.502-0.36
	c0.076-0.2,0.42-0.361,0.773-0.361C12.291,6.917,12.514,7.078,12.441,7.278z M13.028,5.681c-0.11,0.293-0.62,0.532-1.139,0.532
	c-0.518,0-0.849-0.239-0.737-0.532c0.111-0.294,0.621-0.533,1.139-0.533C12.81,5.148,13.14,5.387,13.028,5.681z M14,16v-3l2,1.5
	L14,16z"/>
</svg>
