<?xml version="1.0" encoding="utf-8"?>
<svg version="1.1" id="img" xmlns="http://www.w3.org/2000/svg" xmlns:xlink="http://www.w3.org/1999/xlink" x="0px" y="0px"
	 width="18px" height="18px" viewBox="0 0 18 18" style="enable-background:new 0 0 18 18;" xml:space="preserve">
<g id="web-rest-client.inverted">
	<path style="fill:#FFFFFF;" d="M10.493,14H10v-1h0.493C10.772,13,11,12.772,11,12.493v-0.576c0-0.402,0.156-0.78,0.44-1.065
		l0.439-0.351l-0.396-0.314C11.156,9.863,11,9.485,11,9.083V8.507C11,8.228,10.772,8,10.493,8H10V7h0.493
		C11.324,7,12,7.676,12,8.507v0.576c0,0.135,0.053,0.263,0.149,0.359l0.844,0.666v0.783l-0.887,0.705
		C12.053,11.654,12,11.782,12,11.917v0.576C12,13.324,11.324,14,10.493,14z"/>
	<path style="fill:#FFFFFF;" d="M7.507,14H8v-1H7.507C7.228,13,7,12.772,7,12.493v-0.576c0-0.402-0.156-0.78-0.44-1.065L6.12,10.501
		l0.396-0.314C6.844,9.863,7,9.485,7,9.083V8.507C7,8.228,7.228,8,7.507,8H8V7H7.507C6.676,7,6,7.676,6,8.507v0.576
		c0,0.135-0.053,0.263-0.149,0.359l-0.844,0.666v0.783l0.887,0.705C5.947,11.654,6,11.782,6,11.917v0.576
		C6,13.324,6.676,14,7.507,14z"/>
	<path style="fill:#FFFFFF;" d="M5.25,5.5c0.389,0,0.763,0.134,1.082,0.387C6.463,5.992,6.641,6.021,6.801,5.97
		c0.16-0.054,0.283-0.185,0.325-0.349C7.528,4.078,8.916,3,10.5,3C12.43,3,14,4.57,14,6.5c0,0.402-0.079,0.817-0.236,1.232
		c-0.092,0.242,0.017,0.515,0.25,0.627C15.239,8.951,16,10.154,16,11.5c0,0.18-0.027,0.353-0.053,0.525l0.869,0.677
		C16.924,12.317,17,11.919,17,11.5c0-1.585-0.819-3.017-2.164-3.831C14.945,7.278,15,6.887,15,6.5C15,4.019,12.981,2,10.5,2
		C8.683,2,7.066,3.101,6.371,4.745C6.02,4.583,5.641,4.5,5.25,4.5C3.733,4.5,2.5,5.733,2.5,7.25c0,0.27,0.041,0.536,0.123,0.796
		C1.6,8.898,1,10.162,1,11.5C1,13.981,3.019,16,5.5,16H12v-1H5.5C3.57,15,2,13.43,2,11.5c0-1.144,0.564-2.218,1.511-2.874
		C3.713,8.485,3.782,8.22,3.677,7.998C3.56,7.755,3.5,7.503,3.5,7.25C3.5,6.285,4.285,5.5,5.25,5.5z"/>
	<path style="fill:#FFFFFF;" d="M16.99,14.103l-3.178-2.472C13.481,11.374,13,11.61,13,12.028v4.944
		c0,0.418,0.481,0.654,0.811,0.397l3.178-2.472C17.249,14.696,17.249,14.304,16.99,14.103z M14,16v-3l2,1.5L14,16z"/>
</g>
</svg>
