<?xml version="1.0" encoding="utf-8"?>
<svg version="1.1" id="img" xmlns="http://www.w3.org/2000/svg" xmlns:xlink="http://www.w3.org/1999/xlink" x="0px" y="0px"
	 width="18px" height="18px" viewBox="0 0 18 18" style="enable-background:new 0 0 18 18;" xml:space="preserve">
<path id="web-okb.inverted" style="fill:#FFFFFF;" d="M17,11.5c0,2.475-2.25,4.5-5,4.5H6c-2.75,0-5-2.025-5-4.5
	c0-1.419,0.754-2.675,1.903-3.502C2.627,7.648,2.454,7.21,2.454,6.728c0-1.14,0.924-2.062,2.063-2.062
	c0.548,0,1.043,0.218,1.412,0.566C6.509,3.365,8.229,2,10.287,2c2.531,0,4.584,2.052,4.584,4.584c0,0.398-0.067,0.778-0.163,1.147
	C16.082,8.535,17,9.923,17,11.5z M7.271,14.912c0.111-0.293-0.22-0.532-0.738-0.532c-0.516,0-1.027,0.239-1.136,0.532
	c-0.111,0.294,0.219,0.532,0.737,0.532C6.652,15.444,7.161,15.206,7.271,14.912z M5.643,13.602c0.111-0.294-0.219-0.533-0.737-0.533
	c-0.519,0-1.028,0.239-1.14,0.533c-0.108,0.293,0.222,0.532,0.737,0.532C5.022,14.134,5.531,13.895,5.643,13.602z M4.757,11.944
	c0.111-0.295-0.22-0.533-0.738-0.533c-0.516,0-1.026,0.238-1.136,0.533c-0.111,0.294,0.219,0.531,0.737,0.531
	C4.139,12.476,4.648,12.238,4.757,11.944z M4.871,10.116c0.111-0.294-0.219-0.531-0.736-0.531c-0.518,0-1.028,0.237-1.138,0.531
	c-0.11,0.295,0.22,0.532,0.738,0.532C4.254,10.648,4.763,10.411,4.871,10.116z M5.883,8.444C5.995,8.15,5.664,7.911,5.147,7.911
	c-0.519,0-1.028,0.239-1.14,0.533C3.898,8.738,4.228,8.977,4.744,8.977C5.263,8.977,5.773,8.738,5.883,8.444z M7.688,6.991
	C7.8,6.697,7.47,6.459,6.951,6.459c-0.519,0-1.027,0.238-1.137,0.532C5.703,7.285,6.033,7.523,6.552,7.523
	C7.07,7.523,7.58,7.285,7.688,6.991z M10.138,6.052c0.111-0.294-0.22-0.532-0.738-0.532c-0.518,0-1.027,0.238-1.139,0.532
	C8.151,6.346,8.481,6.584,9,6.584C9.518,6.584,10.028,6.346,10.138,6.052z M13.028,5.681c0.111-0.294-0.219-0.533-0.737-0.533
	c-0.519,0-1.027,0.239-1.139,0.533c-0.111,0.293,0.219,0.532,0.737,0.532C12.408,6.213,12.918,5.974,13.028,5.681z M8.535,13.539
	c0.075-0.2-0.149-0.36-0.499-0.36c-0.353,0-0.697,0.16-0.772,0.36c-0.075,0.199,0.149,0.36,0.5,0.36
	C8.115,13.899,8.46,13.738,8.535,13.539z M7.432,12.649c0.074-0.199-0.15-0.36-0.5-0.36c-0.352,0-0.697,0.161-0.772,0.36
	c-0.075,0.199,0.149,0.361,0.5,0.361C7.011,13.011,7.356,12.849,7.432,12.649z M6.831,11.525c0.076-0.198-0.148-0.36-0.501-0.36
	c-0.35,0-0.697,0.162-0.771,0.36c-0.074,0.199,0.147,0.362,0.5,0.362C6.412,11.888,6.757,11.725,6.831,11.525z M6.909,10.287
	c0.075-0.2-0.149-0.361-0.502-0.361c-0.35,0-0.694,0.161-0.769,0.361c-0.075,0.199,0.148,0.36,0.499,0.36
	C6.489,10.648,6.834,10.486,6.909,10.287z M7.595,9.153c0.075-0.2-0.149-0.361-0.502-0.361c-0.35,0-0.694,0.161-0.77,0.361
	c-0.075,0.198,0.147,0.36,0.499,0.36C7.175,9.514,7.519,9.352,7.595,9.153z M8.818,8.168c0.075-0.2-0.148-0.36-0.5-0.36
	c-0.352,0-0.696,0.16-0.772,0.36c-0.075,0.2,0.149,0.361,0.501,0.361C8.398,8.529,8.743,8.368,8.818,8.168z M10.479,7.531
	c0.075-0.2-0.149-0.361-0.5-0.361c-0.352,0-0.696,0.161-0.773,0.361c-0.074,0.198,0.15,0.359,0.5,0.359
	C10.059,7.891,10.404,7.729,10.479,7.531z M12.44,7.278c0.073-0.2-0.149-0.361-0.501-0.361c-0.353,0-0.697,0.161-0.773,0.361
	c-0.075,0.2,0.149,0.36,0.501,0.36C12.019,7.639,12.365,7.478,12.44,7.278z M9.576,12.486c0.048-0.124-0.092-0.225-0.313-0.225
	c-0.219,0-0.436,0.101-0.483,0.225c-0.045,0.126,0.096,0.227,0.314,0.227C9.312,12.713,9.529,12.612,9.576,12.486z M8.886,11.931
	c0.046-0.124-0.095-0.225-0.313-0.225c-0.22,0-0.436,0.101-0.483,0.225c-0.048,0.125,0.092,0.226,0.314,0.226
	C8.623,12.156,8.839,12.056,8.886,11.931z M8.51,11.227c0.048-0.125-0.092-0.226-0.314-0.226c-0.219,0-0.436,0.101-0.483,0.226
	c-0.045,0.125,0.096,0.227,0.313,0.227C8.246,11.454,8.462,11.352,8.51,11.227z M8.56,10.453c0.047-0.125-0.096-0.226-0.314-0.226
	c-0.219,0-0.435,0.101-0.483,0.226c-0.047,0.124,0.093,0.226,0.314,0.226C8.295,10.679,8.511,10.577,8.56,10.453z M8.988,9.743
	c0.046-0.125-0.095-0.227-0.314-0.227c-0.219,0-0.436,0.102-0.483,0.227C8.144,9.868,8.284,9.969,8.505,9.969
	C8.725,9.969,8.94,9.868,8.988,9.743z M9.754,9.126C9.802,9.003,9.662,8.901,9.44,8.901c-0.219,0-0.436,0.102-0.483,0.225
	C8.911,9.251,9.053,9.352,9.271,9.352C9.49,9.352,9.707,9.251,9.754,9.126z M10.793,8.729c0.046-0.125-0.095-0.227-0.314-0.227
	c-0.219,0-0.436,0.102-0.483,0.227c-0.047,0.125,0.093,0.226,0.314,0.226C10.529,8.954,10.745,8.854,10.793,8.729z M12.019,8.57
	c0.047-0.124-0.093-0.226-0.312-0.226c-0.221,0-0.437,0.102-0.483,0.226c-0.048,0.124,0.093,0.226,0.312,0.226
	C11.757,8.796,11.973,8.694,12.019,8.57z"/>
</svg>
