<?xml version="1.0" encoding="utf-8"?>
<svg version="1.1" id="img" xmlns="http://www.w3.org/2000/svg" xmlns:xlink="http://www.w3.org/1999/xlink" x="0px" y="0px"
	 width="18px" height="18px" viewBox="0 0 18 18" style="enable-background:new 0 0 18 18;" xml:space="preserve">
<path id="wh-firebird.inverted" style="fill:#FFFFFF;" d="M4.545,2L1.994,4H2v12h12v-0.01l2-2V2H4.545z M6.028,14.596
	C4.246,13.83,3,12.062,3,10.005c0-2.612,2.019-4.784,4.632-4.978c-2.993,0.59-5.86,4.041-2.51,7.806
	c0.094,0.754,0.504,1.32,1.131,1.878L6.028,14.596z M8.115,14.999c-0.255,0.008-0.51-0.041-0.756-0.124
	c-0.575-0.19-1.088-0.562-1.335-0.818c-0.439-0.47-0.727-1.218-0.818-2.293c0-0.005-0.002-0.012-0.002-0.018l0.007-0.364
	c0.087-0.856,0.673-1.45,1.761-1.776c0.248-0.115,0.415-0.234,0.498-0.358c0.084-0.123,0.086-0.247,0.007-0.372
	C7.445,8.823,7.393,8.765,7.33,8.708c-0.06-0.061-0.184-0.122-0.376-0.183c-0.438-0.022-0.677,0.083-0.72,0.316
	C5.495,8.496,5.48,8.117,6.19,7.711c0.14-0.05,0.34-0.065,0.606-0.049c-0.099-0.488,0.09-0.67,0.572-0.547
	c0.05,0.02,0.097,0.039,0.145,0.06c1.438,0.58,2.11,0.656,2.019,0.224c0.118,0.358,0.004,0.519-0.339,0.475
	c-0.399-0.068-0.646-0.047-0.745,0.07c0.708,0.368,1.082,0.719,1.125,1.053c0.057,0.564-0.222,1.174-0.835,1.839
	c-0.387,0.462-0.201,0.964,0.407,1.056c1.896-0.055,2.844-1.196,2.841-3.423C11.792,6.852,10.57,5.696,8.32,5
	c2.668,0.171,4.732,2.414,4.679,5.082C12.944,12.84,10.823,14.931,8.115,14.999z M13.293,4H3.615l1.276-1h9.402L13.293,4z
	 M15,13.576l-1,1V4.707l1-1V13.576z"/>
</svg>
