<?xml version="1.0" encoding="utf-8"?>
<svg version="1.1" id="img" xmlns="http://www.w3.org/2000/svg" xmlns:xlink="http://www.w3.org/1999/xlink" x="0px" y="0px"
	 width="18px" height="18px" viewBox="0 0 18 18" style="enable-background:new 0 0 18 18;" xml:space="preserve">
<g id="wh-firebird.default">
	<rect x="2" y="4" style="fill:#EA5400;" width="12" height="12"/>
	<polygon style="fill:#FFC785;" points="5,2 2,4 14,4 16,2 	"/>
	<polygon style="fill:#F79E36;" points="16,14 14,16 14,4 16,2 	"/>
	<path style="fill-rule:evenodd;clip-rule:evenodd;fill:#FFFFFF;" d="M3,10.005c0-2.612,2.019-4.784,4.632-4.978
		c-2.993,0.59-5.86,4.041-2.51,7.806c0.094,0.754,0.504,1.32,1.131,1.878l-0.226-0.114C4.246,13.83,3,12.062,3,10.005"/>
	<path style="fill-rule:evenodd;clip-rule:evenodd;fill:#FFFFFF;" d="M8.32,5c2.25,0.696,3.471,1.852,3.664,3.47
		c0.003,2.226-0.944,3.368-2.841,3.423c-0.608-0.092-0.794-0.594-0.407-1.056C9.35,10.17,9.629,9.561,9.572,8.997
		C9.529,8.662,9.155,8.312,8.447,7.944c0.099-0.117,0.346-0.138,0.745-0.07c0.343,0.044,0.457-0.117,0.339-0.475
		C9.623,7.832,8.95,7.755,7.512,7.175c-0.048-0.021-0.095-0.04-0.145-0.06c-0.482-0.123-0.671,0.06-0.572,0.547
		C6.529,7.646,6.329,7.662,6.189,7.711C5.48,8.117,5.495,8.496,6.234,8.842c0.043-0.233,0.283-0.339,0.72-0.316
		C7.147,8.587,7.271,8.648,7.33,8.708c0.063,0.057,0.115,0.114,0.148,0.169c0.079,0.125,0.076,0.249-0.007,0.372
		c-0.083,0.123-0.25,0.243-0.498,0.358c-1.088,0.325-1.674,0.919-1.761,1.776l-0.007,0.364c0,0.006,0.002,0.013,0.002,0.018
		c0.091,1.075,0.378,1.823,0.817,2.293c0.248,0.256,0.76,0.628,1.335,0.818c0.246,0.084,0.501,0.132,0.756,0.124
		c2.708-0.068,4.829-2.159,4.884-4.917C13.052,7.414,10.989,5.171,8.32,5z"/>
</g>
</svg>
