<?xml version="1.0" encoding="utf-8"?>
<!DOCTYPE svg PUBLIC "-//W3C//DTD SVG 1.1//EN" "http://www.w3.org/Graphics/SVG/1.1/DTD/svg11.dtd" [
	<!ENTITY st0 "fill:#FFFFFF;">
	<!ENTITY st1 "fill:#8C8C8C;">
	<!ENTITY st2 "fill:#636F80;">
	<!ENTITY st3 "opacity:0.5;fill:#FFFFFF;">
	<!ENTITY st4 "opacity:0.5;fill:#8C8C8C;">
	<!ENTITY st5 "opacity:0.49;">
	<!ENTITY st6 "fill:#808080;">
]>
<svg version="1.1" id="img" xmlns="http://www.w3.org/2000/svg" xmlns:xlink="http://www.w3.org/1999/xlink" x="0px" y="0px"
	 width="18px" height="18px" viewBox="0 0 18 18" style="enable-background:new 0 0 18 18;" xml:space="preserve">
<path id="cluster-center.default" style="&st2;" d="M16.5,15c-1.491,0-2.14-2.833-2.767-5.573C12.936,5.945,12.032,2,9,2
	C5.938,2,5.04,5.957,4.247,9.449C3.627,12.178,2.986,15,1.5,15H1v1h16v-1H16.5z M3.373,15c0.899-1.166,1.366-3.206,1.848-5.329
	C5.967,6.391,6.737,3,9,3c2.235,0,3.009,3.381,3.758,6.65c0.488,2.132,0.962,4.18,1.866,5.35H3.373z M10,11c0,0.552-0.448,1-1,1
	s-1-0.448-1-1c0-0.552,0.448-1,1-1S10,10.448,10,11z"/>
</svg>
