<?xml version="1.0" encoding="utf-8"?>
<!DOCTYPE svg PUBLIC "-//W3C//DTD SVG 1.1//EN" "http://www.w3.org/Graphics/SVG/1.1/DTD/svg11.dtd" [
	<!ENTITY st0 "fill:#FFFFFF;">
	<!ENTITY st1 "fill:#8C8C8C;">
	<!ENTITY st2 "fill:#636F80;">
	<!ENTITY st3 "opacity:0.5;fill:#FFFFFF;">
	<!ENTITY st4 "opacity:0.5;fill:#8C8C8C;">
	<!ENTITY st5 "opacity:0.49;">
	<!ENTITY st6 "fill:#808080;">
]>
<svg version="1.1" id="img" xmlns="http://www.w3.org/2000/svg" xmlns:xlink="http://www.w3.org/1999/xlink" x="0px" y="0px"
	 width="18px" height="18px" viewBox="0 0 18 18" style="enable-background:new 0 0 18 18;" xml:space="preserve">
<g id="heatmap.default">
	<path style="&st2;" d="M1,3v11h16V3H1z M11,4v4H7V4H11z M2,13V9h4v4H2z M7,13V9h4v4H7z M16,8h-4V4h4V8z"/>
	<g style="&st5;">
		<rect x="12.5" y="4.5" style="&st2;" width="3" height="3"/>
		<path style="&st2;" d="M15,5v2h-2V5H15 M16,4h-4v4h4V4L16,4z"/>
	</g>
	<g style="&st5;">
		<rect x="7.5" y="9.5" style="&st2;" width="3" height="3"/>
		<path style="&st2;" d="M10,10v2H8v-2H10 M11,9H7v4h4V9L11,9z"/>
	</g>
</g>
</svg>
