<?xml version="1.0" encoding="utf-8"?>
<!DOCTYPE svg PUBLIC "-//W3C//DTD SVG 1.1//EN" "http://www.w3.org/Graphics/SVG/1.1/DTD/svg11.dtd" [
	<!ENTITY st0 "fill:#FFFFFF;">
	<!ENTITY st1 "fill:#808080;">
	<!ENTITY st2 "fill:#BFBFBF;">
	<!ENTITY st3 "fill:#71B1E4;">
	<!ENTITY st4 "fill:#F7931E;">
	<!ENTITY st5 "fill:#D9D9D9;">
]>
<svg version="1.1" id="img" xmlns="http://www.w3.org/2000/svg" xmlns:xlink="http://www.w3.org/1999/xlink" x="0px" y="0px"
	 width="18px" height="18px" viewBox="0 0 18 18" style="enable-background:new 0 0 18 18;" xml:space="preserve">
<g id="replace-by.default">
	<polygon style="&st4;" points="6,9 3,6 3,8 0,8 0,10 3,10 3,12 	"/>
	<path style="&st4;" d="M13.367,7.805C13.755,7.301,14,6.683,14,6c0-1.654-1.346-3-3-3H7v12h4c2.206,0,4-1.794,4-4
		C15,9.685,14.352,8.531,13.367,7.805z M9,5h2c0.551,0,1,0.448,1,1s-0.449,1-1,1H9V5z M11,13H9V9h2c1.103,0,2,0.897,2,2
		S12.103,13,11,13z"/>
</g>
</svg>
