<?xml version="1.0" encoding="utf-8"?>
<!DOCTYPE svg PUBLIC "-//W3C//DTD SVG 1.1//EN" "http://www.w3.org/Graphics/SVG/1.1/DTD/svg11.dtd" [
	<!ENTITY st0 "fill:#FFFFFF;">
	<!ENTITY st1 "fill:#808080;">
	<!ENTITY st2 "fill:#BFBFBF;">
	<!ENTITY st3 "fill:#71B1E4;">
	<!ENTITY st4 "fill:#F7931E;">
	<!ENTITY st5 "fill:#D9D9D9;">
]>
<svg version="1.1" id="img" xmlns="http://www.w3.org/2000/svg" xmlns:xlink="http://www.w3.org/1999/xlink" x="0px" y="0px"
	 width="18px" height="18px" viewBox="0 0 18 18" style="enable-background:new 0 0 18 18;" xml:space="preserve">
<g id="unspecified.default">
	<path style="&st3;" d="M10.59,14.227C9.637,15.409,8.805,16,8.096,16c-0.731,0-1.097-0.288-1.097-0.865
		c0-0.251,0.229-1.241,0.687-2.971c0.554-2.128,0.832-3.292,0.832-3.491c0-0.214-0.133-0.321-0.399-0.321
		c-0.222,0-0.61,0.341-1.164,1.02C6.94,9.394,6.917,9.404,6.888,9.404c-0.075,0-0.154-0.047-0.238-0.144
		C6.564,9.164,6.522,9.075,6.522,8.994c0-0.036,0.008-0.063,0.022-0.077C7.512,7.72,8.348,7.121,9.049,7.121
		c0.724,0,1.086,0.303,1.086,0.909c0,0.354-0.222,1.341-0.665,2.959c-0.554,2.062-0.831,3.218-0.831,3.47
		c0,0.214,0.125,0.321,0.377,0.321c0.213,0,0.609-0.332,1.186-0.997c0.015-0.023,0.034-0.033,0.056-0.033
		c0.066,0,0.143,0.047,0.228,0.144c0.084,0.097,0.126,0.181,0.126,0.255C10.612,14.186,10.604,14.212,10.59,14.227z"/>
	<path style="&st4;" d="M11,3.065c0,0.34-0.146,0.655-0.439,0.948c-0.291,0.291-0.6,0.437-0.925,0.437
		c-0.355,0-0.645-0.102-0.871-0.31C8.541,3.932,8.428,3.663,8.428,3.33c0-0.324,0.147-0.629,0.443-0.909
		C9.168,2.141,9.474,2,9.792,2C10.598,2,11,2.355,11,3.065z"/>
</g>
</svg>
