<?xml version="1.0" encoding="utf-8"?>
<!DOCTYPE svg PUBLIC "-//W3C//DTD SVG 1.1//EN" "http://www.w3.org/Graphics/SVG/1.1/DTD/svg11.dtd" [
	<!ENTITY st0 "fill:#FFFFFF;">
	<!ENTITY st1 "fill:#808080;">
	<!ENTITY st2 "fill:#BFBFBF;">
	<!ENTITY st3 "fill:#71B1E4;">
	<!ENTITY st4 "fill:#F7931E;">
	<!ENTITY st5 "fill:#D9D9D9;">
]>
<svg version="1.1" id="img" xmlns="http://www.w3.org/2000/svg" xmlns:xlink="http://www.w3.org/1999/xlink" x="0px" y="0px"
	 width="18px" height="18px" viewBox="0 0 18 18" style="enable-background:new 0 0 18 18;" xml:space="preserve">
<path id="unused.default" style="&st3;" d="M16,14.973h-0.821c-5.211-2.178-4.68-5.748-4.117-7.34l3.791-3.783l-0.707-0.705
	l-3.867,3.858C6.656,7.974,4.405,7.048,3,4.008V2H2v12.973v0.998h1h11.969c0.023,0.01,0.042,0.019,0.065,0.029l0.012-0.029H16
	V14.973z M7.809,8.368c0.381,0,0.784-0.038,1.196-0.093L7.303,9.974C5.185,10.729,3.843,10.292,3,8.557v-2.58
	C4.181,7.57,5.77,8.368,7.809,8.368z M6.633,12.053c0.006,0.963,0.369,1.991,1.42,2.92H3.707L6.633,12.053z M3,14.268v-3.963
	c0.674,0.682,1.516,1.028,2.525,1.028c0.143,0,0.291-0.012,0.44-0.025L3,14.268z M9.767,14.973l0.006-0.012
	c-1.906-1.052-2.514-2.366-1.925-4.118c0.014-0.006,0.027-0.009,0.042-0.015l-0.008-0.022l1.878-1.875
	c-0.175,1.736,0.256,4.168,3.228,6.041H9.767z"/>
</svg>
