<?xml version="1.0" encoding="utf-8"?>
<!DOCTYPE svg PUBLIC "-//W3C//DTD SVG 1.1//EN" "http://www.w3.org/Graphics/SVG/1.1/DTD/svg11.dtd" [
	<!ENTITY st0 "fill:#FFFFFF;">
	<!ENTITY st1 "fill:#808080;">
	<!ENTITY st2 "fill:#BFBFBF;">
	<!ENTITY st3 "fill:#71B1E4;">
	<!ENTITY st4 "fill:#F7931E;">
	<!ENTITY st5 "fill:#D9D9D9;">
]>
<svg version="1.1" id="img" xmlns="http://www.w3.org/2000/svg" xmlns:xlink="http://www.w3.org/1999/xlink" x="0px" y="0px"
	 width="18px" height="18px" viewBox="0 0 18 18" style="enable-background:new 0 0 18 18;" xml:space="preserve">
<g id="useless.default">
	
		<rect x="8.5" y="4.757" transform="matrix(0.7071 0.7072 -0.7072 0.7071 9.0009 -3.7279)" style="&st4;" width="1" height="8.485"/>
	
		<rect x="8.5" y="4.757" transform="matrix(-0.7071 0.7072 -0.7072 -0.7071 21.7279 8.9991)" style="&st4;" width="1" height="8.485"/>
	<path style="&st3;" d="M9,4c2.757,0,5,2.243,5,5s-2.243,5-5,5c-2.757,0-5-2.243-5-5S6.243,4,9,4 M9,3C5.686,3,3,5.686,3,9
		s2.686,6,6,6c3.314,0,6-2.686,6-6S12.314,3,9,3L9,3z"/>
</g>
</svg>
