<?xml version="1.0" encoding="utf-8"?>
<!DOCTYPE svg PUBLIC "-//W3C//DTD SVG 1.1//EN" "http://www.w3.org/Graphics/SVG/1.1/DTD/svg11.dtd" [
	<!ENTITY st0 "fill:#FFFFFF;">
	<!ENTITY st1 "fill:#BFBFBF;">
	<!ENTITY st2 "fill:#8C8C8C;">
	<!ENTITY st3 "fill:#71B1E4;">
	<!ENTITY st4 "fill:#F7931E;">
	<!ENTITY st5 "fill:#3E7FAA;">
]>
<svg version="1.1" id="img" xmlns="http://www.w3.org/2000/svg" xmlns:xlink="http://www.w3.org/1999/xlink" x="0px" y="0px"
	 width="18px" height="18px" viewBox="0 0 18 18" style="enable-background:new 0 0 18 18;" xml:space="preserve">
<g id="home-folder.default">
	<path style="&st4;" d="M8.633,4.702L6.721,2.298C6.53,2.107,6.271,2,6,2H2.02C1.457,2,1,2.457,1,3.02V5h8.354
		C9.084,5,8.824,4.893,8.633,4.702z"/>
	<path style="&st3;" d="M16,16H2c-0.552,0-1-0.448-1-1V5h15c0.552,0,1,0.448,1,1v9C17,15.552,16.552,16,16,16z"/>
	<polygon style="&st5;" points="12,10 12,8 11,8 11,9 9,7 5,11 5.687,11.686 6,11.373 6,14 8,14 8,12 10,12 10,14 12,14 12,11.373 
		12.314,11.686 13,11 	"/>
</g>
</svg>
