<?xml version="1.0" encoding="utf-8"?>
<!DOCTYPE svg PUBLIC "-//W3C//DTD SVG 1.1//EN" "http://www.w3.org/Graphics/SVG/1.1/DTD/svg11.dtd" [
	<!ENTITY st0 "fill:#FFFFFF;">
	<!ENTITY st1 "fill:#BFBFBF;">
	<!ENTITY st2 "fill:#8C8C8C;">
	<!ENTITY st3 "fill:#71B1E4;">
	<!ENTITY st4 "fill:#F7931E;">
	<!ENTITY st5 "fill:#3E7FAA;">
]>
<svg version="1.1" id="img" xmlns="http://www.w3.org/2000/svg" xmlns:xlink="http://www.w3.org/1999/xlink" x="0px" y="0px"
	 width="18px" height="18px" viewBox="0 0 18 18" style="enable-background:new 0 0 18 18;" xml:space="preserve">
<g id="lock.default">
	<path style="&st3;" d="M14,17H4c-0.552,0-1-0.448-1-1V9c0-0.552,0.448-1,1-1h10c0.552,0,1,0.448,1,1v7C15,16.552,14.552,17,14,17z"
		/>
	<path style="&st4;" d="M6,8V6c0-1.654,1.346-3,3-3s3,1.346,3,3v2h2V6c0-2.757-2.243-5-5-5S4,3.243,4,6v2H6z"/>
</g>
</svg>
