<?xml version="1.0" encoding="utf-8"?>
<!DOCTYPE svg PUBLIC "-//W3C//DTD SVG 1.1//EN" "http://www.w3.org/Graphics/SVG/1.1/DTD/svg11.dtd" [
	<!ENTITY st0 "fill:#FFFFFF;">
	<!ENTITY st1 "fill:#8C8C8C;">
	<!ENTITY st2 "fill:#636F80;">
	<!ENTITY st3 "opacity:0.5;fill:#FFFFFF;">
	<!ENTITY st4 "opacity:0.5;fill:#8C8C8C;">
	<!ENTITY st5 "opacity:0.49;">
	<!ENTITY st6 "fill:#808080;">
]>
<svg version="1.1" id="img" xmlns="http://www.w3.org/2000/svg" xmlns:xlink="http://www.w3.org/1999/xlink" x="0px" y="0px"
	 width="18px" height="18px" viewBox="0 0 18 18" style="enable-background:new 0 0 18 18;" xml:space="preserve">
<path id="typical-value.default" style="&st2;" d="M16.5,15c-1.49,0-2.137-2.831-2.763-5.568C12.94,5.948,12.038,2,9,2
	S5.06,5.948,4.263,9.432C3.637,12.169,2.99,15,1.5,15H1v1h16v-1H16.5z M3.376,15c0.903-1.169,1.375-3.216,1.862-5.346
	C5.861,6.927,6.506,4.13,8,3.272V15H3.376z M10,3.272c1.494,0.858,2.139,3.655,2.762,6.382c0.487,2.13,0.959,4.177,1.862,5.346H10
	V3.272z"/>
</svg>
