<?xml version="1.0" encoding="utf-8"?>
<!DOCTYPE svg PUBLIC "-//W3C//DTD SVG 1.1//EN" "http://www.w3.org/Graphics/SVG/1.1/DTD/svg11.dtd" [
	<!ENTITY st0 "fill:#FFFFFF;">
	<!ENTITY st1 "fill:#BFBFBF;">
	<!ENTITY st2 "fill:#8C8C8C;">
	<!ENTITY st3 "fill:#71B1E4;">
	<!ENTITY st4 "fill:#F7931E;">
	<!ENTITY st5 "fill:#3E7FAA;">
]>
<svg version="1.1" id="img" xmlns="http://www.w3.org/2000/svg" xmlns:xlink="http://www.w3.org/1999/xlink" x="0px" y="0px"
	 width="18px" height="18px" viewBox="0 0 18 18" style="enable-background:new 0 0 18 18;" xml:space="preserve">
<g id="add-folder.default">
	<path style="&st4;" d="M8.633,4.702L6.721,2.298C6.53,2.107,6.271,2,6,2H2.02C1.457,2,1,2.457,1,3.02V5h8.354
		C9.084,5,8.824,4.893,8.633,4.702z"/>
	<path style="&st3;" d="M16,5H1v10c0,0.552,0.448,1,1,1h10v-1h-2v-3h2v-2h3v2h2V6C17,5.448,16.552,5,16,5z"/>
	<rect x="13" y="11" style="&st4;" width="1" height="5"/>
	<rect x="11" y="13" style="&st4;" width="5" height="1"/>
</g>
</svg>
