<?xml version="1.0" encoding="utf-8"?>
<!DOCTYPE svg PUBLIC "-//W3C//DTD SVG 1.1//EN" "http://www.w3.org/Graphics/SVG/1.1/DTD/svg11.dtd" [
	<!ENTITY st0 "fill:#FFFFFF;">
	<!ENTITY st1 "fill:#BFBFBF;">
	<!ENTITY st2 "fill:#8C8C8C;">
	<!ENTITY st3 "fill:#71B1E4;">
	<!ENTITY st4 "fill:#F7931E;">
	<!ENTITY st5 "fill:#3E7FAA;">
]>
<svg version="1.1" id="img" xmlns="http://www.w3.org/2000/svg" xmlns:xlink="http://www.w3.org/1999/xlink" x="0px" y="0px"
	 width="18px" height="18px" viewBox="0 0 18 18" style="enable-background:new 0 0 18 18;" xml:space="preserve">
<g id="close-all-file.default">
	<polygon style="&st4;" points="9,10.737 8.263,10 5.5,12.763 2.736,10.009 2.001,10.748 4.762,13.501 2,16.263 2.737,17 
		5.5,14.237 8.264,16.991 8.999,16.252 6.238,13.499 	"/>
	<polygon style="&st4;" points="11,6 14,6 11,3 	"/>
	<polygon style="&st4;" points="13,4 16,4 13,1 	"/>
	<path style="&st3;" d="M2,9V3h9v1H3v5H2z M13,6v10h-3v1h4V6H13z"/>
	<path style="&st3;" d="M5,1h8v1H5 M16,14V4h-1v10"/>
</g>
</svg>
