<?xml version="1.0" encoding="utf-8"?>
<!DOCTYPE svg PUBLIC "-//W3C//DTD SVG 1.1//EN" "http://www.w3.org/Graphics/SVG/1.1/DTD/svg11.dtd" [
	<!ENTITY st0 "fill:#FFFFFF;">
	<!ENTITY st1 "fill:#BFBFBF;">
	<!ENTITY st2 "fill:#8C8C8C;">
	<!ENTITY st3 "fill:#71B1E4;">
	<!ENTITY st4 "fill:#F7931E;">
	<!ENTITY st5 "fill:#3E7FAA;">
]>
<svg version="1.1" id="img" xmlns="http://www.w3.org/2000/svg" xmlns:xlink="http://www.w3.org/1999/xlink" x="0px" y="0px"
	 width="18px" height="18px" viewBox="0 0 18 18" style="enable-background:new 0 0 18 18;" xml:space="preserve">
<g id="new-file.default">
	<rect x="5" y="6" style="&st4;" width="2" height="3"/>
	<rect x="8" y="10" style="&st4;" width="2" height="3"/>
	<rect x="11" y="10" style="&st4;" width="2" height="3"/>
	<rect x="8" y="6" style="&st4;" width="2" height="3"/>
	<rect x="11" y="6" style="&st4;" width="2" height="3"/>
	<polygon style="&st4;" points="12,5 15,5 12,2 	"/>
	<path style="&st3;" d="M15,5v11H7v-1h7V5H15z M4,10V3h8V2H3v8H4z"/>
	<polygon style="&st4;" points="7,13 5,13 5,11 4,11 4,13 2,13 2,14 4,14 4,16 5,16 5,14 7,14 	"/>
</g>
</svg>
