<?xml version="1.0" encoding="utf-8"?>
<!-- Generator: Adobe Illustrator 18.1.0, SVG Export Plug-In . SVG Version: 6.00 Build 0)  -->
<svg version="1.1" id="Layer_5" xmlns="http://www.w3.org/2000/svg" xmlns:xlink="http://www.w3.org/1999/xlink" x="0px" y="0px"
	 width="18px" height="18px" viewBox="0 0 18 18" enable-background="new 0 0 18 18" xml:space="preserve">
<path fill="#F7931E" d="M9,3.1470947L15.8742676,15H2.1257324L9,3.1470947 M9,2
	C8.7141113,2,8.4282227,2.1398926,8.2658691,2.4196777L1.1125488,14.7536621C0.7905273,15.309082,1.1975098,16,1.8466797,16
	h14.3066406c0.6491699,0,1.0561523-0.690918,0.7341309-1.2463379L9.7341309,2.4196777C9.5717773,2.1398926,9.2858887,2,9,2L9,2z"/>
<path fill="#F7931E" d="M9.625,11h-1.25L8.0512505,7.5466704C8.0237541,7.2533798,8.2544909,7,8.5490675,7h0.901865
	c0.2945766,0,0.5253134,0.2533798,0.497817,0.5466704L9.625,11z"/>
<path fill="#F7931E" d="M9.5,14h-1C8.2238579,14,8,13.7761421,8,13.5v-1C8,12.2238579,8.2238579,12,8.5,12h1
	c0.2761421,0,0.5,0.2238579,0.5,0.5v1C10,13.7761421,9.7761421,14,9.5,14z"/>
</svg>
