<?xml version="1.0" encoding="utf-8"?>
<!DOCTYPE svg PUBLIC "-//W3C//DTD SVG 1.1//EN" "http://www.w3.org/Graphics/SVG/1.1/DTD/svg11.dtd" [
	<!ENTITY st0 "fill:#FFFFFF;">
	<!ENTITY st1 "fill:#808080;">
	<!ENTITY st2 "fill:#636F80;">
]>
<svg version="1.1" id="img" xmlns="http://www.w3.org/2000/svg" xmlns:xlink="http://www.w3.org/1999/xlink" x="0px" y="0px"
	 width="18px" height="18px" viewBox="0 0 18 18" style="enable-background:new 0 0 18 18;" xml:space="preserve">
<g id="expression.default">
	<path style="&st2;" d="M9.245,6.165C8.991,6.47,8.789,6.752,8.639,7.012c-0.27,0.458-0.49,0.992-0.658,1.602
		c-0.15,0.543-0.256,1.061-0.317,1.554c-0.061,0.493-0.092,0.902-0.092,1.229c0,0.513,0.025,0.933,0.074,1.26
		c0.05,0.328,0.155,0.757,0.316,1.288L7.82,14c-0.287-0.556-0.495-1.116-0.625-1.682C7.065,11.752,7,11.188,7,10.627
		C7,9.883,7.109,9.223,7.325,8.65C7.65,7.793,8.255,6.917,9.141,6.023L9.245,6.165z"/>
	<path style="&st2;" d="M14.76,13.847c0.278-0.341,0.49-0.636,0.637-0.886c0.251-0.438,0.458-0.958,0.621-1.557
		c0.142-0.511,0.246-1.009,0.313-1.493c0.066-0.484,0.1-0.947,0.1-1.388c0-0.539-0.039-1.014-0.118-1.425
		c-0.079-0.411-0.173-0.747-0.283-1.009l0.152-0.055c0.254,0.469,0.453,0.996,0.599,1.583C16.926,8.203,17,8.796,17,9.395
		c0,0.678-0.09,1.281-0.269,1.808c-0.324,0.956-0.946,1.884-1.868,2.785L14.76,13.847z"/>
	<path style="&st2;" d="M12.515,8.749c0.467-0.634,0.842-1.079,1.127-1.335c0.285-0.256,0.562-0.384,0.832-0.384
		c0.323,0,0.547,0.111,0.669,0.332c0.066,0.115,0.098,0.254,0.098,0.418c0,0.168-0.068,0.321-0.203,0.461
		c-0.135,0.139-0.3,0.209-0.492,0.209c-0.119,0-0.253-0.045-0.402-0.135s-0.263-0.135-0.342-0.135c-0.151,0-0.296,0.078-0.433,0.233
		c-0.137,0.156-0.374,0.485-0.71,0.988l0.117,0.614c0.061,0.316,0.114,0.575,0.155,0.777c0.041,0.203,0.086,0.39,0.135,0.562
		c0.066,0.238,0.131,0.41,0.197,0.516s0.162,0.16,0.29,0.16c0.115,0,0.254-0.084,0.418-0.252c0.09-0.09,0.228-0.256,0.412-0.497
		l0.258,0.178c-0.217,0.364-0.498,0.71-0.844,1.038c-0.346,0.328-0.685,0.491-1.016,0.491c-0.278,0-0.508-0.115-0.688-0.345
		c-0.102-0.123-0.192-0.291-0.27-0.505c-0.041-0.111-0.097-0.307-0.169-0.588c-0.072-0.281-0.118-0.454-0.138-0.52l-0.086,0.147
		c-0.405,0.695-0.702,1.147-0.89,1.356C10.255,12.844,9.928,13,9.555,13c-0.213,0-0.398-0.073-0.556-0.218s-0.236-0.324-0.236-0.537
		c0-0.176,0.058-0.339,0.175-0.488s0.279-0.224,0.488-0.224c0.127,0,0.284,0.045,0.47,0.135c0.186,0.09,0.308,0.135,0.365,0.135
		c0.127,0,0.236-0.056,0.329-0.168c0.092-0.113,0.273-0.392,0.544-0.837l0.246-0.404c-0.041-0.172-0.085-0.383-0.132-0.633
		c-0.047-0.25-0.095-0.506-0.144-0.769l-0.098-0.523c-0.07-0.377-0.18-0.625-0.332-0.744c-0.086-0.07-0.227-0.104-0.424-0.104
		c-0.02,0-0.07,0.003-0.147,0.009S9.946,7.643,9.868,7.651V7.319c0.368-0.045,0.773-0.102,1.213-0.172
		c0.44-0.07,0.734-0.119,0.881-0.147c0.123,0.164,0.224,0.362,0.304,0.596c0.08,0.233,0.14,0.481,0.181,0.743L12.515,8.749z"/>
	<path style="&st2;" d="M7.495,4.227C7.281,4.076,7.006,4,6.673,4C6.255,4,5.849,4.171,5.454,4.513
		C5.127,4.801,4.858,5.179,4.647,5.649S4.299,6.49,4.234,6.763H3.419L3.186,7.671h0.835L3.674,9.134
		c-0.455,2.133-0.755,3.417-0.899,3.854c-0.144,0.441-0.354,0.661-0.631,0.661c-0.054,0-0.1-0.011-0.138-0.032
		S1.95,13.565,1.95,13.525c0-0.032,0.03-0.093,0.089-0.181s0.089-0.177,0.089-0.267c0-0.169-0.057-0.303-0.17-0.402
		c-0.113-0.099-0.242-0.148-0.386-0.148c-0.147,0-0.28,0.054-0.397,0.162C1.058,12.797,1,12.939,1,13.115
		c0,0.245,0.098,0.453,0.294,0.626C1.49,13.914,1.757,14,2.095,14c0.864,0,1.536-0.567,2.018-1.7
		c0.321-0.757,0.724-2.307,1.209-4.629h0.964l0.232-0.908H5.497l0.204-0.781c0.14-0.538,0.292-0.948,0.456-1.228
		c0.163-0.28,0.345-0.42,0.547-0.42c0.072,0,0.122,0.018,0.151,0.054c0.025,0.04,0.038,0.072,0.038,0.097
		c0,0.018-0.03,0.078-0.089,0.18C6.745,4.767,6.715,4.867,6.715,4.963c0,0.14,0.054,0.262,0.162,0.366S7.112,5.484,7.26,5.484
		c0.151,0,0.281-0.053,0.391-0.159c0.11-0.106,0.165-0.247,0.165-0.424C7.816,4.603,7.709,4.378,7.495,4.227z"/>
</g>
</svg>
