<?xml version="1.0" encoding="utf-8"?>
<!-- Generator: Adobe Illustrator 18.1.0, SVG Export Plug-In . SVG Version: 6.00 Build 0)  -->
<svg version="1.1" id="Layer_5" xmlns="http://www.w3.org/2000/svg" xmlns:xlink="http://www.w3.org/1999/xlink" x="0px" y="0px"
	 width="18px" height="18px" viewBox="0 0 18 18" enable-background="new 0 0 18 18" xml:space="preserve">
<path fill="#9A9FAF" d="M9,8c0.5527,0,1,0.4482002,1,1c0,0.5527-0.4473,1-1,1S8,9.5527,8,9C8,8.4482002,8.4473,8,9,8 M9,7
	C7.8975,7,7,7.8969998,7,9c0,1.1025,0.8975,2,2,2s2-0.8975,2-2C11,7.8969998,10.1025,7,9,7L9,7z"/>
<path fill="#9A9FAF" d="M15.6931,10.1584997l-0.5528002-0.2129002C15.0066004,9.8943005,14.9333,9.7522001,14.948,9.6097002
	c0.0546999-0.5137005,0.0488005-1.0352001-0.0352001-1.5566998c-0.0214996-0.1343002,0.0537004-0.2651005,0.1777-0.3203006
	l0.5332003-0.2377996c0.2412996-0.1074004,0.3497-0.3901,0.2421999-0.6308002l-0.6836004-1.5352001
	C15.0748997,5.0867,14.7926998,4.9783001,14.5504999,5.0857l-0.5487995,0.2441998
	C13.8697996,5.3894,13.7174997,5.3382001,13.6237001,5.2263999c-0.3339005-0.3999-0.7196999-0.7441998-1.1366997-1.0380998
	c-0.1084003-0.0762-0.1425009-0.2202001-0.0937004-0.3457l0.2264996-0.5908c0.0938005-0.2457001-0.0292997-0.5235-0.2753-0.6182001
	l-1.5693998-0.6015999C10.5279999,1.9373,10.2517004,2.0603001,10.1569996,2.3074l-0.2333994,0.6104
	C9.8727999,3.0506001,9.7350998,3.1268001,9.5935001,3.1126001c-0.5-0.0488-1.0098-0.0400002-1.5176001,0.0414999
	C7.9431,3.1761,7.8161001,3.0984001,7.7614002,2.9754L7.4948001,2.3777001
	C7.3874002,2.1355,7.1041999,2.0271001,6.8629999,2.1345999L5.3277998,2.8182001
	C5.0865998,2.9256001,4.9782,3.2088001,5.0857,3.4505l0.2743998,0.6152c0.0576,0.1304002,0.0117002,0.2821999-0.0986996,0.3740001
	c-0.3828001,0.3189001-0.7148004,0.6845999-1,1.0801001C4.1794,5.6331,4.0320001,5.6810002,3.9010999,5.6307001l-0.6494-0.2491002
	C3.0046,5.2869,2.7282,5.4103999,2.6335001,5.6564999L2.0320001,7.2254c-0.0948001,0.2474999,0.0283,0.5229001,0.2753,0.6181002
	L2.9568,8.0925999c0.1308,0.0508003,0.207,0.1865005,0.1923001,0.3266001c-0.0537,0.4941998-0.0498002,0.9970999,0.0253999,1.5
	c0.0195999,0.1328001-0.0595,0.2582998-0.1816001,0.3125l-0.6162,0.2743998
	C2.1355,10.6135998,2.0271001,10.8963003,2.1345,11.1374998L2.8181,12.6726999
	c0.1073999,0.2417002,0.3906,0.3505001,0.6317999,0.2426004l0.6015999-0.2676001
	c0.1308002-0.0581007,0.2822003-0.0087004,0.3721004,0.1020994c0.3182998,0.3901005,0.6844997,0.7294998,1.0819998,1.0225
	C5.6188998,13.8557997,5.6676998,14.0042,5.6169,14.1355l-0.2363,0.6119003
	c-0.0946999,0.2465,0.0282998,0.5243998,0.2754002,0.6175995l1.5692997,0.6035004
	c0.2460999,0.0937996,0.5225-0.0288,0.6172004-0.2757998l0.2274995-0.5904007
	c0.0508003-0.1328001,0.1914005-0.2059994,0.3330002-0.1889C8.9109001,14.9715004,9.4265003,14.9705,9.9431,14.8934002
	c0.1337996-0.0201006,0.2627001,0.0576,0.3183002,0.1815996L10.5056,15.6232996
	c0.1073999,0.2417002,0.3906002,0.3501005,0.6317997,0.2432003l1.5352001-0.6841002
	c0.2412004-0.1073999,0.3495998-0.3895998,0.2421999-0.6303997l-0.2372999-0.5340996
	c-0.0585995-0.1328001-0.0049-0.2857008,0.1073999-0.3770008c0.4092007-0.3334999,0.7607002-0.7186995,1.0625-1.1381998
	c0.0781002-0.1092997,0.2236004-0.1435003,0.3495998-0.0957003l0.5508003,0.2119007
	c0.2469997,0.0948,0.5234003-0.0293007,0.6181002-0.2758007l0.6026001-1.5668993
	C16.0632,10.5291004,15.9401999,10.2526999,15.6931,10.1584997 M10.3982,12.052
	c-1.6747999,0.7456999-3.6367998-0.0092001-4.3818998-1.6826C5.2701998,8.6927004,6.0240998,6.7336998,7.698,5.9865999
	C9.3737001,5.2410002,11.3357,5.9920001,12.0818005,7.6687002C12.8268995,9.3425999,12.0739002,11.3055,10.3982,12.052"/>
</svg>
