<?xml version="1.0" encoding="utf-8"?>
<!-- Generator: Adobe Illustrator 18.1.0, SVG Export Plug-In . SVG Version: 6.00 Build 0)  -->
<svg version="1.1" id="Layer_5" xmlns="http://www.w3.org/2000/svg" xmlns:xlink="http://www.w3.org/1999/xlink" x="0px" y="0px"
	 width="18px" height="18px" viewBox="0 0 18 18" enable-background="new 0 0 18 18" xml:space="preserve">
<circle fill="#E30612" cx="9" cy="10.9998779" r="2"/>
<g>
	<path fill="#E30612" d="M16.2560005,3.5429001c-0.059-0.1659-0.1286011-0.3300002-0.2196999-0.4880002
		c-0.0912008-0.1578999-0.1985006-0.3002-0.3127003-0.4342L16.0956001,1.9764L14.4043999,1L14.0281,1.6519001
		c-0.3472004-0.0641-0.7030001-0.0669-1.0572004-0.0017L12.5956001,1l-1.6912003,0.9764l0.3754005,0.6500999
		C11.0462999,2.9006,10.8708,3.2102001,10.7526999,3.5429001H10v1.9527001h0.7440004
		c0.0588999,0.1658998,0.1285992,0.3299999,0.2196999,0.4879999c0.0911999,0.1578999,0.1984997,0.3002,0.3126993,0.4341998
		l-0.3719997,0.6443l1.6912003,0.9763999L12.9719,7.3866c0.3472004,0.0640998,0.7030001,0.0668998,1.0572004,0.0016999
		l0.3752995,0.6501999l1.6912003-0.9763999l-0.3754005-0.6500998c0.2335005-0.2741003,0.4090004-0.5837002,0.5270996-0.9164H17
		V3.5429001H16.2560005z M14.2321997,5.7873998C13.5318003,6.1917,12.6362,5.9517002,12.2319002,5.2514
		c-0.4043999-0.7003999-0.1644001-1.5959001,0.5359001-2.0002999c0.7003994-0.4043,1.5958996-0.1644001,2.0002995,0.536
		S14.9324999,5.3829999,14.2321997,5.7873998z"/>
</g>
<path fill="#E30612" d="M15.3858995,8.6261997l-0.4820995,0.2781C14.7466002,8.9951,14.5747004,9.0381002,14.4053001,9.0381002
	c-0.3457003,0-0.6816998-0.1787004-0.8671999-0.5L13.5,8.4716997l-0.0386,0.0664005
	c-0.1850004,0.3212996-0.5209999,0.5-0.8667002,0.5c-0.0458994,0-0.0915995-0.0114002-0.1374998-0.0178003
	C12.7930002,9.6056995,13,10.2750998,13,10.9998999c0,2.2083998-1.7917004,4-4,4c-2.2084999,0-4-1.7916002-4-4
	c0-2.2139997,1.7915001-4,4-4c0.3198996,0,0.6268997,0.0472002,0.9251003,0.118C9.9143,6.9252,9.9403,6.7321,10.0381002,6.5625
	l0.0386-0.0664001H10c-0.3599005,0-0.6611004-0.2002997-0.8372002-0.4857001C6.0318999,5.954,2.8787999,7.5100999,1,10.6963997
	v0.3035002V11.3034c3.6924,6.2618999,12.3076,6.2618999,16,0v-0.3035002v-0.3035002
	C16.5340004,9.9062004,15.9888,9.217,15.3858995,8.6261997z"/>
<g>
	<path fill="#E30612" d="M16.2560005,3.5427999c-0.059-0.1657999-0.1286011-0.3299-0.2196999-0.4879
		c-0.0912008-0.1578999-0.1985006-0.3002-0.3127003-0.4342L16.0956001,1.9764L14.4043999,1L14.0281,1.6519001
		C13.6808996,1.5878,13.3250999,1.585,12.9708996,1.6501L12.5956001,1l-1.6912003,0.9764l0.3754005,0.6500999
		C11.0462999,2.9006,10.8708,3.2102001,10.7526999,3.5427999H10v1.9528003h0.7440004
		C10.8029003,5.6615,10.8725996,5.8256001,10.9637003,5.9835c0.0911999,0.158,0.1984997,0.3003001,0.3126993,0.4342999
		l-0.3719997,0.6443l1.6912003,0.9763999L12.9719,7.3866c0.3472004,0.0640998,0.7030001,0.0668998,1.0572004,0.0016999
		l0.3752995,0.6501999l1.6912003-0.9763999l-0.3754005-0.6500998c0.2335005-0.2741003,0.4090004-0.5838003,0.5270996-0.9164H17
		V3.5427999H16.2560005z M14.2498999,5.8181c-0.7173996,0.4141002-1.6345997,0.1683002-2.0487003-0.5489998
		C11.7869997,4.5517998,12.0327997,3.6345,12.7501001,3.2204001C13.4674997,2.8062999,14.3845997,3.052,14.7988005,3.7693
		C15.2130003,4.4867001,14.9672003,5.4039001,14.2498999,5.8181z"/>
</g>
</svg>
