<?xml version="1.0" encoding="utf-8"?>
<!DOCTYPE svg PUBLIC "-//W3C//DTD SVG 1.1//EN" "http://www.w3.org/Graphics/SVG/1.1/DTD/svg11.dtd" [
	<!ENTITY st0 "fill:#FFFFFF;">
	<!ENTITY st1 "fill:#9A9FAF;">
	<!ENTITY st2 "fill-rule:evenodd;clip-rule:evenodd;fill:#FFFFFF;">
	<!ENTITY st3 "fill-rule:evenodd;clip-rule:evenodd;fill:#9A9FAF;">
	<!ENTITY st4 "fill:#71B1E4;">
	<!ENTITY st5 "fill:#A23938;">
	<!ENTITY st6 "fill:#475B72;">
	<!ENTITY st7 "fill:#333333;">
	<!ENTITY st8 "fill:#7D2B29;">
	<!ENTITY st9 "fill:#E7D2D5;">
]>
<svg version="1.1" id="img" xmlns="http://www.w3.org/2000/svg" xmlns:xlink="http://www.w3.org/1999/xlink" x="0px" y="0px"
	 width="48px" height="48px" viewBox="0 0 48 48" style="enable-background:new 0 0 48 48;" xml:space="preserve">
<g id="packages-menu.default">
	<g>
		<polygon style="&st1;" points="24,16.227 21,15 13,18.272 16,19.5 13,20.727 21,24 24,22.772 16,19.5 		"/>
		<polygon style="&st1;" points="35,18.272 27,15 24,16.227 32,19.5 24,22.772 27,24 35,20.727 32,19.5 		"/>
	</g>
	<polygon style="&st1;" points="30,24.081 30,26.242 30,28 30,28.446 24,30.846 18,28.446 18,28 18,26.242 18,24.081 16,23.262 
		16,29.8 24,33 32,29.8 32,23.262 	"/>
</g>
</svg>
