<?xml version="1.0" encoding="utf-8"?>
<!DOCTYPE svg PUBLIC "-//W3C//DTD SVG 1.1//EN" "http://www.w3.org/Graphics/SVG/1.1/DTD/svg11.dtd" [
	<!ENTITY st0 "fill:#FFFFFF;">
	<!ENTITY st1 "fill:#9A9FAF;">
	<!ENTITY st2 "fill-rule:evenodd;clip-rule:evenodd;fill:#FFFFFF;">
	<!ENTITY st3 "fill-rule:evenodd;clip-rule:evenodd;fill:#9A9FAF;">
	<!ENTITY st4 "fill:#71B1E4;">
	<!ENTITY st5 "fill:#A23938;">
	<!ENTITY st6 "fill:#475B72;">
	<!ENTITY st7 "fill:#333333;">
	<!ENTITY st8 "fill:#7D2B29;">
	<!ENTITY st9 "fill:#E7D2D5;">
]>
<svg version="1.1" id="img" xmlns="http://www.w3.org/2000/svg" xmlns:xlink="http://www.w3.org/1999/xlink" x="0px" y="0px"
	 width="48px" height="48px" viewBox="0 0 48 48" style="enable-background:new 0 0 48 48;" xml:space="preserve">
<g id="visualiser-setings.default">
	<path style="&st1;" d="M26.037,25.23c0,1.402-1.135,2.539-2.535,2.539s-2.535-1.137-2.535-2.539c0-1.405,1.135-2.539,2.535-2.539
		S26.037,23.825,26.037,25.23z"/>
	<path style="&st1;" d="M35.058,21.256c0.113,0.114,0.262,0.171,0.411,0.171c0.149,0,0.298-0.057,0.412-0.171l0.41-0.412
		c0.23-0.228,0.23-0.596,0-0.826l-1.026-1.031c0.127-0.256,0.224-0.528,0.285-0.816h1.385c0.322,0,0.583-0.26,0.585-0.584v-0.583
		c-0.002-0.321-0.263-0.584-0.585-0.584h-1.459c-0.088-0.279-0.209-0.545-0.357-0.792l0.965-0.972c0.23-0.227,0.23-0.596,0-0.824
		l-0.41-0.411c-0.114-0.113-0.263-0.17-0.411-0.17c-0.149,0-0.298,0.057-0.412,0.17l-0.985,0.985
		c-0.267-0.152-0.554-0.27-0.862-0.348v-1.282c0-0.322-0.259-0.584-0.581-0.584h-0.581c-0.32,0-0.581,0.262-0.581,0.584v1.282
		c-0.335,0.083-0.649,0.218-0.938,0.392l-0.825-0.823c-0.113-0.114-0.263-0.171-0.412-0.171c-0.149,0-0.299,0.057-0.413,0.171
		l-0.411,0.412c-0.228,0.227-0.226,0.597,0.002,0.826l0.839,0.84c-0.177,0.31-0.31,0.648-0.386,1.008h-1.098
		c-0.322,0-0.583,0.26-0.583,0.584v0.583c0,0.321,0.261,0.582,0.583,0.582h1.172c0.105,0.352,0.265,0.676,0.472,0.97l-0.794,0.793
		c-0.228,0.229-0.228,0.599,0,0.826l0.41,0.412c0.115,0.113,0.264,0.17,0.413,0.17c0.15,0,0.299-0.057,0.413-0.171l0.885-0.885
		c0.298,0.147,0.622,0.255,0.961,0.312v1.219c0,0.322,0.261,0.584,0.581,0.585h0.583c0.32-0.001,0.579-0.264,0.579-0.585v-1.37
		c0.294-0.104,0.573-0.243,0.825-0.42L35.058,21.256z M32.135,18.899c-0.803,0-1.457-0.651-1.457-1.458
		c0-0.807,0.653-1.458,1.457-1.458c0.804,0,1.455,0.651,1.455,1.458C33.59,18.248,32.938,18.899,32.135,18.899z"/>
	<g>
		<path style="&st1;" d="M32.716,23.691h-0.588c-0.868-0.004-1.575-0.715-1.575-1.585v-0.081l-0.143,0.143
			c-0.299,0.299-0.696,0.463-1.119,0.463c-0.419,0-0.814-0.162-1.121-0.464l-0.407-0.409c-0.299-0.298-0.464-0.696-0.465-1.118
			c-0.001-0.424,0.164-0.822,0.464-1.124l0.055-0.055h-0.2c-0.528,0-0.994-0.263-1.281-0.661
			c-5.072-1.169-10.713,0.823-13.818,6.008v0.846c5.069,8.462,16.897,8.462,21.966,0v-0.846c-0.29-0.484-0.608-0.933-0.939-1.361
			C33.305,23.598,33.022,23.69,32.716,23.691z M23.502,30.307c-2.802,0-5.069-2.274-5.069-5.077c0-2.806,2.267-5.077,5.069-5.077
			c2.798,0,5.069,2.271,5.069,5.077C28.571,28.033,26.301,30.307,23.502,30.307z"/>
	</g>
</g>
</svg>
