<?xml version="1.0" encoding="utf-8"?>
<!-- Generator: Adobe Illustrator 21.1.0, SVG Export Plug-In . SVG Version: 6.00 Build 0)  -->
<!DOCTYPE svg PUBLIC "-//W3C//DTD SVG 1.1//EN" "http://www.w3.org/Graphics/SVG/1.1/DTD/svg11.dtd" [
	<!ENTITY st0 "fill:#71B1E4;">
	<!ENTITY st1 "fill:#F7931E;">
	<!ENTITY st2 "fill:#FFFFFF;">
	<!ENTITY st3 "fill-rule:evenodd;clip-rule:evenodd;fill:#FFFFFF;">
	<!ENTITY st4 "fill-rule:evenodd;clip-rule:evenodd;fill:#F7931E;">
	<!ENTITY st5 "fill:#808080;">
	<!ENTITY st6 "fill:#D9D9D9;">
	<!ENTITY st7 "fill-rule:evenodd;clip-rule:evenodd;fill:#D9D9D9;">
]>
<svg version="1.1" id="Layer_1" xmlns="http://www.w3.org/2000/svg" xmlns:xlink="http://www.w3.org/1999/xlink" x="0px" y="0px"
	 width="54px" height="71.875px" viewBox="0 0 54 71.875" style="enable-background:new 0 0 54 71.875;" xml:space="preserve">
<path style="&st0;" d="M4.4,14h4.15c-0.017-0.167-0.05-0.329-0.05-0.5c0-2.301,1.563-4.218,3.678-4.801l0.154-0.722l0.101,0.067
	L14,8.223l-1.255-1.511L12.28,4.204l-1.073-1.102l-0.17-0.038l0.014-0.14l-0.354-0.083l0.536-0.427l-0.988-0.359l-0.214,0.39
	l0.002-0.275L8.997,2l0.2,0.49L8.713,2.377L8.66,2.521L7.838,2.334L5.431,3.492L4.054,6.195L2.318,7.284L4.35,7.526l0.403-0.121
	L4.85,9.201l0.623,0.062l0.172,0.672l-1.207,0.63l-0.804,1.848L3.41,12.523v-0.522H2v1.37h1.41l0.368-0.311l0.884-2.339l1.025-0.618
	l0.246,0.965l-0.732,0.253L4.4,14z"/>
<path style="&st0;" d="M13.5,61.5c0.915,0,1.762,0.264,2.5,0.694V61H2v3h7.194C10.06,62.512,11.654,61.5,13.5,61.5z"/>
<path style="&st0;" d="M8.5,66.5c0-0.526,0.104-1.024,0.254-1.5H2v3h6.754C8.604,67.524,8.5,67.026,8.5,66.5z"/>
<path style="&st1;" d="M16.556,31.776c-0.456-0.389-0.927-0.757-1.415-1.1c-0.481-0.339-0.979-0.647-1.487-0.937
	c-0.077-0.044-0.154-0.085-0.233-0.126c-0.046-0.024-0.066-0.059-0.066-0.115c0-0.088-0.001-0.176,0-0.264
	c0-0.006,0.004-0.01,0.004-0.016c0.002-0.226,0.001-0.452,0.002-0.677c0.008-0.097,0.028-0.188,0.073-0.277
	c0.026-0.052,0.044-0.107,0.065-0.161c0.018-0.044,0.038-0.087,0.053-0.132c0.003-0.01,0.008-0.019,0.012-0.028h-0.004
	c0.035-0.107,0.067-0.216,0.088-0.329c0.008-0.041,0.021-0.076,0.063-0.096c0.029-0.014,0.053-0.042,0.076-0.066
	c0.093-0.1,0.152-0.224,0.194-0.354c0.062-0.19,0.114-0.383,0.165-0.577c0.05-0.189,0.069-0.383,0.045-0.578
	c-0.014-0.115-0.057-0.216-0.158-0.276C14,25.645,13.96,25.631,13.92,25.614c0.002-0.012,0.003-0.022,0.005-0.03
	c0.061-0.224,0.091-0.454,0.106-0.685c0.015-0.233,0.014-0.468,0.007-0.701c-0.008-0.27-0.068-0.529-0.187-0.769
	c-0.094-0.189-0.217-0.358-0.407-0.431c-0.133-0.051-0.218-0.14-0.301-0.253c-0.174-0.236-0.406-0.395-0.656-0.522
	c-0.188-0.096-0.385-0.161-0.59-0.196c-0.208-0.035-0.415-0.03-0.624-0.009c-0.046,0.005-0.088,0.022-0.133,0.03
	c0.008,0.014,0.019,0.021,0.026,0.035c0.212,0.392,0.326,0.823,0.341,1.283c0.009,0.287,0.01,0.577-0.01,0.865
	c-0.008,0.115-0.019,0.226-0.033,0.332c0.115,0.176,0.189,0.382,0.218,0.61c0.043,0.338,0.016,0.685-0.083,1.031
	c-0.067,0.232-0.135,0.463-0.215,0.69c-0.098,0.279-0.235,0.514-0.418,0.71l-0.096,0.266l-0.027,0.059
	c0-0.001-0.112,0.265-0.14,0.321l0.002,0.407c0.61,0.327,1.152,0.646,1.65,0.971c0.582,0.378,1.169,0.799,1.745,1.252
	c0.57,0.448,0.884,1.067,0.905,1.791L15.007,33h1.992c-0.001-0.092,0.003-0.183,0-0.275C16.988,32.339,16.841,32.02,16.556,31.776z"
	/>
<path style="&st0;" d="M14.005,33c-0.001-0.1,0.003-0.2,0-0.3c-0.013-0.422-0.187-0.77-0.524-1.035
	c-0.54-0.424-1.096-0.826-1.672-1.2c-0.569-0.37-1.157-0.706-1.758-1.022c-0.091-0.048-0.183-0.093-0.275-0.137
	c-0.054-0.026-0.078-0.064-0.078-0.126c0.001-0.096-0.001-0.192-0.001-0.288c0.001-0.006,0.005-0.011,0.005-0.017
	c0.002-0.246,0.001-0.493,0.003-0.739c0.009-0.105,0.033-0.205,0.086-0.302c0.031-0.056,0.052-0.117,0.077-0.176
	c0.021-0.048,0.045-0.095,0.063-0.144c0.004-0.01,0.01-0.02,0.014-0.031H9.942c0.042-0.117,0.08-0.236,0.104-0.359
	c0.009-0.044,0.025-0.083,0.074-0.104c0.034-0.015,0.063-0.045,0.09-0.073c0.109-0.109,0.18-0.244,0.23-0.387
	c0.073-0.207,0.135-0.418,0.196-0.629c0.059-0.206,0.081-0.417,0.053-0.631c-0.016-0.126-0.068-0.236-0.186-0.301
	c-0.042-0.023-0.09-0.038-0.137-0.057c0.002-0.014,0.003-0.024,0.006-0.033c0.072-0.244,0.108-0.496,0.126-0.747
	c0.017-0.254,0.017-0.51,0.009-0.765c-0.01-0.294-0.08-0.577-0.221-0.838c-0.111-0.206-0.257-0.39-0.482-0.47
	c-0.157-0.056-0.257-0.153-0.356-0.276c-0.206-0.257-0.479-0.43-0.776-0.57c-0.222-0.105-0.455-0.176-0.698-0.214
	c-0.245-0.038-0.49-0.032-0.738-0.01c-0.37,0.034-0.709,0.148-1.026,0.334c-0.332,0.196-0.628,0.435-0.895,0.714
	c-0.494,0.515-0.781,1.117-0.802,1.834c-0.007,0.233,0.001,0.466,0.061,0.694c0.025,0.097,0.043,0.195,0.067,0.292
	c0.011,0.044,0.003,0.067-0.045,0.08c-0.127,0.034-0.21,0.119-0.251,0.24c-0.023,0.069-0.042,0.145-0.037,0.216
	c0.012,0.164,0.023,0.332,0.065,0.49c0.065,0.245,0.15,0.486,0.238,0.724c0.054,0.146,0.131,0.285,0.268,0.372
	c0.059,0.037,0.083,0.084,0.095,0.145c0.049,0.239,0.128,0.468,0.245,0.682c0.053,0.097,0.077,0.197,0.086,0.302
	c0.002,0.246,0,0.493,0.003,0.739c0,0.006,0.005,0.011,0.005,0.017c0.001,0.096-0.001,0.192-0.001,0.288
	c0,0.062-0.024,0.1-0.078,0.126c-0.092,0.044-0.184,0.089-0.275,0.137c-0.6,0.316-1.188,0.653-1.758,1.022
	c-0.576,0.374-1.132,0.775-1.672,1.2C1.195,31.93,1.02,32.278,1.008,32.7c-0.003,0.1,0.001,0.2,0,0.3H14.005z"/>
<path style="&st1;" d="M8.633,40.702l-1.912-2.403C6.53,38.107,6.271,38,6,38H2.02C1.457,38,1,38.457,1,39.02v1.49V41h8.354
	C9.084,41,8.824,40.893,8.633,40.702z"/>
<path style="&st0;" d="M16,52H2c-0.552,0-1-0.448-1-1V41h15c0.552,0,1,0.448,1,1v9C17,51.552,16.552,52,16,52z"/>
<circle style="&st2;" cx="11" cy="45.714" r="1.714"/>
<circle style="&st2;" cx="7" cy="45.714" r="1.714"/>
<path style="&st2;" d="M10.058,47.975c0.298-0.071,0.611-0.118,0.942-0.118c1.657,0,3,0.959,3,2.143h-3
	C11,49.218,10.64,48.52,10.058,47.975z"/>
<path style="&st2;" d="M7,47.857c1.657,0,3,0.959,3,2.143H4C4,48.817,5.343,47.857,7,47.857z"/>
<rect x="2" y="57" style="&st0;" width="14" height="3"/>
<rect x="3" y="58" style="&st3;" width="1" height="1"/>
<rect x="3" y="62" style="&st3;" width="1" height="1"/>
<rect x="3" y="66" style="&st3;" width="1" height="1"/>
<path style="&st4;" d="M13.5,64.778c0.95,0,1.722,0.772,1.722,1.722s-0.772,1.722-1.722,1.722s-1.722-0.772-1.722-1.722
	S12.55,64.778,13.5,64.778z M14.183,63.067c-0.451-0.09-0.915-0.09-1.366,0l-0.274,0.774c-0.083,0.03-0.166,0.064-0.246,0.102
	l-0.741-0.354c-0.382,0.255-0.71,0.583-0.966,0.966l0.354,0.742c-0.038,0.08-0.072,0.162-0.102,0.246l-0.774,0.274
	c-0.09,0.451-0.09,0.915,0,1.366l0.774,0.274c0.03,0.084,0.064,0.166,0.102,0.246l-0.354,0.742c0.255,0.382,0.583,0.71,0.966,0.966
	l0.741-0.354c0.08,0.038,0.162,0.072,0.246,0.102l0.274,0.774c0.451,0.09,0.915,0.09,1.366,0l0.274-0.774
	c0.083-0.03,0.166-0.064,0.246-0.102l0.741,0.354c0.382-0.255,0.71-0.583,0.966-0.966l-0.354-0.742
	c0.038-0.08,0.072-0.162,0.102-0.246l0.774-0.274c0.09-0.451,0.09-0.915,0-1.366l-0.774-0.274c-0.03-0.084-0.064-0.166-0.102-0.246
	l0.354-0.742c-0.255-0.382-0.583-0.71-0.966-0.966l-0.741,0.354c-0.08-0.038-0.162-0.072-0.246-0.102L14.183,63.067z"/>
<path style="&st4;" d="M13.5,11.778c0.95,0,1.722,0.772,1.722,1.722s-0.772,1.722-1.722,1.722s-1.722-0.772-1.722-1.722
	S12.55,11.778,13.5,11.778z M14.183,10.067c-0.451-0.09-0.915-0.09-1.366,0l-0.274,0.774c-0.083,0.03-0.166,0.064-0.246,0.102
	l-0.741-0.354c-0.382,0.255-0.71,0.583-0.966,0.966l0.354,0.741c-0.038,0.08-0.072,0.162-0.102,0.246l-0.774,0.274
	c-0.09,0.451-0.09,0.915,0,1.366l0.774,0.274c0.03,0.083,0.064,0.166,0.102,0.246l-0.354,0.741c0.255,0.382,0.583,0.71,0.966,0.966
	l0.741-0.354c0.08,0.038,0.162,0.072,0.246,0.102l0.274,0.774c0.451,0.09,0.915,0.09,1.366,0l0.274-0.774
	c0.083-0.03,0.166-0.064,0.246-0.102l0.741,0.354c0.382-0.255,0.71-0.583,0.966-0.966l-0.354-0.741
	c0.038-0.08,0.072-0.162,0.102-0.246l0.774-0.274c0.09-0.451,0.09-0.915,0-1.366l-0.774-0.274c-0.03-0.083-0.064-0.166-0.102-0.246
	l0.354-0.741c-0.255-0.382-0.583-0.71-0.966-0.966l-0.741,0.354c-0.08-0.038-0.162-0.072-0.246-0.102L14.183,10.067z"/>
<path style="&st5;" d="M22.399,14h4.15c-0.017-0.167-0.05-0.329-0.05-0.5c0-2.301,1.563-4.218,3.678-4.801l0.154-0.722l0.101,0.067
	L32,8.223l-1.255-1.511L30.28,4.204l-1.073-1.102l-0.17-0.038l0.014-0.14l-0.354-0.083l0.536-0.427l-0.988-0.359l-0.213,0.39
	l0.002-0.275L26.997,2l0.2,0.49l-0.485-0.113L26.66,2.521l-0.822-0.187L23.43,3.492l-1.377,2.704l-1.736,1.088l2.032,0.242
	l0.403-0.121l0.097,1.796l0.623,0.062l0.171,0.672l-1.207,0.63l-0.804,1.848l-0.223,0.109v-0.522H20v1.37h1.41l0.368-0.311
	l0.884-2.339l1.025-0.618l0.246,0.965l-0.732,0.253L22.399,14z"/>
<path style="&st5;" d="M31.5,61.5c0.915,0,1.762,0.264,2.5,0.694V61H20v3h7.194C28.059,62.512,29.654,61.5,31.5,61.5z"/>
<path style="&st5;" d="M26.5,66.5c0-0.526,0.104-1.024,0.254-1.5H20v3h6.754C26.603,67.524,26.5,67.026,26.5,66.5z"/>
<path style="&st6;" d="M34.555,31.776c-0.457-0.389-0.927-0.757-1.415-1.1c-0.481-0.339-0.979-0.647-1.487-0.937
	c-0.077-0.044-0.154-0.085-0.233-0.126c-0.046-0.024-0.066-0.059-0.066-0.115c0.001-0.088-0.001-0.176,0-0.264
	c0-0.006,0.004-0.01,0.004-0.016c0.002-0.226,0.001-0.452,0.002-0.677c0.008-0.097,0.028-0.188,0.073-0.277
	c0.026-0.052,0.044-0.107,0.065-0.161c0.018-0.044,0.038-0.087,0.053-0.132c0.003-0.01,0.008-0.019,0.011-0.028H31.56
	c0.035-0.107,0.067-0.216,0.088-0.329c0.008-0.041,0.021-0.076,0.063-0.096c0.029-0.014,0.053-0.042,0.076-0.066
	c0.093-0.1,0.152-0.224,0.194-0.354c0.062-0.19,0.114-0.383,0.165-0.577c0.05-0.189,0.069-0.383,0.045-0.578
	c-0.014-0.115-0.057-0.216-0.158-0.276c-0.036-0.021-0.076-0.035-0.116-0.052c0.002-0.012,0.003-0.022,0.005-0.03
	c0.061-0.224,0.091-0.454,0.106-0.685c0.015-0.233,0.014-0.468,0.007-0.701c-0.008-0.27-0.068-0.529-0.187-0.769
	c-0.094-0.189-0.217-0.358-0.408-0.431c-0.133-0.051-0.218-0.14-0.301-0.253c-0.174-0.236-0.406-0.395-0.656-0.522
	c-0.188-0.096-0.385-0.161-0.59-0.196c-0.208-0.035-0.415-0.03-0.624-0.009c-0.046,0.005-0.088,0.022-0.133,0.03
	c0.008,0.014,0.019,0.021,0.026,0.035c0.212,0.392,0.326,0.823,0.341,1.283c0.009,0.287,0.01,0.577-0.01,0.865
	c-0.008,0.115-0.019,0.226-0.033,0.332c0.115,0.176,0.19,0.382,0.218,0.61c0.043,0.338,0.016,0.685-0.083,1.031
	c-0.067,0.232-0.135,0.463-0.215,0.69c-0.098,0.279-0.235,0.514-0.418,0.71l-0.096,0.266l-0.027,0.059
	c0-0.001-0.112,0.265-0.14,0.321l0.001,0.407c0.61,0.327,1.152,0.646,1.65,0.971c0.582,0.378,1.169,0.799,1.745,1.252
	c0.57,0.448,0.884,1.067,0.905,1.791L33.007,33h1.992c-0.001-0.092,0.002-0.183,0-0.275C34.988,32.339,34.84,32.02,34.555,31.776z"
	/>
<path style="&st5;" d="M32.005,33c-0.001-0.1,0.003-0.2,0-0.3c-0.013-0.422-0.187-0.77-0.525-1.035
	c-0.539-0.424-1.096-0.826-1.672-1.2c-0.569-0.37-1.157-0.706-1.758-1.022c-0.091-0.048-0.183-0.093-0.275-0.137
	c-0.054-0.026-0.078-0.064-0.078-0.126c0.001-0.096-0.001-0.192-0.001-0.288c0.001-0.006,0.005-0.011,0.005-0.017
	c0.003-0.246,0.001-0.493,0.003-0.739c0.009-0.105,0.033-0.205,0.086-0.302c0.031-0.056,0.052-0.117,0.077-0.176
	c0.021-0.048,0.045-0.095,0.063-0.144c0.004-0.01,0.01-0.02,0.014-0.031h-0.005c0.042-0.117,0.08-0.236,0.104-0.359
	c0.009-0.044,0.025-0.083,0.074-0.104c0.034-0.015,0.063-0.045,0.09-0.073c0.109-0.109,0.18-0.244,0.23-0.387
	c0.073-0.207,0.135-0.418,0.196-0.629c0.059-0.206,0.081-0.417,0.053-0.631c-0.016-0.126-0.068-0.236-0.186-0.301
	c-0.042-0.023-0.09-0.038-0.137-0.057c0.003-0.014,0.003-0.024,0.006-0.033c0.072-0.244,0.108-0.496,0.126-0.747
	c0.017-0.254,0.017-0.51,0.009-0.765c-0.01-0.294-0.08-0.577-0.221-0.838c-0.111-0.206-0.257-0.39-0.482-0.47
	c-0.157-0.056-0.257-0.153-0.356-0.276c-0.206-0.257-0.479-0.43-0.775-0.57c-0.222-0.105-0.455-0.176-0.698-0.214
	c-0.245-0.038-0.49-0.032-0.738-0.01c-0.37,0.034-0.709,0.148-1.026,0.334c-0.332,0.196-0.628,0.435-0.895,0.714
	c-0.494,0.515-0.781,1.117-0.802,1.834c-0.007,0.233,0.001,0.466,0.061,0.694c0.025,0.097,0.043,0.195,0.067,0.292
	c0.011,0.044,0.003,0.067-0.045,0.08c-0.127,0.034-0.21,0.119-0.251,0.24c-0.023,0.069-0.042,0.145-0.036,0.216
	c0.012,0.164,0.022,0.332,0.064,0.49c0.065,0.245,0.15,0.486,0.238,0.724c0.054,0.146,0.131,0.285,0.268,0.372
	c0.059,0.037,0.083,0.084,0.095,0.145c0.049,0.239,0.128,0.468,0.245,0.682c0.053,0.097,0.077,0.197,0.086,0.302
	c0.002,0.246,0,0.493,0.003,0.739c0,0.006,0.005,0.011,0.005,0.017c0.001,0.096-0.001,0.192-0.001,0.288
	c0,0.062-0.024,0.1-0.078,0.126c-0.092,0.044-0.184,0.089-0.275,0.137c-0.6,0.316-1.188,0.653-1.757,1.022
	c-0.576,0.374-1.132,0.775-1.672,1.2c-0.337,0.265-0.512,0.614-0.524,1.035c-0.003,0.1,0.001,0.2,0,0.3H32.005z"/>
<path style="&st6;" d="M26.633,40.702l-1.912-2.403C24.529,38.107,24.27,38,24,38h-3.98C19.456,38,19,38.457,19,39.02v1.49V41h8.354
	C27.084,41,26.824,40.893,26.633,40.702z"/>
<path style="&st5;" d="M34,52H20c-0.552,0-1-0.448-1-1V41h15c0.552,0,1,0.448,1,1v9C35,51.552,34.552,52,34,52z"/>
<circle style="&st6;" cx="29" cy="45.714" r="1.714"/>
<circle style="&st6;" cx="25" cy="45.714" r="1.714"/>
<path style="&st6;" d="M28.058,47.975c0.298-0.071,0.611-0.118,0.942-0.118c1.657,0,3,0.959,3,2.143h-3
	C29,49.218,28.639,48.52,28.058,47.975z"/>
<path style="&st6;" d="M25,47.857c1.657,0,3,0.959,3,2.143h-6C22,48.817,23.343,47.857,25,47.857z"/>
<rect x="20" y="57" style="&st5;" width="14" height="3"/>
<rect x="21" y="58" style="&st7;" width="1" height="1"/>
<rect x="21" y="62" style="&st7;" width="1" height="1"/>
<rect x="21" y="66" style="&st7;" width="1" height="1"/>
<path style="&st7;" d="M31.5,64.778c0.95,0,1.722,0.772,1.722,1.722s-0.772,1.722-1.722,1.722c-0.95,0-1.722-0.772-1.722-1.722
	S30.549,64.778,31.5,64.778z M32.182,63.067c-0.451-0.09-0.915-0.09-1.366,0l-0.274,0.774c-0.083,0.03-0.166,0.064-0.246,0.102
	l-0.742-0.354c-0.382,0.255-0.71,0.583-0.966,0.966l0.354,0.742c-0.038,0.08-0.072,0.162-0.102,0.246l-0.774,0.274
	c-0.09,0.451-0.09,0.915,0,1.366l0.774,0.274c0.03,0.084,0.064,0.166,0.102,0.246l-0.354,0.742c0.255,0.382,0.583,0.71,0.966,0.966
	l0.742-0.354c0.08,0.038,0.162,0.072,0.246,0.102l0.274,0.774c0.451,0.09,0.915,0.09,1.366,0l0.274-0.774
	c0.083-0.03,0.166-0.064,0.246-0.102l0.742,0.354c0.382-0.255,0.71-0.583,0.966-0.966l-0.354-0.742
	c0.038-0.08,0.072-0.162,0.102-0.246l0.774-0.274c0.09-0.451,0.09-0.915,0-1.366l-0.774-0.274c-0.03-0.084-0.064-0.166-0.102-0.246
	l0.354-0.742c-0.255-0.382-0.583-0.71-0.966-0.966l-0.742,0.354c-0.08-0.038-0.162-0.072-0.246-0.102L32.182,63.067z"/>
<path style="&st7;" d="M31.5,11.778c0.95,0,1.722,0.772,1.722,1.722s-0.772,1.722-1.722,1.722c-0.95,0-1.722-0.772-1.722-1.722
	S30.549,11.778,31.5,11.778z M32.182,10.067c-0.451-0.09-0.915-0.09-1.366,0l-0.274,0.774c-0.083,0.03-0.166,0.064-0.246,0.102
	l-0.742-0.354c-0.382,0.255-0.71,0.583-0.966,0.966l0.354,0.741c-0.038,0.08-0.072,0.162-0.102,0.246l-0.774,0.274
	c-0.09,0.451-0.09,0.915,0,1.366l0.774,0.274c0.03,0.083,0.064,0.166,0.102,0.246l-0.354,0.741c0.255,0.382,0.583,0.71,0.966,0.966
	l0.742-0.354c0.08,0.038,0.162,0.072,0.246,0.102l0.274,0.774c0.451,0.09,0.915,0.09,1.366,0l0.274-0.774
	c0.083-0.03,0.166-0.064,0.246-0.102l0.742,0.354c0.382-0.255,0.71-0.583,0.966-0.966l-0.354-0.741
	c0.038-0.08,0.072-0.162,0.102-0.246l0.774-0.274c0.09-0.451,0.09-0.915,0-1.366l-0.774-0.274c-0.03-0.083-0.064-0.166-0.102-0.246
	l0.354-0.741c-0.255-0.382-0.583-0.71-0.966-0.966l-0.742,0.354c-0.08-0.038-0.162-0.072-0.246-0.102L32.182,10.067z"/>
<path style="&st2;" d="M40.4,14h4.15c-0.017-0.167-0.05-0.329-0.05-0.5c0-2.301,1.563-4.218,3.678-4.801l0.154-0.722l0.101,0.067
	L50,8.223l-1.255-1.511L48.28,4.204l-1.073-1.102l-0.17-0.038l0.014-0.14l-0.354-0.083l0.536-0.427l-0.988-0.359l-0.214,0.39
	l0.002-0.275L44.997,2l0.2,0.49l-0.485-0.113L44.66,2.521l-0.822-0.187l-2.407,1.158l-1.377,2.704l-1.736,1.088l2.032,0.242
	l0.403-0.121l0.097,1.796l0.623,0.062l0.171,0.672l-1.207,0.63l-0.804,1.848l-0.223,0.109v-0.522H38v1.37h1.41l0.368-0.311
	l0.884-2.339l1.025-0.618l0.246,0.965l-0.732,0.253L40.4,14z"/>
<path style="&st2;" d="M52.556,31.776c-0.457-0.389-0.927-0.757-1.415-1.1c-0.481-0.339-0.979-0.647-1.487-0.937
	c-0.077-0.044-0.154-0.085-0.233-0.126c-0.046-0.024-0.066-0.059-0.066-0.115c0-0.088-0.001-0.176-0.001-0.264
	c0.001-0.006,0.004-0.01,0.004-0.016c0.002-0.226,0.001-0.452,0.002-0.677c0.008-0.097,0.028-0.188,0.073-0.277
	c0.026-0.052,0.044-0.107,0.065-0.161c0.018-0.044,0.038-0.087,0.054-0.132c0.003-0.01,0.008-0.019,0.012-0.028h-0.004
	c0.035-0.107,0.068-0.216,0.088-0.329c0.008-0.041,0.022-0.076,0.063-0.096c0.029-0.014,0.053-0.042,0.076-0.066
	c0.093-0.1,0.152-0.224,0.194-0.354c0.062-0.19,0.114-0.383,0.165-0.577c0.05-0.189,0.069-0.383,0.045-0.578
	c-0.014-0.115-0.057-0.216-0.158-0.276c-0.036-0.021-0.076-0.035-0.116-0.052c0.002-0.012,0.003-0.022,0.005-0.03
	c0.061-0.224,0.091-0.454,0.106-0.685c0.015-0.233,0.014-0.468,0.007-0.701c-0.008-0.27-0.068-0.529-0.187-0.769
	c-0.094-0.189-0.217-0.358-0.408-0.431c-0.133-0.051-0.218-0.14-0.301-0.253c-0.174-0.236-0.406-0.395-0.656-0.522
	c-0.188-0.096-0.385-0.161-0.59-0.196c-0.208-0.035-0.415-0.03-0.625-0.009c-0.046,0.005-0.088,0.022-0.133,0.03
	c0.008,0.014,0.019,0.021,0.026,0.035c0.211,0.392,0.326,0.823,0.341,1.283c0.009,0.287,0.01,0.577-0.01,0.865
	c-0.008,0.115-0.019,0.226-0.033,0.332c0.115,0.176,0.19,0.382,0.218,0.61c0.043,0.338,0.016,0.685-0.083,1.031
	c-0.067,0.232-0.135,0.463-0.215,0.69c-0.098,0.279-0.235,0.514-0.417,0.71l-0.096,0.266l-0.027,0.059
	c0-0.001-0.112,0.265-0.14,0.321l0.002,0.407c0.61,0.327,1.152,0.646,1.65,0.971c0.582,0.378,1.169,0.799,1.745,1.252
	c0.57,0.448,0.884,1.067,0.905,1.791L51.007,33h1.992c-0.001-0.092,0.003-0.183,0-0.275C52.988,32.339,52.841,32.02,52.556,31.776z"
	/>
<path style="&st2;" d="M50.005,33c-0.001-0.1,0.003-0.2,0-0.3c-0.013-0.422-0.187-0.77-0.525-1.035
	c-0.54-0.424-1.096-0.826-1.672-1.2c-0.569-0.37-1.157-0.706-1.758-1.022c-0.09-0.048-0.183-0.093-0.275-0.137
	c-0.054-0.026-0.078-0.064-0.078-0.126c0.001-0.096-0.001-0.192-0.001-0.288c0.001-0.006,0.005-0.011,0.005-0.017
	c0.002-0.246,0.001-0.493,0.003-0.739c0.009-0.105,0.033-0.205,0.086-0.302c0.031-0.056,0.052-0.117,0.077-0.176
	c0.021-0.048,0.045-0.095,0.063-0.144c0.004-0.01,0.01-0.02,0.014-0.031h-0.005c0.042-0.117,0.08-0.236,0.104-0.359
	c0.009-0.044,0.025-0.083,0.074-0.104c0.034-0.015,0.063-0.045,0.09-0.073c0.11-0.109,0.18-0.244,0.23-0.387
	c0.073-0.207,0.135-0.418,0.196-0.629c0.059-0.206,0.081-0.417,0.053-0.631c-0.016-0.126-0.068-0.236-0.186-0.301
	c-0.042-0.023-0.09-0.038-0.137-0.057c0.002-0.014,0.003-0.024,0.006-0.033c0.072-0.244,0.108-0.496,0.126-0.747
	c0.018-0.254,0.017-0.51,0.009-0.765c-0.01-0.294-0.08-0.577-0.221-0.838c-0.111-0.206-0.257-0.39-0.482-0.47
	c-0.157-0.056-0.257-0.153-0.356-0.276c-0.206-0.257-0.479-0.43-0.776-0.57c-0.222-0.105-0.455-0.176-0.698-0.214
	c-0.245-0.038-0.49-0.032-0.738-0.01c-0.37,0.034-0.709,0.148-1.026,0.334c-0.332,0.196-0.628,0.435-0.895,0.714
	c-0.494,0.515-0.781,1.117-0.802,1.834c-0.007,0.233,0.001,0.466,0.061,0.694c0.025,0.097,0.043,0.195,0.067,0.292
	c0.011,0.044,0.003,0.067-0.045,0.08c-0.127,0.034-0.21,0.119-0.251,0.24c-0.023,0.069-0.042,0.145-0.036,0.216
	c0.012,0.164,0.022,0.332,0.064,0.49c0.065,0.245,0.15,0.486,0.238,0.724c0.054,0.146,0.131,0.285,0.268,0.372
	c0.059,0.037,0.083,0.084,0.095,0.145c0.049,0.239,0.128,0.468,0.245,0.682c0.053,0.097,0.077,0.197,0.086,0.302
	c0.002,0.246,0,0.493,0.003,0.739c0,0.006,0.005,0.011,0.005,0.017c0.001,0.096-0.001,0.192,0,0.288c0,0.062-0.024,0.1-0.078,0.126
	c-0.092,0.044-0.184,0.089-0.275,0.137c-0.6,0.316-1.188,0.653-1.758,1.022c-0.576,0.374-1.132,0.775-1.672,1.2
	c-0.337,0.265-0.512,0.614-0.524,1.035c-0.003,0.1,0.001,0.2,0,0.3H50.005z"/>
<path style="&st2;" d="M52,41h-6.646c-0.27,0-0.53-0.107-0.721-0.298l-1.912-2.403C42.53,38.107,42.271,38,42,38h-3.98
	C37.457,38,37,38.457,37,39.02v1.49V41v10c0,0.552,0.448,1,1,1h14c0.552,0,1-0.448,1-1v-9C53,41.448,52.552,41,52,41z M47,44
	c0.947,0,1.714,0.768,1.714,1.714c0,0.947-0.767,1.714-1.714,1.714s-1.714-0.768-1.714-1.714C45.286,44.768,46.053,44,47,44z M43,44
	c0.947,0,1.714,0.768,1.714,1.714c0,0.947-0.767,1.714-1.714,1.714s-1.714-0.768-1.714-1.714C41.286,44.768,42.053,44,43,44z M40,50
	c0-1.183,1.343-2.143,3-2.143s3,0.959,3,2.143H40z M47,50c0-0.782-0.36-1.48-0.942-2.025c0.298-0.071,0.611-0.118,0.942-0.118
	c1.657,0,3,0.959,3,2.143H47z"/>
<path style="&st2;" d="M38,57v3h14v-3H38z M40,59h-1v-1h1V59z"/>
<path style="&st2;" d="M38,61v3h7.194c0.866-1.488,2.46-2.5,4.306-2.5c0.915,0,1.762,0.264,2.5,0.694V61H38z M40,63h-1v-1h1V63z"/>
<path style="&st2;" d="M44.754,65H38v3h6.754c-0.151-0.476-0.254-0.974-0.254-1.5S44.604,65.476,44.754,65z M40,67h-1v-1h1V67z"/>
<path style="&st3;" d="M49.5,64.778c0.95,0,1.722,0.772,1.722,1.722s-0.772,1.722-1.722,1.722s-1.722-0.772-1.722-1.722
	S48.55,64.778,49.5,64.778z M50.183,63.067c-0.451-0.09-0.915-0.09-1.366,0l-0.274,0.774c-0.083,0.03-0.166,0.064-0.246,0.102
	l-0.742-0.354c-0.382,0.255-0.71,0.583-0.966,0.966l0.354,0.742c-0.038,0.08-0.072,0.162-0.102,0.246l-0.774,0.274
	c-0.09,0.451-0.09,0.915,0,1.366l0.774,0.274c0.03,0.084,0.064,0.166,0.102,0.246l-0.354,0.742c0.255,0.382,0.583,0.71,0.966,0.966
	l0.742-0.354c0.08,0.038,0.162,0.072,0.246,0.102l0.274,0.774c0.451,0.09,0.915,0.09,1.366,0l0.274-0.774
	c0.083-0.03,0.166-0.064,0.246-0.102l0.742,0.354c0.382-0.255,0.71-0.583,0.966-0.966l-0.354-0.742
	c0.038-0.08,0.072-0.162,0.102-0.246l0.774-0.274c0.09-0.451,0.09-0.915,0-1.366l-0.774-0.274c-0.03-0.084-0.064-0.166-0.102-0.246
	l0.354-0.742c-0.255-0.382-0.583-0.71-0.966-0.966l-0.742,0.354c-0.08-0.038-0.162-0.072-0.246-0.102L50.183,63.067z"/>
<path style="&st3;" d="M49.5,11.778c0.95,0,1.722,0.772,1.722,1.722s-0.772,1.722-1.722,1.722s-1.722-0.772-1.722-1.722
	S48.55,11.778,49.5,11.778z M50.183,10.067c-0.451-0.09-0.915-0.09-1.366,0l-0.274,0.774c-0.083,0.03-0.166,0.064-0.246,0.102
	l-0.742-0.354c-0.382,0.255-0.71,0.583-0.966,0.966l0.354,0.741c-0.038,0.08-0.072,0.162-0.102,0.246l-0.774,0.274
	c-0.09,0.451-0.09,0.915,0,1.366l0.774,0.274c0.03,0.083,0.064,0.166,0.102,0.246l-0.354,0.741c0.255,0.382,0.583,0.71,0.966,0.966
	l0.742-0.354c0.08,0.038,0.162,0.072,0.246,0.102l0.274,0.774c0.451,0.09,0.915,0.09,1.366,0l0.274-0.774
	c0.083-0.03,0.166-0.064,0.246-0.102l0.742,0.354c0.382-0.255,0.71-0.583,0.966-0.966l-0.354-0.741
	c0.038-0.08,0.072-0.162,0.102-0.246l0.774-0.274c0.09-0.451,0.09-0.915,0-1.366l-0.774-0.274c-0.03-0.083-0.064-0.166-0.102-0.246
	l0.354-0.741c-0.255-0.382-0.583-0.71-0.966-0.966l-0.742,0.354c-0.08-0.038-0.162-0.072-0.246-0.102L50.183,10.067z"/>
</svg>
