<?xml version="1.0" encoding="utf-8"?>
<!-- Generator: Adobe Illustrator 20.1.0, SVG Export Plug-In . SVG Version: 6.00 Build 0)  -->
<!DOCTYPE svg PUBLIC "-//W3C//DTD SVG 1.1//EN" "http://www.w3.org/Graphics/SVG/1.1/DTD/svg11.dtd" [
	<!ENTITY st0 "fill:#71B1E4;">
	<!ENTITY st1 "fill:#F7931E;">
	<!ENTITY st2 "fill:#808080;">
	<!ENTITY st3 "fill:#D9D9D9;">
	<!ENTITY st4 "fill:#8C8C8C;">
	<!ENTITY st5 "fill:#BFBFBF;">
	<!ENTITY st6 "fill:#FFFFFF;">
]>
<svg version="1.1" id="Layer_1" xmlns="http://www.w3.org/2000/svg" xmlns:xlink="http://www.w3.org/1999/xlink" x="0px" y="0px"
	 width="54px" height="180px" viewBox="0 0 54 180" style="enable-background:new 0 0 54 180;" xml:space="preserve">
<g>
	<path style="&st0;" d="M2.539,7.18c0.197-0.099,0.423-0.188,0.674-0.27c0.216-0.071,0.472-0.135,0.769-0.188
		c0.297-0.054,0.624-0.081,0.984-0.081c0.979,0,1.673,0.207,2.082,0.62c0.408,0.413,0.613,1.043,0.613,1.887v4.61
		c-0.036,0.018-0.086,0.035-0.148,0.054c-0.054,0.018-0.124,0.031-0.209,0.04c-0.085,0.009-0.187,0.014-0.303,0.014
		c-0.108,0-0.202-0.005-0.283-0.014c-0.081-0.009-0.153-0.023-0.216-0.04c-0.072-0.018-0.135-0.036-0.188-0.054l-0.257-0.729
		c-0.152,0.314-0.397,0.556-0.734,0.722C4.985,13.917,4.574,14,4.089,14c-0.646,0-1.156-0.19-1.529-0.573
		C2.187,13.045,2,12.459,2,11.668c0-0.764,0.227-1.312,0.681-1.645c0.454-0.332,1.103-0.498,1.947-0.498
		c0.234,0,0.466,0.007,0.694,0.02c0.229,0.014,0.442,0.029,0.641,0.048V9.296c0-0.171-0.019-0.33-0.054-0.479
		C5.873,8.669,5.81,8.539,5.72,8.427c-0.09-0.112-0.213-0.2-0.37-0.263c-0.157-0.063-0.357-0.095-0.6-0.095
		c-0.225,0-0.44,0.016-0.647,0.047C3.896,8.148,3.712,8.187,3.55,8.231C3.361,8.276,3.187,8.33,3.024,8.393
		C2.971,8.366,2.926,8.33,2.89,8.285c-0.09-0.09-0.171-0.22-0.242-0.391C2.602,7.805,2.57,7.717,2.553,7.632
		C2.534,7.546,2.525,7.468,2.525,7.396C2.517,7.314,2.521,7.243,2.539,7.18z M5.963,10.711c-0.171-0.017-0.351-0.031-0.539-0.04
		c-0.188-0.009-0.382-0.014-0.58-0.014c-0.342,0-0.608,0.076-0.802,0.229c-0.193,0.152-0.29,0.413-0.29,0.781
		c0,0.387,0.086,0.656,0.257,0.809c0.17,0.153,0.408,0.23,0.714,0.23c0.233,0,0.432-0.049,0.593-0.149
		c0.162-0.099,0.29-0.225,0.385-0.377c0.094-0.153,0.161-0.323,0.202-0.513c0.04-0.189,0.061-0.372,0.061-0.553V10.711z"/>
	<path style="&st1;" d="M11.698,7.342c0.188-0.233,0.432-0.409,0.728-0.525c0.297-0.117,0.661-0.176,1.092-0.176
		c0.378,0,0.719,0.063,1.024,0.188c0.306,0.126,0.568,0.333,0.789,0.62c0.22,0.288,0.388,0.667,0.505,1.14
		c0.117,0.472,0.176,1.049,0.176,1.731c0,0.692-0.059,1.271-0.176,1.739c-0.117,0.467-0.285,0.845-0.505,1.132
		c-0.221,0.287-0.483,0.494-0.789,0.62C14.236,13.938,13.896,14,13.518,14c-0.431,0-0.795-0.059-1.092-0.175
		c-0.296-0.117-0.539-0.292-0.728-0.526v0.459c-0.054,0.018-0.126,0.035-0.216,0.054c-0.072,0.018-0.161,0.031-0.269,0.04
		c-0.107,0.009-0.233,0.014-0.377,0.014c-0.145,0-0.267-0.005-0.371-0.014c-0.103-0.009-0.191-0.023-0.263-0.04
		c-0.081-0.018-0.148-0.036-0.202-0.054V3.864c0.054-0.018,0.121-0.036,0.202-0.054c0.071-0.019,0.159-0.031,0.263-0.041
		c0.104-0.009,0.227-0.013,0.371-0.013c0.144,0,0.27,0.004,0.377,0.013c0.108,0.01,0.197,0.022,0.269,0.041
		c0.09,0.018,0.162,0.036,0.216,0.054V7.342z M14.259,10.32c0-0.477-0.031-0.864-0.094-1.166c-0.063-0.301-0.15-0.534-0.263-0.7
		c-0.113-0.167-0.252-0.281-0.418-0.344c-0.167-0.063-0.357-0.095-0.573-0.095c-0.377,0-0.674,0.135-0.89,0.404
		c-0.216,0.27-0.323,0.62-0.323,1.052v1.698c0,0.431,0.108,0.781,0.323,1.051c0.216,0.269,0.513,0.404,0.89,0.404
		c0.216,0,0.406-0.031,0.573-0.094c0.166-0.063,0.305-0.178,0.418-0.344c0.112-0.166,0.199-0.4,0.263-0.701
		C14.227,11.186,14.259,10.797,14.259,10.32z"/>
</g>
<path style="&st0;" d="M2.822,24.627c0.557-0.144,1.031-0.348,1.422-0.613c0.391-0.265,0.748-0.617,1.071-1.058
	c0.054-0.018,0.121-0.036,0.202-0.054c0.072-0.018,0.157-0.034,0.256-0.048c0.099-0.013,0.225-0.02,0.378-0.02
	c0.144,0,0.267,0.007,0.37,0.02c0.104,0.014,0.191,0.029,0.263,0.048C6.865,22.92,6.938,22.938,7,22.956v8.923
	c-0.054,0.026-0.121,0.049-0.202,0.067c-0.072,0.018-0.161,0.031-0.27,0.04C6.421,31.995,6.295,32,6.151,32
	c-0.135,0-0.259-0.005-0.371-0.014c-0.112-0.009-0.204-0.022-0.276-0.04c-0.09-0.019-0.166-0.041-0.229-0.067v-5.162
	c0-0.333,0.007-0.639,0.02-0.917c0.014-0.278,0.029-0.534,0.048-0.769c-0.315,0.261-0.654,0.47-1.018,0.627
	c-0.364,0.157-0.73,0.281-1.099,0.371c-0.162-0.162-0.281-0.368-0.357-0.62C2.793,25.157,2.777,24.896,2.822,24.627z"/>
<path style="&st0;" d="M9.892,24.398c-0.18-0.143-0.313-0.319-0.397-0.526c-0.086-0.206-0.114-0.436-0.088-0.687
	c0.216-0.09,0.459-0.171,0.729-0.243c0.225-0.063,0.489-0.119,0.795-0.168c0.306-0.05,0.638-0.074,0.997-0.074
	c0.423,0,0.82,0.047,1.193,0.142c0.372,0.094,0.698,0.242,0.977,0.444c0.279,0.202,0.499,0.465,0.661,0.788
	C14.919,24.398,15,24.789,15,25.247c0,0.432-0.059,0.802-0.175,1.112c-0.117,0.309-0.288,0.586-0.513,0.829
	c-0.225,0.242-0.494,0.47-0.809,0.681c-0.314,0.211-0.674,0.438-1.078,0.681c-0.189,0.116-0.384,0.233-0.586,0.351
	c-0.202,0.116-0.387,0.242-0.553,0.377c-0.167,0.135-0.306,0.283-0.418,0.444c-0.112,0.162-0.169,0.347-0.169,0.553
	c0,0.045,0.009,0.113,0.027,0.202h4.003c0.063,0.108,0.105,0.227,0.128,0.357c0.023,0.131,0.034,0.263,0.034,0.397
	c0,0.288-0.054,0.544-0.162,0.769H9.137c-0.018-0.081-0.031-0.171-0.04-0.27c-0.027-0.162-0.041-0.373-0.041-0.634
	c0-0.521,0.079-0.973,0.236-1.354c0.157-0.382,0.359-0.719,0.606-1.011c0.247-0.292,0.525-0.548,0.836-0.768
	c0.309-0.22,0.617-0.434,0.923-0.64c0.297-0.198,0.546-0.378,0.748-0.539c0.202-0.162,0.366-0.317,0.492-0.466
	c0.126-0.147,0.216-0.303,0.269-0.465c0.054-0.161,0.081-0.351,0.081-0.565c0-0.413-0.144-0.715-0.432-0.903
	c-0.287-0.188-0.674-0.283-1.159-0.283c-0.233,0-0.456,0.016-0.667,0.047c-0.211,0.032-0.397,0.066-0.559,0.102
	C10.242,24.295,10.063,24.344,9.892,24.398z"/>
<path style="&st0;" d="M2.757,49.865c-0.171-0.477-0.171-0.93,0-1.361c0.907-0.09,1.626-0.316,2.156-0.681
	c0.53-0.364,0.903-0.928,1.119-1.691c-0.198,0.054-0.411,0.097-0.641,0.128c-0.229,0.031-0.483,0.047-0.762,0.047
	c-0.386,0-0.752-0.052-1.099-0.154c-0.346-0.104-0.646-0.27-0.902-0.499c-0.257-0.229-0.459-0.525-0.606-0.89
	C1.874,44.399,1.8,43.957,1.8,43.436c0-0.997,0.276-1.725,0.829-2.183c0.553-0.459,1.31-0.688,2.27-0.688
	c0.953,0,1.707,0.285,2.265,0.855C7.721,41.991,8,42.906,8,44.164c0,0.943-0.117,1.761-0.351,2.453
	c-0.233,0.691-0.573,1.271-1.018,1.738c-0.445,0.468-0.993,0.822-1.645,1.065C4.336,49.663,3.593,49.812,2.757,49.865z
	 M3.552,43.436c0,0.297,0.034,0.544,0.102,0.742c0.067,0.197,0.161,0.356,0.282,0.479c0.122,0.121,0.268,0.206,0.438,0.256
	c0.171,0.049,0.354,0.074,0.553,0.074c0.251,0,0.492-0.022,0.721-0.067c0.229-0.045,0.425-0.09,0.587-0.135
	c0.009-0.108,0.016-0.216,0.02-0.324c0.005-0.107,0.007-0.224,0.007-0.35c0-0.818-0.123-1.398-0.37-1.739
	c-0.247-0.341-0.578-0.512-0.991-0.512c-0.413,0-0.741,0.123-0.983,0.37C3.673,42.477,3.552,42.879,3.552,43.436z"/>
<path style="&st0;" d="M9.398,49.758c-0.054,0.018-0.126,0.035-0.216,0.054c-0.071,0.018-0.161,0.031-0.27,0.04
	c-0.107,0.009-0.229,0.014-0.363,0.014c-0.153,0-0.281-0.005-0.385-0.014c-0.104-0.009-0.19-0.022-0.263-0.04
	c-0.081-0.019-0.148-0.036-0.202-0.054v-1.551c0.054-0.018,0.121-0.035,0.202-0.054c0.072-0.018,0.159-0.031,0.263-0.04
	C8.269,48.104,8.396,48.1,8.55,48.1c0.135,0,0.256,0.005,0.363,0.014c0.108,0.009,0.198,0.022,0.27,0.04
	c0.09,0.019,0.162,0.036,0.216,0.054V49.758z"/>
<path style="&st1;" d="M13.424,50c-0.548,0-1.033-0.088-1.456-0.263c-0.422-0.176-0.779-0.454-1.071-0.836
	c-0.292-0.382-0.515-0.871-0.667-1.469C10.076,46.835,10,46.118,10,45.282c0-1.653,0.297-2.853,0.89-3.599
	c0.594-0.745,1.438-1.118,2.534-1.118c0.548,0,1.035,0.087,1.463,0.263c0.426,0.175,0.788,0.454,1.085,0.835
	c0.296,0.383,0.521,0.872,0.674,1.47c0.152,0.598,0.229,1.314,0.229,2.149c0,0.836-0.076,1.553-0.229,2.15
	c-0.153,0.598-0.378,1.087-0.674,1.469c-0.297,0.382-0.659,0.66-1.085,0.836C14.459,49.912,13.972,50,13.424,50z M13.424,41.994
	c-0.252,0-0.479,0.042-0.681,0.128c-0.202,0.085-0.373,0.249-0.512,0.492c-0.14,0.242-0.245,0.577-0.317,1.004
	c-0.072,0.427-0.108,0.981-0.108,1.664c0,0.674,0.035,1.225,0.108,1.651c0.072,0.427,0.178,0.762,0.317,1.004
	c0.139,0.243,0.31,0.409,0.512,0.499c0.202,0.09,0.429,0.135,0.681,0.135c0.261,0,0.489-0.045,0.688-0.135
	c0.197-0.09,0.364-0.256,0.499-0.499c0.135-0.242,0.237-0.577,0.309-1.004c0.072-0.427,0.107-0.978,0.107-1.651
	c0-0.683-0.035-1.237-0.107-1.664c-0.072-0.427-0.175-0.762-0.309-1.004c-0.135-0.243-0.302-0.407-0.499-0.492
	C13.913,42.036,13.685,41.994,13.424,41.994z"/>
<g>
	<path style="&st0;" d="M4.903,64c-0.465,0-0.876-0.074-1.235-0.223c-0.357-0.149-0.661-0.385-0.908-0.709
		c-0.248-0.324-0.437-0.738-0.565-1.245C2.064,61.316,2,60.708,2,60c0-1.402,0.252-2.419,0.754-3.052
		C3.258,56.316,3.973,56,4.903,56c0.464,0,0.877,0.073,1.24,0.223c0.361,0.148,0.668,0.385,0.92,0.708
		c0.251,0.325,0.441,0.739,0.572,1.246C7.764,58.684,7.829,59.292,7.829,60s-0.064,1.316-0.193,1.823
		c-0.13,0.507-0.321,0.921-0.572,1.245c-0.251,0.324-0.559,0.559-0.92,0.709C5.781,63.926,5.368,64,4.903,64z M4.903,57.212
		c-0.214,0-0.406,0.035-0.577,0.108c-0.171,0.071-0.316,0.211-0.434,0.417c-0.118,0.205-0.208,0.489-0.269,0.852
		C3.562,58.95,3.532,59.421,3.532,60c0,0.571,0.03,1.038,0.091,1.399c0.061,0.362,0.151,0.646,0.269,0.852
		c0.118,0.206,0.263,0.347,0.434,0.423c0.171,0.076,0.363,0.114,0.577,0.114c0.221,0,0.415-0.038,0.583-0.114
		c0.167-0.076,0.309-0.217,0.423-0.423c0.114-0.205,0.201-0.489,0.263-0.852C6.233,61.038,6.263,60.571,6.263,60
		c0-0.579-0.03-1.05-0.091-1.411c-0.062-0.362-0.148-0.646-0.263-0.852c-0.114-0.206-0.256-0.346-0.423-0.417
		C5.318,57.247,5.125,57.212,4.903,57.212z"/>
</g>
<g>
	<path style="&st1;" d="M12.022,63.564c0.486-0.126,0.9-0.304,1.241-0.535c0.341-0.231,0.653-0.539,0.935-0.924
		c0.047-0.015,0.106-0.031,0.176-0.047c0.063-0.016,0.137-0.029,0.223-0.042C14.684,62.006,14.794,62,14.928,62
		c0.125,0,0.233,0.006,0.323,0.017c0.09,0.013,0.167,0.026,0.229,0.042c0.071,0.016,0.134,0.032,0.189,0.047v7.789
		c-0.047,0.022-0.106,0.042-0.176,0.059c-0.063,0.016-0.141,0.027-0.235,0.035C15.163,69.996,15.053,70,14.928,70
		c-0.118,0-0.226-0.004-0.324-0.012c-0.098-0.008-0.178-0.019-0.241-0.035c-0.079-0.017-0.145-0.036-0.2-0.059v-4.506
		c0-0.291,0.006-0.558,0.017-0.801c0.012-0.243,0.025-0.466,0.042-0.671c-0.275,0.228-0.571,0.41-0.888,0.548
		c-0.318,0.137-0.637,0.245-0.959,0.323c-0.141-0.142-0.245-0.321-0.312-0.541C11.996,64.027,11.982,63.8,12.022,63.564z"/>
</g>
<g>
	<path style="&st0;" d="M11.328,58.121c0.063-0.019,0.135-0.036,0.216-0.054c0.072-0.019,0.157-0.034,0.256-0.048
		c0.1-0.014,0.216-0.02,0.351-0.02s0.256,0.006,0.364,0.02c0.108,0.014,0.197,0.029,0.27,0.048c0.09,0.018,0.162,0.035,0.216,0.054
		L8.512,68.62c-0.063,0.027-0.135,0.05-0.216,0.067c-0.072,0.019-0.16,0.032-0.263,0.041c-0.104,0.009-0.218,0.014-0.344,0.014
		c-0.145,0-0.268-0.005-0.371-0.014s-0.19-0.022-0.263-0.041c-0.09-0.018-0.162-0.04-0.216-0.067L11.328,58.121z"/>
</g>
<g>
	<path style="&st1;" d="M11.026,78c0.04,0.149,0.067,0.304,0.078,0.463c0.012,0.158,0.014,0.313,0.006,0.464
		c-0.016,0.502-0.101,0.955-0.255,1.355c-0.153,0.402-0.339,0.783-0.557,1.145C10.079,81.79,9.847,82.153,9.6,82.52
		c-0.247,0.366-0.477,0.762-0.691,1.185c-0.214,0.424-0.39,0.896-0.527,1.416c-0.138,0.521-0.207,1.121-0.207,1.8
		C7.957,86.973,7.714,87,7.447,87c-0.275,0-0.521-0.027-0.74-0.08c0-0.723,0.059-1.36,0.176-1.912
		C7,84.457,7.152,83.965,7.338,83.532c0.186-0.433,0.392-0.82,0.619-1.165c0.226-0.345,0.445-0.67,0.655-0.979
		c0.21-0.309,0.403-0.615,0.577-0.919c0.173-0.306,0.301-0.633,0.381-0.987H5.943c-0.025-0.053-0.045-0.119-0.061-0.198
		c-0.017-0.07-0.029-0.149-0.037-0.238c-0.008-0.088-0.012-0.193-0.012-0.317c0-0.123,0.004-0.229,0.012-0.317
		c0.008-0.088,0.02-0.164,0.037-0.225C5.898,78.114,5.918,78.053,5.943,78H11.026z"/>
</g>
<path style="&st0;" d="M12.535,114.165c0,0.568-0.076,1.028-0.227,1.383c-0.15,0.354-0.336,0.655-0.556,0.904
	c-0.22,0.25-0.464,0.46-0.731,0.634c-0.267,0.174-0.51,0.36-0.731,0.558c-0.221,0.197-0.406,0.426-0.556,0.687
	c-0.151,0.261-0.227,0.595-0.227,1.001c-0.047,0.033-0.11,0.068-0.191,0.104c-0.069,0.022-0.156,0.045-0.261,0.069
	c-0.103,0.022-0.226,0.033-0.364,0.033c-0.14,0-0.261-0.011-0.366-0.033c-0.104-0.024-0.198-0.047-0.278-0.069
	c-0.093-0.036-0.169-0.071-0.227-0.104c0-0.604,0.062-1.093,0.183-1.47c0.122-0.377,0.272-0.688,0.452-0.932
	c0.18-0.243,0.377-0.445,0.592-0.608c0.214-0.162,0.411-0.332,0.591-0.513c0.179-0.181,0.33-0.386,0.453-0.617
	c0.121-0.232,0.183-0.545,0.183-0.939c0-0.302-0.046-0.548-0.14-0.739c-0.093-0.191-0.22-0.339-0.383-0.443
	c-0.161-0.104-0.348-0.177-0.556-0.217c-0.209-0.042-0.435-0.062-0.678-0.062c-0.302,0-0.563,0.02-0.784,0.062
	c-0.219,0.04-0.411,0.089-0.573,0.147c-0.185,0.058-0.343,0.121-0.47,0.191c-0.521-0.383-0.747-0.905-0.678-1.565
	c0.197-0.115,0.441-0.22,0.731-0.313c0.243-0.081,0.542-0.153,0.896-0.217C7.992,111.031,8.395,111,8.848,111
	c0.486,0,0.954,0.055,1.4,0.165c0.446,0.109,0.84,0.29,1.182,0.539c0.343,0.25,0.613,0.573,0.809,0.975
	C12.436,113.078,12.535,113.573,12.535,114.165z"/>
<path style="&st1;" d="M9.769,122.861c-0.069,0.022-0.163,0.046-0.278,0.069c-0.092,0.022-0.208,0.04-0.348,0.052
	C9.004,122.994,8.848,123,8.673,123c-0.198,0-0.363-0.006-0.496-0.018c-0.132-0.012-0.246-0.029-0.339-0.052
	c-0.104-0.023-0.191-0.047-0.261-0.069v-2.001c0.069-0.022,0.156-0.045,0.261-0.069c0.093-0.022,0.207-0.04,0.339-0.052
	c0.133-0.012,0.298-0.018,0.496-0.018c0.174,0,0.331,0.006,0.469,0.018c0.14,0.012,0.256,0.029,0.348,0.052
	c0.116,0.024,0.209,0.047,0.278,0.069V122.861z"/>
<path style="&st2;" d="M29.486,114.165c0,0.568-0.075,1.028-0.226,1.383c-0.149,0.354-0.336,0.655-0.556,0.904
	c-0.221,0.25-0.464,0.46-0.73,0.634c-0.267,0.174-0.511,0.36-0.731,0.558c-0.221,0.197-0.405,0.426-0.556,0.687
	c-0.151,0.261-0.227,0.595-0.227,1.001c-0.047,0.033-0.109,0.068-0.191,0.104c-0.069,0.022-0.156,0.045-0.261,0.069
	c-0.103,0.022-0.226,0.033-0.364,0.033c-0.14,0-0.261-0.011-0.365-0.033c-0.104-0.024-0.198-0.047-0.279-0.069
	c-0.093-0.036-0.168-0.071-0.227-0.104c0-0.604,0.062-1.093,0.183-1.47c0.122-0.377,0.272-0.688,0.452-0.932
	c0.181-0.243,0.377-0.445,0.593-0.608c0.214-0.162,0.411-0.332,0.591-0.513c0.179-0.181,0.33-0.386,0.452-0.617
	c0.121-0.232,0.184-0.545,0.184-0.939c0-0.302-0.047-0.548-0.141-0.739c-0.093-0.191-0.221-0.339-0.383-0.443
	c-0.161-0.104-0.348-0.177-0.556-0.217c-0.209-0.042-0.435-0.062-0.678-0.062c-0.303,0-0.563,0.02-0.784,0.062
	c-0.219,0.04-0.411,0.089-0.573,0.147c-0.186,0.058-0.343,0.121-0.47,0.191c-0.521-0.383-0.747-0.905-0.678-1.565
	c0.196-0.115,0.441-0.22,0.73-0.313c0.243-0.081,0.542-0.153,0.896-0.217C24.944,111.031,25.348,111,25.8,111
	c0.486,0,0.954,0.055,1.399,0.165c0.446,0.109,0.841,0.29,1.183,0.539c0.343,0.25,0.612,0.573,0.809,0.975
	C29.389,113.078,29.486,113.573,29.486,114.165z"/>
<path style="&st3;" d="M26.721,122.861c-0.069,0.022-0.162,0.046-0.278,0.069c-0.092,0.022-0.208,0.04-0.348,0.052
	C25.956,122.994,25.8,123,25.626,123c-0.198,0-0.363-0.006-0.497-0.018c-0.132-0.012-0.245-0.029-0.339-0.052
	c-0.105-0.023-0.191-0.047-0.261-0.069v-2.001c0.069-0.022,0.156-0.045,0.261-0.069c0.094-0.022,0.207-0.04,0.339-0.052
	c0.134-0.012,0.299-0.018,0.497-0.018c0.174,0,0.33,0.006,0.469,0.018c0.14,0.012,0.256,0.029,0.348,0.052
	c0.116,0.024,0.209,0.047,0.278,0.069V122.861z"/>
<rect x="2" y="74" style="&st0;" width="14" height="2"/>
<g>
	<path style="&st0;" d="M9,142c-3.859,0-7-3.141-7-7s3.141-7,7-7c3.859,0,7,3.141,7,7S12.859,142,9,142z M9,130
		c-2.757,0-5,2.243-5,5s2.243,5,5,5c2.757,0,5-2.243,5-5S11.757,130,9,130z"/>
</g>
<g>
	<path style="&st0;" d="M10.152,159.905l-0.326-1.973c0.575-0.096,1.124-0.289,1.631-0.577l0.986,1.74
		C11.731,159.499,10.961,159.771,10.152,159.905z M7.729,159.885c-0.806-0.148-1.571-0.434-2.276-0.85l1.016-1.723
		c0.503,0.296,1.049,0.5,1.622,0.605L7.729,159.885z M14.317,157.554l-1.519-1.301c0.381-0.444,0.679-0.946,0.885-1.492l1.871,0.707
		C15.266,156.23,14.85,156.933,14.317,157.554z M3.607,157.463c-0.522-0.63-0.928-1.34-1.202-2.109l1.883-0.674
		c0.196,0.55,0.485,1.057,0.858,1.506L3.607,157.463z M14,153.069V153c0-0.587-0.101-1.161-0.299-1.708l1.881-0.682
		C15.859,151.376,16,152.181,16,153L14,153.069z M4.001,152.969l-2-0.008c0.003-0.82,0.148-1.624,0.433-2.39l1.875,0.693
		C4.107,151.811,4.003,152.384,4.001,152.969z M12.835,149.792c-0.377-0.449-0.822-0.825-1.325-1.116l1.002-1.73
		c0.704,0.408,1.329,0.934,1.857,1.562L12.835,149.792z M5.183,149.77l-1.525-1.295c0.529-0.623,1.156-1.146,1.863-1.551
		l0.996,1.734C6.011,148.949,5.562,149.323,5.183,149.77z M9.883,148.078c-0.568-0.099-1.169-0.104-1.737-0.006l-0.34-1.971
		c0.792-0.138,1.629-0.134,2.425,0.008L9.883,148.078z"/>
</g>
<g>
	<path style="&st1;" d="M8.761,132.181c0.355,0,0.676,0.052,0.964,0.155c0.287,0.104,0.531,0.27,0.732,0.494
		c0.201,0.225,0.355,0.516,0.462,0.874c0.107,0.357,0.161,0.789,0.161,1.296s-0.054,0.939-0.161,1.296
		c-0.107,0.358-0.261,0.649-0.462,0.874c-0.202,0.224-0.446,0.389-0.732,0.493c-0.288,0.104-0.609,0.156-0.964,0.156H6.92v-5.639
		H8.761z M8.69,136.989c0.188,0,0.363-0.025,0.525-0.078c0.162-0.052,0.301-0.151,0.418-0.298c0.118-0.146,0.209-0.349,0.274-0.607
		c0.065-0.258,0.098-0.593,0.098-1.006s-0.033-0.749-0.098-1.011c-0.065-0.261-0.156-0.463-0.274-0.607
		c-0.117-0.143-0.257-0.242-0.418-0.294c-0.162-0.053-0.337-0.079-0.525-0.079H7.922v3.98H8.69z"/>
</g>
<g>
	<path style="&st1;" d="M8.761,150.181c0.355,0,0.676,0.052,0.964,0.155c0.287,0.104,0.531,0.27,0.732,0.494
		c0.201,0.225,0.355,0.516,0.462,0.874c0.107,0.357,0.161,0.789,0.161,1.296s-0.054,0.939-0.161,1.296
		c-0.107,0.358-0.261,0.649-0.462,0.874c-0.202,0.224-0.446,0.389-0.732,0.493c-0.288,0.104-0.609,0.156-0.964,0.156H6.92v-5.639
		H8.761z M8.69,154.989c0.188,0,0.363-0.025,0.525-0.078c0.162-0.052,0.301-0.151,0.418-0.298c0.118-0.146,0.209-0.349,0.274-0.607
		c0.065-0.258,0.098-0.593,0.098-1.006s-0.033-0.749-0.098-1.011c-0.065-0.261-0.156-0.463-0.274-0.607
		c-0.117-0.143-0.257-0.242-0.418-0.294c-0.162-0.053-0.337-0.079-0.525-0.079H7.922v3.98H8.69z"/>
</g>
<g>
	<path style="&st2;" d="M20.539,7.18c0.197-0.099,0.423-0.188,0.674-0.27c0.216-0.071,0.472-0.135,0.768-0.188
		c0.297-0.054,0.624-0.081,0.984-0.081c0.979,0,1.673,0.207,2.082,0.62c0.408,0.413,0.613,1.043,0.613,1.887v4.61
		c-0.036,0.018-0.086,0.035-0.148,0.054c-0.054,0.018-0.124,0.031-0.209,0.04c-0.085,0.009-0.186,0.014-0.303,0.014
		c-0.108,0-0.202-0.005-0.283-0.014c-0.081-0.009-0.153-0.023-0.216-0.04c-0.072-0.018-0.135-0.036-0.189-0.054l-0.257-0.729
		c-0.152,0.314-0.397,0.556-0.734,0.722C22.985,13.917,22.574,14,22.089,14c-0.646,0-1.156-0.19-1.529-0.573
		C20.187,13.045,20,12.459,20,11.668c0-0.764,0.227-1.312,0.681-1.645c0.454-0.332,1.102-0.498,1.947-0.498
		c0.234,0,0.466,0.007,0.694,0.02c0.229,0.014,0.442,0.029,0.641,0.048V9.296c0-0.171-0.019-0.33-0.054-0.479
		c-0.036-0.148-0.1-0.278-0.19-0.391c-0.09-0.112-0.213-0.2-0.37-0.263s-0.357-0.095-0.6-0.095c-0.225,0-0.44,0.016-0.647,0.047
		c-0.207,0.032-0.391,0.07-0.553,0.115c-0.189,0.045-0.363,0.099-0.525,0.161c-0.054-0.026-0.099-0.063-0.135-0.107
		c-0.09-0.09-0.171-0.22-0.242-0.391c-0.046-0.09-0.077-0.178-0.095-0.263c-0.018-0.086-0.027-0.164-0.027-0.236
		C20.517,7.314,20.521,7.243,20.539,7.18z M23.963,10.711c-0.171-0.017-0.351-0.031-0.539-0.04c-0.188-0.009-0.382-0.014-0.58-0.014
		c-0.342,0-0.608,0.076-0.802,0.229c-0.193,0.152-0.29,0.413-0.29,0.781c0,0.387,0.086,0.656,0.257,0.809
		c0.17,0.153,0.408,0.23,0.714,0.23c0.233,0,0.432-0.049,0.593-0.149c0.162-0.099,0.29-0.225,0.385-0.377
		c0.094-0.153,0.161-0.323,0.202-0.513c0.04-0.189,0.061-0.372,0.061-0.553V10.711z"/>
	<path style="&st3;" d="M29.698,7.342c0.188-0.233,0.432-0.409,0.728-0.525c0.297-0.117,0.661-0.176,1.092-0.176
		c0.378,0,0.719,0.063,1.024,0.188c0.306,0.126,0.568,0.333,0.789,0.62c0.22,0.288,0.388,0.667,0.505,1.14
		c0.117,0.472,0.176,1.049,0.176,1.731c0,0.692-0.059,1.271-0.176,1.739c-0.117,0.467-0.285,0.845-0.505,1.132
		c-0.221,0.287-0.483,0.494-0.789,0.62C32.236,13.938,31.896,14,31.518,14c-0.431,0-0.795-0.059-1.092-0.175
		c-0.296-0.117-0.539-0.292-0.728-0.526v0.459c-0.054,0.018-0.126,0.035-0.216,0.054c-0.072,0.018-0.161,0.031-0.27,0.04
		c-0.107,0.009-0.233,0.014-0.377,0.014c-0.144,0-0.267-0.005-0.371-0.014c-0.104-0.009-0.191-0.023-0.263-0.04
		c-0.081-0.018-0.148-0.036-0.202-0.054V3.864c0.054-0.018,0.121-0.036,0.202-0.054c0.071-0.019,0.159-0.031,0.263-0.041
		c0.104-0.009,0.227-0.013,0.371-0.013c0.144,0,0.27,0.004,0.377,0.013c0.108,0.01,0.197,0.022,0.27,0.041
		c0.09,0.018,0.162,0.036,0.216,0.054V7.342z M32.259,10.32c0-0.477-0.031-0.864-0.094-1.166c-0.063-0.301-0.15-0.534-0.263-0.7
		c-0.113-0.167-0.252-0.281-0.418-0.344c-0.167-0.063-0.357-0.095-0.573-0.095c-0.377,0-0.674,0.135-0.89,0.404
		c-0.216,0.27-0.323,0.62-0.323,1.052v1.698c0,0.431,0.108,0.781,0.323,1.051c0.216,0.269,0.513,0.404,0.89,0.404
		c0.216,0,0.406-0.031,0.573-0.094c0.166-0.063,0.305-0.178,0.418-0.344c0.112-0.166,0.199-0.4,0.263-0.701
		C32.228,11.186,32.259,10.797,32.259,10.32z"/>
</g>
<path style="&st2;" d="M20.822,24.627c0.557-0.144,1.031-0.348,1.422-0.613c0.391-0.265,0.748-0.617,1.071-1.058
	c0.054-0.018,0.121-0.036,0.202-0.054c0.072-0.018,0.157-0.034,0.256-0.048c0.099-0.013,0.225-0.02,0.378-0.02
	c0.144,0,0.267,0.007,0.37,0.02c0.104,0.014,0.191,0.029,0.263,0.048c0.081,0.018,0.153,0.036,0.216,0.054v8.923
	c-0.054,0.026-0.121,0.049-0.202,0.067c-0.072,0.018-0.161,0.031-0.27,0.04C24.421,31.995,24.295,32,24.151,32
	c-0.135,0-0.259-0.005-0.371-0.014c-0.112-0.009-0.204-0.022-0.276-0.04c-0.09-0.019-0.166-0.041-0.229-0.067v-5.162
	c0-0.333,0.007-0.639,0.02-0.917c0.014-0.278,0.029-0.534,0.048-0.769c-0.316,0.261-0.654,0.47-1.018,0.627
	c-0.364,0.157-0.73,0.281-1.099,0.371c-0.162-0.162-0.281-0.368-0.358-0.62C20.793,25.157,20.777,24.896,20.822,24.627z"/>
<path style="&st2;" d="M27.892,24.398c-0.18-0.143-0.313-0.319-0.397-0.526c-0.086-0.206-0.114-0.436-0.088-0.687
	c0.216-0.09,0.459-0.171,0.729-0.243c0.225-0.063,0.489-0.119,0.795-0.168c0.306-0.05,0.638-0.074,0.997-0.074
	c0.423,0,0.82,0.047,1.193,0.142c0.372,0.094,0.698,0.242,0.977,0.444c0.279,0.202,0.499,0.465,0.661,0.788
	C32.919,24.398,33,24.789,33,25.247c0,0.432-0.059,0.802-0.175,1.112c-0.117,0.309-0.288,0.586-0.513,0.829
	c-0.225,0.242-0.494,0.47-0.809,0.681c-0.314,0.211-0.674,0.438-1.078,0.681c-0.188,0.116-0.384,0.233-0.586,0.351
	c-0.202,0.116-0.387,0.242-0.553,0.377c-0.167,0.135-0.306,0.283-0.418,0.444c-0.112,0.162-0.169,0.347-0.169,0.553
	c0,0.045,0.009,0.113,0.027,0.202h4.003c0.063,0.108,0.105,0.227,0.128,0.357c0.023,0.131,0.034,0.263,0.034,0.397
	c0,0.288-0.054,0.544-0.162,0.769h-5.594c-0.018-0.081-0.031-0.171-0.04-0.27c-0.027-0.162-0.041-0.373-0.041-0.634
	c0-0.521,0.079-0.973,0.236-1.354c0.157-0.382,0.359-0.719,0.606-1.011c0.247-0.292,0.525-0.548,0.836-0.768
	c0.309-0.22,0.617-0.434,0.923-0.64c0.297-0.198,0.546-0.378,0.748-0.539c0.202-0.162,0.366-0.317,0.492-0.466
	c0.126-0.147,0.216-0.303,0.27-0.465c0.054-0.161,0.081-0.351,0.081-0.565c0-0.413-0.143-0.715-0.432-0.903
	c-0.287-0.188-0.674-0.283-1.159-0.283c-0.233,0-0.456,0.016-0.667,0.047c-0.211,0.032-0.397,0.066-0.559,0.102
	C28.242,24.295,28.063,24.344,27.892,24.398z"/>
<path style="&st2;" d="M20.757,49.865c-0.171-0.477-0.171-0.93,0-1.361c0.907-0.09,1.626-0.316,2.156-0.681
	c0.53-0.364,0.903-0.928,1.119-1.691c-0.198,0.054-0.411,0.097-0.641,0.128c-0.229,0.031-0.483,0.047-0.762,0.047
	c-0.386,0-0.752-0.052-1.099-0.154c-0.346-0.104-0.646-0.27-0.902-0.499c-0.257-0.229-0.459-0.525-0.606-0.89
	c-0.148-0.364-0.223-0.807-0.223-1.328c0-0.997,0.276-1.725,0.829-2.183c0.553-0.459,1.31-0.688,2.271-0.688
	c0.953,0,1.707,0.285,2.265,0.855C25.721,41.991,26,42.906,26,44.164c0,0.943-0.117,1.761-0.351,2.453
	c-0.233,0.691-0.573,1.271-1.018,1.738c-0.445,0.468-0.993,0.822-1.644,1.065C22.336,49.663,21.593,49.812,20.757,49.865z
	 M21.552,43.436c0,0.297,0.034,0.544,0.101,0.742c0.067,0.197,0.161,0.356,0.282,0.479c0.122,0.121,0.268,0.206,0.439,0.256
	c0.171,0.049,0.354,0.074,0.553,0.074c0.251,0,0.492-0.022,0.721-0.067c0.23-0.045,0.425-0.09,0.587-0.135
	c0.009-0.108,0.016-0.216,0.02-0.324c0.005-0.107,0.007-0.224,0.007-0.35c0-0.818-0.123-1.398-0.37-1.739
	c-0.247-0.341-0.578-0.512-0.991-0.512c-0.413,0-0.741,0.123-0.983,0.37C21.673,42.477,21.552,42.879,21.552,43.436z"/>
<path style="&st2;" d="M27.398,49.758c-0.054,0.018-0.126,0.035-0.216,0.054c-0.071,0.018-0.161,0.031-0.27,0.04
	c-0.107,0.009-0.228,0.014-0.363,0.014c-0.153,0-0.281-0.005-0.385-0.014c-0.104-0.009-0.19-0.022-0.263-0.04
	c-0.081-0.019-0.148-0.036-0.202-0.054v-1.551c0.054-0.018,0.121-0.035,0.202-0.054c0.072-0.018,0.159-0.031,0.263-0.04
	c0.104-0.009,0.231-0.014,0.385-0.014c0.135,0,0.256,0.005,0.363,0.014c0.108,0.009,0.198,0.022,0.27,0.04
	c0.09,0.019,0.162,0.036,0.216,0.054V49.758z"/>
<path style="&st3;" d="M31.424,50c-0.548,0-1.033-0.088-1.456-0.263c-0.422-0.176-0.779-0.454-1.071-0.836
	c-0.292-0.382-0.515-0.871-0.667-1.469C28.076,46.835,28,46.118,28,45.282c0-1.653,0.297-2.853,0.89-3.599
	c0.594-0.745,1.438-1.118,2.534-1.118c0.548,0,1.035,0.087,1.463,0.263c0.426,0.175,0.788,0.454,1.085,0.835
	c0.296,0.383,0.521,0.872,0.674,1.47c0.152,0.598,0.229,1.314,0.229,2.149c0,0.836-0.076,1.553-0.229,2.15
	c-0.153,0.598-0.378,1.087-0.674,1.469c-0.297,0.382-0.659,0.66-1.085,0.836C32.459,49.912,31.972,50,31.424,50z M31.424,41.994
	c-0.252,0-0.479,0.042-0.681,0.128c-0.202,0.085-0.373,0.249-0.512,0.492c-0.14,0.242-0.245,0.577-0.317,1.004
	c-0.072,0.427-0.108,0.981-0.108,1.664c0,0.674,0.035,1.225,0.108,1.651c0.072,0.427,0.178,0.762,0.317,1.004
	c0.139,0.243,0.31,0.409,0.512,0.499c0.202,0.09,0.429,0.135,0.681,0.135c0.261,0,0.489-0.045,0.688-0.135
	c0.197-0.09,0.364-0.256,0.499-0.499c0.135-0.242,0.237-0.577,0.309-1.004c0.072-0.427,0.107-0.978,0.107-1.651
	c0-0.683-0.035-1.237-0.107-1.664c-0.072-0.427-0.175-0.762-0.309-1.004c-0.135-0.243-0.302-0.407-0.499-0.492
	C31.913,42.036,31.685,41.994,31.424,41.994z"/>
<g>
	<path style="&st2;" d="M22.903,64c-0.465,0-0.876-0.074-1.234-0.223c-0.358-0.149-0.661-0.385-0.909-0.709
		c-0.247-0.324-0.436-0.738-0.566-1.245C20.065,61.316,20,60.708,20,60c0-1.402,0.252-2.419,0.755-3.052
		C21.258,56.316,21.974,56,22.903,56c0.465,0,0.878,0.073,1.24,0.223c0.361,0.148,0.668,0.385,0.92,0.708
		c0.251,0.325,0.441,0.739,0.571,1.246c0.13,0.507,0.194,1.115,0.194,1.823s-0.064,1.316-0.194,1.823
		c-0.13,0.507-0.32,0.921-0.571,1.245c-0.252,0.324-0.559,0.559-0.92,0.709C23.781,63.926,23.368,64,22.903,64z M22.903,57.212
		c-0.214,0-0.406,0.035-0.577,0.108c-0.172,0.071-0.316,0.211-0.434,0.417c-0.119,0.205-0.208,0.489-0.27,0.852
		c-0.061,0.361-0.091,0.832-0.091,1.411c0,0.571,0.029,1.038,0.091,1.399c0.062,0.362,0.15,0.646,0.27,0.852
		c0.117,0.206,0.262,0.347,0.434,0.423c0.171,0.076,0.363,0.114,0.577,0.114c0.221,0,0.415-0.038,0.583-0.114
		c0.167-0.076,0.309-0.217,0.423-0.423c0.114-0.205,0.201-0.489,0.263-0.852c0.062-0.361,0.091-0.828,0.091-1.399
		c0-0.579-0.029-1.05-0.091-1.411c-0.062-0.362-0.149-0.646-0.263-0.852c-0.114-0.206-0.256-0.346-0.423-0.417
		C23.318,57.247,23.124,57.212,22.903,57.212z"/>
</g>
<g>
	<path style="&st3;" d="M30.021,63.564c0.486-0.126,0.9-0.304,1.241-0.535c0.341-0.231,0.653-0.539,0.936-0.924
		c0.047-0.015,0.105-0.031,0.176-0.047c0.063-0.016,0.138-0.029,0.224-0.042C32.684,62.006,32.794,62,32.928,62
		c0.125,0,0.232,0.006,0.323,0.017c0.09,0.013,0.167,0.026,0.229,0.042c0.07,0.016,0.134,0.032,0.188,0.047v7.789
		c-0.047,0.022-0.106,0.042-0.177,0.059c-0.063,0.016-0.141,0.027-0.235,0.035C33.163,69.996,33.053,70,32.928,70
		c-0.117,0-0.226-0.004-0.324-0.012c-0.098-0.008-0.178-0.019-0.241-0.035c-0.078-0.017-0.145-0.036-0.199-0.059v-4.506
		c0-0.291,0.006-0.558,0.018-0.801c0.012-0.243,0.025-0.466,0.041-0.671c-0.275,0.228-0.571,0.41-0.888,0.548
		c-0.318,0.137-0.638,0.245-0.959,0.323c-0.142-0.142-0.246-0.321-0.313-0.541C29.996,64.027,29.982,63.8,30.021,63.564z"/>
</g>
<g>
	<path style="&st2;" d="M29.328,58.121c0.063-0.019,0.135-0.036,0.216-0.054c0.072-0.019,0.157-0.034,0.256-0.048
		c0.1-0.014,0.216-0.02,0.351-0.02s0.256,0.006,0.364,0.02c0.108,0.014,0.197,0.029,0.27,0.048c0.09,0.018,0.162,0.035,0.216,0.054
		L26.512,68.62c-0.063,0.027-0.135,0.05-0.216,0.067c-0.072,0.019-0.16,0.032-0.263,0.041c-0.103,0.009-0.218,0.014-0.344,0.014
		c-0.145,0-0.268-0.005-0.371-0.014c-0.104-0.009-0.191-0.022-0.263-0.041c-0.09-0.018-0.162-0.04-0.216-0.067L29.328,58.121z"/>
</g>
<g>
	<path style="&st2;" d="M27,142c-3.859,0-7-3.141-7-7s3.141-7,7-7s7,3.141,7,7S30.859,142,27,142z M27,130c-2.757,0-5,2.243-5,5
		s2.243,5,5,5s5-2.243,5-5S29.757,130,27,130z"/>
</g>
<g>
	<path style="&st2;" d="M28.152,159.905l-0.326-1.973c0.575-0.096,1.124-0.289,1.631-0.577l0.986,1.74
		C29.731,159.499,28.961,159.771,28.152,159.905z M25.729,159.885c-0.806-0.148-1.571-0.434-2.276-0.85l1.016-1.723
		c0.503,0.296,1.049,0.5,1.622,0.605L25.729,159.885z M32.317,157.554l-1.52-1.301c0.381-0.444,0.679-0.946,0.885-1.492l1.871,0.707
		C33.266,156.23,32.85,156.933,32.317,157.554z M21.607,157.463c-0.522-0.63-0.928-1.34-1.202-2.109l1.883-0.674
		c0.196,0.55,0.485,1.057,0.858,1.506L21.607,157.463z M32,153.069V153c0-0.587-0.101-1.161-0.299-1.708l1.881-0.682
		C33.859,151.376,34,152.181,34,153L32,153.069z M22.001,152.969l-2-0.008c0.003-0.82,0.148-1.624,0.433-2.39l1.875,0.693
		C22.107,151.811,22.003,152.384,22.001,152.969z M30.835,149.792c-0.377-0.449-0.822-0.825-1.325-1.116l1.002-1.73
		c0.704,0.408,1.329,0.934,1.856,1.562L30.835,149.792z M23.183,149.77l-1.525-1.295c0.529-0.623,1.156-1.146,1.863-1.551
		l0.996,1.734C24.011,148.949,23.562,149.323,23.183,149.77z M27.883,148.078c-0.568-0.099-1.169-0.104-1.737-0.006l-0.34-1.971
		c0.792-0.138,1.629-0.134,2.425,0.008L27.883,148.078z"/>
</g>
<g>
	<path style="&st3;" d="M26.761,132.181c0.354,0,0.676,0.052,0.964,0.155c0.287,0.104,0.531,0.27,0.732,0.494
		c0.2,0.225,0.354,0.516,0.462,0.874c0.107,0.357,0.161,0.789,0.161,1.296s-0.055,0.939-0.161,1.296
		c-0.107,0.358-0.262,0.649-0.462,0.874c-0.201,0.224-0.445,0.389-0.732,0.493c-0.288,0.104-0.609,0.156-0.964,0.156H24.92v-5.639
		H26.761z M26.69,136.989c0.189,0,0.362-0.025,0.524-0.078c0.162-0.052,0.302-0.151,0.419-0.298
		c0.118-0.146,0.209-0.349,0.274-0.607c0.065-0.258,0.098-0.593,0.098-1.006s-0.032-0.749-0.098-1.011
		c-0.065-0.261-0.156-0.463-0.274-0.607c-0.117-0.143-0.257-0.242-0.419-0.294c-0.162-0.053-0.336-0.079-0.524-0.079h-0.767v3.98
		H26.69z"/>
</g>
<g>
	<path style="&st3;" d="M26.761,150.181c0.354,0,0.676,0.052,0.964,0.155c0.287,0.104,0.531,0.27,0.732,0.494
		c0.2,0.225,0.354,0.516,0.462,0.874c0.107,0.357,0.161,0.789,0.161,1.296s-0.055,0.939-0.161,1.296
		c-0.107,0.358-0.262,0.649-0.462,0.874c-0.201,0.224-0.445,0.389-0.732,0.493c-0.288,0.104-0.609,0.156-0.964,0.156H24.92v-5.639
		H26.761z M26.69,154.989c0.189,0,0.362-0.025,0.524-0.078c0.162-0.052,0.302-0.151,0.419-0.298
		c0.118-0.146,0.209-0.349,0.274-0.607c0.065-0.258,0.098-0.593,0.098-1.006s-0.032-0.749-0.098-1.011
		c-0.065-0.261-0.156-0.463-0.274-0.607c-0.117-0.143-0.257-0.242-0.419-0.294c-0.162-0.053-0.336-0.079-0.524-0.079h-0.767v3.98
		H26.69z"/>
</g>
<path style="&st0;" d="M15,77v11H3V77H15 M16,76H2v13h14V76L16,76z"/>
<g>
	<path style="&st2;" d="M29.026,78c0.04,0.149,0.066,0.304,0.078,0.463c0.012,0.158,0.014,0.313,0.006,0.464
		c-0.016,0.502-0.102,0.955-0.255,1.355c-0.153,0.402-0.34,0.783-0.558,1.145c-0.219,0.362-0.45,0.726-0.697,1.092
		c-0.247,0.366-0.478,0.762-0.692,1.185c-0.214,0.424-0.39,0.896-0.527,1.416c-0.138,0.521-0.206,1.121-0.206,1.8
		C25.957,86.973,25.714,87,25.447,87c-0.275,0-0.521-0.027-0.74-0.08c0-0.723,0.059-1.36,0.176-1.912
		c0.118-0.551,0.269-1.043,0.455-1.476c0.185-0.433,0.393-0.82,0.619-1.165c0.226-0.345,0.444-0.67,0.654-0.979
		c0.21-0.309,0.402-0.615,0.577-0.919c0.173-0.306,0.3-0.633,0.381-0.987h-3.626c-0.024-0.053-0.045-0.119-0.061-0.198
		c-0.017-0.07-0.029-0.149-0.037-0.238c-0.008-0.088-0.013-0.193-0.013-0.317c0-0.123,0.005-0.229,0.013-0.317
		c0.008-0.088,0.021-0.164,0.037-0.225c0.016-0.071,0.036-0.133,0.061-0.186H29.026z"/>
</g>
<rect x="20" y="74" style="&st3;" width="14" height="2"/>
<path style="&st3;" d="M33,77v11H21V77H33 M34,76H20v13h14V76L34,76z"/>
<g>
	<path style="&st0;" d="M16.314,96.656c-0.56-0.256-1.22-0.404-1.926-0.404c-0.563,0-1.095,0.095-1.571,0.262
		c0.126-0.022,0.256-0.034,0.392-0.034c1.297,0,2.353,1.056,2.353,2.354c0,1.297-1.056,2.354-2.353,2.354
		c-0.84,0-1.461-0.446-2.314-1.368c-0.264-0.284-0.549-0.615-0.871-0.991l-1.019,1.023c1.366,1.597,2.436,2.774,4.204,2.774
		c1.083,0,2.061-0.454,2.751-1.184c0.645-0.68,1.04-1.598,1.04-2.608C17,98.022,16.747,97.272,16.314,96.656z M4.792,95.041
		c-1.202,0-2.273,0.56-2.969,1.433C1.308,97.121,1,97.94,1,98.833c0,1.081,0.452,2.056,1.178,2.747
		c0.346,0.08,0.714,0.123,1.096,0.123c1.04,0,1.978-0.32,2.646-0.835c-0.358,0.213-0.718,0.318-1.128,0.318
		c-1.297,0-2.353-1.057-2.353-2.354c0-1.283,1.03-2.328,2.307-2.353c0.015-0.001,0.031-0.001,0.046-0.001
		c1.1,0,1.823,0.767,3.185,2.359l1.019-1.023C7.629,96.219,6.56,95.041,4.792,95.041z"/>
	<path style="&st1;" d="M16.314,96.656c-0.56-0.256-1.22-0.404-1.926-0.404c-0.563,0-1.095,0.095-1.571,0.262
		c-0.905,0.165-1.613,0.923-2.793,2.313l-1.019,1.023c-1.37,1.614-2.441,2.774-4.213,2.774c-1.013,0-1.934-0.397-2.613-1.045
		c0.346,0.08,0.714,0.123,1.096,0.123c1.04,0,1.978-0.32,2.646-0.835c0.607-0.36,1.211-1.032,2.057-2.029l1.019-1.023
		c1.37-1.615,2.441-2.774,4.213-2.774C14.493,95.041,15.628,95.68,16.314,96.656z"/>
</g>
<g>
	<path style="&st4;" d="M34.314,96.656c-0.56-0.256-1.22-0.404-1.927-0.404c-0.563,0-1.095,0.095-1.57,0.262
		c0.125-0.022,0.256-0.034,0.391-0.034c1.298,0,2.354,1.056,2.354,2.354c0,1.297-1.056,2.354-2.354,2.354
		c-0.84,0-1.461-0.446-2.313-1.368c-0.264-0.284-0.55-0.615-0.871-0.991l-1.018,1.023c1.366,1.597,2.435,2.774,4.203,2.774
		c1.084,0,2.062-0.454,2.752-1.184c0.645-0.68,1.04-1.598,1.04-2.608C35,98.022,34.746,97.272,34.314,96.656z M22.792,95.041
		c-1.203,0-2.274,0.56-2.969,1.433C19.308,97.121,19,97.94,19,98.833c0,1.081,0.452,2.056,1.178,2.747
		c0.347,0.08,0.715,0.123,1.097,0.123c1.039,0,1.978-0.32,2.646-0.835c-0.358,0.213-0.718,0.318-1.128,0.318
		c-1.298,0-2.354-1.057-2.354-2.354c0-1.283,1.03-2.328,2.307-2.353c0.016-0.001,0.031-0.001,0.047-0.001
		c1.1,0,1.822,0.767,3.185,2.359l1.018-1.023C25.629,96.219,24.56,95.041,22.792,95.041z"/>
	<path style="&st5;" d="M34.314,96.656c-0.56-0.256-1.22-0.404-1.927-0.404c-0.563,0-1.095,0.095-1.57,0.262
		c-0.905,0.165-1.614,0.923-2.794,2.313l-1.018,1.023c-1.37,1.614-2.441,2.774-4.213,2.774c-1.014,0-1.935-0.397-2.614-1.045
		c0.347,0.08,0.715,0.123,1.097,0.123c1.039,0,1.978-0.32,2.646-0.835c0.607-0.36,1.211-1.032,2.057-2.029l1.018-1.023
		c1.37-1.615,2.44-2.774,4.213-2.774C32.492,95.041,33.628,95.68,34.314,96.656z"/>
</g>
<path style="&st6;" d="M47.486,114.165c0,0.568-0.075,1.028-0.227,1.383c-0.149,0.354-0.336,0.655-0.556,0.904
	c-0.221,0.25-0.464,0.46-0.731,0.634c-0.267,0.174-0.511,0.36-0.731,0.558c-0.221,0.197-0.405,0.426-0.556,0.687
	c-0.151,0.261-0.227,0.595-0.227,1.001c-0.047,0.033-0.109,0.068-0.191,0.104c-0.069,0.022-0.156,0.045-0.261,0.069
	c-0.104,0.022-0.226,0.033-0.364,0.033c-0.14,0-0.261-0.011-0.365-0.033c-0.104-0.024-0.198-0.047-0.279-0.069
	c-0.093-0.036-0.168-0.071-0.227-0.104c0-0.604,0.062-1.093,0.183-1.47c0.122-0.377,0.272-0.688,0.452-0.932
	c0.181-0.243,0.377-0.445,0.593-0.608c0.214-0.162,0.411-0.332,0.591-0.513c0.179-0.181,0.33-0.386,0.452-0.617
	c0.121-0.232,0.184-0.545,0.184-0.939c0-0.302-0.047-0.548-0.141-0.739c-0.093-0.191-0.221-0.339-0.383-0.443
	c-0.161-0.104-0.348-0.177-0.556-0.217c-0.209-0.042-0.435-0.062-0.678-0.062c-0.303,0-0.563,0.02-0.784,0.062
	c-0.219,0.04-0.411,0.089-0.573,0.147c-0.186,0.058-0.343,0.121-0.47,0.191c-0.521-0.383-0.747-0.905-0.678-1.565
	c0.196-0.115,0.44-0.22,0.73-0.313c0.243-0.081,0.542-0.153,0.896-0.217C42.944,111.031,43.348,111,43.8,111
	c0.486,0,0.954,0.055,1.399,0.165c0.446,0.109,0.841,0.29,1.183,0.539c0.343,0.25,0.612,0.573,0.809,0.975
	C47.389,113.078,47.486,113.573,47.486,114.165z"/>
<path style="&st6;" d="M44.721,122.861c-0.069,0.022-0.162,0.046-0.278,0.069c-0.092,0.022-0.208,0.04-0.348,0.052
	C43.956,122.994,43.8,123,43.626,123c-0.198,0-0.363-0.006-0.497-0.018c-0.132-0.012-0.245-0.029-0.339-0.052
	c-0.104-0.023-0.191-0.047-0.261-0.069v-2.001c0.069-0.022,0.156-0.045,0.261-0.069c0.094-0.022,0.207-0.04,0.339-0.052
	c0.134-0.012,0.299-0.018,0.497-0.018c0.174,0,0.33,0.006,0.469,0.018c0.14,0.012,0.256,0.029,0.348,0.052
	c0.116,0.024,0.209,0.047,0.278,0.069V122.861z"/>
<g>
	<path style="&st6;" d="M38.539,7.18c0.197-0.099,0.423-0.188,0.674-0.27c0.216-0.071,0.472-0.135,0.769-0.188
		c0.297-0.054,0.624-0.081,0.984-0.081c0.979,0,1.673,0.207,2.082,0.62c0.408,0.413,0.613,1.043,0.613,1.887v4.61
		c-0.036,0.018-0.086,0.035-0.148,0.054c-0.054,0.018-0.124,0.031-0.209,0.04c-0.085,0.009-0.187,0.014-0.303,0.014
		c-0.108,0-0.202-0.005-0.283-0.014c-0.081-0.009-0.153-0.023-0.216-0.04c-0.072-0.018-0.135-0.036-0.188-0.054l-0.257-0.729
		c-0.152,0.314-0.397,0.556-0.734,0.722C40.985,13.917,40.574,14,40.089,14c-0.646,0-1.156-0.19-1.529-0.573
		C38.187,13.045,38,12.459,38,11.668c0-0.764,0.227-1.312,0.681-1.645c0.454-0.332,1.103-0.498,1.947-0.498
		c0.234,0,0.466,0.007,0.694,0.02c0.229,0.014,0.442,0.029,0.641,0.048V9.296c0-0.171-0.019-0.33-0.054-0.479
		c-0.036-0.148-0.1-0.278-0.189-0.391c-0.09-0.112-0.213-0.2-0.37-0.263s-0.357-0.095-0.6-0.095c-0.225,0-0.44,0.016-0.647,0.047
		c-0.207,0.032-0.391,0.07-0.553,0.115c-0.188,0.045-0.363,0.099-0.525,0.161c-0.054-0.026-0.099-0.063-0.135-0.107
		c-0.09-0.09-0.171-0.22-0.242-0.391c-0.046-0.09-0.077-0.178-0.095-0.263c-0.019-0.086-0.027-0.164-0.027-0.236
		C38.517,7.314,38.521,7.243,38.539,7.18z M41.963,10.711c-0.171-0.017-0.351-0.031-0.539-0.04c-0.188-0.009-0.382-0.014-0.58-0.014
		c-0.342,0-0.608,0.076-0.802,0.229c-0.193,0.152-0.29,0.413-0.29,0.781c0,0.387,0.086,0.656,0.257,0.809
		c0.17,0.153,0.408,0.23,0.714,0.23c0.233,0,0.432-0.049,0.593-0.149c0.162-0.099,0.29-0.225,0.385-0.377
		c0.094-0.153,0.161-0.323,0.202-0.513c0.04-0.189,0.061-0.372,0.061-0.553V10.711z"/>
	<path style="&st6;" d="M47.698,7.342c0.188-0.233,0.432-0.409,0.728-0.525c0.297-0.117,0.661-0.176,1.092-0.176
		c0.378,0,0.719,0.063,1.024,0.188c0.306,0.126,0.568,0.333,0.789,0.62c0.22,0.288,0.388,0.667,0.505,1.14
		c0.117,0.472,0.176,1.049,0.176,1.731c0,0.692-0.059,1.271-0.176,1.739c-0.117,0.467-0.285,0.845-0.505,1.132
		c-0.221,0.287-0.483,0.494-0.789,0.62C50.236,13.938,49.896,14,49.518,14c-0.431,0-0.795-0.059-1.092-0.175
		c-0.296-0.117-0.539-0.292-0.728-0.526v0.459c-0.054,0.018-0.126,0.035-0.216,0.054c-0.072,0.018-0.161,0.031-0.27,0.04
		c-0.107,0.009-0.233,0.014-0.377,0.014c-0.145,0-0.267-0.005-0.371-0.014c-0.104-0.009-0.191-0.023-0.263-0.04
		c-0.081-0.018-0.148-0.036-0.202-0.054V3.864c0.054-0.018,0.121-0.036,0.202-0.054c0.071-0.019,0.159-0.031,0.263-0.041
		c0.104-0.009,0.227-0.013,0.371-0.013c0.144,0,0.27,0.004,0.377,0.013c0.108,0.01,0.197,0.022,0.27,0.041
		c0.09,0.018,0.162,0.036,0.216,0.054V7.342z M50.259,10.32c0-0.477-0.031-0.864-0.094-1.166c-0.063-0.301-0.15-0.534-0.263-0.7
		c-0.113-0.167-0.252-0.281-0.418-0.344c-0.167-0.063-0.357-0.095-0.573-0.095c-0.377,0-0.674,0.135-0.89,0.404
		s-0.323,0.62-0.323,1.052v1.698c0,0.431,0.107,0.781,0.323,1.051c0.216,0.269,0.513,0.404,0.89,0.404
		c0.216,0,0.406-0.031,0.573-0.094c0.166-0.063,0.305-0.178,0.418-0.344c0.112-0.166,0.199-0.4,0.263-0.701
		C50.228,11.186,50.259,10.797,50.259,10.32z"/>
</g>
<path style="&st6;" d="M38.822,24.627c0.557-0.144,1.031-0.348,1.422-0.613c0.391-0.265,0.748-0.617,1.071-1.058
	c0.054-0.018,0.121-0.036,0.202-0.054c0.072-0.018,0.157-0.034,0.256-0.048c0.099-0.013,0.225-0.02,0.378-0.02
	c0.143,0,0.267,0.007,0.37,0.02c0.104,0.014,0.191,0.029,0.263,0.048c0.081,0.018,0.153,0.036,0.216,0.054v8.923
	c-0.054,0.026-0.121,0.049-0.202,0.067c-0.072,0.018-0.161,0.031-0.27,0.04C42.421,31.995,42.295,32,42.151,32
	c-0.135,0-0.259-0.005-0.371-0.014c-0.112-0.009-0.204-0.022-0.276-0.04c-0.09-0.019-0.166-0.041-0.229-0.067v-5.162
	c0-0.333,0.007-0.639,0.02-0.917c0.014-0.278,0.029-0.534,0.048-0.769c-0.315,0.261-0.654,0.47-1.018,0.627
	c-0.364,0.157-0.73,0.281-1.099,0.371c-0.162-0.162-0.281-0.368-0.358-0.62C38.793,25.157,38.777,24.896,38.822,24.627z"/>
<path style="&st6;" d="M45.892,24.398c-0.18-0.143-0.313-0.319-0.398-0.526c-0.086-0.206-0.114-0.436-0.088-0.687
	c0.216-0.09,0.459-0.171,0.729-0.243c0.225-0.063,0.489-0.119,0.795-0.168c0.306-0.05,0.638-0.074,0.997-0.074
	c0.423,0,0.82,0.047,1.193,0.142c0.372,0.094,0.698,0.242,0.977,0.444c0.279,0.202,0.499,0.465,0.661,0.788
	C50.919,24.398,51,24.789,51,25.247c0,0.432-0.059,0.802-0.175,1.112c-0.117,0.309-0.288,0.586-0.513,0.829
	c-0.225,0.242-0.494,0.47-0.809,0.681c-0.314,0.211-0.674,0.438-1.078,0.681c-0.188,0.116-0.384,0.233-0.586,0.351
	c-0.202,0.116-0.387,0.242-0.553,0.377c-0.167,0.135-0.306,0.283-0.418,0.444c-0.112,0.162-0.169,0.347-0.169,0.553
	c0,0.045,0.009,0.113,0.027,0.202h4.003c0.063,0.108,0.105,0.227,0.128,0.357c0.023,0.131,0.034,0.263,0.034,0.397
	c0,0.288-0.054,0.544-0.162,0.769h-5.594c-0.018-0.081-0.031-0.171-0.04-0.27c-0.027-0.162-0.041-0.373-0.041-0.634
	c0-0.521,0.079-0.973,0.236-1.354c0.157-0.382,0.359-0.719,0.606-1.011c0.247-0.292,0.525-0.548,0.836-0.768
	c0.309-0.22,0.617-0.434,0.923-0.64c0.297-0.198,0.546-0.378,0.748-0.539c0.202-0.162,0.366-0.317,0.492-0.466
	c0.126-0.147,0.216-0.303,0.27-0.465c0.054-0.161,0.081-0.351,0.081-0.565c0-0.413-0.144-0.715-0.432-0.903
	c-0.287-0.188-0.674-0.283-1.159-0.283c-0.233,0-0.456,0.016-0.667,0.047c-0.211,0.032-0.397,0.066-0.56,0.102
	C46.242,24.295,46.063,24.344,45.892,24.398z"/>
<path style="&st6;" d="M38.757,49.865c-0.171-0.477-0.171-0.93,0-1.361c0.907-0.09,1.626-0.316,2.156-0.681
	c0.53-0.364,0.903-0.928,1.119-1.691c-0.198,0.054-0.411,0.097-0.641,0.128c-0.229,0.031-0.483,0.047-0.762,0.047
	c-0.386,0-0.752-0.052-1.099-0.154c-0.346-0.104-0.646-0.27-0.902-0.499c-0.257-0.229-0.459-0.525-0.606-0.89
	c-0.148-0.364-0.223-0.807-0.223-1.328c0-0.997,0.276-1.725,0.829-2.183c0.553-0.459,1.31-0.688,2.271-0.688
	c0.953,0,1.707,0.285,2.265,0.855C43.721,41.991,44,42.906,44,44.164c0,0.943-0.117,1.761-0.351,2.453
	c-0.233,0.691-0.573,1.271-1.018,1.738c-0.445,0.468-0.993,0.822-1.645,1.065C40.336,49.663,39.593,49.812,38.757,49.865z
	 M39.552,43.436c0,0.297,0.034,0.544,0.102,0.742c0.067,0.197,0.161,0.356,0.282,0.479c0.122,0.121,0.268,0.206,0.438,0.256
	c0.171,0.049,0.354,0.074,0.553,0.074c0.251,0,0.492-0.022,0.721-0.067c0.229-0.045,0.425-0.09,0.587-0.135
	c0.009-0.108,0.016-0.216,0.019-0.324c0.005-0.107,0.007-0.224,0.007-0.35c0-0.818-0.123-1.398-0.37-1.739
	c-0.247-0.341-0.578-0.512-0.991-0.512c-0.413,0-0.741,0.123-0.983,0.37C39.673,42.477,39.552,42.879,39.552,43.436z"/>
<path style="&st6;" d="M45.398,49.758c-0.054,0.018-0.126,0.035-0.216,0.054c-0.071,0.018-0.161,0.031-0.269,0.04
	c-0.107,0.009-0.229,0.014-0.363,0.014c-0.153,0-0.281-0.005-0.385-0.014c-0.104-0.009-0.19-0.022-0.263-0.04
	c-0.081-0.019-0.148-0.036-0.202-0.054v-1.551c0.054-0.018,0.121-0.035,0.202-0.054c0.072-0.018,0.159-0.031,0.263-0.04
	c0.104-0.009,0.231-0.014,0.385-0.014c0.135,0,0.256,0.005,0.363,0.014c0.108,0.009,0.198,0.022,0.269,0.04
	c0.09,0.019,0.162,0.036,0.216,0.054V49.758z"/>
<path style="&st6;" d="M49.424,50c-0.548,0-1.033-0.088-1.456-0.263c-0.422-0.176-0.779-0.454-1.071-0.836
	c-0.292-0.382-0.515-0.871-0.667-1.469C46.076,46.835,46,46.118,46,45.282c0-1.653,0.297-2.853,0.89-3.599
	c0.594-0.745,1.438-1.118,2.534-1.118c0.548,0,1.035,0.087,1.463,0.263c0.426,0.175,0.788,0.454,1.085,0.835
	c0.296,0.383,0.521,0.872,0.674,1.47c0.152,0.598,0.229,1.314,0.229,2.149c0,0.836-0.076,1.553-0.229,2.15
	c-0.153,0.598-0.378,1.087-0.674,1.469c-0.297,0.382-0.659,0.66-1.085,0.836C50.459,49.912,49.972,50,49.424,50z M49.424,41.994
	c-0.252,0-0.479,0.042-0.681,0.128c-0.202,0.085-0.373,0.249-0.512,0.492c-0.14,0.242-0.245,0.577-0.317,1.004
	c-0.072,0.427-0.108,0.981-0.108,1.664c0,0.674,0.035,1.225,0.108,1.651c0.072,0.427,0.178,0.762,0.317,1.004
	c0.139,0.243,0.31,0.409,0.512,0.499c0.202,0.09,0.429,0.135,0.681,0.135c0.261,0,0.489-0.045,0.688-0.135
	c0.197-0.09,0.364-0.256,0.499-0.499c0.135-0.242,0.237-0.577,0.309-1.004c0.072-0.427,0.107-0.978,0.107-1.651
	c0-0.683-0.035-1.237-0.107-1.664c-0.072-0.427-0.175-0.762-0.309-1.004c-0.135-0.243-0.302-0.407-0.499-0.492
	C49.913,42.036,49.685,41.994,49.424,41.994z"/>
<g>
	<path style="&st6;" d="M40.903,64c-0.465,0-0.876-0.074-1.234-0.223c-0.358-0.149-0.661-0.385-0.909-0.709
		c-0.247-0.324-0.436-0.738-0.565-1.245C38.064,61.316,38,60.708,38,60c0-1.402,0.252-2.419,0.755-3.052
		C39.258,56.316,39.974,56,40.903,56c0.465,0,0.878,0.073,1.24,0.223c0.361,0.148,0.668,0.385,0.92,0.708
		c0.251,0.325,0.441,0.739,0.571,1.246c0.13,0.507,0.194,1.115,0.194,1.823s-0.065,1.316-0.194,1.823
		c-0.13,0.507-0.32,0.921-0.571,1.245c-0.252,0.324-0.559,0.559-0.92,0.709C41.781,63.926,41.368,64,40.903,64z M40.903,57.212
		c-0.214,0-0.406,0.035-0.577,0.108c-0.172,0.071-0.316,0.211-0.434,0.417c-0.119,0.205-0.208,0.489-0.27,0.852
		c-0.062,0.361-0.091,0.832-0.091,1.411c0,0.571,0.029,1.038,0.091,1.399c0.062,0.362,0.15,0.646,0.27,0.852
		c0.117,0.206,0.262,0.347,0.434,0.423c0.171,0.076,0.363,0.114,0.577,0.114c0.221,0,0.415-0.038,0.583-0.114
		c0.167-0.076,0.309-0.217,0.423-0.423c0.114-0.205,0.201-0.489,0.263-0.852c0.061-0.361,0.091-0.828,0.091-1.399
		c0-0.579-0.029-1.05-0.091-1.411c-0.062-0.362-0.149-0.646-0.263-0.852c-0.114-0.206-0.256-0.346-0.423-0.417
		C41.318,57.247,41.124,57.212,40.903,57.212z"/>
</g>
<g>
	<path style="&st6;" d="M48.021,63.564c0.486-0.126,0.9-0.304,1.241-0.535c0.341-0.231,0.653-0.539,0.936-0.924
		c0.047-0.015,0.105-0.031,0.176-0.047c0.063-0.016,0.138-0.029,0.224-0.042C50.684,62.006,50.794,62,50.928,62
		c0.125,0,0.232,0.006,0.323,0.017c0.09,0.013,0.167,0.026,0.229,0.042c0.07,0.016,0.134,0.032,0.188,0.047v7.789
		c-0.047,0.022-0.106,0.042-0.177,0.059c-0.063,0.016-0.141,0.027-0.235,0.035C51.163,69.996,51.053,70,50.928,70
		c-0.117,0-0.226-0.004-0.324-0.012c-0.098-0.008-0.178-0.019-0.241-0.035c-0.078-0.017-0.145-0.036-0.199-0.059v-4.506
		c0-0.291,0.006-0.558,0.018-0.801c0.012-0.243,0.025-0.466,0.041-0.671c-0.275,0.228-0.571,0.41-0.888,0.548
		c-0.318,0.137-0.638,0.245-0.959,0.323c-0.142-0.142-0.246-0.321-0.313-0.541C47.996,64.027,47.982,63.8,48.021,63.564z"/>
</g>
<g>
	<path style="&st6;" d="M47.328,58.121c0.064-0.019,0.135-0.036,0.216-0.054c0.072-0.019,0.157-0.034,0.256-0.048
		c0.1-0.014,0.216-0.02,0.351-0.02s0.256,0.006,0.364,0.02c0.108,0.014,0.197,0.029,0.27,0.048c0.09,0.018,0.162,0.035,0.216,0.054
		L44.512,68.62c-0.063,0.027-0.135,0.05-0.216,0.067c-0.072,0.019-0.16,0.032-0.263,0.041c-0.104,0.009-0.218,0.014-0.344,0.014
		c-0.145,0-0.268-0.005-0.371-0.014c-0.104-0.009-0.191-0.022-0.263-0.041c-0.09-0.018-0.162-0.04-0.216-0.067L47.328,58.121z"/>
</g>
<g>
	<path style="&st6;" d="M45,142c-3.859,0-7-3.141-7-7s3.141-7,7-7s7,3.141,7,7S48.859,142,45,142z M45,130c-2.757,0-5,2.243-5,5
		s2.243,5,5,5s5-2.243,5-5S47.757,130,45,130z"/>
</g>
<g>
	<path style="&st6;" d="M46.152,159.905l-0.326-1.973c0.575-0.096,1.124-0.289,1.631-0.577l0.986,1.74
		C47.731,159.499,46.961,159.771,46.152,159.905z M43.729,159.885c-0.806-0.148-1.571-0.434-2.276-0.85l1.016-1.723
		c0.503,0.296,1.049,0.5,1.622,0.605L43.729,159.885z M50.317,157.554l-1.52-1.301c0.381-0.444,0.679-0.946,0.885-1.492l1.871,0.707
		C51.266,156.23,50.85,156.933,50.317,157.554z M39.607,157.463c-0.522-0.63-0.928-1.34-1.202-2.109l1.883-0.674
		c0.196,0.55,0.485,1.057,0.858,1.506L39.607,157.463z M50,153.069V153c0-0.587-0.101-1.161-0.299-1.708l1.881-0.682
		C51.859,151.376,52,152.181,52,153L50,153.069z M40.001,152.969l-2-0.008c0.003-0.82,0.148-1.624,0.433-2.39l1.875,0.693
		C40.107,151.811,40.003,152.384,40.001,152.969z M48.835,149.792c-0.377-0.449-0.822-0.825-1.325-1.116l1.002-1.73
		c0.704,0.408,1.329,0.934,1.856,1.562L48.835,149.792z M41.183,149.77l-1.525-1.295c0.529-0.623,1.156-1.146,1.863-1.551
		l0.996,1.734C42.011,148.949,41.562,149.323,41.183,149.77z M45.883,148.078c-0.568-0.099-1.169-0.104-1.737-0.006l-0.34-1.971
		c0.792-0.138,1.629-0.134,2.425,0.008L45.883,148.078z"/>
</g>
<g>
	<path style="&st6;" d="M44.761,132.181c0.354,0,0.676,0.052,0.964,0.155c0.287,0.104,0.531,0.27,0.732,0.494
		c0.2,0.225,0.354,0.516,0.462,0.874c0.106,0.357,0.161,0.789,0.161,1.296s-0.055,0.939-0.161,1.296
		c-0.107,0.358-0.262,0.649-0.462,0.874c-0.201,0.224-0.445,0.389-0.732,0.493c-0.288,0.104-0.609,0.156-0.964,0.156H42.92v-5.639
		H44.761z M44.69,136.989c0.188,0,0.362-0.025,0.524-0.078c0.162-0.052,0.302-0.151,0.419-0.298
		c0.118-0.146,0.209-0.349,0.274-0.607c0.065-0.258,0.098-0.593,0.098-1.006s-0.032-0.749-0.098-1.011
		c-0.065-0.261-0.156-0.463-0.274-0.607c-0.117-0.143-0.257-0.242-0.419-0.294c-0.162-0.053-0.336-0.079-0.524-0.079h-0.767v3.98
		H44.69z"/>
</g>
<g>
	<path style="&st6;" d="M44.761,150.181c0.354,0,0.676,0.052,0.964,0.155c0.287,0.104,0.531,0.27,0.732,0.494
		c0.2,0.225,0.354,0.516,0.462,0.874c0.106,0.357,0.161,0.789,0.161,1.296s-0.055,0.939-0.161,1.296
		c-0.107,0.358-0.262,0.649-0.462,0.874c-0.201,0.224-0.445,0.389-0.732,0.493c-0.288,0.104-0.609,0.156-0.964,0.156H42.92v-5.639
		H44.761z M44.69,154.989c0.188,0,0.362-0.025,0.524-0.078c0.162-0.052,0.302-0.151,0.419-0.298
		c0.118-0.146,0.209-0.349,0.274-0.607c0.065-0.258,0.098-0.593,0.098-1.006s-0.032-0.749-0.098-1.011
		c-0.065-0.261-0.156-0.463-0.274-0.607c-0.117-0.143-0.257-0.242-0.419-0.294c-0.162-0.053-0.336-0.079-0.524-0.079h-0.767v3.98
		H44.69z"/>
</g>
<g>
	<path style="&st6;" d="M47.026,78c0.04,0.149,0.066,0.304,0.078,0.463c0.012,0.158,0.014,0.313,0.006,0.464
		c-0.016,0.502-0.102,0.955-0.255,1.355c-0.153,0.402-0.34,0.783-0.558,1.145c-0.219,0.362-0.45,0.726-0.697,1.092
		c-0.247,0.366-0.478,0.762-0.692,1.185c-0.214,0.424-0.39,0.896-0.527,1.416c-0.138,0.521-0.206,1.121-0.206,1.8
		C43.957,86.973,43.714,87,43.447,87c-0.275,0-0.521-0.027-0.74-0.08c0-0.723,0.059-1.36,0.176-1.912
		c0.118-0.551,0.269-1.043,0.455-1.476c0.186-0.433,0.393-0.82,0.619-1.165c0.226-0.345,0.444-0.67,0.654-0.979
		c0.21-0.309,0.402-0.615,0.577-0.919c0.173-0.306,0.3-0.633,0.381-0.987h-3.626c-0.025-0.053-0.045-0.119-0.061-0.198
		c-0.017-0.07-0.029-0.149-0.037-0.238c-0.008-0.088-0.013-0.193-0.013-0.317c0-0.123,0.005-0.229,0.013-0.317
		c0.008-0.088,0.021-0.164,0.037-0.225c0.016-0.071,0.036-0.133,0.061-0.186H47.026z"/>
</g>
<rect x="38" y="74" style="&st6;" width="14" height="2"/>
<path style="&st6;" d="M51,77v11H39V77H51 M52,76H38v13h14V76L52,76z"/>
<g>
	<path style="&st6;" d="M52.314,96.656c-0.56-0.256-1.22-0.404-1.927-0.404c-0.563,0-1.095,0.095-1.57,0.262
		c0.125-0.022,0.256-0.034,0.391-0.034c1.298,0,2.354,1.056,2.354,2.354c0,1.297-1.056,2.354-2.354,2.354
		c-0.84,0-1.461-0.446-2.313-1.368c-0.264-0.284-0.55-0.615-0.871-0.991l-1.018,1.023c1.366,1.597,2.435,2.774,4.203,2.774
		c1.084,0,2.062-0.454,2.752-1.184c0.645-0.68,1.04-1.598,1.04-2.608C53,98.022,52.746,97.272,52.314,96.656z M40.792,95.041
		c-1.203,0-2.274,0.56-2.969,1.433C37.308,97.121,37,97.94,37,98.833c0,1.081,0.452,2.056,1.178,2.747
		c0.347,0.08,0.715,0.123,1.097,0.123c1.039,0,1.978-0.32,2.646-0.835c-0.358,0.213-0.718,0.318-1.128,0.318
		c-1.298,0-2.354-1.057-2.354-2.354c0-1.283,1.03-2.328,2.307-2.353c0.016-0.001,0.031-0.001,0.047-0.001
		c1.1,0,1.822,0.767,3.185,2.359l1.018-1.023C43.629,96.219,42.56,95.041,40.792,95.041z"/>
	<path style="&st6;" d="M52.314,96.656c-0.56-0.256-1.22-0.404-1.927-0.404c-0.563,0-1.095,0.095-1.57,0.262
		c-0.905,0.165-1.614,0.923-2.794,2.313l-1.018,1.023c-1.37,1.614-2.441,2.774-4.213,2.774c-1.014,0-1.935-0.397-2.614-1.045
		c0.347,0.08,0.715,0.123,1.097,0.123c1.039,0,1.978-0.32,2.646-0.835c0.607-0.36,1.211-1.032,2.057-2.029l1.018-1.023
		c1.37-1.615,2.44-2.774,4.213-2.774C50.492,95.041,51.628,95.68,52.314,96.656z"/>
</g>
<g>
	<path style="&st1;" d="M13.516,166c-1.361,0-2.516,1.093-2.516,3.035c0,1.889,1.092,2.965,2.5,2.965c1.266,0,2.5-0.885,2.5-3.034
		C16,167.162,15.05,166,13.516,166z M13.5,171.133c-0.744,0-1.361-0.885-1.361-2.098c0-1.04,0.427-2.168,1.361-2.168
		c0.981,0,1.361,1.128,1.361,2.133C14.861,170.248,14.339,171.133,13.5,171.133z"/>
	<g>
		<path style="&st0;" d="M2,176v-10h1.534l2.717,4.938c0.623,1.185,1.183,2.292,1.631,3.338l0.016-0.015
			c-0.112-1.399-0.144-2.569-0.144-4.154V166H9v10H7.578l-2.733-4.969c-0.608-1.122-1.167-2.261-1.646-3.4l-0.048,0.015
			c0.064,1.293,0.096,2.446,0.096,4.215V176H2z"/>
	</g>
	<rect x="11" y="173" style="&st1;" width="5" height="1"/>
</g>
<g>
	<path style="&st3;" d="M31.516,166c-1.361,0-2.516,1.093-2.516,3.035c0,1.889,1.092,2.965,2.5,2.965c1.266,0,2.5-0.885,2.5-3.034
		C34,167.162,33.05,166,31.516,166z M31.5,171.133c-0.744,0-1.361-0.885-1.361-2.098c0-1.04,0.427-2.168,1.361-2.168
		c0.981,0,1.361,1.128,1.361,2.133C32.861,170.248,32.339,171.133,31.5,171.133z"/>
	<g>
		<path style="&st2;" d="M20,176v-10h1.534l2.717,4.938c0.623,1.185,1.183,2.292,1.631,3.338l0.016-0.015
			c-0.112-1.399-0.144-2.569-0.144-4.154V166H27v10h-1.422l-2.733-4.969c-0.608-1.122-1.167-2.261-1.646-3.4l-0.048,0.015
			c0.064,1.293,0.096,2.446,0.096,4.215V176H20z"/>
	</g>
	<rect x="29" y="173" style="&st3;" width="5" height="1"/>
</g>
<g>
	<path style="&st6;" d="M49.516,166c-1.361,0-2.516,1.093-2.516,3.035c0,1.889,1.092,2.965,2.5,2.965c1.266,0,2.5-0.885,2.5-3.034
		C52,167.162,51.05,166,49.516,166z M49.5,171.133c-0.744,0-1.361-0.885-1.361-2.098c0-1.04,0.427-2.168,1.361-2.168
		c0.981,0,1.361,1.128,1.361,2.133C50.861,170.248,50.339,171.133,49.5,171.133z"/>
	<g>
		<path style="&st6;" d="M38,176v-10h1.534l2.717,4.938c0.623,1.185,1.183,2.292,1.631,3.338l0.016-0.015
			c-0.112-1.399-0.144-2.569-0.144-4.154V166H45v10h-1.422l-2.733-4.969c-0.608-1.122-1.167-2.261-1.646-3.4l-0.048,0.015
			c0.064,1.293,0.096,2.446,0.096,4.215V176H38z"/>
	</g>
	<rect x="47" y="173" style="&st6;" width="5" height="1"/>
</g>
</svg>
