<?xml version="1.0" encoding="utf-8"?>
<!-- Generator: Adobe Illustrator 21.1.0, SVG Export Plug-In . SVG Version: 6.00 Build 0)  -->
<!DOCTYPE svg PUBLIC "-//W3C//DTD SVG 1.1//EN" "http://www.w3.org/Graphics/SVG/1.1/DTD/svg11.dtd" [
	<!ENTITY st0 "fill:#D9D9D9;">
	<!ENTITY st1 "fill:#F7931E;">
	<!ENTITY st2 "fill:#71B1E4;">
	<!ENTITY st3 "fill:#808080;">
	<!ENTITY st4 "fill:#FFFFFF;">
]>
<svg version="1.1" id="Layer_1" xmlns="http://www.w3.org/2000/svg" xmlns:xlink="http://www.w3.org/1999/xlink" x="0px" y="0px"
	 width="54px" height="216px" viewBox="0 0 54 216" style="enable-background:new 0 0 54 216;" xml:space="preserve">
<path style="&st0;" d="M29.929,3.328c0.592,0,1.424,0.125,2.02,0.722c0.692,0.692,0.896,1.837,0.576,3.225
	c-0.359,1.556-1.317,3.173-2.697,4.553c-1.754,1.754-3.96,2.843-5.758,2.843c-0.592,0-1.424-0.125-2.021-0.722
	c-0.692-0.692-0.896-1.837-0.576-3.225c0.359-1.556,1.317-3.173,2.697-4.553C25.925,4.418,28.132,3.328,29.929,3.328 M29.929,2.328
	c-1.999,0-4.44,1.111-6.465,3.136c-3.124,3.124-4.074,7.24-2.121,9.192c0.687,0.687,1.642,1.015,2.728,1.015
	c1.999,0,4.44-1.111,6.465-3.136c3.124-3.124,4.074-7.24,2.121-9.192C31.97,2.656,31.014,2.328,29.929,2.328L29.929,2.328z"/>
<polygon style="&st1;" points="9.531,62 13,62 5,70 "/>
<path style="&st2;" d="M13.781,101.827l-0.395-0.152c-0.095-0.037-0.148-0.138-0.137-0.24c0.039-0.367,0.035-0.74-0.025-1.112
	c-0.015-0.096,0.038-0.189,0.127-0.229l0.381-0.17c0.172-0.077,0.25-0.279,0.173-0.45l-0.488-1.097
	c-0.077-0.173-0.278-0.251-0.451-0.174l-0.392,0.174c-0.094,0.042-0.203,0.006-0.27-0.074c-0.238-0.285-0.514-0.532-0.812-0.741
	c-0.077-0.054-0.102-0.157-0.067-0.247l0.162-0.422c0.067-0.175-0.021-0.374-0.197-0.442l-1.121-0.43
	c-0.177-0.068-0.374,0.02-0.442,0.197l-0.167,0.436c-0.036,0.095-0.135,0.149-0.236,0.139c-0.357-0.035-0.721-0.029-1.084,0.03
	c-0.095,0.016-0.186-0.04-0.225-0.128l-0.19-0.427c-0.077-0.173-0.279-0.25-0.451-0.174l-1.097,0.488
	c-0.172,0.077-0.25,0.279-0.173,0.452L6.4,97.475c0.041,0.093,0.008,0.202-0.07,0.267c-0.273,0.228-0.511,0.489-0.714,0.771
	c-0.058,0.081-0.164,0.115-0.257,0.079l-0.464-0.178c-0.176-0.068-0.374,0.021-0.441,0.196l-0.43,1.121
	c-0.068,0.177,0.02,0.373,0.197,0.441l0.464,0.178c0.093,0.036,0.148,0.133,0.137,0.233c-0.038,0.353-0.035,0.712,0.018,1.071
	c0.014,0.095-0.043,0.184-0.13,0.223l-0.44,0.196c-0.172,0.077-0.25,0.279-0.173,0.451l0.488,1.097
	c0.077,0.173,0.279,0.25,0.451,0.173l0.43-0.191c0.093-0.042,0.202-0.006,0.266,0.073c0.227,0.279,0.489,0.521,0.773,0.73
	c0.081,0.06,0.116,0.166,0.079,0.259l-0.169,0.437c-0.068,0.176,0.02,0.374,0.197,0.441l1.121,0.431
	c0.176,0.067,0.373-0.021,0.441-0.197l0.162-0.422c0.036-0.095,0.137-0.147,0.238-0.135c0.363,0.041,0.731,0.041,1.1-0.014
	c0.095-0.014,0.188,0.041,0.227,0.13l0.174,0.392c0.077,0.173,0.279,0.25,0.451,0.174l1.097-0.489
	c0.172-0.077,0.25-0.278,0.173-0.45l-0.169-0.382c-0.042-0.095-0.003-0.204,0.077-0.269c0.292-0.238,0.543-0.513,0.759-0.813
	c0.056-0.078,0.16-0.103,0.25-0.068l0.393,0.151c0.176,0.068,0.374-0.021,0.441-0.197l0.43-1.119
	C14.045,102.092,13.957,101.895,13.781,101.827z M9.813,102.827c-1.009,0.449-2.19-0.006-2.639-1.013
	c-0.449-1.01,0.005-2.189,1.013-2.64c1.009-0.449,2.191,0.003,2.64,1.013C11.276,101.195,10.822,102.377,9.813,102.827z"/>
<path style="&st2;" d="M6,49v2H2v-2H6 M7,48H1v4h6V48L7,48z"/>
<path style="&st2;" d="M6,44v2H2v-2H6 M7,43H1v4h6V43L7,43z"/>
<path style="&st2;" d="M6,39v2H2v-2H6 M7,38H1v4h6V38L7,38z"/>
<path style="&st2;" d="M16,49v2h-4v-2H16 M17,48h-6v4h6V48L17,48z"/>
<path style="&st2;" d="M16,44v2h-4v-2H16 M17,43h-6v4h6V43L17,43z"/>
<path style="&st2;" d="M16,39v2h-4v-2H16 M17,38h-6v4h6V38L17,38z"/>
<rect x="7" y="40" style="&st1;" width="2" height="1"/>
<polygon style="&st1;" points="9,39 11,40.5 9,42 "/>
<rect x="7" y="45" style="&st1;" width="2" height="1"/>
<polygon style="&st1;" points="9,44 11,45.5 9,47 "/>
<rect x="7" y="50" style="&st1;" width="2" height="1"/>
<polygon style="&st1;" points="9,49 11,50.5 9,52 "/>
<path style="&st0;" d="M24,49v2h-4v-2H24 M25,48h-6v4h6V48L25,48z"/>
<path style="&st0;" d="M24,44v2h-4v-2H24 M25,43h-6v4h6V43L25,43z"/>
<path style="&st0;" d="M24,39v2h-4v-2H24 M25,38h-6v4h6V38L25,38z"/>
<path style="&st0;" d="M34,49v2h-4v-2H34 M35,48h-6v4h6V48L35,48z"/>
<path style="&st0;" d="M34,44v2h-4v-2H34 M35,43h-6v4h6V43L35,43z"/>
<path style="&st0;" d="M34,39v2h-4v-2H34 M35,38h-6v4h6V38L35,38z"/>
<rect x="25" y="40" style="&st3;" width="2" height="1"/>
<polygon style="&st3;" points="27,39 29,40.5 27,42 "/>
<rect x="25" y="45" style="&st3;" width="2" height="1"/>
<polygon style="&st3;" points="27,44 29,45.5 27,47 "/>
<rect x="25" y="50" style="&st3;" width="2" height="1"/>
<polygon style="&st3;" points="27,49 29,50.5 27,52 "/>
<path style="&st0;" d="M27,23c2.206,0,4,1.794,4,4s-1.794,4-4,4s-4-1.794-4-4S24.794,23,27,23 M27,22c-2.762,0-5,2.238-5,5
	s2.238,5,5,5s5-2.238,5-5S29.762,22,27,22L27,22z"/>
<polygon style="&st0;" points="29.121,25.586 28.414,24.879 27,26.293 25.586,24.879 24.879,25.586 26.293,27 24.879,28.414 
	25.586,29.121 27,27.707 28.414,29.121 29.121,28.414 27.707,27 "/>
<g>
	<path style="&st3;" d="M24.499,21H19v2h2.884C22.566,22.128,23.463,21.433,24.499,21z"/>
	<path style="&st3;" d="M32.116,23H33v1l2-2l-2-2v1h-3.499C30.537,21.433,31.434,22.128,32.116,23z"/>
</g>
<g>
	<path style="&st3;" d="M35,27l-1.743-1.743C33.411,25.813,33.5,26.396,33.5,27s-0.089,1.188-0.243,1.743L35,27z"/>
	<path style="&st3;" d="M20.5,27c0-0.341,0.034-0.673,0.085-1H19v2h1.585C20.534,27.673,20.5,27.341,20.5,27z"/>
</g>
<g>
	<path style="&st3;" d="M21.884,31H19v2h5.499C23.463,32.567,22.566,31.872,21.884,31z"/>
	<path style="&st3;" d="M35,32l-2-2v1h-0.884c-0.683,0.872-1.579,1.567-2.615,2H33v1L35,32z"/>
</g>
<g>
	<path style="&st4;" d="M47,50.5V52h6v-4h-6V50.5z M48,49h4v2h-4V49z"/>
	<path style="&st4;" d="M47,45.5V47h6v-4h-6V45.5z M48,44h4v2h-4V44z"/>
	<path style="&st4;" d="M47,38v2.5V42h6v-4H47z M52,41h-4v-2h4V41z"/>
	<path style="&st4;" d="M45,40h-2v-2h-6v4h6v-1h2v1l2-1.5L45,39V40z M42,41h-4v-2h4V41z"/>
	<path style="&st4;" d="M45,45h-2v-2h-6v4h6v-1h2v1l2-1.5L45,44V45z M42,46h-4v-2h4V46z"/>
	<path style="&st4;" d="M45,50h-2v-2h-6v4h6v-1h2v1l2-1.5L45,49V50z M42,51h-4v-2h4V51z"/>
</g>
<path style="&st4;" d="M45,23c2.206,0,4,1.794,4,4s-1.794,4-4,4s-4-1.794-4-4S42.794,23,45,23 M45,22c-2.762,0-5,2.238-5,5
	s2.238,5,5,5s5-2.238,5-5S47.762,22,45,22L45,22z"/>
<polygon style="&st4;" points="47.121,25.586 46.414,24.879 45,26.293 43.586,24.879 42.879,25.586 44.293,27 42.879,28.414 
	43.586,29.121 45,27.707 46.414,29.121 47.121,28.414 45.707,27 "/>
<g>
	<path style="&st4;" d="M42.499,21H37v2h2.884C40.566,22.128,41.463,21.433,42.499,21z"/>
	<path style="&st4;" d="M50.116,23H51v1l2-2l-2-2v1h-3.499C48.537,21.433,49.434,22.128,50.116,23z"/>
</g>
<g>
	<path style="&st4;" d="M53,27l-1.743-1.743C51.411,25.813,51.5,26.396,51.5,27s-0.089,1.188-0.243,1.743L53,27z"/>
	<path style="&st4;" d="M38.5,27c0-0.341,0.034-0.673,0.085-1H37v2h1.585C38.534,27.673,38.5,27.341,38.5,27z"/>
</g>
<g>
	<path style="&st4;" d="M39.884,31H37v2h5.499C41.463,32.567,40.566,31.872,39.884,31z"/>
	<path style="&st4;" d="M53,32l-2-2v1h-0.884c-0.683,0.872-1.579,1.567-2.615,2H51v1L53,32z"/>
</g>
<path style="&st2;" d="M9,23c2.206,0,4,1.794,4,4s-1.794,4-4,4c-2.206,0-4-1.794-4-4S6.794,23,9,23 M9,22c-2.761,0-5,2.238-5,5
	s2.239,5,5,5c2.761,0,5-2.238,5-5S11.761,22,9,22L9,22z"/>
<polygon style="&st2;" points="11.121,25.586 10.414,24.879 9,26.293 7.586,24.879 6.879,25.586 8.293,27 6.879,28.414 
	7.586,29.121 9,27.707 10.414,29.121 11.121,28.414 9.707,27 "/>
<g>
	<path style="&st1;" d="M6.5,21H1v2h2.884C4.566,22.128,5.463,21.433,6.5,21z"/>
	<path style="&st1;" d="M14.116,23H15v1l2-2l-2-2v1h-3.5C12.537,21.433,13.434,22.128,14.116,23z"/>
</g>
<g>
	<path style="&st1;" d="M17,27l-1.744-1.743C15.411,25.813,15.5,26.396,15.5,27s-0.089,1.188-0.244,1.743L17,27z"/>
	<path style="&st1;" d="M2.5,27c0-0.341,0.034-0.673,0.085-1H1v2h1.585C2.534,27.673,2.5,27.341,2.5,27z"/>
</g>
<g>
	<path style="&st1;" d="M3.884,31H1v2h5.5C5.463,32.567,4.566,31.872,3.884,31z"/>
	<path style="&st1;" d="M17,32l-2-2v1h-0.884c-0.683,0.872-1.579,1.567-2.616,2H15v1L17,32z"/>
</g>
<polygon style="&st2;" points="6.226,77.677 8,76.4 5.8,76.4 5,74 4.2,76.4 2,76.4 3.774,77.677 3,80 5,78.56 7,80 "/>
<polygon style="&st2;" points="14.226,77.677 16,76.4 13.8,76.4 13,74 12.2,76.4 10,76.4 11.774,77.677 11,80 13,78.56 15,80 "/>
<polygon style="&st2;" points="6.226,85.677 8,84.4 5.8,84.4 5,82 4.2,84.4 2,84.4 3.774,85.677 3,88 5,86.56 7,88 "/>
<polygon style="&st1;" points="14.226,85.677 16,84.4 13.8,84.4 13,82 12.2,84.4 10,84.4 11.774,85.677 11,88 13,86.56 15,88 "/>
<polygon style="&st2;" points="8.398,64 5,64 13,56 "/>
<polygon style="&st0;" points="27.531,62 31,62 23,70 "/>
<polygon style="&st3;" points="26.399,64 23,64 31,56 "/>
<polygon style="&st4;" points="49,56 41,64 44.398,64 41,70 49,62 45.549,62 "/>
<polygon style="&st1;" points="16,93.5 14,92 14,93 2,93 2,94 14,94 14,95 "/>
<path style="&st2;" d="M9.406,101.913c-0.504,0.225-1.095-0.003-1.319-0.507c-0.225-0.505,0.002-1.095,0.506-1.32
	c0.505-0.225,1.095,0.002,1.32,0.507C10.138,101.097,9.911,101.688,9.406,101.913"/>
<polygon style="&st2;" points="4.707,122 14.854,111.854 14.146,111.146 4,121.293 4,112 3,112 3,122 3,123 4,123 15,123 15,122 "/>
<polygon style="&st1;" points="1,112 3.5,109 6,112 "/>
<polygon style="&st1;" points="14,120 17,122.5 14,125 "/>
<polygon style="&st1;" points="12,110 16,110 16,114 "/>
<polygon style="&st3;" points="20,4 26,4 26,10 "/>
<polygon style="&st3;" points="34,14 28,14 28,8 "/>
<path style="&st4;" d="M49.477,11.477c2.351-2.942,2.919-6.395,1.18-8.134c-0.687-0.687-1.642-1.015-2.728-1.015
	c-1.443,0-3.116,0.587-4.697,1.672H38l2.523,2.523c-2.351,2.942-2.919,6.395-1.18,8.134c0.687,0.687,1.642,1.015,2.728,1.015
	c1.443,0,3.116-0.587,4.697-1.672H52L49.477,11.477z M46,8v5.306c-1.32,0.861-2.717,1.366-3.929,1.366
	c-0.592,0-1.424-0.125-2.021-0.722c-0.692-0.692-0.896-1.837-0.576-3.225c0.271-1.172,0.882-2.379,1.757-3.493L44,10V4.694
	c1.32-0.861,2.717-1.366,3.929-1.366c0.592,0,1.424,0.125,2.021,0.722c0.692,0.692,0.896,1.837,0.576,3.225
	c-0.271,1.172-0.882,2.379-1.757,3.493L46,8z"/>
<path style="&st2;" d="M11.929,3.328c0.592,0,1.424,0.125,2.02,0.722c0.692,0.692,0.896,1.837,0.576,3.225
	c-0.359,1.556-1.317,3.173-2.697,4.553c-1.754,1.754-3.96,2.843-5.758,2.843c-0.592,0-1.424-0.125-2.021-0.722
	c-0.692-0.692-0.896-1.837-0.576-3.225c0.359-1.556,1.317-3.173,2.697-4.553C7.925,4.418,10.132,3.328,11.929,3.328 M11.929,2.328
	c-1.999,0-4.44,1.111-6.465,3.136c-3.124,3.124-4.074,7.24-2.121,9.192c0.687,0.687,1.642,1.015,2.728,1.015
	c1.999,0,4.44-1.111,6.465-3.136c3.124-3.124,4.074-7.24,2.121-9.192C13.97,2.656,13.014,2.328,11.929,2.328L11.929,2.328z"/>
<polygon style="&st1;" points="2,4 8,4 8,10 "/>
<polygon style="&st1;" points="16,14 10,14 10,8 "/>
<polygon style="&st2;" points="13,129 5,129 5,129.913 5,130 5,130.023 8.869,135 5,139.977 5,140 5,140.087 5,141 13,141 13,140 
	6.505,140 10.407,135 6.505,130 13,130 "/>
<path style="&st0;" d="M31.781,101.827c0.177,0.067,0.264,0.265,0.197,0.441l-0.43,1.119c-0.068,0.176-0.265,0.265-0.441,0.197
	l-0.393-0.151c-0.09-0.034-0.194-0.01-0.25,0.068c-0.216,0.3-0.467,0.575-0.759,0.813c-0.08,0.065-0.119,0.174-0.077,0.269
	l0.17,0.382c0.077,0.172-0.001,0.374-0.173,0.45l-1.096,0.489c-0.172,0.076-0.375-0.001-0.451-0.174l-0.174-0.392
	c-0.04-0.089-0.132-0.144-0.227-0.13c-0.369,0.055-0.737,0.056-1.1,0.014c-0.101-0.012-0.201,0.04-0.238,0.135l-0.163,0.422
	c-0.068,0.176-0.265,0.264-0.441,0.197l-1.121-0.431c-0.177-0.067-0.264-0.265-0.197-0.441l0.169-0.437
	c0.036-0.094,0.001-0.2-0.08-0.259c-0.284-0.209-0.545-0.452-0.773-0.73c-0.064-0.079-0.172-0.115-0.266-0.073l-0.43,0.191
	c-0.172,0.077-0.375-0.001-0.451-0.173l-0.488-1.097c-0.077-0.172,0.001-0.374,0.173-0.451l0.44-0.196
	c0.087-0.039,0.144-0.128,0.13-0.223c-0.054-0.359-0.056-0.718-0.018-1.071c0.01-0.1-0.044-0.197-0.137-0.233l-0.464-0.178
	c-0.176-0.068-0.264-0.265-0.197-0.441l0.43-1.121c0.068-0.176,0.265-0.264,0.441-0.196l0.464,0.178
	c0.094,0.036,0.199,0.002,0.257-0.079c0.204-0.283,0.441-0.544,0.714-0.771c0.079-0.065,0.112-0.174,0.07-0.267l-0.196-0.439
	c-0.077-0.173,0.001-0.375,0.173-0.452l1.097-0.488c0.172-0.077,0.375,0.001,0.451,0.174l0.19,0.427
	c0.039,0.088,0.13,0.144,0.225,0.128c0.363-0.058,0.727-0.064,1.084-0.03c0.101,0.01,0.199-0.044,0.236-0.139l0.167-0.436
	c0.068-0.176,0.265-0.264,0.441-0.197l1.121,0.43c0.176,0.068,0.264,0.266,0.197,0.442l-0.162,0.422
	c-0.035,0.09-0.01,0.192,0.067,0.247c0.298,0.21,0.573,0.456,0.812,0.741c0.067,0.08,0.176,0.116,0.27,0.074l0.392-0.174
	c0.173-0.077,0.375,0.001,0.451,0.174l0.488,1.097c0.077,0.172-0.001,0.374-0.173,0.45l-0.381,0.17
	c-0.089,0.039-0.142,0.133-0.127,0.229c0.06,0.372,0.064,0.745,0.025,1.112c-0.01,0.101,0.042,0.203,0.137,0.24L31.781,101.827
	 M27.813,102.827c1.009-0.45,1.463-1.632,1.014-2.64c-0.449-1.01-1.631-1.462-2.64-1.013c-1.008,0.45-1.462,1.63-1.013,2.64
	C25.622,102.821,26.804,103.276,27.813,102.827"/>
<polygon style="&st0;" points="24.226,77.677 26,76.4 23.8,76.4 23,74 22.2,76.4 20,76.4 21.774,77.677 21,80 23,78.56 25,80 "/>
<polygon style="&st0;" points="32.226,77.677 34,76.4 31.8,76.4 31,74 30.2,76.4 28,76.4 29.774,77.677 29,80 31,78.56 33,80 "/>
<polygon style="&st0;" points="24.226,85.677 26,84.4 23.8,84.4 23,82 22.2,84.4 20,84.4 21.774,85.677 21,88 23,86.56 25,88 "/>
<polygon style="&st3;" points="32.226,85.677 34,84.4 31.8,84.4 31,82 30.2,84.4 28,84.4 29.774,85.677 29,88 31,86.56 33,88 "/>
<polygon style="&st3;" points="34,93.5 32,92 32,93 20,93 20,94 32,94 32,95 "/>
<path style="&st0;" d="M27.406,101.913c-0.504,0.225-1.095-0.003-1.319-0.507c-0.225-0.505,0.002-1.095,0.506-1.32
	c0.505-0.225,1.095,0.002,1.32,0.507C28.138,101.097,27.911,101.688,27.406,101.913"/>
<polygon style="&st0;" points="22.707,122 32.854,111.854 32.146,111.146 22,121.293 22,112 21,112 21,122 21,123 22,123 33,123 
	33,122 "/>
<polygon style="&st3;" points="19,112 21.5,109 24,112 "/>
<polygon style="&st3;" points="32,120 35,122.5 32,125 "/>
<polygon style="&st3;" points="30,110 34,110 34,114 "/>
<polygon style="&st3;" points="31,129 23,129 23,129.913 23,130 23,130.023 26.869,135 23,139.977 23,140 23,140.087 23,141 31,141 
	31,140 24.505,140 28.407,135 24.505,130 31,130 "/>
<path style="&st4;" d="M49.78,101.827l-0.395-0.152c-0.096-0.037-0.148-0.138-0.137-0.24c0.039-0.367,0.035-0.74-0.025-1.112
	c-0.015-0.096,0.038-0.189,0.127-0.229l0.381-0.17c0.172-0.077,0.25-0.279,0.173-0.45l-0.488-1.097
	c-0.077-0.173-0.278-0.251-0.451-0.174l-0.392,0.174c-0.094,0.042-0.203,0.006-0.27-0.074c-0.238-0.285-0.514-0.532-0.812-0.741
	c-0.077-0.054-0.102-0.157-0.067-0.247l0.162-0.422c0.067-0.175-0.021-0.374-0.197-0.442l-1.121-0.43
	c-0.176-0.068-0.374,0.02-0.442,0.197l-0.167,0.436c-0.036,0.095-0.135,0.149-0.236,0.139c-0.357-0.035-0.721-0.029-1.084,0.03
	c-0.095,0.016-0.186-0.04-0.225-0.128l-0.19-0.427c-0.077-0.173-0.279-0.25-0.451-0.174l-1.097,0.488
	c-0.172,0.077-0.25,0.279-0.173,0.452l0.196,0.439c0.041,0.093,0.008,0.202-0.071,0.267c-0.273,0.228-0.511,0.489-0.714,0.771
	c-0.058,0.081-0.164,0.115-0.257,0.079l-0.464-0.178c-0.177-0.068-0.374,0.021-0.442,0.196l-0.43,1.121
	c-0.068,0.177,0.02,0.373,0.197,0.441l0.464,0.178c0.093,0.036,0.148,0.133,0.137,0.233c-0.038,0.353-0.036,0.712,0.018,1.071
	c0.014,0.095-0.043,0.184-0.13,0.223l-0.44,0.196c-0.172,0.077-0.25,0.279-0.173,0.451l0.488,1.097
	c0.077,0.173,0.279,0.25,0.451,0.173l0.43-0.191c0.093-0.042,0.202-0.006,0.266,0.073c0.227,0.279,0.489,0.521,0.773,0.73
	c0.081,0.06,0.116,0.166,0.08,0.259l-0.169,0.437c-0.068,0.176,0.02,0.374,0.197,0.441l1.121,0.431
	c0.176,0.067,0.373-0.021,0.441-0.197l0.163-0.422c0.036-0.095,0.137-0.147,0.238-0.135c0.363,0.041,0.731,0.041,1.1-0.014
	c0.096-0.014,0.188,0.041,0.227,0.13l0.174,0.392c0.077,0.173,0.279,0.25,0.451,0.174l1.097-0.489
	c0.172-0.077,0.25-0.278,0.173-0.45l-0.17-0.382c-0.042-0.095-0.003-0.204,0.077-0.269c0.292-0.238,0.543-0.513,0.759-0.813
	c0.056-0.078,0.16-0.103,0.25-0.068l0.393,0.151c0.176,0.068,0.374-0.021,0.441-0.197l0.43-1.119
	C50.045,102.092,49.957,101.895,49.78,101.827z M45.813,102.827c-1.009,0.449-2.19-0.006-2.639-1.013
	c-0.449-1.01,0.005-2.189,1.013-2.64c1.009-0.449,2.191,0.003,2.64,1.013C47.276,101.195,46.822,102.377,45.813,102.827z"/>
<polygon style="&st4;" points="42.226,77.677 44,76.4 41.8,76.4 41,74 40.2,76.4 38,76.4 39.774,77.677 39,80 41,78.56 43,80 "/>
<polygon style="&st4;" points="50.226,77.677 52,76.4 49.8,76.4 49,74 48.2,76.4 46,76.4 47.774,77.677 47,80 49,78.56 51,80 "/>
<polygon style="&st4;" points="42.226,85.677 44,84.4 41.8,84.4 41,82 40.2,84.4 38,84.4 39.774,85.677 39,88 41,86.56 43,88 "/>
<polygon style="&st4;" points="50.226,85.677 52,84.4 49.8,84.4 49,82 48.2,84.4 46,84.4 47.774,85.677 47,88 49,86.56 51,88 "/>
<polygon style="&st4;" points="52,93.5 50,92 50,93 38,93 38,94 50,94 50,95 "/>
<path style="&st4;" d="M45.406,101.913c-0.504,0.225-1.095-0.003-1.319-0.507c-0.225-0.505,0.002-1.095,0.506-1.32
	c0.505-0.225,1.095,0.002,1.32,0.507C46.138,101.097,45.911,101.688,45.406,101.913"/>
<polygon style="&st4;" points="53,122.5 50,120 50,122 40.707,122 50.354,112.354 52,114 52,110 48,110 49.646,111.646 40,121.293 
	40,112 42,112 39.5,109 37,112 39,112 39,122 39,123 40,123 50,123 50,125 "/>
<polygon style="&st4;" points="49,129 41,129 41,129.913 41,130 41,130.023 44.869,135 41,139.977 41,140 41,140.087 41,141 49,141 
	49,140 42.505,140 46.407,135 42.505,130 49,130 "/>
<g>
	<rect x="13" y="153" style="&st1;" width="4" height="2"/>
	<rect x="13" y="156" style="&st1;" width="4" height="2"/>
	<rect x="13" y="159" style="&st1;" width="4" height="2"/>
	<rect x="7" y="153" style="&st1;" width="4" height="2"/>
	<rect x="7" y="156" style="&st1;" width="4" height="2"/>
	<rect x="7" y="159" style="&st1;" width="4" height="2"/>
	<rect x="1" y="145" style="&st2;" width="4" height="3"/>
	<rect x="7" y="145" style="&st2;" width="4" height="3"/>
	<rect x="13" y="145" style="&st2;" width="4" height="3"/>
	<rect x="1" y="153" style="&st1;" width="4" height="2"/>
	<rect x="13" y="150" style="&st1;" width="4" height="2"/>
	<rect x="7" y="150" style="&st1;" width="4" height="2"/>
	<rect x="1" y="150" style="&st1;" width="4" height="2"/>
	<rect x="1" y="156" style="&st1;" width="4" height="2"/>
	<rect x="1" y="159" style="&st1;" width="4" height="2"/>
</g>
<g>
	<rect x="1" y="164" style="&st2;" width="5" height="2"/>
	<rect x="1" y="167" style="&st2;" width="5" height="2"/>
	<rect x="1" y="170" style="&st2;" width="5" height="2"/>
	<rect x="1" y="173" style="&st2;" width="5" height="2"/>
	<rect x="1" y="176" style="&st2;" width="5" height="2"/>
	<rect x="13" y="164" style="&st1;" width="4" height="2"/>
	<rect x="13" y="167" style="&st1;" width="4" height="2"/>
	<rect x="13" y="170" style="&st1;" width="4" height="2"/>
	<rect x="13" y="173" style="&st1;" width="4" height="2"/>
	<rect x="13" y="176" style="&st1;" width="4" height="2"/>
	<rect x="8" y="164" style="&st1;" width="4" height="2"/>
	<rect x="8" y="167" style="&st1;" width="4" height="2"/>
	<rect x="8" y="170" style="&st1;" width="4" height="2"/>
	<rect x="8" y="173" style="&st1;" width="4" height="2"/>
	<rect x="8" y="176" style="&st1;" width="4" height="2"/>
</g>
<path style="&st2;" d="M16,182v14H2v-14H16 M17,181H1v16h16V181L17,181z"/>
<rect x="3" y="183" style="&st2;" width="2" height="2"/>
<rect x="3" y="186" style="&st2;" width="2" height="9"/>
<rect x="6" y="183" style="&st1;" width="9" height="2"/>
<path style="&st1;" d="M10.5,187L8,189h2v1c0,0.256-0.084,2.5-3,2.5v1c2.748,0,4-1.814,4-3.5v-1h2L10.5,187z"/>
<path style="&st2;" d="M16,200v14H2v-14H16 M17,199H1v16h16V199L17,199z"/>
<rect x="3" y="201" style="&st2;" width="2" height="2"/>
<rect x="3" y="204" style="&st1;" width="2" height="9"/>
<rect x="6" y="201" style="&st2;" width="9" height="2"/>
<path style="&st1;" d="M7,208.5l2-2.5v2h1c0.256,0,2.5-0.084,2.5-3h1c0,2.748-1.814,4-3.5,4H9v2L7,208.5z"/>
<rect x="31" y="153" style="&st3;" width="4" height="2"/>
<rect x="31" y="156" style="&st3;" width="4" height="2"/>
<rect x="31" y="159" style="&st3;" width="4" height="2"/>
<rect x="25" y="153" style="&st3;" width="4" height="2"/>
<rect x="25" y="156" style="&st3;" width="4" height="2"/>
<rect x="25" y="159" style="&st3;" width="4" height="2"/>
<rect x="19" y="145" style="&st3;" width="4" height="3"/>
<rect x="25" y="145" style="&st3;" width="4" height="3"/>
<rect x="31" y="145" style="&st3;" width="4" height="3"/>
<rect x="19" y="153" style="&st3;" width="4" height="2"/>
<rect x="31" y="150" style="&st3;" width="4" height="2"/>
<rect x="25" y="150" style="&st3;" width="4" height="2"/>
<rect x="19" y="150" style="&st3;" width="4" height="2"/>
<rect x="19" y="156" style="&st3;" width="4" height="2"/>
<rect x="19" y="159" style="&st3;" width="4" height="2"/>
<rect x="19" y="164" style="&st3;" width="5" height="2"/>
<rect x="19" y="167" style="&st3;" width="5" height="2"/>
<rect x="19" y="170" style="&st3;" width="5" height="2"/>
<rect x="19" y="173" style="&st3;" width="5" height="2"/>
<rect x="19" y="176" style="&st3;" width="5" height="2"/>
<rect x="31" y="164" style="&st3;" width="4" height="2"/>
<rect x="31" y="167" style="&st3;" width="4" height="2"/>
<rect x="31" y="170" style="&st3;" width="4" height="2"/>
<rect x="31" y="173" style="&st3;" width="4" height="2"/>
<rect x="31" y="176" style="&st3;" width="4" height="2"/>
<rect x="26" y="164" style="&st3;" width="4" height="2"/>
<rect x="26" y="167" style="&st3;" width="4" height="2"/>
<rect x="26" y="170" style="&st3;" width="4" height="2"/>
<rect x="26" y="173" style="&st3;" width="4" height="2"/>
<rect x="26" y="176" style="&st3;" width="4" height="2"/>
<path style="&st0;" d="M34,182v14H20v-14H34 M35,181H19v16h16V181L35,181z"/>
<rect x="21" y="183" style="&st0;" width="2" height="2"/>
<rect x="21" y="186" style="&st0;" width="2" height="9"/>
<rect x="24" y="183" style="&st3;" width="9" height="2"/>
<path style="&st3;" d="M28.5,187l-2.5,2h2v1c0,0.256-0.084,2.5-3,2.5v1c2.748,0,4-1.814,4-3.5v-1h2L28.5,187z"/>
<path style="&st0;" d="M34,200v14H20v-14H34 M35,199H19v16h16V199L35,199z"/>
<rect x="21" y="201" style="&st0;" width="2" height="2"/>
<rect x="21" y="204" style="&st3;" width="2" height="9"/>
<rect x="24" y="201" style="&st0;" width="9" height="2"/>
<path style="&st3;" d="M25,208.5l2-2.5v2h1c0.256,0,2.5-0.084,2.5-3h1c0,2.748-1.815,4-3.5,4h-1v2L25,208.5z"/>
<g>
	<rect x="49" y="153" style="&st4;" width="4" height="2"/>
	<rect x="49" y="156" style="&st4;" width="4" height="2"/>
	<rect x="49" y="159" style="&st4;" width="4" height="2"/>
	<rect x="43" y="153" style="&st4;" width="4" height="2"/>
	<rect x="43" y="156" style="&st4;" width="4" height="2"/>
	<rect x="43" y="159" style="&st4;" width="4" height="2"/>
	<rect x="37" y="145" style="&st4;" width="4" height="3"/>
	<rect x="43" y="145" style="&st4;" width="4" height="3"/>
	<rect x="49" y="145" style="&st4;" width="4" height="3"/>
	<rect x="37" y="153" style="&st4;" width="4" height="2"/>
	<rect x="49" y="150" style="&st4;" width="4" height="2"/>
	<rect x="43" y="150" style="&st4;" width="4" height="2"/>
	<rect x="37" y="150" style="&st4;" width="4" height="2"/>
	<rect x="37" y="156" style="&st4;" width="4" height="2"/>
	<rect x="37" y="159" style="&st4;" width="4" height="2"/>
</g>
<g>
	<rect x="37" y="164" style="&st4;" width="5" height="2"/>
	<rect x="37" y="167" style="&st4;" width="5" height="2"/>
	<rect x="37" y="170" style="&st4;" width="5" height="2"/>
	<rect x="37" y="173" style="&st4;" width="5" height="2"/>
	<rect x="37" y="176" style="&st4;" width="5" height="2"/>
	<rect x="49" y="164" style="&st4;" width="4" height="2"/>
	<rect x="49" y="167" style="&st4;" width="4" height="2"/>
	<rect x="49" y="170" style="&st4;" width="4" height="2"/>
	<rect x="49" y="173" style="&st4;" width="4" height="2"/>
	<rect x="49" y="176" style="&st4;" width="4" height="2"/>
	<rect x="44" y="164" style="&st4;" width="4" height="2"/>
	<rect x="44" y="167" style="&st4;" width="4" height="2"/>
	<rect x="44" y="170" style="&st4;" width="4" height="2"/>
	<rect x="44" y="173" style="&st4;" width="4" height="2"/>
	<rect x="44" y="176" style="&st4;" width="4" height="2"/>
</g>
<path style="&st4;" d="M52,182v14H38v-14H52 M53,181H37v16h16V181L53,181z"/>
<rect x="39" y="183" style="&st4;" width="2" height="2"/>
<rect x="39" y="186" style="&st4;" width="2" height="9"/>
<rect x="42" y="183" style="&st4;" width="9" height="2"/>
<path style="&st4;" d="M46.5,187l-2.5,2h2v1c0,0.256-0.084,2.5-3,2.5v1c2.748,0,4-1.814,4-3.5v-1h2L46.5,187z"/>
<path style="&st4;" d="M52,200v14H38v-14H52 M53,199H37v16h16V199L53,199z"/>
<rect x="39" y="201" style="&st4;" width="2" height="2"/>
<rect x="39" y="204" style="&st4;" width="2" height="9"/>
<rect x="42" y="201" style="&st4;" width="9" height="2"/>
<path style="&st4;" d="M43,208.5l2-2.5v2h1c0.256,0,2.5-0.084,2.5-3h1c0,2.748-1.814,4-3.5,4h-1v2L43,208.5z"/>
</svg>
