<?xml version="1.0" encoding="utf-8"?>
<!DOCTYPE svg PUBLIC "-//W3C//DTD SVG 1.1//EN" "http://www.w3.org/Graphics/SVG/1.1/DTD/svg11.dtd" [
	<!ENTITY st0 "fill:#FFFFFF;">
	<!ENTITY st1 "fill:#D3DEED;">
	<!ENTITY st2 "fill:#71B1E4;">
	<!ENTITY st3 "opacity:0.5;fill:#FFFFFF;">
	<!ENTITY st4 "fill:#D9D9D9;">
	<!ENTITY st5 "fill:#9D9D9C;">
	<!ENTITY st6 "fill:#BAC0CF;">
	<!ENTITY st7 "fill:#636F80;">
]>
<svg version="1.1" id="img" xmlns="http://www.w3.org/2000/svg" xmlns:xlink="http://www.w3.org/1999/xlink" x="0px" y="0px"
	 width="112px" height="16px" viewBox="0 0 112 16" style="enable-background:new 0 0 112 16;" xml:space="preserve">
<path id="filterswitch-off.inverted" style="&st0;" d="M88,5h7l-3,3.75V12h-1V8.75L88,5z M112,8.5c0,4.142-3.358,7.5-7.5,7.5
	c-1.36,0-2.631-0.367-3.731-1H90.5c-3.584,0-6.5-2.916-6.5-6.5S86.916,2,90.5,2h10.269c1.1-0.633,2.371-1,3.731-1
	C108.642,1,112,4.358,112,8.5z M97,8.5c0-2.176,0.933-4.13,2.413-5.5H90.5C87.467,3,85,5.467,85,8.5s2.467,5.5,5.5,5.5h8.913
	C97.933,12.63,97,10.676,97,8.5z M102,11h-1v1h1V11z M102,8h-1v1h1V8z M102,5h-1v1h1V5z M108,11h-5v1h5V11z M108,8h-5v1h5V8z M108,5
	h-5v1h5V5z"/>
<g id="filterswitch-off.hover">
	<path style="&st1;" d="M77.5,15h-15c-3.59,0-6.5-2.91-6.5-6.5v0C56,4.91,58.91,2,62.5,2h15C81.09,2,84,4.91,84,8.5v0
		C84,12.09,81.09,15,77.5,15z"/>
	<circle style="&st2;" cx="76.5" cy="8.5" r="7.5"/>
	<polygon style="&st3;" points="67,5 60,5 63,8.75 63,12 64,12 64,8.75 	"/>
	<path style="&st0;" d="M74,5h-1v1h1V5z M74,11h-1v1h1V11z M80,5h-5v1h5V5z M80,8h-5v1h5V8z M80,11h-5v1h5V11z M74,9h-1V8h1V9z"/>
</g>
<g id="filterswitch-off.disabled">
	<path style="&st4;" d="M49.5,15h-15c-3.59,0-6.5-2.91-6.5-6.5v0C28,4.91,30.91,2,34.5,2h15C53.09,2,56,4.91,56,8.5v0
		C56,12.09,53.09,15,49.5,15z"/>
	<circle style="&st5;" cx="48.5" cy="8.5" r="7.5"/>
	<polygon style="&st3;" points="39,5 32,5 35,8.75 35,12 36,12 36,8.75 	"/>
	<path style="&st0;" d="M46,5h-1v1h1V5z M46,11h-1v1h1V11z M52,5h-5v1h5V5z M52,8h-5v1h5V8z M52,11h-5v1h5V11z M46,9h-1V8h1V9z"/>
</g>
<g id="filterswitch-off.default">
	<path style="&st6;" d="M21.5,15h-15C2.91,15,0,12.09,0,8.5v0C0,4.91,2.91,2,6.5,2h15C25.09,2,28,4.91,28,8.5v0
		C28,12.09,25.09,15,21.5,15z"/>
	<circle style="&st7;" cx="20.5" cy="8.5" r="7.5"/>
	<polygon style="&st3;" points="11,5 4,5 7,8.75 7,12 8,12 8,8.75 	"/>
	<path style="&st0;" d="M18,5h-1v1h1V5z M18,11h-1v1h1V11z M24,5h-5v1h5V5z M24,8h-5v1h5V8z M24,11h-5v1h5V11z M18,9h-1V8h1V9z"/>
</g>
</svg>
