<?xml version="1.0" encoding="utf-8"?>
<!DOCTYPE svg PUBLIC "-//W3C//DTD SVG 1.1//EN" "http://www.w3.org/Graphics/SVG/1.1/DTD/svg11.dtd" [
	<!ENTITY st0 "fill:#FFFFFF;">
	<!ENTITY st1 "fill:#BFBFBF;">
	<!ENTITY st2 "fill:#71B1E4;">
	<!ENTITY st3 "fill:#F7931E;">
]>
<svg version="1.1" id="img" xmlns="http://www.w3.org/2000/svg" xmlns:xlink="http://www.w3.org/1999/xlink" x="0px" y="0px"
	 width="54px" height="108px" viewBox="0 0 54 108" style="enable-background:new 0 0 54 108;" xml:space="preserve">
<g id="join-left.inverted">
	<path style="&st0;" d="M45.916,103.543 M45.916,94.457C46.567,94.156,47.276,94,48,94c2.757,0,5,2.243,5,5s-2.243,5-5,5
		c-0.724,0-1.433-0.156-2.084-0.457l-1.189,0.482C45.704,104.663,46.835,105,48,105c3.309,0,6-2.691,6-6s-2.691-6-6-6
		c-1.165,0-2.296,0.337-3.273,0.975L45.916,94.457"/>
	<circle style="&st0;" cx="42" cy="99" r="6"/>
</g>
<g id="join-left.disabled">
	<path style="&st1;" d="M27.916,103.543 M27.916,94.457C28.567,94.156,29.276,94,30,94c2.757,0,5,2.243,5,5s-2.243,5-5,5
		c-0.724,0-1.433-0.156-2.084-0.457l-1.189,0.482C27.704,104.663,28.835,105,30,105c3.309,0,6-2.691,6-6s-2.691-6-6-6
		c-1.165,0-2.296,0.337-3.273,0.975L27.916,94.457"/>
	<circle style="&st1;" cx="24" cy="99" r="6"/>
</g>
<g id="join-left.default">
	<path style="&st2;" d="M9.916,103.543 M9.916,94.457C10.567,94.156,11.276,94,12,94c2.757,0,5,2.243,5,5s-2.243,5-5,5
		c-0.724,0-1.433-0.156-2.084-0.457l-1.189,0.482C9.704,104.663,10.835,105,12,105c3.309,0,6-2.691,6-6s-2.691-6-6-6
		c-1.165,0-2.296,0.337-3.273,0.975L9.916,94.457"/>
	<circle style="&st3;" cx="6" cy="99" r="6"/>
</g>
<g id="join-right.inverted">
	<path style="&st0;" d="M44.084,85.543 M44.084,76.457C43.433,76.156,42.724,76,42,76c-2.757,0-5,2.243-5,5s2.243,5,5,5
		c0.724,0,1.433-0.156,2.084-0.457l1.189,0.482C44.296,86.663,43.165,87,42,87c-3.309,0-6-2.691-6-6s2.691-6,6-6
		c1.165,0,2.296,0.337,3.273,0.975L44.084,76.457"/>
	<circle style="&st0;" cx="48" cy="81" r="6"/>
</g>
<g id="join-right.disabled">
	<path style="&st1;" d="M26.084,85.543 M26.084,76.457C25.433,76.156,24.724,76,24,76c-2.757,0-5,2.243-5,5s2.243,5,5,5
		c0.724,0,1.433-0.156,2.084-0.457l1.189,0.482C26.296,86.663,25.165,87,24,87c-3.309,0-6-2.691-6-6s2.691-6,6-6
		c1.165,0,2.296,0.337,3.273,0.975L26.084,76.457"/>
	<circle style="&st1;" cx="30" cy="81" r="6"/>
</g>
<g id="join-right.default">
	<path style="&st2;" d="M8.084,85.543 M8.084,76.457C7.433,76.156,6.724,76,6,76c-2.757,0-5,2.243-5,5s2.243,5,5,5
		c0.724,0,1.433-0.156,2.084-0.457l1.189,0.482C8.296,86.663,7.165,87,6,87c-3.309,0-6-2.691-6-6s2.691-6,6-6
		c1.165,0,2.296,0.337,3.273,0.975L8.084,76.457"/>
	<circle style="&st3;" cx="12" cy="81" r="6"/>
</g>
<g id="join-diff.inverted">
	<path style="&st0;" d="M42,57c1.165,0,2.296,0.337,3.273,0.975l0.211,0.138C43.713,59.026,42.5,60.87,42.5,63
		c0,2.13,1.213,3.974,2.985,4.887l-0.211,0.138C44.296,68.663,43.165,69,42,69c-3.309,0-6-2.691-6-6S38.691,57,42,57z"/>
	<path style="&st0;" d="M48,69c3.309,0,6-2.691,6-6s-2.691-6-6-6s-6,2.691-6,6S44.691,69,48,69z M48,58c2.757,0,5,2.243,5,5
		s-2.243,5-5,5s-5-2.243-5-5S45.243,58,48,58z"/>
</g>
<g id="join-diff.disabled">
	<path style="&st1;" d="M24,57c1.165,0,2.296,0.337,3.273,0.975l0.211,0.138C25.713,59.026,24.5,60.87,24.5,63
		c0,2.13,1.213,3.974,2.985,4.887l-0.211,0.138C26.296,68.663,25.165,69,24,69c-3.309,0-6-2.691-6-6S20.691,57,24,57z"/>
	<path style="&st1;" d="M30,69c3.309,0,6-2.691,6-6s-2.691-6-6-6s-6,2.691-6,6S26.691,69,30,69z M30,58c2.757,0,5,2.243,5,5
		s-2.243,5-5,5s-5-2.243-5-5S27.243,58,30,58z"/>
</g>
<g id="join-diff.default">
	<path style="&st3;" d="M6,57c1.165,0,2.296,0.337,3.273,0.975l0.211,0.138C7.713,59.026,6.5,60.87,6.5,63
		c0,2.13,1.213,3.974,2.985,4.887l-0.211,0.138C8.296,68.663,7.165,69,6,69c-3.309,0-6-2.691-6-6S2.691,57,6,57z"/>
	<path style="&st2;" d="M12,69c3.309,0,6-2.691,6-6s-2.691-6-6-6s-6,2.691-6,6S8.691,69,12,69z M12,58c2.757,0,5,2.243,5,5
		s-2.243,5-5,5s-5-2.243-5-5S9.243,58,12,58z"/>
</g>
<g id="join-diff-right.inverted">
	<path style="&st0;" d="M48,39c-1.165,0-2.296,0.337-3.273,0.975l-0.211,0.138C46.287,41.026,47.5,42.87,47.5,45
		c0,2.13-1.213,3.974-2.985,4.887l0.211,0.138C45.704,50.663,46.835,51,48,51c3.309,0,6-2.691,6-6S51.309,39,48,39z"/>
	<path style="&st0;" d="M42,51c-3.309,0-6-2.691-6-6s2.691-6,6-6s6,2.691,6,6S45.309,51,42,51z M42,40c-2.757,0-5,2.243-5,5
		s2.243,5,5,5s5-2.243,5-5S44.757,40,42,40z"/>
</g>
<g id="join-diff-right.disabled">
	<path style="&st1;" d="M30,39c-1.165,0-2.296,0.337-3.273,0.975l-0.211,0.138C28.287,41.026,29.5,42.87,29.5,45
		c0,2.13-1.213,3.974-2.985,4.887l0.211,0.138C27.704,50.663,28.835,51,30,51c3.309,0,6-2.691,6-6S33.309,39,30,39z"/>
	<path style="&st1;" d="M24,51c-3.309,0-6-2.691-6-6s2.691-6,6-6s6,2.691,6,6S27.309,51,24,51z M24,40c-2.757,0-5,2.243-5,5
		s2.243,5,5,5s5-2.243,5-5S26.757,40,24,40z"/>
</g>
<g id="join-diff-right.default">
	<path style="&st3;" d="M12,39c-1.165,0-2.296,0.337-3.273,0.975l-0.211,0.138C10.287,41.026,11.5,42.87,11.5,45
		c0,2.13-1.213,3.974-2.985,4.887l0.211,0.138C9.704,50.663,10.835,51,12,51c3.309,0,6-2.691,6-6S15.309,39,12,39z"/>
	<path style="&st2;" d="M6,51c-3.309,0-6-2.691-6-6s2.691-6,6-6s6,2.691,6,6S9.309,51,6,51z M6,40c-2.757,0-5,2.243-5,5s2.243,5,5,5
		s5-2.243,5-5S8.757,40,6,40z"/>
</g>
<g id="join-inner.inverted">
	<path style="&st0;" d="M48,21c-1.093,0-2.116,0.299-3,0.812C44.116,21.299,43.093,21,42,21c-3.309,0-6,2.691-6,6s2.691,6,6,6
		c1.093,0,2.116-0.299,3-0.812C45.884,32.701,46.907,33,48,33c3.309,0,6-2.691,6-6S51.309,21,48,21z M44.08,31.533
		C43.445,31.826,42.744,32,42,32c-2.757,0-5-2.243-5-5s2.243-5,5-5c0.744,0,1.445,0.174,2.08,0.467h1.839
		C46.555,22.174,47.256,22,48,22c2.757,0,5,2.243,5,5s-2.243,5-5,5c-0.744,0-1.445-0.174-2.08-0.467H44.08z"/>
	<path style="&st0;" d="M45,32.203l-0.273-0.178C43.02,30.911,42,29.032,42,27s1.02-3.911,2.727-5.025L45,21.797l0.273,0.178
		C46.98,23.089,48,24.968,48,27s-1.02,3.911-2.727,5.025L45,32.203z"/>
</g>
<g id="join-inner.disabled">
	<path style="&st1;" d="M30,21c-1.093,0-2.116,0.299-3,0.812C26.116,21.299,25.093,21,24,21c-3.309,0-6,2.691-6,6s2.691,6,6,6
		c1.093,0,2.116-0.299,3-0.812C27.884,32.701,28.907,33,30,33c3.309,0,6-2.691,6-6S33.309,21,30,21z M26.08,31.533
		C25.445,31.826,24.744,32,24,32c-2.757,0-5-2.243-5-5s2.243-5,5-5c0.744,0,1.445,0.174,2.08,0.467h1.839
		C28.555,22.174,29.256,22,30,22c2.757,0,5,2.243,5,5s-2.243,5-5,5c-0.744,0-1.445-0.174-2.08-0.467H26.08z"/>
	<path style="&st1;" d="M27,32.203l-0.273-0.178C25.02,30.911,24,29.032,24,27s1.02-3.911,2.727-5.025L27,21.797l0.273,0.178
		C28.98,23.089,30,24.968,30,27s-1.02,3.911-2.727,5.025L27,32.203z"/>
</g>
<g id="join-inner.default">
	<path style="&st2;" d="M12,21c-1.093,0-2.116,0.299-3,0.812C8.116,21.299,7.093,21,6,21c-3.309,0-6,2.691-6,6s2.691,6,6,6
		c1.093,0,2.116-0.299,3-0.812C9.884,32.701,10.907,33,12,33c3.309,0,6-2.691,6-6S15.309,21,12,21z M8.08,31.533
		C7.445,31.826,6.744,32,6,32c-2.757,0-5-2.243-5-5s2.243-5,5-5c0.744,0,1.445,0.174,2.08,0.467H9.92C10.555,22.174,11.256,22,12,22
		c2.757,0,5,2.243,5,5s-2.243,5-5,5c-0.744,0-1.445-0.174-2.08-0.467H8.08z"/>
	<path style="&st3;" d="M9,32.203l-0.273-0.178C7.02,30.911,6,29.032,6,27s1.02-3.911,2.727-5.025L9,21.797l0.273,0.178
		C10.98,23.089,12,24.968,12,27s-1.02,3.911-2.727,5.025L9,32.203z"/>
</g>
<path id="join-full.inverted" style="&st0;" d="M48,3c-1.09,0-2.108,0.296-2.989,0.804c0.032,0.022,0.567,0.381,0.705,0.49L45,5.186
	l-0.716-0.893c0.138-0.109,0.672-0.468,0.705-0.49C44.108,3.296,43.09,3,42,3c-3.314,0-6,2.686-6,6s2.686,6,6,6
	c1.09,0,2.108-0.296,2.989-0.804c-0.032-0.022-0.567-0.381-0.705-0.49L45,12.813l0.716,0.893c-0.138,0.109-0.672,0.468-0.705,0.49
	C45.892,14.704,46.91,15,48,15c3.314,0,6-2.686,6-6S51.314,3,48,3z M42.269,7.22l0.955,0.297c-0.099,0.317-0.166,0.647-0.199,0.979
	l-0.995-0.1C42.07,7.998,42.15,7.602,42.269,7.22z M42.029,9.596l0.995-0.098c0.033,0.333,0.099,0.662,0.198,0.979l-0.955,0.296
	C42.149,10.393,42.069,9.997,42.029,9.596z M43.416,12.868c-0.258-0.306-0.487-0.638-0.679-0.989l0.876-0.481
	c0.161,0.292,0.352,0.57,0.567,0.825L43.416,12.868z M43.616,6.598l-0.877-0.481c0.192-0.35,0.421-0.683,0.681-0.989l0.763,0.646
	C43.967,6.029,43.776,6.306,43.616,6.598z M46.584,5.132c0.258,0.306,0.487,0.638,0.679,0.989l-0.876,0.481
	c-0.161-0.292-0.352-0.57-0.567-0.825L46.584,5.132z M46.58,12.873l-0.763-0.646c0.216-0.255,0.407-0.532,0.567-0.824l0.877,0.481
	C47.068,12.233,46.839,12.566,46.58,12.873z M47.731,10.78l-0.955-0.297c0.099-0.317,0.166-0.647,0.199-0.979l0.995,0.1
	C47.93,10.002,47.85,10.398,47.731,10.78z M46.976,8.501c-0.033-0.333-0.099-0.662-0.198-0.979l0.955-0.296
	c0.118,0.381,0.198,0.777,0.238,1.178L46.976,8.501z"/>
<g id="join-full.disabled">
	<path style="&st1;" d="M30,3c-1.094,0-2.117,0.298-3,0.809C26.117,3.298,25.094,3,24,3c-3.314,0-6,2.686-6,6s2.686,6,6,6
		c1.094,0,2.117-0.298,3-0.809C27.883,14.702,28.906,15,30,15c3.314,0,6-2.686,6-6S33.314,3,30,3z"/>
	<path style="&st0;" d="M27,14.204c0,0-0.574-0.385-0.716-0.497L27,12.813l0.716,0.893C27.574,13.819,27,14.204,27,14.204z"/>
	<path style="&st0;" d="M28.58,12.873l-0.763-0.646c0.216-0.255,0.407-0.532,0.567-0.824l0.877,0.481
		C29.068,12.233,28.839,12.566,28.58,12.873z M29.731,10.78l-0.955-0.297c0.099-0.317,0.166-0.647,0.199-0.979l0.995,0.1
		C29.93,10.002,29.85,10.398,29.731,10.78z M28.976,8.501c-0.033-0.333-0.099-0.662-0.198-0.979l0.955-0.296
		c0.118,0.381,0.198,0.777,0.238,1.178L28.976,8.501z M28.387,6.603c-0.161-0.292-0.352-0.57-0.567-0.825l0.764-0.646
		c0.258,0.306,0.487,0.638,0.679,0.989L28.387,6.603z"/>
	<path style="&st0;" d="M27,5.186l-0.716-0.893C26.426,4.181,27,3.796,27,3.796s0.574,0.385,0.716,0.497L27,5.186z"/>
	<path style="&st0;" d="M25.416,12.868c-0.258-0.306-0.487-0.638-0.679-0.989l0.876-0.481c0.161,0.292,0.352,0.57,0.567,0.825
		L25.416,12.868z M24.267,10.774c-0.118-0.381-0.198-0.777-0.238-1.178l0.995-0.098c0.033,0.333,0.099,0.662,0.198,0.979
		L24.267,10.774z M25.025,8.496l-0.995-0.1c0.04-0.398,0.12-0.794,0.239-1.176l0.955,0.297C25.125,7.834,25.059,8.164,25.025,8.496z
		 M25.616,6.598l-0.877-0.481c0.192-0.35,0.421-0.683,0.681-0.989l0.763,0.646C25.967,6.029,25.776,6.306,25.616,6.598z"/>
</g>
<g id="join-full.default">
	<path style="&st3;" d="M12,3c-1.094,0-2.117,0.298-3,0.809C8.117,3.298,7.094,3,6,3C2.686,3,0,5.686,0,9s2.686,6,6,6
		c1.094,0,2.117-0.298,3-0.809C9.883,14.702,10.906,15,12,15c3.314,0,6-2.686,6-6S15.314,3,12,3z"/>
	<path style="&st0;" d="M9,14.204c0,0-0.574-0.385-0.716-0.497L9,12.813l0.716,0.893C9.574,13.819,9,14.204,9,14.204z"/>
	<path style="&st0;" d="M10.58,12.873l-0.763-0.646c0.216-0.255,0.407-0.532,0.567-0.824l0.877,0.481
		C11.068,12.233,10.839,12.566,10.58,12.873z M11.731,10.78l-0.955-0.297c0.099-0.317,0.166-0.647,0.199-0.979l0.995,0.1
		C11.93,10.002,11.85,10.398,11.731,10.78z M10.976,8.501c-0.033-0.333-0.099-0.662-0.198-0.979l0.955-0.296
		c0.118,0.381,0.198,0.777,0.238,1.178L10.976,8.501z M10.387,6.603c-0.161-0.292-0.352-0.57-0.567-0.825l0.764-0.646
		c0.258,0.306,0.487,0.638,0.679,0.989L10.387,6.603z"/>
	<path style="&st0;" d="M9,5.186L8.284,4.293C8.426,4.181,9,3.796,9,3.796s0.574,0.385,0.716,0.497L9,5.186z"/>
	<path style="&st0;" d="M7.416,12.868c-0.258-0.306-0.487-0.638-0.679-0.989l0.876-0.481c0.161,0.292,0.352,0.57,0.567,0.825
		L7.416,12.868z M6.267,10.774c-0.118-0.381-0.198-0.777-0.238-1.178l0.995-0.098c0.033,0.333,0.099,0.662,0.198,0.979L6.267,10.774
		z M7.025,8.496l-0.995-0.1C6.07,7.998,6.15,7.602,6.269,7.22l0.955,0.297C7.125,7.834,7.059,8.164,7.025,8.496z M7.616,6.598
		L6.739,6.116c0.192-0.35,0.421-0.683,0.681-0.989l0.763,0.646C7.967,6.029,7.776,6.306,7.616,6.598z"/>
</g>
</svg>
