<?xml version="1.0" encoding="utf-8"?>
<!-- Generator: Adobe Illustrator 21.1.0, SVG Export Plug-In . SVG Version: 6.00 Build 0)  -->
<!DOCTYPE svg PUBLIC "-//W3C//DTD SVG 1.1//EN" "http://www.w3.org/Graphics/SVG/1.1/DTD/svg11.dtd" [
	<!ENTITY st0 "fill:#FFFFFF;">
	<!ENTITY st1 "fill:#808080;">
	<!ENTITY st2 "fill:#D9D9D9;">
	<!ENTITY st3 "fill:#71B1E4;">
	<!ENTITY st4 "fill:#F7931E;">
]>
<svg version="1.1" id="Layer_1" xmlns="http://www.w3.org/2000/svg" xmlns:xlink="http://www.w3.org/1999/xlink" x="0px" y="0px"
	 width="54px" height="36px" viewBox="0 0 54 36" style="enable-background:new 0 0 54 36;" xml:space="preserve">
<g>
	<polygon style="&st0;" points="51,21 50,21 48,21 48,23 50,23 50,31 48,31 48,33 50,33 51,33 52,33 52,21 	"/>
	<polygon style="&st0;" points="39,21 38,21 38,33 39,33 40,33 42,33 42,31 40,31 40,23 42,23 42,21 40,21 	"/>
</g>
<g>
	<path style="&st0;" d="M38,5.008V7c0,1.624-1,2-1,2l2.223,0C39.224,8.999,40,8.623,40,7V5h2V3h-1.992C38.899,3,38,3.899,38,5.008z"
		/>
	<path style="&st0;" d="M38,11v1.992C38,14.101,38.899,15,40.008,15H42v-2h-2v-2c0-1.623-0.776-2-0.777-2L37,9C37,9,38,9.376,38,11z
		"/>
	<path style="&st0;" d="M50,11v2h-2v2h1.992C51.101,15,52,14.101,52,12.992V11c0-1.624,1-2,1-2l-2.223,0C50.776,9,50,9.377,50,11z"
		/>
	<path style="&st0;" d="M52,7V5.008C52,3.899,51.101,3,49.992,3H48v2h2v2c0,1.623,0.776,2,0.776,2L53,9C53,9,52,8.623,52,7z"/>
</g>
<g>
	<polygon style="&st1;" points="33,21 32,21 30,21 30,23 32,23 32,31 30,31 30,33 32,33 33,33 34,33 34,21 	"/>
	<polygon style="&st1;" points="21,21 20,21 20,33 21,33 22,33 24,33 24,31 22,31 22,23 24,23 24,21 22,21 	"/>
</g>
<g>
	<path style="&st2;" d="M20,5.008V7c0,1.624-1,2-1,2l2.223,0C21.224,8.999,22,8.623,22,7V5h2V3h-1.992C20.899,3,20,3.899,20,5.008z"
		/>
	<path style="&st2;" d="M20,11v1.992C20,14.101,20.899,15,22.008,15H24v-2h-2v-2c0-1.623-0.776-2-0.776-2L19,9C19,9,20,9.376,20,11z
		"/>
	<path style="&st2;" d="M32,11v2h-2v2h1.992C33.101,15,34,14.101,34,12.992V11c0-1.624,1-2,1-2l-2.223,0C32.776,9,32,9.377,32,11z"
		/>
	<path style="&st2;" d="M34,7V5.008C34,3.899,33.101,3,31.992,3H30v2h2v2c0,1.623,0.776,2,0.776,2L35,9C35,9,34,8.623,34,7z"/>
</g>
<g>
	<polygon style="&st3;" points="15,21 14,21 12,21 12,23 14,23 14,31 12,31 12,33 14,33 15,33 16,33 16,21 	"/>
	<polygon style="&st3;" points="3,21 2,21 2,33 3,33 4,33 6,33 6,31 4,31 4,23 6,23 6,21 4,21 	"/>
</g>
<g>
	<path style="&st4;" d="M2,5.008V7c0,1.624-1,2-1,2l2.223,0C3.224,8.999,4,8.623,4,7V5h2V3H4.008C2.899,3,2,3.899,2,5.008z"/>
	<path style="&st4;" d="M2,11v1.992C2,14.101,2.899,15,4.008,15H6v-2H4v-2c0-1.623-0.776-2-0.776-2L1,9C1,9,2,9.376,2,11z"/>
	<path style="&st4;" d="M14,11v2h-2v2h1.992C15.101,15,16,14.101,16,12.992V11c0-1.624,1-2,1-2l-2.223,0C14.776,9,14,9.377,14,11z"
		/>
	<path style="&st4;" d="M16,7V5.008C16,3.899,15.101,3,13.992,3H12v2h2v2c0,1.623,0.776,2,0.776,2L17,9C17,9,16,8.623,16,7z"/>
</g>
</svg>
