<?xml version="1.0" encoding="utf-8"?>
<!-- Generator: Adobe Illustrator 21.1.0, SVG Export Plug-In . SVG Version: 6.00 Build 0)  -->
<!DOCTYPE svg PUBLIC "-//W3C//DTD SVG 1.1//EN" "http://www.w3.org/Graphics/SVG/1.1/DTD/svg11.dtd" [
	<!ENTITY st0 "fill:#9A9FAF;">
	<!ENTITY st1 "fill:#FFFFFF;">
	<!ENTITY st2 "fill:#71B1E4;">
	<!ENTITY st3 "fill:#A23938;">
	<!ENTITY st4 "fill:#475B72;">
	<!ENTITY st5 "fill:#333333;">
	<!ENTITY st6 "fill:#7D2B29;">
	<!ENTITY st7 "fill:#E7D2D5;">
	<!ENTITY st8 "fill-rule:evenodd;clip-rule:evenodd;fill:#9A9FAF;">
	<!ENTITY st9 "fill-rule:evenodd;clip-rule:evenodd;fill:#FFFFFF;">
]>
<svg version="1.1" id="Слой_4" xmlns="http://www.w3.org/2000/svg" xmlns:xlink="http://www.w3.org/1999/xlink" x="0px" y="0px"
	 width="96px" height="336px" viewBox="0 0 96 336" style="enable-background:new 0 0 96 336;" xml:space="preserve">
<g>
	<path style="&st0;" d="M16,320h7.407c-0.102-0.484-0.157-0.986-0.157-1.5c0-3.445,2.406-6.323,5.627-7.061l0.055-0.129l0.288-1.35
		l0.168,0.112l2.612,0.3l-2.092-2.52l-0.776-4.178l-1.788-1.836l-0.282-0.064l0.024-0.234l-0.59-0.138l0.894-0.712l-1.648-0.598
		l-0.356,0.652l0.004-0.462L23.662,300l0.334,0.816l-0.81-0.19l-0.09,0.242l-1.366-0.312l-4.012,1.928l-2.294,4.506l-2.896,1.814
		l3.388,0.406l0.672-0.202l0.16,2.994l1.04,0.104l0.286,1.12l-2.014,1.05l-1.34,3.08l-0.37,0.18v-0.87H12v2.284h2.35l0.612-0.516
		l1.476-3.9l1.706-1.03l0.412,1.608l-1.222,0.424L16,320z"/>
</g>
<g>
	<ellipse style="&st1;" cx="71.502" cy="169.231" rx="2.535" ry="2.539"/>
	<path style="&st1;" d="M83.058,165.256c0.113,0.114,0.262,0.171,0.411,0.171c0.149,0,0.298-0.057,0.412-0.171l0.41-0.412
		c0.23-0.228,0.23-0.596,0-0.826l-1.026-1.031c0.127-0.256,0.224-0.528,0.285-0.816h1.385c0.322,0,0.583-0.26,0.585-0.584v-0.583
		c-0.002-0.321-0.263-0.584-0.585-0.584h-1.459c-0.088-0.279-0.209-0.545-0.357-0.791l0.965-0.972c0.23-0.227,0.23-0.596,0-0.824
		l-0.41-0.411c-0.114-0.113-0.262-0.17-0.411-0.17c-0.149,0-0.298,0.057-0.412,0.17l-0.985,0.985
		c-0.267-0.152-0.554-0.27-0.862-0.348v-1.282c0-0.322-0.259-0.584-0.581-0.584h-0.581c-0.32,0-0.581,0.262-0.581,0.584v1.282
		c-0.335,0.083-0.649,0.218-0.938,0.392l-0.825-0.823c-0.113-0.114-0.262-0.171-0.412-0.171c-0.149,0-0.299,0.057-0.413,0.171
		l-0.411,0.412c-0.228,0.227-0.226,0.597,0.002,0.826l0.839,0.84c-0.177,0.31-0.31,0.648-0.386,1.008h-1.098
		c-0.322,0-0.583,0.26-0.583,0.584v0.583c0,0.321,0.261,0.582,0.583,0.582h1.172c0.105,0.352,0.265,0.676,0.472,0.97l-0.794,0.793
		c-0.228,0.229-0.228,0.599,0,0.826l0.41,0.412c0.115,0.113,0.264,0.17,0.413,0.17c0.15,0,0.299-0.057,0.413-0.171l0.885-0.885
		c0.298,0.148,0.622,0.255,0.961,0.312v1.219c0,0.322,0.261,0.584,0.581,0.585h0.583c0.32-0.001,0.579-0.264,0.579-0.585v-1.37
		c0.294-0.104,0.573-0.243,0.825-0.42L83.058,165.256z M80.135,162.899c-0.803,0-1.457-0.651-1.457-1.458
		c0-0.807,0.653-1.458,1.457-1.458c0.803,0,1.455,0.651,1.455,1.458C81.59,162.248,80.938,162.899,80.135,162.899z"/>
	<g>
		<path style="&st1;" d="M80.716,167.692h-0.588c-0.868-0.004-1.575-0.715-1.575-1.585v-0.081l-0.143,0.143
			c-0.299,0.299-0.696,0.463-1.119,0.463c-0.419,0-0.814-0.162-1.121-0.464l-0.407-0.409c-0.299-0.298-0.464-0.696-0.465-1.118
			c-0.001-0.424,0.164-0.822,0.464-1.124l0.055-0.055h-0.2c-0.528,0-0.994-0.262-1.281-0.661
			c-5.072-1.169-10.713,0.823-13.818,6.008v0.846c5.069,8.462,16.897,8.462,21.966,0v-0.846c-0.29-0.484-0.608-0.933-0.939-1.361
			C81.305,167.598,81.022,167.691,80.716,167.692z M71.502,174.307c-2.802,0-5.069-2.274-5.069-5.077
			c0-2.806,2.267-5.077,5.069-5.077c2.798,0,5.069,2.271,5.069,5.077C76.571,172.033,74.3,174.307,71.502,174.307z"/>
	</g>
</g>
<g>
	<ellipse style="&st0;" cx="23.502" cy="169.23" rx="2.535" ry="2.539"/>
	<path style="&st0;" d="M35.058,165.255c0.113,0.114,0.262,0.171,0.411,0.171c0.149,0,0.298-0.057,0.412-0.171l0.41-0.412
		c0.23-0.228,0.23-0.596,0-0.826l-1.026-1.031c0.127-0.256,0.224-0.528,0.285-0.816h1.385c0.322,0,0.583-0.26,0.585-0.585v-0.583
		c-0.002-0.321-0.263-0.584-0.585-0.584h-1.459c-0.088-0.279-0.209-0.546-0.357-0.792l0.965-0.972c0.23-0.227,0.23-0.596,0-0.824
		l-0.41-0.411c-0.114-0.113-0.263-0.17-0.411-0.17c-0.149,0-0.298,0.057-0.412,0.17l-0.985,0.985
		c-0.267-0.152-0.554-0.27-0.862-0.348v-1.282c0-0.322-0.259-0.584-0.581-0.584h-0.581c-0.32,0-0.581,0.262-0.581,0.584v1.282
		c-0.335,0.084-0.649,0.218-0.938,0.392l-0.825-0.823c-0.113-0.114-0.263-0.171-0.412-0.171c-0.149,0-0.299,0.057-0.413,0.171
		l-0.411,0.412c-0.228,0.227-0.226,0.597,0.002,0.826l0.839,0.84c-0.177,0.31-0.31,0.648-0.386,1.008h-1.098
		c-0.322,0-0.583,0.26-0.583,0.584v0.583c0,0.321,0.261,0.582,0.583,0.582h1.172c0.105,0.352,0.265,0.676,0.472,0.97l-0.794,0.793
		c-0.228,0.229-0.228,0.599,0,0.826l0.41,0.412c0.115,0.113,0.264,0.17,0.413,0.17c0.15,0,0.299-0.057,0.413-0.171l0.885-0.885
		c0.298,0.147,0.622,0.255,0.961,0.311v1.219c0,0.322,0.261,0.584,0.581,0.585h0.583c0.32-0.001,0.579-0.264,0.579-0.585v-1.37
		c0.294-0.105,0.573-0.243,0.825-0.42L35.058,165.255z M32.135,162.899c-0.803,0-1.457-0.651-1.457-1.458
		c0-0.807,0.653-1.458,1.457-1.458c0.804,0,1.455,0.651,1.455,1.458C33.59,162.248,32.938,162.899,32.135,162.899z"/>
	<g>
		<path style="&st0;" d="M32.716,167.691h-0.588c-0.868-0.004-1.575-0.715-1.575-1.585v-0.081l-0.143,0.143
			c-0.299,0.299-0.696,0.463-1.119,0.463c-0.419,0-0.814-0.162-1.121-0.464l-0.407-0.409c-0.299-0.298-0.464-0.696-0.465-1.118
			c-0.001-0.424,0.164-0.822,0.464-1.124l0.055-0.055h-0.2c-0.528,0-0.994-0.262-1.281-0.661
			c-5.072-1.169-10.713,0.823-13.818,6.008v0.846c5.069,8.462,16.897,8.462,21.966,0v-0.846c-0.29-0.484-0.608-0.933-0.939-1.361
			C33.305,167.598,33.022,167.69,32.716,167.691z M23.502,174.307c-2.802,0-5.069-2.274-5.069-5.077
			c0-2.806,2.267-5.077,5.069-5.077c2.798,0,5.069,2.271,5.069,5.077C28.571,172.033,26.301,174.307,23.502,174.307z"/>
	</g>
</g>
<g>
	<path style="&st0;" d="M24,62c5.514,0,10,4.486,10,10s-4.486,10-10,10s-10-4.486-10-10S18.486,62,24,62 M24,60
		c-6.627,0-12,5.373-12,12s5.373,12,12,12c6.627,0,12-5.373,12-12S30.627,60,24,60L24,60z"/>
	<polygon style="&st0;" points="22.878,70.445 22.662,70.662 23.342,71.342 24.211,70.796 24.206,70.792 26.894,69.106 
		25.208,71.793 25.204,71.789 24.658,72.658 25.338,73.338 25.555,73.122 30.064,65.936 	"/>
	<polygon style="&st0;" points="22.662,70.662 22.445,70.878 17.936,78.064 25.122,73.555 25.338,73.338 	"/>
</g>
<path style="&st0;" d="M24,113.52l1.647,3.713l0.47,1.059l1.152,0.12l4.04,0.419l-3.022,2.714l-0.862,0.774l0.242,1.133l0.85,3.972
	l-3.515-2.036L24,124.806l-1.002,0.581l-3.515,2.036l0.85-3.972l0.242-1.133l-0.862-0.774l-3.022-2.714l4.04-0.419l1.152-0.12
	l0.47-1.059L24,113.52 M24,108.587l-3.475,7.834L12,117.306l6.377,5.726l-1.794,8.381L24,127.117l7.417,4.295l-1.794-8.381
	L36,117.306l-8.525-0.884L24,108.587L24,108.587z"/>
<g>
	<path style="&st1;" d="M72,62c5.514,0,10,4.486,10,10s-4.486,10-10,10s-10-4.486-10-10S66.486,62,72,62 M72,60
		c-6.627,0-12,5.373-12,12s5.373,12,12,12c6.627,0,12-5.373,12-12S78.627,60,72,60L72,60z"/>
	<polygon style="&st1;" points="70.878,70.445 70.662,70.662 71.342,71.342 72.211,70.796 72.206,70.792 74.894,69.106 
		73.207,71.793 73.203,71.789 72.658,72.658 73.338,73.338 73.554,73.122 78.064,65.936 	"/>
	<polygon style="&st1;" points="70.662,70.662 70.445,70.878 65.936,78.064 73.122,73.555 73.338,73.338 	"/>
</g>
<path style="&st1;" d="M72,113.52l1.647,3.713l0.47,1.059l1.152,0.12l4.04,0.419l-3.022,2.714l-0.862,0.774l0.242,1.133l0.85,3.972
	l-3.515-2.036L72,124.806l-1.002,0.581l-3.515,2.036l0.85-3.972l0.242-1.133l-0.862-0.774l-3.022-2.714l4.04-0.419l1.152-0.12
	l0.47-1.059L72,113.52 M72,108.587l-3.475,7.834L60,117.306l6.377,5.726l-1.793,8.381L72,127.117l7.416,4.295l-1.793-8.381
	L84,117.306l-8.525-0.884L72,108.587L72,108.587z"/>
<g>
	<polygon style="&st0;" points="24,16.227 21,15 13,18.272 16,19.5 13,20.727 21,24 24,22.772 16,19.5 	"/>
	<polygon style="&st0;" points="35,18.272 27,15 24,16.227 32,19.5 24,22.772 27,24 35,20.727 32,19.5 	"/>
</g>
<polygon style="&st0;" points="30,24.081 30,26.242 30,28 30,28.446 24,30.846 18,28.446 18,28 18,26.242 18,24.081 16,23.262 
	16,29.8 24,33 32,29.8 32,23.262 "/>
<g>
	<polygon style="&st1;" points="72,16.227 69,15 61,18.272 64,19.5 61,20.727 69,24 72,22.772 64,19.5 	"/>
	<polygon style="&st1;" points="83,18.272 75,15 72,16.227 80,19.5 72,22.772 75,24 83,20.727 80,19.5 	"/>
</g>
<polygon style="&st1;" points="78,24.081 78,26.242 78,28 78,28.446 72,30.846 66,28.446 66,28 66,26.242 66,24.081 64,23.262 
	64,29.8 72,33 80,29.8 80,23.262 "/>
<g>
	<path style="&st0;" d="M32.906,212.56c0.057-0.346,0.094-0.698,0.094-1.06c0-3.59-2.91-6.5-6.5-6.5
		c-3.168,0-5.803,2.267-6.38,5.267c-0.426-0.168-0.885-0.267-1.37-0.267c-2.071,0-3.75,1.679-3.75,3.75
		c0,0.175,0.028,0.341,0.051,0.51c-1.77,0.605-3.051,2.265-3.051,4.24c0,2.314,1.753,4.198,4,4.45v-2c-1.14-0.232-2-1.242-2-2.449
		c0-1.057,0.683-2.001,1.698-2.348l1.557-0.533l-0.222-1.63l-0.013-0.09c-0.008-0.053-0.018-0.106-0.02-0.149
		c0-0.965,0.785-1.75,1.75-1.75c0.208,0,0.422,0.043,0.638,0.128l2.242,0.883l0.455-2.367C22.49,208.533,24.347,207,26.5,207
		c2.481,0,4.5,2.019,4.5,4.5c0,0.219-0.022,0.46-0.067,0.735l-0.242,1.469l1.338,0.653C33.245,214.951,34,216.155,34,217.5
		c0,1.391-0.822,2.585-2,3.149v2.138c2.307-0.654,4-2.771,4-5.288C36,215.326,34.736,213.453,32.906,212.56z"/>
	<path style="&st0;" d="M29.094,219h-5.282l-0.584-1.71c-0.059-0.172-0.251-0.29-0.47-0.29h-4.269c-0.27,0-0.488,0.178-0.488,0.397
		V219v0.603v6.49c0,0.5,0.406,0.906,0.906,0.906h10.188c0.5,0,0.906-0.406,0.906-0.906v-6.188C30,219.406,29.594,219,29.094,219z"/>
</g>
<g>
	<path style="&st1;" d="M80.906,212.56c0.057-0.346,0.094-0.698,0.094-1.06c0-3.59-2.91-6.5-6.5-6.5
		c-3.168,0-5.803,2.267-6.38,5.267c-0.426-0.168-0.885-0.267-1.37-0.267c-2.071,0-3.75,1.679-3.75,3.75
		c0,0.175,0.028,0.341,0.051,0.51c-1.77,0.605-3.051,2.265-3.051,4.24c0,2.314,1.753,4.198,4,4.45v-2c-1.14-0.232-2-1.242-2-2.449
		c0-1.057,0.683-2.001,1.699-2.348l1.557-0.533l-0.222-1.63l-0.013-0.09c-0.008-0.053-0.018-0.106-0.02-0.149
		c0-0.965,0.785-1.75,1.75-1.75c0.207,0,0.422,0.043,0.637,0.128l2.242,0.883l0.455-2.367C70.49,208.533,72.347,207,74.5,207
		c2.481,0,4.5,2.019,4.5,4.5c0,0.219-0.022,0.46-0.067,0.735l-0.242,1.469l1.338,0.653C81.245,214.951,82,216.155,82,217.5
		c0,1.391-0.822,2.585-2,3.149v2.138c2.307-0.654,4-2.771,4-5.288C84,215.326,82.736,213.453,80.906,212.56z"/>
	<path style="&st1;" d="M77.094,219h-5.282l-0.584-1.71c-0.059-0.172-0.251-0.29-0.47-0.29h-4.269c-0.269,0-0.488,0.178-0.488,0.397
		V219v0.603v6.49c0,0.5,0.406,0.906,0.906,0.906h10.188c0.5,0,0.906-0.406,0.906-0.906v-6.188C78,219.406,77.594,219,77.094,219z"/>
</g>
<g>
	<circle style="&st2;" cx="72" cy="264" r="16"/>
</g>
<g>
	<circle style="&st1;" cx="72" cy="264" r="14"/>
</g>
<g>
	<path style="&st1;" d="M24,250c-7.73,0-14,6.27-14,14c0,4.09,1.76,7.77,4.56,10.33c0.19,0.18,0.39,0.35,0.6,0.52
		c0.46,0.38,0.96,0.73,1.47,1.05l1.04-3.48l1.525-0.528l-0.512-2.009l-0.09-0.35l-0.358-1.4l-1.297-0.13l-0.203-3.742l-0.84,0.253
		l-4.232-0.505l3.617-2.268l2.867-5.633l5.015-2.412l1.712,0.39l0.11-0.3l1.01,0.235L25.578,253l2.162,0.355l-0.005,0.573
		l0.445-0.813l2.058,0.747l-1.117,0.89l0.737,0.173l-0.03,0.292l0.355,0.08l2.235,2.295l0.967,5.225L36,265.965l-3.265-0.372
		l-0.21-0.14l-0.36,1.688l-0.127,0.3l-0.046,0.016l0.049-0.016l1.21-0.42l2.24,4.87l0.03,0.06c-0.945,1.372-0.945,1.372,0,0
		c1.56-2.26,2.48-5,2.48-7.95C38,256.27,31.73,250,24,250z"/>
</g>
<path style="&st3;" d="M33.25,267.02l-1.21,0.42l-0.049,0.016l0.046-0.016l0.127-0.3l0.36-1.688l0.21,0.14L36,265.965l-2.615-3.147
	l-0.967-5.225l-2.235-2.295l-0.355-0.08l0.03-0.292l-0.737-0.173l1.117-0.89l-2.058-0.747l-0.445,0.813l0.005-0.573L25.578,253
	l0.417,1.02l-1.01-0.235l-0.11,0.3l-1.712-0.39l-5.015,2.412l-2.867,5.633l-3.617,2.268l4.232,0.505l0.84-0.253l0.203,3.742
	l1.297,0.13l0.358,1.4l0.09,0.35l0.512,2.009l-1.525,0.528l-1.04,3.48c0.74,0.46,1.52,0.85,2.34,1.17h0.01
	c1.56,0.6,3.25,0.93,5.02,0.93c4.78,0,9-2.39,11.52-6.05l-0.03-0.06L33.25,267.02z"/>
<g>
	<g>
		<path style="&st4;" d="M15.16,274.85l-0.45,1.19l-0.77,0.65H11v-2.85h2.94v1.08l0.46-0.22l0.16-0.37
			C14.75,274.51,14.95,274.68,15.16,274.85z"/>
		<path style="&st5;" d="M18.68,269.88l-2.13,1.29l-1.39,3.68c-0.21-0.17-0.41-0.34-0.6-0.52l1.52-3.48l2.51-1.32L18.68,269.88z"/>
		<polygon style="&st5;" points="26.005,262.983 25.995,262.985 25.423,266.295 21.433,267.497 23.145,262.842 		"/>
		<polygon style="&st3;" points="30.237,253.863 29.12,254.753 27.73,254.428 27.493,254.372 27.49,254.372 25.995,254.02 
			25.577,253 27.74,253.355 27.735,253.928 28.18,253.115 		"/>
		<path style="&st5;" d="M32.525,265.453l-0.36,1.688l-0.128,0.3l-0.207,0.073l-1.61,0.557c-0.627-0.75-1.42-1.7-2.02-2.43
			l0.455-1.08l0.11-1.43l-0.015-0.013l0.27,0.013l3.155,2.09L32.525,265.453z"/>
		<polygon style="&st5;" points="25.995,262.985 25.423,266.295 21.433,267.497 23.145,262.842 		"/>
		<polygon style="&st3;" points="33.385,262.818 29.5,263.095 29.065,263.128 29.02,263.13 29.022,263.103 29.055,262.795 
			29.827,255.217 30.183,255.298 32.417,257.592 		"/>
		<polygon style="&st3;" points="24.875,254.085 22.235,261.258 21.677,262.77 19.452,262.413 15.28,261.74 18.147,256.108 
			23.163,253.695 		"/>
		<polygon style="&st6;" points="21.677,262.77 16.735,264.26 15.895,264.513 11.663,264.008 15.28,261.74 19.452,262.413 		"/>
		<polygon style="&st6;" points="36,265.965 32.735,265.592 32.525,265.453 32.175,265.22 29.02,263.13 29.065,263.128 
			29.5,263.095 33.385,262.818 		"/>
		<polygon style="&st6;" points="29.858,254.925 29.827,255.217 29.055,262.795 29.022,263.103 29.02,263.13 28.75,263.117 
			28.11,262.54 27.95,262.395 27.548,262.515 26.655,262.785 26.005,262.983 23.145,262.842 21.677,262.77 22.235,261.258 
			24.875,254.085 24.985,253.785 25.995,254.02 27.49,254.372 27.493,254.372 27.73,254.428 29.12,254.753 		"/>
		<path style="&st7;" d="M30.22,268.07l-11.025,3.822l-0.512-2.01l-0.09-0.35l-0.358-1.4l-1.298-0.13l-0.202-3.742l4.942-1.49
			l1.468,0.073l-1.712,4.655l3.99-1.202l0.573-3.31l0.01-0.002l0.65-0.198l0.892-0.27l0.403-0.12l0.16,0.145l0.64,0.577l0.015,0.013
			l-0.11,1.43l-0.455,1.08C28.8,266.37,29.593,267.32,30.22,268.07z"/>
		<path style="&st6;" d="M35.52,271.95C33,275.61,28.78,278,24,278c-1.77,0-3.46-0.33-5.02-0.93l16.51-5.18L35.52,271.95z"/>
		<path style="&st3;" d="M35.49,271.89l-16.51,5.18h-0.01c-0.82-0.32-1.6-0.71-2.34-1.17l1.04-3.48l1.53-0.53l11.02-3.82l1.61-0.56
			l0.21-0.07l1.21-0.42L35.49,271.89z"/>
	</g>
</g>
<path style="&st3;" d="M81.25,267.02l-1.21,0.42l-0.049,0.016l0.046-0.016l0.127-0.3l0.36-1.688l0.21,0.14L84,265.965l-2.615-3.147
	l-0.967-5.225l-2.235-2.295l-0.355-0.08l0.03-0.292l-0.737-0.173l1.117-0.89l-2.058-0.747l-0.445,0.813l0.005-0.573L73.578,253
	l0.418,1.02l-1.01-0.235l-0.11,0.3l-1.712-0.39l-5.015,2.412l-2.868,5.633l-3.617,2.268l4.232,0.505l0.84-0.253l0.203,3.742
	l1.297,0.13l0.358,1.4l0.09,0.35l0.512,2.009l-1.525,0.528l-1.04,3.48c0.74,0.46,1.52,0.85,2.34,1.17h0.01
	c1.56,0.6,3.25,0.93,5.02,0.93c4.78,0,9-2.39,11.52-6.05l-0.03-0.06L81.25,267.02z"/>
<g>
	<g>
		<path style="&st4;" d="M63.16,274.85l-0.45,1.19l-0.77,0.65H59v-2.85h2.94v1.08l0.46-0.22l0.16-0.37
			C62.75,274.51,62.95,274.68,63.16,274.85z"/>
		<path style="&st5;" d="M66.68,269.88l-2.13,1.29l-1.39,3.68c-0.21-0.17-0.41-0.34-0.6-0.52l1.52-3.48l2.51-1.32L66.68,269.88z"/>
		<polygon style="&st5;" points="74.005,262.983 73.995,262.985 73.423,266.295 69.433,267.497 71.145,262.842 		"/>
		<polygon style="&st3;" points="78.238,253.863 77.12,254.753 75.73,254.428 75.493,254.372 75.49,254.372 73.995,254.02 
			73.577,253 75.74,253.355 75.735,253.928 76.18,253.115 		"/>
		<path style="&st5;" d="M80.525,265.453l-0.36,1.688l-0.128,0.3l-0.207,0.073l-1.61,0.557c-0.628-0.75-1.42-1.7-2.02-2.43
			l0.455-1.08l0.11-1.43l-0.015-0.013l0.27,0.013l3.155,2.09L80.525,265.453z"/>
		<polygon style="&st5;" points="73.995,262.985 73.423,266.295 69.433,267.497 71.145,262.842 		"/>
		<polygon style="&st3;" points="81.385,262.818 77.5,263.095 77.065,263.128 77.02,263.13 77.022,263.103 77.055,262.795 
			77.827,255.217 78.183,255.298 80.418,257.592 		"/>
		<polygon style="&st3;" points="72.875,254.085 70.235,261.258 69.677,262.77 67.452,262.413 63.28,261.74 66.147,256.108 
			71.162,253.695 		"/>
		<polygon style="&st6;" points="69.677,262.77 64.735,264.26 63.895,264.513 59.662,264.008 63.28,261.74 67.452,262.413 		"/>
		<polygon style="&st6;" points="84,265.965 80.735,265.592 80.525,265.453 80.175,265.22 77.02,263.13 77.065,263.128 
			77.5,263.095 81.385,262.818 		"/>
		<polygon style="&st6;" points="77.857,254.925 77.827,255.217 77.055,262.795 77.022,263.103 77.02,263.13 76.75,263.117 
			76.11,262.54 75.95,262.395 75.548,262.515 74.655,262.785 74.005,262.983 71.145,262.842 69.677,262.77 70.235,261.258 
			72.875,254.085 72.985,253.785 73.995,254.02 75.49,254.372 75.493,254.372 75.73,254.428 77.12,254.753 		"/>
		<path style="&st7;" d="M78.22,268.07l-11.025,3.822l-0.512-2.01l-0.09-0.35l-0.357-1.4l-1.298-0.13l-0.202-3.742l4.942-1.49
			l1.467,0.073l-1.712,4.655l3.99-1.202l0.573-3.31l0.01-0.002l0.65-0.198l0.893-0.27l0.402-0.12l0.16,0.145l0.64,0.577l0.015,0.013
			l-0.11,1.43l-0.455,1.08C76.8,266.37,77.592,267.32,78.22,268.07z"/>
		<path style="&st6;" d="M83.52,271.95C81,275.61,76.78,278,72,278c-1.77,0-3.46-0.33-5.02-0.93l16.51-5.18L83.52,271.95z"/>
		<path style="&st3;" d="M83.49,271.89l-16.51,5.18h-0.01c-0.82-0.32-1.6-0.71-2.34-1.17l1.04-3.48l1.53-0.53l11.02-3.82l1.61-0.56
			l0.21-0.07l1.21-0.42L83.49,271.89z"/>
	</g>
</g>
<path style="&st8;" d="M30.5,315.794c1.493,0,2.706,1.212,2.706,2.706s-1.213,2.706-2.706,2.706s-2.706-1.212-2.706-2.706
	S29.007,315.794,30.5,315.794z M31.573,313.106c-0.708-0.141-1.438-0.141-2.146,0l-0.431,1.217c-0.131,0.047-0.26,0.101-0.386,0.16
	l-1.165-0.556c-0.601,0.401-1.116,0.917-1.517,1.518l0.556,1.165c-0.059,0.126-0.113,0.255-0.16,0.386l-1.217,0.431
	c-0.141,0.708-0.141,1.438,0,2.146l1.217,0.431c0.047,0.131,0.101,0.26,0.16,0.386l-0.556,1.165
	c0.401,0.601,0.917,1.116,1.517,1.517l1.165-0.556c0.126,0.059,0.255,0.113,0.386,0.16l0.431,1.217c0.708,0.141,1.438,0.141,2.146,0
	l0.431-1.217c0.131-0.047,0.26-0.101,0.386-0.16l1.165,0.556c0.601-0.401,1.116-0.917,1.518-1.517l-0.556-1.165
	c0.059-0.126,0.113-0.255,0.16-0.386l1.217-0.431c0.141-0.708,0.141-1.438,0-2.146l-1.217-0.431c-0.047-0.131-0.101-0.26-0.16-0.386
	l0.556-1.165c-0.401-0.601-0.917-1.116-1.518-1.518l-1.165,0.556c-0.126-0.059-0.255-0.113-0.386-0.16L31.573,313.106z"/>
<g>
	<path style="&st1;" d="M64,320h7.407c-0.102-0.484-0.157-0.986-0.157-1.5c0-3.445,2.406-6.323,5.627-7.061l0.055-0.129l0.288-1.35
		l0.168,0.112l2.612,0.3l-2.092-2.52l-0.776-4.178l-1.788-1.836l-0.282-0.064l0.024-0.234l-0.59-0.138l0.894-0.712l-1.648-0.598
		l-0.356,0.652l0.004-0.462L71.662,300l0.334,0.816l-0.81-0.19l-0.09,0.242l-1.366-0.312l-4.012,1.928l-2.294,4.506l-2.896,1.814
		l3.388,0.406l0.672-0.202l0.16,2.994l1.04,0.104l0.286,1.12l-2.014,1.05l-1.34,3.08l-0.37,0.18v-0.87H60v2.284h2.35l0.612-0.516
		l1.476-3.9l1.706-1.03l0.412,1.608l-1.222,0.424L64,320z"/>
</g>
<path style="&st9;" d="M78.5,315.794c1.493,0,2.706,1.212,2.706,2.706s-1.213,2.706-2.706,2.706s-2.706-1.212-2.706-2.706
	S77.007,315.794,78.5,315.794z M79.573,313.106c-0.708-0.141-1.438-0.141-2.146,0l-0.431,1.217c-0.131,0.047-0.26,0.101-0.386,0.16
	l-1.165-0.556c-0.601,0.401-1.116,0.917-1.517,1.518l0.555,1.165c-0.059,0.126-0.113,0.255-0.16,0.386l-1.217,0.431
	c-0.141,0.708-0.141,1.438,0,2.146l1.217,0.431c0.047,0.131,0.101,0.26,0.16,0.386l-0.555,1.165
	c0.401,0.601,0.917,1.116,1.517,1.517l1.165-0.556c0.126,0.059,0.255,0.113,0.386,0.16l0.431,1.217c0.708,0.141,1.438,0.141,2.146,0
	l0.431-1.217c0.131-0.047,0.26-0.101,0.386-0.16l1.165,0.556c0.601-0.401,1.116-0.917,1.517-1.517l-0.556-1.165
	c0.059-0.126,0.113-0.255,0.16-0.386l1.217-0.431c0.141-0.708,0.141-1.438,0-2.146l-1.217-0.431c-0.047-0.131-0.101-0.26-0.16-0.386
	l0.556-1.165c-0.401-0.601-0.917-1.116-1.517-1.518l-1.165,0.556c-0.126-0.059-0.255-0.113-0.386-0.16L79.573,313.106z"/>
</svg>
