<?xml version="1.0" encoding="utf-8"?>
<!-- Generator: Adobe Illustrator 21.1.0, SVG Export Plug-In . SVG Version: 6.00 Build 0)  -->
<!DOCTYPE svg PUBLIC "-//W3C//DTD SVG 1.1//EN" "http://www.w3.org/Graphics/SVG/1.1/DTD/svg11.dtd" [
	<!ENTITY st0 "fill:#FFFFFF;">
	<!ENTITY st1 "fill:#BAC0CF;">
]>
<svg version="1.1" id="Layer_1" xmlns="http://www.w3.org/2000/svg" xmlns:xlink="http://www.w3.org/1999/xlink" x="0px" y="0px"
	 width="36px" height="144px" viewBox="0 0 36 144" style="enable-background:new 0 0 36 144;" xml:space="preserve">
<polygon style="&st0;" points="32,4.7 31.3,4 27,8.3 22.7,4 22,4.7 26.3,9 22,13.3 22.7,14 27,9.7 31.3,14 32,13.3 27.7,9 "/>
<rect x="23" y="30" style="&st0;" width="8" height="1"/>
<path style="&st0;" d="M32,58h-7v4h-3v6h7v-3h3V58z M28,67h-5v-4h2v2h3V67z M28,64h-2v-1h2V64z M31,64h-2v-2h-3v-3h5V64z"/>
<path style="&st0;" d="M31,42v6h-8v-6H31 M32,41H22v8h10V41L32,41z"/>
<polygon style="&st1;" points="14,4.7 13.3,4 9,8.3 4.7,4 4,4.7 8.3,9 4,13.3 4.7,14 9,9.7 13.3,14 14,13.3 9.7,9 "/>
<rect x="5" y="30" style="&st1;" width="8" height="1"/>
<path style="&st1;" d="M14,58H7v4H4v6h7v-3h3V58z M10,67H5v-4h2v2h3V67z M10,64H8v-1h2V64z M13,64h-2v-2H8v-3h5V64z"/>
<path style="&st1;" d="M13,42v6H5v-6H13 M14,41H4v8h10V41L14,41z"/>
<g>
	<path style="&st0;" d="M27.5,78v2.5H30v0.9h-2.5V84h-1v-2.6H24v-0.9h2.5V78H27.5z"/>
</g>
<g>
	<g>
		<path style="&st1;" d="M9.5,78v2.5H12v0.9H9.5V84h-1v-2.6H6v-0.9h2.5V78H9.5z"/>
	</g>
</g>
<g>
	<g>
		<path style="&st0;" d="M25.4,102.9l-0.3-0.3c-0.1-0.1-0.1-0.3,0-0.4L28,99l-2.9-3.3c-0.1-0.1-0.1-0.3,0-0.4l0.3-0.3
			c0.1-0.1,0.2-0.1,0.3,0l3.3,3.7c0.1,0.1,0.1,0.3,0,0.4l-3.3,3.7C25.6,103,25.5,103,25.4,102.9z"/>
	</g>
</g>
<g>
	<g>
		<path style="&st1;" d="M7.3,102.9L7,102.6c-0.1-0.1-0.1-0.3,0-0.4L9.9,99L7,95.7c-0.1-0.1-0.1-0.3,0-0.4L7.3,95
			c0.1-0.1,0.2-0.1,0.3,0l3.3,3.7c0.1,0.1,0.1,0.3,0,0.4l-3.3,3.7C7.6,103,7.4,103,7.3,102.9z"/>
	</g>
</g>
<g>
	<g>
		<path style="&st1;" d="M10.7,113.1l0.3,0.3c0.1,0.1,0.1,0.3,0,0.4L8.1,117l2.9,3.3c0.1,0.1,0.1,0.3,0,0.4l-0.3,0.3
			c-0.1,0.1-0.2,0.1-0.3,0l-3.3-3.7c-0.1-0.1-0.1-0.3,0-0.4l3.3-3.7C10.4,113,10.6,113,10.7,113.1z"/>
	</g>
</g>
<g>
	<g>
		<path style="&st0;" d="M28.7,113.1l0.3,0.3c0.1,0.1,0.1,0.3,0,0.4l-2.9,3.3l2.9,3.3c0.1,0.1,0.1,0.3,0,0.4l-0.3,0.3
			c-0.1,0.1-0.2,0.1-0.3,0l-3.3-3.7c-0.1-0.1-0.1-0.3,0-0.4l3.3-3.7C28.5,113,28.7,113,28.7,113.1z"/>
	</g>
</g>
<path style="&st1;" d="M9,128c-3.866,0-7,3.134-7,7s3.134,7,7,7s7-3.134,7-7S12.866,128,9,128z M9.355,139.125
	c-0.049,0.017-0.115,0.033-0.197,0.049c-0.065,0.016-0.147,0.029-0.246,0.037c-0.098,0.008-0.21,0.012-0.333,0.012
	c-0.14,0-0.256-0.004-0.351-0.012c-0.094-0.008-0.174-0.02-0.24-0.037c-0.074-0.016-0.135-0.032-0.185-0.049v-1.407
	c0.05-0.016,0.111-0.032,0.185-0.049c0.065-0.016,0.146-0.028,0.24-0.037c0.095-0.008,0.211-0.012,0.351-0.012
	c0.123,0,0.234,0.004,0.333,0.012c0.098,0.008,0.18,0.02,0.246,0.037c0.082,0.016,0.148,0.033,0.197,0.049V139.125z M11.153,133.978
	c-0.107,0.249-0.238,0.461-0.395,0.636c-0.156,0.176-0.328,0.324-0.517,0.447c-0.189,0.122-0.361,0.253-0.517,0.392
	c-0.156,0.139-0.287,0.3-0.394,0.483c-0.107,0.184-0.16,0.418-0.16,0.704c-0.033,0.024-0.078,0.049-0.136,0.073
	c-0.049,0.016-0.11,0.033-0.184,0.049c-0.074,0.016-0.16,0.025-0.259,0.025s-0.185-0.008-0.258-0.025
	c-0.074-0.016-0.14-0.033-0.198-0.049c-0.065-0.025-0.119-0.049-0.16-0.073c0-0.424,0.044-0.769,0.129-1.034
	c0.086-0.265,0.193-0.483,0.32-0.655c0.128-0.171,0.267-0.314,0.419-0.428c0.152-0.114,0.291-0.234,0.419-0.361
	c0.127-0.126,0.234-0.271,0.32-0.435c0.086-0.163,0.129-0.383,0.129-0.661c0-0.212-0.033-0.386-0.098-0.52
	c-0.066-0.135-0.156-0.239-0.271-0.312c-0.115-0.073-0.247-0.124-0.394-0.153c-0.148-0.028-0.308-0.043-0.48-0.043
	c-0.213,0-0.398,0.014-0.554,0.043c-0.156,0.029-0.292,0.063-0.407,0.104c-0.132,0.041-0.242,0.086-0.333,0.135
	c-0.369-0.269-0.529-0.636-0.479-1.102c0.139-0.082,0.311-0.155,0.517-0.22c0.172-0.057,0.383-0.108,0.633-0.153
	c0.25-0.045,0.536-0.067,0.856-0.067c0.345,0,0.675,0.039,0.991,0.116c0.316,0.078,0.595,0.204,0.837,0.379
	c0.242,0.176,0.433,0.404,0.573,0.685c0.14,0.281,0.21,0.63,0.21,1.046C11.313,133.405,11.259,133.729,11.153,133.978z"/>
<path style="&st0;" d="M27,128c-3.866,0-7,3.134-7,7s3.134,7,7,7s7-3.134,7-7S30.866,128,27,128z M27.355,139.125
	c-0.049,0.017-0.115,0.033-0.197,0.049c-0.065,0.016-0.147,0.029-0.246,0.037c-0.098,0.008-0.21,0.012-0.333,0.012
	c-0.14,0-0.256-0.004-0.351-0.012c-0.094-0.008-0.174-0.02-0.24-0.037c-0.074-0.016-0.135-0.032-0.185-0.049v-1.407
	c0.05-0.016,0.111-0.032,0.185-0.049c0.065-0.016,0.146-0.028,0.24-0.037c0.095-0.008,0.211-0.012,0.351-0.012
	c0.123,0,0.234,0.004,0.333,0.012c0.098,0.008,0.18,0.02,0.246,0.037c0.082,0.016,0.148,0.033,0.197,0.049V139.125z M29.153,133.978
	c-0.107,0.249-0.238,0.461-0.395,0.636c-0.156,0.176-0.328,0.324-0.517,0.447c-0.189,0.122-0.361,0.253-0.517,0.392
	c-0.156,0.139-0.287,0.3-0.394,0.483c-0.107,0.184-0.16,0.418-0.16,0.704c-0.033,0.024-0.078,0.049-0.136,0.073
	c-0.049,0.016-0.11,0.033-0.184,0.049c-0.074,0.016-0.16,0.025-0.259,0.025c-0.098,0-0.185-0.008-0.258-0.025
	c-0.074-0.016-0.14-0.033-0.198-0.049c-0.065-0.025-0.119-0.049-0.16-0.073c0-0.424,0.044-0.769,0.129-1.034
	c0.086-0.265,0.193-0.483,0.32-0.655c0.128-0.171,0.267-0.314,0.419-0.428c0.152-0.114,0.291-0.234,0.419-0.361
	c0.127-0.126,0.234-0.271,0.32-0.435c0.086-0.163,0.129-0.383,0.129-0.661c0-0.212-0.033-0.386-0.098-0.52
	c-0.066-0.135-0.156-0.239-0.271-0.312c-0.115-0.073-0.247-0.124-0.394-0.153c-0.148-0.028-0.308-0.043-0.48-0.043
	c-0.213,0-0.398,0.014-0.554,0.043c-0.156,0.029-0.292,0.063-0.407,0.104c-0.132,0.041-0.242,0.086-0.333,0.135
	c-0.369-0.269-0.529-0.636-0.479-1.102c0.139-0.082,0.311-0.155,0.517-0.22c0.172-0.057,0.383-0.108,0.633-0.153
	c0.25-0.045,0.536-0.067,0.856-0.067c0.345,0,0.675,0.039,0.991,0.116c0.316,0.078,0.595,0.204,0.837,0.379
	c0.242,0.176,0.433,0.404,0.573,0.685c0.14,0.281,0.21,0.63,0.21,1.046C29.313,133.405,29.259,133.729,29.153,133.978z"/>
</svg>
