<?xml version="1.0" encoding="utf-8"?>
<svg version="1.1" id="img" xmlns="http://www.w3.org/2000/svg" xmlns:xlink="http://www.w3.org/1999/xlink" x="0px" y="0px"
	 width="18px" height="18px" viewBox="0 0 18 18" style="enable-background:new 0 0 18 18;" xml:space="preserve">
<g id="crm-1cv7-7-import.default">
	<rect style="fill:#FFFF00;" width="18" height="18"/>
	<path style="fill:#4C4680;" d="M17,14h-6c-2.757,0-5-2.243-5-5s2.243-5,5-5s5,2.243,5,5h-1c0-2.206-1.794-4-4-4S7,6.794,7,9
		s1.794,4,4,4h6V14z"/>
	<rect x="13" y="13" style="fill:#373943;" width="4" height="4"/>
	<polygon style="fill:#BDCCD4;" points="15,14 15,15 14,15 14,16 15,16 16,16 16,15 16,14 	"/>
	<path style="fill:#DA2838;" d="M17,12h-6c-1.654,0-3-1.346-3-3s1.346-3,3-3s3,1.346,3,3h-1c0-1.103-0.897-2-2-2S9,7.897,9,9
		s0.897,2,2,2h6V12z"/>
	<polygon style="fill:#DA2838;" points="2,4 2,5 4,5 4,14 5,14 5,4 	"/>
	<polygon style="fill:#4C4680;" points="1,6 1,7 2,7 2,14 3,14 3,6 	"/>
</g>
</svg>
