<?xml version="1.0" encoding="utf-8"?>
<svg version="1.1" id="img" xmlns="http://www.w3.org/2000/svg" xmlns:xlink="http://www.w3.org/1999/xlink" x="0px" y="0px"
	 width="18px" height="18px" viewBox="0 0 18 18" style="enable-background:new 0 0 18 18;" xml:space="preserve">
<g id="db-firebird-import.default">
	<path style="fill:#EA5400;" d="M16,2.5H2v13h0.006c-0.013,0.157,0.17,0.314,0.333,0.417c0.303,0.2,0.796,0.387,1.422,0.548
		c0.663,0.166,1.441,0.3,2.323,0.392C6.985,16.952,7.952,17,8.953,17h0.062c1.019,0,2.004-0.052,2.924-0.156
		c0.881-0.096,1.66-0.23,2.312-0.403c0.622-0.162,1.11-0.353,1.418-0.554c0.148-0.098,0.31-0.239,0.321-0.387H16V2.5z"/>
	<path style="fill:#F7931E;" d="M15.996,2.448c0.033,0.165-0.161,0.329-0.326,0.438c-0.308,0.2-0.797,0.392-1.418,0.554
		c-0.653,0.173-1.431,0.308-2.312,0.403C11.019,3.948,10.033,4,9.015,4H8.953C7.952,4,6.985,3.952,6.085,3.856
		c-0.881-0.092-1.66-0.226-2.323-0.392C3.136,3.304,2.643,3.117,2.34,2.917C2.169,2.809,1.971,2.644,2.004,2.478
		c0.023-0.152,0.222-0.326,0.544-0.491c0.365-0.187,0.882-0.36,1.527-0.509C4.729,1.33,5.479,1.213,6.302,1.131
		C7.156,1.043,8.062,1,8.991,1h0.056c0.91,0,1.796,0.039,2.631,0.117c0.83,0.083,1.579,0.195,2.228,0.339
		c0.64,0.143,1.171,0.318,1.536,0.505C15.769,2.126,15.964,2.3,15.996,2.448z"/>
	<path style="fill-rule:evenodd;clip-rule:evenodd;fill:#FFFFFF;" d="M4,10.468c0-2.616,2.019-4.792,4.632-4.986
		c-2.994,0.591-5.86,4.048-2.51,7.818c0.094,0.755,0.504,1.322,1.131,1.881l-0.226-0.114C5.246,14.299,4,12.528,4,10.468"/>
	<path style="fill-rule:evenodd;clip-rule:evenodd;fill:#FFFFFF;" d="M9.22,5.472c2.264,0.652,3.508,1.785,3.733,3.401
		c0.047,2.229-0.877,3.392-2.772,3.484c-0.609-0.08-0.806-0.579-0.428-1.05c0.6-0.679,0.866-1.295,0.798-1.858
		c-0.049-0.334-0.43-0.678-1.146-1.032c0.096-0.119,0.343-0.146,0.743-0.085c0.344,0.037,0.455-0.126,0.33-0.482
		c0.1,0.432-0.574,0.368-2.023-0.184C8.408,7.646,8.36,7.628,8.31,7.608C7.825,7.495,7.64,7.682,7.749,8.168
		C7.482,8.157,7.283,8.177,7.144,8.229C6.443,8.65,6.466,9.029,7.211,9.36C7.25,9.126,7.487,9.016,7.925,9.029
		c0.194,0.058,0.319,0.116,0.38,0.176c0.064,0.056,0.117,0.112,0.151,0.166c0.081,0.124,0.081,0.248,0,0.373
		c-0.081,0.125-0.245,0.248-0.491,0.368c-1.082,0.348-1.656,0.954-1.726,1.814v0.364c0,0.006,0.002,0.013,0.002,0.018
		c0.112,1.075,0.415,1.818,0.863,2.28c0.253,0.251,0.773,0.613,1.352,0.792c0.248,0.079,0.504,0.122,0.759,0.109
		C11.921,15.367,14,13.231,14,10.468C14,7.795,11.892,5.59,9.22,5.472z"/>
	<rect x="13" y="13" style="fill:#373943;" width="4" height="4"/>
	<polygon style="fill:#BDCCD4;" points="15,14 15,15 14,15 14,16 15,16 16,16 16,15 16,14 	"/>
</g>
</svg>
