<?xml version="1.0" encoding="utf-8"?>
<svg version="1.1" id="img" xmlns="http://www.w3.org/2000/svg" xmlns:xlink="http://www.w3.org/1999/xlink" x="0px" y="0px"
	 width="18px" height="18px" viewBox="0 0 18 18" style="enable-background:new 0 0 18 18;" xml:space="preserve">
<path id="file-tableau.default" style="fill:#3582B5;" d="M8,3H7V2h1V1h1v1h1v1H9v1H8V3z M10,4v1h2v2h1V5h2V4h-2V2h-1v2H10z M16,8
	h-1V7h-1v1h-1v1h1v1h1V9h1V8z M13,10h-1v2h-2v1h2v2h1v-2h2v-1h-2V10z M9,13H8v1H7v1h1v1h1v-1h1v-1H9V13z M7,13v-1H5v-2H4v2H2v1h2v2
	h1v-2H7z M9,12V9h3V8H9V5H8v3H5v1h3v3H9z M2,10h1V9h1V8H3V7H2v1H1v1h1V10z M4,7h1V5h2V4H5V2H4v2H2v1h2V7z"/>
</svg>
