<?xml version="1.0" encoding="utf-8"?>
<svg version="1.1" id="img" xmlns="http://www.w3.org/2000/svg" xmlns:xlink="http://www.w3.org/1999/xlink" x="0px" y="0px"
	 width="18px" height="18px" viewBox="0 0 18 18" style="enable-background:new 0 0 18 18;" xml:space="preserve">
<g id="web-soap-client.default">
	<g>
		<path style="fill:#71B1E4;" d="M14.708,7.731c0.095-0.369,0.162-0.749,0.162-1.147C14.871,4.052,12.818,2,10.287,2
			C8.229,2,6.508,3.365,5.929,5.232C5.56,4.884,5.064,4.666,4.517,4.666c-1.139,0-2.062,0.923-2.062,2.062
			c0,0.482,0.172,0.919,0.449,1.27C1.754,8.825,1,10.081,1,11.5C1,13.975,3.25,16,6,16h6c2.75,0,5-2.025,5-4.5
			C17,9.923,16.083,8.535,14.708,7.731z"/>
		<path style="fill:#FFFFFF;" d="M6,13.572l-4-1.71v-1.077l4-1.713v1.288l-2.431,0.966L6,12.292V13.572z"/>
		<path style="fill:#FFFFFF;" d="M10.422,8l-1.735,6H7.578l1.747-6H10.422z"/>
		<path style="fill:#FFFFFF;" d="M12,12.292l2.431-0.966L12,10.36V9.072l4,1.713v1.077l-4,1.71V12.292z"/>
	</g>
	<path style="fill:#373943;" d="M16.99,14.897l-3.178,2.472C13.481,17.626,13,17.39,13,16.972v-4.944
		c0-0.418,0.481-0.654,0.811-0.397l3.178,2.472C17.249,14.304,17.249,14.696,16.99,14.897z"/>
	<polygon style="fill:#FFFFFF;" points="16,14.5 14,16 14,13 	"/>
</g>
</svg>
