<?xml version="1.0" encoding="utf-8"?>
<svg version="1.1" id="img" xmlns="http://www.w3.org/2000/svg" xmlns:xlink="http://www.w3.org/1999/xlink" x="0px" y="0px"
	 width="18px" height="18px" viewBox="0 0 18 18" style="enable-background:new 0 0 18 18;" xml:space="preserve">
<g id="web-rest.default">
	<g>
		<g>
			<g>
				<path style="fill:#F7921E;" d="M10.493,14H10v-1h0.493C10.772,13,11,12.772,11,12.493v-0.576c0-0.402,0.156-0.78,0.44-1.065
					l0.439-0.351l-0.396-0.314C11.156,9.863,11,9.485,11,9.083V8.507C11,8.228,10.772,8,10.493,8H10V7h0.493
					C11.324,7,12,7.676,12,8.507v0.576c0,0.135,0.053,0.263,0.149,0.359l0.844,0.666v0.783l-0.887,0.705
					C12.053,11.654,12,11.782,12,11.917v0.576C12,13.324,11.324,14,10.493,14z"/>
			</g>
		</g>
		<g>
			<g>
				<path style="fill:#F7921E;" d="M7.507,14H8v-1H7.507C7.228,13,7,12.772,7,12.493v-0.576c0-0.402-0.156-0.78-0.44-1.065
					L6.12,10.501l0.396-0.314C6.844,9.863,7,9.485,7,9.083V8.507C7,8.228,7.228,8,7.507,8H8V7H7.507C6.676,7,6,7.676,6,8.507v0.576
					c0,0.135-0.053,0.263-0.149,0.359l-0.844,0.666v0.783l0.887,0.705C5.947,11.654,6,11.782,6,11.917v0.576
					C6,13.324,6.676,14,7.507,14z"/>
			</g>
		</g>
		<g>
			<path style="fill:#71B1E4;" d="M12.5,16h-7C3.019,16,1,13.981,1,11.5c0-1.338,0.6-2.602,1.623-3.454
				C2.541,7.786,2.5,7.52,2.5,7.25c0-1.517,1.233-2.75,2.75-2.75c0.391,0,0.77,0.083,1.121,0.245C7.066,3.101,8.683,2,10.5,2
				C12.981,2,15,4.019,15,6.5c0,0.387-0.055,0.778-0.164,1.169C16.181,8.483,17,9.915,17,11.5C17,13.981,14.981,16,12.5,16z
				 M5.25,5.5C4.285,5.5,3.5,6.285,3.5,7.25c0,0.253,0.06,0.505,0.177,0.748C3.782,8.22,3.713,8.485,3.511,8.626
				C2.564,9.282,2,10.356,2,11.5C2,13.43,3.57,15,5.5,15h7c1.93,0,3.5-1.57,3.5-3.5c0-1.346-0.761-2.549-1.986-3.141
				c-0.233-0.112-0.342-0.385-0.25-0.627C13.921,7.317,14,6.902,14,6.5C14,4.57,12.43,3,10.5,3C8.916,3,7.528,4.078,7.126,5.621
				C7.084,5.785,6.961,5.916,6.801,5.97c-0.16,0.052-0.338,0.022-0.469-0.083C6.013,5.634,5.639,5.5,5.25,5.5z"/>
		</g>
	</g>
</g>
</svg>
