<?xml version="1.0" encoding="utf-8"?>
<svg version="1.1" id="img" xmlns="http://www.w3.org/2000/svg" xmlns:xlink="http://www.w3.org/1999/xlink" x="0px" y="0px"
	 width="18px" height="18px" viewBox="0 0 18 18" style="enable-background:new 0 0 18 18;" xml:space="preserve">
<g id="wh-mssql.default">
	<g>
		<rect x="2" y="4" style="fill:#5EAFE3;" width="12" height="12"/>
	</g>
	<polygon style="fill:#DBF4FF;" points="5,2 2,4 14,4 16,2 	"/>
	<polygon style="fill:#B3E8FF;" points="16,14 14,16 14,4 16,2 	"/>
	<path style="fill-rule:evenodd;clip-rule:evenodd;fill:#FFFFFF;" d="M4.867,6.222C5.465,5.707,6.238,5.35,7.021,5
		c0.193,0.64,0.471,1.251,0.867,1.82c-0.24-0.042-0.493-0.08-0.749-0.118c0.17-0.01,0.408,0.02,0.578,0.009
		C7.645,6.614,7.479,6.423,7.397,6.275c-0.136,0.12-0.41,0.243-0.638,0.312c0.041,0.029,0.192,0.065,0.233,0.095
		C6.24,6.57,5.467,6.454,4.867,6.222L4.867,6.222z M5.601,5.926C5.444,5.986,5.323,6.121,5.258,6.283
		C5.49,6.324,5.535,6.388,5.623,6.431c0.144-0.01,0.287-0.02,0.43-0.029C5.847,6.269,5.714,6.077,5.601,5.926L5.601,5.926z
		 M5.896,5.754c0.477,0.123,0.925,0.17,1.361,0.18C7.13,5.776,7.031,5.547,6.945,5.279C6.557,5.399,6.203,5.553,5.896,5.754
		L5.896,5.754z M7.325,6.158C6.87,6.143,6.23,5.99,5.775,5.853c0.161,0.221,0.477,0.528,0.79,0.688
		C6.853,6.44,7.139,6.3,7.325,6.158z"/>
	<path style="fill-rule:evenodd;clip-rule:evenodd;fill:#FFFFFF;" d="M7.888,15c0.83-1.838,1.149-3.356,0.942-5.106
		c-1.359,0.463-2.651,0.87-3.838,1.561c-0.032,0.35,0.027,0.676,0.22,0.965c-0.497,0.13-0.994,0.259-1.491,0.389
		c0.049-0.635,0.593-0.939,1.268-1.352c-0.172,0.1-0.341,0.205-0.508,0.316C1.632,13.681,5.522,14.921,7.888,15L7.888,15z
		 M5.662,14.514c-0.401-0.102-0.779-0.257-1.119-0.511c0.613-0.11,1.279-0.337,1.84-0.54C6.311,13.826,5.995,14.221,5.662,14.514
		L5.662,14.514z M6.162,14.65c0.664-0.152,1.309-0.362,1.942-0.604c-0.097,0.295-0.172,0.573-0.33,0.817
		C7.226,14.847,6.689,14.769,6.162,14.65L6.162,14.65z M5.824,14.575c0.323-0.348,0.561-0.659,0.732-1.035
		c0.434,0.253,0.934,0.327,1.408,0.418C7.302,14.258,6.576,14.438,5.824,14.575L5.824,14.575z M6.702,13.394
		c0.597-0.254,1.279-0.53,1.877-0.782C8.51,13.047,8.375,13.43,8.23,13.828C7.748,13.74,7.078,13.696,6.702,13.394L6.702,13.394z
		 M6.565,13.349c0.298-0.307,0.732-1.02,0.827-1.488c0.408,0.288,0.894,0.537,1.199,0.583C8.039,12.659,7.117,13.133,6.565,13.349
		L6.565,13.349z M8.66,12.222c-0.435-0.039-0.85-0.193-1.192-0.462c0.405-0.212,0.866-0.423,1.27-0.633
		C8.756,11.521,8.702,11.837,8.66,12.222L8.66,12.222z M8.747,10.792c-0.165-0.233-0.426-0.382-0.752-0.473
		c0.23-0.056,0.46-0.112,0.691-0.168C8.732,10.364,8.76,10.578,8.747,10.792L8.747,10.792z M7.424,11.66
		c0.071-0.399,0.226-0.874,0.297-1.272c0.427,0.144,0.779,0.328,0.964,0.593C8.293,11.183,7.817,11.459,7.424,11.66L7.424,11.66z
		 M7.317,11.599c-0.134-0.062-0.478-0.28-0.745-0.739c0.261-0.093,0.604-0.239,0.866-0.335C7.492,10.825,7.378,11.262,7.317,11.599
		L7.317,11.599z M7.204,11.727c-0.463,0.253-1.229,0.586-1.709,0.636c0.242-0.441,0.706-0.984,0.948-1.427
		C6.646,11.36,6.96,11.588,7.204,11.727L7.204,11.727z M7.29,11.822c-0.065,0.429-0.485,1.056-0.854,1.443
		c-0.356-0.189-0.667-0.42-0.859-0.761C6.118,12.403,6.82,12.016,7.29,11.822L7.29,11.822z M6.215,13.387
		c-0.576,0.246-1.167,0.418-1.763,0.564c0.375-0.407,0.692-0.84,0.927-1.309C5.564,12.9,5.828,13.132,6.215,13.387L6.215,13.387z
		 M4.262,13.859c-0.383-0.169-0.542-0.502-0.55-0.943c0.493-0.113,0.984-0.224,1.477-0.336C5.019,13.043,4.696,13.466,4.262,13.859
		L4.262,13.859z M5.417,12.253c-0.21-0.159-0.301-0.559-0.183-0.838c0.315-0.131,0.629-0.264,0.942-0.394
		C6.003,11.441,5.733,11.851,5.417,12.253z"/>
	<path style="fill-rule:evenodd;clip-rule:evenodd;fill:#BC2836;" d="M4.993,11.455c-0.171,0.105-0.34,0.212-0.511,0.318
		c0.176-0.187,0.358-0.38,0.525-0.541c1.939-1.867,1.89-3.549,0.152-4.812C4.667,6.062,4.763,6.234,5.268,6.352
		c2.939,0.681,5.456,0.441,7.166,2.555c0.123,0.151,0.112,0.187-0.006,0.195C11.435,9.163,7.997,9.875,4.993,11.455L4.993,11.455z
		 M6.206,7.297C6.169,7.086,6.081,6.824,5.954,6.623C5.773,6.552,5.608,6.522,5.461,6.519C5.742,6.729,6.026,7.035,6.206,7.297
		L6.206,7.297z M6.187,6.707c0.124,0.328,0.186,0.585,0.246,0.84c0.234-0.26,0.543-0.473,0.849-0.65
		C6.93,6.776,6.549,6.735,6.187,6.707L6.187,6.707z M6.619,7.638c0.3,0.097,0.6,0.192,0.9,0.289
		C7.492,7.602,7.464,7.277,7.436,6.953C7.131,7.144,6.819,7.323,6.619,7.638L6.619,7.638z M7.694,7.957
		c0.376-0.319,0.783-0.582,1.22-0.791c-0.439-0.123-0.892-0.195-1.36-0.205C7.6,7.293,7.647,7.625,7.694,7.957L7.694,7.957z
		 M7.854,8.037c0.302,0.088,0.568,0.223,0.79,0.411c0.25-0.376,0.375-0.791,0.46-1.217C8.658,7.43,8.24,7.695,7.854,8.037
		L7.854,8.037z M8.804,8.524c0.606-0.327,1.249-0.588,1.926-0.784c-0.487-0.203-1.028-0.372-1.534-0.476
		C9.183,7.657,8.999,8.191,8.804,8.524L8.804,8.524z M8.91,8.6c0.352,0.233,0.633,0.555,0.814,0.888
		c0.417-0.545,0.843-1.076,1.201-1.622C10.229,8.066,9.544,8.289,8.91,8.6L8.91,8.6z M9.912,9.436
		c0.801-0.216,1.593-0.378,2.373-0.452c-0.334-0.428-0.75-0.782-1.266-1.047C10.7,8.454,10.354,8.962,9.912,9.436L9.912,9.436z
		 M6.574,8.82C6.836,8.59,7.085,8.357,7.348,8.124C7.079,8.049,6.812,7.973,6.542,7.898C6.58,8.221,6.588,8.539,6.574,8.82
		L6.574,8.82z M6.565,9.11c0.194,0.044,0.354,0.137,0.468,0.293c0.159-0.401,0.317-0.805,0.474-1.206
		C7.193,8.501,6.88,8.806,6.565,9.11L6.565,9.11z M7.097,9.468c0.417-0.294,0.834-0.588,1.25-0.883
		C8.156,8.441,7.936,8.328,7.664,8.266C7.475,8.667,7.286,9.066,7.097,9.468L7.097,9.468z M7.149,9.561
		c0.101,0.2,0.158,0.439,0.175,0.71C7.7,9.764,8.144,9.211,8.518,8.703C8.063,8.988,7.606,9.274,7.149,9.561L7.149,9.561z
		 M7.569,10.169c0.667-0.216,1.335-0.432,2.002-0.647C9.293,9.204,9.019,8.965,8.679,8.811C8.321,9.259,7.926,9.72,7.569,10.169
		L7.569,10.169z M5.794,10.913c0.488-0.258,0.982-0.465,1.401-0.596C7.167,10.079,7.164,9.8,7.014,9.632
		C6.641,10.021,6.167,10.524,5.794,10.913L5.794,10.913z M5.56,10.804c0.238-0.162,0.473-0.325,0.709-0.486
		c-0.03-0.093-0.058-0.183-0.088-0.274C6.044,10.249,5.89,10.485,5.56,10.804L5.56,10.804z M6.228,9.943
		c0.189-0.127,0.38-0.256,0.569-0.383C6.701,9.434,6.585,9.367,6.459,9.342C6.418,9.561,6.328,9.755,6.228,9.943z"/>
</g>
</svg>
