<?xml version="1.0" encoding="utf-8"?>
<!DOCTYPE svg PUBLIC "-//W3C//DTD SVG 1.1//EN" "http://www.w3.org/Graphics/SVG/1.1/DTD/svg11.dtd" [
	<!ENTITY st0 "fill:#E3EFFA;">
	<!ENTITY st1 "fill:#71B1E4;">
	<!ENTITY st2 "fill:#FFCCCC;">
	<!ENTITY st3 "fill:#E30612;">
	<!ENTITY st4 "fill:#FDE9D2;">
	<!ENTITY st5 "fill:#F7931E;">
	<!ENTITY st6 "fill:#CCF4D1;">
	<!ENTITY st7 "fill:#39B54A;">
	<!ENTITY st8 "fill:#EBECEF;">
	<!ENTITY st9 "fill:#757981;">
	<!ENTITY st10 "fill:#EAECF1;">
	<!ENTITY st11 "fill:#BAC0CF;">
]>
<svg version="1.1" id="img" xmlns="http://www.w3.org/2000/svg" xmlns:xlink="http://www.w3.org/1999/xlink" x="0px" y="0px"
	 width="15px" height="24px" viewBox="0 0 15 24" style="enable-background:new 0 0 15 24;" xml:space="preserve">
<g id="model.warning">
	<g>
		<polygon style="&st4;" points="3,13.999 13,22 13,2 3,10.001 		"/>
	</g>
	<polygon style="&st5;" points="3,11.481 5,11.481 5,10.962 5.405,10.638 4.157,9.075 3,10 	"/>
	<polygon style="&st5;" points="4.157,14.925 5.405,13.362 5,13.038 5,12.519 3,12.519 3,14 	"/>
	<path style="&st5;" d="M9.307,19.045l1.25-1.562l-1.288-1.03l-1.25,1.562L9.307,19.045z M6.731,16.985l1.25-1.562l-1.288-1.03
		l-1.25,1.562L6.731,16.985z"/>
	<rect x="11" y="5" style="&st5;" width="2" height="2"/>
	<rect x="11" y="8" style="&st5;" width="2" height="2"/>
	<rect x="11" y="11" style="&st5;" width="2" height="2"/>
	<rect x="11" y="14" style="&st5;" width="2" height="2"/>
	<rect x="11" y="17" style="&st5;" width="2" height="2"/>
	<polygon style="&st5;" points="11,3.6 13,2.001 13,4 11,4 	"/>
	<polygon style="&st5;" points="11,20.4 13,21.999 13,20 11,20 	"/>
	<path style="&st5;" d="M9.307,4.954l1.25,1.562l-1.288,1.03l-1.25-1.562L9.307,4.954z M6.731,7.014l1.25,1.562l-1.288,1.03
		l-1.25-1.562L6.731,7.014z"/>
</g>
</svg>
