<?xml version="1.0" encoding="utf-8"?>
<!DOCTYPE svg PUBLIC "-//W3C//DTD SVG 1.1//EN" "http://www.w3.org/Graphics/SVG/1.1/DTD/svg11.dtd" [
	<!ENTITY st0 "fill:#E3EFFA;">
	<!ENTITY st1 "fill:#71B1E4;">
	<!ENTITY st2 "fill:#5195CA;">
	<!ENTITY st3 "fill:#FFCCCC;">
	<!ENTITY st4 "fill:#E30612;">
	<!ENTITY st5 "fill:#FDE9D2;">
	<!ENTITY st6 "fill:#F7931E;">
	<!ENTITY st7 "fill:#E67300;">
	<!ENTITY st8 "fill:#CCF4D1;">
	<!ENTITY st9 "fill:#39B54A;">
	<!ENTITY st10 "fill:#009B14;">
	<!ENTITY st11 "fill:#EBECEF;">
	<!ENTITY st12 "fill:#757981;">
	<!ENTITY st13 "fill:#48484E;">
	<!ENTITY st14 "fill:#EAECF1;">
	<!ENTITY st15 "fill:#BAC0CF;">
]>
<svg version="1.1" id="img" xmlns="http://www.w3.org/2000/svg" xmlns:xlink="http://www.w3.org/1999/xlink" x="0px" y="0px"
	 width="15px" height="24px" viewBox="0 0 15 24" style="enable-background:new 0 0 15 24;" xml:space="preserve">
<g id="tree-no-autosync.hover">
	<polygon style="&st0;" points="0.344,24 13,24 13,0 	"/>
	<polygon style="&st1;" points="10.649,4.419 12.446,5.362 13,4.321 13,-0.046 	"/>
	<rect x="11" y="22" style="&st1;" width="2" height="2"/>
	<polygon style="&st1;" points="0.344,24 3,24 3,22.396 1.581,21.649 	"/>
	
		<rect x="6.926" y="10.586" transform="matrix(0.4659 -0.8849 0.8849 0.4659 -5.9744 13.274)" style="&st1;" width="2.164" height="2"/>
	
		<rect x="2.896" y="18.244" transform="matrix(0.4659 -0.8849 0.8849 0.4659 -14.9031 13.7981)" style="&st1;" width="2.164" height="2"/>
	
		<rect x="4.911" y="14.415" transform="matrix(0.4655 -0.8851 0.8851 0.4655 -10.4393 13.543)" style="&st1;" width="2.163" height="1.999"/>
	<rect x="4" y="22" style="&st1;" width="2" height="2"/>
	<rect x="8" y="22" style="&st1;" width="2" height="2"/>
	
		<rect x="8.943" y="6.757" transform="matrix(0.4654 -0.8851 0.8851 0.4654 -1.5085 13.0183)" style="&st1;" width="2.161" height="2.001"/>
	<g>
		<circle style="&st2;" cx="10" cy="18" r="2"/>
	</g>
	<circle style="&st0;" cx="10" cy="18" r="1"/>
</g>
</svg>
