<?xml version="1.0" encoding="utf-8"?>
<!DOCTYPE svg PUBLIC "-//W3C//DTD SVG 1.1//EN" "http://www.w3.org/Graphics/SVG/1.1/DTD/svg11.dtd" [
	<!ENTITY st0 "fill:#E3EFFA;">
	<!ENTITY st1 "fill:#71B1E4;">
	<!ENTITY st2 "fill:#FFCCCC;">
	<!ENTITY st3 "fill:#E30612;">
	<!ENTITY st4 "fill:#FDE9D2;">
	<!ENTITY st5 "fill:#F7931E;">
	<!ENTITY st6 "fill:#CCF4D1;">
	<!ENTITY st7 "fill:#39B54A;">
	<!ENTITY st8 "fill:#EBECEF;">
	<!ENTITY st9 "fill:#757981;">
	<!ENTITY st10 "fill:#EAECF1;">
	<!ENTITY st11 "fill:#BAC0CF;">
]>
<svg version="1.1" id="img" xmlns="http://www.w3.org/2000/svg" xmlns:xlink="http://www.w3.org/1999/xlink" x="0px" y="0px"
	 width="15px" height="24px" viewBox="0 0 15 24" style="enable-background:new 0 0 15 24;" xml:space="preserve">
<g id="variable.hover">
	<g>
		<path style="&st0;" d="M13,0v24C6.373,24,1,18.627,1,12S6.373,0,13,0z"/>
	</g>
	<path style="&st1;" d="M8.677,23.194l0.723-1.865c-0.573-0.222-1.129-0.499-1.652-0.824l-1.055,1.7
		C7.321,22.595,7.988,22.928,8.677,23.194z"/>
	<path style="&st1;" d="M4.923,20.869l1.348-1.479c-0.455-0.415-0.875-0.874-1.247-1.365L3.43,19.233
		C3.875,19.821,4.378,20.372,4.923,20.869z"/>
	<path style="&st1;" d="M2.26,17.35l1.789-0.896c-0.275-0.549-0.5-1.128-0.669-1.721l-1.924,0.548
		C1.659,15.994,1.93,16.69,2.26,17.35z"/>
	<path style="&st1;" d="M1.05,13.1l1.992-0.182C3.015,12.616,3,12.309,3,12c0.001-0.312,0.015-0.624,0.044-0.932l-1.992-0.185
		C1.019,11.25,1.001,11.622,1,11.997C1,12.371,1.017,12.737,1.05,13.1z"/>
	<path style="&st1;" d="M3.384,9.253c0.17-0.592,0.396-1.171,0.671-1.72L2.268,6.637c-0.331,0.66-0.603,1.355-0.806,2.066
		L3.384,9.253z"/>
	<path style="&st1;" d="M5.032,5.964C5.403,5.476,5.823,5.017,6.28,4.601L4.935,3.121C4.387,3.62,3.883,4.17,3.438,4.756
		L5.032,5.964z"/>
	<path style="&st1;" d="M7.759,3.488C8.28,3.164,8.837,2.887,9.412,2.666L8.691,0.799C8,1.066,7.332,1.399,6.704,1.788L7.759,3.488z
		"/>
	<rect x="11" y="3" style="&st1;" width="2" height="2"/>
	<rect x="11" y="7" style="&st1;" width="2" height="2"/>
	<rect x="11" y="11" style="&st1;" width="2" height="2"/>
	<rect x="11" y="15" style="&st1;" width="2" height="2"/>
	<rect x="11" y="19" style="&st1;" width="2" height="2"/>
	<path style="&st1;" d="M11,0.176c0.297-0.054,0.598-0.101,0.91-0.126C12.27,0.02,12.63,0,13,0v2h-2V0.176z"/>
	<path style="&st1;" d="M11,23.824c0.297,0.054,0.598,0.101,0.91,0.126C12.27,23.98,12.63,24,13,24v-2h-2V23.824z"/>
</g>
</svg>
