<?xml version="1.0" encoding="utf-8"?>
<!DOCTYPE svg PUBLIC "-//W3C//DTD SVG 1.1//EN" "http://www.w3.org/Graphics/SVG/1.1/DTD/svg11.dtd" [
	<!ENTITY st0 "fill:#FFFFFF;">
	<!ENTITY st1 "fill:#808080;">
	<!ENTITY st2 "fill:#636F80;">
]>
<svg version="1.1" id="img" xmlns="http://www.w3.org/2000/svg" xmlns:xlink="http://www.w3.org/1999/xlink" x="0px" y="0px"
	 width="18px" height="18px" viewBox="0 0 18 18" style="enable-background:new 0 0 18 18;" xml:space="preserve">
<path id="add-child.default" style="&st2;" d="M8.104,2.057L7.977,1.065C8.312,1.022,8.653,1,9,1l0.018,1L8.979,2
	C8.696,2,8.396,2.019,8.104,2.057z M7.207,2.232L6.951,1.265C6.613,1.354,6.279,1.466,5.96,1.598l0.381,0.925
	C6.62,2.408,6.91,2.31,7.207,2.232z M11.086,1.275c-0.335-0.089-0.68-0.159-1.025-0.205L9.93,2.06
	c0.306,0.041,0.604,0.102,0.896,0.18L11.086,1.275z M2.245,7.158L1.28,6.896C1.19,7.228,1.119,7.573,1.072,7.918l0.99,0.136
	C2.104,7.748,2.166,7.45,2.245,7.158z M4.068,4.033L3.363,3.324C3.116,3.57,2.884,3.832,2.672,4.106l0.791,0.612
	C3.649,4.477,3.852,4.248,4.068,4.033z M2.95,5.476L2.087,4.972C1.911,5.273,1.754,5.587,1.62,5.907l0.922,0.387
	C2.66,6.011,2.797,5.738,2.95,5.476z M13.011,2.077c-0.3-0.175-0.615-0.331-0.935-0.464L11.69,2.536
	c0.282,0.118,0.556,0.254,0.818,0.406L13.011,2.077z M15.746,10.875l0.963,0.269c0.092-0.329,0.163-0.673,0.214-1.022l-0.99-0.143
	C15.889,10.285,15.827,10.583,15.746,10.875z M16,8.979l-0.001,0.093L17,9c0-0.35-0.023-0.7-0.067-1.043l-0.992,0.13
	C15.979,8.387,16,8.691,16,8.979z M15.764,7.19l0.967-0.257c-0.09-0.335-0.202-0.668-0.336-0.991l-0.924,0.382
	C15.586,6.603,15.685,6.894,15.764,7.19z M14.663,3.349c-0.244-0.245-0.508-0.476-0.784-0.69l-0.611,0.792
	c0.242,0.186,0.472,0.388,0.687,0.604L14.663,3.349z M15.066,5.504l0.865-0.5c-0.174-0.302-0.369-0.593-0.58-0.869l-0.793,0.608
	C14.743,4.985,14.913,5.239,15.066,5.504z M6.876,16.715c0.336,0.092,0.68,0.163,1.023,0.21l0.137-0.99
	c-0.306-0.042-0.604-0.104-0.896-0.184L6.876,16.715z M4.955,15.903c0.3,0.177,0.614,0.335,0.934,0.469l0.389-0.921
	c-0.282-0.12-0.555-0.257-0.816-0.411L4.955,15.903z M9,16l-0.055,0.5L9,17c0.333,0,0.661-0.021,0.983-0.06l-0.121-0.992
	C9.579,15.982,9.292,16,9,16z M10.761,15.777l0.25,0.968c0.337-0.087,0.671-0.197,0.994-0.328l-0.377-0.926
	C11.348,15.603,11.059,15.7,10.761,15.777z M3.31,14.623c0.244,0.248,0.505,0.479,0.778,0.693l0.617-0.787
	c-0.24-0.188-0.47-0.391-0.685-0.608L3.31,14.623z M2.918,12.467l-0.869,0.495c0.172,0.301,0.365,0.594,0.576,0.873l0.797-0.605
	C3.237,12.987,3.069,12.732,2.918,12.467z M5.021,2.059C4.719,2.232,4.427,2.427,4.15,2.637l0.607,0.794
	c0.241-0.184,0.496-0.354,0.761-0.506L5.021,2.059z M2.227,10.777L1.26,11.029c0.088,0.338,0.199,0.673,0.33,0.994l0.926-0.379
	C2.4,11.365,2.305,11.075,2.227,10.777z M2,9V8.964L1,9c0,0.34,0.021,0.675,0.062,1.004l0.992-0.125C2.019,9.591,2,9.298,2,9z M13,8
	h-3V5H8v3H5v2h3v3h2v-3h3V8z M15.706,14.294l-1.999-1.999l-1.414,1.414l1.999,1.999L13,17h4v-4L15.706,14.294z"/>
</svg>
