<?xml version="1.0" encoding="utf-8"?>
<!DOCTYPE svg PUBLIC "-//W3C//DTD SVG 1.1//EN" "http://www.w3.org/Graphics/SVG/1.1/DTD/svg11.dtd" [
	<!ENTITY st0 "fill:#E3EFFA;">
	<!ENTITY st1 "fill:#71B1E4;">
	<!ENTITY st2 "fill:#FFCCCC;">
	<!ENTITY st3 "fill:#E30612;">
	<!ENTITY st4 "fill:#FDE9D2;">
	<!ENTITY st5 "fill:#F7931E;">
	<!ENTITY st6 "fill:#CCF4D1;">
	<!ENTITY st7 "fill:#39B54A;">
	<!ENTITY st8 "fill:#EBECEF;">
	<!ENTITY st9 "fill:#757981;">
	<!ENTITY st10 "fill:#EAECF1;">
	<!ENTITY st11 "fill:#BAC0CF;">
]>
<svg version="1.1" id="img" xmlns="http://www.w3.org/2000/svg" xmlns:xlink="http://www.w3.org/1999/xlink" x="0px" y="0px"
	 width="15px" height="24px" viewBox="0 0 15 24" style="enable-background:new 0 0 15 24;" xml:space="preserve">
<g id="link.inactive">
	<g>
		<polygon style="&st8;" points="12,2 7,2 2,2 2,12 2,22 7,22 12,22 7,12 		"/>
	</g>
	<rect x="2" y="2" style="&st9;" width="2" height="2"/>
	<rect x="5" y="2" style="&st9;" width="2" height="2"/>
	<rect x="2" y="20" style="&st9;" width="2" height="2"/>
	<rect x="5" y="20" style="&st9;" width="2" height="2"/>
	<rect x="2" y="17" style="&st9;" width="2" height="2"/>
	<rect x="2" y="14" style="&st9;" width="2" height="2"/>
	<rect x="2" y="11" style="&st9;" width="2" height="2"/>
	<rect x="2" y="8" style="&st9;" width="2" height="2"/>
	<rect x="2" y="5" style="&st9;" width="2" height="2"/>
	<polygon style="&st9;" points="10.829,19.658 9,20 9,22 12,22 	"/>
	<path style="&st9;" d="M7.944,13.89l-1.789,0.895l0.722,1.442l1.789-0.895L7.944,13.89z M9.387,16.774l-1.789,0.895l0.722,1.442
		l1.789-0.895L9.387,16.774z"/>
	<polygon style="&st9;" points="5.435,10.658 4.764,12 5.435,13.342 7.224,12.447 7,12 7.224,11.553 	"/>
	<path style="&st9;" d="M8.319,4.89L7.598,6.332l1.789,0.895l0.722-1.442L8.319,4.89z M6.877,7.774L6.155,9.216l1.789,0.895
		l0.722-1.442L6.877,7.774z"/>
	<polygon style="&st9;" points="12,2 9,2 9,4 10.829,4.342 	"/>
</g>
</svg>
