<?xml version="1.0" encoding="utf-8"?>
<!DOCTYPE svg PUBLIC "-//W3C//DTD SVG 1.1//EN" "http://www.w3.org/Graphics/SVG/1.1/DTD/svg11.dtd" [
	<!ENTITY st0 "fill:#E3EFFA;">
	<!ENTITY st1 "fill:#71B1E4;">
	<!ENTITY st2 "fill:#FFCCCC;">
	<!ENTITY st3 "fill:#E30612;">
	<!ENTITY st4 "fill:#FDE9D2;">
	<!ENTITY st5 "fill:#F7931E;">
	<!ENTITY st6 "fill:#CCF4D1;">
	<!ENTITY st7 "fill:#39B54A;">
	<!ENTITY st8 "fill:#EBECEF;">
	<!ENTITY st9 "fill:#757981;">
	<!ENTITY st10 "fill:#EAECF1;">
	<!ENTITY st11 "fill:#BAC0CF;">
]>
<svg version="1.1" id="img" xmlns="http://www.w3.org/2000/svg" xmlns:xlink="http://www.w3.org/1999/xlink" x="0px" y="0px"
	 width="15px" height="24px" viewBox="0 0 15 24" style="enable-background:new 0 0 15 24;" xml:space="preserve">
<g id="model.active">
	<g>
		<polygon style="&st6;" points="12,10.001 2,2 2,22 12,13.999 		"/>
	</g>
	<g>
		<polygon style="&st7;" points="12,12.519 10,12.519 10,13.038 9.595,13.362 10.843,14.925 12,14 		"/>
	</g>
	<g>
		<polygon style="&st7;" points="10.843,9.075 9.595,10.638 10,10.962 10,11.481 12,11.481 12,10 		"/>
	</g>
	<g>
		<path style="&st7;" d="M5.693,4.955l-1.25,1.562l1.288,1.03l1.25-1.562L5.693,4.955z M8.269,7.015l-1.25,1.562l1.288,1.03
			l1.25-1.562L8.269,7.015z"/>
	</g>
	<rect x="2" y="17" style="&st7;" width="2" height="2"/>
	<rect x="2" y="14" style="&st7;" width="2" height="2"/>
	<rect x="2" y="11" style="&st7;" width="2" height="2"/>
	<rect x="2" y="8" style="&st7;" width="2" height="2"/>
	<rect x="2" y="5" style="&st7;" width="2" height="2"/>
	<polygon style="&st7;" points="4,20.4 2,21.999 2,20 4,20 	"/>
	<polygon style="&st7;" points="4,3.6 2,2.001 2,4 4,4 	"/>
	<g>
		<path style="&st7;" d="M5.693,19.046l-1.25-1.562l1.288-1.03l1.25,1.562L5.693,19.046z M8.269,16.986l-1.25-1.562l1.288-1.03
			l1.25,1.562L8.269,16.986z"/>
	</g>
</g>
</svg>
