<?xml version="1.0" encoding="utf-8"?>
<!DOCTYPE svg PUBLIC "-//W3C//DTD SVG 1.1//EN" "http://www.w3.org/Graphics/SVG/1.1/DTD/svg11.dtd" [
	<!ENTITY st0 "fill:#E3EFFA;">
	<!ENTITY st1 "fill:#71B1E4;">
	<!ENTITY st2 "fill:#5195CA;">
	<!ENTITY st3 "fill:#FFCCCC;">
	<!ENTITY st4 "fill:#E30612;">
	<!ENTITY st5 "fill:#FDE9D2;">
	<!ENTITY st6 "fill:#F7931E;">
	<!ENTITY st7 "fill:#E67300;">
	<!ENTITY st8 "fill:#CCF4D1;">
	<!ENTITY st9 "fill:#39B54A;">
	<!ENTITY st10 "fill:#009B14;">
	<!ENTITY st11 "fill:#EBECEF;">
	<!ENTITY st12 "fill:#757981;">
	<!ENTITY st13 "fill:#48484E;">
	<!ENTITY st14 "fill:#EAECF1;">
	<!ENTITY st15 "fill:#BAC0CF;">
]>
<svg version="1.1" id="img" xmlns="http://www.w3.org/2000/svg" xmlns:xlink="http://www.w3.org/1999/xlink" x="0px" y="0px"
	 width="15px" height="24px" viewBox="0 0 15 24" style="enable-background:new 0 0 15 24;" xml:space="preserve">
<g id="tree-no-autosync.warning">
	<polygon style="&st5;" points="2,2 2,22 12.667,22 	"/>
	<path style="&st6;" d="M2,2.001v4.203l0.604,1.145l1.749-0.937L2,2.001z M5.361,8.303l1.008,1.891l-1.765,0.941L3.589,9.249
		L5.361,8.303z M4,22H2v-2h2V22z M8,22H6v-2h2V22z M12.667,22H10v-1.6l1.412-0.753L12.667,22z M9.395,15.866l1.008,1.891
		l-1.765,0.941L7.63,16.807L9.395,15.866z M8.387,13.975l-1.765,0.941l-1.009-1.891l1.765-0.941L8.387,13.975z"/>
	<g>
		<circle style="&st7;" cx="5" cy="17" r="2"/>
	</g>
	<g>
		<circle style="&st5;" cx="5" cy="17" r="1"/>
	</g>
</g>
</svg>
