<?xml version="1.0" encoding="utf-8"?>
<!DOCTYPE svg PUBLIC "-//W3C//DTD SVG 1.1//EN" "http://www.w3.org/Graphics/SVG/1.1/DTD/svg11.dtd" [
	<!ENTITY st0 "fill:#E3EFFA;">
	<!ENTITY st1 "fill:#71B1E4;">
	<!ENTITY st2 "fill:#5195CA;">
	<!ENTITY st3 "fill:#FFCCCC;">
	<!ENTITY st4 "fill:#E30612;">
	<!ENTITY st5 "fill:#FDE9D2;">
	<!ENTITY st6 "fill:#F7931E;">
	<!ENTITY st7 "fill:#E67300;">
	<!ENTITY st8 "fill:#CCF4D1;">
	<!ENTITY st9 "fill:#39B54A;">
	<!ENTITY st10 "fill:#009B14;">
	<!ENTITY st11 "fill:#EBECEF;">
	<!ENTITY st12 "fill:#757981;">
	<!ENTITY st13 "fill:#48484E;">
	<!ENTITY st14 "fill:#EAECF1;">
	<!ENTITY st15 "fill:#BAC0CF;">
]>
<svg version="1.1" id="img" xmlns="http://www.w3.org/2000/svg" xmlns:xlink="http://www.w3.org/1999/xlink" x="0px" y="0px"
	 width="15px" height="24px" viewBox="0 0 15 24" style="enable-background:new 0 0 15 24;" xml:space="preserve">
<g id="variable-no-autosync.hover">
	<g>
		<path style="&st0;" d="M2,0v24c6.627,0,12-5.373,12-12S8.627,0,2,0z"/>
	</g>
	<path style="&st1;" d="M2,0c0.656,0,1.319,0.054,1.963,0.16L3.638,2.133C3.101,2.045,2.55,2,2,2V0L2,0L2,0z M5.9,0.648
		c0.621,0.213,1.228,0.48,1.803,0.791L6.751,3.198C6.27,2.938,5.765,2.716,5.25,2.539L5.9,0.648L5.9,0.648z M9.374,2.533
		c0.519,0.405,1.003,0.851,1.448,1.334l-1.47,1.356C8.982,4.82,8.575,4.446,8.144,4.109L9.374,2.533L9.374,2.533z M12.051,5.442
		c0.358,0.548,0.672,1.126,0.938,1.731l-1.831,0.805c-0.22-0.499-0.483-0.984-0.782-1.442L12.051,5.442L12.051,5.442z M13.638,9.062
		c0.158,0.628,0.268,1.284,0.322,1.942l-1.993,0.164c-0.045-0.546-0.135-1.09-0.268-1.618L13.638,9.062L13.638,9.062z
		 M11.966,12.837l1.993,0.165c-0.054,0.656-0.162,1.306-0.323,1.942l-1.939-0.489C11.83,13.927,11.92,13.383,11.966,12.837
		L11.966,12.837z M11.157,16.027l1.83,0.806c-0.265,0.601-0.58,1.181-0.939,1.73l-1.673-1.095
		C10.673,17.011,10.937,16.526,11.157,16.027L11.157,16.027z M9.349,18.782l1.469,1.357c-0.241,0.261-0.493,0.511-0.756,0.75
		c-0.224,0.203-0.455,0.397-0.693,0.583L8.14,19.894C8.571,19.558,8.978,19.184,9.349,18.782L9.349,18.782z M6.746,20.805
		l0.951,1.76c-0.576,0.311-1.182,0.577-1.803,0.79l-0.649-1.892C5.76,21.286,6.265,21.064,6.746,20.805L6.746,20.805z M3.633,21.868
		l0.324,1.974C3.311,23.947,2.655,24,2,24v-2C2.548,22,3.097,21.955,3.633,21.868L3.633,21.868z"/>
	<g>
		<circle style="&st2;" cx="6" cy="12" r="2"/>
	</g>
	<circle style="&st0;" cx="6" cy="12" r="1"/>
</g>
</svg>
