<?xml version="1.0" encoding="utf-8"?>
<!DOCTYPE svg PUBLIC "-//W3C//DTD SVG 1.1//EN" "http://www.w3.org/Graphics/SVG/1.1/DTD/svg11.dtd" [
	<!ENTITY st0 "fill:#FFFFFF;">
	<!ENTITY st1 "fill:#808080;">
	<!ENTITY st2 "fill:#636F80;">
]>
<svg version="1.1" id="img" xmlns="http://www.w3.org/2000/svg" xmlns:xlink="http://www.w3.org/1999/xlink" x="0px" y="0px"
	 width="18px" height="18px" viewBox="0 0 18 18" style="enable-background:new 0 0 18 18;" xml:space="preserve">
<g id="case-calc.default">
	<g>
		<rect x="4" y="4" style="&st2;" width="8" height="3"/>
	</g>
	<rect x="4" y="9" style="&st2;" width="2" height="1"/>
	<rect x="7" y="9" style="&st2;" width="2" height="1"/>
	<rect x="4" y="11" style="&st2;" width="2" height="1"/>
	<rect x="7" y="11" style="&st2;" width="2" height="1"/>
	<rect x="4" y="13" style="&st2;" width="2" height="1"/>
	<rect x="7" y="13" style="&st2;" width="2" height="1"/>
	<polygon style="&st2;" points="9,15 3,15 3,3 13,3 13,8 14,8 14,2 2,2 2,16 9,16 	"/>
	<polygon style="&st2;" points="17,11 17,10 11,10 11,11 12,11 12,12 13,12 13,11 	"/>
	<rect x="13" y="12" style="&st2;" width="1" height="1"/>
	<rect x="14" y="13" style="&st2;" width="1" height="1"/>
	<polygon style="&st2;" points="12,16 11,16 11,17 17,17 17,16 13,16 13,15 12,15 	"/>
	<rect x="13" y="14" style="&st2;" width="1" height="1"/>
</g>
</svg>
