<?xml version="1.0" encoding="utf-8"?>
<!DOCTYPE svg PUBLIC "-//W3C//DTD SVG 1.1//EN" "http://www.w3.org/Graphics/SVG/1.1/DTD/svg11.dtd" [
	<!ENTITY st0 "fill:#FFFFFF;">
	<!ENTITY st1 "fill:#BFBFBF;">
	<!ENTITY st2 "fill:#F7931E;">
	<!ENTITY st3 "fill:#8C8C8C;">
	<!ENTITY st4 "fill:#71B1E4;">
	<!ENTITY st5 "fill:none;stroke:#F7931E;stroke-miterlimit:10;">
	<!ENTITY st6 "fill:none;">
]>
<svg version="1.1" id="img" xmlns="http://www.w3.org/2000/svg" xmlns:xlink="http://www.w3.org/1999/xlink" x="0px" y="0px"
	 width="18px" height="18px" viewBox="0 0 18 18" style="enable-background:new 0 0 18 18;" xml:space="preserve">
<g id="condition.default">
	<path style="&st4;" d="M9,4.25L15.333,9L9,13.75L2.667,9L9,4.25 M9,3L1,9l8,6l8-6L9,3L9,3z"/>
	<g>
		<path style="&st2;" d="M10.613,7.763c0,0.216-0.032,0.396-0.097,0.541c-0.065,0.144-0.146,0.269-0.242,0.371
			c-0.096,0.104-0.2,0.192-0.311,0.268c-0.11,0.074-0.214,0.147-0.31,0.22C9.557,9.234,9.477,9.314,9.412,9.4
			C9.347,9.487,9.314,9.593,9.314,9.718C9.266,9.732,9.21,9.747,9.148,9.761C9.095,9.771,9.028,9.78,8.946,9.79
			C8.864,9.8,8.771,9.805,8.665,9.805c-0.11,0-0.208-0.005-0.292-0.015C8.288,9.78,8.22,9.771,8.167,9.761
			C8.1,9.747,8.044,9.732,8.001,9.718c0-0.245,0.025-0.447,0.076-0.606c0.05-0.158,0.115-0.291,0.195-0.397
			c0.08-0.105,0.164-0.189,0.252-0.253c0.089-0.062,0.173-0.12,0.252-0.173c0.08-0.053,0.145-0.106,0.195-0.162
			c0.051-0.056,0.076-0.129,0.076-0.221c0-0.101-0.035-0.173-0.105-0.216c-0.07-0.044-0.188-0.065-0.357-0.065
			c-0.101,0-0.197,0.009-0.289,0.025C8.205,7.667,8.124,7.688,8.051,7.712C7.965,7.736,7.885,7.765,7.813,7.799
			c-0.154-0.111-0.269-0.26-0.343-0.447c-0.075-0.189-0.107-0.388-0.098-0.6c0.12-0.048,0.255-0.091,0.404-0.13
			c0.125-0.033,0.274-0.064,0.447-0.094C8.398,6.5,8.593,6.485,8.809,6.485c0.245,0,0.478,0.017,0.696,0.054
			c0.219,0.036,0.41,0.102,0.574,0.198c0.164,0.097,0.293,0.227,0.39,0.394C10.565,7.297,10.613,7.508,10.613,7.763z M9.401,11.457
			c-0.053,0.01-0.116,0.02-0.188,0.028c-0.063,0.01-0.139,0.017-0.228,0.022s-0.189,0.007-0.299,0.007
			c-0.116,0-0.217-0.002-0.303-0.007c-0.086-0.005-0.161-0.013-0.224-0.022c-0.072-0.009-0.135-0.019-0.188-0.028v-1.342
			c0.048-0.01,0.108-0.019,0.18-0.029c0.062-0.01,0.138-0.017,0.228-0.021c0.089-0.005,0.191-0.008,0.307-0.008
			c0.11,0,0.21,0.003,0.299,0.008c0.089,0.005,0.165,0.012,0.228,0.021c0.072,0.01,0.134,0.02,0.188,0.029V11.457z"/>
	</g>
</g>
</svg>
