<?xml version="1.0" encoding="utf-8"?>
<!DOCTYPE svg PUBLIC "-//W3C//DTD SVG 1.1//EN" "http://www.w3.org/Graphics/SVG/1.1/DTD/svg11.dtd" [
	<!ENTITY st0 "fill:#FFFFFF;">
	<!ENTITY st1 "fill:#BFBFBF;">
	<!ENTITY st2 "fill:#F7931E;">
	<!ENTITY st3 "fill:#8C8C8C;">
	<!ENTITY st4 "fill:#71B1E4;">
	<!ENTITY st5 "fill:none;stroke:#F7931E;stroke-miterlimit:10;">
	<!ENTITY st6 "fill:none;">
]>
<svg version="1.1" id="img" xmlns="http://www.w3.org/2000/svg" xmlns:xlink="http://www.w3.org/1999/xlink" x="0px" y="0px"
	 width="18px" height="18px" viewBox="0 0 18 18" style="enable-background:new 0 0 18 18;" xml:space="preserve">
<g id="datatovariables.default">
	<path style="&st2;" d="M6,14l2-2l-2-2v1.212v0.336c-0.621,0.064-1.128-0.016-1.446-0.276C4.094,10.898,3.919,10.155,4.017,9H3
		c-0.136,1.512,0.185,2.447,0.923,3.048c0.438,0.356,1.016,0.535,1.709,0.535c0.116,0,0.246-0.024,0.368-0.034v0.239V14z"/>
	<rect x="1" y="4" style="&st2;" width="2" height="1"/>
	<rect x="1" y="6" style="&st2;" width="2" height="1"/>
	<rect x="4" y="4" style="&st2;" width="2" height="1"/>
	<rect x="4" y="6" style="&st2;" width="2" height="1"/>
	<rect x="7" y="4" style="&st2;" width="2" height="1"/>
	<rect x="7" y="6" style="&st2;" width="2" height="1"/>
	<rect x="1" y="1" style="&st4;" width="8" height="2"/>
	<g>
		<path style="&st2;" d="M10.556,10.178c0.023-0.006,0.054-0.012,0.09-0.017c0.03-0.006,0.067-0.012,0.112-0.018
			c0.045-0.006,0.098-0.01,0.157-0.01c0.061,0,0.114,0.004,0.162,0.01c0.048,0.006,0.087,0.012,0.117,0.018
			c0.036,0.006,0.066,0.012,0.09,0.017l1.251,1.801l1.233-1.801c0.023-0.006,0.051-0.012,0.081-0.017
			c0.029-0.006,0.062-0.012,0.099-0.018c0.036-0.006,0.084-0.01,0.145-0.01c0.054,0,0.104,0.004,0.148,0.01
			c0.045,0.006,0.082,0.012,0.112,0.018c0.036,0.006,0.065,0.012,0.09,0.017l-1.566,2.26l1.639,2.385
			c-0.024,0.012-0.055,0.021-0.09,0.027c-0.03,0.006-0.068,0.01-0.113,0.014c-0.045,0.004-0.098,0.004-0.157,0.004
			c-0.066,0-0.121,0-0.166-0.004c-0.045-0.004-0.083-0.008-0.113-0.014c-0.035-0.006-0.066-0.016-0.09-0.027l-1.323-1.908
			l-1.305,1.908c-0.023,0.012-0.051,0.021-0.081,0.027c-0.03,0.006-0.065,0.01-0.107,0.014c-0.042,0.004-0.094,0.004-0.153,0.004
			c-0.054,0-0.102,0-0.144-0.004c-0.043-0.004-0.078-0.008-0.108-0.014c-0.03-0.006-0.058-0.016-0.081-0.027l1.629-2.367
			L10.556,10.178z"/>
	</g>
	<path style="&st4;" d="M14,9c1.103,0,2,0.898,2,2v3c0,1.102-0.897,2-2,2h-3c-1.103,0-2-0.898-2-2v-3c0-1.102,0.897-2,2-2H14 M14,8
		h-3c-1.657,0-3,1.343-3,3v3c0,1.657,1.343,3,3,3h3c1.657,0,3-1.343,3-3v-3C17,9.343,15.657,8,14,8L14,8z"/>
</g>
</svg>
