<?xml version="1.0" encoding="utf-8"?>
<!DOCTYPE svg PUBLIC "-//W3C//DTD SVG 1.1//EN" "http://www.w3.org/Graphics/SVG/1.1/DTD/svg11.dtd" [
	<!ENTITY st0 "fill:#FFFFFF;">
	<!ENTITY st1 "fill:#BFBFBF;">
	<!ENTITY st2 "fill:#F7931E;">
	<!ENTITY st3 "fill:#8C8C8C;">
	<!ENTITY st4 "fill:#71B1E4;">
	<!ENTITY st5 "fill:none;stroke:#F7931E;stroke-miterlimit:10;">
	<!ENTITY st6 "fill:none;">
]>
<svg version="1.1" id="img" xmlns="http://www.w3.org/2000/svg" xmlns:xlink="http://www.w3.org/1999/xlink" x="0px" y="0px"
	 width="18px" height="18px" viewBox="0 0 18 18" style="enable-background:new 0 0 18 18;" xml:space="preserve">
<g id="group-data.default">
	<rect x="7" y="2" style="&st2;" width="9" height="2"/>
	<rect x="7" y="6" style="&st2;" width="9" height="2"/>
	<rect x="7" y="10" style="&st2;" width="9" height="2"/>
	<rect x="7" y="14" style="&st2;" width="9" height="2"/>
	<g>
		<path style="&st4;" d="M1,8.442c0.443-0.012,0.805-0.127,1.083-0.346c0.279-0.219,0.465-0.52,0.558-0.903
			c0.092-0.383,0.141-1.037,0.146-1.965C2.793,4.302,2.811,3.691,2.84,3.398c0.052-0.466,0.148-0.841,0.289-1.124
			C3.27,1.99,3.444,1.765,3.651,1.596c0.208-0.17,0.473-0.299,0.795-0.388c0.218-0.056,0.575-0.083,1.071-0.083H6v1.307H5.733
			c-0.599,0-0.997,0.104-1.192,0.312C4.345,2.952,4.248,3.417,4.248,4.139c0,1.453-0.032,2.372-0.095,2.755
			c-0.104,0.595-0.28,1.052-0.531,1.373c-0.25,0.322-0.643,0.608-1.179,0.858C3.076,9.38,3.535,9.771,3.82,10.294
			c0.285,0.525,0.428,1.384,0.428,2.577c0,1.082,0.011,1.726,0.034,1.931c0.046,0.378,0.163,0.641,0.35,0.791
			c0.187,0.15,0.554,0.225,1.102,0.225H6v1.308H5.517c-0.565,0-0.973-0.045-1.227-0.134c-0.369-0.128-0.674-0.334-0.916-0.62
			c-0.242-0.286-0.398-0.648-0.471-1.086c-0.071-0.439-0.111-1.157-0.116-2.156c-0.006-0.999-0.055-1.689-0.146-2.073
			c-0.092-0.383-0.278-0.685-0.558-0.907C1.805,9.927,1.443,9.811,1,9.799V8.442z"/>
	</g>
</g>
</svg>
