<?xml version="1.0" encoding="utf-8"?>
<!DOCTYPE svg PUBLIC "-//W3C//DTD SVG 1.1//EN" "http://www.w3.org/Graphics/SVG/1.1/DTD/svg11.dtd" [
	<!ENTITY st0 "fill:#FFFFFF;">
	<!ENTITY st1 "fill:#BFBFBF;">
	<!ENTITY st2 "fill:#F7931E;">
	<!ENTITY st3 "fill:#8C8C8C;">
	<!ENTITY st4 "fill:#71B1E4;">
	<!ENTITY st5 "fill:none;stroke:#F7931E;stroke-miterlimit:10;">
	<!ENTITY st6 "fill:none;">
]>
<svg version="1.1" id="img" xmlns="http://www.w3.org/2000/svg" xmlns:xlink="http://www.w3.org/1999/xlink" x="0px" y="0px"
	 width="18px" height="18px" viewBox="0 0 18 18" style="enable-background:new 0 0 18 18;" xml:space="preserve">
<g id="group-data.disabled">
	<rect x="7" y="2" style="&st1;" width="9" height="2"/>
	<rect x="7" y="6" style="&st1;" width="9" height="2"/>
	<rect x="7" y="10" style="&st1;" width="9" height="2"/>
	<rect x="7" y="14" style="&st1;" width="9" height="2"/>
	<g>
		<path style="&st3;" d="M1,8.317C1.443,8.306,1.805,8.19,2.084,7.972c0.279-0.219,0.465-0.52,0.557-0.903
			c0.092-0.383,0.142-1.037,0.147-1.965C2.793,4.177,2.812,3.566,2.84,3.273c0.052-0.466,0.149-0.841,0.289-1.124
			S3.444,1.64,3.651,1.471c0.208-0.17,0.473-0.299,0.795-0.388C4.665,1.027,5.022,1,5.517,1H6v1.307H5.732
			c-0.599,0-0.996,0.104-1.191,0.312C4.346,2.827,4.247,3.292,4.247,4.014c0,1.453-0.031,2.372-0.095,2.755
			C4.049,7.363,3.872,7.82,3.621,8.142C3.371,8.464,2.978,8.75,2.442,9c0.634,0.255,1.092,0.646,1.377,1.169
			c0.285,0.525,0.428,1.384,0.428,2.577c0,1.082,0.012,1.726,0.034,1.931c0.047,0.378,0.163,0.641,0.35,0.791
			c0.188,0.15,0.555,0.225,1.102,0.225H6V17H5.517c-0.565,0-0.973-0.045-1.226-0.134c-0.369-0.128-0.674-0.334-0.916-0.62
			c-0.242-0.286-0.398-0.648-0.471-1.086c-0.072-0.439-0.111-1.157-0.117-2.156c-0.005-0.999-0.055-1.689-0.147-2.073
			c-0.092-0.383-0.277-0.685-0.557-0.907C1.805,9.802,1.443,9.686,1,9.674V8.317z"/>
	</g>
</g>
</svg>
