<?xml version="1.0" encoding="utf-8"?>
<!DOCTYPE svg PUBLIC "-//W3C//DTD SVG 1.1//EN" "http://www.w3.org/Graphics/SVG/1.1/DTD/svg11.dtd" [
	<!ENTITY st0 "fill:#FFFFFF;">
	<!ENTITY st1 "fill:#BFBFBF;">
	<!ENTITY st2 "fill:#F7931E;">
	<!ENTITY st3 "fill:#8C8C8C;">
	<!ENTITY st4 "fill:#71B1E4;">
	<!ENTITY st5 "fill:none;stroke:#F7931E;stroke-miterlimit:10;">
	<!ENTITY st6 "fill:none;">
]>
<svg version="1.1" id="img" xmlns="http://www.w3.org/2000/svg" xmlns:xlink="http://www.w3.org/1999/xlink" x="0px" y="0px"
	 width="18px" height="18px" viewBox="0 0 18 18" style="enable-background:new 0 0 18 18;" xml:space="preserve">
<g id="javascript.default">
	<path style="&st2;" d="M12.622,13.997c-1.609,0-3.014-0.897-3.852-2.463l1.764-0.943c0.622,1.162,1.479,1.406,2.088,1.406
		c0.291,0,1.378-0.135,1.378-0.797c0-0.531-0.381-0.747-1.301-1.254l-0.793-0.405C10.726,8.95,9.505,8.339,9.505,6.61
		c0-1.674,1.435-2.674,2.821-2.674c1.249,0,2.325,0.536,3.111,1.552l-1.582,1.225c-0.415-0.537-0.888-0.776-1.529-0.776
		c-0.008,0-0.821,0.04-0.821,0.674c0,0.425,0.088,0.537,1.297,1.143l0.812,0.414C14.895,8.825,16,9.393,16,11.2
		C16,13.017,14.26,13.997,12.622,13.997z"/>
	<path style="&st2;" d="M4.879,14c-0.822,0-1.626-0.333-2.207-0.914l-0.379-0.379l1.414-1.414l0.379,0.379
		C4.295,11.881,4.584,12,4.879,12C5.497,12,6,11.497,6,10.879V4h2v6.879C8,12.6,6.6,14,4.879,14z"/>
</g>
</svg>
