<?xml version="1.0" encoding="utf-8"?>
<!DOCTYPE svg PUBLIC "-//W3C//DTD SVG 1.1//EN" "http://www.w3.org/Graphics/SVG/1.1/DTD/svg11.dtd" [
	<!ENTITY st0 "fill:#FFFFFF;">
	<!ENTITY st1 "fill:#BFBFBF;">
	<!ENTITY st2 "fill:#F7931E;">
	<!ENTITY st3 "fill:#8C8C8C;">
	<!ENTITY st4 "fill:#71B1E4;">
	<!ENTITY st5 "fill:none;stroke:#F7931E;stroke-miterlimit:10;">
	<!ENTITY st6 "fill:none;">
]>
<svg version="1.1" id="img" xmlns="http://www.w3.org/2000/svg" xmlns:xlink="http://www.w3.org/1999/xlink" x="0px" y="0px"
	 width="18px" height="18px" viewBox="0 0 18 18" style="enable-background:new 0 0 18 18;" xml:space="preserve">
<path id="regressionneuralnet.inverted" style="&st0;" d="M6.979,11.792l4.386-1.645C11.727,10.662,12.323,11,13,11
	c1.105,0,2-0.895,2-2c0-0.931-0.639-1.706-1.5-1.929V5.929C14.361,5.706,15,4.931,15,4c0-1.105-0.895-2-2-2
	c-1.099,0-1.99,0.887-1.998,1.984L6.748,5.047C6.409,4.426,5.758,4,5,4C3.895,4,3,4.895,3,6c0,1.105,0.895,2,2,2
	c0.677,0,1.273-0.338,1.635-0.853l1.826,0.685L6.01,10.283C5.713,10.108,5.37,10,5,10c-1.105,0-2,0.895-2,2c0,1.105,0.895,2,2,2
	c0.758,0,1.409-0.426,1.748-1.047l4.253,1.063C11.01,15.113,11.901,16,13,16c1.105,0,2-0.895,2-2c0-1.105-0.895-2-2-2
	c-0.758,0-1.409,0.426-1.748,1.047l-4.253-1.063C6.998,11.918,6.986,11.856,6.979,11.792z M11.99,5.717
	c0.158,0.093,0.328,0.165,0.51,0.212v1.141c-0.466,0.121-0.866,0.4-1.135,0.782l-1.099-0.412L11.99,5.717z M6.979,6.208
	c0.007-0.064,0.019-0.127,0.019-0.192l4.253-1.063c0.01,0.019,0.02,0.039,0.031,0.057L9.238,7.055L6.979,6.208z M9.49,8.217
	l1.531,0.574C11.014,8.861,11,8.929,11,9s0.014,0.139,0.021,0.208l-4.036,1.513L9.49,8.217z"/>
</svg>
