<?xml version="1.0" encoding="utf-8"?>
<!DOCTYPE svg PUBLIC "-//W3C//DTD SVG 1.1//EN" "http://www.w3.org/Graphics/SVG/1.1/DTD/svg11.dtd" [
	<!ENTITY st0 "fill:#FFFFFF;">
	<!ENTITY st1 "fill:#BFBFBF;">
	<!ENTITY st2 "fill:#F7931E;">
	<!ENTITY st3 "fill:#8C8C8C;">
	<!ENTITY st4 "fill:#71B1E4;">
	<!ENTITY st5 "fill:none;stroke:#F7931E;stroke-miterlimit:10;">
	<!ENTITY st6 "fill:none;">
]>
<svg version="1.1" id="img" xmlns="http://www.w3.org/2000/svg" xmlns:xlink="http://www.w3.org/1999/xlink" x="0px" y="0px"
	 width="18px" height="18px" viewBox="0 0 18 18" style="enable-background:new 0 0 18 18;" xml:space="preserve">
<g id="ungroup-data.default">
	<rect x="6" y="2" style="&st2;" width="10" height="2"/>
	<rect x="6" y="6" style="&st2;" width="10" height="2"/>
	<rect x="6" y="10" style="&st2;" width="10" height="2"/>
	<rect x="6" y="14" style="&st2;" width="10" height="2"/>
	<g>
		<path style="&st4;" d="M1,4.658c0.354-0.005,0.644-0.062,0.867-0.173c0.224-0.109,0.372-0.26,0.446-0.451
			C2.386,3.843,2.425,3.516,2.43,3.052c0.004-0.464,0.019-0.769,0.041-0.916c0.042-0.232,0.119-0.42,0.231-0.561
			c0.113-0.142,0.252-0.255,0.418-0.339c0.166-0.085,0.378-0.15,0.636-0.193C3.932,1.014,4.217,1,4.613,1H5v0.653H4.786
			c-0.479,0-0.797,0.052-0.954,0.156C3.676,1.913,3.598,2.145,3.598,2.507c0,0.727-0.025,1.187-0.076,1.377
			C3.439,4.182,3.297,4.41,3.097,4.571C2.896,4.732,2.583,4.875,2.154,5c0.507,0.127,0.874,0.322,1.102,0.585
			c0.228,0.262,0.342,0.691,0.342,1.288c0,0.541,0.009,0.863,0.027,0.966c0.037,0.188,0.13,0.32,0.279,0.395
			c0.15,0.074,0.443,0.111,0.881,0.111H5V9H4.613c-0.452,0-0.778-0.023-0.98-0.066C3.337,8.869,3.093,8.766,2.9,8.623
			C2.707,8.481,2.581,8.299,2.523,8.08C2.466,7.86,2.435,7.502,2.43,7.002C2.425,6.503,2.386,6.157,2.312,5.966
			C2.239,5.774,2.09,5.623,1.867,5.512C1.644,5.4,1.354,5.343,1,5.337V4.658z"/>
	</g>
	<g>
		<path style="&st4;" d="M1,12.658c0.354-0.005,0.644-0.062,0.867-0.173c0.224-0.109,0.372-0.26,0.446-0.451
			c0.074-0.191,0.113-0.519,0.118-0.982c0.004-0.464,0.019-0.769,0.041-0.916c0.042-0.232,0.119-0.42,0.231-0.562
			c0.113-0.142,0.252-0.255,0.418-0.339C3.287,9.15,3.499,9.086,3.757,9.042C3.932,9.014,4.217,9,4.613,9H5v0.653H4.786
			c-0.479,0-0.797,0.052-0.954,0.156c-0.156,0.104-0.234,0.336-0.234,0.697c0,0.727-0.025,1.187-0.076,1.377
			c-0.083,0.298-0.225,0.526-0.425,0.688c-0.2,0.161-0.514,0.304-0.943,0.429c0.507,0.127,0.874,0.322,1.102,0.585
			c0.228,0.262,0.342,0.691,0.342,1.288c0,0.541,0.009,0.863,0.027,0.966c0.037,0.188,0.13,0.32,0.279,0.396
			c0.15,0.074,0.443,0.111,0.881,0.111H5V17H4.613c-0.452,0-0.778-0.022-0.98-0.066c-0.295-0.064-0.54-0.168-0.733-0.311
			c-0.193-0.142-0.319-0.324-0.377-0.543c-0.057-0.22-0.088-0.578-0.093-1.078c-0.005-0.499-0.044-0.845-0.118-1.036
			c-0.074-0.191-0.222-0.343-0.446-0.454C1.644,13.4,1.354,13.343,1,13.337V12.658z"/>
	</g>
</g>
</svg>
