<?xml version="1.0" encoding="utf-8"?>
<svg version="1.1" id="img" xmlns="http://www.w3.org/2000/svg" xmlns:xlink="http://www.w3.org/1999/xlink" x="0px" y="0px"
	 width="18px" height="18px" viewBox="0 0 18 18" style="enable-background:new 0 0 18 18;" xml:space="preserve">
<g id="gdb.default">
	<g>
		<polygon style="fill:#3E7FAA;" points="12,5 15,5 12,2 		"/>
		<polygon style="fill:#71B1E4;" points="14,15 4,15 4,3 12,3 12,2 3,2 3,16 15,16 15,5 14,5 		"/>
	</g>
	<g>
		<path style="fill:#E3001B;" d="M6.28,9.447C6.247,10.198,5.967,12.755,9.33,14c-0.942-0.65-1.772-1.076-1.581-2.388
			c0.191-1.324,0.011-1.559-0.224-1.851c0.415,0.214,0.583,0.347,0.617,0.471C8.276,9.896,8.187,9.38,7.379,8.965
			c-0.718-0.37-0.751-0.684-0.572-0.931C6.976,7.788,8.175,7.844,8.31,9.19c0.235,0.067,0.168-0.169,0.168-0.661
			c0-0.505-0.718-1.01-1.514-1.076C6.18,7.395,5.394,7.138,4.968,6.958C4.828,6.892,4.471,6.728,4,6.548v0.266
			c0.525,0.19,0.994,0.394,1.305,0.592C6.393,8.113,6.303,8.696,6.28,9.447z"/>
		<path style="fill:#E3001B;" d="M9.386,8.146c-1.402,1.66-0.505,2.019-0.067,1.47c0.662-0.852,1.917-1.2,1.211-0.561
			c0,0-2.523,1.704-1.2,3.398c-0.056-0.303-0.493-1.032,0.191-1.985c0.661-0.964,2.041-1.402,2.669-1.716
			C12.806,8.438,13.703,8,13.659,7.675c-0.022-0.202,0.045-0.257,0.213-0.291C13.9,7.38,13.946,7.369,14,7.354V5.53
			C12.127,6.294,10.091,7.311,9.386,8.146z"/>
		<path style="fill:#E3001B;" d="M7.309,8.104c-0.123,0-0.227,0.105-0.227,0.227c0,0.127,0.104,0.229,0.227,0.229
			c0.127,0,0.228-0.102,0.228-0.229C7.537,8.21,7.436,8.104,7.309,8.104z"/>
	</g>
</g>
</svg>
