<?xml version="1.0" encoding="utf-8"?>
<svg version="1.1" id="img" xmlns="http://www.w3.org/2000/svg" xmlns:xlink="http://www.w3.org/1999/xlink" x="0px" y="0px"
	 width="18px" height="18px" viewBox="0 0 18 18" style="enable-background:new 0 0 18 18;" xml:space="preserve">
<g id="mdb.default">
	<g>
		<polygon style="fill:#3E7FAA;" points="12,5 15,5 12,2 		"/>
		<polygon style="fill:#71B1E4;" points="14,15 4,15 4,3 12,3 12,2 3,2 3,16 15,16 15,5 14,5 		"/>
	</g>
	<path style="fill:#974063;" d="M12.815,7.155c-0.022-0.046-0.046-0.092-0.071-0.137c-0.346-0.607-0.994-1.009-1.679-1.145
		c-1.268-0.251-3.184,0.34-3.4,1.823c-0.048,0.33,0.011,0.72,0.199,1.003L5,11.986V13h1.672v-1.32h1.324l0.022-0.95h1.165
		l0.464-0.615c0.86,0.064,1.815-0.147,2.526-0.648C12.929,8.932,13.21,7.991,12.815,7.155z M10.96,7.695
		c-0.373,0-0.672-0.244-0.672-0.54c0-0.296,0.299-0.536,0.672-0.536c0.369,0,0.67,0.241,0.67,0.536
		C11.629,7.451,11.329,7.695,10.96,7.695z"/>
</g>
</svg>
