<?xml version="1.0" encoding="utf-8"?>
<svg version="1.1" id="img" xmlns="http://www.w3.org/2000/svg" xmlns:xlink="http://www.w3.org/1999/xlink" x="0px" y="0px"
	 width="18px" height="18px" viewBox="0 0 18 18" style="enable-background:new 0 0 18 18;" xml:space="preserve">
<g id="pdf.default">
	<g>
		<polygon style="fill:#3E7FAA;" points="12,5 15,5 12,2 		"/>
		<polygon style="fill:#71B1E4;" points="14,15 4,15 4,3 12,3 12,2 3,2 3,16 15,16 15,5 14,5 		"/>
	</g>
	<path style="fill:#E20000;" d="M12.926,10.279c-0.196-0.33-0.678-0.484-1.52-0.484c-0.122,0-0.243,0.013-0.372,0.029
		c-0.135,0.015-0.279,0.032-0.395,0.042c-0.159-0.079-0.265-0.159-0.372-0.238C10.209,9.584,10.15,9.541,10.1,9.509
		c-0.401-0.4-0.747-0.964-0.973-1.588C9.49,6.745,9.483,5.956,9.078,5.559c-0.146-0.074-0.278-0.135-0.42-0.135H8.534
		c-0.312,0-0.528,0.298-0.593,0.57C7.684,6.888,7.807,7.335,8.066,8.051l-0.073,0.22c-0.168,0.51-0.341,1.039-0.606,1.572
		c-0.114,0.199-0.216,0.386-0.31,0.56c-0.112,0.206-0.214,0.392-0.275,0.524c-0.15,0.075-0.278,0.151-0.383,0.214
		c-0.069,0.041-0.128,0.075-0.181,0.103C5.493,11.677,5.074,12.261,5,12.64c0,0.131,0,0.21,0.064,0.311v0.119l0.342,0.201
		c0.093,0.088,0.187,0.088,0.317,0.088c0.555,0,1.196-0.648,2.037-2.003c0.596-0.24,1.358-0.363,2.417-0.504
		c0.661,0.331,1.422,0.449,1.916,0.449c0.277,0,0.483-0.073,0.633-0.155c0.08-0.083,0.136-0.184,0.18-0.266
		c0.024-0.043,0.051-0.092,0.094-0.176C13,10.577,13,10.432,12.926,10.279z M7.769,10.712c0.032-0.059,0.065-0.116,0.097-0.174
		c0.065-0.114,0.129-0.226,0.196-0.36L8.24,9.785c0.14-0.31,0.274-0.606,0.372-0.88c0.201,0.391,0.482,0.799,0.858,1.247
		c0.017,0.017,0.034,0.035,0.054,0.053C9.002,10.298,8.36,10.482,7.769,10.712z"/>
</g>
</svg>
