<?xml version="1.0" encoding="utf-8"?>
<svg version="1.1" id="img" xmlns="http://www.w3.org/2000/svg" xmlns:xlink="http://www.w3.org/1999/xlink" x="0px" y="0px"
	 width="18px" height="18px" viewBox="0 0 18 18" style="enable-background:new 0 0 18 18;" xml:space="preserve">
<g id="sqlite.default">
	<g>
		<polygon style="fill:#3E7FAA;" points="12,5 15,5 12,2 		"/>
		<polygon style="fill:#71B1E4;" points="14,15 4,15 4,3 12,3 12,2 3,2 3,16 15,16 15,5 14,5 		"/>
	</g>
	<path style="fill:#003B57;" d="M11.099,4.254c-0.503-0.448-1.112-0.268-1.713,0.265C9.297,4.598,9.208,4.686,9.119,4.78
		c-1.028,1.09-1.982,3.11-2.279,4.653c0.115,0.234,0.206,0.533,0.265,0.761c0.015,0.059,0.029,0.114,0.04,0.16
		c0.026,0.111,0.04,0.182,0.04,0.182s-0.009-0.035-0.047-0.145c-0.007-0.021-0.015-0.044-0.025-0.071
		c-0.004-0.011-0.01-0.025-0.016-0.039c-0.067-0.156-0.253-0.485-0.334-0.628c-0.07,0.206-0.132,0.399-0.183,0.573
		c0.236,0.431,0.379,1.17,0.379,1.17s-0.012-0.048-0.072-0.215c-0.053-0.148-0.314-0.607-0.376-0.714
		c-0.106,0.392-0.148,0.656-0.11,0.721c0.074,0.125,0.144,0.34,0.206,0.578c0.139,0.536,0.236,1.189,0.236,1.189
		S6.847,13,6.853,13.066c-0.005,0.702-0.009,1.338,0.118,1.465c-0.066-1.721,0.267-3.423,0.839-4.854
		c0.84-2.218,2.005-3.998,3.072-4.848c-0.972,0.878-2.288,3.72-2.681,4.772c-0.441,1.178-0.753,2.284-0.942,3.344
		c0.325-0.993,1.376-1.42,1.376-1.42s0.515-0.636,1.118-1.544c-0.361,0.082-0.953,0.223-1.151,0.306
		c-0.293,0.123-0.372,0.165-0.372,0.165s0.948-0.577,1.761-0.839C11.107,7.852,12.326,5.349,11.099,4.254"/>
</g>
</svg>
