<?xml version="1.0" encoding="utf-8"?>
<!DOCTYPE svg PUBLIC "-//W3C//DTD SVG 1.1//EN" "http://www.w3.org/Graphics/SVG/1.1/DTD/svg11.dtd" [
	<!ENTITY st0 "fill:#71B1E4;">
	<!ENTITY st1 "fill:#E30612;">
	<!ENTITY st2 "fill:#F7931E;">
	<!ENTITY st3 "fill:#39B54A;">
	<!ENTITY st4 "fill:#9A9FAF;">
	<!ENTITY st5 "fill:#8ABDE8;">
]>
<svg version="1.1" id="img" xmlns="http://www.w3.org/2000/svg" xmlns:xlink="http://www.w3.org/1999/xlink" x="0px" y="0px"
	 width="24px" height="24px" viewBox="0 0 24 24" style="enable-background:new 0 0 24 24;" xml:space="preserve">
<g id="visualizer.active">
	<circle style="&st3;" cx="12" cy="14" r="2"/>
	<path style="&st3;" d="M18.386,11.626l-0.482,0.278c-0.157,0.091-0.329,0.134-0.498,0.134c-0.346,0-0.682-0.179-0.867-0.5
		L16.5,11.472l-0.039,0.066c-0.185,0.321-0.521,0.5-0.867,0.5c-0.046,0-0.092-0.011-0.137-0.018C15.793,12.606,16,13.275,16,14
		c0,2.208-1.792,4-4,4c-2.208,0-4-1.792-4-4c0-2.214,1.792-4,4-4c0.32,0,0.627,0.047,0.925,0.118
		c-0.011-0.193,0.015-0.386,0.113-0.555l0.039-0.066H13c-0.36,0-0.661-0.2-0.837-0.486C9.032,8.954,5.879,10.51,4,13.696V14v0.304
		c3.692,6.262,12.308,6.262,16,0V14v-0.304C19.534,12.906,18.989,12.217,18.386,11.626z"/>
	<g>
		<path style="&st3;" d="M19.256,6.543c-0.059-0.166-0.129-0.33-0.22-0.488c-0.091-0.158-0.199-0.3-0.313-0.434l0.372-0.644
			L17.404,4l-0.376,0.652c-0.347-0.064-0.703-0.067-1.057-0.002L15.596,4l-1.691,0.976l0.375,0.65
			c-0.234,0.274-0.409,0.584-0.527,0.916H13v1.953h0.744c0.059,0.166,0.129,0.33,0.22,0.488c0.091,0.158,0.198,0.3,0.313,0.434
			l-0.372,0.644l1.691,0.976l0.376-0.652c0.347,0.064,0.703,0.067,1.057,0.002l0.375,0.65l1.691-0.976l-0.375-0.65
			c0.233-0.274,0.409-0.584,0.527-0.916H20V6.543H19.256z M17.25,8.818c-0.717,0.414-1.635,0.168-2.049-0.549
			c-0.414-0.717-0.168-1.635,0.549-2.049c0.717-0.414,1.634-0.168,2.049,0.549C18.213,7.487,17.967,8.404,17.25,8.818z"/>
	</g>
</g>
</svg>
