<?xml version="1.0" encoding="UTF-8" standalone="no"?>
<!-- Created with Inkscape (http://www.inkscape.org/) -->

<svg
   xmlns:dc="http://purl.org/dc/elements/1.1/"
   xmlns:cc="http://creativecommons.org/ns#"
   xmlns:rdf="http://www.w3.org/1999/02/22-rdf-syntax-ns#"
   xmlns:svg="http://www.w3.org/2000/svg"
   xmlns="http://www.w3.org/2000/svg"
   xmlns:sodipodi="http://sodipodi.sourceforge.net/DTD/sodipodi-0.dtd"
   xmlns:inkscape="http://www.inkscape.org/namespaces/inkscape"
   width="18"
   height="18"
   viewBox="0 0 4.7624999 4.7625001"
   version="1.1"
   id="svg469"
   inkscape:version="0.92.2 (5c3e80d, 2017-08-06)"
   sodipodi:docname="d2.svg">
  <defs
     id="defs463" />
  <sodipodi:namedview
     id="base"
     pagecolor="#ffffff"
     bordercolor="#666666"
     borderopacity="1.0"
     inkscape:pageopacity="0.0"
     inkscape:pageshadow="2"
     inkscape:zoom="22.4"
     inkscape:cx="19.04624"
     inkscape:cy="8.8239667"
     inkscape:document-units="mm"
     inkscape:current-layer="layer1"
     showgrid="false"
     units="px"
     inkscape:window-width="1920"
     inkscape:window-height="1017"
     inkscape:window-x="1276"
     inkscape:window-y="-4"
     inkscape:window-maximized="1" />
  <metadata
     id="metadata466">
    <rdf:RDF>
      <cc:Work
         rdf:about="">
        <dc:format>image/svg+xml</dc:format>
        <dc:type
           rdf:resource="http://purl.org/dc/dcmitype/StillImage" />
        <dc:title></dc:title>
      </cc:Work>
    </rdf:RDF>
  </metadata>
  <g
     inkscape:label="Layer 1"
     inkscape:groupmode="layer"
     id="layer1"
     transform="translate(0,-292.23748)">
    <polygon
       transform="matrix(0.26458333,0,0,0.26458333,-0.01889879,287.49388)"
       style="fill:#f7931e"
       points="2,26 5,29 9,22 17,34 2,34 "
       id="polygon4" />
    <path
       inkscape:connector-curvature="0"
       style="fill:#71b1e4;stroke-width:0.26458332"
       d="m 0.51026792,295.25929 c 0.1955953,0.0788 0.3720703,0.20128 0.54725338,0.32712 0.225826,0.16226 0.4583699,0.38008 0.7353556,0.40023 0.4981608,0.0351 0.9554971,-0.51444 1.0666015,-0.98134 0.1917197,-0.80744 0.8257894,-1.84536 1.6195394,-0.63226 v 2.11667 H 0.51026792 Z"
       id="path8" />
    <path
       inkscape:connector-curvature="0"
       style="fill:#3e7faa;stroke-width:0.26458332"
       d="M 4.4790178,296.48971 H 0.51026792 v -1.23042 c 0.1958536,0.0796 0.3731038,0.20128 0.54764088,0.32815 0.2249217,0.16149 0.457724,0.37827 0.735614,0.39946 0.4973857,0.0346 0.9551097,-0.51573 1.0662141,-0.9816 0.047672,-0.2036 0.121698,-0.41806 0.2223378,-0.61107 z"
       id="path96" />
    <polygon
       transform="matrix(0.26458333,0,0,0.26458333,-0.01889879,287.49388)"
       style="fill:#71b1e4"
       points="17,34.056641 2,34.056641 2.0302734,34 17,34 "
       id="polygon98" />
    <rect
       style="fill:#71b1e4;stroke-width:0.26458332"
       x="0.24568453"
       y="292.52097"
       width="0.26458332"
       height="4.2333331"
       id="rect100" />
    <rect
       style="fill:#71b1e4;stroke-width:0.26458332"
       x="0.24568453"
       y="296.5047"
       width="4.2333331"
       height="0.24959716"
       id="rect102" />
  </g>
</svg>
