<?xml version="1.0" encoding="utf-8"?>
<!DOCTYPE svg PUBLIC "-//W3C//DTD SVG 1.1//EN" "http://www.w3.org/Graphics/SVG/1.1/DTD/svg11.dtd" [
	<!ENTITY st0 "fill:#FFFFFF;">
	<!ENTITY st1 "fill:#8C8C8C;">
	<!ENTITY st2 "fill:#636F80;">
]>
<svg version="1.1" id="img" xmlns="http://www.w3.org/2000/svg" xmlns:xlink="http://www.w3.org/1999/xlink" x="0px" y="0px"
	 width="18px" height="18px" viewBox="0 0 18 18" style="enable-background:new 0 0 18 18;" xml:space="preserve">
<path id="no-scale.default" style="&st2;" d="M16.528,15c-0.973,0-1.492-3.072-1.909-5.54C14,5.792,13.358,2,10.985,2
	C10.11,2,9.471,2.519,8.981,3.355C8.487,2.519,7.844,2,6.962,2c-2.39,0-3.036,3.792-3.661,7.459C2.88,11.928,2.356,15,1.37,15H1v1
	h16v-1H16.528z M2.872,15c0.692-1.148,1.038-3.16,1.415-5.373C4.79,6.675,5.416,3,6.962,3c0.63,0,1.106,0.616,1.484,1.54
	C7.952,5.923,7.648,7.703,7.352,9.459C6.935,11.928,6.415,15,5.442,15H2.872z M8.984,6.263C9.246,7.334,9.451,8.53,9.638,9.627
	c0.377,2.213,0.723,4.225,1.415,5.373H6.933c0.687-1.149,1.03-3.161,1.404-5.374C8.523,8.529,8.725,7.334,8.984,6.263z
	 M10.624,9.459c-0.3-1.757-0.606-3.538-1.105-4.922C9.893,3.615,10.363,3,10.985,3c1.528,0,2.149,3.674,2.648,6.626
	c0.374,2.213,0.717,4.225,1.404,5.374h-2.483C11.568,15,11.044,11.928,10.624,9.459z"/>
</svg>
