<?xml version="1.0" encoding="utf-8"?>
<!DOCTYPE svg PUBLIC "-//W3C//DTD SVG 1.1//EN" "http://www.w3.org/Graphics/SVG/1.1/DTD/svg11.dtd" [
	<!ENTITY st0 "fill:#FFFFFF;">
	<!ENTITY st1 "fill:#808080;">
	<!ENTITY st2 "fill:#636F80;">
]>
<svg version="1.1" id="img" xmlns="http://www.w3.org/2000/svg" xmlns:xlink="http://www.w3.org/1999/xlink" x="0px" y="0px"
	 width="18px" height="18px" viewBox="0 0 18 18" style="enable-background:new 0 0 18 18;" xml:space="preserve">
<path id="add-neighbor.default" style="&st2;" d="M11.659,2.523l0.381-0.925c-0.319-0.132-0.653-0.244-0.991-0.333l-0.256,0.967
	C11.09,2.31,11.38,2.408,11.659,2.523z M9.021,2L8.982,2L9,1c0.347,0,0.688,0.022,1.023,0.065L9.896,2.057
	C9.604,2.019,9.304,2,9.021,2z M15.755,7.158l0.965-0.262c0.091,0.333,0.161,0.678,0.208,1.023l-0.99,0.136
	C15.896,7.748,15.834,7.45,15.755,7.158z M15.05,5.476l0.863-0.504c0.176,0.301,0.333,0.616,0.467,0.935l-0.922,0.387
	C15.34,6.011,15.203,5.738,15.05,5.476z M6.914,1.275C7.249,1.185,7.594,1.116,7.94,1.07L8.07,2.06
	C7.765,2.102,7.466,2.162,7.174,2.24L6.914,1.275z M13.932,4.033l0.705-0.709c0.247,0.246,0.479,0.509,0.691,0.783l-0.791,0.612
	C14.351,4.477,14.148,4.248,13.932,4.033z M2,8.979l0.001,0.093L1,9c0-0.35,0.023-0.7,0.067-1.043l0.992,0.13
	C2.021,8.387,2,8.691,2,8.979z M4.989,2.077c0.3-0.175,0.615-0.331,0.935-0.464L6.31,2.536C6.027,2.654,5.754,2.79,5.491,2.942
	L4.989,2.077z M2.934,5.504l-0.865-0.5c0.174-0.302,0.369-0.593,0.58-0.869l0.793,0.608C3.257,4.985,3.087,5.239,2.934,5.504z
	 M3.337,3.349c0.244-0.245,0.508-0.476,0.784-0.69l0.611,0.792C4.49,3.637,4.261,3.839,4.046,4.055L3.337,3.349z M2.236,7.19
	L1.269,6.933c0.09-0.335,0.202-0.668,0.336-0.991l0.924,0.382C2.414,6.603,2.315,6.894,2.236,7.19z M11.124,16.715
	c-0.336,0.092-0.68,0.163-1.023,0.21l-0.137-0.99c0.306-0.042,0.604-0.104,0.896-0.184L11.124,16.715z M13.045,15.903
	c-0.3,0.177-0.614,0.335-0.934,0.469l-0.389-0.921c0.282-0.12,0.555-0.257,0.816-0.411L13.045,15.903z M9,16v1
	c-0.333,0-0.661-0.021-0.983-0.06l0.121-0.992C8.421,15.982,8.708,16,9,16z M2.254,10.875l-0.963,0.269
	c-0.092-0.329-0.163-0.673-0.214-1.022l0.99-0.143C2.111,10.285,2.173,10.583,2.254,10.875z M2.968,12.554l-0.861,0.508
	c-0.176-0.298-0.334-0.611-0.471-0.931l0.92-0.393C2.676,12.02,2.813,12.292,2.968,12.554z M15.082,12.467l0.869,0.495
	c-0.172,0.301-0.365,0.594-0.576,0.873l-0.797-0.605C14.763,12.987,14.931,12.732,15.082,12.467z M15.773,10.777l0.967,0.252
	c-0.088,0.338-0.199,0.673-0.33,0.994l-0.926-0.379C15.6,11.365,15.695,11.075,15.773,10.777z M14.69,14.623
	c-0.244,0.248-0.505,0.479-0.778,0.693l-0.617-0.787c0.24-0.188,0.47-0.391,0.685-0.608L14.69,14.623z M16,9V8.964L17,9
	c0,0.34-0.021,0.675-0.062,1.004l-0.992-0.125C15.981,9.591,16,9.298,16,9z M12.979,2.059c0.302,0.173,0.594,0.368,0.87,0.579
	l-0.607,0.794c-0.241-0.184-0.496-0.354-0.761-0.506L12.979,2.059z M8,13v-3H5V8h3V5h2v3h3v2h-3v3H8z M4,12h2v3h2l-3,3l-3-3h2V12z"
	/>
</svg>
