<?xml version="1.0" encoding="utf-8"?>
<!-- Generator: Adobe Illustrator 23.0.1, SVG Export Plug-In . SVG Version: 6.00 Build 0)  -->
<!DOCTYPE svg PUBLIC "-//W3C//DTD SVG 1.1//EN" "http://www.w3.org/Graphics/SVG/1.1/DTD/svg11.dtd" [
	<!ENTITY st0 "fill:#DDE0E5;">
	<!ENTITY st1 "fill:#F8F9FB;">
	<!ENTITY st2 "fill:none;stroke:#F7931E;stroke-width:2;stroke-miterlimit:10;">
]>
<svg version="1.1" id="Layer_1" xmlns="http://www.w3.org/2000/svg" xmlns:xlink="http://www.w3.org/1999/xlink" x="0px" y="0px"
	 width="800px" height="180px" viewBox="0 0 800 180" style="enable-background:new 0 0 800 180;" xml:space="preserve">
<g>
	<rect x="175.5804596" y="62.20755" style="&st0;" width="182.3246918" height="28"/>
</g>
<rect x="175.5804596" y="116.0313873" style="&st1;" width="182.3246918" height="24"/>
<g>
	<rect x="175.5804596" y="139.1246948" style="&st0;" width="182.3246918" height="1"/>
</g>
<g>
	<rect x="175.5804596" y="116.0313873" style="&st0;" width="182.3246918" height="1"/>
</g>
<g>
	<g>
		<rect x="175.5804596" y="89.2348785" style="&st0;" width="1" height="50.8898163"/>
	</g>
</g>
<g>
	<g>
		<rect x="356.9051514" y="89.2348785" style="&st0;" width="1" height="50.8898163"/>
	</g>
</g>
<g>
	<path d="M193.3124847,71.3149567h6.5136719v9.1884766h-1.1621094v-8.2080078h-4.1894531v8.2080078h-1.1621094V71.3149567z"/>
	<path d="M201.7265472,77.1137848c0-2.2275391,1.4980469-3.5859375,3.0527344-3.5859375
		c1.7373047,0,2.7177734,1.2460938,2.7177734,3.1933594c0,0.2382812-0.0146484,0.4902344-0.0419922,0.6582031h-4.5947266
		c0.0839844,1.4433594,0.9667969,2.3671875,2.2695312,2.3671875c0.6435547,0,1.1904297-0.2099609,1.6943359-0.5322266
		l0.40625,0.7568359c-0.5878906,0.3779297-1.3164062,0.7001953-2.2402344,0.7001953
		C203.1679535,80.671402,201.7265472,79.3403473,201.7265472,77.1137848z M206.488266,76.5532379
		c0-1.3730469-0.6162109-2.1152344-1.6806641-2.1152344c-0.9521484,0-1.8212891,0.7705078-1.9609375,2.1152344H206.488266z"/>
	<path d="M209.1738129,73.695816h0.953125l0.0976562,0.7841797h0.0419922
		c0.6162109-0.5185547,1.3720703-0.9521484,2.1708984-0.9521484c1.7519531,0,2.6894531,1.3583984,2.6894531,3.4736328
		c0,2.3115234-1.3867188,3.6699219-2.9414062,3.6699219c-0.6308594,0-1.2607422-0.2939453-1.890625-0.7841797l0.0273438,1.1904297
		v2.296875h-1.1484375V73.695816z M213.9365082,77.0014801c0-1.4990234-0.5048828-2.5068359-1.7929688-2.5068359
		c-0.5742188,0-1.1484375,0.3212891-1.8212891,0.9238281v3.5722656c0.6171875,0.5185547,1.21875,0.7138672,1.6679688,0.7138672
		C213.1103363,79.7046051,213.9365082,78.6821442,213.9365082,77.0014801z"/>
	<path d="M216.4394379,77.1137848c0-2.2832031,1.5273438-3.5859375,3.2773438-3.5859375
		c0.8964844,0,1.5136719,0.3642578,1.9902344,0.7978516l-0.5888672,0.7568359
		c-0.3916016-0.3505859-0.8125-0.6025391-1.3583984-0.6025391c-1.2324219,0-2.1289062,1.0644531-2.1289062,2.6337891
		c0,1.5546875,0.8535156,2.6054688,2.1005859,2.6054688c0.6298828,0,1.1767578-0.3085938,1.5966797-0.6865234l0.5039062,0.7705078
		c-0.6152344,0.5458984-1.3867188,0.8681641-2.1992188,0.8681641
		C217.8261566,80.671402,216.4394379,79.3686676,216.4394379,77.1137848z"/>
	<path d="M222.5292816,77.1137848c0-2.2832031,1.484375-3.5859375,3.1523438-3.5859375
		c1.6660156,0,3.1513672,1.3027344,3.1513672,3.5859375c0,2.2548828-1.4853516,3.5576172-3.1513672,3.5576172
		C224.0136566,80.671402,222.5292816,79.3686676,222.5292816,77.1137848z M227.6425629,77.1137848
		c0-1.5693359-0.7851562-2.6337891-1.9609375-2.6337891c-1.1630859,0-1.9609375,1.0644531-1.9609375,2.6337891
		c0,1.5546875,0.7978516,2.6054688,1.9609375,2.6054688C226.8574066,79.7192535,227.6425629,78.6684723,227.6425629,77.1137848z"/>
	<path d="M230.6210785,73.695816h1.1494141v2.7597656h3.2783203V73.695816h1.1484375v6.8076172h-1.1484375v-3.0253906h-3.2783203
		v3.0253906h-1.1494141V73.695816z"/>
	<path d="M238.0702972,78.7387848c0-1.4853516,1.2734375-2.2275391,4.1738281-2.5498047
		c0-0.8681641-0.2802734-1.7089844-1.4003906-1.7089844c-0.7851562,0-1.5,0.3642578-2.03125,0.7285156l-0.4492188-0.7988281
		c0.6308594-0.4052734,1.5839844-0.8818359,2.6757812-0.8818359c1.6669922,0,2.3671875,1.1064453,2.3671875,2.8017578v4.1738281
		h-0.9521484l-0.0986328-0.8125h-0.0410156c-0.6445312,0.5322266-1.4013672,0.9804688-2.2558594,0.9804688
		C238.9238129,80.671402,238.0702972,79.9575348,238.0702972,78.7387848z M242.2441254,78.836441v-1.890625
		c-2.2695312,0.2802734-3.0537109,0.8398438-3.0537109,1.7089844c0,0.7705078,0.5322266,1.0917969,1.2041016,1.0917969
		C241.0527191,79.7465973,241.5859222,79.4253082,242.2441254,78.836441z"/>
</g>
<g>
	<path d="M177.7431488,35.5005035h5.5332031v1.3730469h-3.9082031v7.7880859h-1.625V35.5005035z"/>
	<path d="M182.3212738,44.6899567l0.2802734-1.4570312c0.0976562,0.0283203,0.1953125,0.0556641,0.3359375,0.0556641
		c0.4199219,0,0.7148438-0.3642578,0.8261719-1.2324219c0.1816406-1.4287109,0.3359375-2.84375,0.4902344-4.2724609h4.6640625
		v6.8779297h-1.6103516v-5.6025391h-1.7646484c-0.140625,1.1337891-0.2802734,2.296875-0.4199219,3.4316406
		c-0.2109375,1.5263672-0.8964844,2.3388672-2.0742188,2.3388672
		C182.7558441,44.8296051,182.5449066,44.7876129,182.3212738,44.6899567z"/>
	<path d="M190.5956879,42.8130035c0-1.4707031,1.21875-2.2412109,4.0478516-2.5498047
		c-0.0283203-0.7285156-0.3222656-1.3447266-1.2607422-1.3447266c-0.671875,0-1.3164062,0.3085938-1.9335938,0.6728516
		l-0.5878906-1.0791016c0.7568359-0.4765625,1.7373047-0.8964844,2.8300781-0.8964844
		c1.7089844,0,2.5625,1.0507812,2.5625,2.9697266v4.0761719h-1.3300781l-0.1123047-0.7568359h-0.0556641
		c-0.6171875,0.5185547-1.3164062,0.9248047-2.1289062,0.9248047
		C191.4218597,44.8296051,190.5956879,44.0171051,190.5956879,42.8130035z M194.6435394,42.8130035v-1.5410156
		c-1.8769531,0.2382812-2.4931641,0.7285156-2.4931641,1.4150391c0,0.6162109,0.4199219,0.8818359,0.9941406,0.8818359
		C193.7050629,43.5688629,194.1249847,43.2885895,194.6435394,42.8130035z"/>
	<path d="M198.1835785,37.7837067h2.7871094c1.5273438,0,2.6621094,0.4628906,2.6621094,1.7792969
		c0,0.671875-0.3925781,1.21875-1.1484375,1.4423828v0.0566406c0.8125,0.1953125,1.4277344,0.671875,1.4277344,1.625
		c0,1.3867188-1.2177734,1.9746094-2.8007812,1.9746094h-2.9277344V37.7837067z M200.816391,40.5717926
		c0.8964844,0,1.2617188-0.3222656,1.2617188-0.8408203c0-0.5322266-0.3505859-0.8544922-1.21875-0.8544922h-1.0927734v1.6953125
		H200.816391z M200.9990082,43.5688629c0.9248047,0,1.3310547-0.3779297,1.3310547-0.9804688
		c0-0.5605469-0.4482422-0.9248047-1.3867188-0.9248047h-1.1767578v1.9052734H200.9990082z"/>
	<path d="M205.4355316,37.7837067h1.6113281v2.6337891h2.7451172v-2.6337891h1.6103516v6.8779297h-1.6103516v-2.8291016h-2.7451172
		v2.8291016h-1.6113281V37.7837067z"/>
	<path d="M213.0790863,42.8130035c0-1.4707031,1.21875-2.2412109,4.0478516-2.5498047
		c-0.0273438-0.7285156-0.3222656-1.3447266-1.2597656-1.3447266c-0.6728516,0-1.3173828,0.3085938-1.9335938,0.6728516
		l-0.5878906-1.0791016c0.7558594-0.4765625,1.7363281-0.8964844,2.8291016-0.8964844
		c1.7089844,0,2.5634766,1.0507812,2.5634766,2.9697266v4.0761719h-1.3300781l-0.1132812-0.7568359h-0.0556641
		c-0.6162109,0.5185547-1.3164062,0.9248047-2.1289062,0.9248047
		C213.9062347,44.8296051,213.0790863,44.0171051,213.0790863,42.8130035z M217.1269379,42.8130035v-1.5410156
		c-1.8769531,0.2382812-2.4921875,0.7285156-2.4921875,1.4150391c0,0.6162109,0.4199219,0.8818359,0.9941406,0.8818359
		C216.1894379,43.5688629,216.6093597,43.2885895,217.1269379,42.8130035z"/>
	<path d="M224.4208832,42.195816h-1.0087891h-0.0273438l-1.6113281,2.4658203h-1.8066406l1.9472656-2.7451172
		c-0.7705078-0.3369141-1.359375-0.953125-1.359375-1.9755859c0-1.6103516,1.21875-2.1572266,2.7880859-2.1572266h2.6894531
		v6.8779297h-1.6113281V42.195816z M224.4208832,41.062027v-2.0732422h-0.8544922
		c-0.8964844,0-1.4140625,0.3076172-1.4140625,0.9941406c0,0.6728516,0.5175781,1.0791016,1.4140625,1.0791016H224.4208832z"/>
	<path d="M232.3857269,39.0590973h-2.1572266v-1.2753906h5.9394531v1.2753906h-2.1572266v5.6025391h-1.625V39.0590973z"/>
	<path d="M236.8925629,42.8130035c0-1.4707031,1.21875-2.2412109,4.0488281-2.5498047
		c-0.0283203-0.7285156-0.3222656-1.3447266-1.2617188-1.3447266c-0.671875,0-1.3164062,0.3085938-1.9326172,0.6728516
		l-0.5888672-1.0791016c0.7568359-0.4765625,1.7382812-0.8964844,2.8300781-0.8964844
		c1.7089844,0,2.5634766,1.0507812,2.5634766,2.9697266v4.0761719h-1.3310547l-0.1113281-0.7568359h-0.0566406
		c-0.6162109,0.5185547-1.3164062,0.9248047-2.1289062,0.9248047
		C237.7187347,44.8296051,236.8925629,44.0171051,236.8925629,42.8130035z M240.941391,42.8130035v-1.5410156
		c-1.8769531,0.2382812-2.4941406,0.7285156-2.4941406,1.4150391c0,0.6162109,0.4199219,0.8818359,0.9941406,0.8818359
		C240.0019379,43.5688629,240.4228363,43.2885895,240.941391,42.8130035z"/>
	<path d="M244.1308441,40.4311676c0-4.3984375,1.7363281-5.2246094,4.3144531-5.6025391
		c0.8125-0.1123047,1.1201172-0.1962891,1.5400391-0.3925781l0.3222656,1.4287109
		c-0.3642578,0.2519531-0.9248047,0.3925781-1.5263672,0.4765625c-2.0732422,0.2939453-2.84375,0.4199219-3.0546875,2.7314453
		c0.546875-0.6582031,1.3320312-0.9951172,2.1445312-0.9951172c1.5400391,0,2.703125,1.1494141,2.703125,3.2080078
		c0,2.1435547-1.359375,3.5439453-3.1240234,3.5439453C245.3349457,44.8296051,244.1308441,43.2192535,244.1308441,40.4311676z
		 M248.9208832,41.2856598c0-1.3300781-0.5458984-1.9892578-1.4990234-1.9892578c-0.5742188,0-1.2050781,0.2529297-1.75,1.0224609
		c0,0.1542969,0,0.3085938,0,0.4628906c0,1.7783203,0.6152344,2.7314453,1.7636719,2.7314453
		C248.332016,43.5131989,248.9208832,42.6303864,248.9208832,41.2856598z"/>
	<path d="M251.1718597,44.6899567l0.2792969-1.4570312c0.0986328,0.0283203,0.1972656,0.0556641,0.3369141,0.0556641
		c0.4199219,0,0.7138672-0.3642578,0.8261719-1.2324219c0.1826172-1.4287109,0.3369141-2.84375,0.4902344-4.2724609h4.6650543
		v6.8779297h-1.6113281v-5.6025391h-1.7646637c-0.1396484,1.1337891-0.2802734,2.296875-0.4208984,3.4316406
		c-0.2089844,1.5263672-0.8964844,2.3388672-2.0722656,2.3388672
		C251.6054535,44.8296051,251.3954926,44.7876129,251.1718597,44.6899567z"/>
	<path d="M259.8105469,37.7837067h1.5683594v2.3671875c0,0.7148438-0.0839844,1.625-0.140625,2.4941406h0.0429688
		c0.2382812-0.4208984,0.6298828-1.0507812,0.8535156-1.4570312l2.1855469-3.4042969h1.484375v6.8779297h-1.5683594v-2.3671875
		c0-0.7148438,0.0839844-1.625,0.1542969-2.4931641h-0.0566406c-0.2373047,0.4199219-0.6152344,1.0507812-0.8535156,1.4560547
		l-2.1855469,3.4042969h-1.484375V37.7837067z"/>
	<path d="M267.8457031,37.7837067h1.6113281v5.5888672h2.5488281v-5.5888672h1.6113281v5.5888672h1.0507812v1.0507812
		L274.5,47.070816h-1.3867188v-2.4091797h-5.2675781V37.7837067z"/>
	<path d="M275.6152344,42.8130035c0-1.4707031,1.21875-2.2412109,4.0488281-2.5498047
		c-0.0283203-0.7285156-0.3222656-1.3447266-1.2617188-1.3447266c-0.671875,0-1.3164062,0.3085938-1.9326172,0.6728516
		l-0.5888672-1.0791016c0.7568359-0.4765625,1.7382812-0.8964844,2.8300781-0.8964844
		c1.7089844,0,2.5634766,1.0507812,2.5634766,2.9697266v4.0761719h-1.3310547l-0.1113281-0.7568359h-0.0566406
		c-0.6162109,0.5185547-1.3164062,0.9248047-2.1289062,0.9248047
		C276.4414062,44.8296051,275.6152344,44.0171051,275.6152344,42.8130035z M279.6640625,42.8130035v-1.5410156
		c-1.8769531,0.2382812-2.4941406,0.7285156-2.4941406,1.4150391c0,0.6162109,0.4199219,0.8818359,0.9941406,0.8818359
		C278.7246094,43.5688629,279.1455078,43.2885895,279.6640625,42.8130035z"/>
</g>
<g>
	<path d="M443.2578125,35.5005035h6.8359375v9.1611328h-1.625v-7.7880859h-3.5859375v7.7880859h-1.625V35.5005035z"/>
	<path d="M452.2734375,37.7837067h1.3310547l0.1123047,0.7285156h0.0556641
		c0.5742188-0.4902344,1.3164062-0.8964844,2.0732422-0.8964844c1.7089844,0,2.703125,1.3730469,2.703125,3.5019531
		c0,2.3535156-1.4140625,3.7119141-2.9414062,3.7119141c-0.6025391,0-1.2050781-0.2802734-1.765625-0.7558594l0.0429688,1.1484375
		v2.1572266h-1.6113281V37.7837067z M456.8818359,41.1313629c0-1.3720703-0.4482422-2.1845703-1.484375-2.1845703
		c-0.5048828,0-0.9814453,0.2519531-1.5126953,0.7705078v3.2070312c0.5039062,0.4208984,0.9804688,0.5742188,1.3867188,0.5742188
		C456.1816406,43.4985504,456.8818359,42.687027,456.8818359,41.1313629z"/>
	<path d="M460.1699219,37.7837067h1.5683594v2.3671875c0,0.7148438-0.0839844,1.625-0.140625,2.4941406h0.0429688
		c0.2382812-0.4208984,0.6298828-1.0507812,0.8535156-1.4570312l2.1855469-3.4042969h1.484375v6.8779297h-1.5683594v-2.3671875
		c0-0.7148438,0.0839844-1.625,0.1542969-2.4931641h-0.0566406c-0.2373047,0.4199219-0.6152344,1.0507812-0.8535156,1.4560547
		l-2.1855469,3.4042969h-1.484375V37.7837067z"/>
	<path d="M467.7568359,41.2299957c0-2.2978516,1.6103516-3.6142578,3.4462891-3.6142578
		c0.8828125,0,1.5126953,0.3359375,2.0166016,0.7705078l-0.7841797,1.0507812
		c-0.3642578-0.3222656-0.7148438-0.5048828-1.1484375-0.5048828c-1.1074219,0-1.8769531,0.9111328-1.8769531,2.2978516
		c0,1.3720703,0.7558594,2.2832031,1.8339844,2.2832031c0.5332031,0,1.0234375-0.2666016,1.4160156-0.5888672l0.6582031,1.0644531
		c-0.6445312,0.5605469-1.4570312,0.8408203-2.2421875,0.8408203
		C469.1992188,44.8296051,467.7568359,43.5131989,467.7568359,41.2299957z"/>
	<path d="M473.8886719,41.2299957c0-2.2978516,1.5546875-3.6142578,3.2636719-3.6142578
		c1.7226562,0,3.2773438,1.3164062,3.2773438,3.6142578c0,2.2832031-1.5546875,3.5996094-3.2773438,3.5996094
		C475.4433594,44.8296051,473.8886719,43.5131989,473.8886719,41.2299957z M478.7773438,41.2299957
		c0-1.3867188-0.6162109-2.2978516-1.625-2.2978516c-1.0078125,0-1.6113281,0.9111328-1.6113281,2.2978516
		c0,1.3720703,0.6035156,2.2832031,1.6113281,2.2832031C478.1611328,43.5131989,478.7773438,42.602066,478.7773438,41.2299957z"/>
	<path d="M481.5742188,41.2299957c0-2.2412109,1.5556641-3.6142578,3.1660156-3.6142578
		c1.8632812,0,2.84375,1.3447266,2.84375,3.2636719c0,0.3085938-0.0273438,0.6162109-0.0703125,0.7841797h-4.3701172
		c0.1396484,1.21875,0.9248047,1.9199219,2.03125,1.9199219c0.5888672,0,1.0927734-0.1826172,1.5966797-0.5048828
		l0.546875,1.0087891c-0.6582031,0.4345703-1.4853516,0.7421875-2.3535156,0.7421875
		C483.0595703,44.8296051,481.5742188,43.4985504,481.5742188,41.2299957z M486.1835938,40.5717926
		c0-1.0654297-0.4628906-1.7089844-1.4003906-1.7089844c-0.8125,0-1.5136719,0.6015625-1.6533203,1.7089844H486.1835938z"/>
	<path d="M489.8632812,47.070816h-1.4003906l-0.1542969-2.6474609v-1.0507812h0.3925781
		c0.3496094-0.1816406,0.6298828-0.6298828,0.8818359-2.703125l0.3359375-2.8857422h4.7207031v5.5888672h1.0507812v1.0507812
		l-0.1689453,2.6474609h-1.3867188v-2.4091797h-4.2714844V47.070816z M490.3251953,43.3725739h2.7041016v-4.3134766h-1.8359375
		l-0.2089844,1.9609375C490.8574219,42.0981598,490.6328125,42.8549957,490.3251953,43.3725739z"/>
	<path d="M496.9326172,37.7837067h1.5693359v2.3671875c0,0.7148438-0.0839844,1.625-0.140625,2.4941406h0.0419922
		c0.2382812-0.4208984,0.6298828-1.0507812,0.8544922-1.4570312l2.1855469-3.4042969h1.484375v6.8779297h-1.5683594v-2.3671875
		c0-0.7148438,0.0839844-1.625,0.1542969-2.4931641h-0.0566406c-0.2382812,0.4199219-0.6162109,1.0507812-0.8544922,1.4560547
		l-2.1845703,3.4042969h-1.4853516V37.7837067z"/>
	<path d="M504.96875,37.7837067h1.6103516v2.6337891h2.7451172v-2.6337891h1.6113281v6.8779297h-1.6113281v-2.8291016h-2.7451172
		v2.8291016H504.96875V37.7837067z"/>
	<path d="M516.7304688,42.195816h-1.0087891h-0.0283203l-1.6103516,2.4658203h-1.8076172l1.9472656-2.7451172
		c-0.7695312-0.3369141-1.3583984-0.953125-1.3583984-1.9755859c0-1.6103516,1.21875-2.1572266,2.7871094-2.1572266h2.6894531
		v6.8779297h-1.6103516V42.195816z M516.7304688,41.062027v-2.0732422h-0.8544922
		c-0.8964844,0-1.4150391,0.3076172-1.4150391,0.9941406c0,0.6728516,0.5185547,1.0791016,1.4150391,1.0791016H516.7304688z"/>
	<path d="M519.9472656,41.2299957c0-2.2412109,1.5556641-3.6142578,3.1660156-3.6142578
		c1.8632812,0,2.84375,1.3447266,2.84375,3.2636719c0,0.3085938-0.0273438,0.6162109-0.0703125,0.7841797h-4.3701172
		c0.1396484,1.21875,0.9248047,1.9199219,2.03125,1.9199219c0.5888672,0,1.0927734-0.1826172,1.5966797-0.5048828
		l0.546875,1.0087891c-0.6582031,0.4345703-1.4853516,0.7421875-2.3535156,0.7421875
		C521.4326172,44.8296051,519.9472656,43.4985504,519.9472656,41.2299957z M524.5566406,40.5717926
		c0-1.0654297-0.4628906-1.7089844-1.4003906-1.7089844c-0.8125,0-1.5136719,0.6015625-1.6533203,1.7089844H524.5566406z"/>
	<path d="M527.4941406,37.7837067h1.8486328l1.1064453,2.7734375c0.1962891,0.5742188,0.3789062,1.0927734,0.546875,1.6113281
		h0.0556641c0.1826172-0.5185547,0.3916016-1.0371094,0.5595703-1.6113281l1.0507812-2.7734375h1.8496094v6.8779297h-1.4570312
		v-2.4091797c0-0.6728516,0.1123047-1.9335938,0.1816406-2.6757812h-0.0556641
		c-0.1962891,0.5742188-0.4619141,1.2324219-0.6582031,1.7792969l-1.0361328,2.6894531h-0.953125l-1.0644531-2.6894531
		c-0.1962891-0.546875-0.4628906-1.21875-0.6582031-1.7792969h-0.0566406
		c0.0566406,0.7421875,0.1679688,2.0029297,0.1679688,2.6757812v2.4091797h-1.4277344V37.7837067z"/>
	<path d="M536.1875,42.8130035c0-1.4707031,1.21875-2.2412109,4.0478516-2.5498047
		c-0.0283203-0.7285156-0.3222656-1.3447266-1.2607422-1.3447266c-0.671875,0-1.3164062,0.3085938-1.9335938,0.6728516
		l-0.5878906-1.0791016c0.7568359-0.4765625,1.7373047-0.8964844,2.8300781-0.8964844
		c1.7089844,0,2.5625,1.0507812,2.5625,2.9697266v4.0761719h-1.3300781l-0.1123047-0.7568359h-0.0556641
		c-0.6171875,0.5185547-1.3164062,0.9248047-2.1289062,0.9248047C537.0136719,44.8296051,536.1875,44.0171051,536.1875,42.8130035z
		 M540.2353516,42.8130035v-1.5410156c-1.8769531,0.2382812-2.4931641,0.7285156-2.4931641,1.4150391
		c0,0.6162109,0.4199219,0.8818359,0.9941406,0.8818359C539.296875,43.5688629,539.7167969,43.2885895,540.2353516,42.8130035z"/>
	<path d="M547.5292969,42.195816h-1.0078125h-0.0283203l-1.6113281,2.4658203h-1.8066406l1.9462891-2.7451172
		c-0.7695312-0.3369141-1.3574219-0.953125-1.3574219-1.9755859c0-1.6103516,1.2177734-2.1572266,2.7871094-2.1572266h2.6894531
		v6.8779297h-1.6113281V42.195816z M547.5292969,41.062027v-2.0732422h-0.8544922
		c-0.8964844,0-1.4150391,0.3076172-1.4150391,0.9941406c0,0.6728516,0.5185547,1.0791016,1.4150391,1.0791016H547.5292969z"/>
	<path d="M555.4941406,39.0590973h-2.1572266v-1.2753906h5.9384766v1.2753906h-2.15625v5.6025391h-1.625V39.0590973z"/>
	<path d="M560.0009766,42.8130035c0-1.4707031,1.21875-2.2412109,4.0478516-2.5498047
		c-0.0273438-0.7285156-0.3222656-1.3447266-1.2597656-1.3447266c-0.6728516,0-1.3173828,0.3085938-1.9335938,0.6728516
		l-0.5878906-1.0791016c0.7558594-0.4765625,1.7363281-0.8964844,2.8291016-0.8964844
		c1.7089844,0,2.5634766,1.0507812,2.5634766,2.9697266v4.0761719h-1.3300781l-0.1132812-0.7568359h-0.0556641
		c-0.6162109,0.5185547-1.3164062,0.9248047-2.1289062,0.9248047
		C560.828125,44.8296051,560.0009766,44.0171051,560.0009766,42.8130035z M564.0488281,42.8130035v-1.5410156
		c-1.8769531,0.2382812-2.4921875,0.7285156-2.4921875,1.4150391c0,0.6162109,0.4199219,0.8818359,0.9941406,0.8818359
		C563.1113281,43.5688629,563.53125,43.2885895,564.0488281,42.8130035z"/>
	<path d="M567.2382812,40.4311676c0-4.3984375,1.7373047-5.2246094,4.3144531-5.6025391
		c0.8125-0.1123047,1.1210938-0.1962891,1.5410156-0.3925781l0.3222656,1.4287109
		c-0.3642578,0.2519531-0.9238281,0.3925781-1.5273438,0.4765625c-2.0722656,0.2939453-2.8427734,0.4199219-3.0527344,2.7314453
		c0.5458984-0.6582031,1.3300781-0.9951172,2.1425781-0.9951172c1.5410156,0,2.703125,1.1494141,2.703125,3.2080078
		c0,2.1435547-1.3574219,3.5439453-3.1230469,3.5439453C568.4433594,44.8296051,567.2382812,43.2192535,567.2382812,40.4311676z
		 M572.0292969,41.2856598c0-1.3300781-0.546875-1.9892578-1.4980469-1.9892578
		c-0.5751953,0-1.2050781,0.2529297-1.7519531,1.0224609c0,0.1542969,0,0.3085938,0,0.4628906
		c0,1.7783203,0.6171875,2.7314453,1.765625,2.7314453C571.4414062,43.5131989,572.0292969,42.6303864,572.0292969,41.2856598z"/>
	<path d="M574.2802734,44.6899567l0.2802734-1.4570312c0.0976562,0.0283203,0.1962891,0.0556641,0.3359375,0.0556641
		c0.4199219,0,0.7148438-0.3642578,0.8261719-1.2324219c0.1826172-1.4287109,0.3369141-2.84375,0.4902344-4.2724609h4.6650391
		v6.8779297h-1.6103516v-5.6025391h-1.765625c-0.1396484,1.1337891-0.2792969,2.296875-0.4199219,3.4316406
		c-0.2099609,1.5263672-0.8964844,2.3388672-2.0732422,2.3388672
		C574.7148438,44.8296051,574.5048828,44.7876129,574.2802734,44.6899567z"/>
	<path d="M582.9189453,37.7837067h1.5693359v2.3671875c0,0.7148438-0.0839844,1.625-0.140625,2.4941406h0.0419922
		c0.2382812-0.4208984,0.6298828-1.0507812,0.8544922-1.4570312l2.1855469-3.4042969h1.484375v6.8779297h-1.5683594v-2.3671875
		c0-0.7148438,0.0839844-1.625,0.1542969-2.4931641h-0.0566406c-0.2382812,0.4199219-0.6162109,1.0507812-0.8544922,1.4560547
		l-2.1845703,3.4042969h-1.4853516V37.7837067z"/>
	<path d="M590.9550781,37.7837067h1.6103516v5.5888672h2.5498047v-5.5888672h1.6103516v5.5888672h1.0507812v1.0507812
		l-0.1679688,2.6474609h-1.3867188v-2.4091797h-5.2666016V37.7837067z"/>
	<path d="M598.7246094,42.8130035c0-1.4707031,1.21875-2.2412109,4.0478516-2.5498047
		c-0.0283203-0.7285156-0.3222656-1.3447266-1.2607422-1.3447266c-0.671875,0-1.3164062,0.3085938-1.9335938,0.6728516
		l-0.5878906-1.0791016c0.7568359-0.4765625,1.7373047-0.8964844,2.8300781-0.8964844
		c1.7089844,0,2.5625,1.0507812,2.5625,2.9697266v4.0761719h-1.3300781l-0.1123047-0.7568359h-0.0556641
		c-0.6171875,0.5185547-1.3164062,0.9248047-2.1289062,0.9248047
		C599.5507812,44.8296051,598.7246094,44.0171051,598.7246094,42.8130035z M602.7724609,42.8130035v-1.5410156
		c-1.8769531,0.2382812-2.4931641,0.7285156-2.4931641,1.4150391c0,0.6162109,0.4199219,0.8818359,0.9941406,0.8818359
		C601.8339844,43.5688629,602.2539062,43.2885895,602.7724609,42.8130035z"/>
</g>
<g>
	<path d="M192.9902191,97.2251129c0-0.4482422,0.3496094-0.7421875,0.7988281-0.7421875
		c0.4472656,0,0.7978516,0.2939453,0.7978516,0.7421875c0,0.4345703-0.3505859,0.7431641-0.7978516,0.7431641
		C193.3398285,97.968277,192.9902191,97.6596832,192.9902191,97.2251129z M193.2001801,99.3686676h1.1494141v6.8076172h-1.1494141
		V99.3686676z"/>
	<path d="M196.1542816,102.7866364c0-2.2128906,1.4003906-3.5859375,2.9550781-3.5859375
		c0.7851562,0,1.3027344,0.2939453,1.9052734,0.7841797l-0.0556641-1.1621094V96.202652h1.1621094v9.9736328h-0.953125
		l-0.0976562-0.7988281h-0.0410156c-0.5332031,0.5185547-1.2617188,0.9667969-2.0605469,0.9667969
		C197.2607269,106.3442535,196.1542816,105.0561676,196.1542816,102.7866364z M200.9589691,104.4389801v-3.5576172
		c-0.5742188-0.5185547-1.09375-0.7138672-1.6533203-0.7138672c-1.0927734,0-1.9609375,1.0498047-1.9609375,2.6044922
		c0,1.625,0.6865234,2.6054688,1.8769531,2.6054688C199.8515472,105.3774567,200.3984222,105.0698395,200.9589691,104.4389801z"/>
	<path d="M207.2138519,99.3686676h4.2451172v0.9384766h-3.0957031v5.8691406h-1.1494141V99.3686676z"/>
	<path d="M211.8613129,102.7866364c0-2.2832031,1.484375-3.5859375,3.1523438-3.5859375
		c1.6660156,0,3.1513672,1.3027344,3.1513672,3.5859375c0,2.2548828-1.4853516,3.5576172-3.1513672,3.5576172
		C213.3456879,106.3442535,211.8613129,105.0415192,211.8613129,102.7866364z M216.9745941,102.7866364
		c0-1.5693359-0.7851562-2.6337891-1.9609375-2.6337891c-1.1630859,0-1.9609375,1.0644531-1.9609375,2.6337891
		c0,1.5546875,0.7978516,2.6054688,1.9609375,2.6054688C216.1894379,105.3921051,216.9745941,104.3413239,216.9745941,102.7866364z"
		/>
	<path d="M219.9531097,99.3686676h0.953125l0.0976562,0.7841797h0.0429688
		c0.6152344-0.5185547,1.3720703-0.9521484,2.1708984-0.9521484c1.7509766,0,2.6894531,1.3583984,2.6894531,3.4736328
		c0,2.3115234-1.3876953,3.6699219-2.9423828,3.6699219c-0.6298828,0-1.2597656-0.2939453-1.890625-0.7841797l0.0283203,1.1904297
		v2.296875h-1.1494141V99.3686676z M224.7167816,102.6743317c0-1.4990234-0.5048828-2.5068359-1.7929688-2.5068359
		c-0.5742188,0-1.1484375,0.3212891-1.8212891,0.9238281v3.5722656c0.6162109,0.5185547,1.21875,0.7138672,1.6669922,0.7138672
		C223.8906097,105.3774567,224.7167816,104.3549957,224.7167816,102.6743317z"/>
	<path d="M227.2197113,102.7866364c0-2.2832031,1.4853516-3.5859375,3.1513672-3.5859375
		c1.6669922,0,3.1523438,1.3027344,3.1523438,3.5859375c0,2.2548828-1.4853516,3.5576172-3.1523438,3.5576172
		C228.7050629,106.3442535,227.2197113,105.0415192,227.2197113,102.7866364z M232.332016,102.7866364
		c0-1.5693359-0.7841797-2.6337891-1.9609375-2.6337891c-1.1621094,0-1.9609375,1.0644531-1.9609375,2.6337891
		c0,1.5546875,0.7988281,2.6054688,1.9609375,2.6054688C231.5478363,105.3921051,232.332016,104.3413239,232.332016,102.7866364z"/>
	<path d="M235.5497894,108.5854645h-0.9951172l-0.125-2.6191406v-0.7285156h0.3359375
		c0.3779297-0.2099609,0.6855469-0.6582031,0.9521484-2.8574219l0.3642578-3.0117188h4.2304688v5.8691406h0.9941406v0.7285156
		l-0.1113281,2.6191406h-0.9951172v-2.4091797h-4.6503906V108.5854645z M235.9980316,105.2378082h3.1660156v-4.9306641h-2.171875
		l-0.265625,2.296875C236.5722504,103.9487457,236.3202972,104.7475739,235.9980316,105.2378082z"/>
	<path d="M242.3954926,104.4116364c0-1.4853516,1.2744141-2.2275391,4.1748047-2.5498047
		c0-0.8681641-0.28125-1.7089844-1.4013672-1.7089844c-0.7841797,0-1.4990234,0.3642578-2.03125,0.7285156l-0.4482422-0.7988281
		c0.6308594-0.4052734,1.5830078-0.8818359,2.6757812-0.8818359c1.6660156,0,2.3671875,1.1064453,2.3671875,2.8017578v4.1738281
		h-0.953125l-0.0976562-0.8125h-0.0419922c-0.6445312,0.5322266-1.4013672,0.9804688-2.2548828,0.9804688
		C243.2499847,106.3442535,242.3954926,105.6303864,242.3954926,104.4116364z M246.5702972,104.5092926v-1.890625
		c-2.2695312,0.2802734-3.0546875,0.8398438-3.0546875,1.7089844c0,0.7705078,0.5332031,1.0917969,1.2050781,1.0917969
		C245.378891,105.4194489,245.9111176,105.0981598,246.5702972,104.5092926z"/>
</g>
<g>
	<path d="M193.3124847,122.6616364h1.1484375v4.7480469c0,0.9667969-0.0839844,2.0029297-0.140625,2.9277344h0.0566406
		l0.9941406-1.8769531l3.3769531-5.7988281h1.2324219v9.1884766h-1.1484375v-4.8046875
		c0-0.9667969,0.0839844-1.9472656,0.1396484-2.8710938h-0.0556641l-0.9951172,1.8769531l-3.3759766,5.7988281h-1.2324219
		V122.6616364z"/>
	<path d="M202.3847504,125.0424957h1.3300781l1.3310547,3.1933594c0.2099609,0.5605469,0.4208984,1.1064453,0.6162109,1.6533203
		h0.0566406c0.2089844-0.546875,0.4335938-1.0927734,0.6152344-1.6533203l1.3027344-3.1933594h1.3173828v6.8076172h-1.0507812
		v-3.0537109c0-0.6025391,0.0839844-1.6523438,0.1396484-2.3535156h-0.0556641
		c-0.1962891,0.5322266-0.4345703,1.1064453-0.6298828,1.6113281l-1.2890625,3.1513672h-0.7705078l-1.3164062-3.1513672
		c-0.1962891-0.5048828-0.4345703-1.0791016-0.6298828-1.6113281h-0.0566406
		c0.0419922,0.7011719,0.1259766,1.7509766,0.1259766,2.3535156v3.0537109h-1.0361328V125.0424957z"/>
	<path d="M214.9999847,129.1606598h-1.2597656h-0.0146484l-1.8769531,2.6894531h-1.3027344l2.0732422-2.84375
		c-0.8691406-0.265625-1.5546875-0.8681641-1.5546875-1.9472656c0-1.4980469,1.1484375-2.0166016,2.6757812-2.0166016h2.4082031
		v6.8076172h-1.1484375V129.1606598z M214.9999847,128.3198395v-2.3808594h-1.0644531
		c-1.0644531,0-1.7089844,0.3505859-1.7089844,1.1484375c0,0.7988281,0.6445312,1.2324219,1.7089844,1.2324219H214.9999847z"/>
</g>
<g>
	<rect x="442.0948486" y="62.20755" style="&st0;" width="182.3246918" height="28"/>
</g>
<rect x="442.0948486" y="116.0313873" style="&st1;" width="182.3246918" height="24"/>
<g>
	<rect x="442.0948486" y="139.1246948" style="&st0;" width="182.3246918" height="1"/>
</g>
<g>
	<rect x="442.0948486" y="116.0313873" style="&st0;" width="182.3246918" height="1"/>
</g>
<g>
	<g>
		<rect x="623.4195557" y="89.2348785" style="&st0;" width="1" height="50.8898163"/>
	</g>
</g>
<g>
	<path d="M459.8261719,71.3149567h5.2949219v0.9804688h-4.1318359v8.2080078h-1.1630859V71.3149567z"/>
	<path d="M464.7128906,77.1137848c0-2.2832031,1.484375-3.5859375,3.1503906-3.5859375
		c1.6679688,0,3.1523438,1.3027344,3.1523438,3.5859375c0,2.2548828-1.484375,3.5576172-3.1523438,3.5576172
		C466.1972656,80.671402,464.7128906,79.3686676,464.7128906,77.1137848z M469.8251953,77.1137848
		c0-1.5693359-0.7841797-2.6337891-1.9619141-2.6337891c-1.1621094,0-1.9609375,1.0644531-1.9609375,2.6337891
		c0,1.5546875,0.7988281,2.6054688,1.9609375,2.6054688C469.0410156,79.7192535,469.8251953,78.6684723,469.8251953,77.1137848z"/>
	<path d="M472.8046875,73.695816h0.9521484l0.0986328,0.7841797h0.0410156
		c0.6171875-0.5185547,1.3730469-0.9521484,2.171875-0.9521484c1.7509766,0,2.6894531,1.3583984,2.6894531,3.4736328
		c0,2.3115234-1.3867188,3.6699219-2.9414062,3.6699219c-0.6308594,0-1.2617188-0.2939453-1.8916016-0.7841797l0.0283203,1.1904297
		v2.296875h-1.1484375V73.695816z M477.5664062,77.0014801c0-1.4990234-0.5039062-2.5068359-1.7929688-2.5068359
		c-0.5742188,0-1.1484375,0.3212891-1.8203125,0.9238281v3.5722656c0.6162109,0.5185547,1.21875,0.7138672,1.6669922,0.7138672
		C476.7402344,79.7046051,477.5664062,78.6821442,477.5664062,77.0014801z"/>
	<path d="M480.0703125,77.1137848c0-2.2832031,1.484375-3.5859375,3.1513672-3.5859375s3.1513672,1.3027344,3.1513672,3.5859375
		c0,2.2548828-1.484375,3.5576172-3.1513672,3.5576172S480.0703125,79.3686676,480.0703125,77.1137848z M485.1835938,77.1137848
		c0-1.5693359-0.7851562-2.6337891-1.9619141-2.6337891c-1.1630859,0-1.9609375,1.0644531-1.9609375,2.6337891
		c0,1.5546875,0.7978516,2.6054688,1.9609375,2.6054688C484.3984375,79.7192535,485.1835938,78.6684723,485.1835938,77.1137848z"/>
	<path d="M488.4003906,82.9126129H487.40625l-0.1269531-2.6191406v-0.7285156h0.3369141
		c0.3779297-0.2099609,0.6865234-0.6582031,0.9521484-2.8574219l0.3642578-3.0117188h4.2304688v5.8691406h0.9951172v0.7285156
		l-0.1132812,2.6191406h-0.9941406v-2.4091797h-4.6503906V82.9126129z M488.8486328,79.5649567h3.1650391v-4.9306641H489.84375
		l-0.2666016,2.296875C489.4228516,78.2758942,489.1708984,79.0747223,488.8486328,79.5649567z"/>
</g>
<g>
	<path d="M459.5039062,97.2251129c0-0.4482422,0.3505859-0.7421875,0.7988281-0.7421875s0.7988281,0.2939453,0.7988281,0.7421875
		c0,0.4345703-0.3505859,0.7431641-0.7988281,0.7431641S459.5039062,97.6596832,459.5039062,97.2251129z M459.7148438,99.3686676
		h1.1484375v6.8076172h-1.1484375V99.3686676z"/>
	<path d="M462.6679688,102.7866364c0-2.2128906,1.4003906-3.5859375,2.9550781-3.5859375
		c0.7851562,0,1.3027344,0.2939453,1.90625,0.7841797l-0.0566406-1.1621094V96.202652h1.1621094v9.9736328h-0.9521484
		l-0.0976562-0.7988281h-0.0419922c-0.5332031,0.5185547-1.2607422,0.9667969-2.0595703,0.9667969
		C463.7753906,106.3442535,462.6679688,105.0561676,462.6679688,102.7866364z M467.4726562,104.4389801v-3.5576172
		c-0.5742188-0.5185547-1.0927734-0.7138672-1.6523438-0.7138672c-1.09375,0-1.9609375,1.0498047-1.9609375,2.6044922
		c0,1.625,0.6855469,2.6054688,1.8769531,2.6054688C466.3662109,105.3774567,466.9121094,105.0698395,467.4726562,104.4389801z"/>
</g>
<g>
	<path d="M459.8261719,122.6616364h5.2949219v0.9804688h-4.1318359v8.2080078h-1.1630859V122.6616364z"/>
	<path d="M464.7128906,128.4604645c0-2.2832031,1.484375-3.5859375,3.1503906-3.5859375
		c1.6679688,0,3.1523438,1.3027344,3.1523438,3.5859375c0,2.2548828-1.484375,3.5576172-3.1523438,3.5576172
		C466.1972656,132.0180817,464.7128906,130.7153473,464.7128906,128.4604645z M469.8251953,128.4604645
		c0-1.5693359-0.7841797-2.6337891-1.9619141-2.6337891c-1.1621094,0-1.9609375,1.0644531-1.9609375,2.6337891
		c0,1.5546875,0.7988281,2.6054688,1.9609375,2.6054688C469.0410156,131.0659332,469.8251953,130.015152,469.8251953,128.4604645z"
		/>
	<path d="M472.8046875,125.0424957h0.9521484l0.0986328,0.7841797h0.0410156
		c0.6171875-0.5185547,1.3730469-0.9521484,2.171875-0.9521484c1.7509766,0,2.6894531,1.3583984,2.6894531,3.4736328
		c0,2.3115234-1.3867188,3.6699219-2.9414062,3.6699219c-0.6308594,0-1.2617188-0.2939453-1.8916016-0.7841797l0.0283203,1.1904297
		v2.296875h-1.1484375V125.0424957z M477.5664062,128.3481598c0-1.4990234-0.5039062-2.5068359-1.7929688-2.5068359
		c-0.5742188,0-1.1484375,0.3212891-1.8203125,0.9238281v3.5722656c0.6162109,0.5185547,1.21875,0.7138672,1.6669922,0.7138672
		C476.7402344,131.0512848,477.5664062,130.0288239,477.5664062,128.3481598z"/>
	<path d="M480.0703125,128.4604645c0-2.2832031,1.484375-3.5859375,3.1513672-3.5859375s3.1513672,1.3027344,3.1513672,3.5859375
		c0,2.2548828-1.484375,3.5576172-3.1513672,3.5576172S480.0703125,130.7153473,480.0703125,128.4604645z M485.1835938,128.4604645
		c0-1.5693359-0.7851562-2.6337891-1.9619141-2.6337891c-1.1630859,0-1.9609375,1.0644531-1.9609375,2.6337891
		c0,1.5546875,0.7978516,2.6054688,1.9609375,2.6054688C484.3984375,131.0659332,485.1835938,130.015152,485.1835938,128.4604645z"
		/>
	<path d="M488.4003906,134.2592926H487.40625l-0.1269531-2.6191406v-0.7285156h0.3369141
		c0.3779297-0.2099609,0.6865234-0.6582031,0.9521484-2.8574219l0.3642578-3.0117188h4.2304688v5.8691406h0.9951172v0.7285156
		l-0.1132812,2.6191406h-0.9941406v-2.4091797h-4.6503906V134.2592926z M488.8486328,130.9116364h3.1650391v-4.9306641H489.84375
		l-0.2666016,2.296875C489.4228516,129.6225739,489.1708984,130.421402,488.8486328,130.9116364z"/>
</g>
<line style="&st2;" x1="357.4051514" y1="101.1661224" x2="443.0948486" y2="101.1661224"/>
<g>
	<g>
		<rect x="442.0948486" y="89.2348785" style="&st0;" width="1" height="50.8898163"/>
	</g>
</g>
</svg>