<?xml version="1.0" encoding="utf-8"?>
<!-- Generator: Adobe Illustrator 21.1.0, SVG Export Plug-In . SVG Version: 6.00 Build 0)  -->
<!DOCTYPE svg PUBLIC "-//W3C//DTD SVG 1.1//EN" "http://www.w3.org/Graphics/SVG/1.1/DTD/svg11.dtd" [
	<!ENTITY st0 "fill:#F7931E;">
	<!ENTITY st1 "fill:#71B1E4;">
	<!ENTITY st2 "fill:#BFBFBF;">
	<!ENTITY st3 "fill:#8C8C8C;">
	<!ENTITY st4 "fill:#FFFFFF;">
]>
<svg version="1.1" id="Layer_1" xmlns="http://www.w3.org/2000/svg" xmlns:xlink="http://www.w3.org/1999/xlink" x="0px" y="0px"
	 width="54px" height="216px" viewBox="0 0 54 216" style="enable-background:new 0 0 54 216;" xml:space="preserve">
<polygon style="&st0;" points="5,3.007 5,4.421 9.579,9 5,13.579 5,14.993 10.286,9.707 10.993,9 "/>
<polygon style="&st1;" points="10,86 10,83 8,83 8,86 7,86 7,88 8,88 10,88 11,88 11,86 "/>
<path style="&st0;" d="M13,57v2H5v-2H13 M14,56H4v4h10V56L14,56z"/>
<polygon style="&st1;" points="11,65 11,63 10,63 10,60 8,60 8,63 7,63 7,65 8,65 8,68 7,68 7,70 8,70 10,70 11,70 11,68 10,68 
	10,65 "/>
<path style="&st0;" d="M13,49v2H5v-2H13 M14,48H4v4h10V48L14,48z"/>
<polygon style="&st1;" points="11,40 11,38 10,38 8,38 7,38 7,40 8,40 8,43 7,43 7,45 8,45 8,48 10,48 10,45 11,45 11,43 10,43 
	10,40 "/>
<polygon style="&st1;" points="11,74 10,74 8,74 7,74 7,76 8,76 8,79 10,79 10,76 11,76 "/>
<g>
	<path style="&st1;" d="M5.857,138.997c0.673,0.415,1.657,0.76,2.693,0.76c1.537,0,2.435-0.812,2.435-1.985
		c0-1.088-0.622-1.709-2.192-2.314c-1.899-0.673-3.074-1.657-3.074-3.298c0-1.813,1.502-3.16,3.764-3.16
		c1.191,0,2.056,0.276,2.573,0.57l-0.415,1.226c-0.379-0.207-1.156-0.553-2.21-0.553c-1.589,0-2.193,0.95-2.193,1.744
		c0,1.087,0.709,1.623,2.314,2.245c1.968,0.76,2.971,1.71,2.971,3.419c0,1.796-1.33,3.35-4.075,3.35
		c-1.123,0-2.349-0.328-2.97-0.742L5.857,138.997z"/>
</g>
<rect x="15" y="129" style="&st0;" width="1" height="12"/>
<rect x="2" y="129" style="&st0;" width="1" height="12"/>
<rect x="15" y="147" style="&st0;" width="1" height="12"/>
<rect x="2" y="147" style="&st0;" width="1" height="12"/>
<path style="&st1;" d="M12.724,150.226c-0.184-0.686-0.438-1.268-0.762-1.747c-0.324-0.478-0.734-0.844-1.23-1.098
	C10.235,147.127,9.658,147,9,147c-0.892,0-1.633,0.23-2.222,0.689c-0.588,0.46-1.032,1.113-1.33,1.96
	C5.149,150.497,5,151.614,5,153.004c0,2.207,0.405,3.8,1.214,4.778C6.888,158.594,7.817,159,9,159c0.898,0,1.641-0.231,2.23-0.694
	c0.588-0.462,1.031-1.117,1.326-1.964c0.296-0.847,0.444-1.96,0.444-3.339C13,151.839,12.908,150.913,12.724,150.226z
	 M7.326,149.036c0.413-0.561,0.966-0.841,1.658-0.841c0.703,0,1.29,0.317,1.762,0.953c0.222,0.299,0.389,0.748,0.507,1.334
	l-4.605,4.411c-0.066-0.54-0.099-1.169-0.099-1.889C6.548,151.075,6.808,149.752,7.326,149.036z M10.745,156.852
	c-0.472,0.641-1.053,0.962-1.745,0.962s-1.273-0.319-1.745-0.958c-0.144-0.195-0.263-0.457-0.363-0.772l4.52-4.329
	c0.026,0.382,0.04,0.796,0.04,1.249C11.452,154.929,11.216,156.21,10.745,156.852z"/>
<rect x="7" y="173" style="&st0;" width="2" height="2"/>
<rect x="10" y="173" style="&st0;" width="2" height="2"/>
<rect x="13" y="173" style="&st0;" width="2" height="2"/>
<rect x="2" y="191" style="&st0;" width="2" height="2"/>
<rect x="5" y="191" style="&st0;" width="2" height="2"/>
<rect x="8" y="191" style="&st0;" width="2" height="2"/>
<g>
	<path style="&st1;" d="M5,174.896H4v-5.992c-0.241,0.242-0.557,0.484-0.947,0.727c-0.391,0.242-0.741,0.423-1.053,0.544v-1.02
		c0.56-0.277,1.048-0.613,1.467-1.008c0.418-0.395,0.715-0.777,0.889-1.148H5V174.896z"/>
</g>
<rect x="5" y="116" transform="matrix(-1.836970e-16 1 -1 -1.836970e-16 126 108)" style="&st1;" width="8" height="2"/>
<polygon style="&st0;" points="12,113 6,113 9,110 "/>
<polygon style="&st0;" points="6,121 12,121 9,124 "/>
<path style="&st0;" d="M13,80v2H5v-2H13 M14,79H4v4h10V79L14,79z"/>
<rect x="5" y="3" style="&st1;" width="8" height="1"/>
<rect x="5" y="14" style="&st1;" width="8" height="1"/>
<polygon style="&st1;" points="10,203 3,203 3,204 3,204.298 7.007,208.5 3,212.702 3,213 3,214 10,214 10,213 3.953,213 
	7.626,209.149 8.244,208.5 3.953,204 10,204 "/>
<path style="&st1;" d="M15.987,188c-0.01-0.206-0.024-0.377-0.046-0.488c-0.06-0.301-0.17-0.561-0.324-0.779
	c-0.154-0.219-0.387-0.396-0.697-0.53c-0.311-0.135-0.652-0.202-1.023-0.202c-0.819,0-1.447,0.323-1.896,0.952V186h-1v7h1v-4
	c0,0,0-2.086,1.677-2.086c1.323,0,1.323,1.234,1.323,1.664V193h1v-4.463V188H15.987z"/>
<polygon style="&st0;" points="9,34 13,20 14,20 10,34 "/>
<polygon style="&st0;" points="4,34 8,20 9,20 5,34 "/>
<rect x="4" y="24" style="&st1;" width="12" height="1"/>
<rect x="2" y="29" style="&st1;" width="12" height="1"/>
<g>
	<path style="&st0;" d="M5,100c-1.105,0-2,0.895-2,2s0.895,2,2,2s2-0.895,2-2S6.105,100,5,100z M5,103c-0.552,0-1-0.448-1-1
		c0-0.552,0.448-1,1-1s1,0.448,1,1C6,102.552,5.552,103,5,103z"/>
	<path style="&st0;" d="M13,91c-1.105,0-2,0.895-2,2s0.895,2,2,2s2-0.895,2-2S14.105,91,13,91z M13,94c-0.552,0-1-0.448-1-1
		c0-0.552,0.448-1,1-1s1,0.448,1,1C14,93.552,13.552,94,13,94z"/>
	<path style="&st0;" d="M13,97c-1.105,0-2,0.895-2,2s0.895,2,2,2s2-0.895,2-2S14.105,97,13,97z M13,100c-0.552,0-1-0.448-1-1
		c0-0.552,0.448-1,1-1s1,0.448,1,1C14,99.552,13.552,100,13,100z"/>
	<path style="&st0;" d="M13,103c-1.105,0-2,0.895-2,2s0.895,2,2,2s2-0.895,2-2S14.105,103,13,103z M13,106c-0.552,0-1-0.448-1-1
		c0-0.552,0.448-1,1-1s1,0.448,1,1C14,105.552,13.552,106,13,106z"/>
	<g>
		<path style="&st1;" d="M6.635,103.147l4.386,1.645c0.036-0.347,0.154-0.668,0.344-0.938l-4.386-1.645
			C6.943,102.555,6.825,102.876,6.635,103.147z"/>
		<path style="&st1;" d="M6.715,100.823l5.378-6.05c-0.302-0.155-0.564-0.378-0.753-0.658l-5.433,6.112
			c0.587,0.301,1,0.879,1.072,1.565l4.386-1.645c-0.19-0.271-0.308-0.592-0.344-0.938L6.715,100.823z"/>
	</g>
</g>
<polygon style="&st2;" points="23,3.007 23,4.421 27.579,9 23,13.579 23,14.993 28.286,9.707 28.993,9 "/>
<polygon style="&st3;" points="28,86 28,83 26,83 26,86 25,86 25,88 26,88 28,88 29,88 29,86 "/>
<path style="&st2;" d="M31,57v2h-8v-2H31 M32,56H22v4h10V56L32,56z"/>
<polygon style="&st3;" points="29,65 29,63 28,63 28,60 26,60 26,63 25,63 25,65 26,65 26,68 25,68 25,70 26,70 28,70 29,70 29,68 
	28,68 28,65 "/>
<path style="&st2;" d="M31,49v2h-8v-2H31 M32,48H22v4h10V48L32,48z"/>
<polygon style="&st3;" points="29,40 29,38 28,38 26,38 25,38 25,40 26,40 26,43 25,43 25,45 26,45 26,48 28,48 28,45 29,45 29,43 
	28,43 28,40 "/>
<polygon style="&st3;" points="29,74 28,74 26,74 25,74 25,76 26,76 26,79 28,79 28,76 29,76 "/>
<g>
	<path style="&st3;" d="M23.857,138.997c0.673,0.415,1.657,0.76,2.693,0.76c1.537,0,2.435-0.812,2.435-1.985
		c0-1.088-0.622-1.709-2.192-2.314c-1.899-0.673-3.074-1.657-3.074-3.298c0-1.813,1.502-3.16,3.764-3.16
		c1.191,0,2.056,0.276,2.573,0.57l-0.415,1.226c-0.379-0.207-1.156-0.553-2.21-0.553c-1.589,0-2.193,0.95-2.193,1.744
		c0,1.087,0.709,1.623,2.314,2.245c1.968,0.76,2.971,1.71,2.971,3.419c0,1.796-1.33,3.35-4.075,3.35
		c-1.123,0-2.349-0.328-2.97-0.742L23.857,138.997z"/>
</g>
<rect x="33" y="129" style="&st2;" width="1" height="12"/>
<rect x="20" y="129" style="&st2;" width="1" height="12"/>
<rect x="33" y="147" style="&st2;" width="1" height="12"/>
<rect x="20" y="147" style="&st2;" width="1" height="12"/>
<path style="&st3;" d="M30.723,150.226c-0.184-0.686-0.438-1.268-0.761-1.747c-0.324-0.478-0.734-0.844-1.23-1.098
	C28.235,147.127,27.658,147,27,147c-0.892,0-1.633,0.23-2.222,0.689c-0.588,0.46-1.032,1.113-1.33,1.96
	c-0.299,0.847-0.448,1.965-0.448,3.355c0,2.207,0.405,3.8,1.214,4.778C24.888,158.594,25.817,159,27,159
	c0.898,0,1.641-0.231,2.23-0.694c0.588-0.462,1.031-1.117,1.326-1.964c0.296-0.847,0.444-1.96,0.444-3.339
	C31,151.839,30.907,150.913,30.723,150.226z M25.326,149.036c0.413-0.561,0.966-0.841,1.658-0.841c0.703,0,1.29,0.317,1.761,0.953
	c0.222,0.299,0.389,0.748,0.507,1.334l-4.605,4.411c-0.066-0.54-0.099-1.169-0.099-1.889
	C24.548,151.075,24.808,149.752,25.326,149.036z M28.745,156.852c-0.472,0.641-1.053,0.962-1.745,0.962s-1.273-0.319-1.745-0.958
	c-0.144-0.195-0.263-0.457-0.363-0.772l4.52-4.329c0.026,0.382,0.04,0.796,0.04,1.249C29.452,154.929,29.216,156.21,28.745,156.852z
	"/>
<rect x="25" y="173" style="&st2;" width="2" height="2"/>
<rect x="28" y="173" style="&st2;" width="2" height="2"/>
<rect x="31" y="173" style="&st2;" width="2" height="2"/>
<rect x="20" y="191" style="&st2;" width="2" height="2"/>
<rect x="23" y="191" style="&st2;" width="2" height="2"/>
<rect x="26" y="191" style="&st2;" width="2" height="2"/>
<g>
	<path style="&st3;" d="M23,174.896h-1v-5.992c-0.241,0.242-0.557,0.484-0.947,0.727c-0.391,0.242-0.741,0.423-1.053,0.544v-1.02
		c0.56-0.277,1.048-0.613,1.467-1.008c0.418-0.395,0.715-0.777,0.889-1.148H23V174.896z"/>
</g>
<rect x="23" y="116" transform="matrix(-1.836970e-16 1 -1 -1.836970e-16 144 90)" style="&st3;" width="8" height="2"/>
<polygon style="&st2;" points="30,113 24,113 27,110 "/>
<polygon style="&st2;" points="24,121 30,121 27,124 "/>
<path style="&st2;" d="M31,80v2h-8v-2H31 M32,79H22v4h10V79L32,79z"/>
<rect x="23" y="3" style="&st3;" width="8" height="1"/>
<rect x="23" y="14" style="&st3;" width="8" height="1"/>
<path style="&st2;" d="M23,100c-1.105,0-2,0.895-2,2s0.895,2,2,2s2-0.895,2-2S24.105,100,23,100z M23,103c-0.552,0-1-0.448-1-1
	c0-0.552,0.448-1,1-1s1,0.448,1,1C24,102.552,23.552,103,23,103z"/>
<path style="&st2;" d="M31,91c-1.105,0-2,0.895-2,2s0.895,2,2,2c1.105,0,2-0.895,2-2S32.105,91,31,91z M31,94c-0.552,0-1-0.448-1-1
	c0-0.552,0.448-1,1-1s1,0.448,1,1C32,93.552,31.552,94,31,94z"/>
<path style="&st2;" d="M31,97c-1.105,0-2,0.895-2,2s0.895,2,2,2c1.105,0,2-0.895,2-2S32.105,97,31,97z M31,100c-0.552,0-1-0.448-1-1
	c0-0.552,0.448-1,1-1s1,0.448,1,1C32,99.552,31.552,100,31,100z"/>
<path style="&st2;" d="M31,103c-1.105,0-2,0.895-2,2s0.895,2,2,2c1.105,0,2-0.895,2-2S32.105,103,31,103z M31,106
	c-0.552,0-1-0.448-1-1c0-0.552,0.448-1,1-1s1,0.448,1,1C32,105.552,31.552,106,31,106z"/>
<path style="&st3;" d="M33.987,188c-0.01-0.206-0.024-0.377-0.046-0.488c-0.06-0.301-0.17-0.561-0.324-0.779
	c-0.154-0.219-0.387-0.396-0.697-0.53c-0.312-0.135-0.652-0.202-1.023-0.202c-0.819,0-1.447,0.323-1.896,0.952V186h-1v7h1v-4
	c0,0,0-2.086,1.677-2.086c1.323,0,1.323,1.234,1.323,1.664V193h1v-4.463V188H33.987z"/>
<polygon style="&st2;" points="27,34 31,20 32,20 28,34 "/>
<polygon style="&st2;" points="22,34 26,20 27,20 23,34 "/>
<rect x="22" y="24" style="&st3;" width="12" height="1"/>
<rect x="20" y="29" style="&st3;" width="12" height="1"/>
<g>
	<path style="&st3;" d="M24.635,103.147l4.386,1.645c0.036-0.347,0.154-0.668,0.344-0.938l-4.386-1.645
		C24.943,102.555,24.825,102.876,24.635,103.147z"/>
	<path style="&st3;" d="M24.715,100.823l5.378-6.05c-0.302-0.155-0.564-0.378-0.753-0.658l-5.433,6.112
		c0.586,0.301,1,0.879,1.072,1.565l4.386-1.645c-0.19-0.271-0.308-0.592-0.344-0.938L24.715,100.823z"/>
</g>
<polygon style="&st4;" points="41,3.007 41,4.421 45.579,9 41,13.579 41,14.993 46.286,9.707 46.993,9 "/>
<polygon style="&st4;" points="46,86 46,83 44,83 44,86 43,86 43,88 44,88 46,88 47,88 47,86 "/>
<path style="&st4;" d="M49,57v2h-8v-2H49 M50,56H40v4h10V56L50,56z"/>
<polygon style="&st4;" points="47,65 47,63 46,63 46,60 44,60 44,63 43,63 43,65 44,65 44,68 43,68 43,70 44,70 46,70 47,70 47,68 
	46,68 46,65 "/>
<path style="&st4;" d="M49,49v2h-8v-2H49 M50,48H40v4h10V48L50,48z"/>
<polygon style="&st4;" points="47,40 47,38 46,38 44,38 43,38 43,40 44,40 44,43 43,43 43,45 44,45 44,48 46,48 46,45 47,45 47,43 
	46,43 46,40 "/>
<polygon style="&st4;" points="47,74 46,74 44,74 43,74 43,76 44,76 44,79 46,79 46,76 47,76 "/>
<g>
	<path style="&st4;" d="M41.857,138.997c0.673,0.415,1.657,0.76,2.693,0.76c1.537,0,2.435-0.812,2.435-1.985
		c0-1.088-0.622-1.709-2.192-2.314c-1.899-0.673-3.074-1.657-3.074-3.298c0-1.813,1.502-3.16,3.764-3.16
		c1.191,0,2.056,0.276,2.573,0.57l-0.415,1.226c-0.379-0.207-1.156-0.553-2.21-0.553c-1.589,0-2.193,0.95-2.193,1.744
		c0,1.087,0.709,1.623,2.314,2.245c1.968,0.76,2.971,1.71,2.971,3.419c0,1.796-1.33,3.35-4.075,3.35
		c-1.123,0-2.349-0.328-2.97-0.742L41.857,138.997z"/>
</g>
<rect x="51" y="129" style="&st4;" width="1" height="12"/>
<rect x="38" y="129" style="&st4;" width="1" height="12"/>
<rect x="51" y="147" style="&st4;" width="1" height="12"/>
<rect x="38" y="147" style="&st4;" width="1" height="12"/>
<path style="&st4;" d="M48.723,150.226c-0.184-0.686-0.438-1.268-0.761-1.747c-0.324-0.478-0.734-0.844-1.23-1.098
	C46.235,147.127,45.658,147,45,147c-0.892,0-1.633,0.23-2.222,0.689c-0.588,0.46-1.032,1.113-1.33,1.96
	c-0.299,0.847-0.448,1.965-0.448,3.355c0,2.207,0.405,3.8,1.214,4.778C42.888,158.594,43.817,159,45,159
	c0.898,0,1.641-0.231,2.23-0.694c0.588-0.462,1.031-1.117,1.326-1.964c0.296-0.847,0.444-1.96,0.444-3.339
	C49,151.839,48.908,150.913,48.723,150.226z M43.326,149.036c0.413-0.561,0.966-0.841,1.658-0.841c0.703,0,1.29,0.317,1.761,0.953
	c0.222,0.299,0.39,0.748,0.507,1.334l-4.605,4.411c-0.066-0.54-0.099-1.169-0.099-1.889
	C42.548,151.075,42.808,149.752,43.326,149.036z M46.745,156.852c-0.472,0.641-1.053,0.962-1.745,0.962s-1.273-0.319-1.745-0.958
	c-0.144-0.195-0.263-0.457-0.363-0.772l4.52-4.329c0.026,0.382,0.04,0.796,0.04,1.249C47.452,154.929,47.216,156.21,46.745,156.852z
	"/>
<rect x="43" y="173" style="&st4;" width="2" height="2"/>
<rect x="46" y="173" style="&st4;" width="2" height="2"/>
<rect x="49" y="173" style="&st4;" width="2" height="2"/>
<rect x="38" y="191" style="&st4;" width="2" height="2"/>
<rect x="41" y="191" style="&st4;" width="2" height="2"/>
<rect x="44" y="191" style="&st4;" width="2" height="2"/>
<g>
	<path style="&st4;" d="M41,174.896h-1v-5.992c-0.241,0.242-0.557,0.484-0.947,0.727c-0.391,0.242-0.741,0.423-1.053,0.544v-1.02
		c0.56-0.277,1.048-0.613,1.467-1.008c0.418-0.395,0.715-0.777,0.889-1.148H41V174.896z"/>
</g>
<rect x="41" y="116" transform="matrix(-1.836970e-16 1 -1 -1.836970e-16 162 72)" style="&st4;" width="8" height="2"/>
<polygon style="&st4;" points="48,113 42,113 45,110 "/>
<polygon style="&st4;" points="42,121 48,121 45,124 "/>
<path style="&st4;" d="M49,80v2h-8v-2H49 M50,79H40v4h10V79L50,79z"/>
<rect x="41" y="3" style="&st4;" width="8" height="1"/>
<rect x="41" y="14" style="&st4;" width="8" height="1"/>
<path style="&st4;" d="M41,100c-1.105,0-2,0.895-2,2s0.895,2,2,2s2-0.895,2-2S42.105,100,41,100z M41,103c-0.552,0-1-0.448-1-1
	c0-0.552,0.448-1,1-1s1,0.448,1,1C42,102.552,41.552,103,41,103z"/>
<path style="&st4;" d="M49,91c-1.105,0-2,0.895-2,2s0.895,2,2,2s2-0.895,2-2S50.105,91,49,91z M49,94c-0.552,0-1-0.448-1-1
	c0-0.552,0.448-1,1-1s1,0.448,1,1C50,93.552,49.552,94,49,94z"/>
<path style="&st4;" d="M49,97c-1.105,0-2,0.895-2,2s0.895,2,2,2s2-0.895,2-2S50.105,97,49,97z M49,100c-0.552,0-1-0.448-1-1
	c0-0.552,0.448-1,1-1s1,0.448,1,1C50,99.552,49.552,100,49,100z"/>
<path style="&st4;" d="M49,103c-1.105,0-2,0.895-2,2s0.895,2,2,2s2-0.895,2-2S50.105,103,49,103z M49,106c-0.552,0-1-0.448-1-1
	c0-0.552,0.448-1,1-1s1,0.448,1,1C50,105.552,49.552,106,49,106z"/>
<path style="&st4;" d="M51.987,188c-0.01-0.206-0.024-0.377-0.046-0.488c-0.06-0.301-0.17-0.561-0.324-0.779
	c-0.154-0.219-0.387-0.396-0.697-0.53c-0.312-0.135-0.652-0.202-1.023-0.202c-0.819,0-1.447,0.323-1.896,0.952V186h-1v7h1v-4
	c0,0,0-2.086,1.677-2.086c1.323,0,1.323,1.234,1.323,1.664V193h1v-4.463V188H51.987z"/>
<polygon style="&st4;" points="45,34 49,20 50,20 46,34 "/>
<polygon style="&st4;" points="40,34 44,20 45,20 41,34 "/>
<rect x="40" y="24" style="&st4;" width="12" height="1"/>
<rect x="38" y="29" style="&st4;" width="12" height="1"/>
<g>
	<path style="&st4;" d="M42.635,103.147l4.386,1.645c0.036-0.347,0.154-0.668,0.344-0.938l-4.386-1.645
		C42.943,102.555,42.825,102.876,42.635,103.147z"/>
	<path style="&st4;" d="M42.715,100.823l5.378-6.05c-0.302-0.155-0.564-0.378-0.753-0.658l-5.433,6.112
		c0.587,0.301,1,0.879,1.072,1.565l4.386-1.645c-0.19-0.271-0.308-0.592-0.344-0.938L42.715,100.823z"/>
</g>
<g>
	<path style="&st0;" d="M11,206.371v-0.521l0.665-0.645c1.6-1.523,2.333-2.333,2.333-3.277c0-0.637-0.299-1.224-1.234-1.224
		c-0.569,0-1.041,0.289-1.33,0.53l-0.27-0.597c0.424-0.357,1.05-0.637,1.764-0.637c1.349,0,1.918,0.926,1.918,1.821
		c0,1.157-0.839,2.092-2.159,3.364l-0.492,0.462v0.02H15v0.703H11z"/>
</g>
<polygon style="&st3;" points="28,203 21,203 21,204 21,204.298 25.007,208.5 21,212.702 21,213 21,214 28,214 28,213 21.953,213 
	25.626,209.149 26.244,208.5 21.953,204 28,204 "/>
<g>
	<path style="&st2;" d="M29,206.371v-0.521l0.665-0.645c1.6-1.523,2.333-2.333,2.333-3.277c0-0.637-0.299-1.224-1.234-1.224
		c-0.569,0-1.041,0.289-1.33,0.53l-0.27-0.597c0.424-0.357,1.051-0.637,1.764-0.637c1.349,0,1.918,0.926,1.918,1.821
		c0,1.157-0.839,2.092-2.159,3.364l-0.492,0.462v0.02H33v0.703H29z"/>
</g>
<polygon style="&st4;" points="46,203 39,203 39,204 39,204.298 43.007,208.5 39,212.702 39,213 39,214 46,214 46,213 39.953,213 
	43.626,209.149 44.244,208.5 39.953,204 46,204 "/>
<g>
	<path style="&st4;" d="M47,206.371v-0.521l0.665-0.645c1.6-1.523,2.333-2.333,2.333-3.277c0-0.637-0.299-1.224-1.234-1.224
		c-0.569,0-1.041,0.289-1.33,0.53l-0.27-0.597c0.424-0.357,1.051-0.637,1.764-0.637c1.349,0,1.918,0.926,1.918,1.821
		c0,1.157-0.839,2.092-2.159,3.364l-0.492,0.462v0.02H51v0.703H47z"/>
</g>
</svg>
