<?xml version="1.0" encoding="utf-8"?>
<!DOCTYPE svg PUBLIC "-//W3C//DTD SVG 1.1//EN" "http://www.w3.org/Graphics/SVG/1.1/DTD/svg11.dtd" [
	<!ENTITY st0 "fill:#FFFFFF;">
	<!ENTITY st1 "fill:#808080;">
	<!ENTITY st2 "fill:#636F80;">
]>
<svg version="1.1" id="img" xmlns="http://www.w3.org/2000/svg" xmlns:xlink="http://www.w3.org/1999/xlink" x="0px" y="0px"
	 width="54px" height="36px" viewBox="0 0 54 36" style="enable-background:new 0 0 54 36;" xml:space="preserve">
<g id="javascript.inverted">
	<path style="&st0;" d="M45.009,29.941c0.543-0.316,1.085-0.631,1.633-0.949c0.024,0.037,0.046,0.07,0.068,0.104
		c0.202,0.312,0.439,0.592,0.754,0.796c0.27,0.176,0.568,0.274,0.888,0.305c0.3,0.028,0.597,0.019,0.886-0.076
		c0.228-0.074,0.427-0.193,0.575-0.386c0.254-0.33,0.233-0.905-0.159-1.232c-0.193-0.161-0.411-0.28-0.638-0.383
		c-0.413-0.186-0.83-0.363-1.243-0.549c-0.439-0.198-0.858-0.431-1.224-0.748c-0.476-0.411-0.779-0.922-0.887-1.544
		c-0.092-0.533-0.081-1.059,0.113-1.571c0.259-0.684,0.741-1.156,1.408-1.444c0.379-0.164,0.778-0.242,1.191-0.258
		c0.431-0.017,0.856,0.016,1.272,0.134c0.638,0.18,1.137,0.557,1.52,1.092c0.079,0.11,0.147,0.227,0.221,0.34
		c0.017,0.026,0.021,0.043-0.012,0.064c-0.506,0.324-1.012,0.649-1.518,0.973c-0.003,0.002-0.006,0.003-0.015,0.007
		c-0.014-0.022-0.03-0.045-0.044-0.069c-0.118-0.2-0.254-0.386-0.438-0.533c-0.202-0.161-0.435-0.236-0.69-0.251
		c-0.184-0.011-0.366,0.002-0.54,0.07c-0.342,0.135-0.537,0.433-0.536,0.801c0.001,0.365,0.178,0.622,0.474,0.813
		c0.255,0.164,0.532,0.286,0.809,0.405c0.48,0.206,0.963,0.405,1.419,0.662c0.355,0.2,0.689,0.427,0.974,0.722
		c0.359,0.371,0.583,0.812,0.671,1.32c0.09,0.517,0.084,1.031-0.076,1.535c-0.209,0.659-0.635,1.138-1.237,1.466
		c-0.395,0.215-0.82,0.336-1.263,0.398c-0.332,0.047-0.666,0.058-1.001,0.04c-0.708-0.039-1.379-0.208-1.992-0.575
		c-0.587-0.352-1.034-0.836-1.35-1.442C45.019,29.965,45.015,29.956,45.009,29.941z"/>
	<path style="&st0;" d="M43.997,22.169C43.998,22.192,44,22.208,44,22.224c0,2.294,0,4.588-0.001,6.882
		c0,0.471-0.073,0.931-0.255,1.369c-0.295,0.709-0.818,1.169-1.542,1.404c-0.482,0.157-0.978,0.194-1.482,0.163
		c-0.46-0.028-0.9-0.133-1.313-0.341c-0.548-0.276-0.962-0.692-1.266-1.221c-0.049-0.084-0.092-0.172-0.141-0.264
		c0.547-0.333,1.089-0.662,1.636-0.994c0.037,0.063,0.07,0.123,0.105,0.183c0.112,0.19,0.23,0.376,0.388,0.533
		c0.209,0.207,0.461,0.317,0.755,0.314c0.141-0.001,0.285-0.009,0.422-0.038c0.342-0.072,0.534-0.302,0.62-0.631
		c0.045-0.171,0.064-0.346,0.064-0.522c0.001-2.253,0.001-4.506,0.001-6.759c0-0.131,0-0.131,0.13-0.131c0.6,0,1.2,0,1.8,0
		C43.945,22.169,43.968,22.169,43.997,22.169z"/>
</g>
<g id="javascript.disabled">
	<path style="&st1;" d="M27.009,29.941c0.543-0.316,1.085-0.631,1.633-0.949c0.024,0.037,0.046,0.07,0.068,0.104
		c0.202,0.312,0.439,0.592,0.754,0.796c0.27,0.176,0.568,0.274,0.888,0.305c0.3,0.028,0.597,0.019,0.886-0.076
		c0.228-0.074,0.427-0.193,0.575-0.386c0.254-0.33,0.233-0.905-0.159-1.232c-0.193-0.161-0.411-0.28-0.638-0.383
		c-0.413-0.186-0.83-0.363-1.243-0.549c-0.439-0.198-0.858-0.431-1.224-0.748c-0.476-0.411-0.779-0.922-0.887-1.544
		c-0.092-0.533-0.081-1.059,0.113-1.571c0.259-0.684,0.741-1.156,1.408-1.444c0.379-0.164,0.778-0.242,1.191-0.258
		c0.431-0.017,0.856,0.016,1.272,0.134c0.638,0.18,1.137,0.557,1.52,1.092c0.079,0.11,0.147,0.227,0.221,0.34
		c0.017,0.026,0.021,0.043-0.012,0.064c-0.506,0.324-1.012,0.649-1.518,0.973c-0.003,0.002-0.006,0.003-0.015,0.007
		c-0.014-0.022-0.03-0.045-0.044-0.069c-0.118-0.2-0.254-0.386-0.438-0.533c-0.202-0.161-0.435-0.236-0.69-0.251
		c-0.184-0.011-0.366,0.002-0.54,0.07c-0.342,0.135-0.537,0.433-0.536,0.801c0.001,0.365,0.178,0.622,0.474,0.813
		c0.255,0.164,0.532,0.286,0.809,0.405c0.48,0.206,0.963,0.405,1.419,0.662c0.355,0.2,0.689,0.427,0.974,0.722
		c0.359,0.371,0.583,0.812,0.671,1.32c0.09,0.517,0.084,1.031-0.076,1.535c-0.209,0.659-0.635,1.138-1.237,1.466
		c-0.395,0.215-0.82,0.336-1.263,0.398c-0.332,0.047-0.666,0.058-1.001,0.04c-0.708-0.039-1.379-0.208-1.992-0.575
		c-0.587-0.352-1.034-0.836-1.35-1.442C27.019,29.965,27.015,29.956,27.009,29.941z"/>
	<path style="&st1;" d="M25.997,22.169C25.998,22.192,26,22.208,26,22.224c0,2.294,0,4.588-0.001,6.882
		c0,0.471-0.073,0.931-0.255,1.369c-0.295,0.709-0.818,1.169-1.542,1.404c-0.482,0.157-0.978,0.194-1.482,0.163
		c-0.46-0.028-0.9-0.133-1.313-0.341c-0.548-0.276-0.962-0.692-1.266-1.221c-0.049-0.084-0.092-0.172-0.141-0.264
		c0.547-0.333,1.089-0.662,1.636-0.994c0.037,0.063,0.07,0.123,0.105,0.183c0.112,0.19,0.23,0.376,0.388,0.533
		c0.209,0.207,0.461,0.317,0.755,0.314c0.141-0.001,0.285-0.009,0.422-0.038c0.342-0.072,0.534-0.302,0.62-0.631
		c0.045-0.171,0.064-0.346,0.064-0.522c0.001-2.253,0.001-4.506,0.001-6.759c0-0.131,0-0.131,0.13-0.131c0.6,0,1.2,0,1.8,0
		C25.945,22.169,25.968,22.169,25.997,22.169z"/>
</g>
<g id="javascript.default">
	<path style="&st2;" d="M9.009,29.941c0.543-0.316,1.085-0.631,1.633-0.949c0.024,0.037,0.046,0.07,0.068,0.104
		c0.202,0.312,0.439,0.592,0.754,0.796c0.27,0.176,0.568,0.274,0.888,0.305c0.3,0.028,0.597,0.019,0.886-0.076
		c0.228-0.074,0.427-0.193,0.575-0.386c0.254-0.33,0.233-0.905-0.159-1.232c-0.193-0.161-0.411-0.28-0.638-0.383
		c-0.413-0.186-0.83-0.363-1.243-0.549c-0.439-0.198-0.858-0.431-1.224-0.748c-0.476-0.411-0.779-0.922-0.887-1.544
		c-0.092-0.533-0.081-1.059,0.113-1.571c0.259-0.684,0.741-1.156,1.408-1.444c0.379-0.164,0.778-0.242,1.191-0.258
		c0.431-0.017,0.856,0.016,1.272,0.134c0.638,0.18,1.137,0.557,1.52,1.092c0.079,0.11,0.147,0.227,0.221,0.34
		c0.017,0.026,0.021,0.043-0.012,0.064c-0.506,0.324-1.012,0.649-1.518,0.973c-0.003,0.002-0.006,0.003-0.015,0.007
		c-0.014-0.022-0.03-0.045-0.044-0.069c-0.118-0.2-0.254-0.386-0.438-0.533c-0.202-0.161-0.435-0.236-0.69-0.251
		c-0.184-0.011-0.366,0.002-0.54,0.07c-0.342,0.135-0.537,0.433-0.536,0.801c0.001,0.365,0.178,0.622,0.474,0.813
		c0.255,0.164,0.532,0.286,0.809,0.405c0.48,0.206,0.963,0.405,1.419,0.662c0.355,0.2,0.689,0.427,0.974,0.722
		c0.359,0.371,0.583,0.812,0.671,1.32c0.09,0.517,0.084,1.031-0.076,1.535c-0.209,0.659-0.635,1.138-1.237,1.466
		c-0.395,0.215-0.82,0.336-1.263,0.398c-0.332,0.047-0.666,0.058-1.001,0.04c-0.708-0.039-1.379-0.208-1.992-0.575
		c-0.587-0.352-1.034-0.836-1.35-1.442C9.019,29.965,9.015,29.956,9.009,29.941z"/>
	<path style="&st2;" d="M7.997,22.169C7.998,22.192,8,22.208,8,22.224c0,2.294,0,4.588-0.001,6.882c0,0.471-0.073,0.931-0.255,1.369
		c-0.295,0.709-0.818,1.169-1.542,1.404c-0.482,0.157-0.978,0.194-1.482,0.163c-0.46-0.028-0.9-0.133-1.313-0.341
		c-0.548-0.276-0.962-0.692-1.266-1.221C2.092,30.395,2.049,30.307,2,30.216c0.547-0.333,1.089-0.662,1.636-0.994
		c0.037,0.063,0.07,0.123,0.105,0.183c0.112,0.19,0.23,0.376,0.388,0.533c0.209,0.207,0.461,0.317,0.755,0.314
		c0.141-0.001,0.285-0.009,0.422-0.038c0.342-0.072,0.534-0.302,0.62-0.631c0.045-0.171,0.064-0.346,0.064-0.522
		c0.001-2.253,0.001-4.506,0.001-6.759c0-0.131,0-0.131,0.13-0.131c0.6,0,1.2,0,1.8,0C7.945,22.169,7.968,22.169,7.997,22.169z"/>
</g>
<g id="expression.inverted">
	<path style="&st0;" d="M45.246,6.165c-0.254,0.305-0.457,0.588-0.607,0.847c-0.27,0.458-0.49,0.992-0.658,1.602
		c-0.15,0.543-0.256,1.061-0.317,1.554c-0.061,0.493-0.092,0.902-0.092,1.229c0,0.513,0.025,0.933,0.074,1.26
		c0.05,0.328,0.155,0.757,0.316,1.288L43.82,14c-0.287-0.556-0.495-1.116-0.625-1.682C43.065,11.752,43,11.188,43,10.627
		c0-0.744,0.109-1.404,0.325-1.977c0.324-0.857,0.929-1.733,1.816-2.627L45.246,6.165z"/>
	<path style="&st0;" d="M50.76,13.847c0.278-0.341,0.49-0.636,0.637-0.886c0.251-0.438,0.458-0.958,0.621-1.557
		c0.142-0.511,0.246-1.009,0.313-1.493c0.066-0.484,0.1-0.947,0.1-1.388c0-0.539-0.039-1.014-0.118-1.425
		c-0.079-0.411-0.173-0.747-0.283-1.009l0.152-0.055c0.254,0.469,0.453,0.996,0.599,1.583C52.927,8.203,53,8.796,53,9.395
		c0,0.678-0.09,1.281-0.269,1.808c-0.324,0.956-0.946,1.884-1.868,2.785L50.76,13.847z"/>
	<path style="&st0;" d="M48.515,8.749c0.467-0.634,0.842-1.079,1.127-1.335c0.285-0.256,0.562-0.384,0.832-0.384
		c0.323,0,0.547,0.111,0.669,0.332c0.066,0.115,0.098,0.254,0.098,0.418c0,0.168-0.068,0.321-0.203,0.461
		c-0.135,0.139-0.3,0.209-0.492,0.209c-0.119,0-0.253-0.045-0.402-0.135s-0.263-0.135-0.342-0.135c-0.151,0-0.296,0.078-0.433,0.233
		c-0.137,0.156-0.374,0.485-0.71,0.988l0.117,0.614c0.061,0.316,0.114,0.575,0.155,0.777c0.041,0.203,0.086,0.39,0.135,0.562
		c0.066,0.238,0.131,0.41,0.197,0.516s0.162,0.16,0.29,0.16c0.115,0,0.254-0.084,0.418-0.252c0.09-0.09,0.228-0.256,0.412-0.497
		l0.258,0.178c-0.217,0.364-0.498,0.71-0.844,1.038c-0.346,0.328-0.685,0.491-1.016,0.491c-0.278,0-0.508-0.115-0.688-0.345
		c-0.102-0.123-0.192-0.291-0.27-0.505c-0.041-0.111-0.097-0.307-0.169-0.588c-0.072-0.281-0.118-0.454-0.138-0.52l-0.086,0.147
		c-0.405,0.695-0.702,1.147-0.89,1.356C46.255,12.844,45.928,13,45.555,13c-0.213,0-0.398-0.073-0.556-0.218
		c-0.158-0.145-0.236-0.324-0.236-0.537c0-0.176,0.058-0.339,0.175-0.488s0.279-0.224,0.488-0.224c0.127,0,0.284,0.045,0.47,0.135
		c0.186,0.09,0.308,0.135,0.365,0.135c0.127,0,0.236-0.056,0.329-0.168c0.092-0.113,0.273-0.392,0.543-0.837l0.246-0.404
		c-0.041-0.172-0.085-0.383-0.132-0.633c-0.047-0.25-0.095-0.506-0.144-0.769l-0.098-0.523c-0.07-0.377-0.18-0.625-0.332-0.744
		c-0.086-0.07-0.227-0.104-0.424-0.104c-0.02,0-0.07,0.003-0.147,0.009s-0.156,0.013-0.233,0.021V7.319
		c0.368-0.045,0.773-0.102,1.213-0.172c0.44-0.07,0.734-0.119,0.881-0.147c0.123,0.164,0.224,0.362,0.304,0.596
		c0.08,0.233,0.14,0.481,0.181,0.743L48.515,8.749z"/>
	<path style="&st0;" d="M43.495,4.227C43.281,4.076,43.006,4,42.673,4c-0.417,0-0.824,0.171-1.219,0.513
		c-0.327,0.288-0.596,0.667-0.807,1.136s-0.348,0.841-0.413,1.114h-0.816l-0.233,0.908h0.835l-0.347,1.463
		c-0.455,2.133-0.755,3.417-0.899,3.854c-0.144,0.441-0.354,0.661-0.631,0.661c-0.054,0-0.1-0.011-0.138-0.032
		s-0.057-0.052-0.057-0.092c0-0.032,0.03-0.093,0.089-0.181s0.089-0.177,0.089-0.267c0-0.169-0.057-0.303-0.17-0.402
		c-0.113-0.099-0.242-0.148-0.386-0.148c-0.147,0-0.28,0.054-0.397,0.162C37.058,12.797,37,12.939,37,13.115
		c0,0.245,0.098,0.453,0.294,0.626C37.49,13.914,37.757,14,38.095,14c0.864,0,1.536-0.567,2.018-1.7
		c0.321-0.757,0.724-2.307,1.209-4.629h0.964l0.232-0.908h-1.022l0.204-0.781c0.14-0.538,0.292-0.948,0.456-1.228
		c0.163-0.28,0.345-0.42,0.547-0.42c0.072,0,0.122,0.018,0.151,0.054c0.025,0.04,0.038,0.072,0.038,0.097
		c0,0.018-0.03,0.078-0.089,0.18c-0.059,0.102-0.089,0.202-0.089,0.298c0,0.14,0.054,0.262,0.162,0.366s0.236,0.156,0.383,0.156
		c0.151,0,0.281-0.053,0.391-0.159c0.11-0.106,0.165-0.247,0.165-0.424C43.816,4.603,43.709,4.378,43.495,4.227z"/>
</g>
<g id="expression.disabled">
	<path style="&st1;" d="M27.246,6.165c-0.254,0.305-0.457,0.588-0.607,0.847c-0.27,0.458-0.49,0.992-0.658,1.602
		c-0.15,0.543-0.256,1.061-0.317,1.554c-0.061,0.493-0.092,0.902-0.092,1.229c0,0.513,0.025,0.933,0.074,1.26
		c0.05,0.328,0.155,0.757,0.316,1.288L25.82,14c-0.287-0.556-0.495-1.116-0.625-1.682C25.065,11.752,25,11.188,25,10.627
		c0-0.744,0.109-1.404,0.325-1.977c0.324-0.857,0.929-1.733,1.816-2.627L27.246,6.165z"/>
	<path style="&st1;" d="M32.76,13.847c0.278-0.341,0.49-0.636,0.637-0.886c0.251-0.438,0.458-0.958,0.621-1.557
		c0.142-0.511,0.246-1.009,0.313-1.493c0.066-0.484,0.1-0.947,0.1-1.388c0-0.539-0.039-1.014-0.118-1.425
		c-0.079-0.411-0.173-0.747-0.283-1.009l0.152-0.055c0.254,0.469,0.453,0.996,0.599,1.583C34.927,8.203,35,8.796,35,9.395
		c0,0.678-0.09,1.281-0.269,1.808c-0.324,0.956-0.946,1.884-1.868,2.785L32.76,13.847z"/>
	<path style="&st1;" d="M30.515,8.749c0.467-0.634,0.842-1.079,1.127-1.335c0.285-0.256,0.562-0.384,0.832-0.384
		c0.323,0,0.547,0.111,0.669,0.332c0.066,0.115,0.098,0.254,0.098,0.418c0,0.168-0.068,0.321-0.203,0.461
		c-0.135,0.139-0.3,0.209-0.492,0.209c-0.119,0-0.253-0.045-0.402-0.135c-0.149-0.09-0.263-0.135-0.342-0.135
		c-0.151,0-0.296,0.078-0.433,0.233c-0.137,0.156-0.374,0.485-0.71,0.988l0.117,0.614c0.061,0.316,0.114,0.575,0.155,0.777
		c0.041,0.203,0.086,0.39,0.135,0.562c0.066,0.238,0.131,0.41,0.197,0.516c0.066,0.106,0.162,0.16,0.29,0.16
		c0.115,0,0.254-0.084,0.418-0.252c0.09-0.09,0.228-0.256,0.412-0.497l0.258,0.178c-0.217,0.364-0.498,0.71-0.844,1.038
		c-0.346,0.328-0.685,0.491-1.016,0.491c-0.278,0-0.508-0.115-0.688-0.345c-0.102-0.123-0.192-0.291-0.27-0.505
		c-0.041-0.111-0.097-0.307-0.169-0.588c-0.072-0.281-0.118-0.454-0.138-0.52l-0.086,0.147c-0.405,0.695-0.702,1.147-0.89,1.356
		C28.255,12.844,27.928,13,27.555,13c-0.213,0-0.398-0.073-0.556-0.218s-0.236-0.324-0.236-0.537c0-0.176,0.058-0.339,0.175-0.488
		c0.117-0.149,0.279-0.224,0.488-0.224c0.127,0,0.284,0.045,0.47,0.135c0.186,0.09,0.308,0.135,0.365,0.135
		c0.127,0,0.236-0.056,0.329-0.168c0.092-0.113,0.273-0.392,0.544-0.837l0.246-0.404c-0.041-0.172-0.085-0.383-0.132-0.633
		c-0.047-0.25-0.095-0.506-0.144-0.769l-0.098-0.523c-0.07-0.377-0.18-0.625-0.332-0.744c-0.086-0.07-0.227-0.104-0.424-0.104
		c-0.02,0-0.07,0.003-0.147,0.009c-0.078,0.006-0.156,0.013-0.233,0.021V7.319c0.368-0.045,0.773-0.102,1.213-0.172
		c0.44-0.07,0.734-0.119,0.881-0.147c0.123,0.164,0.224,0.362,0.304,0.596c0.08,0.233,0.14,0.481,0.181,0.743L30.515,8.749z"/>
	<path style="&st1;" d="M25.495,4.227C25.281,4.076,25.006,4,24.673,4c-0.417,0-0.824,0.171-1.219,0.513
		c-0.327,0.288-0.596,0.667-0.807,1.136s-0.348,0.841-0.413,1.114h-0.816l-0.233,0.908h0.835l-0.347,1.463
		c-0.455,2.133-0.755,3.417-0.899,3.854c-0.144,0.441-0.354,0.661-0.631,0.661c-0.054,0-0.1-0.011-0.138-0.032
		s-0.057-0.052-0.057-0.092c0-0.032,0.03-0.093,0.089-0.181s0.089-0.177,0.089-0.267c0-0.169-0.057-0.303-0.17-0.402
		c-0.113-0.099-0.242-0.148-0.386-0.148c-0.147,0-0.28,0.054-0.397,0.162C19.058,12.797,19,12.939,19,13.115
		c0,0.245,0.098,0.453,0.294,0.626C19.49,13.914,19.757,14,20.095,14c0.864,0,1.536-0.567,2.018-1.7
		c0.321-0.757,0.724-2.307,1.209-4.629h0.964l0.232-0.908h-1.022l0.204-0.781c0.14-0.538,0.292-0.948,0.456-1.228
		c0.163-0.28,0.345-0.42,0.547-0.42c0.072,0,0.122,0.018,0.151,0.054c0.025,0.04,0.038,0.072,0.038,0.097
		c0,0.018-0.03,0.078-0.089,0.18c-0.059,0.102-0.089,0.202-0.089,0.298c0,0.14,0.054,0.262,0.162,0.366s0.236,0.156,0.383,0.156
		c0.151,0,0.281-0.053,0.391-0.159c0.11-0.106,0.165-0.247,0.165-0.424C25.816,4.603,25.709,4.378,25.495,4.227z"/>
</g>
<g id="expression.default">
	<path style="&st2;" d="M9.245,6.165C8.991,6.47,8.789,6.752,8.639,7.012c-0.27,0.458-0.49,0.992-0.658,1.602
		c-0.15,0.543-0.256,1.061-0.317,1.554c-0.061,0.493-0.092,0.902-0.092,1.229c0,0.513,0.025,0.933,0.074,1.26
		c0.05,0.328,0.155,0.757,0.316,1.288L7.82,14c-0.287-0.556-0.495-1.116-0.625-1.682C7.065,11.752,7,11.188,7,10.627
		C7,9.883,7.109,9.223,7.325,8.65C7.65,7.793,8.255,6.917,9.141,6.023L9.245,6.165z"/>
	<path style="&st2;" d="M14.76,13.847c0.278-0.341,0.49-0.636,0.637-0.886c0.251-0.438,0.458-0.958,0.621-1.557
		c0.142-0.511,0.246-1.009,0.313-1.493c0.066-0.484,0.1-0.947,0.1-1.388c0-0.539-0.039-1.014-0.118-1.425
		c-0.079-0.411-0.173-0.747-0.283-1.009l0.152-0.055c0.254,0.469,0.453,0.996,0.599,1.583C16.926,8.203,17,8.796,17,9.395
		c0,0.678-0.09,1.281-0.269,1.808c-0.324,0.956-0.946,1.884-1.868,2.785L14.76,13.847z"/>
	<path style="&st2;" d="M12.515,8.749c0.467-0.634,0.842-1.079,1.127-1.335c0.285-0.256,0.562-0.384,0.832-0.384
		c0.323,0,0.547,0.111,0.669,0.332c0.066,0.115,0.098,0.254,0.098,0.418c0,0.168-0.068,0.321-0.203,0.461
		c-0.135,0.139-0.3,0.209-0.492,0.209c-0.119,0-0.253-0.045-0.402-0.135s-0.263-0.135-0.342-0.135c-0.151,0-0.296,0.078-0.433,0.233
		c-0.137,0.156-0.374,0.485-0.71,0.988l0.117,0.614c0.061,0.316,0.114,0.575,0.155,0.777c0.041,0.203,0.086,0.39,0.135,0.562
		c0.066,0.238,0.131,0.41,0.197,0.516s0.162,0.16,0.29,0.16c0.115,0,0.254-0.084,0.418-0.252c0.09-0.09,0.228-0.256,0.412-0.497
		l0.258,0.178c-0.217,0.364-0.498,0.71-0.844,1.038c-0.346,0.328-0.685,0.491-1.016,0.491c-0.278,0-0.508-0.115-0.688-0.345
		c-0.102-0.123-0.192-0.291-0.27-0.505c-0.041-0.111-0.097-0.307-0.169-0.588c-0.072-0.281-0.118-0.454-0.138-0.52l-0.086,0.147
		c-0.405,0.695-0.702,1.147-0.89,1.356C10.255,12.844,9.928,13,9.555,13c-0.213,0-0.398-0.073-0.556-0.218s-0.236-0.324-0.236-0.537
		c0-0.176,0.058-0.339,0.175-0.488s0.279-0.224,0.488-0.224c0.127,0,0.284,0.045,0.47,0.135c0.186,0.09,0.308,0.135,0.365,0.135
		c0.127,0,0.236-0.056,0.329-0.168c0.092-0.113,0.273-0.392,0.544-0.837l0.246-0.404c-0.041-0.172-0.085-0.383-0.132-0.633
		c-0.047-0.25-0.095-0.506-0.144-0.769l-0.098-0.523c-0.07-0.377-0.18-0.625-0.332-0.744c-0.086-0.07-0.227-0.104-0.424-0.104
		c-0.02,0-0.07,0.003-0.147,0.009S9.946,7.643,9.868,7.651V7.319c0.368-0.045,0.773-0.102,1.213-0.172
		c0.44-0.07,0.734-0.119,0.881-0.147c0.123,0.164,0.224,0.362,0.304,0.596c0.08,0.233,0.14,0.481,0.181,0.743L12.515,8.749z"/>
	<path style="&st2;" d="M7.495,4.227C7.281,4.076,7.006,4,6.673,4C6.255,4,5.849,4.171,5.454,4.513
		C5.127,4.801,4.858,5.179,4.647,5.649S4.299,6.49,4.234,6.763H3.419L3.186,7.671h0.835L3.674,9.134
		c-0.455,2.133-0.755,3.417-0.899,3.854c-0.144,0.441-0.354,0.661-0.631,0.661c-0.054,0-0.1-0.011-0.138-0.032
		S1.95,13.565,1.95,13.525c0-0.032,0.03-0.093,0.089-0.181s0.089-0.177,0.089-0.267c0-0.169-0.057-0.303-0.17-0.402
		c-0.113-0.099-0.242-0.148-0.386-0.148c-0.147,0-0.28,0.054-0.397,0.162C1.058,12.797,1,12.939,1,13.115
		c0,0.245,0.098,0.453,0.294,0.626C1.49,13.914,1.757,14,2.095,14c0.864,0,1.536-0.567,2.018-1.7
		c0.321-0.757,0.724-2.307,1.209-4.629h0.964l0.232-0.908H5.497l0.204-0.781c0.14-0.538,0.292-0.948,0.456-1.228
		c0.163-0.28,0.345-0.42,0.547-0.42c0.072,0,0.122,0.018,0.151,0.054c0.025,0.04,0.038,0.072,0.038,0.097
		c0,0.018-0.03,0.078-0.089,0.18C6.745,4.767,6.715,4.867,6.715,4.963c0,0.14,0.054,0.262,0.162,0.366S7.112,5.484,7.26,5.484
		c0.151,0,0.281-0.053,0.391-0.159c0.11-0.106,0.165-0.247,0.165-0.424C7.816,4.603,7.709,4.378,7.495,4.227z"/>
</g>
</svg>
