<?xml version="1.0" encoding="utf-8"?>
<!-- Generator: Adobe Illustrator 21.1.0, SVG Export Plug-In . SVG Version: 6.00 Build 0)  -->
<!DOCTYPE svg PUBLIC "-//W3C//DTD SVG 1.1//EN" "http://www.w3.org/Graphics/SVG/1.1/DTD/svg11.dtd" [
	<!ENTITY st0 "fill:#8C8C8C;">
	<!ENTITY st1 "fill:#BFBFBF;">
	<!ENTITY st2 "fill:#71B1E4;">
	<!ENTITY st3 "fill:#F7931E;">
	<!ENTITY st4 "fill:#FFFFFF;">
	<!ENTITY st5 "fill:#3E7FAA;">
]>
<svg version="1.1" id="Layer_1" xmlns="http://www.w3.org/2000/svg" xmlns:xlink="http://www.w3.org/1999/xlink" x="0px" y="0px"
	 width="54px" height="323.917px" viewBox="0 0 54 323.917" style="enable-background:new 0 0 54 323.917;" xml:space="preserve">
<path style="&st0;" d="M26.633,4.702l-1.912-2.403C24.53,2.107,24.271,2,24,2h-3.98C19.456,2,19,2.457,19,3.02v1.49V5h8.354
	C27.084,5,26.824,4.893,26.633,4.702z"/>
<path style="&st1;" d="M34,16H20c-0.553,0-1-0.448-1-1V5h15c0.553,0,1,0.448,1,1v9C35,15.552,34.553,16,34,16z"/>
<path style="&st1;" d="M32.333,34H21.787c-0.508,0-0.938-0.42-1.01-0.984l-1.767-6.706C18.923,25.618,19.399,25,20.02,25H33.98
	c0.62,0,1.097,0.618,1.009,1.31l-1.646,6.706C33.271,33.58,32.841,34,32.333,34z"/>
<path style="&st0;" d="M27.633,22.701l-1.912-2.402C25.529,20.107,25.271,20,25,20h-3.98C20.456,20,20,20.456,20,21.02v1.49V24h14
	v-1h-5.646C28.084,23,27.824,22.893,27.633,22.701z"/>
<path style="&st2;" d="M14.333,34H3.787c-0.507,0-0.938-0.42-1.009-0.984L1.01,26.31C0.923,25.618,1.399,25,2.02,25h13.961
	c0.62,0,1.097,0.618,1.009,1.31l-1.647,6.706C15.271,33.58,14.841,34,14.333,34z"/>
<path style="&st3;" d="M9.633,22.701l-1.913-2.402C7.53,20.107,7.271,20,7,20H3.02C2.457,20,2,20.456,2,21.02v1.49V24h14v-1h-5.646
	C10.083,23,9.824,22.893,9.633,22.701z"/>
<path style="&st3;" d="M9.633,130.701l-1.913-2.402C7.53,128.107,7.271,128,7,128H3.02C2.457,128,2,128.456,2,129.02v1.49V132h14v-1
	h-5.646C10.083,131,9.824,130.893,9.633,130.701z"/>
<path style="&st3;" d="M9.633,148.701l-1.913-2.402C7.53,146.107,7.271,146,7,146H3.02C2.457,146,2,146.456,2,147.02v1.49V150h14v-1
	h-5.646C10.083,149,9.824,148.893,9.633,148.701z"/>
<path style="&st3;" d="M8.633,4.702L6.721,2.298C6.53,2.107,6.271,2,6,2H2.02C1.457,2,1,2.457,1,3.02v1.49V5h8.354
	C9.084,5,8.824,4.893,8.633,4.702z"/>
<path style="&st2;" d="M16,16H2c-0.552,0-1-0.448-1-1V5h15c0.552,0,1,0.448,1,1v9C17,15.552,16.552,16,16,16z"/>
<path style="&st3;" d="M8.633,40.702l-1.912-2.403C6.53,38.107,6.271,38,6,38H2.02C1.457,38,1,38.457,1,39.02v1.49V41h8.354
	C9.084,41,8.824,40.893,8.633,40.702z"/>
<path style="&st4;" d="M44.633,4.702l-1.912-2.403C42.53,2.107,42.271,2,42,2h-3.98C37.456,2,37,2.457,37,3.02v1.49V5h8.354
	C45.084,5,44.824,4.893,44.633,4.702z"/>
<path style="&st4;" d="M52,16H38c-0.553,0-1-0.448-1-1V5h15c0.553,0,1,0.448,1,1v9C53,15.552,52.553,16,52,16z"/>
<path style="&st4;" d="M50.333,34H39.787c-0.508,0-0.938-0.42-1.01-0.984l-1.767-6.706C36.923,25.618,37.399,25,38.02,25H51.98
	c0.62,0,1.097,0.618,1.009,1.31l-1.646,6.706C51.271,33.58,50.841,34,50.333,34z"/>
<path style="&st4;" d="M45.633,22.701l-1.912-2.402C43.529,20.107,43.271,20,43,20h-3.98C38.456,20,38,20.456,38,21.02v1.49V24h14
	v-1h-5.646C46.084,23,45.824,22.893,45.633,22.701z"/>
<rect x="5" y="78" style="&st3;" width="2" height="3"/>
<rect x="8" y="82" style="&st3;" width="2" height="3"/>
<rect x="11" y="82" style="&st3;" width="2" height="3"/>
<rect x="8" y="78" style="&st3;" width="2" height="3"/>
<rect x="11" y="78" style="&st3;" width="2" height="3"/>
<rect x="23" y="78" style="&st1;" width="2" height="3"/>
<rect x="26" y="82" style="&st1;" width="2" height="3"/>
<rect x="29" y="82" style="&st1;" width="2" height="3"/>
<rect x="26" y="78" style="&st1;" width="2" height="3"/>
<rect x="29" y="78" style="&st1;" width="2" height="3"/>
<g>
	<polygon style="&st2;" points="14,92 14,99 4,99 4,92 2,92 2,106 6,106 6,102 12,102 12,106 14.25,106 16,104.25 16,92 	"/>
	<rect x="7" y="103" style="&st3;" width="2" height="2"/>
</g>
<path style="&st2;" d="M12,140h-1H8.586l1.707-1.707l3-3L14,134.586l0.707,0.707l1.639,1.639l0.644-2.622
	c0.087-0.691-0.389-1.31-1.009-1.31H2.02c-0.62,0-1.097,0.618-1.009,1.31l1.768,6.706C2.85,141.58,3.28,142,3.787,142H12V140z"/>
<polygon style="&st3;" points="16,111 16,122.5 14.5,124 12.571,124 7.429,124 3,124 3,125 8.429,125 13.571,125 15.5,125 17,123.5 
	17,111 "/>
<rect x="6" y="120" style="&st3;" width="2" height="2"/>
<polygon style="&st2;" points="13,109 13,116 3,116 3,109 1,109 1,123 5,123 5,119 11,119 11,123 13.25,123 15,121.25 15,109 "/>
<path style="&st2;" d="M8,156.5c0-2.485,2.015-4.5,4.5-4.5c1.732,0,3.218,0.99,3.97,2.424l0.519-2.115
	c0.087-0.691-0.389-1.31-1.009-1.31H2.02c-0.62,0-1.097,0.618-1.009,1.31l1.768,6.706C2.85,159.58,3.28,160,3.787,160h5.916
	C8.673,159.175,8,157.922,8,156.5z"/>
<path style="&st3;" d="M12.5,153c1.93,0,3.5,1.57,3.5,3.5s-1.57,3.5-3.5,3.5S9,158.43,9,156.5S10.57,153,12.5,153 M12.5,152
	c-2.485,0-4.5,2.015-4.5,4.5s2.015,4.5,4.5,4.5s4.5-2.015,4.5-4.5S14.985,152,12.5,152L12.5,152z"/>
<polygon style="&st3;" points="9,171 6,168 6,170 2,170 2,172 6,172 6,174 "/>
<g>
	<rect x="4" y="173" style="&st2;" width="1" height="4"/>
	<polygon style="&st2;" points="4,164 4,169 5,169 5,165 13.333,165 10,167 10,179 15,177 15,164 	"/>
</g>
<g>
	<polygon style="&st3;" points="14,136 11,139 13,139 13,142 15,142 15,139 17,139 	"/>
</g>
<path style="&st0;" d="M27.633,130.701l-1.913-2.402C25.53,128.107,25.271,128,25,128h-3.98c-0.563,0-1.02,0.456-1.02,1.02v1.49V132
	h14v-1h-5.646C28.084,131,27.824,130.893,27.633,130.701z"/>
<path style="&st0;" d="M27.633,148.701l-1.913-2.402C25.53,146.107,25.271,146,25,146h-3.98c-0.563,0-1.02,0.456-1.02,1.02v1.49V150
	h14v-1h-5.646C28.084,149,27.824,148.893,27.633,148.701z"/>
<polygon style="&st1;" points="32,92 32,99 22,99 22,92 20,92 20,106 24,106 24,102 30,102 30,106 32.25,106 34,104.25 34,92 "/>
<rect x="25" y="103" style="&st0;" width="2" height="2"/>
<path style="&st1;" d="M30,140h-1h-2.414l1.707-1.707l3-3L32,134.586l0.707,0.707l1.639,1.639l0.644-2.622
	c0.087-0.691-0.389-1.31-1.009-1.31H20.02c-0.62,0-1.097,0.618-1.009,1.31l1.767,6.706C20.85,141.58,21.28,142,21.787,142H30V140z"
	/>
<polygon style="&st0;" points="34,111 34,122.5 32.5,124 30.572,124 25.429,124 21,124 21,125 26.429,125 31.572,125 33.5,125 
	35,123.5 35,111 "/>
<rect x="24" y="120" style="&st0;" width="2" height="2"/>
<polygon style="&st1;" points="31,109 31,116 21,116 21,109 19,109 19,123 23,123 23,119 29,119 29,123 31.25,123 33,121.25 33,109 
	"/>
<path style="&st1;" d="M26,156.5c0-2.485,2.015-4.5,4.5-4.5c1.732,0,3.218,0.99,3.97,2.424l0.519-2.115
	c0.087-0.691-0.389-1.31-1.009-1.31H20.02c-0.62,0-1.097,0.618-1.009,1.31l1.767,6.706C20.85,159.58,21.28,160,21.787,160h5.916
	C26.673,159.175,26,157.922,26,156.5z"/>
<path style="&st0;" d="M30.5,153c1.93,0,3.5,1.57,3.5,3.5s-1.57,3.5-3.5,3.5s-3.5-1.57-3.5-3.5S28.57,153,30.5,153 M30.5,152
	c-2.485,0-4.5,2.015-4.5,4.5s2.015,4.5,4.5,4.5s4.5-2.015,4.5-4.5S32.985,152,30.5,152L30.5,152z"/>
<polygon style="&st0;" points="27,171 24,168 24,170 20,170 20,172 24,172 24,174 "/>
<g>
	<rect x="22" y="173" style="&st1;" width="1" height="4"/>
	<polygon style="&st1;" points="22,164 22,169 23,169 23,165 31.333,165 28,167 28,179 33,177 33,164 	"/>
</g>
<g>
	<polygon style="&st0;" points="32,136 29,139 31,139 31,142 33,142 33,139 35,139 	"/>
</g>
<path style="&st4;" d="M45.633,130.701l-1.913-2.402C43.53,128.107,43.27,128,43,128h-3.98c-0.563,0-1.02,0.456-1.02,1.02v1.49V132
	h14v-1h-5.646C46.083,131,45.824,130.893,45.633,130.701z"/>
<path style="&st4;" d="M45.633,148.701l-1.913-2.402C43.53,146.107,43.27,146,43,146h-3.98c-0.563,0-1.02,0.456-1.02,1.02v1.49V150
	h14v-1h-5.646C46.083,149,45.824,148.893,45.633,148.701z"/>
<g>
	<polygon style="&st4;" points="50,92 50,99 40,99 40,92 38,92 38,106 42,106 42,102 48,102 48,106 50.25,106 52,104.25 52,92 	"/>
	<rect x="43" y="103" style="&st4;" width="2" height="2"/>
</g>
<path style="&st4;" d="M48,140h-1h-2.414l1.707-1.707l3-3L50,134.586l0.707,0.707l1.639,1.639l0.644-2.622
	c0.087-0.691-0.389-1.31-1.009-1.31H38.02c-0.62,0-1.097,0.618-1.009,1.31l1.768,6.706C38.849,141.58,39.28,142,39.787,142H48V140z"
	/>
<polygon style="&st4;" points="52,111 52,122.5 50.5,124 48.571,124 43.429,124 39,124 39,125 44.429,125 49.571,125 51.5,125 
	53,123.5 53,111 "/>
<rect x="42" y="120" style="&st4;" width="2" height="2"/>
<polygon style="&st4;" points="49,109 49,116 39,116 39,109 37,109 37,123 41,123 41,119 47,119 47,123 49.25,123 51,121.25 51,109 
	"/>
<path style="&st4;" d="M44,156.5c0-2.485,2.015-4.5,4.5-4.5c1.732,0,3.218,0.99,3.97,2.424l0.519-2.115
	c0.087-0.691-0.389-1.31-1.009-1.31H38.02c-0.62,0-1.097,0.618-1.009,1.31l1.768,6.706C38.849,159.58,39.28,160,39.787,160h5.916
	C44.673,159.175,44,157.922,44,156.5z"/>
<path style="&st4;" d="M48.5,153c1.93,0,3.5,1.57,3.5,3.5s-1.57,3.5-3.5,3.5c-1.93,0-3.5-1.57-3.5-3.5S46.57,153,48.5,153 M48.5,152
	c-2.485,0-4.5,2.015-4.5,4.5s2.015,4.5,4.5,4.5c2.485,0,4.5-2.015,4.5-4.5S50.985,152,48.5,152L48.5,152z"/>
<polygon style="&st4;" points="45,171 42,168 42,170 38,170 38,172 42,172 42,174 "/>
<g>
	<rect x="40" y="173" style="&st4;" width="1" height="4"/>
	<polygon style="&st4;" points="40,164 40,169 41,169 41,165 49.333,165 46,167 46,179 51,177 51,164 	"/>
</g>
<g>
	<polygon style="&st4;" points="50,136 47,139 49,139 49,142 51,142 51,139 53,139 	"/>
</g>
<path style="&st3;" d="M9.633,184.701l-1.913-2.402C7.53,182.107,7.271,182,7,182H3.02C2.457,182,2,182.456,2,183.02v1.49V186h14v-1
	h-5.646C10.084,185,9.824,184.893,9.633,184.701z"/>
<g>
	<path style="&st2;" d="M11.379,193.5l-2.439-2.439l2.121-2.121l2.439,2.439l2.439-2.439l0.719,0.719l0.331-1.349
		c0.087-0.691-0.389-1.31-1.009-1.31H2.02c-0.62,0-1.097,0.618-1.009,1.31l1.768,6.706C2.85,195.58,3.28,196,3.787,196h5.091
		L11.379,193.5z"/>
</g>
<rect x="13" y="189.964" transform="matrix(0.7071 0.7071 -0.7071 0.7071 140.7792 47.1289)" style="&st3;" width="1" height="7.071"/>
<rect x="9.964" y="193" transform="matrix(0.7071 0.7071 -0.7071 0.7071 140.7792 47.1289)" style="&st3;" width="7.071" height="1"/>
<path style="&st0;" d="M27.633,184.701l-1.913-2.402C25.53,182.107,25.271,182,25,182h-3.98c-0.563,0-1.02,0.456-1.02,1.02v1.49V186
	h14v-1h-5.646C28.084,185,27.824,184.893,27.633,184.701z"/>
<g>
	<g>
		<path style="&st1;" d="M29.379,193.5l-2.439-2.439l2.121-2.121l2.439,2.439l2.439-2.439l0.719,0.719l0.331-1.349
			c0.087-0.691-0.389-1.31-1.009-1.31H20.02c-0.62,0-1.097,0.618-1.009,1.31l1.767,6.706C20.85,195.58,21.28,196,21.787,196h5.091
			L29.379,193.5z"/>
	</g>
</g>
<rect x="31" y="189.964" transform="matrix(0.7071 0.7072 -0.7072 0.7071 146.0625 34.4091)" style="&st0;" width="1" height="7.071"/>
<rect x="27.964" y="193" transform="matrix(0.7071 0.7071 -0.7071 0.7071 146.0513 34.401)" style="&st0;" width="7.071" height="1"/>
<path style="&st4;" d="M45.633,184.701l-1.913-2.402C43.53,182.107,43.271,182,43,182h-3.98c-0.563,0-1.02,0.456-1.02,1.02v1.49V186
	h14v-1h-5.646C46.083,185,45.824,184.893,45.633,184.701z"/>
<g>
	<path style="&st4;" d="M47.379,193.5l-2.439-2.439l2.121-2.121l2.439,2.439l2.439-2.439l0.719,0.719l0.331-1.349
		c0.087-0.691-0.389-1.31-1.009-1.31H38.02c-0.62,0-1.097,0.618-1.009,1.31l1.768,6.706C38.85,195.58,39.28,196,39.787,196h5.091
		L47.379,193.5z"/>
</g>
<rect x="49" y="189.964" transform="matrix(0.7071 0.7072 -0.7072 0.7071 151.3355 21.6804)" style="&st4;" width="1" height="7.071"/>
<rect x="45.964" y="193" transform="matrix(0.7071 0.7071 -0.7071 0.7071 151.3233 21.6732)" style="&st4;" width="7.071" height="1"/>
<g>
	<path style="&st2;" d="M16,41H1v10c0,0.552,0.448,1,1,1h10v-1h-2v-3h2v-2h3v2h2v-6C17,41.448,16.552,41,16,41z"/>
</g>
<rect x="13" y="47" style="&st3;" width="1" height="5"/>
<rect x="11" y="49" style="&st3;" width="5" height="1"/>
<path style="&st0;" d="M26.633,40.702l-1.912-2.403C24.53,38.107,24.271,38,24,38h-3.98C19.456,38,19,38.457,19,39.02v1.49V41h8.354
	C27.084,41,26.824,40.893,26.633,40.702z"/>
<g>
	<path style="&st1;" d="M34,41H19v10c0,0.552,0.448,1,1,1h10v-1h-2v-3h2v-2h3v2h2v-6C35,41.448,34.552,41,34,41z"/>
</g>
<rect x="31" y="47" style="&st0;" width="1" height="5"/>
<rect x="29" y="49" style="&st0;" width="5" height="1"/>
<path style="&st4;" d="M44.633,40.702l-1.912-2.403C42.53,38.107,42.271,38,42,38h-3.98C37.457,38,37,38.457,37,39.02v1.49V41h8.354
	C45.084,41,44.824,40.893,44.633,40.702z"/>
<g>
	<path style="&st4;" d="M52,41H37v10c0,0.552,0.448,1,1,1h10v-1h-2v-3h2v-2h3v2h2v-6C53,41.448,52.552,41,52,41z"/>
</g>
<rect x="49" y="47" style="&st4;" width="1" height="5"/>
<rect x="47" y="49" style="&st4;" width="5" height="1"/>
<polygon style="&st3;" points="4,219 11,219 10,218 3,218 3,230 4,230 "/>
<polygon style="&st3;" points="4,237 7,237 7,236 3,236 3,248 4,248 "/>
<path style="&st2;" d="M12.86,238c-0.208-0.422-0.632-0.719-1.134-0.719h-0.248C11.371,236.558,10.753,236,10,236
	c-0.754,0-1.371,0.558-1.477,1.281H8.273c-0.502,0-0.926,0.297-1.134,0.719H5v12h10v-12H12.86z M10,237c0.276,0,0.5,0.224,0.5,0.5
	c0,0.276-0.224,0.5-0.5,0.5s-0.5-0.224-0.5-0.5C9.5,237.224,9.724,237,10,237z M14,249H6v-10h1v1h6v-1h1V249z"/>
<path style="&st2;" d="M11.414,220H5v12h10v-8.414L11.414,220z M14,231H6v-10h5v3h3V231z"/>
<path style="&st2;" d="M13.421,208.842c-0.328,0-0.638,0.067-0.927,0.179l-1.965-1.867L15,202.947V200l-5.809,5.519
	c0.738,0.095,1.309,0.718,1.309,1.481c0,0.829-0.671,1.5-1.5,1.5s-1.5-0.671-1.5-1.5c0-0.762,0.571-1.386,1.309-1.481L3,200v2.947
	l4.471,4.206l-1.965,1.867c-0.289-0.111-0.6-0.179-0.927-0.179c-1.425,0-2.579,1.156-2.579,2.579C2,212.845,3.154,214,4.579,214
	c1.424,0,2.579-1.155,2.579-2.579c0-0.327-0.067-0.638-0.179-0.926L9,208.593l2.021,1.902c-0.111,0.288-0.179,0.599-0.179,0.926
	c0,1.424,1.155,2.579,2.579,2.579c1.425,0,2.579-1.155,2.579-2.579C16,209.998,14.846,208.842,13.421,208.842z M4.579,212.526
	c-0.61,0-1.106-0.495-1.106-1.105c0-0.61,0.495-1.105,1.106-1.105c0.61,0,1.104,0.495,1.104,1.105
	C5.684,212.032,5.19,212.526,4.579,212.526z M13.421,212.526c-0.61,0-1.105-0.495-1.105-1.105c0-0.61,0.494-1.105,1.105-1.105
	c0.61,0,1.105,0.495,1.105,1.105C14.526,212.032,14.031,212.526,13.421,212.526z"/>
<circle style="&st3;" cx="9" cy="207" r="1"/>
<polygon style="&st0;" points="22,219 29,219 28,218 21,218 21,230 22,230 "/>
<polygon style="&st0;" points="22,237 25,237 25,236 21,236 21,248 22,248 "/>
<path style="&st1;" d="M30.86,238c-0.208-0.422-0.632-0.719-1.134-0.719h-0.248C29.371,236.558,28.753,236,28,236
	c-0.754,0-1.371,0.558-1.478,1.281h-0.249c-0.502,0-0.926,0.297-1.134,0.719H23v12h10v-12H30.86z M28,237c0.276,0,0.5,0.224,0.5,0.5
	c0,0.276-0.224,0.5-0.5,0.5s-0.5-0.224-0.5-0.5C27.5,237.224,27.724,237,28,237z M32,249h-8v-10h1v1h6v-1h1V249z"/>
<path style="&st1;" d="M29.414,220H23v12h10v-8.414L29.414,220z M32,231h-8v-10h5v3h3V231z"/>
<path style="&st1;" d="M31.421,208.842c-0.328,0-0.638,0.067-0.927,0.179l-1.965-1.867L33,202.947V200l-5.809,5.519
	c0.738,0.095,1.309,0.718,1.309,1.481c0,0.829-0.671,1.5-1.5,1.5s-1.5-0.671-1.5-1.5c0-0.762,0.571-1.386,1.309-1.481L21,200v2.947
	l4.471,4.206l-1.965,1.867c-0.289-0.111-0.6-0.179-0.927-0.179c-1.425,0-2.579,1.156-2.579,2.579c0,1.424,1.154,2.579,2.579,2.579
	c1.424,0,2.579-1.155,2.579-2.579c0-0.327-0.067-0.638-0.179-0.926L27,208.593l2.021,1.902c-0.111,0.288-0.179,0.599-0.179,0.926
	c0,1.424,1.155,2.579,2.579,2.579c1.425,0,2.579-1.155,2.579-2.579C34,209.998,32.846,208.842,31.421,208.842z M22.579,212.526
	c-0.61,0-1.105-0.495-1.105-1.105c0-0.61,0.495-1.105,1.105-1.105c0.61,0,1.104,0.495,1.104,1.105
	C23.684,212.032,23.19,212.526,22.579,212.526z M31.421,212.526c-0.61,0-1.104-0.495-1.104-1.105c0-0.61,0.494-1.105,1.104-1.105
	c0.61,0,1.106,0.495,1.106,1.105C32.526,212.032,32.031,212.526,31.421,212.526z"/>
<circle style="&st0;" cx="27" cy="207" r="1"/>
<polygon style="&st4;" points="40,219 47,219 46,218 39,218 39,230 40,230 "/>
<polygon style="&st4;" points="40,237 43,237 43,236 39,236 39,248 40,248 "/>
<path style="&st4;" d="M48.86,238c-0.208-0.422-0.632-0.719-1.134-0.719h-0.248C47.371,236.558,46.753,236,46,236
	c-0.754,0-1.371,0.558-1.478,1.281h-0.249c-0.502,0-0.926,0.297-1.134,0.719H41v12h10v-12H48.86z M46,237c0.276,0,0.5,0.224,0.5,0.5
	c0,0.276-0.224,0.5-0.5,0.5s-0.5-0.224-0.5-0.5C45.5,237.224,45.724,237,46,237z M50,249h-8v-10h1v1h6v-1h1V249z"/>
<path style="&st4;" d="M47.414,220H41v12h10v-8.414L47.414,220z M50,231h-8v-10h5v3h3V231z"/>
<path style="&st4;" d="M49.421,208.842c-0.328,0-0.638,0.067-0.927,0.179l-1.965-1.867L51,202.947V200l-5.809,5.519
	c0.738,0.095,1.309,0.718,1.309,1.481c0,0.829-0.671,1.5-1.5,1.5s-1.5-0.671-1.5-1.5c0-0.762,0.571-1.386,1.309-1.481L39,200v2.947
	l4.471,4.206l-1.965,1.867c-0.289-0.111-0.6-0.179-0.927-0.179c-1.425,0-2.579,1.156-2.579,2.579c0,1.424,1.154,2.579,2.579,2.579
	c1.424,0,2.579-1.155,2.579-2.579c0-0.327-0.067-0.638-0.179-0.926L45,208.593l2.021,1.902c-0.111,0.288-0.179,0.599-0.179,0.926
	c0,1.424,1.155,2.579,2.579,2.579c1.425,0,2.579-1.155,2.579-2.579C52,209.998,50.846,208.842,49.421,208.842z M40.579,212.526
	c-0.61,0-1.106-0.495-1.106-1.105c0-0.61,0.495-1.105,1.106-1.105c0.61,0,1.104,0.495,1.104,1.105
	C41.684,212.032,41.189,212.526,40.579,212.526z M49.421,212.526c-0.61,0-1.104-0.495-1.104-1.105c0-0.61,0.494-1.105,1.104-1.105
	c0.61,0,1.106,0.495,1.106,1.105C50.526,212.032,50.031,212.526,49.421,212.526z"/>
<circle style="&st4;" cx="45" cy="207" r="1"/>
<polygon style="&st3;" points="12,59 15,59 12,56 "/>
<polygon style="&st3;" points="12,257 15,257 12,254 "/>
<rect x="12" y="154" style="&st2;" width="1" height="3"/>
<rect x="12" y="156" style="&st2;" width="3" height="1"/>
<rect x="30" y="154" style="&st1;" width="1" height="3"/>
<rect x="30" y="156" style="&st1;" width="3" height="1"/>
<rect x="48" y="154" style="&st4;" width="1" height="3"/>
<rect x="48" y="156" style="&st4;" width="3" height="1"/>
<path style="&st3;" d="M6.5,260c1.93,0,3.5,1.57,3.5,3.5S8.43,267,6.5,267S3,265.43,3,263.5S4.57,260,6.5,260 M6.5,259
	c-2.485,0-4.5,2.015-4.5,4.5s2.015,4.5,4.5,4.5s4.5-2.015,4.5-4.5S8.985,259,6.5,259L6.5,259z"/>
<rect x="6" y="261" style="&st2;" width="1" height="3"/>
<rect x="6" y="263" style="&st2;" width="3" height="1"/>
<polygon style="&st1;" points="30,257 33,257 30,254 "/>
<path style="&st1;" d="M24.5,260c1.93,0,3.5,1.57,3.5,3.5s-1.57,3.5-3.5,3.5s-3.5-1.57-3.5-3.5S22.57,260,24.5,260 M24.5,259
	c-2.485,0-4.5,2.015-4.5,4.5s2.015,4.5,4.5,4.5s4.5-2.015,4.5-4.5S26.985,259,24.5,259L24.5,259z"/>
<rect x="24" y="261" style="&st0;" width="1" height="3"/>
<rect x="24" y="263" style="&st0;" width="3" height="1"/>
<path style="&st2;" d="M14.539,274c0.255,0,0.461,0.207,0.461,0.461V276h-1v8c0,1.104-0.896,2-2,2H6c-1.104,0-2-0.896-2-2v-8H3
	v-1.539C3,274.207,3.206,274,3.461,274H6v-1c0-0.552,0.447-1,1-1h4c0.553,0,1,0.448,1,1v1H14.539z M13,284v-8H5v8
	c0,0.553,0.447,1,1,1h6C12.553,285,13,284.553,13,284z M11,273.406c0-0.224-0.182-0.406-0.406-0.406H7.406
	C7.182,273,7,273.182,7,273.406V274h4V273.406z"/>
<polygon style="&st3;" points="10,281 10,277 8,277 8,281 6,281 9,284 12,281 "/>
<path style="&st0;" d="M32.539,274c0.255,0,0.461,0.207,0.461,0.461V276h-1v8c0,1.104-0.896,2-2,2h-6c-1.104,0-2-0.896-2-2v-8h-1
	v-1.539c0-0.254,0.206-0.461,0.461-0.461H24v-1c0-0.552,0.447-1,1-1h4c0.553,0,1,0.448,1,1v1H32.539z M31,284v-8h-8v8
	c0,0.553,0.447,1,1,1h6C30.553,285,31,284.553,31,284z M29,273.406c0-0.224-0.182-0.406-0.406-0.406h-3.188
	c-0.225,0-0.406,0.182-0.406,0.406V274h4V273.406z"/>
<polygon style="&st1;" points="28,281 28,277 26,277 26,281 24,281 27,284 30,281 "/>
<g>
	<path style="&st4;" d="M50.539,274H48v-1c0-0.552-0.447-1-1-1h-4c-0.553,0-1,0.448-1,1v1h-2.539c-0.255,0-0.461,0.207-0.461,0.461
		V276h1v8c0,1.104,0.896,2,2,2h6c1.104,0,2-0.896,2-2v-8h1v-1.539C51,274.207,50.794,274,50.539,274z M43,273.406
		c0-0.224,0.182-0.406,0.406-0.406h3.188c0.225,0,0.406,0.182,0.406,0.406V274h-4V273.406z M49,284c0,0.553-0.447,1-1,1h-6
		c-0.553,0-1-0.447-1-1v-8h8V284z"/>
	<polygon style="&st4;" points="48,281 46,281 46,277 44,277 44,281 42,281 45,284 	"/>
</g>
<polygon style="&st2;" points="14,59 14,69 4,69 4,57 12,57 12,56 4,56 3,56 3,57 3,69 3,70 4,70 15,70 15,69 15,59 "/>
<polygon style="&st3;" points="12,77 15,77 12,74 "/>
<g>
	<polygon style="&st2;" points="14,77 14,87 7,87 7,88 15,88 15,87 15,77 	"/>
	<polygon style="&st2;" points="4,82 4,75 12,75 12,74 4,74 3,74 3,75 3,82 	"/>
</g>
<polygon style="&st1;" points="30,59 33,59 30,56 "/>
<polygon style="&st0;" points="32,59 32,69 22,69 22,57 30,57 30,56 22,56 21,56 21,57 21,69 21,70 22,70 33,70 33,69 33,59 "/>
<path style="&st4;" d="M48,56h-8h-1v1v12v1h1h11v-1V59L48,56z M50,69H40V57h8v2h2V69z"/>
<polygon style="&st3;" points="7,85 5,85 5,83 4,83 4,85 2,85 2,86 4,86 4,88 5,88 5,86 7,86 "/>
<polygon style="&st1;" points="30,77 33,77 30,74 "/>
<g>
	<polygon style="&st0;" points="32,77 32,87 25,87 25,88 33,88 33,87 33,77 	"/>
	<polygon style="&st0;" points="22,82 22,75 30,75 30,74 22,74 21,74 21,75 21,82 	"/>
</g>
<polygon style="&st1;" points="25,85 23,85 23,83 22,83 22,85 20,85 20,86 22,86 22,88 23,88 23,86 25,86 "/>
<rect x="41" y="78" style="&st4;" width="2" height="3"/>
<rect x="44" y="82" style="&st4;" width="2" height="3"/>
<rect x="47" y="82" style="&st4;" width="2" height="3"/>
<rect x="44" y="78" style="&st4;" width="2" height="3"/>
<rect x="47" y="78" style="&st4;" width="2" height="3"/>
<polygon style="&st4;" points="48,77 51,77 48,74 "/>
<g>
	<polygon style="&st4;" points="50,77 50,87 43,87 43,88 51,88 51,87 51,77 	"/>
	<polygon style="&st4;" points="40,82 40,75 48,75 48,74 40,74 39,74 39,75 39,82 	"/>
</g>
<polygon style="&st4;" points="43,85 41,85 41,83 40,83 40,85 38,85 38,86 40,86 40,88 41,88 41,86 43,86 "/>
<g>
	<polygon style="&st2;" points="12,255 12,254 4,254 3,254 3,255 3,256 3,259 4,259 4,256 4,255 11.586,255 	"/>
	<polygon style="&st2;" points="14,257 14,265 14,267 10,267 10,268 14,268 15,268 15,267 15,265 15,257 	"/>
</g>
<g>
	<polygon style="&st0;" points="30,255 30,254 22,254 21,254 21,255 21,256 21,259 22,259 22,256 22,255 29.586,255 	"/>
	<polygon style="&st0;" points="32,257 32,265 32,267 28,267 28,268 32,268 33,268 33,267 33,265 33,257 	"/>
</g>
<g>
	<polygon style="&st4;" points="48,254 40,254 39,254 39,255 39,256 39,259 40,259 40,256 40,255 47.586,255 48,255 48,257 50,257 
		50,265 50,267 46,267 46,268 50,268 51,268 51,267 51,265 51,257 	"/>
	<path style="&st4;" d="M42.5,259c-2.485,0-4.5,2.015-4.5,4.5s2.015,4.5,4.5,4.5s4.5-2.015,4.5-4.5S44.985,259,42.5,259z M42.5,267
		c-1.93,0-3.5-1.57-3.5-3.5s1.57-3.5,3.5-3.5s3.5,1.57,3.5,3.5S44.43,267,42.5,267z"/>
	<polygon style="&st4;" points="43,263 43,261 42,261 42,263 42,264 43,264 45,264 45,263 	"/>
</g>
<path style="&st3;" d="M8.633,292.702l-1.912-2.403C6.53,290.107,6.271,290,6,290H2.02C1.457,290,1,290.457,1,291.02v1.49V293h8.354
	C9.084,293,8.824,292.893,8.633,292.702z"/>
<path style="&st2;" d="M16,304H2c-0.552,0-1-0.448-1-1v-10h15c0.552,0,1,0.448,1,1v9C17,303.552,16.552,304,16,304z"/>
<polygon style="&st5;" points="12,298 12,296 11,296 11,297 9,295 5,299 5.687,299.686 6,299.373 6,302 8,302 8,300 10,300 10,302 
	12,302 12,299.373 12.314,299.686 13,299 "/>
<path style="&st0;" d="M26.633,292.702l-1.912-2.403C24.53,290.107,24.271,290,24,290h-3.98c-0.563,0-1.02,0.457-1.02,1.02v1.49V293
	h8.354C27.084,293,26.824,292.893,26.633,292.702z"/>
<path style="&st1;" d="M34,304H20c-0.552,0-1-0.448-1-1v-10h15c0.552,0,1,0.448,1,1v9C35,303.552,34.552,304,34,304z"/>
<polygon style="&st0;" points="30,298 30,296 29,296 29,297 27,295 23,299 23.687,299.686 24,299.373 24,302 26,302 26,300 28,300 
	28,302 30,302 30,299.373 30.313,299.686 31,299 "/>
<path style="&st4;" d="M52,293h-6.646c-0.27,0-0.53-0.107-0.721-0.298l-1.912-2.403C42.53,290.107,42.271,290,42,290h-3.98
	c-0.563,0-1.02,0.457-1.02,1.02v1.49V293v10c0,0.552,0.448,1,1,1h14c0.552,0,1-0.448,1-1v-9C53,293.448,52.552,293,52,293z
	 M48.313,299.686L48,299.373V302h-2v-2h-2v2h-2v-2.627l-0.313,0.314L41,299l4-4l2,2v-1h1v2l1,1L48.313,299.686z"/>
<g>
	<path style="&st2;" d="M9.565,313.298c0-0.472-0.312-0.726-0.773-0.726c-0.426,0-0.738,0.219-1.049,0.53l-0.933-0.853
		c0.542-0.622,1.302-1.049,2.201-1.049c1.233,0,2.179,0.611,2.179,1.971c0,1.43-1.729,1.857-1.59,3.228H8.112
		C7.882,314.82,9.565,314.162,9.565,313.298z M7.836,318.139c0-0.61,0.426-1.072,1.014-1.072c0.589,0,1.026,0.462,1.026,1.072
		c0,0.6-0.437,1.061-1.026,1.061C8.262,319.2,7.836,318.739,7.836,318.139z"/>
</g>
<g>
	<path style="&st3;" d="M7.888,322.924c-0.754-0.104-1.489-0.317-2.184-0.632l0.823-1.822c0.521,0.235,1.072,0.395,1.637,0.474
		L7.888,322.924z M10.16,322.917l-0.291-1.978c0.568-0.084,1.118-0.246,1.635-0.484l0.835,1.818
		C11.649,322.589,10.916,322.806,10.16,322.917z M3.786,321.068c-0.579-0.498-1.082-1.073-1.497-1.711l1.677-1.09
		c0.311,0.478,0.689,0.91,1.124,1.283L3.786,321.068z M14.247,321.036l-1.311-1.51c0.431-0.374,0.806-0.809,1.116-1.29l1.683,1.082
		C15.323,319.96,14.822,320.538,14.247,321.036z M1.334,317.294c-0.218-0.729-0.33-1.484-0.334-2.248l2-0.01
		c0.003,0.572,0.087,1.14,0.25,1.686L1.334,317.294z M16.679,317.25l-1.92-0.563C14.919,316.143,15,315.574,15,315l2-0.099L17,315
		C17,315.765,16.892,316.522,16.679,317.25z M3.23,313.346l-1.923-0.551c0.21-0.732,0.523-1.431,0.933-2.075l1.688,1.072
		C3.622,312.274,3.387,312.797,3.23,313.346z M14.739,313.245c-0.166-0.545-0.41-1.063-0.725-1.542l1.67-1.1
		c0.42,0.638,0.746,1.33,0.968,2.058L14.739,313.245z M5.037,310.495l-1.321-1.502c0.574-0.505,1.214-0.923,1.903-1.244l0.845,1.813
		C5.947,309.802,5.467,310.116,5.037,310.495z M12.883,310.427c-0.437-0.371-0.922-0.678-1.443-0.91l0.815-1.826
		c0.694,0.31,1.341,0.718,1.923,1.211L12.883,310.427z M8.094,309.068l-0.298-1.979c0.75-0.112,1.518-0.119,2.27-0.019l-0.266,1.982
		C9.247,308.979,8.664,308.981,8.094,309.068z"/>
</g>
<g>
	<path style="&st0;" d="M27.565,313.298c0-0.472-0.312-0.726-0.772-0.726c-0.426,0-0.738,0.219-1.049,0.53l-0.933-0.853
		c0.542-0.622,1.302-1.049,2.201-1.049c1.233,0,2.179,0.611,2.179,1.971c0,1.43-1.729,1.857-1.59,3.228h-1.488
		C25.882,314.82,27.565,314.162,27.565,313.298z M25.836,318.139c0-0.61,0.426-1.072,1.014-1.072c0.588,0,1.026,0.462,1.026,1.072
		c0,0.6-0.437,1.061-1.026,1.061C26.262,319.2,25.836,318.739,25.836,318.139z"/>
</g>
<g>
	<path style="&st1;" d="M25.888,322.924c-0.754-0.104-1.489-0.317-2.184-0.632l0.823-1.822c0.521,0.235,1.072,0.395,1.637,0.474
		L25.888,322.924z M28.16,322.917l-0.291-1.978c0.568-0.084,1.118-0.246,1.635-0.484l0.835,1.818
		C29.649,322.589,28.916,322.806,28.16,322.917z M21.786,321.068c-0.579-0.498-1.082-1.073-1.497-1.711l1.677-1.09
		c0.311,0.478,0.689,0.91,1.124,1.283L21.786,321.068z M32.247,321.036l-1.311-1.51c0.431-0.374,0.806-0.809,1.116-1.29l1.683,1.082
		C33.323,319.96,32.822,320.538,32.247,321.036z M19.334,317.294c-0.218-0.729-0.33-1.484-0.334-2.248l2-0.01
		c0.003,0.572,0.087,1.14,0.25,1.686L19.334,317.294z M34.679,317.25l-1.92-0.563C32.919,316.143,33,315.574,33,315l2-0.099L35,315
		C35,315.765,34.892,316.522,34.679,317.25z M21.23,313.346l-1.923-0.551c0.21-0.732,0.524-1.431,0.933-2.075l1.688,1.072
		C21.622,312.274,21.387,312.797,21.23,313.346z M32.739,313.245c-0.166-0.545-0.41-1.063-0.725-1.542l1.67-1.1
		c0.42,0.638,0.746,1.33,0.968,2.058L32.739,313.245z M23.037,310.495l-1.321-1.502c0.574-0.505,1.214-0.923,1.903-1.244
		l0.845,1.813C23.947,309.802,23.467,310.116,23.037,310.495z M30.883,310.427c-0.436-0.371-0.922-0.678-1.443-0.91l0.815-1.826
		c0.694,0.31,1.341,0.718,1.923,1.211L30.883,310.427z M26.094,309.068l-0.298-1.979c0.75-0.112,1.518-0.119,2.271-0.019
		l-0.266,1.982C27.247,308.979,26.664,308.981,26.094,309.068z"/>
</g>
<g>
	<path style="&st4;" d="M45.565,313.298c0-0.472-0.312-0.726-0.773-0.726c-0.426,0-0.738,0.219-1.049,0.53l-0.933-0.853
		c0.542-0.622,1.302-1.049,2.201-1.049c1.233,0,2.179,0.611,2.179,1.971c0,1.43-1.729,1.857-1.59,3.228h-1.488
		C43.882,314.82,45.565,314.162,45.565,313.298z M43.836,318.139c0-0.61,0.426-1.072,1.014-1.072c0.589,0,1.026,0.462,1.026,1.072
		c0,0.6-0.437,1.061-1.026,1.061C44.262,319.2,43.836,318.739,43.836,318.139z"/>
</g>
<g>
	<path style="&st4;" d="M43.888,322.924c-0.754-0.104-1.489-0.317-2.184-0.632l0.823-1.822c0.521,0.235,1.072,0.395,1.637,0.474
		L43.888,322.924z M46.16,322.917l-0.291-1.978c0.568-0.084,1.118-0.246,1.635-0.484l0.835,1.818
		C47.649,322.589,46.916,322.806,46.16,322.917z M39.786,321.068c-0.579-0.498-1.082-1.073-1.496-1.711l1.677-1.09
		c0.311,0.478,0.689,0.91,1.124,1.283L39.786,321.068z M50.247,321.036l-1.311-1.51c0.431-0.374,0.806-0.809,1.116-1.29l1.683,1.082
		C51.323,319.96,50.822,320.538,50.247,321.036z M37.334,317.294c-0.218-0.729-0.33-1.484-0.334-2.248l2-0.01
		c0.003,0.572,0.087,1.14,0.25,1.686L37.334,317.294z M52.679,317.25l-1.92-0.563C50.919,316.143,51,315.574,51,315l2-0.099L53,315
		C53,315.765,52.892,316.522,52.679,317.25z M39.23,313.346l-1.923-0.551c0.21-0.732,0.524-1.431,0.933-2.075l1.688,1.072
		C39.622,312.274,39.387,312.797,39.23,313.346z M50.739,313.245c-0.166-0.545-0.41-1.063-0.725-1.542l1.67-1.1
		c0.42,0.638,0.746,1.33,0.968,2.058L50.739,313.245z M41.037,310.495l-1.321-1.502c0.574-0.505,1.214-0.923,1.903-1.244
		l0.845,1.813C41.947,309.802,41.467,310.116,41.037,310.495z M48.883,310.427c-0.437-0.371-0.922-0.678-1.443-0.91l0.815-1.826
		c0.694,0.31,1.341,0.718,1.923,1.211L48.883,310.427z M44.094,309.068l-0.298-1.979c0.75-0.112,1.518-0.119,2.271-0.019
		l-0.266,1.982C45.247,308.979,44.664,308.981,44.094,309.068z"/>
</g>
</svg>
