<?xml version="1.0" encoding="utf-8"?>
<!-- Generator: Adobe Illustrator 18.1.0, SVG Export Plug-In . SVG Version: 6.00 Build 0)  -->
<svg version="1.1" id="Layer_1" xmlns="http://www.w3.org/2000/svg" xmlns:xlink="http://www.w3.org/1999/xlink" x="0px" y="0px"
	 width="12px" height="12px" viewBox="0 0 12 12" enable-background="new 0 0 12 12" xml:space="preserve">
<path fill="#71B1E4" d="M6,0C2.6862793,0,0,2.6862793,0,6s2.6862793,6,6,6s6-2.6862793,6-6S9.3137207,0,6,0z M6,10
	c-2.2056274,0-4-1.7944336-4-4c0-2.2056274,1.7943726-4,4-4s4,1.7943726,4,4C10,8.2055664,8.2056274,10,6,10z"/>
<rect x="4" y="4" fill="#71B1E4" width="1" height="1"/>
<rect x="4" y="5" fill="#71B1E4" width="1" height="1"/>
<rect x="5" y="4" fill="#71B1E4" width="1" height="1"/>
<rect x="7" y="7" fill="#71B1E4" width="1" height="1"/>
<rect x="7" y="6" fill="#71B1E4" width="1" height="1"/>
<rect x="6" y="7" fill="#71B1E4" width="1" height="1"/>
</svg>
