<?xml version="1.0" encoding="utf-8"?>
<!-- Generator: Adobe Illustrator 19.2.1, SVG Export Plug-In . SVG Version: 6.00 Build 0)  -->
<svg version="1.1" id="Слой_4" xmlns="http://www.w3.org/2000/svg" xmlns:xlink="http://www.w3.org/1999/xlink" x="0px" y="0px"
	 width="96px" height="48px" viewBox="0 0 96 48" enable-background="new 0 0 96 48" xml:space="preserve">
<g>
	<path fill="#9A9FAF" d="M24,14c5.5140381,0,10,4.4859619,10,10s-4.4859619,10-10,10s-10-4.4859619-10-10S18.4859619,14,24,14
		 M24,12c-6.6274414,0-12,5.3726196-12,12c0,6.6274414,5.3725586,12,12,12c6.6273193,0,12-5.3725586,12-12
		C36,17.3726196,30.6273193,12,24,12L24,12z"/>
	<g>
		<path fill="#9A9FAF" d="M25.7421875,21.0390663l-1.8037109,6.2568359
			c-0.0996094,0.3574219-0.1494141,0.5927734-0.1494141,0.7041016c0,0.0644531,0.0263672,0.1240234,0.0791016,0.1796875
			s0.1083984,0.0839844,0.1669922,0.0839844c0.0996094,0,0.2001953-0.0439453,0.2998047-0.1318359
			c0.2636719-0.2167969,0.5800781-0.6103516,0.9501953-1.1796875l0.2988281,0.1767578
			c-0.8857422,1.5419922-1.8271484,2.3134766-2.8242188,2.3134766c-0.3818359,0-0.6855469-0.1064453-0.9111328-0.3212891
			c-0.2255859-0.2138672-0.3388672-0.4853516-0.3388672-0.8134766c0-0.2167969,0.0498047-0.4931641,0.1503906-0.8271484
			l1.2226563-4.2060547C23,22.870121,23.0585938,22.5644569,23.0585938,22.3593788
			c0-0.1289063-0.0556641-0.2431641-0.1669922-0.3427734s-0.2636719-0.1503906-0.4570313-0.1503906
			c-0.0888672,0-0.1943359,0.0039063-0.3173828,0.0087891l0.1142578-0.3515625l2.9833984-0.484375H25.7421875z
			 M25.1972656,16.9921913c0.3632813,0,0.6699219,0.1259766,0.9189453,0.3779297
			c0.25,0.2519531,0.3740234,0.5576172,0.3740234,0.9150391c0,0.3583984-0.1259766,0.6630859-0.3779297,0.9150391
			c-0.2529297,0.2529297-0.5576172,0.3789063-0.9150391,0.3789063c-0.3525391,0-0.6542969-0.1259766-0.90625-0.3789063
			c-0.2529297-0.2519531-0.3789063-0.5566406-0.3789063-0.9150391c0-0.3574219,0.125-0.6630859,0.3740234-0.9150391
			S24.8388672,16.9921913,25.1972656,16.9921913z"/>
	</g>
</g>
<g>
	<path fill="#FFFFFF" d="M72,14c5.5140381,0,10,4.4859619,10,10s-4.4859619,10-10,10s-10-4.4859619-10-10S66.4859619,14,72,14
		 M72,12c-6.6274414,0-12,5.3726196-12,12c0,6.6274414,5.3725586,12,12,12c6.6273193,0,12-5.3725586,12-12
		C84,17.3726196,78.6273193,12,72,12L72,12z"/>
	<g>
		<path fill="#FFFFFF" d="M73.7421875,21.0390663l-1.8037109,6.2568359
			c-0.0996094,0.3574219-0.1494141,0.5927734-0.1494141,0.7041016c0,0.0644531,0.0263672,0.1240234,0.0791016,0.1796875
			s0.1083984,0.0839844,0.1669922,0.0839844c0.0996094,0,0.2001953-0.0439453,0.2998047-0.1318359
			c0.2636719-0.2167969,0.5800781-0.6103516,0.9501953-1.1796875l0.2988281,0.1767578
			c-0.8857422,1.5419922-1.8271484,2.3134766-2.8242188,2.3134766c-0.3818359,0-0.6855469-0.1064453-0.9111328-0.3212891
			c-0.2255859-0.2138672-0.3388672-0.4853516-0.3388672-0.8134766c0-0.2167969,0.0498047-0.4931641,0.1503906-0.8271484
			l1.2226563-4.2060547C71,22.870121,71.0585938,22.5644569,71.0585938,22.3593788
			c0-0.1289063-0.0556641-0.2431641-0.1669922-0.3427734s-0.2636719-0.1503906-0.4570313-0.1503906
			c-0.0888672,0-0.1943359,0.0039063-0.3173828,0.0087891l0.1142578-0.3515625l2.9833984-0.484375H73.7421875z
			 M73.1972656,16.9921913c0.3632813,0,0.6699219,0.1259766,0.9189453,0.3779297
			c0.25,0.2519531,0.3740234,0.5576172,0.3740234,0.9150391c0,0.3583984-0.1259766,0.6630859-0.3779297,0.9150391
			c-0.2529297,0.2529297-0.5576172,0.3789063-0.9150391,0.3789063c-0.3525391,0-0.6542969-0.1259766-0.90625-0.3789063
			c-0.2529297-0.2519531-0.3789063-0.5566406-0.3789063-0.9150391c0-0.3574219,0.125-0.6630859,0.3740234-0.9150391
			S72.8388672,16.9921913,73.1972656,16.9921913z"/>
	</g>
</g>
</svg>
