<?xml version="1.0" encoding="utf-8"?>
<!DOCTYPE svg PUBLIC "-//W3C//DTD SVG 1.1//EN" "http://www.w3.org/Graphics/SVG/1.1/DTD/svg11.dtd" [
	<!ENTITY st0 "fill:#FFFFFF;">
	<!ENTITY st1 "fill:#808080;">
	<!ENTITY st2 "fill:#BFBFBF;">
	<!ENTITY st3 "fill:#71B1E4;">
	<!ENTITY st4 "fill:#F7931E;">
	<!ENTITY st5 "fill:#D9D9D9;">
]>
<svg version="1.1" id="img" xmlns="http://www.w3.org/2000/svg" xmlns:xlink="http://www.w3.org/1999/xlink" x="0px" y="0px"
	 width="54px" height="216px" viewBox="0 0 54 216" style="enable-background:new 0 0 54 216;" xml:space="preserve">
<path id="forecast.inverted" style="&st0;" d="M39,213h13v1H38v-14h1V213z M49.358,203.935l-1.424,1.424l0.707,0.707l1.424-1.424
	L49.358,203.935z M44.5,206.207l2,2l1.414-1.414l-0.707-0.707l-0.707,0.707l-2-2l-4.354,4.354l0.707,0.707L44.5,206.207z M49,202
	l3,3v-3H49z"/>
<g id="forecast.disabled">
	<g>
		<polygon style="&st1;" points="21,213 21,200 20,200 20,214 34,214 34,213 		"/>
	</g>
	
		<rect x="29.993" y="204.5" transform="matrix(0.7071 -0.7071 0.7071 0.7071 -135.8772 81.9634)" style="&st2;" width="2.014" height="1"/>
	<g>
		<polygon style="&st1;" points="29.207,206.086 28.5,206.793 26.5,204.793 22.146,209.146 22.854,209.854 26.5,206.207 
			28.5,208.207 29.914,206.793 		"/>
	</g>
	<polygon style="&st2;" points="34,205 34,202 31,202 	"/>
</g>
<g id="forecast.default">
	<g>
		<polygon style="&st3;" points="3,213 3,200 2,200 2,214 16,214 16,213 		"/>
	</g>
	
		<rect x="11.993" y="204.5" transform="matrix(0.7071 -0.7071 0.7071 0.7071 -141.1493 69.2355)" style="&st4;" width="2.014" height="1"/>
	<polygon style="&st3;" points="11.207,206.086 10.5,206.793 8.5,204.793 4.146,209.146 4.854,209.854 8.5,206.207 10.5,208.207 
		11.914,206.793 	"/>
	<polygon style="&st4;" points="16,205 16,202 13,202 	"/>
</g>
<path id="item.inverted" style="&st0;" d="M49,194v1h-9v2l-3-2.5l3-2.5v2H49z M53,183.5l-3-2.5v2h-9v1h9v2L53,183.5z
	 M48.934,191.748c0.089-0.156,0.089-0.347-0.002-0.502l-3.5-6.016c-0.178-0.307-0.686-0.307-0.863,0l-3.5,6.016
	c-0.091,0.155-0.091,0.346-0.002,0.502S41.321,192,41.5,192h7C48.679,192,48.845,191.904,48.934,191.748z M45,186.49l2.63,4.511
	h-5.26L45,186.49z"/>
<g id="item.disabled">
	<polygon style="&st1;" points="22,194 22,192 19,194.5 22,197 22,195 31,195 31,194 	"/>
	<polygon style="&st1;" points="35,183.5 32,181 32,183 23,183 23,184 32,184 32,186 	"/>
	<g>
		<path style="&st2;" d="M30.5,192h-7c-0.179,0-0.345-0.096-0.434-0.252s-0.089-0.347,0.002-0.502l3.5-6.016
			c0.178-0.307,0.686-0.307,0.863,0l3.5,6.016c0.091,0.155,0.091,0.346,0.002,0.502S30.679,192,30.5,192z M24.37,191.001h5.26
			L27,186.49L24.37,191.001z"/>
	</g>
</g>
<g id="item.default">
	<polygon style="&st3;" points="4,194 4,192 1,194.5 4,197 4,195 13,195 13,194 	"/>
	<polygon style="&st3;" points="17,183.5 14,181 14,183 5,183 5,184 14,184 14,186 	"/>
	<g>
		<path style="&st4;" d="M12.5,192h-7c-0.179,0-0.345-0.096-0.434-0.252s-0.089-0.347,0.002-0.502l3.5-6.016
			c0.178-0.307,0.686-0.307,0.863,0l3.5,6.016c0.091,0.155,0.091,0.346,0.002,0.502S12.679,192,12.5,192z M6.37,191.001h5.26
			L9,186.49L6.37,191.001z"/>
	</g>
</g>
<path id="transaction.inverted" style="&st0;" d="M49,173v1h-9v2l-3-2.5l3-2.5v2H49z M53,168.5l-3-2.5v2h-9v1h9v2L53,168.5z"/>
<g id="transaction.disabled">
	<polygon style="&st1;" points="22,173 22,171 19,173.5 22,176 22,174 31,174 31,173 	"/>
	<polygon style="&st1;" points="35,168.5 32,166 32,168 23,168 23,169 32,169 32,171 	"/>
</g>
<g id="transaction.default">
	<polygon style="&st3;" points="4,173 4,171 1,173.5 4,176 4,174 13,174 13,173 	"/>
	<polygon style="&st3;" points="17,168.5 14,166 14,168 5,168 5,169 14,169 14,171 	"/>
</g>
<g id="replace-by.inverted">
	<polygon style="&st0;" points="43,153 40,150 40,152 37,152 37,154 40,154 40,156 	"/>
	<path style="&st0;" d="M50.654,151.368C50.868,150.956,51,150.495,51,150c0-1.654-1.346-3-3-3h-4v12h5c2.206,0,4-1.794,4-4
		C53,153.386,52.034,152,50.654,151.368z M46,149h2c0.551,0,1,0.448,1,1s-0.449,1-1,1h-2V149z M49,157h-3v-4h3c1.103,0,2,0.897,2,2
		S50.103,157,49,157z"/>
</g>
<g id="replace-by.disabled">
	<polygon style="&st1;" points="25,153 22,150 22,152 19,152 19,154 22,154 22,156 	"/>
	<path style="&st1;" d="M32.654,151.368C32.868,150.956,33,150.495,33,150c0-1.654-1.346-3-3-3h-4v12h5c2.206,0,4-1.794,4-4
		C35,153.386,34.034,152,32.654,151.368z M28,149h2c0.551,0,1,0.448,1,1s-0.449,1-1,1h-2V149z M31,157h-3v-4h3c1.103,0,2,0.897,2,2
		S32.103,157,31,157z"/>
</g>
<g id="replace-by.default">
	<polygon style="&st4;" points="7,153 4,150 4,152 1,152 1,154 4,154 4,156 	"/>
	<path style="&st4;" d="M14.654,151.368C14.868,150.956,15,150.495,15,150c0-1.654-1.346-3-3-3H8v12h5c2.206,0,4-1.794,4-4
		C17,153.386,16.034,152,14.654,151.368z M10,149h2c0.551,0,1,0.448,1,1s-0.449,1-1,1h-2V149z M13,157h-3v-4h3c1.103,0,2,0.897,2,2
		S14.103,157,13,157z"/>
</g>
<g id="source.inverted">
	<polygon style="&st0;" points="53,135 50,132 50,134 47,134 47,136 50,136 50,138 	"/>
	<path style="&st0;" d="M44,141h2l-3-12h-3l-3,12h2l0.5-2h4L44,141z M40,137l1.5-6l1.5,6H40z"/>
</g>
<g id="source.disabled">
	<polygon style="&st1;" points="35,135 32,132 32,134 29,134 29,136 32,136 32,138 	"/>
	<path style="&st1;" d="M26,141h2l-3-12h-3l-3,12h2l0.5-2h4L26,141z M22,137l1.5-6l1.5,6H22z"/>
</g>
<g id="source.default">
	<polygon style="&st3;" points="17,135 14,132 14,134 11,134 11,136 14,136 14,138 	"/>
	<path style="&st3;" d="M8,141h2l-3-12H4l-3,12h2l0.5-2h4L8,141z M4,137l1.5-6l1.5,6H4z"/>
</g>
<g id="useless.inverted">
	
		<rect x="44.5" y="112.757" transform="matrix(0.707 0.7072 -0.7072 0.707 95.9279 2.4559)" style="&st0;" width="1" height="8.485"/>
	
		<rect x="44.5" y="112.757" transform="matrix(-0.707 0.7072 -0.7072 -0.707 159.5585 167.8955)" style="&st0;" width="1" height="8.485"/>
	<path style="&st0;" d="M45,112c2.757,0,5,2.243,5,5s-2.243,5-5,5s-5-2.243-5-5S42.243,112,45,112 M45,111c-3.314,0-6,2.686-6,6
		s2.686,6,6,6s6-2.686,6-6S48.314,111,45,111L45,111z"/>
</g>
<g id="useless.disabled">
	
		<rect x="26.5" y="112.757" transform="matrix(0.707 0.7072 -0.7072 0.707 90.654 15.1856)" style="&st5;" width="1" height="8.485"/>
	
		<rect x="26.5" y="112.757" transform="matrix(-0.707 0.7072 -0.7072 -0.707 128.8324 180.6252)" style="&st5;" width="1" height="8.485"/>
	<path style="&st1;" d="M27,112c2.757,0,5,2.243,5,5s-2.243,5-5,5s-5-2.243-5-5S24.243,112,27,112 M27,111c-3.314,0-6,2.686-6,6
		s2.686,6,6,6s6-2.686,6-6S30.314,111,27,111L27,111z"/>
</g>
<g id="useless.default">
	
		<rect x="8.5" y="112.757" transform="matrix(0.7071 0.7072 -0.7072 0.7071 85.3738 27.9099)" style="&st4;" width="1" height="8.485"/>
	
		<rect x="8.5" y="112.757" transform="matrix(-0.7071 0.7072 -0.7072 -0.7071 98.1009 193.3612)" style="&st4;" width="1" height="8.485"/>
	<path style="&st3;" d="M9,112c2.757,0,5,2.243,5,5s-2.243,5-5,5c-2.757,0-5-2.243-5-5S6.243,112,9,112 M9,111c-3.314,0-6,2.686-6,6
		s2.686,6,6,6c3.314,0,6-2.686,6-6S12.314,111,9,111L9,111z"/>
</g>
<g id="group.inverted">
	<polygon style="&st0;" points="52,103.5 49,101 49,103 41,103 41,95 43,95 40.5,92 38,95 40,95 40,103 38,103 38,104 40,104 
		40,106 41,106 41,104 49,104 49,106 	"/>
	<rect x="43" y="102" style="&st0;" width="1" height="1"/>
	<rect x="45" y="102" style="&st0;" width="1" height="1"/>
	<rect x="47" y="102" style="&st0;" width="1" height="1"/>
	<rect x="41" y="96" style="&st0;" width="1" height="1"/>
	<rect x="41" y="98" style="&st0;" width="1" height="1"/>
	<rect x="41" y="100" style="&st0;" width="1" height="1"/>
</g>
<g id="group.disabled">
	<polygon style="&st1;" points="34,103.5 31,101 31,103 23,103 23,95 25,95 22.5,92 20,95 22,95 22,103 20,103 20,104 22,104 
		22,106 23,106 23,104 31,104 31,106 	"/>
	<rect x="25" y="102" style="&st5;" width="1" height="1"/>
	<rect x="27" y="102" style="&st5;" width="1" height="1"/>
	<rect x="29" y="102" style="&st5;" width="1" height="1"/>
	<rect x="23" y="96" style="&st5;" width="1" height="1"/>
	<rect x="23" y="98" style="&st5;" width="1" height="1"/>
	<rect x="23" y="100" style="&st5;" width="1" height="1"/>
</g>
<g id="group.default">
	<rect x="4" y="93" style="&st3;" width="1" height="13"/>
	<rect x="2" y="103" style="&st3;" width="13" height="1"/>
	<polygon style="&st3;" points="2,95 4.5,92 7,95 	"/>
	<polygon style="&st3;" points="13,101 16,103.5 13,106 	"/>
	<rect x="7" y="102" style="&st4;" width="1" height="1"/>
	<rect x="9" y="102" style="&st4;" width="1" height="1"/>
	<rect x="11" y="102" style="&st4;" width="1" height="1"/>
	<rect x="5" y="96" style="&st4;" width="1" height="1"/>
	<rect x="5" y="98" style="&st4;" width="1" height="1"/>
	<rect x="5" y="100" style="&st4;" width="1" height="1"/>
</g>
<path id="value.inverted" style="&st0;" d="M40.821,75h7.719v1.023h-6.163l3.785,4.838l-4.053,5.134h6.493V87h-7.888v-1.167
	l3.869-4.921l-3.763-4.82V75z"/>
<path id="value.disabled" style="&st1;" d="M22.821,75h7.719v1.023h-6.163l3.785,4.838l-4.053,5.134h6.493V87h-7.888v-1.167
	l3.869-4.921l-3.763-4.82V75z"/>
<path id="value.default" style="&st3;" d="M4.821,75h7.719v1.023H6.377l3.785,4.838L6.11,85.995h6.493V87H4.715v-1.167l3.869-4.921
	l-3.763-4.82V75z"/>
<path id="unused.inverted" style="&st0;" d="M52,68.973h-0.82c-5.212-2.178-4.681-5.748-4.117-7.34l3.791-3.783l-0.707-0.705
	l-3.867,3.858c-3.624,0.971-5.874,0.045-7.279-2.995V56h-1v12.973v0.998h1h11.969c0.023,0.01,0.042,0.019,0.065,0.029l0.012-0.029
	H52V68.973z M43.809,62.368c0.381,0,0.784-0.038,1.196-0.093l-1.702,1.698c-2.118,0.756-3.46,0.318-4.303-1.417v-2.58
	C40.181,61.57,41.77,62.368,43.809,62.368z M42.633,66.053c0.007,0.963,0.369,1.991,1.421,2.92h-4.347L42.633,66.053z M39,68.268
	v-3.963c0.675,0.682,1.516,1.028,2.525,1.028c0.143,0,0.291-0.012,0.44-0.025L39,68.268z M45.768,68.973l0.006-0.012
	c-1.905-1.052-2.514-2.366-1.925-4.118c0.015-0.006,0.027-0.009,0.042-0.015l-0.009-0.021l1.879-1.875
	c-0.175,1.736,0.256,4.168,3.228,6.041H45.768z"/>
<path id="unused.disabled" style="&st1;" d="M34,68.973h-0.82c-5.212-2.178-4.681-5.748-4.117-7.34l3.791-3.783l-0.707-0.705
	l-3.867,3.858c-3.624,0.971-5.874,0.045-7.279-2.995V56h-1v12.973v0.998h1h11.969c0.023,0.01,0.042,0.019,0.065,0.029l0.012-0.029
	H34V68.973z M25.809,62.368c0.381,0,0.784-0.038,1.196-0.093l-1.702,1.698c-2.118,0.756-3.46,0.318-4.303-1.417v-2.58
	C22.181,61.57,23.77,62.368,25.809,62.368z M24.633,66.053c0.007,0.963,0.369,1.991,1.421,2.92h-4.347L24.633,66.053z M21,68.268
	v-3.963c0.675,0.682,1.516,1.028,2.525,1.028c0.143,0,0.291-0.012,0.44-0.025L21,68.268z M27.768,68.973l0.006-0.012
	c-1.905-1.052-2.514-2.366-1.925-4.118c0.015-0.006,0.027-0.009,0.042-0.015l-0.009-0.021l1.879-1.875
	c-0.175,1.736,0.256,4.168,3.228,6.041H27.768z"/>
<path id="unused.default" style="&st3;" d="M16,68.973h-0.821c-5.211-2.178-4.68-5.748-4.117-7.34l3.791-3.783l-0.707-0.705
	l-3.867,3.858C6.656,61.974,4.405,61.048,3,58.008V56H2v12.973v0.998h1h11.969c0.023,0.01,0.042,0.019,0.065,0.029l0.012-0.029H16
	V68.973z M7.809,62.368c0.381,0,0.784-0.038,1.196-0.093l-1.702,1.698C5.185,64.729,3.843,64.292,3,62.557v-2.58
	C4.181,61.57,5.77,62.368,7.809,62.368z M6.633,66.053c0.006,0.963,0.369,1.991,1.42,2.92H3.707L6.633,66.053z M3,68.268v-3.963
	c0.674,0.682,1.516,1.028,2.525,1.028c0.143,0,0.291-0.012,0.44-0.025L3,68.268z M9.767,68.973l0.006-0.012
	c-1.906-1.052-2.514-2.366-1.925-4.118c0.014-0.006,0.027-0.009,0.042-0.015l-0.008-0.021l1.878-1.875
	c-0.175,1.736,0.256,4.168,3.228,6.041H9.767z"/>
<g id="unspecified.inverted">
	<path style="&st0;" d="M46.59,50.227C45.637,51.409,44.806,52,44.096,52c-0.731,0-1.098-0.288-1.098-0.865
		c0-0.251,0.23-1.241,0.688-2.971c0.555-2.128,0.832-3.292,0.832-3.491c0-0.214-0.134-0.321-0.399-0.321
		c-0.222,0-0.609,0.341-1.164,1.02c-0.015,0.022-0.036,0.033-0.066,0.033c-0.074,0-0.153-0.047-0.237-0.144
		c-0.086-0.097-0.129-0.186-0.129-0.267c0-0.036,0.009-0.063,0.022-0.077c0.968-1.197,1.804-1.796,2.505-1.796
		c0.724,0,1.087,0.303,1.087,0.909c0,0.354-0.222,1.341-0.665,2.959c-0.555,2.062-0.832,3.218-0.832,3.47
		c0,0.214,0.125,0.321,0.377,0.321c0.214,0,0.61-0.332,1.187-0.997c0.014-0.022,0.033-0.033,0.055-0.033
		c0.067,0,0.143,0.047,0.229,0.144c0.084,0.097,0.127,0.181,0.127,0.255C46.612,50.186,46.604,50.212,46.59,50.227z"/>
	<path style="&st0;" d="M47,39.064c0,0.34-0.146,0.655-0.438,0.948c-0.292,0.291-0.601,0.437-0.925,0.437
		c-0.354,0-0.645-0.103-0.871-0.31c-0.225-0.208-0.337-0.476-0.337-0.809c0-0.324,0.147-0.629,0.443-0.909
		c0.296-0.28,0.601-0.421,0.92-0.421C46.598,38,47,38.354,47,39.064z"/>
</g>
<g id="unspecified.disabled">
	<path style="&st1;" d="M28.59,50.227C27.637,51.409,26.806,52,26.096,52c-0.731,0-1.098-0.288-1.098-0.865
		c0-0.251,0.231-1.241,0.688-2.971c0.555-2.128,0.832-3.292,0.832-3.491c0-0.214-0.134-0.321-0.399-0.321
		c-0.222,0-0.609,0.341-1.164,1.02c-0.015,0.022-0.036,0.033-0.066,0.033c-0.074,0-0.153-0.047-0.237-0.144
		c-0.086-0.097-0.129-0.186-0.129-0.267c0-0.036,0.009-0.063,0.022-0.077c0.968-1.197,1.804-1.796,2.505-1.796
		c0.724,0,1.087,0.303,1.087,0.909c0,0.354-0.222,1.341-0.665,2.959c-0.555,2.062-0.832,3.218-0.832,3.47
		c0,0.214,0.125,0.321,0.377,0.321c0.214,0,0.61-0.332,1.187-0.997c0.014-0.022,0.033-0.033,0.055-0.033
		c0.067,0,0.143,0.047,0.229,0.144c0.084,0.097,0.127,0.181,0.127,0.255C28.612,50.186,28.604,50.212,28.59,50.227z"/>
	<path style="&st5;" d="M29,39.064c0,0.34-0.146,0.655-0.438,0.948c-0.292,0.291-0.601,0.437-0.925,0.437
		c-0.354,0-0.644-0.103-0.871-0.31c-0.225-0.208-0.337-0.476-0.337-0.809c0-0.324,0.148-0.629,0.443-0.909
		c0.296-0.28,0.601-0.421,0.92-0.421C28.598,38,29,38.354,29,39.064z"/>
</g>
<g id="unspecified.default">
	<path style="&st3;" d="M10.59,50.227C9.637,51.409,8.805,52,8.096,52c-0.731,0-1.097-0.288-1.097-0.865
		c0-0.251,0.229-1.241,0.687-2.971c0.554-2.128,0.832-3.292,0.832-3.491c0-0.214-0.133-0.321-0.399-0.321
		c-0.222,0-0.61,0.341-1.164,1.02c-0.014,0.022-0.037,0.033-0.066,0.033c-0.075,0-0.154-0.047-0.238-0.144
		c-0.085-0.097-0.128-0.186-0.128-0.267c0-0.036,0.008-0.063,0.022-0.077c0.968-1.197,1.804-1.796,2.505-1.796
		c0.724,0,1.086,0.303,1.086,0.909c0,0.354-0.222,1.341-0.665,2.959c-0.554,2.062-0.831,3.218-0.831,3.47
		c0,0.214,0.125,0.321,0.377,0.321c0.213,0,0.609-0.332,1.186-0.997c0.015-0.022,0.034-0.033,0.056-0.033
		c0.066,0,0.143,0.047,0.228,0.144c0.084,0.097,0.126,0.181,0.126,0.255C10.612,50.186,10.604,50.212,10.59,50.227z"/>
	<path style="&st4;" d="M11,39.064c0,0.34-0.146,0.655-0.439,0.948c-0.291,0.291-0.6,0.437-0.925,0.437
		c-0.355,0-0.645-0.103-0.871-0.31c-0.225-0.208-0.337-0.476-0.337-0.809c0-0.324,0.147-0.629,0.443-0.909
		C9.168,38.141,9.474,38,9.792,38C10.598,38,11,38.354,11,39.064z"/>
</g>
<g id="predicted.inverted">
	<polygon style="&st0;" points="49,23 52,27 49,31 	"/>
	<polygon style="&st0;" points="46,29 46,33 39,33 39,21 46,21 46,25 47,25 47,20 38,20 38,34 47,34 47,29 	"/>
	<rect x="41" y="26" transform="matrix(-1 -1.224647e-16 1.224647e-16 -1 90 54)" style="&st0;" width="8" height="2"/>
</g>
<g id="predicted.disabled">
	<polygon style="&st1;" points="31,23 34,27 31,31 	"/>
	<polygon style="&st5;" points="28,29 28,33 21,33 21,21 28,21 28,25 29,25 29,20 20,20 20,34 29,34 29,29 	"/>
	<rect x="23" y="26" transform="matrix(-1 -1.224647e-16 1.224647e-16 -1 54 54)" style="&st1;" width="8" height="2"/>
</g>
<g id="predicted.default">
	<polygon style="&st4;" points="13,23 16,27 13,31 	"/>
	<polygon style="&st3;" points="10,29 10,33 3,33 3,21 10,21 10,25 11,25 11,20 2,20 2,34 11,34 11,29 	"/>
	<rect x="5" y="26" transform="matrix(-1 -1.224647e-16 1.224647e-16 -1 18 54)" style="&st4;" width="8" height="2"/>
</g>
<g id="active.inverted">
	<polygon style="&st0;" points="43,2 43,7 44,7 44,3 51,3 51,15 44,15 44,11 43,11 43,16 52,16 52,2 	"/>
	<polygon style="&st0;" points="49,9 46,5 46,8 38,8 38,10 46,10 46,13 	"/>
</g>
<g id="active.disabled">
	<polygon style="&st5;" points="25,2 25,7 26,7 26,3 33,3 33,15 26,15 26,11 25,11 25,16 34,16 34,2 	"/>
	<polygon style="&st1;" points="31,9 28,5 28,8 20,8 20,10 28,10 28,13 	"/>
</g>
<g id="active.default">
	<polygon style="&st3;" points="7,2 7,7 8,7 8,3 15,3 15,15 8,15 8,11 7,11 7,16 16,16 16,2 	"/>
	<polygon style="&st4;" points="13,9 10,5 10,8 2,8 2,10 10,10 10,13 	"/>
</g>
</svg>
