<?xml version="1.0" encoding="utf-8"?>
<!-- BG Correct +width height -ENTITY -metadata -->
<!-- Generator: Adobe Illustrator 18.1.0, SVG Export Plug-In . SVG Version: 6.00 Build 0)  -->
<svg version="1.1" id="Слой_2" xmlns="http://www.w3.org/2000/svg" xmlns:xlink="http://www.w3.org/1999/xlink" x="0px" y="0px"
	 width="4.0000401px" height="15px" viewBox="0 0 4.0000401 15" enable-background="new 0 0 4.0000401 15" xml:space="preserve">
<polygon fill="#636F80" points="2.0000417,6 2.0000417,7 1.0000417,7 1.0000417,8 2.0000417,8 2.0000417,9 3.0000417,9 3.0000417,8 
	3.0000417,7 3.0000417,6 "/>
<polygon fill="#636F80" points="2.0000417,11 2.0000417,12 1.0000417,12 1.0000417,13 2.0000417,13 2.0000417,14 3.0000417,14 
	3.0000417,13 3.0000417,12 3.0000417,11 "/>
<polygon fill="#636F80" points="2.0000417,1 2.0000417,2 1.0000417,2 1.0000417,3 2.0000417,3 2.0000417,4 3.0000417,4 3.0000417,3 
	3.0000417,2 3.0000417,1 "/>
</svg>
