<?xml version="1.0" encoding="utf-8"?>
<!-- BG Correct +width height -ENTITY -metadata -->
<!-- Generator: Adobe Illustrator 18.1.0, SVG Export Plug-In . SVG Version: 6.00 Build 0)  -->
<svg version="1.1" id="Слой_2" xmlns="http://www.w3.org/2000/svg" xmlns:xlink="http://www.w3.org/1999/xlink" x="0px" y="0px"
	 width="15px" height="4px" viewBox="0 0 15 4" enable-background="new 0 0 15 4" xml:space="preserve">
<polygon fill="#636F80" points="14,1.9999996 13,1.9999996 13,0.9999997 12,0.9999997 12,1.9999996 11,1.9999996 11,2.9999998 
	12,2.9999998 13,2.9999998 14,2.9999998 "/>
<polygon fill="#636F80" points="9,1.9999996 7.9999995,1.9999996 7.9999995,0.9999997 6.9999995,0.9999997 6.9999995,1.9999996 
	5.9999995,1.9999996 5.9999995,2.9999998 6.9999995,2.9999998 7.9999995,2.9999998 9,2.9999998 "/>
<polygon fill="#636F80" points="3.9999998,1.9999996 2.9999998,1.9999996 2.9999998,0.9999997 1.9999996,0.9999997 
	1.9999996,1.9999996 0.9999997,1.9999996 0.9999997,2.9999998 1.9999996,2.9999998 2.9999998,2.9999998 3.9999998,2.9999998 "/>
</svg>
