<?xml version="1.0" encoding="utf-8"?>
<!-- BG Correct +width height -ENTITY -metadata -->
<!-- Generator: Adobe Illustrator 18.1.0, SVG Export Plug-In . SVG Version: 6.00 Build 0)  -->
<svg version="1.1" id="Слой_2" xmlns="http://www.w3.org/2000/svg" xmlns:xlink="http://www.w3.org/1999/xlink" x="0px" y="0px"
	 width="15px" height="4px" viewBox="0 0 15 4" enable-background="new 0 0 15 4" xml:space="preserve">
<polygon fill="#636F80" points="1,2 2,2 2,3 3,3 3,2 4,2 4,1 3,1 2,1 1,1 "/>
<polygon fill="#636F80" points="6,2 7,2 7,3 8,3 8,2 9,2 9,1 8,1 7,1 6,1 "/>
<polygon fill="#636F80" points="11,2 12,2 12,3 13,3 13,2 14,2 14,1 13,1 12,1 11,1 "/>
</svg>
