<?xml version="1.0" encoding="utf-8"?>
<!DOCTYPE svg PUBLIC "-//W3C//DTD SVG 1.1//EN" "http://www.w3.org/Graphics/SVG/1.1/DTD/svg11.dtd" [
	<!ENTITY st0 "fill:#FFFFFF;">
	<!ENTITY st1 "fill:#9A9FAF;">
	<!ENTITY st2 "fill-rule:evenodd;clip-rule:evenodd;fill:#FFFFFF;">
	<!ENTITY st3 "fill-rule:evenodd;clip-rule:evenodd;fill:#9A9FAF;">
	<!ENTITY st4 "fill:#71B1E4;">
	<!ENTITY st5 "fill:#A23938;">
	<!ENTITY st6 "fill:#475B72;">
	<!ENTITY st7 "fill:#333333;">
	<!ENTITY st8 "fill:#7D2B29;">
	<!ENTITY st9 "fill:#E7D2D5;">
]>
<svg version="1.1" id="img" xmlns="http://www.w3.org/2000/svg" xmlns:xlink="http://www.w3.org/1999/xlink" x="0px" y="0px"
	 width="48px" height="48px" viewBox="0 0 48 48" style="enable-background:new 0 0 48 48;" xml:space="preserve">
<g id="admin.default">
	<g>
		<path style="&st1;" d="M16,32h7.407c-0.102-0.484-0.157-0.986-0.157-1.5c0-3.445,2.406-6.323,5.627-7.061l0.055-0.129l0.288-1.35
			l0.168,0.112l2.612,0.3l-2.092-2.52l-0.776-4.178l-1.788-1.836l-0.282-0.064l0.024-0.234l-0.59-0.138l0.894-0.712l-1.648-0.598
			l-0.356,0.652l0.004-0.462L23.662,12l0.334,0.816l-0.81-0.19l-0.09,0.242l-1.366-0.312l-4.012,1.928l-2.294,4.506l-2.896,1.814
			l3.388,0.406l0.672-0.202l0.16,2.994l1.04,0.104l0.286,1.12l-2.014,1.05l-1.34,3.08l-0.37,0.18v-0.87H12v2.284h2.35l0.612-0.516
			l1.476-3.9l1.706-1.03l0.412,1.608l-1.222,0.424L16,32z"/>
	</g>
	<path style="&st3;" d="M30.5,27.794c1.493,0,2.706,1.212,2.706,2.706s-1.213,2.706-2.706,2.706s-2.706-1.213-2.706-2.706
		S29.007,27.794,30.5,27.794z M31.573,25.106c-0.708-0.141-1.438-0.141-2.146,0l-0.431,1.217c-0.131,0.047-0.26,0.101-0.386,0.16
		l-1.165-0.556c-0.601,0.401-1.116,0.917-1.517,1.518l0.556,1.165c-0.059,0.126-0.113,0.255-0.16,0.386l-1.217,0.431
		c-0.141,0.708-0.141,1.438,0,2.146l1.217,0.431c0.047,0.131,0.101,0.26,0.16,0.386l-0.556,1.165
		c0.401,0.601,0.917,1.116,1.517,1.517l1.165-0.556c0.126,0.059,0.255,0.113,0.386,0.16l0.431,1.217
		c0.708,0.141,1.438,0.141,2.146,0l0.431-1.217c0.131-0.047,0.26-0.101,0.386-0.16l1.165,0.556c0.601-0.401,1.116-0.917,1.518-1.517
		l-0.556-1.165c0.059-0.126,0.113-0.255,0.16-0.386l1.217-0.431c0.141-0.708,0.141-1.438,0-2.146l-1.217-0.431
		c-0.047-0.131-0.101-0.26-0.16-0.386l0.556-1.165c-0.401-0.601-0.917-1.116-1.518-1.518l-1.165,0.556
		c-0.126-0.059-0.255-0.113-0.386-0.16L31.573,25.106z"/>
</g>
</svg>
