<?xml version="1.0" encoding="utf-8"?>
<!-- Generator: Adobe Illustrator 25.4.1, SVG Export Plug-In . SVG Version: 6.00 Build 0)  -->
<!DOCTYPE svg PUBLIC "-//W3C//DTD SVG 1.1//EN" "http://www.w3.org/Graphics/SVG/1.1/DTD/svg11.dtd" [
	<!ENTITY st0 "display:none;">
	<!ENTITY st1 "display:inline;fill:#373943;">
	<!ENTITY st2 "fill:#FFFFFF;">
	<!ENTITY st3 "fill:#9A9FAF;">
	<!ENTITY st4 "fill:#71B1E4;">
	<!ENTITY st5 "fill:#A23938;">
	<!ENTITY st6 "fill:#475B72;">
	<!ENTITY st7 "fill:#333333;">
	<!ENTITY st8 "fill:#7D2B29;">
	<!ENTITY st9 "fill:#E7D2D5;">
]>
<svg version="1.1" xmlns="http://www.w3.org/2000/svg" xmlns:xlink="http://www.w3.org/1999/xlink" x="0px" y="0px" width="24px"
	 height="24px" viewBox="0 0 24 24" style="enable-background:new 0 0 24 24;" xml:space="preserve">
<g id="background" style="&st0;">
	<rect x="-12" y="-300" style="&st1;" width="96" height="336"/>
</g>
<g id="img">
	<g id="admin.default">
		<path style="&st3;" d="M4,20h7.407c-0.102-0.484-0.157-0.986-0.157-1.5c0-3.445,2.406-6.323,5.627-7.061l0.055-0.129l0.288-1.35
			l0.168,0.112l2.612,0.3l-2.092-2.52l-0.776-4.178l-1.788-1.836l-0.282-0.064l0.024-0.234l-0.59-0.138L15.39,0.69l-1.648-0.598
			l-0.356,0.652l0.004-0.462L11.662,0l0.334,0.816l-0.81-0.19l-0.09,0.242L9.73,0.556L5.718,2.484L3.424,6.99L0.528,8.804
			L3.916,9.21l0.672-0.202l0.16,2.994l1.04,0.104l0.286,1.12l-2.014,1.05l-1.34,3.08l-0.37,0.18v-0.87H0v2.284h2.35l0.612-0.516
			l1.476-3.9l1.706-1.03l0.412,1.608l-1.222,0.424L4,20z"/>
		<path style="&st3;" d="M18.5,15.794c1.493,0,2.706,1.213,2.706,2.706s-1.212,2.706-2.706,2.706s-2.706-1.212-2.706-2.706
			S17.007,15.794,18.5,15.794z M19.573,13.106c-0.708-0.141-1.438-0.141-2.146,0l-0.431,1.217c-0.131,0.047-0.26,0.101-0.386,0.16
			l-1.165-0.556c-0.601,0.401-1.116,0.917-1.517,1.518l0.556,1.165c-0.059,0.126-0.113,0.255-0.16,0.386l-1.217,0.431
			c-0.141,0.708-0.141,1.438,0,2.146l1.217,0.431c0.047,0.131,0.101,0.26,0.16,0.386l-0.556,1.165
			c0.401,0.601,0.917,1.116,1.517,1.517l1.165-0.556c0.126,0.059,0.255,0.113,0.386,0.16l0.431,1.217
			c0.708,0.141,1.438,0.141,2.146,0l0.431-1.217c0.131-0.047,0.26-0.101,0.386-0.16l1.165,0.556
			c0.601-0.401,1.116-0.917,1.517-1.517l-0.556-1.165c0.059-0.126,0.113-0.255,0.16-0.386l1.217-0.431
			c0.141-0.708,0.141-1.438,0-2.146l-1.217-0.431c-0.047-0.131-0.101-0.26-0.16-0.386l0.556-1.165
			c-0.401-0.601-0.917-1.116-1.517-1.518l-1.165,0.556c-0.126-0.059-0.255-0.113-0.386-0.16L19.573,13.106z"/>
	</g>
</g>
<g id="guides-outside" style="&st0;">
</g>
</svg>
