<?xml version="1.0" encoding="utf-8"?>
<!-- Generator: Adobe Illustrator 25.4.1, SVG Export Plug-In . SVG Version: 6.00 Build 0)  -->
<!DOCTYPE svg PUBLIC "-//W3C//DTD SVG 1.1//EN" "http://www.w3.org/Graphics/SVG/1.1/DTD/svg11.dtd" [
	<!ENTITY st0 "display:none;">
	<!ENTITY st1 "display:inline;fill:#373943;">
	<!ENTITY st2 "fill:#FFFFFF;">
	<!ENTITY st3 "fill:#9A9FAF;">
	<!ENTITY st4 "fill:#71B1E4;">
	<!ENTITY st5 "fill:#A23938;">
	<!ENTITY st6 "fill:#475B72;">
	<!ENTITY st7 "fill:#333333;">
	<!ENTITY st8 "fill:#7D2B29;">
	<!ENTITY st9 "fill:#E7D2D5;">
]>
<svg version="1.1" xmlns="http://www.w3.org/2000/svg" xmlns:xlink="http://www.w3.org/1999/xlink" x="0px" y="0px" width="24px"
	 height="24px" viewBox="0 0 24 24" style="enable-background:new 0 0 24 24;" xml:space="preserve">
<g id="background" style="&st0;">
	<rect x="-12" y="-60" style="&st1;" width="96" height="336"/>
</g>
<g id="img">
	<g id="compas.default">
		<path style="&st3;" d="M12,2c5.514,0,10,4.486,10,10s-4.486,10-10,10S2,17.514,2,12S6.486,2,12,2 M12,0C5.373,0,0,5.373,0,12
			s5.373,12,12,12c6.627,0,12-5.373,12-12S18.627,0,12,0L12,0z"/>
		<polygon style="&st3;" points="10.878,10.445 10.662,10.662 11.342,11.342 12.211,10.796 12.207,10.792 14.894,9.106 
			13.208,11.793 13.203,11.789 12.658,12.658 13.338,13.338 13.555,13.122 18.064,5.936 		"/>
		<polygon style="&st3;" points="10.662,10.662 10.445,10.878 5.936,18.064 13.122,13.555 13.338,13.338 		"/>
	</g>
</g>
<g id="guides-outside" style="&st0;">
</g>
</svg>
