<?xml version="1.0" encoding="utf-8"?>
<!-- Generator: Adobe Illustrator 25.4.1, SVG Export Plug-In . SVG Version: 6.00 Build 0)  -->
<!DOCTYPE svg PUBLIC "-//W3C//DTD SVG 1.1//EN" "http://www.w3.org/Graphics/SVG/1.1/DTD/svg11.dtd" [
	<!ENTITY st0 "display:none;">
	<!ENTITY st1 "display:inline;fill:#373943;">
	<!ENTITY st2 "fill:#FFFFFF;">
	<!ENTITY st3 "fill:#9A9FAF;">
	<!ENTITY st4 "fill:#71B1E4;">
	<!ENTITY st5 "fill:#A23938;">
	<!ENTITY st6 "fill:#475B72;">
	<!ENTITY st7 "fill:#333333;">
	<!ENTITY st8 "fill:#7D2B29;">
	<!ENTITY st9 "fill:#E7D2D5;">
]>
<svg version="1.1" xmlns="http://www.w3.org/2000/svg" xmlns:xlink="http://www.w3.org/1999/xlink" x="0px" y="0px" width="28px"
	 height="28px" viewBox="0 0 28 28" style="enable-background:new 0 0 28 28;" xml:space="preserve">
<g id="background" style="&st0;">
	<rect x="-10" y="-250" style="&st1;" width="96" height="336"/>
</g>
<g id="img">
	<g id="logo.default">
		<g>
			<path style="&st2;" d="M14,0C6.27,0,0,6.27,0,14c0,4.09,1.76,7.77,4.56,10.33c0.19,0.18,0.39,0.35,0.6,0.52
				c0.46,0.38,0.96,0.73,1.47,1.05l1.04-3.48l1.525-0.528l-0.512-2.009l-0.09-0.35l-0.358-1.4l-1.297-0.13L6.735,14.26l-0.84,0.252
				l-4.232-0.505L5.28,11.74l2.867-5.633l5.015-2.412l1.712,0.39l0.11-0.3l1.01,0.235L15.578,3l2.162,0.355l-0.005,0.572
				l0.445-0.812l2.058,0.747l-1.117,0.89l0.737,0.173l-0.03,0.293l0.355,0.08l2.235,2.295l0.968,5.225L26,15.965l-3.265-0.373
				l-0.21-0.14l-0.36,1.687l-0.127,0.3l-0.046,0.016l0.049-0.016l1.21-0.42l2.24,4.87l0.03,0.06c-0.945,1.372-0.945,1.372,0,0
				c1.56-2.26,2.48-5,2.48-7.95C28,6.27,21.73,0,14,0z"/>
		</g>
		<path style="&st5;" d="M23.25,17.02l-1.21,0.42l-0.049,0.016l0.046-0.016l0.127-0.3l0.36-1.687l0.21,0.14L26,15.965l-2.615-3.148
			l-0.968-5.225l-2.235-2.295l-0.355-0.08l0.03-0.293L19.12,4.752l1.117-0.89L18.18,3.115l-0.445,0.812l0.005-0.572L15.578,3
			l0.418,1.02l-1.01-0.235l-0.11,0.3l-1.712-0.39L8.148,6.107L5.28,11.74l-3.617,2.268l4.232,0.505l0.84-0.252l0.203,3.742
			l1.297,0.13l0.358,1.4l0.09,0.35l0.512,2.009L7.67,22.42L6.63,25.9c0.74,0.46,1.52,0.85,2.34,1.17h0.01
			C10.54,27.67,12.23,28,14,28c4.78,0,9-2.39,11.52-6.05l-0.03-0.06L23.25,17.02z"/>
		<path style="&st6;" d="M5.16,24.85l-0.45,1.19l-0.77,0.65H1v-2.85h2.94v1.08L4.4,24.7l0.16-0.37C4.75,24.51,4.95,24.68,5.16,24.85
			z"/>
		<path style="&st7;" d="M8.68,19.88l-2.13,1.29l-1.39,3.68c-0.21-0.17-0.41-0.34-0.6-0.52l1.52-3.48l2.51-1.32L8.68,19.88z"/>
		<polygon style="&st7;" points="16.005,12.983 15.995,12.985 15.422,16.295 11.432,17.497 13.145,12.842 		"/>
		<polygon style="&st5;" points="20.237,3.862 19.12,4.753 17.73,4.427 17.493,4.372 17.49,4.372 15.995,4.02 15.578,3 17.74,3.355 
			17.735,3.928 18.18,3.115 		"/>
		<path style="&st7;" d="M22.525,15.453l-0.36,1.687l-0.128,0.3l-0.208,0.073l-1.61,0.557c-0.627-0.75-1.42-1.7-2.02-2.43
			l0.455-1.08l0.11-1.43l-0.015-0.012l0.27,0.012l3.155,2.09L22.525,15.453z"/>
		<polygon style="&st7;" points="15.995,12.985 15.422,16.295 11.432,17.497 13.145,12.842 		"/>
		<polygon style="&st5;" points="23.385,12.818 19.5,13.095 19.065,13.127 19.02,13.13 19.022,13.102 19.055,12.795 19.827,5.218 
			20.183,5.298 22.417,7.593 		"/>
		<polygon style="&st5;" points="14.875,4.085 12.235,11.257 11.677,12.77 9.453,12.413 5.28,11.74 8.148,6.108 13.163,3.695 		"/>
		<polygon style="&st8;" points="11.677,12.77 6.735,14.26 5.895,14.512 1.663,14.007 5.28,11.74 9.453,12.413 		"/>
		<polygon style="&st8;" points="26,15.965 22.735,15.592 22.525,15.453 22.175,15.22 19.02,13.13 19.065,13.127 19.5,13.095 
			23.385,12.818 		"/>
		<polygon style="&st8;" points="19.858,4.925 19.827,5.218 19.055,12.795 19.022,13.102 19.02,13.13 18.75,13.118 18.11,12.54 
			17.95,12.395 17.548,12.515 16.655,12.785 16.005,12.983 13.145,12.842 11.677,12.77 12.235,11.257 14.875,4.085 14.985,3.785 
			15.995,4.02 17.49,4.372 17.493,4.372 17.73,4.427 19.12,4.753 		"/>
		<path style="&st9;" d="M20.22,18.07L9.195,21.892l-0.512-2.01l-0.09-0.35l-0.358-1.4l-1.297-0.13L6.735,14.26l4.942-1.49
			l1.468,0.072l-1.713,4.655l3.99-1.202l0.573-3.31l0.01-0.002l0.65-0.198l0.892-0.27l0.403-0.12l0.16,0.145l0.64,0.578l0.015,0.012
			l-0.11,1.43L18.2,15.64C18.8,16.37,19.593,17.32,20.22,18.07z"/>
		<path style="&st8;" d="M25.52,21.95C23,25.61,18.78,28,14,28c-1.77,0-3.46-0.33-5.02-0.93l16.51-5.18L25.52,21.95z"/>
		<path style="&st5;" d="M25.49,21.89L8.98,27.07H8.97c-0.82-0.32-1.6-0.71-2.34-1.17l1.04-3.48l1.53-0.53l11.02-3.82l1.61-0.56
			l0.21-0.07l1.21-0.42L25.49,21.89z"/>
	</g>
</g>
<g id="guides-outside" style="&st0;">
</g>
</svg>
