<?xml version="1.0" encoding="utf-8"?>
<!DOCTYPE svg PUBLIC "-//W3C//DTD SVG 1.1//EN" "http://www.w3.org/Graphics/SVG/1.1/DTD/svg11.dtd" [
	<!ENTITY st0 "fill:#FFFFFF;">
	<!ENTITY st1 "fill:#9A9FAF;">
	<!ENTITY st2 "fill-rule:evenodd;clip-rule:evenodd;fill:#FFFFFF;">
	<!ENTITY st3 "fill-rule:evenodd;clip-rule:evenodd;fill:#9A9FAF;">
	<!ENTITY st4 "fill:#71B1E4;">
	<!ENTITY st5 "fill:#A23938;">
	<!ENTITY st6 "fill:#475B72;">
	<!ENTITY st7 "fill:#333333;">
	<!ENTITY st8 "fill:#7D2B29;">
	<!ENTITY st9 "fill:#E7D2D5;">
]>
<svg version="1.1" id="img" xmlns="http://www.w3.org/2000/svg" xmlns:xlink="http://www.w3.org/1999/xlink" x="0px" y="0px"
	 width="48px" height="48px" viewBox="0 0 48 48" style="enable-background:new 0 0 48 48;" xml:space="preserve">
<g id="logo.default">
	<g>
		<path style="&st0;" d="M24,10c-7.73,0-14,6.27-14,14c0,4.09,1.76,7.77,4.56,10.33c0.19,0.18,0.39,0.35,0.6,0.52
			c0.46,0.38,0.96,0.73,1.47,1.05l1.04-3.48l1.525-0.528l-0.512-2.009l-0.09-0.35l-0.358-1.4l-1.297-0.13l-0.203-3.742l-0.84,0.253
			l-4.232-0.505l3.617-2.268l2.867-5.633l5.015-2.412l1.712,0.39l0.11-0.3l1.01,0.235L25.578,13l2.162,0.355l-0.005,0.573
			l0.445-0.812l2.058,0.748l-1.117,0.89l0.737,0.173l-0.03,0.292l0.355,0.08l2.235,2.295l0.967,5.225L36,25.965l-3.265-0.372
			l-0.21-0.14l-0.36,1.688l-0.127,0.3l-0.046,0.016l0.049-0.016l1.21-0.42l2.24,4.87l0.03,0.06c-0.945,1.372-0.945,1.372,0,0
			c1.56-2.26,2.48-5,2.48-7.95C38,16.27,31.73,10,24,10z"/>
	</g>
	<path style="&st5;" d="M33.25,27.02l-1.21,0.42l-0.049,0.016l0.046-0.016l0.127-0.3l0.36-1.688l0.21,0.14L36,25.965l-2.615-3.148
		l-0.967-5.225l-2.235-2.295l-0.355-0.08l0.03-0.292l-0.737-0.173l1.117-0.89l-2.058-0.748l-0.445,0.812l0.005-0.573L25.578,13
		l0.417,1.02l-1.01-0.235l-0.11,0.3l-1.712-0.39l-5.015,2.412L15.28,21.74l-3.617,2.268l4.232,0.505l0.84-0.253l0.203,3.742
		l1.297,0.13l0.358,1.4l0.09,0.35l0.512,2.009L17.67,32.42l-1.04,3.48c0.74,0.46,1.52,0.85,2.34,1.17h0.01
		C20.54,37.67,22.23,38,24,38c4.78,0,9-2.39,11.52-6.05l-0.03-0.06L33.25,27.02z"/>
	<g>
		<g>
			<path style="&st6;" d="M15.16,34.85l-0.45,1.19l-0.77,0.65H11v-2.85h2.94v1.08l0.46-0.22l0.16-0.37
				C14.75,34.51,14.95,34.68,15.16,34.85z"/>
			<path style="&st7;" d="M18.68,29.88l-2.13,1.29l-1.39,3.68c-0.21-0.17-0.41-0.34-0.6-0.52l1.52-3.48l2.51-1.32L18.68,29.88z"/>
			<polygon style="&st7;" points="26.005,22.983 25.995,22.985 25.423,26.295 21.433,27.497 23.145,22.843 			"/>
			<polygon style="&st5;" points="30.237,13.863 29.12,14.752 27.73,14.427 27.493,14.373 27.49,14.373 25.995,14.02 25.577,13 
				27.74,13.355 27.735,13.927 28.18,13.115 			"/>
			<path style="&st7;" d="M32.525,25.452l-0.36,1.688l-0.128,0.3l-0.207,0.073l-1.61,0.557c-0.627-0.75-1.42-1.7-2.02-2.43
				l0.455-1.08l0.11-1.43l-0.015-0.012l0.27,0.012l3.155,2.09L32.525,25.452z"/>
			<polygon style="&st7;" points="25.995,22.985 25.423,26.295 21.433,27.497 23.145,22.843 			"/>
			<polygon style="&st5;" points="33.385,22.817 29.5,23.095 29.065,23.128 29.02,23.13 29.022,23.103 29.055,22.795 29.827,15.217 
				30.183,15.297 32.417,17.593 			"/>
			<polygon style="&st5;" points="24.875,14.085 22.235,21.257 21.677,22.77 19.452,22.413 15.28,21.74 18.147,16.108 
				23.163,13.695 			"/>
			<polygon style="&st8;" points="21.677,22.77 16.735,24.26 15.895,24.513 11.663,24.007 15.28,21.74 19.452,22.413 			"/>
			<polygon style="&st8;" points="36,25.965 32.735,25.593 32.525,25.452 32.175,25.22 29.02,23.13 29.065,23.128 29.5,23.095 
				33.385,22.817 			"/>
			<polygon style="&st8;" points="29.858,14.925 29.827,15.217 29.055,22.795 29.022,23.103 29.02,23.13 28.75,23.118 28.11,22.54 
				27.95,22.395 27.548,22.515 26.655,22.785 26.005,22.983 23.145,22.843 21.677,22.77 22.235,21.257 24.875,14.085 24.985,13.785 
				25.995,14.02 27.49,14.373 27.493,14.373 27.73,14.427 29.12,14.752 			"/>
			<path style="&st9;" d="M30.22,28.07l-11.025,3.823l-0.512-2.01l-0.09-0.35l-0.358-1.4l-1.298-0.13l-0.202-3.743l4.942-1.49
				l1.468,0.073l-1.712,4.655l3.99-1.202l0.573-3.31l0.01-0.003l0.65-0.198l0.892-0.27l0.403-0.12l0.16,0.145l0.64,0.577
				l0.015,0.012l-0.11,1.43L28.2,25.64C28.8,26.37,29.593,27.32,30.22,28.07z"/>
			<path style="&st8;" d="M35.52,31.95C33,35.61,28.78,38,24,38c-1.77,0-3.46-0.33-5.02-0.93l16.51-5.18L35.52,31.95z"/>
			<path style="&st5;" d="M35.49,31.89l-16.51,5.18h-0.01c-0.82-0.32-1.6-0.71-2.34-1.17l1.04-3.48l1.53-0.53l11.02-3.82l1.61-0.56
				l0.21-0.07l1.21-0.42L35.49,31.89z"/>
		</g>
	</g>
</g>
</svg>
