<?xml version="1.0" encoding="utf-8"?>
<!-- Generator: Adobe Illustrator 25.4.1, SVG Export Plug-In . SVG Version: 6.00 Build 0)  -->
<!DOCTYPE svg PUBLIC "-//W3C//DTD SVG 1.1//EN" "http://www.w3.org/Graphics/SVG/1.1/DTD/svg11.dtd" [
	<!ENTITY st0 "display:none;">
	<!ENTITY st1 "display:inline;fill:#373943;">
	<!ENTITY st2 "fill:#FFFFFF;">
	<!ENTITY st3 "fill:#9A9FAF;">
	<!ENTITY st4 "fill:#71B1E4;">
	<!ENTITY st5 "fill:#A23938;">
	<!ENTITY st6 "fill:#475B72;">
	<!ENTITY st7 "fill:#333333;">
	<!ENTITY st8 "fill:#7D2B29;">
	<!ENTITY st9 "fill:#E7D2D5;">
]>
<svg version="1.1" xmlns="http://www.w3.org/2000/svg" xmlns:xlink="http://www.w3.org/1999/xlink" x="0px" y="0px" width="24px"
	 height="24px" viewBox="0 0 24 24" style="enable-background:new 0 0 24 24;" xml:space="preserve">
<g id="background" style="&st0;">
	<rect x="-12" y="-12" style="&st1;" width="96" height="336"/>
</g>
<g id="img">
	<g id="packages-menu.default">
		<polygon style="&st3;" points="12,4.227 9,3 1,6.273 4,7.5 1,8.727 9,12 12,10.773 4,7.5 		"/>
		<polygon style="&st3;" points="23,6.273 15,3 12,4.227 20,7.5 12,10.773 15,12 23,8.727 20,7.5 		"/>
		<polygon style="&st3;" points="18,12.081 18,14.242 18,16 18,16.446 12,18.846 6,16.446 6,16 6,14.242 6,12.081 4,11.262 4,17.8 
			12,21 20,17.8 20,11.262 		"/>
	</g>
</g>
<g id="guides-outside" style="&st0;">
</g>
</svg>
