<?xml version="1.0" encoding="utf-8"?>
<!DOCTYPE svg PUBLIC "-//W3C//DTD SVG 1.1//EN" "http://www.w3.org/Graphics/SVG/1.1/DTD/svg11.dtd" [
	<!ENTITY st0 "fill:#FFFFFF;">
	<!ENTITY st1 "fill:#808080;">
	<!ENTITY st2 "fill:#636F80;">
]>
<svg version="1.1" id="img" xmlns="http://www.w3.org/2000/svg" xmlns:xlink="http://www.w3.org/1999/xlink" x="0px" y="0px"
	 width="18px" height="18px" viewBox="0 0 18 18" style="enable-background:new 0 0 18 18;" xml:space="preserve">
<g id="javascript.default">
	<path style="&st2;" d="M9.009,11.941c0.543-0.316,1.085-0.631,1.633-0.949c0.024,0.037,0.046,0.07,0.068,0.104
		c0.202,0.312,0.439,0.592,0.754,0.796c0.27,0.176,0.568,0.274,0.888,0.305c0.3,0.028,0.597,0.019,0.886-0.076
		c0.228-0.074,0.427-0.193,0.575-0.386c0.254-0.33,0.233-0.905-0.159-1.232c-0.193-0.161-0.411-0.28-0.638-0.383
		c-0.413-0.186-0.83-0.363-1.243-0.549c-0.439-0.198-0.858-0.431-1.224-0.748C10.073,8.411,9.769,7.9,9.662,7.278
		C9.571,6.745,9.581,6.218,9.775,5.707c0.259-0.684,0.741-1.156,1.408-1.444c0.379-0.164,0.778-0.242,1.191-0.258
		c0.431-0.017,0.856,0.016,1.272,0.134c0.638,0.18,1.137,0.557,1.52,1.092c0.079,0.11,0.147,0.227,0.221,0.34
		c0.017,0.026,0.021,0.043-0.012,0.064c-0.506,0.324-1.012,0.649-1.518,0.973c-0.003,0.002-0.006,0.003-0.015,0.007
		c-0.014-0.022-0.03-0.045-0.044-0.069c-0.118-0.2-0.254-0.386-0.438-0.533c-0.202-0.161-0.435-0.236-0.69-0.251
		c-0.184-0.011-0.366,0.002-0.54,0.07c-0.342,0.135-0.537,0.433-0.536,0.801c0.001,0.365,0.178,0.622,0.474,0.813
		c0.255,0.164,0.532,0.286,0.809,0.405c0.48,0.206,0.963,0.405,1.419,0.662c0.355,0.2,0.689,0.427,0.974,0.722
		c0.359,0.371,0.583,0.812,0.671,1.32c0.09,0.517,0.084,1.031-0.076,1.535c-0.209,0.659-0.635,1.138-1.237,1.466
		c-0.395,0.215-0.82,0.336-1.263,0.398c-0.332,0.047-0.666,0.058-1.001,0.04c-0.708-0.039-1.379-0.208-1.992-0.575
		c-0.587-0.352-1.034-0.836-1.35-1.442C9.019,11.965,9.015,11.956,9.009,11.941z"/>
	<path style="&st2;" d="M7.997,4.169C7.998,4.192,8,4.208,8,4.224c0,2.294,0,4.588-0.001,6.882c0,0.471-0.073,0.931-0.255,1.369
		c-0.295,0.709-0.818,1.169-1.542,1.404c-0.482,0.157-0.978,0.194-1.482,0.163c-0.46-0.028-0.9-0.133-1.313-0.341
		c-0.548-0.276-0.962-0.692-1.266-1.221C2.092,12.395,2.049,12.307,2,12.216c0.547-0.333,1.089-0.662,1.636-0.994
		c0.037,0.063,0.07,0.123,0.105,0.183c0.112,0.19,0.23,0.376,0.388,0.533c0.209,0.207,0.461,0.317,0.755,0.314
		c0.141-0.001,0.285-0.009,0.422-0.038c0.342-0.072,0.534-0.302,0.62-0.631c0.045-0.171,0.064-0.346,0.064-0.522
		C5.992,8.806,5.992,6.553,5.992,4.3c0-0.131,0-0.131,0.13-0.131c0.6,0,1.2,0,1.8,0C7.945,4.169,7.968,4.169,7.997,4.169z"/>
</g>
</svg>
