<?xml version="1.0" encoding="utf-8"?>
<!DOCTYPE svg PUBLIC "-//W3C//DTD SVG 1.1//EN" "http://www.w3.org/Graphics/SVG/1.1/DTD/svg11.dtd" [
	<!ENTITY st0 "fill:#FFFFFF;">
	<!ENTITY st1 "fill:#636F80;">
	<!ENTITY st2 "fill:#71B1E4;">
	<!ENTITY st3 "opacity:0.5;fill:#FFFFFF;">
	<!ENTITY st4 "fill:#D9D9D9;">
	<!ENTITY st5 "fill:#9D9D9C;">
	<!ENTITY st6 "fill:#8DBEC9;">
	<!ENTITY st7 "fill:#BDCCD4;">
]>
<svg version="1.1" id="img" xmlns="http://www.w3.org/2000/svg" xmlns:xlink="http://www.w3.org/1999/xlink" x="0px" y="0px"
	 width="28px" height="16px" viewBox="0 0 28 16" style="enable-background:new 0 0 28 16;" xml:space="preserve">
<g id="variable.default">
	<path style="&st1;" d="M21.5,15h-15C2.91,15,0,12.09,0,8.5v0C0,4.91,2.91,2,6.5,2h15C25.09,2,28,4.91,28,8.5v0
		C28,12.09,25.09,15,21.5,15z"/>
	<g>
		<circle style="&st6;" cx="7.5" cy="8.5" r="7.5"/>
	</g>
	<polygon style="&st0;" points="11,5 9.654,5 7.5,7.667 5.346,5 4,5 6.827,8.5 4,12 5.346,12 7.5,9.333 9.654,12 11,12 8.173,8.5 	
		"/>
	<path style="&st3;" d="M21.556,5.257c-1.046-0.486-2.451-0.186-3.576,0.766l0.646,0.764c0.83-0.7,1.816-0.944,2.51-0.623
		c0.473,0.22,0.753,0.711,0.83,1.379c-0.911,0.095-2.746,0.408-3.553,1.43c-0.343,0.436-0.467,0.961-0.358,1.521
		c0.128,0.658,0.549,1.141,1.186,1.358c0.253,0.086,0.535,0.128,0.831,0.128c0.623,0,1.306-0.197,1.929-0.532V12h1V7.906
		C23,6.648,22.474,5.683,21.556,5.257z M19.564,10.906c-0.3-0.103-0.468-0.294-0.528-0.604c-0.054-0.276-0.002-0.501,0.162-0.71
		C19.713,8.938,21.111,8.649,22,8.546v1.711C21.244,10.838,20.217,11.128,19.564,10.906z"/>
</g>
</svg>
