<?xml version="1.0" encoding="utf-8"?>
<!-- Generator: Adobe Illustrator 25.4.1, SVG Export Plug-In . SVG Version: 6.00 Build 0)  -->
<!DOCTYPE svg PUBLIC "-//W3C//DTD SVG 1.1//EN" "http://www.w3.org/Graphics/SVG/1.1/DTD/svg11.dtd" [
	<!ENTITY st0 "display:none;">
	<!ENTITY st1 "display:inline;fill:#373943;">
	<!ENTITY st2 "fill:#FFFFFF;">
	<!ENTITY st3 "fill:#9A9FAF;">
	<!ENTITY st4 "fill:#71B1E4;">
	<!ENTITY st5 "fill:#A23938;">
	<!ENTITY st6 "fill:#475B72;">
	<!ENTITY st7 "fill:#333333;">
	<!ENTITY st8 "fill:#7D2B29;">
	<!ENTITY st9 "fill:#E7D2D5;">
]>
<svg version="1.1" xmlns="http://www.w3.org/2000/svg" xmlns:xlink="http://www.w3.org/1999/xlink" x="0px" y="0px" width="24px"
	 height="24px" viewBox="0 0 24 24" style="enable-background:new 0 0 24 24;" xml:space="preserve">
<g id="background" style="&st0;">
	<rect x="-12" y="-204" style="&st1;" width="96" height="336"/>
</g>
<g id="img">
	<g id="filestorage.default">
		<path style="&st3;" d="M23,0H1C0.448,0,0,0.448,0,1v22c0,0.552,0.448,1,1,1h22c0.552,0,1-0.448,1-1V1C24,0.448,23.552,0,23,0z
			 M22,22H2V2h20V22z"/>
		<rect x="15" y="3" style="&st3;" width="6" height="2"/>
		<path style="&st3;" d="M8,21h2h4h2h3h2v-2V8V6H3v2v11v2h2H8z M19,8v11h-3v-7h2v-2h-2V8H19z M14,8v11h-4v-7h3v-2h-3V8H14z M5,12h2
			v-2H5V8h3v11H5V12z"/>
	</g>
</g>
<g id="guides-outside" style="&st0;">
</g>
</svg>
