<?xml version="1.0" encoding="utf-8"?>
<!DOCTYPE svg PUBLIC "-//W3C//DTD SVG 1.1//EN" "http://www.w3.org/Graphics/SVG/1.1/DTD/svg11.dtd" [
	<!ENTITY st0 "fill:#FFFFFF;">
	<!ENTITY st1 "fill:#9A9FAF;">
	<!ENTITY st2 "fill-rule:evenodd;clip-rule:evenodd;fill:#FFFFFF;">
	<!ENTITY st3 "fill-rule:evenodd;clip-rule:evenodd;fill:#9A9FAF;">
	<!ENTITY st4 "fill:#71B1E4;">
	<!ENTITY st5 "fill:#A23938;">
	<!ENTITY st6 "fill:#475B72;">
	<!ENTITY st7 "fill:#333333;">
	<!ENTITY st8 "fill:#7D2B29;">
	<!ENTITY st9 "fill:#E7D2D5;">
]>
<svg version="1.1" id="img" xmlns="http://www.w3.org/2000/svg" xmlns:xlink="http://www.w3.org/1999/xlink" x="0px" y="0px"
	 width="48px" height="48px" viewBox="0 0 48 48" style="enable-background:new 0 0 48 48;" xml:space="preserve">
<g id="info.default">
	<path style="&st1;" d="M24,14c5.514,0,10,4.486,10,10s-4.486,10-10,10s-10-4.486-10-10S18.486,14,24,14 M24,12
		c-6.627,0-12,5.373-12,12c0,6.627,5.373,12,12,12c6.627,0,12-5.373,12-12C36,17.373,30.627,12,24,12L24,12z"/>
	<g>
		<path style="&st1;" d="M25.742,21.039l-1.804,6.257c-0.1,0.357-0.149,0.593-0.149,0.704c0,0.064,0.026,0.124,0.079,0.18
			s0.108,0.084,0.167,0.084c0.1,0,0.2-0.044,0.3-0.132c0.264-0.217,0.58-0.61,0.95-1.18l0.299,0.177
			c-0.886,1.542-1.827,2.313-2.824,2.313c-0.382,0-0.686-0.106-0.911-0.321c-0.226-0.214-0.339-0.485-0.339-0.813
			c0-0.217,0.05-0.493,0.15-0.827l1.223-4.206c0.117-0.404,0.176-0.71,0.176-0.915c0-0.129-0.056-0.243-0.167-0.343
			s-0.264-0.15-0.457-0.15c-0.089,0-0.194,0.004-0.317,0.009l0.114-0.352l2.983-0.484H25.742z M25.197,16.992
			c0.363,0,0.67,0.126,0.919,0.378c0.25,0.252,0.374,0.558,0.374,0.915c0,0.358-0.126,0.663-0.378,0.915
			c-0.253,0.253-0.558,0.379-0.915,0.379c-0.353,0-0.654-0.126-0.906-0.379c-0.253-0.252-0.379-0.557-0.379-0.915
			c0-0.357,0.125-0.663,0.374-0.915S24.839,16.992,25.197,16.992z"/>
	</g>
</g>
</svg>
