<?xml version="1.0" encoding="utf-8"?>
<!DOCTYPE svg PUBLIC "-//W3C//DTD SVG 1.1//EN" "http://www.w3.org/Graphics/SVG/1.1/DTD/svg11.dtd" [
	<!ENTITY st0 "fill:#FFFFFF;">
	<!ENTITY st1 "fill:#808080;">
	<!ENTITY st2 "fill:#BFBFBF;">
	<!ENTITY st3 "fill:#71B1E4;">
	<!ENTITY st4 "fill:#F7931E;">
	<!ENTITY st5 "fill:#EDEDED;">
	<!ENTITY st6 "fill:#FFEEDE;">
]>
<svg version="1.1" id="img" xmlns="http://www.w3.org/2000/svg" xmlns:xlink="http://www.w3.org/1999/xlink" x="0px" y="0px"
	 width="18px" height="18px" viewBox="0 0 18 18" style="enable-background:new 0 0 18 18;" xml:space="preserve">
<path id="cube.inverted" style="&st0;" d="M2,2v14h14V2H2z M15,15H3V3h12V15z M6,6H4V4h2V6z M14,6H7V4h7V6z M6,14H4V7h2V14z M9,14
	l-2-1.5L9,11v1h2c0.552,0,1-0.448,1-1V9h-1l1.5-2L14,9h-1v2c0,1.105-0.895,2-2,2H9V14z"/>
</svg>
