<?xml version="1.0" encoding="utf-8"?>
<!DOCTYPE svg PUBLIC "-//W3C//DTD SVG 1.1//EN" "http://www.w3.org/Graphics/SVG/1.1/DTD/svg11.dtd" [
	<!ENTITY st0 "fill:#FFFFFF;">
	<!ENTITY st1 "fill:#808080;">
	<!ENTITY st2 "fill:#BFBFBF;">
	<!ENTITY st3 "fill:#71B1E4;">
	<!ENTITY st4 "fill:#F7931E;">
	<!ENTITY st5 "fill:#EDEDED;">
	<!ENTITY st6 "fill:#FFEEDE;">
]>
<svg version="1.1" id="img" xmlns="http://www.w3.org/2000/svg" xmlns:xlink="http://www.w3.org/1999/xlink" x="0px" y="0px"
	 width="18px" height="18px" viewBox="0 0 18 18" style="enable-background:new 0 0 18 18;" xml:space="preserve">
<path id="logregressreport.inverted" style="&st0;" d="M17,10h-4.59l3,3l-3,3H17v1h-6v-1l2.991-2.999L13.99,13L11,10V9h6V10z M3,2H2
	v14h8v-1H3V2z M9.611,9.116C10.668,6.485,11.667,4,16,4V2c-5.685,0-7.165,3.682-8.245,6.37C6.77,10.821,6.198,12,4,12v2
	C7.647,14,8.69,11.405,9.611,9.116z"/>
</svg>
