<?xml version="1.0" encoding="utf-8"?>
<!DOCTYPE svg PUBLIC "-//W3C//DTD SVG 1.1//EN" "http://www.w3.org/Graphics/SVG/1.1/DTD/svg11.dtd" [
	<!ENTITY st0 "fill:#FFFFFF;">
	<!ENTITY st1 "fill:#808080;">
	<!ENTITY st2 "fill:#BFBFBF;">
	<!ENTITY st3 "fill:#71B1E4;">
	<!ENTITY st4 "fill:#F7931E;">
	<!ENTITY st5 "fill:#EDEDED;">
	<!ENTITY st6 "fill:#FFEEDE;">
]>
<svg version="1.1" id="img" xmlns="http://www.w3.org/2000/svg" xmlns:xlink="http://www.w3.org/1999/xlink" x="0px" y="0px"
	 width="18px" height="18px" viewBox="0 0 18 18" style="enable-background:new 0 0 18 18;" xml:space="preserve">
<g id="roc.default">
	<path style="&st6;" d="M14.77,2.52c-8.92,0.63-11.08,8.04-11.6,11.6c-0.07,0.43-0.11,0.81-0.13,1.11C3,15.72,3,16,3,16h13
		c0,0,0-3.73,0-13.03V2.71V2.48C15.58,2.48,15.16,2.49,14.77,2.52z"/>
	<path style="&st4;" d="M16,2v0.97l-0.27,0.01c-0.52,0-1.02,0.03-1.5,0.09C6.58,3.88,4.38,10.01,3.75,13.54
		c-0.11,0.65-0.18,1.21-0.21,1.63C3.5,15.63,3.5,15.93,3.5,16h-1c0-0.02,0.01-0.48,0.09-1.22c0-0.03,0-0.06,0.01-0.09
		C3,11.28,5.03,2.41,15.28,2.01C15.52,2,15.76,2,16,2z"/>
	<path style="&st3;" d="M16,15v1H2V2h1v13H16z M5,13H4v1h1V13z M7,11H6v1h1V11z M9,9H8v1h1V9z M11,7h-1v1h1V7z M13,5h-1v1h1V5z
		 M15,3h-1v1h1V3z"/>
</g>
</svg>
