<?xml version="1.0" encoding="utf-8"?>
<svg version="1.1" id="img" xmlns="http://www.w3.org/2000/svg" xmlns:xlink="http://www.w3.org/1999/xlink" x="0px" y="0px"
	 width="18px" height="18px" viewBox="0 0 18 18" style="enable-background:new 0 0 18 18;" xml:space="preserve">
<g id="cfg.default">
	<g>
		<polygon style="fill:#3E7FAA;" points="12,5 15,5 12,2 		"/>
		<polygon style="fill:#71B1E4;" points="14,15 4,15 4,3 12,3 12,2 3,2 3,16 15,16 15,5 14,5 		"/>
	</g>
	<path style="fill-rule:evenodd;clip-rule:evenodd;fill:#F7931E;" d="M9,7.338c0.917,0,1.662,0.745,1.662,1.662
		S9.917,10.662,9,10.662S7.338,9.917,7.338,9S8.083,7.338,9,7.338z M9.78,5.077c-0.515-0.102-1.046-0.102-1.561,0L8.043,5.872
		c-0.2,0.061-0.393,0.141-0.578,0.239L6.778,5.674C6.341,5.966,5.966,6.341,5.674,6.778l0.437,0.687
		C6.014,7.65,5.933,7.843,5.872,8.043L5.077,8.22c-0.102,0.515-0.102,1.046,0,1.561l0.795,0.177c0.061,0.2,0.141,0.393,0.239,0.578
		l-0.437,0.687c0.292,0.437,0.667,0.812,1.104,1.104l0.687-0.438c0.185,0.098,0.378,0.178,0.578,0.239l0.177,0.795
		c0.515,0.102,1.046,0.102,1.561,0l0.177-0.795c0.2-0.061,0.393-0.141,0.578-0.239l0.687,0.438c0.437-0.292,0.812-0.667,1.104-1.104
		l-0.438-0.687c0.098-0.185,0.178-0.378,0.239-0.578l0.795-0.177c0.102-0.515,0.102-1.046,0-1.561l-0.795-0.177
		c-0.061-0.2-0.141-0.393-0.239-0.578l0.438-0.687c-0.292-0.437-0.667-0.812-1.104-1.104l-0.687,0.438
		c-0.185-0.098-0.378-0.178-0.578-0.239L9.78,5.077z"/>
</g>
</svg>
