<?xml version="1.0" encoding="utf-8"?>
<svg version="1.1" id="img" xmlns="http://www.w3.org/2000/svg" xmlns:xlink="http://www.w3.org/1999/xlink" x="0px" y="0px"
	 width="18px" height="18px" viewBox="0 0 18 18" style="enable-background:new 0 0 18 18;" xml:space="preserve">
<g id="log.default">
	<rect x="5" y="6" style="fill:#F7931E;" width="8" height="1"/>
	<rect x="5" y="8" style="fill:#F7931E;" width="4" height="1"/>
	<rect x="5" y="10" style="fill:#F7931E;" width="2" height="1"/>
	<rect x="5" y="12" style="fill:#F7931E;" width="2" height="1"/>
	<g>
		
			<rect x="8.862" y="9.929" transform="matrix(-0.7071 0.7071 -0.7071 -0.7071 25.0367 11.2544)" style="fill:#71B1E4;" width="2.652" height="1.768"/>
		
			<rect x="11.621" y="8.054" transform="matrix(-0.7071 0.7071 -0.7071 -0.7071 26.9117 6.7278)" style="fill:#71B1E4;" width="0.884" height="1.768"/>
		<polygon style="fill:#71B1E4;" points="8,13 8,11.75 9.25,13 		"/>
	</g>
	<g>
		<polygon style="fill:#3E7FAA;" points="12,5 15,5 12,2 		"/>
		<polygon style="fill:#71B1E4;" points="14,15 4,15 4,3 12,3 12,2 3,2 3,16 15,16 15,5 14,5 		"/>
	</g>
</g>
</svg>
