<?xml version="1.0" encoding="utf-8"?>
<svg version="1.1" id="img" xmlns="http://www.w3.org/2000/svg" xmlns:xlink="http://www.w3.org/1999/xlink" x="0px" y="0px"
	 width="18px" height="18px" viewBox="0 0 18 18" style="enable-background:new 0 0 18 18;" xml:space="preserve">
<g id="ppt.default">
	<g>
		<polygon style="fill:#3E7FAA;" points="12,5 15,5 12,2 		"/>
		<polygon style="fill:#71B1E4;" points="14,15 4,15 4,3 12,3 12,2 3,2 3,16 15,16 15,5 14,5 		"/>
	</g>
	<g>
		<path style="fill:#BE301D;" d="M9.394,5.759H6.983C6.44,5.759,6,6.199,6,6.742v0c0,0.504,0.38,0.919,0.869,0.976
			C6.869,7.72,6.868,7.722,6.867,7.725h0.116h2.345h0.194c0.399,0,0.723,0.324,0.723,0.723c0,0.399-0.324,0.723-0.723,0.723H7.965
			c0,0-0.27,0-0.931,0S6,9.673,6,10.204v3.053c0,0.543,0.44,0.983,0.983,0.983c0.543,0,0.983-0.44,0.983-0.983v-2.286h1.428l0,0
			c1.439,0,2.606-1.167,2.606-2.606C12,6.926,10.833,5.759,9.394,5.759z"/>
		<path style="fill:#EE4217;" d="M9.394,5.759H6.983C6.44,5.759,6,6.199,6,6.742v0c0,0.504,0.38,0.919,0.869,0.976
			C6.869,7.72,6.868,7.722,6.867,7.725h0.116h2.345h0.194c0.028,0,0.056,0.002,0.083,0.005c0.892,0.029,1.607,0.76,1.607,1.659
			c0,0.518-0.237,0.98-0.608,1.285C11.434,10.238,12,9.368,12,8.366C12,6.926,10.833,5.759,9.394,5.759z"/>
		<path style="fill:#EE4217;" d="M7.965,10.972v-0.819c0-0.543,0.44-0.983,0.983-0.983H7.965c0,0-0.27,0-0.931,0
			C6.374,9.17,6,9.673,6,10.204v3.053c0,0.543,0.44,0.983,0.983,0.983c0.543,0,0.983-0.44,0.983-0.983V10.972z"/>
	</g>
</g>
</svg>
