<?xml version="1.0" encoding="utf-8"?>
<svg version="1.1" id="img" xmlns="http://www.w3.org/2000/svg" xmlns:xlink="http://www.w3.org/1999/xlink" x="0px" y="0px"
	 width="18px" height="18px" viewBox="0 0 18 18" style="enable-background:new 0 0 18 18;" xml:space="preserve">
<g id="sql.default">
	<g>
		<polygon style="fill:#3E7FAA;" points="12,5 15,5 12,2 		"/>
		<polygon style="fill:#71B1E4;" points="14,15 4,15 4,3 12,3 12,2 3,2 3,16 15,16 15,5 14,5 		"/>
	</g>
	<ellipse style="fill:#F7931E;" cx="9" cy="8" rx="3" ry="1"/>
	<path style="fill:#F7931E;" d="M9,10c-1.657,0-3-0.448-3-1v1c0,0.552,1.343,1,3,1s3-0.448,3-1V9C12,9.552,10.657,10,9,10z"/>
	<path style="fill:#F7931E;" d="M9,12c-1.657,0-3-0.448-3-1v1c0,0.552,1.343,1,3,1s3-0.448,3-1v-1C12,11.552,10.657,12,9,12z"/>
</g>
</svg>
