<?xml version="1.0" encoding="utf-8"?>
<svg version="1.1" id="img" xmlns="http://www.w3.org/2000/svg" xmlns:xlink="http://www.w3.org/1999/xlink" x="0px" y="0px"
	 width="18px" height="18px" viewBox="0 0 18 18" style="enable-background:new 0 0 18 18;" xml:space="preserve">
<g id="xsl.default">
	<g>
		<polygon style="fill:#3E7FAA;" points="12,5 15,5 12,2 		"/>
		<polygon style="fill:#71B1E4;" points="14,15 4,15 4,3 12,3 12,2 3,2 3,16 15,16 15,5 14,5 		"/>
	</g>
	<path style="fill-rule:evenodd;clip-rule:evenodd;fill:#F7931E;" d="M7.886,6.535c0.532,0.213,0.792,0.818,0.579,1.35
		s-0.818,0.792-1.35,0.579c-0.532-0.213-0.792-0.818-0.579-1.35S7.353,6.322,7.886,6.535z M8.863,5.405
		C8.588,5.225,8.281,5.102,7.958,5.042l-0.287,0.42C7.541,5.452,7.41,5.453,7.28,5.468L6.982,5.054
		C6.661,5.122,6.357,5.253,6.086,5.438l0.094,0.5c-0.1,0.084-0.191,0.178-0.273,0.28L5.405,6.136
		C5.226,6.412,5.102,6.719,5.042,7.042l0.421,0.287C5.452,7.459,5.453,7.59,5.468,7.72L5.054,8.018
		c0.068,0.321,0.199,0.626,0.384,0.897l0.5-0.094c0.084,0.1,0.178,0.191,0.28,0.273L6.137,9.595
		c0.275,0.179,0.583,0.302,0.906,0.362l0.287-0.42C7.46,9.548,7.59,9.547,7.72,9.532l0.297,0.413
		c0.321-0.068,0.626-0.199,0.897-0.384l-0.094-0.5c0.1-0.084,0.191-0.178,0.273-0.28l0.503,0.082
		c0.179-0.275,0.302-0.583,0.362-0.906L9.537,7.671C9.548,7.54,9.547,7.41,9.532,7.28l0.413-0.297
		C9.878,6.661,9.747,6.357,9.562,6.086l-0.5,0.094c-0.084-0.1-0.178-0.191-0.28-0.273L8.863,5.405z"/>
	<path style="fill-rule:evenodd;clip-rule:evenodd;fill:#71B1E4;" d="M11,10.169c0.459,0,0.831,0.372,0.831,0.831
		c0,0.459-0.372,0.831-0.831,0.831c-0.459,0-0.831-0.372-0.831-0.831C10.169,10.541,10.541,10.169,11,10.169z M11.39,9.038
		c-0.258-0.051-0.523-0.051-0.78,0l-0.088,0.398c-0.1,0.031-0.197,0.071-0.289,0.12L9.889,9.337C9.67,9.483,9.483,9.67,9.337,9.889
		l0.219,0.344c-0.049,0.092-0.089,0.189-0.12,0.289L9.038,10.61c-0.051,0.258-0.051,0.523,0,0.78l0.398,0.088
		c0.031,0.1,0.071,0.197,0.12,0.289l-0.219,0.344c0.146,0.218,0.333,0.406,0.552,0.552l0.344-0.219
		c0.092,0.049,0.189,0.089,0.289,0.12l0.088,0.398c0.258,0.051,0.523,0.051,0.78,0l0.088-0.398c0.1-0.031,0.197-0.071,0.289-0.12
		l0.344,0.219c0.218-0.146,0.406-0.333,0.552-0.552l-0.219-0.344c0.049-0.092,0.089-0.189,0.12-0.289l0.398-0.088
		c0.051-0.258,0.051-0.523,0-0.78l-0.398-0.088c-0.031-0.1-0.071-0.197-0.12-0.289l0.219-0.344
		c-0.146-0.218-0.333-0.406-0.552-0.552l-0.344,0.219c-0.092-0.049-0.189-0.089-0.289-0.12L11.39,9.038z"/>
</g>
</svg>
