<?xml version="1.0" encoding="utf-8"?>
<!DOCTYPE svg PUBLIC "-//W3C//DTD SVG 1.1//EN" "http://www.w3.org/Graphics/SVG/1.1/DTD/svg11.dtd" [
	<!ENTITY st0 "fill:#FFFFFF;">
	<!ENTITY st1 "fill:#BFBFBF;">
	<!ENTITY st2 "fill:#F7931E;">
	<!ENTITY st3 "fill:#8C8C8C;">
	<!ENTITY st4 "fill:#71B1E4;">
	<!ENTITY st5 "fill:none;stroke:#F7931E;stroke-miterlimit:10;">
	<!ENTITY st6 "fill:none;">
]>
<svg version="1.1" id="img" xmlns="http://www.w3.org/2000/svg" xmlns:xlink="http://www.w3.org/1999/xlink" x="0px" y="0px"
	 width="18px" height="18px" viewBox="0 0 18 18" style="enable-background:new 0 0 18 18;" xml:space="preserve">
<g id="arimax.default">
	<polygon style="&st4;" points="3,15 3,2 2,2 2,16 16,16 16,15 	"/>
	<path style="&st2;" d="M16,6.005V3.5c-3.303,0.724-4.688,3.473-5.203,4.938C11.827,7.453,13.207,6.442,16,6.005z"/>
	<path style="&st2;" d="M11.391,9.198C12.264,9.135,13.797,9.293,16,10.5V7.008C13.5,7.412,12.345,8.286,11.391,9.198z"/>
	<path style="&st4;" d="M10.797,8.438C9,10.098,8.074,11,4.5,11v1c4.07,0,5.518-1.43,6.891-2.802L10.797,8.438z"/>
</g>
</svg>
