<?xml version="1.0" encoding="utf-8"?>
<!DOCTYPE svg PUBLIC "-//W3C//DTD SVG 1.1//EN" "http://www.w3.org/Graphics/SVG/1.1/DTD/svg11.dtd" [
	<!ENTITY st0 "fill:#FFFFFF;">
	<!ENTITY st1 "fill:#BFBFBF;">
	<!ENTITY st2 "fill:#F7931E;">
	<!ENTITY st3 "fill:#8C8C8C;">
	<!ENTITY st4 "fill:#71B1E4;">
	<!ENTITY st5 "fill:none;stroke:#F7931E;stroke-miterlimit:10;">
	<!ENTITY st6 "fill:none;">
]>
<svg version="1.1" id="img" xmlns="http://www.w3.org/2000/svg" xmlns:xlink="http://www.w3.org/1999/xlink" x="0px" y="0px"
	 width="18px" height="18px" viewBox="0 0 18 18" style="enable-background:new 0 0 18 18;" xml:space="preserve">
<g id="classifierneuralnet.default">
	<g>
		<path style="&st4;" d="M11.021,9.208l-4.036,1.513L9.49,8.217l1.531,0.574c0.036-0.346,0.154-0.668,0.344-0.938l-1.099-0.412
			l1.724-1.724c-0.292-0.172-0.535-0.415-0.707-0.707L9.238,7.055L6.979,6.208C6.943,6.555,6.826,6.876,6.635,7.147l1.826,0.685
			l-2.451,2.451c0.532,0.314,0.901,0.864,0.969,1.509l4.386-1.645C11.175,9.876,11.058,9.555,11.021,9.208z"/>
		<path style="&st4;" d="M13,6c-0.174,0-0.339-0.029-0.5-0.071v1.141C12.661,7.029,12.827,7,13,7s0.339,0.029,0.5,0.071V5.929
			C13.34,5.971,13.174,6,13,6z"/>
		<path style="&st4;" d="M6.749,5.047C6.904,5.332,7,5.653,7,6c0,0.005-0.002,0.01-0.002,0.016l4.253-1.063
			C11.097,4.668,11,4.347,11,4c0-0.005,0.002-0.011,0.002-0.016L6.749,5.047z"/>
		<path style="&st4;" d="M11.002,14.016C11.002,14.011,11,14.005,11,14c0-0.347,0.096-0.668,0.252-0.953l-4.253-1.063
			C6.999,11.99,7,11.995,7,12c0,0.347-0.096,0.668-0.252,0.953L11.002,14.016z"/>
	</g>
	<path style="&st2;" d="M13,3c0.551,0,1,0.449,1,1s-0.449,1-1,1s-1-0.449-1-1S12.449,3,13,3 M13,2c-1.105,0-2,0.895-2,2s0.895,2,2,2
		s2-0.895,2-2S14.105,2,13,2L13,2z"/>
	<path style="&st2;" d="M5.001,5c0.551,0,1,0.449,1,1s-0.449,1-1,1s-1-0.449-1-1S4.449,5,5.001,5 M5.001,4c-1.105,0-2,0.895-2,2
		s0.895,2,2,2s2-0.895,2-2S6.105,4,5.001,4L5.001,4z"/>
	<path style="&st2;" d="M5.001,11c0.551,0,1,0.449,1,1s-0.449,1-1,1s-1-0.449-1-1S4.449,11,5.001,11 M5.001,10c-1.105,0-2,0.895-2,2
		s0.895,2,2,2s2-0.895,2-2S6.105,10,5.001,10L5.001,10z"/>
	<path style="&st2;" d="M13,8c0.551,0,1,0.449,1,1s-0.449,1-1,1s-1-0.449-1-1S12.449,8,13,8 M13,7c-1.105,0-2,0.895-2,2s0.895,2,2,2
		s2-0.895,2-2S14.105,7,13,7L13,7z"/>
	<path style="&st2;" d="M13,13c0.551,0,1,0.449,1,1s-0.449,1-1,1s-1-0.449-1-1S12.449,13,13,13 M13,12c-1.105,0-2,0.895-2,2
		s0.895,2,2,2s2-0.895,2-2S14.105,12,13,12L13,12z"/>
</g>
</svg>
