<?xml version="1.0" encoding="utf-8"?>
<!DOCTYPE svg PUBLIC "-//W3C//DTD SVG 1.1//EN" "http://www.w3.org/Graphics/SVG/1.1/DTD/svg11.dtd" [
	<!ENTITY st0 "fill:#FFFFFF;">
	<!ENTITY st1 "fill:#BFBFBF;">
	<!ENTITY st2 "fill:#F7931E;">
	<!ENTITY st3 "fill:#8C8C8C;">
	<!ENTITY st4 "fill:#71B1E4;">
	<!ENTITY st5 "fill:none;stroke:#F7931E;stroke-miterlimit:10;">
	<!ENTITY st6 "fill:none;">
]>
<svg version="1.1" id="img" xmlns="http://www.w3.org/2000/svg" xmlns:xlink="http://www.w3.org/1999/xlink" x="0px" y="0px"
	 width="18px" height="18px" viewBox="0 0 18 18" style="enable-background:new 0 0 18 18;" xml:space="preserve">
<path id="classifierneuralnet.inverted" style="&st0;" d="M13,11c1.105,0,2-0.895,2-2c0-0.931-0.639-1.706-1.5-1.929V5.929
	C14.362,5.706,15,4.931,15,4c0-1.105-0.895-2-2-2s-2,0.895-2,2c0-0.005,0.002-0.011,0.002-0.016L6.749,5.047l0,0
	C6.409,4.426,5.758,4,5,4C3.896,4,3,4.895,3,6s0.895,2,2,2c0.677,0,1.273-0.338,1.635-0.853v0l1.826,0.685l-2.451,2.451
	C5.713,10.108,5.371,10,5,10c-1.105,0-2,0.895-2,2s0.895,2,2,2c0.758,0,1.409-0.426,1.748-1.047l0,0l4.253,1.063
	C11.002,14.011,11,14.005,11,14c0,1.105,0.895,2,2,2s2-0.895,2-2s-0.895-2-2-2c-0.758,0-1.409,0.426-1.748,1.047l0,0l-4.253-1.063
	C6.999,11.99,7,11.995,7,12c0-0.071-0.014-0.139-0.021-0.209c0,0,0,0,0,0l4.386-1.645v0C11.727,10.662,12.323,11,13,11z M5,7
	C4.449,7,4,6.551,4,6s0.449-1,1-1s1,0.449,1,1S5.552,7,5,7z M13,13c0.551,0,1,0.449,1,1s-0.449,1-1,1s-1-0.449-1-1S12.449,13,13,13z
	 M11.066,13.518c0.004-0.017,0.011-0.033,0.016-0.05C11.077,13.485,11.07,13.501,11.066,13.518z M5,13c-0.551,0-1-0.449-1-1
	s0.449-1,1-1s1,0.449,1,1S5.552,13,5,13z M6.92,12.532c0.005-0.017,0.011-0.033,0.015-0.05C6.931,12.499,6.925,12.515,6.92,12.532z
	 M11.366,7.853L11.366,7.853l-1.099-0.412l1.724-1.724c0.158,0.093,0.328,0.165,0.51,0.212v1.141
	C12.035,7.191,11.635,7.471,11.366,7.853z M14,9c0,0.551-0.449,1-1,1s-1-0.449-1-1s0.449-1,1-1S14,8.449,14,9z M13,3
	c0.551,0,1,0.449,1,1s-0.449,1-1,1s-1-0.449-1-1S12.449,3,13,3z M6.979,6.208C6.979,6.208,6.979,6.209,6.979,6.208
	C6.987,6.139,7,6.071,7,6c0,0.005-0.002,0.01-0.002,0.016l4.253-1.063l0,0c0.01,0.019,0.02,0.039,0.031,0.057L9.238,7.055
	L6.979,6.208z M6.92,5.468c0.005,0.017,0.011,0.033,0.016,0.05C6.931,5.501,6.924,5.485,6.92,5.468z M11.066,4.482
	c0.004,0.017,0.011,0.033,0.015,0.05C11.076,4.515,11.07,4.499,11.066,4.482z M11.021,9.208l-4.036,1.513L9.49,8.217l1.531,0.574
	c0,0,0,0,0,0C11.014,8.861,11,8.929,11,9S11.014,9.139,11.021,9.208C11.022,9.209,11.021,9.208,11.021,9.208z"/>
</svg>
