<?xml version="1.0" encoding="utf-8"?>
<!DOCTYPE svg PUBLIC "-//W3C//DTD SVG 1.1//EN" "http://www.w3.org/Graphics/SVG/1.1/DTD/svg11.dtd" [
	<!ENTITY st0 "fill:#FFFFFF;">
	<!ENTITY st1 "fill:#BFBFBF;">
	<!ENTITY st2 "fill:#F7931E;">
	<!ENTITY st3 "fill:#8C8C8C;">
	<!ENTITY st4 "fill:#71B1E4;">
	<!ENTITY st5 "fill:none;stroke:#F7931E;stroke-miterlimit:10;">
	<!ENTITY st6 "fill:none;">
]>
<svg version="1.1" id="img" xmlns="http://www.w3.org/2000/svg" xmlns:xlink="http://www.w3.org/1999/xlink" x="0px" y="0px"
	 width="18px" height="18px" viewBox="0 0 18 18" style="enable-background:new 0 0 18 18;" xml:space="preserve">
<g id="coarseclasses.default">
	<polygon style="&st2;" points="13,1 15,3 11,3 	"/>
	<rect x="2" y="3" style="&st4;" width="2" height="10"/>
	<rect x="14" y="11" style="&st4;" width="2" height="3"/>
	<rect x="6" y="3" style="&st4;" width="2" height="14"/>
	<rect x="10" y="11" style="&st4;" width="2" height="6"/>
	<rect x="6" y="15" style="&st4;" width="6" height="2"/>
	<rect x="10" y="11" style="&st4;" width="6" height="2"/>
	<rect x="1" y="12" style="&st4;" width="3" height="2"/>
	<rect x="2" y="3" style="&st4;" width="6" height="2"/>
	<rect x="14" y="14" style="&st4;" width="3" height="2"/>
	<rect x="12" y="3" style="&st2;" width="2" height="2"/>
	
		<rect x="10" y="10" transform="matrix(-1.836970e-16 1 -1 -1.836970e-16 20.9999 1.150000e-04)" style="&st2;" width="1" height="1"/>
	<rect x="10" y="8" transform="matrix(-1.836970e-16 1 -1 -1.836970e-16 18.9999 -1.9999)" style="&st2;" width="1" height="1"/>
	<rect x="12.5" y="5.5" transform="matrix(-1.836970e-16 1 -1 -1.836970e-16 19.5 -6.5)" style="&st2;" width="1" height="2"/>
	<rect x="10" y="6" transform="matrix(-1.836970e-16 1 -1 -1.836970e-16 16.9999 -3.9999)" style="&st2;" width="1" height="1"/>
	<rect x="15" y="6" transform="matrix(-1.836970e-16 1 -1 -1.836970e-16 21.9999 -8.9999)" style="&st2;" width="1" height="1"/>
	<rect x="15" y="10" transform="matrix(-1.836970e-16 1 -1 -1.836970e-16 26 -5)" style="&st2;" width="1" height="1"/>
	<rect x="15" y="8" transform="matrix(-1.836970e-16 1 -1 -1.836970e-16 23.9999 -6.9999)" style="&st2;" width="1" height="1"/>
</g>
</svg>
