<svg xmlns="http://www.w3.org/2000/svg" width="18" height="18" viewBox="0 0 18 18"><rect x="1" y="1" width="8" height="2" fill="#71b1e4"/><path d="M3,7H1V6h2V7z M3,4H1v1h2V4z M6,4H4v1h2V4z M6,6H4v1h2V6z M7,4v1h2V4H7z M7,8H1v1h6v1l2-1.5L7,7V8z" fill="#f7931e"/><rect x="10" y="8" width="2" height="9" fill="#71b1e4"/><rect x="13" y="10" width="1.972" height="1" fill="#f7931e"/><rect x="13" y="12" width="4" height="1" fill="#f7931e"/><rect x="13" y="14" width="2.972" height="1" fill="#f7931e"/><rect x="13" y="16" width="4" height="1" fill="#f7931e"/></svg>