<?xml version="1.0" encoding="utf-8"?>
<!DOCTYPE svg PUBLIC "-//W3C//DTD SVG 1.1//EN" "http://www.w3.org/Graphics/SVG/1.1/DTD/svg11.dtd" [
	<!ENTITY st0 "fill:#FFFFFF;">
	<!ENTITY st1 "fill:#BFBFBF;">
	<!ENTITY st2 "fill:#F7931E;">
	<!ENTITY st3 "fill:#8C8C8C;">
	<!ENTITY st4 "fill:#71B1E4;">
	<!ENTITY st5 "fill:none;stroke:#F7931E;stroke-miterlimit:10;">
	<!ENTITY st6 "fill:none;">
]>
<svg version="1.1" id="img" xmlns="http://www.w3.org/2000/svg" xmlns:xlink="http://www.w3.org/1999/xlink" x="0px" y="0px"
	 width="18px" height="18px" viewBox="0 0 18 18" style="enable-background:new 0 0 18 18;" xml:space="preserve">
<g id="execcmd.default">
	<rect x="8" y="12" style="&st2;" width="6" height="1"/>
	<polygon style="&st4;" points="4.743,13 4,12.257 6.257,10 4,7.743 4.743,7 7.743,10 	"/>
	<g>
		<path style="&st4;" d="M2,3v1v2v9h14V6V4V3H2z M15,4.5C15,4.776,14.776,5,14.5,5C14.224,5,14,4.776,14,4.5
			C14,4.224,14.224,4,14.5,4C14.776,4,15,4.224,15,4.5z M13,4.5C13,4.776,12.776,5,12.5,5C12.224,5,12,4.776,12,4.5
			C12,4.224,12.224,4,12.5,4C12.776,4,13,4.224,13,4.5z M11,4.5C11,4.776,10.776,5,10.5,5C10.224,5,10,4.776,10,4.5
			C10,4.224,10.224,4,10.5,4C10.776,4,11,4.224,11,4.5z M15,14H3V6h12V14z"/>
	</g>
</g>
</svg>
