<?xml version="1.0" encoding="utf-8"?>
<!DOCTYPE svg PUBLIC "-//W3C//DTD SVG 1.1//EN" "http://www.w3.org/Graphics/SVG/1.1/DTD/svg11.dtd" [
	<!ENTITY st0 "fill:#FFFFFF;">
	<!ENTITY st1 "fill:#8C8C8C;">
	<!ENTITY st2 "fill:#BFBFBF;">
	<!ENTITY st3 "fill:#71B1E4;">
	<!ENTITY st4 "fill:#F7931E;">
	<!ENTITY st5 "fill:none;stroke:#F7931E;stroke-miterlimit:10;">
	<!ENTITY st6 "fill:none;">
]>
<svg version="1.1" id="img" xmlns="http://www.w3.org/2000/svg" xmlns:xlink="http://www.w3.org/1999/xlink" x="0px" y="0px"
	 width="18px" height="18px" viewBox="0 0 18 18" style="enable-background:new 0 0 18 18;" xml:space="preserve">
<g id="extract-xml.default">
	<rect x="9" y="14" style="&st4;" width="2" height="1"/>
	<rect x="12" y="14" style="&st4;" width="2" height="1"/>
	<rect x="15" y="14" style="&st4;" width="2" height="1"/>
	<rect x="9" y="12" style="&st4;" width="2" height="1"/>
	<rect x="12" y="12" style="&st4;" width="2" height="1"/>
	<rect x="15" y="12" style="&st4;" width="2" height="1"/>
	<rect x="9" y="16" style="&st4;" width="2" height="1"/>
	<rect x="12" y="16" style="&st4;" width="2" height="1"/>
	<rect x="15" y="16" style="&st4;" width="2" height="1"/>
	<rect x="9" y="9" style="&st3;" width="8" height="2"/>
	<polygon style="&st3;" points="1,1 1,11 5,11 5,12 7,10.5 5,9 5,10 2,10 2,2 12,2 12,7 13,7 13,1 	"/>
	<path style="&st4;" d="M8,3L6.78,8H6l1.228-5H8z"/>
	<polygon style="&st4;" points="9,4 11,5.5 9,7 	"/>
	<polygon style="&st4;" points="5,7 3,5.5 5,4 	"/>
</g>
</svg>
