<?xml version="1.0" encoding="utf-8"?>
<!DOCTYPE svg PUBLIC "-//W3C//DTD SVG 1.1//EN" "http://www.w3.org/Graphics/SVG/1.1/DTD/svg11.dtd" [
	<!ENTITY st0 "fill:#FFFFFF;">
	<!ENTITY st1 "fill:#BFBFBF;">
	<!ENTITY st2 "fill:#F7931E;">
	<!ENTITY st3 "fill:#8C8C8C;">
	<!ENTITY st4 "fill:#71B1E4;">
	<!ENTITY st5 "fill:none;stroke:#F7931E;stroke-miterlimit:10;">
	<!ENTITY st6 "fill:none;">
]>
<svg version="1.1" id="img" xmlns="http://www.w3.org/2000/svg" xmlns:xlink="http://www.w3.org/1999/xlink" x="0px" y="0px"
	 width="18px" height="18px" viewBox="0 0 18 18" style="enable-background:new 0 0 18 18;" xml:space="preserve">
<g id="loop.default">
	<path style="&st4;" d="M14,4h-3v1h3c0.551,0,1,0.448,1,1v8c0,0.552-0.449,1-1,1H4c-0.551,0-1-0.448-1-1V6c0-0.552,0.449-1,1-1h2V4
		H4C2.896,4,2,4.896,2,6v8c0,1.104,0.896,2,2,2h10c1.104,0,2-0.896,2-2V6C16,4.896,15.104,4,14,4z"/>
	<g>
		<polygon style="&st2;" points="9,4.5 6,2 6,3.515 6,5.485 6,7 		"/>
	</g>
</g>
</svg>
