<?xml version="1.0" encoding="utf-8"?>
<!DOCTYPE svg PUBLIC "-//W3C//DTD SVG 1.1//EN" "http://www.w3.org/Graphics/SVG/1.1/DTD/svg11.dtd" [
	<!ENTITY st0 "fill:#FFFFFF;">
	<!ENTITY st1 "fill:#BFBFBF;">
	<!ENTITY st2 "fill:#F7931E;">
	<!ENTITY st3 "fill:#8C8C8C;">
	<!ENTITY st4 "fill:#71B1E4;">
	<!ENTITY st5 "fill:none;stroke:#F7931E;stroke-miterlimit:10;">
	<!ENTITY st6 "fill:none;">
]>
<svg version="1.1" id="img" xmlns="http://www.w3.org/2000/svg" xmlns:xlink="http://www.w3.org/1999/xlink" x="0px" y="0px"
	 width="18px" height="18px" viewBox="0 0 18 18" style="enable-background:new 0 0 18 18;" xml:space="preserve">
<g id="reform-data-source.default">
	<path style="&st2;" d="M14.844,12.046l-0.486-0.105c-0.107-0.024-0.211-0.132-0.23-0.238l-0.091-0.512
		c-0.02-0.108,0.039-0.243,0.131-0.303l0.42-0.268c0.09-0.059,0.118-0.182,0.06-0.276l-0.622-0.967
		c-0.059-0.094-0.183-0.12-0.275-0.061l-0.419,0.268c-0.09,0.059-0.24,0.057-0.33-0.007l-0.425-0.295
		c-0.09-0.061-0.144-0.2-0.123-0.309l0.108-0.486c0.023-0.107-0.045-0.212-0.153-0.236l-1.124-0.245
		c-0.107-0.025-0.214,0.043-0.238,0.151L10.94,8.642c-0.023,0.106-0.13,0.21-0.238,0.229l-0.513,0.091
		c-0.105,0.019-0.245-0.04-0.302-0.132L9.619,8.413c-0.06-0.094-0.184-0.12-0.276-0.061L8.374,8.975
		c-0.093,0.059-0.12,0.184-0.059,0.275l0.269,0.418c0.058,0.094,0.054,0.242-0.009,0.332l-0.295,0.426
		c-0.063,0.09-0.201,0.144-0.308,0.121l-0.486-0.107c-0.106-0.022-0.214,0.046-0.236,0.154l-0.247,1.124
		c-0.023,0.108,0.044,0.214,0.152,0.237l0.485,0.107c0.107,0.024,0.21,0.13,0.231,0.238l0.09,0.51
		c0.02,0.108-0.039,0.245-0.132,0.305L7.41,13.38c-0.092,0.059-0.12,0.182-0.06,0.275l0.621,0.97c0.058,0.091,0.184,0.12,0.274,0.06
		l0.419-0.268c0.091-0.06,0.243-0.056,0.332,0.007l0.426,0.297c0.09,0.061,0.143,0.2,0.12,0.307l-0.106,0.486
		C9.413,15.62,9.482,15.726,9.59,15.75l1.125,0.245c0.108,0.025,0.213-0.044,0.236-0.151l0.108-0.484
		c0.021-0.108,0.131-0.212,0.238-0.232l0.51-0.09c0.109-0.021,0.245,0.039,0.305,0.132l0.267,0.418
		c0.06,0.091,0.183,0.12,0.276,0.061l0.969-0.624c0.094-0.059,0.121-0.182,0.061-0.275l-0.266-0.418
		c-0.061-0.091-0.057-0.242,0.007-0.331l0.295-0.427c0.064-0.09,0.202-0.143,0.309-0.12l0.483,0.107
		c0.108,0.021,0.215-0.047,0.239-0.154l0.245-1.125C15.018,12.176,14.951,12.069,14.844,12.046z M12.302,12.285
		c-0.158,0.719-0.867,1.174-1.587,1.017c-0.72-0.156-1.176-0.867-1.018-1.587c0.157-0.719,0.867-1.176,1.587-1.017
		C12.004,10.855,12.46,11.565,12.302,12.285z"/>
	<rect x="2" y="2" style="&st4;" width="4" height="1"/>
	<rect x="2" y="4" style="&st4;" width="4" height="1"/>
	<rect x="2" y="6" style="&st4;" width="4" height="1"/>
	<rect x="7" y="2" style="&st4;" width="4" height="1"/>
	<rect x="7" y="4" style="&st4;" width="4" height="1"/>
	<rect x="7" y="6" style="&st4;" width="4" height="1"/>
	<rect x="12" y="2" style="&st4;" width="4" height="1"/>
	<rect x="12" y="4" style="&st4;" width="4" height="1"/>
	<rect x="12" y="6" style="&st4;" width="4" height="1"/>
	<rect x="2" y="8" style="&st4;" width="4" height="1"/>
	<rect x="2" y="10" style="&st4;" width="4" height="1"/>
	<rect x="2" y="12" style="&st4;" width="4" height="1"/>
</g>
</svg>
