<?xml version="1.0" encoding="utf-8"?>
<!DOCTYPE svg PUBLIC "-//W3C//DTD SVG 1.1//EN" "http://www.w3.org/Graphics/SVG/1.1/DTD/svg11.dtd" [
	<!ENTITY st0 "fill:#FFFFFF;">
	<!ENTITY st1 "fill:#BFBFBF;">
	<!ENTITY st2 "fill:#F7931E;">
	<!ENTITY st3 "fill:#8C8C8C;">
	<!ENTITY st4 "fill:#71B1E4;">
	<!ENTITY st5 "fill:none;stroke:#F7931E;stroke-miterlimit:10;">
	<!ENTITY st6 "fill:none;">
]>
<svg version="1.1" id="img" xmlns="http://www.w3.org/2000/svg" xmlns:xlink="http://www.w3.org/1999/xlink" x="0px" y="0px"
	 width="18px" height="18px" viewBox="0 0 18 18" style="enable-background:new 0 0 18 18;" xml:space="preserve">
<g id="replace-variables.default">
	<g>
		<path style="&st4;" d="M5.628,7.869L5.545,7.147H5.51C5.19,7.598,4.573,8,3.754,8C2.593,8,2,7.183,2,6.352
			c0-1.388,1.233-2.147,3.451-2.135V4.099c0-0.475-0.13-1.328-1.304-1.328c-0.534,0-1.091,0.166-1.495,0.427L2.415,2.51
			C2.889,2.202,3.577,2,4.3,2c1.755,0,2.182,1.197,2.182,2.348v2.146c0,0.498,0.024,0.984,0.095,1.375H5.628z M5.474,4.941
			c-1.139-0.024-2.43,0.178-2.43,1.292c0,0.676,0.45,0.996,0.984,0.996c0.747,0,1.221-0.474,1.387-0.961
			c0.036-0.107,0.059-0.225,0.059-0.332V4.941z"/>
	</g>
	<g>
		<path style="&st4;" d="M11,15.868V8h0.985v2.999h0.022c0.335-0.647,0.941-1.067,1.785-1.067c1.299,0,2.219,1.199,2.208,2.962
			C16,14.969,14.821,16,13.651,16c-0.757,0-1.363-0.323-1.752-1.091h-0.033v0.959H11z M12.092,13.469
			c0,0.125,0.023,0.25,0.045,0.362C12.33,14.524,12.908,15,13.634,15c1.044,0,1.563-0.851,1.563-2.109
			c0-1.101-0.462-2.043-1.529-2.043c-0.681,0-1.316,0.466-1.521,1.226c-0.022,0.113-0.056,0.249-0.056,0.408V13.469z"/>
	</g>
	<path style="&st2;" d="M6.939,15.121L9.061,13l-2.121-2.121v1.285v0.368c-0.713,0.107-1.282,0.026-1.633-0.26
		c-0.46-0.373-0.635-1.12-0.521-2.22L3.791,9.948c-0.151,1.457,0.146,2.499,0.885,3.1c0.438,0.356,1.016,0.535,1.709,0.535
		c0.174,0,0.366-0.029,0.555-0.051v0.304V15.121z"/>
	<g>
		<path style="&st4;" d="M15,2c0.551,0,1,0.448,1,1v4c0,0.552-0.449,1-1,1h-4c-0.551,0-1-0.448-1-1V3c0-0.552,0.449-1,1-1H15 M15,1
			h-4C9.896,1,9,1.895,9,3v4c0,1.104,0.896,2,2,2h4c1.104,0,2-0.896,2-2V3C17,1.895,16.104,1,15,1L15,1z"/>
		<g>
			<path style="&st2;" d="M11.272,2.935c0.021-0.005,0.048-0.01,0.08-0.016c0.027-0.005,0.06-0.01,0.1-0.016
				c0.04-0.005,0.087-0.009,0.14-0.009c0.054,0,0.101,0.004,0.144,0.009c0.043,0.006,0.077,0.011,0.104,0.016
				c0.032,0.006,0.059,0.011,0.08,0.016l1.112,1.601l1.096-1.601c0.021-0.005,0.045-0.01,0.072-0.016
				c0.026-0.005,0.055-0.01,0.087-0.016c0.032-0.005,0.075-0.009,0.128-0.009c0.048,0,0.092,0.004,0.132,0.009
				c0.04,0.006,0.073,0.011,0.1,0.016c0.032,0.006,0.058,0.011,0.08,0.016l-1.393,2.009l1.457,2.12
				c-0.021,0.01-0.048,0.019-0.08,0.024c-0.027,0.005-0.061,0.009-0.101,0.012c-0.04,0.004-0.086,0.004-0.14,0.004
				c-0.059,0-0.107,0-0.148-0.004c-0.04-0.003-0.074-0.007-0.101-0.012c-0.031-0.006-0.058-0.015-0.08-0.024l-1.176-1.696
				l-1.16,1.696c-0.021,0.01-0.045,0.019-0.072,0.024c-0.027,0.005-0.058,0.009-0.096,0.012c-0.037,0.004-0.083,0.004-0.136,0.004
				c-0.048,0-0.091,0-0.127-0.004c-0.039-0.003-0.069-0.007-0.097-0.012c-0.027-0.006-0.051-0.015-0.072-0.024l1.448-2.104
				L11.272,2.935z"/>
		</g>
	</g>
</g>
</svg>
