<?xml version="1.0" encoding="utf-8"?>
<!DOCTYPE svg PUBLIC "-//W3C//DTD SVG 1.1//EN" "http://www.w3.org/Graphics/SVG/1.1/DTD/svg11.dtd" [
	<!ENTITY st0 "fill:#FFFFFF;">
	<!ENTITY st1 "fill:#BFBFBF;">
	<!ENTITY st2 "fill:#F7931E;">
	<!ENTITY st3 "fill:#8C8C8C;">
	<!ENTITY st4 "fill:#71B1E4;">
	<!ENTITY st5 "fill:none;stroke:#F7931E;stroke-miterlimit:10;">
	<!ENTITY st6 "fill:none;">
]>
<svg version="1.1" id="img" xmlns="http://www.w3.org/2000/svg" xmlns:xlink="http://www.w3.org/1999/xlink" x="0px" y="0px"
	 width="18px" height="18px" viewBox="0 0 18 18" style="enable-background:new 0 0 18 18;" xml:space="preserve">
<g id="setting.default">
	<path style="&st2;" d="M9,8c0.553,0,1,0.448,1,1c0,0.553-0.447,1-1,1S8,9.553,8,9C8,8.448,8.447,8,9,8 M9,7C7.898,7,7,7.897,7,9
		c0,1.102,0.898,2,2,2s2-0.898,2-2C11,7.897,10.102,7,9,7L9,7z"/>
	<path style="&st4;" d="M15.692,10.159L15.14,9.946c-0.134-0.051-0.207-0.193-0.192-0.335c0.055-0.514,0.049-1.036-0.035-1.557
		c-0.021-0.134,0.054-0.265,0.178-0.32l0.533-0.238c0.241-0.107,0.35-0.39,0.242-0.63l-0.684-1.536
		c-0.107-0.242-0.39-0.351-0.632-0.243L14.001,5.33c-0.132,0.059-0.284,0.008-0.378-0.103c-0.334-0.4-0.72-0.744-1.137-1.038
		c-0.108-0.076-0.143-0.22-0.094-0.346l0.226-0.591c0.094-0.246-0.029-0.524-0.275-0.618l-1.569-0.602
		c-0.247-0.095-0.523,0.028-0.618,0.275l-0.233,0.61c-0.051,0.133-0.189,0.209-0.33,0.195c-0.5-0.049-1.01-0.04-1.518,0.042
		c-0.133,0.023-0.26-0.056-0.314-0.179L7.494,2.378C7.387,2.136,7.103,2.027,6.862,2.135L5.327,2.818
		c-0.241,0.107-0.35,0.391-0.242,0.633l0.274,0.615c0.058,0.13,0.012,0.282-0.099,0.374c-0.383,0.319-0.715,0.685-1,1.08
		C4.179,5.633,4.031,5.681,3.9,5.631L3.251,5.382C3.004,5.287,2.727,5.411,2.633,5.657L2.031,7.226
		C1.936,7.473,2.06,7.748,2.307,7.844l0.649,0.249c0.131,0.051,0.207,0.186,0.192,0.327c-0.054,0.494-0.05,0.997,0.025,1.5
		c0.02,0.133-0.059,0.258-0.182,0.312l-0.616,0.274c-0.241,0.108-0.35,0.39-0.242,0.631l0.684,1.535
		c0.107,0.242,0.391,0.351,0.632,0.243l0.602-0.268c0.131-0.058,0.282-0.009,0.372,0.102c0.318,0.39,0.684,0.729,1.082,1.023
		c0.113,0.083,0.162,0.232,0.111,0.363L5.38,14.748c-0.095,0.247,0.028,0.524,0.275,0.618l1.569,0.604
		c0.246,0.094,0.523-0.029,0.617-0.276l0.227-0.59c0.051-0.133,0.191-0.206,0.333-0.189c0.508,0.058,1.024,0.057,1.54-0.02
		c0.134-0.02,0.263,0.058,0.318,0.182l0.244,0.548c0.107,0.242,0.391,0.35,0.632,0.243l1.535-0.684
		c0.241-0.107,0.35-0.39,0.242-0.63l-0.237-0.534c-0.059-0.133-0.005-0.286,0.107-0.377c0.409-0.333,0.761-0.719,1.062-1.138
		c0.078-0.109,0.224-0.144,0.35-0.096l0.551,0.212c0.247,0.095,0.523-0.029,0.618-0.276l0.603-1.567
		C16.062,10.529,15.939,10.253,15.692,10.159 M10.398,12.052c-1.675,0.746-3.637-0.009-4.382-1.683
		C5.269,8.693,6.023,6.734,7.697,5.987c1.676-0.746,3.638,0.005,4.384,1.682C12.826,9.343,12.073,11.306,10.398,12.052"/>
</g>
</svg>
