<?xml version="1.0" encoding="utf-8"?>
<!DOCTYPE svg PUBLIC "-//W3C//DTD SVG 1.1//EN" "http://www.w3.org/Graphics/SVG/1.1/DTD/svg11.dtd" [
	<!ENTITY st0 "fill:#FFFFFF;">
	<!ENTITY st1 "fill:#BFBFBF;">
	<!ENTITY st2 "fill:#F7931E;">
	<!ENTITY st3 "fill:#8C8C8C;">
	<!ENTITY st4 "fill:#71B1E4;">
	<!ENTITY st5 "fill:none;stroke:#F7931E;stroke-miterlimit:10;">
	<!ENTITY st6 "fill:none;">
]>
<svg version="1.1" id="img" xmlns="http://www.w3.org/2000/svg" xmlns:xlink="http://www.w3.org/1999/xlink" x="0px" y="0px"
	 width="18px" height="18px" viewBox="0 0 18 18" style="enable-background:new 0 0 18 18;" xml:space="preserve">
<g id="sliding-window.default">
	<path style="&st4;" d="M3.037,3L1,15h13.963L17,3H3.037z M14.5,4C14.776,4,15,4.224,15,4.5C15,4.776,14.776,5,14.5,5
		S14,4.776,14,4.5C14,4.224,14.224,4,14.5,4z M12.5,4C12.776,4,13,4.224,13,4.5C13,4.776,12.776,5,12.5,5S12,4.776,12,4.5
		C12,4.224,12.224,4,12.5,4z M10.5,4C10.776,4,11,4.224,11,4.5C11,4.776,10.776,5,10.5,5S10,4.776,10,4.5C10,4.224,10.224,4,10.5,4z
		 M14.122,14H2.154l1.411-8h11.968L14.122,14z"/>
	<rect x="4" y="11" style="&st2;" width="9" height="1"/>
	<rect x="5" y="8" style="&st2;" width="9" height="1"/>
</g>
</svg>
