<?xml version="1.0" encoding="utf-8"?>
<!DOCTYPE svg PUBLIC "-//W3C//DTD SVG 1.1//EN" "http://www.w3.org/Graphics/SVG/1.1/DTD/svg11.dtd" [
	<!ENTITY st0 "fill:#FFFFFF;">
	<!ENTITY st1 "fill:#BFBFBF;">
	<!ENTITY st2 "fill:#8C8C8C;">
	<!ENTITY st3 "fill:#F7931E;">
	<!ENTITY st4 "fill:#71B1E4;">
]>
<svg version="1.1" id="img" xmlns="http://www.w3.org/2000/svg" xmlns:xlink="http://www.w3.org/1999/xlink" x="0px" y="0px"
	 width="18px" height="18px" viewBox="0 0 18 18" style="enable-background:new 0 0 18 18;" xml:space="preserve">
<g id="tree-to-data.default">
	<rect x="9" y="14" style="&st3;" width="2" height="1"/>
	<rect x="12" y="14" style="&st3;" width="2" height="1"/>
	<rect x="15" y="14" style="&st3;" width="2" height="1"/>
	<rect x="9" y="12" style="&st3;" width="2" height="1"/>
	<rect x="12" y="12" style="&st3;" width="2" height="1"/>
	<rect x="15" y="12" style="&st3;" width="2" height="1"/>
	<rect x="9" y="16" style="&st3;" width="2" height="1"/>
	<rect x="12" y="16" style="&st3;" width="2" height="1"/>
	<rect x="15" y="16" style="&st3;" width="2" height="1"/>
	<rect x="9" y="9" style="&st4;" width="8" height="2"/>
	<rect x="1" y="1" style="&st4;" width="2" height="9"/>
	<rect x="4" y="4" style="&st3;" width="4" height="1"/>
	<rect x="4" y="2" style="&st3;" width="1.972" height="1"/>
	<rect x="4" y="6" style="&st3;" width="1.972" height="1"/>
	<path style="&st3;" d="M6,9H4v1h2v1l2-1.5L6,8V9z"/>
</g>
</svg>
