<svg xmlns="http://www.w3.org/2000/svg" width="18" height="18" viewBox="0 0 18 18"><rect x="9" y="14" width="2" height="1" fill="#f7931e"/><rect x="12" y="14" width="2" height="1" fill="#f7931e"/><rect x="15" y="14" width="2" height="1" fill="#f7931e"/><rect x="9" y="12" width="2" height="1" fill="#f7931e"/><rect x="12" y="12" width="2" height="1" fill="#f7931e"/><rect x="15" y="12" width="2" height="1" fill="#f7931e"/><rect x="9" y="16" width="2" height="1" fill="#f7931e"/><rect x="12" y="16" width="2" height="1" fill="#f7931e"/><rect x="15" y="16" width="2" height="1" fill="#f7931e"/><rect x="9" y="9" width="8" height="2" fill="#71b1e4"/><rect x="1" y="1" width="2" height="9" fill="#71b1e4"/><rect x="4" y="4" width="4" height="1" fill="#f7931e"/><rect x="4" y="2" width="1.972" height="1" fill="#f7931e"/><rect x="4" y="6" width="1.972" height="1" fill="#f7931e"/><path d="M6,9H4v1h2v1l2-1.5L6,8V9z" fill="#f7931e"/></svg>