<?xml version="1.0" encoding="utf-8"?>
<!DOCTYPE svg PUBLIC "-//W3C//DTD SVG 1.1//EN" "http://www.w3.org/Graphics/SVG/1.1/DTD/svg11.dtd" [
	<!ENTITY st0 "fill:#FFFFFF;">
	<!ENTITY st1 "fill:#BFBFBF;">
	<!ENTITY st2 "fill:#8C8C8C;">
	<!ENTITY st3 "fill:#F7931E;">
	<!ENTITY st4 "fill:#71B1E4;">
]>
<svg version="1.1" id="img" xmlns="http://www.w3.org/2000/svg" xmlns:xlink="http://www.w3.org/1999/xlink" x="0px" y="0px"
	 width="18px" height="18px" viewBox="0 0 18 18" style="enable-background:new 0 0 18 18;" xml:space="preserve">
<g id="tree-to-data.inverted">
	<path style="&st0;" d="M5.972,2H4v1h1.972V2z M11,15H9v-1h2V15z M14,14h-2v1h2V14z M17,14h-2v1h2V14z M11,12H9v1h2V12z M14,12h-2v1
		h2V12z M17,12h-2v1h2V12z M11,16H9v1h2V16z M14,16h-2v1h2V16z M17,16h-2v1h2V16z M17,9H9v2h8V9z M3,1H1v9h2V1z M8,4H4v1h4V4z
		 M5.972,6H4v1h1.972V6z M6,8l2,1.5L6,11v-1H4V9h2V8z"/>
</g>
</svg>
