<?xml version="1.0" encoding="utf-8"?>
<!DOCTYPE svg PUBLIC "-//W3C//DTD SVG 1.1//EN" "http://www.w3.org/Graphics/SVG/1.1/DTD/svg11.dtd" [
	<!ENTITY st0 "fill:#FFFFFF;">
	<!ENTITY st1 "fill:#BFBFBF;">
	<!ENTITY st2 "fill:#F7931E;">
	<!ENTITY st3 "fill:#8C8C8C;">
	<!ENTITY st4 "fill:#71B1E4;">
	<!ENTITY st5 "fill:none;stroke:#F7931E;stroke-miterlimit:10;">
	<!ENTITY st6 "fill:none;">
]>
<svg version="1.1" id="img" xmlns="http://www.w3.org/2000/svg" xmlns:xlink="http://www.w3.org/1999/xlink" x="0px" y="0px"
	 width="18px" height="18px" viewBox="0 0 18 18" style="enable-background:new 0 0 18 18;" xml:space="preserve">
<g id="variablestodata.default">
	<path style="&st2;" d="M14.788,8h-0.239c0.01-0.122,0.034-0.252,0.034-0.368c0-0.693-0.179-1.271-0.535-1.709
		C13.447,5.185,12.512,4.864,11,5v1.017c1.155-0.098,1.898,0.077,2.271,0.537c0.26,0.318,0.34,0.825,0.276,1.446h-0.336H12l2,2l2-2
		H14.788z"/>
	<rect x="9" y="14" style="&st2;" width="2" height="1"/>
	<rect x="9" y="16" style="&st2;" width="2" height="1"/>
	<rect x="12" y="14" style="&st2;" width="2" height="1"/>
	<rect x="12" y="16" style="&st2;" width="2" height="1"/>
	<rect x="15" y="14" style="&st2;" width="2" height="1"/>
	<rect x="15" y="16" style="&st2;" width="2" height="1"/>
	<rect x="9" y="11" style="&st4;" width="8" height="2"/>
	<g>
		<path style="&st2;" d="M3.556,3.178C3.58,3.172,3.61,3.166,3.646,3.16c0.03-0.006,0.067-0.012,0.112-0.018
			c0.045-0.006,0.098-0.01,0.157-0.01c0.061,0,0.114,0.004,0.162,0.01C4.126,3.148,4.165,3.154,4.195,3.16
			c0.036,0.006,0.066,0.012,0.09,0.017l1.251,1.801l1.233-1.801C6.793,3.172,6.82,3.166,6.85,3.16
			c0.029-0.006,0.062-0.012,0.099-0.018c0.036-0.006,0.084-0.01,0.145-0.01c0.054,0,0.104,0.004,0.148,0.01
			C7.287,3.148,7.324,3.154,7.354,3.16c0.036,0.006,0.065,0.012,0.09,0.017l-1.566,2.26l1.639,2.385
			C7.492,7.834,7.461,7.844,7.426,7.85c-0.03,0.006-0.068,0.01-0.113,0.014C7.268,7.867,7.215,7.867,7.156,7.867
			c-0.066,0-0.121,0-0.166-0.004C6.945,7.859,6.907,7.856,6.877,7.85c-0.035-0.006-0.066-0.016-0.09-0.027L5.463,5.914L4.159,7.822
			C4.135,7.834,4.108,7.844,4.078,7.85c-0.03,0.006-0.065,0.01-0.107,0.014C3.928,7.867,3.876,7.867,3.817,7.867
			c-0.054,0-0.103,0-0.144-0.004C3.63,7.859,3.595,7.856,3.565,7.85c-0.03-0.006-0.058-0.016-0.081-0.027l1.629-2.367L3.556,3.178z"
			/>
	</g>
	<path style="&st4;" d="M7,2c1.103,0,2,0.898,2,2v3c0,1.102-0.897,2-2,2H4C2.897,9,2,8.102,2,7V4c0-1.102,0.897-2,2-2H7 M7,1H4
		C2.343,1,1,2.343,1,4v3c0,1.657,1.343,3,3,3h3c1.657,0,3-1.343,3-3V4C10,2.343,8.657,1,7,1L7,1z"/>
</g>
</svg>
