<?xml version="1.0" encoding="utf-8"?>
<!DOCTYPE svg PUBLIC "-//W3C//DTD SVG 1.1//EN" "http://www.w3.org/Graphics/SVG/1.1/DTD/svg11.dtd" [
	<!ENTITY st0 "fill:#8DBEC9;">
	<!ENTITY st1 "fill:#FFFFFF;">
	<!ENTITY st2 "fill:#BDCCD4;">
]>
<svg version="1.1" id="img" xmlns="http://www.w3.org/2000/svg" xmlns:xlink="http://www.w3.org/1999/xlink" x="0px" y="0px"
	 width="110px" height="18px" viewBox="0 0 110 18" style="enable-background:new 0 0 110 18;" xml:space="preserve">
<g id="clear-trigger.hover.focus">
	<circle style="&st0;" cx="99" cy="9" r="6"/>
	<polygon style="&st1;" points="102.036,6.572 101.428,5.964 99,8.393 96.572,5.964 95.964,6.572 98.393,9 95.964,11.428 
		96.572,12.036 99,9.607 101.428,12.036 102.036,11.428 99.607,9 	"/>
</g>
<g id="clear-trigger.focus">
	<circle style="&st2;" cx="77" cy="9" r="6"/>
	<polygon style="&st1;" points="80.036,6.572 79.428,5.964 77,8.393 74.572,5.964 73.964,6.572 76.393,9 73.964,11.428 
		74.572,12.036 77,9.607 79.428,12.036 80.036,11.428 77.607,9 	"/>
</g>
<g id="clear-trigger.active">
	<circle style="&st0;" cx="55" cy="9" r="6"/>
	<polygon style="&st1;" points="58.036,6.572 57.428,5.964 55,8.393 52.572,5.964 51.964,6.572 54.393,9 51.964,11.428 
		52.572,12.036 55,9.607 57.428,12.036 58.036,11.428 55.607,9 	"/>
</g>
<g id="clear-trigger.hover">
	<circle style="&st0;" cx="33" cy="9" r="6"/>
	<polygon style="&st1;" points="36.036,6.572 35.428,5.964 33,8.393 30.572,5.964 29.964,6.572 32.393,9 29.964,11.428 
		30.572,12.036 33,9.607 35.428,12.036 36.036,11.428 33.607,9 	"/>
</g>
<g id="clear-trigger.default">
	<circle style="&st2;" cx="11" cy="9" r="6"/>
	<polygon style="&st1;" points="14.036,6.572 13.428,5.964 11,8.393 8.572,5.964 7.964,6.572 10.393,9 7.964,11.428 8.572,12.036 
		11,9.607 13.428,12.036 14.036,11.428 11.607,9 	"/>
</g>
</svg>
