<?xml version="1.0" encoding="utf-8"?>
<!DOCTYPE svg PUBLIC "-//W3C//DTD SVG 1.1//EN" "http://www.w3.org/Graphics/SVG/1.1/DTD/svg11.dtd" [
	<!ENTITY st0 "fill:#8DBEC9;">
	<!ENTITY st1 "fill:#636F80;">
]>
<svg version="1.1" id="img" xmlns="http://www.w3.org/2000/svg" xmlns:xlink="http://www.w3.org/1999/xlink" x="0px" y="0px"
	 width="110px" height="18px" viewBox="0 0 110 18" style="enable-background:new 0 0 110 18;" xml:space="preserve">
<g id="open-trigger.hover.focus">
	<path style="&st0;" d="M99.5,15L99.5,15c-0.828,0-1.5-0.672-1.5-1.5l0,0c0-0.828,0.672-1.5,1.5-1.5l0,0c0.828,0,1.5,0.672,1.5,1.5
		l0,0C101,14.328,100.328,15,99.5,15z"/>
	<path style="&st0;" d="M95.5,15L95.5,15c-0.828,0-1.5-0.672-1.5-1.5l0,0c0-0.828,0.672-1.5,1.5-1.5l0,0c0.828,0,1.5,0.672,1.5,1.5
		l0,0C97,14.328,96.328,15,95.5,15z"/>
	<path style="&st0;" d="M103.5,15L103.5,15c-0.828,0-1.5-0.672-1.5-1.5l0,0c0-0.828,0.672-1.5,1.5-1.5l0,0
		c0.828,0,1.5,0.672,1.5,1.5l0,0C105,14.328,104.328,15,103.5,15z"/>
</g>
<g id="open-trigger.focus">
	<path style="&st1;" d="M77.5,15L77.5,15c-0.828,0-1.5-0.672-1.5-1.5l0,0c0-0.828,0.672-1.5,1.5-1.5l0,0c0.828,0,1.5,0.672,1.5,1.5
		l0,0C79,14.328,78.328,15,77.5,15z"/>
	<path style="&st1;" d="M73.5,15L73.5,15c-0.828,0-1.5-0.672-1.5-1.5l0,0c0-0.828,0.672-1.5,1.5-1.5l0,0c0.828,0,1.5,0.672,1.5,1.5
		l0,0C75,14.328,74.328,15,73.5,15z"/>
	<path style="&st1;" d="M81.5,15L81.5,15c-0.828,0-1.5-0.672-1.5-1.5l0,0c0-0.828,0.672-1.5,1.5-1.5l0,0c0.828,0,1.5,0.672,1.5,1.5
		l0,0C83,14.328,82.328,15,81.5,15z"/>
</g>
<g id="open-trigger.active">
	<path style="&st0;" d="M55.5,15L55.5,15c-0.828,0-1.5-0.672-1.5-1.5l0,0c0-0.828,0.672-1.5,1.5-1.5l0,0c0.828,0,1.5,0.672,1.5,1.5
		l0,0C57,14.328,56.328,15,55.5,15z"/>
	<path style="&st0;" d="M51.5,15L51.5,15c-0.828,0-1.5-0.672-1.5-1.5l0,0c0-0.828,0.672-1.5,1.5-1.5l0,0c0.828,0,1.5,0.672,1.5,1.5
		l0,0C53,14.328,52.328,15,51.5,15z"/>
	<path style="&st0;" d="M59.5,15L59.5,15c-0.828,0-1.5-0.672-1.5-1.5l0,0c0-0.828,0.672-1.5,1.5-1.5l0,0c0.828,0,1.5,0.672,1.5,1.5
		l0,0C61,14.328,60.328,15,59.5,15z"/>
</g>
<g id="open-trigger.hover">
	<path style="&st0;" d="M33.5,15L33.5,15c-0.828,0-1.5-0.672-1.5-1.5l0,0c0-0.828,0.672-1.5,1.5-1.5l0,0c0.828,0,1.5,0.672,1.5,1.5
		l0,0C35,14.328,34.328,15,33.5,15z"/>
	<path style="&st0;" d="M29.5,15L29.5,15c-0.828,0-1.5-0.672-1.5-1.5l0,0c0-0.828,0.672-1.5,1.5-1.5l0,0c0.828,0,1.5,0.672,1.5,1.5
		l0,0C31,14.328,30.328,15,29.5,15z"/>
	<path style="&st0;" d="M37.5,15L37.5,15c-0.828,0-1.5-0.672-1.5-1.5l0,0c0-0.828,0.672-1.5,1.5-1.5l0,0c0.828,0,1.5,0.672,1.5,1.5
		l0,0C39,14.328,38.328,15,37.5,15z"/>
</g>
<g id="open-trigger.default">
	<path style="&st1;" d="M11.5,15L11.5,15c-0.828,0-1.5-0.672-1.5-1.5l0,0c0-0.828,0.672-1.5,1.5-1.5l0,0c0.828,0,1.5,0.672,1.5,1.5
		l0,0C13,14.328,12.328,15,11.5,15z"/>
	<path style="&st1;" d="M7.5,15L7.5,15C6.672,15,6,14.328,6,13.5l0,0C6,12.672,6.672,12,7.5,12l0,0C8.328,12,9,12.672,9,13.5l0,0
		C9,14.328,8.328,15,7.5,15z"/>
	<path style="&st1;" d="M15.5,15L15.5,15c-0.828,0-1.5-0.672-1.5-1.5l0,0c0-0.828,0.672-1.5,1.5-1.5l0,0c0.828,0,1.5,0.672,1.5,1.5
		l0,0C17,14.328,16.328,15,15.5,15z"/>
</g>
</svg>
