<?xml version="1.0" encoding="utf-8"?>
<!DOCTYPE svg PUBLIC "-//W3C//DTD SVG 1.1//EN" "http://www.w3.org/Graphics/SVG/1.1/DTD/svg11.dtd" [
	<!ENTITY st0 "fill:#FFFFFF;">
	<!ENTITY st1 "fill:#8C8C8C;">
	<!ENTITY st2 "fill:#BFBFBF;">
	<!ENTITY st3 "fill:#71B1E4;">
	<!ENTITY st4 "fill:#F7931E;">
]>
<svg version="1.1" id="img" xmlns="http://www.w3.org/2000/svg" xmlns:xlink="http://www.w3.org/1999/xlink" x="0px" y="0px"
	 width="18px" height="18px" viewBox="0 0 18 18" style="enable-background:new 0 0 18 18;" xml:space="preserve">
<g id="assnrules.inverted">
	<polygon style="&st0;" points="13.3,11 4.6,11 4.2,10 13.4,10 13.5,9 3.8,9 3.4,8 13.6,8 13.7,7 3,7 2.625,7 2,7 4,12 4.156,12 
		5,12 13.2,12 	"/>
	<g>
		<circle style="&st0;" cx="5.5" cy="15.5" r="1.5"/>
		<circle style="&st0;" cx="12.5" cy="15.5" r="1.5"/>
		<polygon style="&st0;" points="15,4 14,4 13.1,13 4,13 4,14 5.5,14 12.5,14 13,14 14,14 14.9,5 16,5 16,4 		"/>
	</g>
</g>
</svg>
