<?xml version="1.0" encoding="utf-8"?>
<!DOCTYPE svg PUBLIC "-//W3C//DTD SVG 1.1//EN" "http://www.w3.org/Graphics/SVG/1.1/DTD/svg11.dtd" [
	<!ENTITY st0 "fill:#FFFFFF;">
	<!ENTITY st1 "fill:#8C8C8C;">
	<!ENTITY st2 "fill:#BFBFBF;">
	<!ENTITY st3 "fill:#71B1E4;">
	<!ENTITY st4 "fill:#F7931E;">
]>
<svg version="1.1" id="img" xmlns="http://www.w3.org/2000/svg" xmlns:xlink="http://www.w3.org/1999/xlink" x="0px" y="0px"
	 width="18px" height="18px" viewBox="0 0 18 18" style="enable-background:new 0 0 18 18;" xml:space="preserve">
<g id="classifierneuralnet.default">
	<path style="&st4;" d="M13,3c0.551,0,1,0.449,1,1s-0.449,1-1,1s-1-0.449-1-1S12.449,3,13,3 M13,2c-1.105,0-2,0.895-2,2s0.895,2,2,2
		s2-0.895,2-2S14.105,2,13,2L13,2z"/>
	<path style="&st4;" d="M5.001,5c0.551,0,1,0.449,1,1s-0.449,1-1,1s-1-0.449-1-1S4.449,5,5.001,5 M5.001,4c-1.105,0-2,0.895-2,2
		s0.895,2,2,2s2-0.895,2-2S6.105,4,5.001,4L5.001,4z"/>
	<path style="&st4;" d="M5.001,11c0.551,0,1,0.449,1,1s-0.449,1-1,1s-1-0.449-1-1S4.449,11,5.001,11 M5.001,10c-1.105,0-2,0.895-2,2
		s0.895,2,2,2s2-0.895,2-2S6.105,10,5.001,10L5.001,10z"/>
	<path style="&st4;" d="M13,8c0.551,0,1,0.449,1,1s-0.449,1-1,1s-1-0.449-1-1S12.449,8,13,8 M13,7c-1.105,0-2,0.895-2,2s0.895,2,2,2
		s2-0.895,2-2S14.105,7,13,7L13,7z"/>
	<path style="&st4;" d="M13,13c0.551,0,1,0.449,1,1s-0.449,1-1,1s-1-0.449-1-1S12.449,13,13,13 M13,12c-1.105,0-2,0.895-2,2
		s0.895,2,2,2s2-0.895,2-2S14.105,12,13,12L13,12z"/>
	<path style="&st3;" d="M11.252,13.047C11.097,13.332,11,13.653,11,14c0,0.005,0.002,0.011,0.002,0.016l-4.253-1.063
		C6.904,12.668,7,12.347,7,12c0-0.005-0.002-0.01-0.002-0.016L11.252,13.047z M10.266,10.559l1.724,1.724
		c-0.292,0.173-0.534,0.415-0.707,0.707l-2.045-2.045l-2.258,0.847c-0.068-0.645-0.437-1.195-0.969-1.509L7.293,9L6.01,7.717
		c0.276-0.163,0.503-0.392,0.674-0.663C6.84,6.802,6.947,6.518,6.979,6.208l2.259,0.847l2.045-2.045
		c0.172,0.292,0.415,0.535,0.707,0.707l-1.724,1.724l1.099,0.412c-0.19,0.271-0.308,0.592-0.344,0.938L9.49,8.217L8.707,9
		L9.49,9.783l1.532-0.574c0.036,0.346,0.154,0.668,0.344,0.938L10.266,10.559z M8.461,10.168L8,9.707l-1.015,1.015L8.461,10.168z
		 M8.462,7.832L6.985,7.278L8,8.293L8.462,7.832z M6.999,6.016l4.253-1.063C11.097,4.668,11,4.347,11,4
		c0-0.005,0.002-0.011,0.002-0.016L6.749,5.047C6.904,5.332,7,5.653,7,6C7,6.005,6.999,6.01,6.999,6.016z"/>
</g>
</svg>
