<?xml version="1.0" encoding="utf-8"?>
<!DOCTYPE svg PUBLIC "-//W3C//DTD SVG 1.1//EN" "http://www.w3.org/Graphics/SVG/1.1/DTD/svg11.dtd" [
	<!ENTITY st0 "fill:#FFFFFF;">
	<!ENTITY st1 "fill:#8C8C8C;">
	<!ENTITY st2 "fill:#BFBFBF;">
	<!ENTITY st3 "fill:#71B1E4;">
	<!ENTITY st4 "fill:#F7931E;">
]>
<svg version="1.1" id="img" xmlns="http://www.w3.org/2000/svg" xmlns:xlink="http://www.w3.org/1999/xlink" x="0px" y="0px"
	 width="18px" height="18px" viewBox="0 0 18 18" style="enable-background:new 0 0 18 18;" xml:space="preserve">
<g id="data-to-tree.default">
	<rect x="1" y="1" style="&st3;" width="8" height="2"/>
	<path style="&st4;" d="M3,7H1V6h2V7z M3,4H1v1h2V4z M6,4H4v1h2V4z M6,6H4v1h2V6z M7,4v1h2V4H7z M7,8H1v1h6v1l2-1.5L7,7V8z"/>
	<rect x="10" y="8" style="&st3;" width="2" height="9"/>
	<rect x="13" y="10" style="&st4;" width="1.972" height="1"/>
	<rect x="13" y="12" style="&st4;" width="4" height="1"/>
	<rect x="13" y="14" style="&st4;" width="2.972" height="1"/>
	<rect x="13" y="16" style="&st4;" width="4" height="1"/>
</g>
</svg>
