<?xml version="1.0" encoding="utf-8"?>
<!DOCTYPE svg PUBLIC "-//W3C//DTD SVG 1.1//EN" "http://www.w3.org/Graphics/SVG/1.1/DTD/svg11.dtd" [
	<!ENTITY st0 "fill:#FFFFFF;">
	<!ENTITY st1 "fill:#8C8C8C;">
	<!ENTITY st2 "fill:#BFBFBF;">
	<!ENTITY st3 "fill:#71B1E4;">
	<!ENTITY st4 "fill:#F7931E;">
]>
<svg version="1.1" id="img" xmlns="http://www.w3.org/2000/svg" xmlns:xlink="http://www.w3.org/1999/xlink" x="0px" y="0px"
	 width="18px" height="18px" viewBox="0 0 18 18" style="enable-background:new 0 0 18 18;" xml:space="preserve">
<g id="processing-nodes.disabled">
	<path style="&st1;" d="M2,11L2,11c-0.553,0-1-0.447-1-1V8c0-0.553,0.447-1,1-1l0,0V11z"/>
	<path style="&st1;" d="M16,7L16,7c0.552,0,1,0.447,1,1v2c0,0.553-0.448,1-1,1l0,0V7z"/>
	<path style="&st1;" d="M13,4c0.552,0,1,0.448,1,1v8c0,0.552-0.448,1-1,1H5c-0.552,0-1-0.448-1-1V5c0-0.552,0.448-1,1-1H13 M13,3H5
		C3.895,3,3,3.895,3,5v8c0,1.104,0.895,2,2,2h8c1.104,0,2-0.896,2-2V5C15,3.895,14.104,3,13,3L13,3z"/>
	<path style="&st2;" d="M11.884,9.034l-0.364-0.079c-0.08-0.018-0.158-0.099-0.172-0.179l-0.068-0.384
		c-0.015-0.081,0.029-0.183,0.098-0.228l0.315-0.201c0.068-0.044,0.089-0.138,0.045-0.207l-0.467-0.726
		c-0.044-0.07-0.138-0.09-0.207-0.046l-0.315,0.201c-0.067,0.044-0.18,0.043-0.247-0.005L10.183,6.96
		c-0.067-0.046-0.108-0.15-0.092-0.232l0.081-0.364c0.018-0.08-0.034-0.159-0.115-0.177L9.214,6.004
		c-0.08-0.018-0.16,0.032-0.179,0.113L8.956,6.481C8.938,6.561,8.857,6.639,8.777,6.653L8.393,6.722
		c-0.079,0.015-0.184-0.03-0.227-0.099L7.965,6.31C7.92,6.239,7.827,6.22,7.758,6.264L7.031,6.731
		C6.961,6.774,6.94,6.868,6.986,6.937L7.188,7.25c0.044,0.07,0.041,0.182-0.006,0.249L6.96,7.818
		C6.913,7.886,6.81,7.927,6.728,7.909l-0.364-0.08c-0.079-0.017-0.16,0.034-0.177,0.115L6.002,8.787
		c-0.017,0.08,0.033,0.16,0.114,0.178l0.363,0.08c0.081,0.018,0.158,0.098,0.174,0.179l0.067,0.383
		C6.735,9.688,6.691,9.79,6.622,9.835l-0.313,0.2c-0.07,0.044-0.091,0.137-0.046,0.206l0.466,0.728
		c0.044,0.068,0.138,0.09,0.206,0.045l0.314-0.201c0.068-0.045,0.183-0.042,0.249,0.005l0.319,0.223
		c0.067,0.046,0.107,0.15,0.09,0.231l-0.079,0.364c-0.018,0.08,0.034,0.16,0.115,0.178l0.844,0.184
		c0.08,0.018,0.159-0.033,0.176-0.113l0.081-0.363c0.017-0.081,0.099-0.159,0.179-0.174l0.383-0.067
		c0.082-0.016,0.184,0.029,0.228,0.099l0.2,0.313c0.045,0.068,0.137,0.09,0.207,0.046l0.727-0.468
		c0.07-0.044,0.091-0.137,0.045-0.206l-0.199-0.314c-0.045-0.068-0.043-0.182,0.005-0.248l0.222-0.32
		c0.048-0.067,0.151-0.108,0.231-0.09l0.363,0.08c0.08,0.016,0.161-0.035,0.179-0.115l0.184-0.844
		C12.015,9.132,11.964,9.052,11.884,9.034z M9.977,9.213c-0.118,0.54-0.65,0.882-1.19,0.764c-0.54-0.117-0.881-0.65-0.763-1.19
		c0.117-0.539,0.65-0.882,1.19-0.763C9.754,8.141,10.096,8.674,9.977,9.213z"/>
</g>
</svg>
