<?xml version="1.0" encoding="utf-8"?>
<!DOCTYPE svg PUBLIC "-//W3C//DTD SVG 1.1//EN" "http://www.w3.org/Graphics/SVG/1.1/DTD/svg11.dtd" [
	<!ENTITY st0 "fill:#FFFFFF;">
	<!ENTITY st1 "fill:#8C8C8C;">
	<!ENTITY st2 "fill:#BFBFBF;">
	<!ENTITY st3 "fill:#71B1E4;">
	<!ENTITY st4 "fill:#F7931E;">
]>
<svg version="1.1" id="img" xmlns="http://www.w3.org/2000/svg" xmlns:xlink="http://www.w3.org/1999/xlink" x="0px" y="0px"
	 width="18px" height="18px" viewBox="0 0 18 18" style="enable-background:new 0 0 18 18;" xml:space="preserve">
<g id="python.default">
	<path style="&st3;" d="M8.5,1C6,1,5,1.672,5,2.5V4h4v1H2.497C1.67,5,1,6,1,8.497v0.005C1,11,1.67,12,2.497,12H4v-1.202
		C4,9.252,5.252,8,6.798,8H10c1.105,0,2-0.895,2-2V2.5C11.77,1.661,11,1,8.5,1z M6.5,3C6.224,3,6,2.776,6,2.5S6.224,2,6.5,2
		S7,2.224,7,2.5S6.776,3,6.5,3z"/>
	<path style="&st4;" d="M14.503,5H13v1.202C13,7.748,11.748,9,10.202,9H7c-1.105,0-2,0.895-2,2v3.5C5.23,15.339,6,16,8.5,16
		s3.5-0.672,3.5-1.5V13H8v-1h6.503C15.33,12,16,11,16,8.503V8.497C16,6,15.33,5,14.503,5z M10.5,14c0.276,0,0.5,0.224,0.5,0.5
		S10.776,15,10.5,15S10,14.776,10,14.5S10.224,14,10.5,14z"/>
</g>
</svg>
