<?xml version="1.0" encoding="utf-8"?>
<!DOCTYPE svg PUBLIC "-//W3C//DTD SVG 1.1//EN" "http://www.w3.org/Graphics/SVG/1.1/DTD/svg11.dtd" [
	<!ENTITY st0 "fill:#FFFFFF;">
	<!ENTITY st1 "fill:#8C8C8C;">
	<!ENTITY st2 "fill:#BFBFBF;">
	<!ENTITY st3 "fill:#71B1E4;">
	<!ENTITY st4 "fill:#F7931E;">
]>
<svg version="1.1" id="img" xmlns="http://www.w3.org/2000/svg" xmlns:xlink="http://www.w3.org/1999/xlink" x="0px" y="0px"
	 width="18px" height="18px" viewBox="0 0 18 18" style="enable-background:new 0 0 18 18;" xml:space="preserve">
<g id="regressionneuralnet.disabled">
	<circle style="&st1;" cx="13" cy="4" r="2"/>
	<circle style="&st1;" cx="5" cy="6" r="2"/>
	<circle style="&st1;" cx="5" cy="12" r="2"/>
	<circle style="&st1;" cx="13" cy="9" r="2"/>
	<circle style="&st1;" cx="13" cy="14" r="2"/>
	<path style="&st2;" d="M11.252,13.047C11.096,13.332,11,13.653,11,14c0,0.005,0.002,0.011,0.002,0.016l-4.253-1.063
		C6.904,12.668,7,12.347,7,12c0-0.005-0.002-0.01-0.002-0.016L11.252,13.047z M6.998,6.016l4.253-1.063C11.096,4.668,11,4.347,11,4
		c0-0.005,0.002-0.011,0.002-0.016L6.748,5.047C6.904,5.332,7,5.653,7,6C7,6.005,6.998,6.01,6.998,6.016z M10.266,10.559
		l1.724,1.724c-0.292,0.172-0.535,0.415-0.707,0.707l-2.045-2.045l-2.259,0.847c-0.068-0.645-0.437-1.195-0.969-1.509L7.293,9
		L6.01,7.717c0.532-0.314,0.901-0.864,0.969-1.508c0,0,0,0,0,0l2.259,0.847l2.045-2.045c0.172,0.292,0.415,0.535,0.707,0.707
		l-1.724,1.724l1.099,0.412c-0.19,0.271-0.308,0.592-0.344,0.938L9.49,8.217L8.707,9L9.49,9.783l1.531-0.574
		c0.036,0.346,0.154,0.668,0.344,0.938L10.266,10.559z M8.461,10.168L8,9.707l-1.015,1.015L8.461,10.168z M8.461,7.832L6.985,7.278
		L8,8.293L8.461,7.832z"/>
</g>
</svg>
