<?xml version="1.0" encoding="utf-8"?>
<!DOCTYPE svg PUBLIC "-//W3C//DTD SVG 1.1//EN" "http://www.w3.org/Graphics/SVG/1.1/DTD/svg11.dtd" [
	<!ENTITY st0 "fill:#FFFFFF;">
	<!ENTITY st1 "fill:#8C8C8C;">
	<!ENTITY st2 "fill:#BFBFBF;">
	<!ENTITY st3 "fill:#71B1E4;">
	<!ENTITY st4 "fill:#F7931E;">
]>
<svg version="1.1" id="img" xmlns="http://www.w3.org/2000/svg" xmlns:xlink="http://www.w3.org/1999/xlink" x="0px" y="0px"
	 width="18px" height="18px" viewBox="0 0 18 18" style="enable-background:new 0 0 18 18;" xml:space="preserve">
<g id="replace-columns.disabled">
	<path style="&st1;" d="M5.629,7.869L5.546,7.147H5.51C5.19,7.598,4.573,8,3.755,8C2.593,8,2,7.183,2,6.352
		c0-1.388,1.233-2.147,3.451-2.135V4.099c0-0.475-0.131-1.328-1.305-1.328c-0.534,0-1.091,0.166-1.495,0.427L2.415,2.51
		C2.89,2.202,3.577,2,4.3,2c1.756,0,2.183,1.197,2.183,2.348v2.146c0,0.498,0.023,0.984,0.095,1.375H5.629z M5.474,4.941
		c-1.138-0.024-2.43,0.178-2.43,1.292c0,0.676,0.45,0.996,0.983,0.996c0.748,0,1.222-0.474,1.388-0.961
		c0.036-0.107,0.059-0.225,0.059-0.332V4.941z"/>
	<path style="&st1;" d="M11,15.868V8h0.985v2.999h0.021c0.335-0.647,0.941-1.067,1.786-1.067c1.299,0,2.219,1.199,2.207,2.962
		C16,14.969,14.821,16,13.651,16c-0.757,0-1.363-0.323-1.753-1.091h-0.032v0.959H11z M12.092,13.469c0,0.125,0.023,0.25,0.045,0.362
		C12.33,14.524,12.908,15,13.635,15c1.043,0,1.562-0.851,1.562-2.109c0-1.101-0.462-2.043-1.528-2.043
		c-0.681,0-1.316,0.466-1.52,1.226c-0.022,0.113-0.057,0.249-0.057,0.408V13.469z"/>
	<rect x="9" y="2" style="&st2;" width="7" height="1"/>
	<rect x="9" y="4" style="&st2;" width="7" height="1"/>
	<rect x="9" y="6" style="&st2;" width="7" height="1"/>
	<path style="&st2;" d="M6.939,15.121L9.061,13l-2.121-2.121v1.285v0.368c-0.713,0.107-1.282,0.026-1.633-0.26
		c-0.46-0.373-0.635-1.12-0.521-2.22L3.791,9.948c-0.151,1.457,0.147,2.499,0.885,3.1c0.438,0.356,1.016,0.535,1.709,0.535
		c0.174,0,0.366-0.029,0.555-0.051v0.304V15.121z"/>
</g>
</svg>
