<?xml version="1.0" encoding="utf-8"?>
<!DOCTYPE svg PUBLIC "-//W3C//DTD SVG 1.1//EN" "http://www.w3.org/Graphics/SVG/1.1/DTD/svg11.dtd" [
	<!ENTITY st0 "fill:#FFFFFF;">
	<!ENTITY st1 "fill:#8C8C8C;">
	<!ENTITY st2 "fill:#BFBFBF;">
	<!ENTITY st3 "fill:#71B1E4;">
	<!ENTITY st4 "fill:#F7931E;">
]>
<svg version="1.1" id="img" xmlns="http://www.w3.org/2000/svg" xmlns:xlink="http://www.w3.org/1999/xlink" x="0px" y="0px"
	 width="18px" height="18px" viewBox="0 0 18 18" style="enable-background:new 0 0 18 18;" xml:space="preserve">
<g id="replace-variables.inverted">
	<g>
		<path style="&st0;" d="M5.629,7.869L5.546,7.147H5.51C5.19,7.598,4.573,8,3.755,8C2.593,8,2,7.183,2,6.352
			c0-1.388,1.233-2.147,3.451-2.135V4.099c0-0.475-0.131-1.328-1.305-1.328c-0.534,0-1.091,0.166-1.495,0.427L2.415,2.51
			C2.89,2.202,3.577,2,4.3,2c1.756,0,2.183,1.197,2.183,2.348v2.146c0,0.498,0.023,0.984,0.095,1.375H5.629z M5.474,4.941
			c-1.138-0.024-2.43,0.178-2.43,1.292c0,0.676,0.45,0.996,0.983,0.996c0.748,0,1.222-0.474,1.388-0.961
			c0.036-0.107,0.059-0.225,0.059-0.332V4.941z"/>
	</g>
	<g>
		<path style="&st0;" d="M11,15.868V8h0.985v2.999h0.021c0.335-0.647,0.941-1.067,1.786-1.067c1.299,0,2.219,1.199,2.207,2.962
			C16,14.969,14.821,16,13.651,16c-0.757,0-1.363-0.323-1.753-1.091h-0.032v0.959H11z M12.092,13.469
			c0,0.125,0.023,0.25,0.045,0.362C12.33,14.524,12.908,15,13.635,15c1.043,0,1.562-0.851,1.562-2.109
			c0-1.101-0.462-2.043-1.528-2.043c-0.681,0-1.316,0.466-1.52,1.226c-0.022,0.113-0.057,0.249-0.057,0.408V13.469z"/>
	</g>
	<polygon style="&st0;" points="9.061,13 6.939,10.879 6.939,12.164 6.939,13.836 6.939,15.121 	"/>
	<g>
		<path style="&st0;" d="M6.385,13.583c-0.693,0-1.271-0.179-1.709-0.535c-0.738-0.601-1.036-1.643-0.885-3.1l0.994,0.104
			c-0.113,1.1,0.062,1.847,0.521,2.22c0.489,0.399,1.393,0.416,2.541,0.049l0.305,0.953C7.504,13.481,6.911,13.583,6.385,13.583z"/>
	</g>
	<path style="&st0;" d="M15,2c0.552,0,1,0.448,1,1v4c0,0.552-0.448,1-1,1h-4c-0.552,0-1-0.448-1-1V3c0-0.552,0.448-1,1-1H15 M15,1
		h-4C9.896,1,9,1.895,9,3v4c0,1.104,0.896,2,2,2h4c1.104,0,2-0.896,2-2V3C17,1.895,16.104,1,15,1L15,1z"/>
	<g>
		<path style="&st0;" d="M11.273,2.935c0.021-0.005,0.048-0.01,0.079-0.016c0.027-0.005,0.061-0.01,0.101-0.016
			c0.04-0.005,0.087-0.009,0.14-0.009c0.054,0,0.102,0.004,0.144,0.009c0.043,0.006,0.077,0.011,0.104,0.016
			c0.032,0.006,0.059,0.011,0.08,0.016l1.111,1.601l1.097-1.601c0.021-0.005,0.045-0.01,0.072-0.016
			c0.026-0.005,0.056-0.01,0.088-0.016c0.032-0.005,0.074-0.009,0.128-0.009c0.048,0,0.092,0.004,0.132,0.009
			c0.04,0.006,0.073,0.011,0.101,0.016c0.031,0.006,0.058,0.011,0.079,0.016l-1.392,2.009l1.456,2.12
			c-0.021,0.01-0.049,0.019-0.08,0.024c-0.026,0.005-0.061,0.009-0.101,0.012c-0.04,0.004-0.087,0.004-0.14,0.004
			c-0.059,0-0.107,0-0.148-0.004c-0.04-0.003-0.074-0.007-0.101-0.012c-0.031-0.006-0.059-0.015-0.08-0.024l-1.176-1.696
			l-1.16,1.696c-0.021,0.01-0.045,0.019-0.072,0.024c-0.026,0.005-0.058,0.009-0.095,0.012c-0.038,0.004-0.084,0.004-0.137,0.004
			c-0.048,0-0.091,0-0.128-0.004c-0.038-0.003-0.069-0.007-0.096-0.012c-0.027-0.006-0.052-0.015-0.072-0.024l1.448-2.104
			L11.273,2.935z"/>
	</g>
</g>
</svg>
