<?xml version="1.0" encoding="utf-8"?>
<!DOCTYPE svg PUBLIC "-//W3C//DTD SVG 1.1//EN" "http://www.w3.org/Graphics/SVG/1.1/DTD/svg11.dtd" [
	<!ENTITY st0 "fill:#FFFFFF;">
	<!ENTITY st1 "fill:#8C8C8C;">
	<!ENTITY st2 "fill:#BFBFBF;">
	<!ENTITY st3 "fill:#71B1E4;">
	<!ENTITY st4 "fill:#F7931E;">
]>
<svg version="1.1" id="img" xmlns="http://www.w3.org/2000/svg" xmlns:xlink="http://www.w3.org/1999/xlink" x="0px" y="0px"
	 width="18px" height="18px" viewBox="0 0 18 18" style="enable-background:new 0 0 18 18;" xml:space="preserve">
<g id="sorting.inverted">
	<polygon style="&st0;" points="14,14 14,1 13,1 13,14 11.001,14 13.501,16.5 16.001,14 	"/>
	<path style="&st0;" d="M4.14,6.204L3.641,8h-1.64L4.14,1h2.077l2.171,7H6.685l-0.54-1.796H4.14z M5.915,5.019L5.479,3.534
		C5.356,3.119,5.229,2.6,5.126,2.184h-0.02C5.002,2.6,4.898,3.129,4.784,3.534L4.369,5.019H5.915z"/>
	<path style="&st0;" d="M2.001,16.148l3.334-4.798v-0.041H2.312V10h5.079v0.914L4.13,15.649v0.042h3.313V17H2.001V16.148z"/>
</g>
</svg>
