<?xml version="1.0" encoding="utf-8"?>
<!DOCTYPE svg PUBLIC "-//W3C//DTD SVG 1.1//EN" "http://www.w3.org/Graphics/SVG/1.1/DTD/svg11.dtd" [
	<!ENTITY st0 "fill:#FFFFFF;">
	<!ENTITY st1 "fill:#8C8C8C;">
	<!ENTITY st2 "fill:#71B1E4;">
	<!ENTITY st3 "fill:#BFBFBF;">
	<!ENTITY st4 "fill:#F7931E;">
	<!ENTITY st5 "fill:#F59321;">
]>
<svg version="1.1" id="img" xmlns="http://www.w3.org/2000/svg" xmlns:xlink="http://www.w3.org/1999/xlink" x="0px" y="0px"
	 width="18px" height="18px" viewBox="0 0 18 18" style="enable-background:new 0 0 18 18;" xml:space="preserve">
<path id="web-service.default" style="&st2;" d="M14.919,8.306C14.966,8.043,15,7.776,15,7.5C15,5.015,12.985,3,10.5,3
	C8.498,3,6.821,4.316,6.237,6.123C6.003,6.05,5.758,6,5.5,6C4.119,6,3,7.119,3,8.5c0,0.228,0.04,0.444,0.097,0.654
	C1.885,9.539,1,10.66,1,12c0,1.657,1.343,3,3,3h9.5c1.933,0,3.5-1.567,3.5-3.5C17,10.073,16.143,8.851,14.919,8.306z M13.5,14H4
	c-1.103,0-2-0.897-2-2c0-0.866,0.563-1.627,1.4-1.893l0.913-0.29L4.062,8.892C4.02,8.735,4,8.611,4,8.5C4,7.673,4.673,7,5.5,7
	c0.129,0,0.269,0.025,0.44,0.078l0.944,0.294l0.304-0.941C7.658,4.977,8.989,4,10.499,4c1.93,0,3.5,1.57,3.5,3.5
	c0,0.183-0.021,0.382-0.065,0.627L13.794,8.9l0.718,0.319C15.416,9.622,16,10.517,16,11.5C16,12.878,14.879,14,13.5,14z"/>
</svg>
