<?xml version="1.0" encoding="utf-8"?>
<!DOCTYPE svg PUBLIC "-//W3C//DTD SVG 1.1//EN" "http://www.w3.org/Graphics/SVG/1.1/DTD/svg11.dtd" [
	<!ENTITY st0 "fill:#FFFFFF;">
	<!ENTITY st1 "fill:#BFBFBF;">
	<!ENTITY st2 "fill:#F7931E;">
	<!ENTITY st3 "fill:#808080;">
	<!ENTITY st4 "fill:#71B1E4;">
]>
<svg version="1.1" id="img" xmlns="http://www.w3.org/2000/svg" xmlns:xlink="http://www.w3.org/1999/xlink" x="0px" y="0px"
	 width="18px" height="18px" viewBox="0 0 18 18" style="enable-background:new 0 0 18 18;" xml:space="preserve">
<g id="fact-table.default">
	<rect x="2" y="4" style="&st4;" width="2" height="2"/>
	<rect x="2" y="7" style="&st4;" width="2" height="7"/>
	<rect x="5" y="4" style="&st4;" width="11" height="2"/>
	<rect x="5" y="7" style="&st2;" width="3" height="1"/>
	<rect x="9" y="7" style="&st2;" width="3" height="1"/>
	<rect x="5" y="9" style="&st2;" width="3" height="1"/>
	<rect x="9" y="9" style="&st2;" width="3" height="1"/>
	<rect x="5" y="11" style="&st2;" width="3" height="1"/>
	<rect x="9" y="11" style="&st2;" width="3" height="1"/>
	<rect x="5" y="13" style="&st2;" width="3" height="1"/>
	<rect x="9" y="13" style="&st2;" width="3" height="1"/>
	<rect x="13" y="7" style="&st2;" width="3" height="1"/>
	<rect x="13" y="9" style="&st2;" width="3" height="1"/>
	<rect x="13" y="11" style="&st2;" width="3" height="1"/>
	<rect x="13" y="13" style="&st2;" width="3" height="1"/>
</g>
</svg>
