<?xml version="1.0" encoding="utf-8"?>
<!DOCTYPE svg PUBLIC "-//W3C//DTD SVG 1.1//EN" "http://www.w3.org/Graphics/SVG/1.1/DTD/svg11.dtd" [
	<!ENTITY st0 "fill:#FFFFFF;">
	<!ENTITY st1 "fill:#BFBFBF;">
	<!ENTITY st2 "fill:#F7931E;">
	<!ENTITY st3 "fill:#808080;">
	<!ENTITY st4 "fill:#71B1E4;">
]>
<svg version="1.1" id="img" xmlns="http://www.w3.org/2000/svg" xmlns:xlink="http://www.w3.org/1999/xlink" x="0px" y="0px"
	 width="18px" height="18px" viewBox="0 0 18 18" style="enable-background:new 0 0 18 18;" xml:space="preserve">
<g id="fact-tables-folder.default">
	<g>
		<path style="&st2;" d="M8.633,4.702L6.721,2.298C6.53,2.107,6.271,2,6,2H2.02C1.457,2,1,2.457,1,3.02V5h8.354
			C9.084,5,8.824,4.893,8.633,4.702z"/>
		<path style="&st4;" d="M16,16H2c-0.552,0-1-0.448-1-1V5h15c0.552,0,1,0.448,1,1v9C17,15.552,16.552,16,16,16z"/>
	</g>
	<path style="&st0;" d="M4,7v7h10V7H4z M6,8v1H5V8H6z M5,13v-3h1v3H5z M13,13H7v-3h6V13z M13,9H7V8h6V9z"/>
</g>
</svg>
