<?xml version="1.0" encoding="utf-8"?>
<!DOCTYPE svg PUBLIC "-//W3C//DTD SVG 1.1//EN" "http://www.w3.org/Graphics/SVG/1.1/DTD/svg11.dtd" [
	<!ENTITY st0 "fill:#FFFFFF;">
	<!ENTITY st1 "fill:#BFBFBF;">
	<!ENTITY st2 "fill:#8C8C8C;">
	<!ENTITY st3 "fill:#71B1E4;">
	<!ENTITY st4 "fill:#F7931E;">
	<!ENTITY st5 "fill:#3E7FAA;">
]>
<svg version="1.1" id="img" xmlns="http://www.w3.org/2000/svg" xmlns:xlink="http://www.w3.org/1999/xlink" x="0px" y="0px"
	 width="18px" height="18px" viewBox="0 0 18 18" style="enable-background:new 0 0 18 18;" xml:space="preserve">
<g id="help.default">
	<path style="&st3;" d="M9.565,7.298c0-0.472-0.312-0.726-0.773-0.726c-0.426,0-0.738,0.219-1.049,0.53L6.81,6.249
		C7.352,5.627,8.112,5.2,9.011,5.2c1.233,0,2.179,0.611,2.179,1.971c0,1.43-1.729,1.857-1.59,3.228H8.112
		C7.882,8.82,9.565,8.162,9.565,7.298z M7.836,12.139c0-0.61,0.426-1.072,1.014-1.072c0.589,0,1.026,0.462,1.026,1.072
		c0,0.6-0.437,1.061-1.026,1.061C8.262,13.2,7.836,12.739,7.836,12.139z"/>
	<path style="&st4;" d="M7.888,16.924c-0.754-0.104-1.489-0.317-2.184-0.632l0.823-1.822c0.521,0.235,1.072,0.395,1.637,0.474
		L7.888,16.924z M10.16,16.917l-0.291-1.978c0.568-0.084,1.118-0.246,1.635-0.484l0.835,1.818
		C11.649,16.589,10.916,16.806,10.16,16.917z M3.786,15.068c-0.579-0.498-1.082-1.073-1.497-1.711l1.677-1.09
		c0.311,0.479,0.689,0.91,1.124,1.283L3.786,15.068z M14.247,15.036l-1.311-1.51c0.431-0.374,0.806-0.809,1.116-1.29l1.683,1.082
		C15.323,13.96,14.822,14.538,14.247,15.036z M1.334,11.294C1.116,10.565,1.004,9.81,1,9.046l2-0.01
		c0.003,0.572,0.087,1.14,0.25,1.686L1.334,11.294z M16.679,11.25l-1.92-0.562C14.919,10.143,15,9.574,15,9l2-0.099L17,9
		C17,9.765,16.892,10.521,16.679,11.25z M3.23,7.346L1.308,6.795C1.518,6.062,1.831,5.364,2.24,4.72l1.688,1.072
		C3.622,6.274,3.387,6.797,3.23,7.346z M14.739,7.245c-0.166-0.545-0.41-1.063-0.725-1.542l1.67-1.1
		c0.42,0.638,0.746,1.33,0.968,2.058L14.739,7.245z M5.037,4.495L3.716,2.993C4.29,2.488,4.93,2.07,5.619,1.749l0.845,1.813
		C5.947,3.802,5.467,4.116,5.037,4.495z M12.883,4.427c-0.437-0.371-0.922-0.678-1.443-0.91l0.815-1.826
		c0.694,0.31,1.341,0.718,1.923,1.211L12.883,4.427z M8.094,3.068L7.796,1.09c0.75-0.112,1.518-0.119,2.27-0.018L9.801,3.054
		C9.247,2.98,8.664,2.981,8.094,3.068z"/>
</g>
</svg>
