<?xml version="1.0" encoding="utf-8"?>
<!DOCTYPE svg PUBLIC "-//W3C//DTD SVG 1.1//EN" "http://www.w3.org/Graphics/SVG/1.1/DTD/svg11.dtd" [
	<!ENTITY st0 "fill:#FFFFFF;">
	<!ENTITY st1 "fill:#BFBFBF;">
	<!ENTITY st2 "fill:#8C8C8C;">
	<!ENTITY st3 "fill:#F59321;">
	<!ENTITY st4 "fill:#71B1E4;">
	<!ENTITY st5 "fill:#F7931E;">
]>
<svg version="1.1" id="img" xmlns="http://www.w3.org/2000/svg" xmlns:xlink="http://www.w3.org/1999/xlink" x="0px" y="0px"
	 width="18px" height="18px" viewBox="0 0 18 18" style="enable-background:new 0 0 18 18;" xml:space="preserve">
<g id="connection.default">
	<path style="&st5;" d="M16,4.502L13.498,2l-1.396,1.396c-1.177-0.932-2.885-0.868-3.973,0.22L5.873,5.873l1.25,1.251l1.365-1.365
		l3.639,3.64l-1.364,1.364l1.364,1.364l2.257-2.257c1.087-1.087,1.152-2.795,0.22-3.972L16,4.502z"/>
	<path style="&st4;" d="M9.625,10.876l1.251-1.251L8.375,7.124L7.124,8.375L5.248,6.498L3.616,8.13
		c-1.087,1.087-1.152,2.795-0.22,3.972L2,13.498L4.501,16l1.396-1.396c1.177,0.932,2.885,0.868,3.973-0.22l1.631-1.631L9.625,10.876
		z"/>
</g>
</svg>
