<?xml version="1.0" encoding="utf-8"?>
<!DOCTYPE svg PUBLIC "-//W3C//DTD SVG 1.1//EN" "http://www.w3.org/Graphics/SVG/1.1/DTD/svg11.dtd" [
	<!ENTITY st0 "fill:#FFFFFF;">
	<!ENTITY st1 "fill:#BFBFBF;">
	<!ENTITY st2 "fill:#8C8C8C;">
	<!ENTITY st3 "fill:#F59321;">
	<!ENTITY st4 "fill:#71B1E4;">
	<!ENTITY st5 "fill:#F7931E;">
]>
<svg version="1.1" id="img" xmlns="http://www.w3.org/2000/svg" xmlns:xlink="http://www.w3.org/1999/xlink" x="0px" y="0px"
	 width="18px" height="18px" viewBox="0 0 18 18" style="enable-background:new 0 0 18 18;" xml:space="preserve">
<g id="link.default">
	<path style="&st5;" d="M15.076,8.077l-1.899,1.899c0.133-0.622,0.106-1.28-0.093-1.914c-0.03-0.099-0.065-0.197-0.106-0.293
		l0.896-0.896c0.568-0.568,0.568-1.492,0-2.061l-0.688-0.688c-0.567-0.567-1.492-0.568-2.061,0l-3.65,3.649
		c-0.567,0.568-0.567,1.494,0,2.062l0.688,0.688c0.225,0.225,0.504,0.36,0.795,0.407l-1.315,1.316
		c-0.244-0.139-0.475-0.312-0.683-0.521l-0.688-0.688C6.064,10.83,5.891,10.6,5.754,10.355c-0.108-0.191-0.193-0.394-0.259-0.6
		C5.154,8.67,5.413,7.432,6.273,6.573l3.65-3.65c1.232-1.231,3.236-1.23,4.466,0l0.688,0.688
		C16.308,4.842,16.308,6.844,15.076,8.077z"/>
	<path style="&st4;" d="M12.647,9.344c-0.005,0.101-0.015,0.202-0.029,0.303c-0.007,0.05-0.016,0.1-0.025,0.149
		c-0.115,0.598-0.404,1.168-0.866,1.63l-3.65,3.65c-1.23,1.23-3.234,1.232-4.466,0l-0.686-0.688c-1.232-1.23-1.232-3.236,0-4.467
		l1.899-1.899C4.69,8.646,4.717,9.304,4.916,9.938c0.032,0.099,0.067,0.196,0.107,0.291l-0.896,0.896
		c-0.569,0.567-0.569,1.493,0,2.061l0.686,0.688c0.568,0.568,1.494,0.567,2.061,0l3.65-3.649c0.569-0.568,0.569-1.493,0-2.062
		L9.838,7.475C9.614,7.252,9.335,7.116,9.043,7.068l1.313-1.315c0.246,0.139,0.475,0.312,0.684,0.52l0.686,0.688
		c0.279,0.278,0.496,0.596,0.648,0.937c0.016,0.035,0.032,0.07,0.045,0.106c0.016,0.038,0.031,0.076,0.044,0.114
		c0.016,0.041,0.029,0.083,0.043,0.125c0.029,0.093,0.053,0.185,0.073,0.278c0.006,0.025,0.012,0.051,0.016,0.076
		c0.009,0.04,0.016,0.08,0.021,0.12c0.006,0.039,0.011,0.077,0.016,0.116C12.649,9.003,12.654,9.173,12.647,9.344z"/>
</g>
</svg>
