<?xml version="1.0" encoding="utf-8"?>
<!DOCTYPE svg PUBLIC "-//W3C//DTD SVG 1.1//EN" "http://www.w3.org/Graphics/SVG/1.1/DTD/svg11.dtd" [
	<!ENTITY st0 "fill:#FFFFFF;">
	<!ENTITY st1 "fill:#8C8C8C;">
	<!ENTITY st2 "fill:#BFBFBF;">
	<!ENTITY st3 "fill:#71B1E4;">
	<!ENTITY st4 "fill:#F7931E;">
]>
<svg version="1.1" id="img" xmlns="http://www.w3.org/2000/svg" xmlns:xlink="http://www.w3.org/1999/xlink" x="0px" y="0px"
	 width="18px" height="18px" viewBox="0 0 18 18" style="enable-background:new 0 0 18 18;" xml:space="preserve">
<g id="factor-null-count.default">
	<rect x="15" y="3" style="&st4;" width="1" height="12"/>
	<rect x="2" y="3" style="&st4;" width="1" height="12"/>
	<path style="&st3;" d="M12.724,6.226c-0.184-0.686-0.438-1.269-0.762-1.747c-0.324-0.478-0.734-0.844-1.23-1.098
		C10.235,3.127,9.658,3,9,3C8.108,3,7.367,3.23,6.778,3.689c-0.588,0.46-1.032,1.113-1.33,1.96C5.149,6.497,5,7.614,5,9.004
		c0,2.207,0.405,3.8,1.214,4.778C6.888,14.594,7.817,15,9,15c0.898,0,1.641-0.231,2.23-0.694c0.588-0.462,1.031-1.117,1.326-1.964
		C12.852,11.496,13,10.383,13,9.004C13,7.839,12.908,6.913,12.724,6.226z M7.326,5.036c0.413-0.561,0.966-0.841,1.658-0.841
		c0.703,0,1.29,0.317,1.762,0.953c0.222,0.299,0.389,0.748,0.507,1.334l-4.605,4.411c-0.066-0.54-0.099-1.169-0.099-1.889
		C6.548,7.075,6.808,5.752,7.326,5.036z M10.745,12.852C10.273,13.493,9.692,13.814,9,13.814s-1.273-0.319-1.745-0.958
		c-0.144-0.195-0.263-0.457-0.363-0.772l4.52-4.329c0.026,0.382,0.04,0.796,0.04,1.249C11.452,10.929,11.216,12.21,10.745,12.852z"
		/>
</g>
</svg>
