<?xml version="1.0" encoding="utf-8"?>
<!DOCTYPE svg PUBLIC "-//W3C//DTD SVG 1.1//EN" "http://www.w3.org/Graphics/SVG/1.1/DTD/svg11.dtd" [
	<!ENTITY st0 "fill:#FFFFFF;">
	<!ENTITY st1 "fill:#8C8C8C;">
	<!ENTITY st2 "fill:#BFBFBF;">
	<!ENTITY st3 "fill:#71B1E4;">
	<!ENTITY st4 "fill:#F7931E;">
]>
<svg version="1.1" id="img" xmlns="http://www.w3.org/2000/svg" xmlns:xlink="http://www.w3.org/1999/xlink" x="0px" y="0px"
	 width="18px" height="18px" viewBox="0 0 18 18" style="enable-background:new 0 0 18 18;" xml:space="preserve">
<g id="factor-median.default">
	<path style="&st4;" d="M5,10c-1.105,0-2,0.895-2,2s0.895,2,2,2s2-0.895,2-2S6.105,10,5,10z M5,13c-0.552,0-1-0.448-1-1
		c0-0.552,0.448-1,1-1s1,0.448,1,1C6,12.552,5.552,13,5,13z"/>
	<path style="&st4;" d="M13,1c-1.105,0-2,0.895-2,2s0.895,2,2,2s2-0.895,2-2S14.105,1,13,1z M13,4c-0.552,0-1-0.448-1-1
		c0-0.552,0.448-1,1-1s1,0.448,1,1C14,3.552,13.552,4,13,4z"/>
	<path style="&st4;" d="M13,7c-1.105,0-2,0.895-2,2s0.895,2,2,2s2-0.895,2-2S14.105,7,13,7z M13,10c-0.552,0-1-0.448-1-1
		c0-0.552,0.448-1,1-1s1,0.448,1,1C14,9.552,13.552,10,13,10z"/>
	<path style="&st4;" d="M13,13c-1.105,0-2,0.895-2,2s0.895,2,2,2s2-0.895,2-2S14.105,13,13,13z M13,16c-0.552,0-1-0.448-1-1
		c0-0.552,0.448-1,1-1s1,0.448,1,1C14,15.552,13.552,16,13,16z"/>
	<path style="&st3;" d="M6.635,13.147l4.386,1.645c0.036-0.347,0.154-0.668,0.344-0.938l-4.386-1.645
		C6.943,12.555,6.825,12.876,6.635,13.147z"/>
	<path style="&st3;" d="M6.715,10.823l5.378-6.05c-0.302-0.155-0.564-0.378-0.753-0.658l-5.433,6.112
		c0.587,0.301,1,0.879,1.072,1.564l4.386-1.645c-0.19-0.271-0.308-0.592-0.344-0.938L6.715,10.823z"/>
</g>
</svg>
