<svg xmlns="http://www.w3.org/2000/svg" xmlns:xlink="http://www.w3.org/1999/xlink" width="381" height="416" viewBox="0 0 381 416"><defs><style>.a{fill:#ecedf2;}.b{fill:#ffccc5;}.c{fill:#dce5fd;}.d{fill:#302f33;}.e{fill:#bcc4d9;}.f{fill:url(#a);}.g{fill:#a23938;}.h{fill:url(#b);}.i{fill:#7d2b29;}.j{fill:#cec8f0;}.k{fill:#e9e6fa;}.l{fill:url(#c);}.m{fill:#ebacac;}.n{fill:#333;}.o{fill:#fff;}.p{fill:#40333c;}</style><radialGradient id="a" cx="167.771" cy="216.605" r="1" gradientTransform="matrix(45.169, 0, 0, -45.169, -7529.772, 9931.258)" gradientUnits="userSpaceOnUse"><stop offset="0" stop-color="#cdfafd"/><stop offset="1" stop-color="#add6f2"/></radialGradient><radialGradient id="b" cx="168.629" cy="217.72" r="1" gradientTransform="matrix(41.596, -8.879, -8.879, -41.596, -4761.841, 10690.816)" gradientUnits="userSpaceOnUse"><stop offset="0" stop-color="#8b302f"/><stop offset="1" stop-color="#a23938"/></radialGradient><radialGradient id="c" cx="362.274" cy="309.243" r="51.403" gradientUnits="userSpaceOnUse"><stop offset="0.252" stop-color="#a23938"/><stop offset="1" stop-color="#b34746"/></radialGradient></defs><circle class="a" cx="199.699" cy="233.967" r="181.301"/><path class="b" d="M67.58,243.33l-24.018-17.1s-6.109,35.828-3.848,40.194S59.3,273.951,59.3,273.951l5.081,9.978L76.19,273.837l-8.385-23.543Z"/><path class="c" d="M44.456,193.245l-5.37.953,4.9,27.6,5.37-.953Z"/><path class="d" d="M50.294,216.026,41.442,217.6l9.026,59.9L62.43,275.37Z"/><path class="e" d="M53.558,147.883c-3.565-20.081-13.867-35.789-24.944-39.772l-.374-2.105-7.53,1.337c-13.735,2.439-21.3,24.54-16.891,49.368s19.112,42.977,32.846,40.539l7.53-1.336-.373-2.1C52.853,186.258,57.122,167.964,53.558,147.883Z"/><path class="c" d="M44.2,195.914c13.735-2.438,21.3-24.54,16.89-49.367S41.976,103.57,28.242,106.008s-21.3,24.54-16.89,49.366S30.464,198.351,44.2,195.914Z"/><path class="e" d="M56.7,147.325c3.628,20.447-2.371,38.613-13.4,40.571a11.259,11.259,0,0,1-2.333.163c-10.338-.344-20.846-14.635-24.228-33.649S18.31,118.359,27.9,114.481a11.16,11.16,0,0,1,2.25-.65C41.185,111.885,53.07,126.876,56.7,147.325Z"/><path class="f" d="M52.114,148.138c3.374,19.007-1.573,36.049-11.15,39.927-10.338-.343-20.846-14.634-24.228-33.649s1.574-36.05,11.163-39.928C38.236,114.833,48.741,129.132,52.114,148.138Z"/><path class="b" d="M76.519,272.559c-.381-.626-2.737-12.52-2.737-12.52a43.99,43.99,0,0,0,6.725-14.982c1.987-8.668-14.266-13.507-26.756-31.32-2.889-4.122-4.819,7.629-.6,13.909s13.1,8.069,14.247,9.746-2.52,6.813-4.272,9.793-1.656,10.513,1.282,13.278,7.933,14.776,7.933,14.776Z"/><path class="b" d="M47.5,238.507c1.824.306,1.992-6.287.162-9.7s-8.673-10.029-12.45-10.854-4.341,6.678-2.829,10.216S45.376,238.148,47.5,238.507Z"/><path class="b" d="M50.122,262.185c1.837.209,1.647-6.385-.367-9.7s-11.623-8.78-15.44-9.4-2.543,5.733-.842,9.185S47.98,261.943,50.122,262.185Z"/><path class="b" d="M50.535,252.215c1.835.208,1.647-6.387-.368-9.7s-14.2-13.341-18.016-13.961-3.974,6.9-2.276,10.356S48.393,251.973,50.535,252.215Z"/><path class="g" d="M198.7,387.27c-1.43,1.86-2.84,3.68-4.22,5.44-.11.14-.22.29-.33.43-6.2,7.89-11.91,14.76-17.16,20.72a180.35,180.35,0,0,1-84.66-33.79C77.67,347.42,61,311.45,50.89,294.51c2.63-6.67,21.8-26.88,42.01-31.11,11.83,55.2,36.98,119.24,36.98,119.24s6.02,1.45,7.23,4.16a105.853,105.853,0,0,1,3.13,12.9s26.74-40.74,39.74-100.56q1.215-5.625,2.27-11.46c.87-.18,2.61,2.88,4.67,8.31C193.23,312.65,202.53,351.6,198.7,387.27Z"/><path class="h" d="M317,138.938c-1.232-4.541-29.8-8.536-46.388-5.54-14.486,2.618,24.481,33.81,24.481,33.81S317.562,154.78,317,138.938Z"/><path class="g" d="M371.42,224.71c-16.06,24.35-27.85,52.35-36.16,81a419.337,419.337,0,0,0-12.83,61.7,180.556,180.556,0,0,1-95.35,45.8c-.63.1-1.26.19-1.89.28q-4.02.57-8.1.95c-3.24.32-6.51.54-9.79.67-.33.02-.67.03-1,.04q-3.285.12-6.6.12h-1.02l-2.19-.03c-.8-7.52-1.59-14.91-2.34-22.1-.21-1.96-.42-3.9-.61-5.82-3.9-37.15-6.91-68.3-6.84-84.11q.015-3.63.22-7.22v-.01c2.59-46.79,27.44-88.39,31.5-93.46,4.28-5.33,16.28-15.42,16.28-15.42l2.08-.42,25.86-5.18,46.02-9.22c.34.33,4.8,3.9,11.21,9.04,17.2,13.82,48.43,39,51.54,43.38A.01.01,0,0,1,371.42,224.71Z"/><path class="i" d="M259.27,139.21c-3.14,16.45-12.99,32.17-22.49,47.47-4.42,7.11-8.76,14.13-12.31,21.09q-1.095,2.13-2.07,4.26a82.7,82.7,0,0,0-3.78,9.57c-2.95,9.29-6.99,34.64-9.77,67.75-3.04,36.22-4.58,81.75-1.55,125.76-.33.02-.67.03-1,.04q-3.285.12-6.6.12h-1.02c-1.44-7.42-2.84-14.97-4.2-22.56v-.01c-.32-1.79-.63-3.59-.94-5.38-5.54-31.68-10.21-63.52-13.56-88.17v-.01c-3.7-27.09-5.83-45.49-5.83-45.49l25.4-18.21-31.06-40.51S205.9,151.58,259.27,139.21Z"/><path class="b" d="M300.105,171.6l-64.587,35.291-2.135-8.369.584-10.013,1.181-19.919,14.269-52.186,8.54-3.275,7.07-2.706Z"/><path class="j" d="M280.89,194.52s-20.49,39.74-30.49,75.77c-6.73,24.25-18.69,82.32-25.26,142.6-.02.21-.05.41-.07.62q-3.96.555-7.98.93c-3.24.32-6.51.54-9.79.67-.33.02-.67.03-1,.04a630.292,630.292,0,0,1-1.88-92.19.615.615,0,0,1,.01-.14,582.588,582.588,0,0,1,14.2-101.21l4.18-16.16,6.27-2.68,9.4-4.03Z"/><path class="g" d="M208.337,12.922,199.059,6.7,206.376,1.6,212,11.367,218.52,3.65s12.674-.1,11.87.145-18.123,10.363-18.123,10.363Z"/><path class="d" d="M249.92,212.05l-11.69,10.38a409.178,409.178,0,0,0-10.83,54.61c-2.04,15.45-3.31,31-3.99,46.58q-.33,7.065-.47,14.15c-.01.26-.01.51-.02.77-.51,24.79.34,49.6,2.22,74.35.01.2.03.4.05.6q-4.02.57-8.1.95c-3.24.32-6.51.54-9.79.67-.33.02-.67.03-1,.04a630.43,630.43,0,0,1-1.88-92.2.528.528,0,0,1,.01-.13q1.755-16.8,4.42-33.47,1.245-7.53,2.68-15.02a426.135,426.135,0,0,1,13.51-52.45l-2.64-9.85-.41-1.54,2.48-2.72,4.62-5.01,3.95-4.3,5.44.27Z"/><path class="k" d="M238.475,198.728,248.54,222.38l58.676-48.538-3.389-8.057Z"/><path class="k" d="M233.389,198.527,218.631,221.6l-1.36-14.76,16.605-15.319Z"/><path class="i" d="M274.449,286.276l-1.015,9.057,37.743,4.225.862-7Z"/><path class="i" d="M322.3,182.97a15.288,15.288,0,0,0-2.43-1.65,15.557,15.557,0,0,0-3.55-1.41,15.674,15.674,0,0,0-17.47,7.27c-23.53,40.54-57.57,135.26-71.77,226.03-.63.1-1.26.19-1.89.28q-4.02.57-8.1.95c.78-28.28,3.27-53.91,5.85-76.67q.72-6.39,1.44-12.46c6.34-53.82,21.2-88.42,21.2-88.42l22.03-14.1-4.97-41.29-.95-7.94S317,151.13,317,139.06A249.519,249.519,0,0,0,322.3,182.97Z"/><path class="l" d="M380.9,240.1v.01a180.308,180.308,0,0,1-26.01,87.64c-7.26-9.09-13.86-16.42-19.03-20.7-.21-.44-.42-.88-.6-1.34-11.26-26.96,20.67-81.56,36.15-81.01.14,0,.28.01.42.02A164.132,164.132,0,0,1,380.9,240.1Z"/><path class="i" d="M276.043,65.024s15.36,17.34,14.947,20.355-18.825,9.257-27.28,10.177-11.273-41.008-11.273-41.008S271.406,59.984,276.043,65.024Z"/><path class="m" d="M262.705,143.723c-1.432,13.792-16.034,32.347-28.738,44.786l1.181-19.919,14.27-52.187,8.54-3.275C261.273,125.359,263.439,136.671,262.705,143.723Z"/><path class="n" d="M240.228,56.172c10.035,39.005,4.255,67.672,4.255,67.672S273,106.723,273.824,104.6s-4.242-31.639-11.943-43.568S240.228,56.172,240.228,56.172Z"/><path class="b" d="M260.948,117.87c-2.07-3.026-4.228-25.6-4.5-30.291s13.959-23.041,19.213,2.509C279.564,109.089,266.345,124.483,260.948,117.87Z"/><path class="m" d="M269.647,86.472a22.837,22.837,0,0,0-4.624,23.949C264.84,100.841,269.078,86.769,269.647,86.472Z"/><path class="b" d="M191.2,54.19,160.951,72.314s-3.8,18.08-4.2,24.7,10.081,52.015,11.946,56.27,28.565,45.3,39.838,45.854c6.761.335,48.062-30.8,52.811-53.023S246,55.171,246,55.171Z"/><path class="m" d="M187.829,163.735c-4.273-7.1,1.8-14.591,14.04-11.469C189.339,154.13,187.286,159.992,187.829,163.735Z"/><path class="n" d="M155.111,101.284c1.092-1.605,5.2-3.188,10.588-2.627,11.464,1.2,10.6-7.421,10.584-11.023C173.606,89.117,150.691,88.852,155.111,101.284Z"/><path class="o" d="M161.032,106.844s4.164,8.086,9.859,7.774,9.731-11.346,9.731-11.346S173.728,97.654,161.032,106.844Z"/><path class="p" d="M168.788,111.952c1.968-1.04,2.066-4.718.217-8.216s-3.536-2.276-5.5-1.236-3.471,1.5-1.622,5S166.82,112.992,168.788,111.952Z"/><path class="o" d="M170.848,111.98c.643-.34.674-1.542.07-2.685s-1.615-1.8-2.258-1.455-.675,1.542-.071,2.686S170.2,112.32,170.848,111.98Z"/><path class="n" d="M158.322,104.808c.507.533,3.213,3.78,3.213,3.78a17.528,17.528,0,0,1,21.208-4.107C172.922,95.387,159.349,102.642,158.322,104.808Z"/><path class="m" d="M178.418,76.65c-2.439,34.078,1.094,64.267,3.811,70.049,2.53,5.382,24.242-8.114,25.4-10.5,2.26-4.658-22.4-67.925-22.4-67.925Z"/><path class="b" d="M178.418,76.65c-2.439,34.078,3.089,61.316,5.471,67.244,1.343,3.343,22.582-5.309,23.74-7.693,2.26-4.658-22.4-67.925-22.4-67.925Z"/><path class="m" d="M198.174,135.822s5.117-6.86,6.967-3.923S198.174,135.822,198.174,135.822Z"/><path class="o" d="M199.686,92.865s4.065,9.216,11.68,8.258S227.2,86.9,227.2,86.9,220.775,76.881,199.686,92.865Z"/><path class="p" d="M206.618,98.058a6.213,6.213,0,1,0-6.213-6.213A6.213,6.213,0,0,0,206.618,98.058Z"/><path class="o" d="M212.05,96.444a2.031,2.031,0,1,0-2.03-2.031A2.031,2.031,0,0,0,212.05,96.444Z"/><path class="n" d="M197.187,91c.388.511,2.255,3.669,2.255,3.669s14.532-16.142,28.551-7.511C219.536,73.737,199.653,88.58,197.187,91Z"/><path class="n" d="M186.073,78.641c2.642,3.567,7.123,6.065,10.231,4.926s13.757-11.642,17.715-13.408,11.345.031,11.345.031a48.966,48.966,0,0,0-13.527-7.967C204.234,59.419,192.178,79.063,186.073,78.641Z"/><path class="d" d="M62.949,302.224a4.241,4.241,0,1,0-4.24-4.24A4.24,4.24,0,0,0,62.949,302.224Z"/><path class="i" d="M130.131,97.169c3.415,4.561,71.931-23.415,78.417-27.111a205.219,205.219,0,0,0,18.211-13.029l-50.395,1.429-20.907,8.218S126.71,92.61,130.131,97.169Z"/><path class="d" d="M71.412,318.858a4.241,4.241,0,1,0-4.24-4.24A4.24,4.24,0,0,0,71.412,318.858Z"/><path class="b" d="M50.884,269.748c1.872-.691.5-5.13-2.016-8.075s-8.245-4.7-12.112-4.694-1.59,6.068.65,9.2S48.862,270.494,50.884,269.748Z"/><path class="g" d="M275.8,64.537s-11.093-.7-14.03-1.3a215.857,215.857,0,0,0-27.133-3.779c-.47-.039-.956-.083-1.437-.116-19.539-1.4-50.527,1.1-77.737,7.342,0,0,1.332-29.8,3.946-33.008S187.288,14.02,191.34,12.81a41.543,41.543,0,0,1,7.613-.5h.013c7.489-.077,18.517.253,25.579.671a52.583,52.583,0,0,1,6.733.65c2.364.8,20.185,11.178,23.854,15.036S275.8,64.537,275.8,64.537Z"/><path class="i" d="M261.765,63.236a215.857,215.857,0,0,0-27.133-3.779c-.47-.039-.956-.083-1.437-.116-.392-10.515-3.01-21.206-5.815-25.04s-21.888-19.277-28.416-22c7.489-.076,18.517.254,25.579.672,6.14,4.733,20.618,16.928,23.728,20.668S257.4,52.442,261.765,63.236Z"/></svg>