<?xml version="1.0" encoding="utf-8"?>
<!DOCTYPE svg PUBLIC "-//W3C//DTD SVG 1.1//EN" "http://www.w3.org/Graphics/SVG/1.1/DTD/svg11.dtd" [
	<!ENTITY st0 "fill:#FFFFFF;">
	<!ENTITY st1 "fill:#8C8C8C;">
	<!ENTITY st2 "fill:#636F80;">
]>
<svg version="1.1" id="img" xmlns="http://www.w3.org/2000/svg" xmlns:xlink="http://www.w3.org/1999/xlink" x="0px" y="0px"
	 width="18px" height="18px" viewBox="0 0 18 18" style="enable-background:new 0 0 18 18;" xml:space="preserve">
<path id="size-scale.default" style="&st2;" d="M16.528,15c-0.959,0-1.367-1.079-1.925-2.857C14.024,10.297,13.303,8,10.985,8
	c-0.219,0-0.411,0.039-0.602,0.077C9.808,4.898,9.051,2,6.962,2c-2.39,0-3.036,3.792-3.661,7.459C2.88,11.928,2.356,15,1.37,15H1v1
	h16v-1H16.528z M9.638,9.627c0.377,2.213,0.723,4.225,1.415,5.373H7.242c0.482-0.683,0.787-1.625,1.08-2.559
	c0.398-1.27,0.757-2.267,1.309-2.855C9.633,9.6,9.635,9.614,9.638,9.627z M2.872,15c0.692-1.148,1.038-3.16,1.415-5.373
	C4.79,6.675,5.416,3,6.962,3c1.347,0,1.995,2.788,2.473,5.458c-1.139,0.759-1.645,2.337-2.067,3.684C6.81,13.921,6.401,15,5.442,15
	H2.872z M10.624,9.459c-0.023-0.135-0.046-0.271-0.07-0.406C10.69,9.023,10.83,9,10.985,9c1.473,0,2.011,1.363,2.664,3.442
	c0.293,0.933,0.597,1.874,1.079,2.558h-2.174C11.568,15,11.044,11.928,10.624,9.459z"/>
</svg>
