<?xml version="1.0" encoding="utf-8"?>
<!DOCTYPE svg PUBLIC "-//W3C//DTD SVG 1.1//EN" "http://www.w3.org/Graphics/SVG/1.1/DTD/svg11.dtd" [
	<!ENTITY st0 "fill:#FFFFFF;">
	<!ENTITY st1 "fill-rule:evenodd;clip-rule:evenodd;fill:#FFFFFF;">
	<!ENTITY st2 "fill:#808080;">
	<!ENTITY st3 "fill-rule:evenodd;clip-rule:evenodd;fill:#D9D9D9;">
	<!ENTITY st4 "fill:#71B1E4;">
	<!ENTITY st5 "fill-rule:evenodd;clip-rule:evenodd;fill:#F7931E;">
	<!ENTITY st6 "fill:#D9D9D9;">
	<!ENTITY st7 "fill:#F7931E;">
]>
<svg version="1.1" id="img" xmlns="http://www.w3.org/2000/svg" xmlns:xlink="http://www.w3.org/1999/xlink" x="0px" y="0px"
	 width="18px" height="18px" viewBox="0 0 18 18" style="enable-background:new 0 0 18 18;" xml:space="preserve">
<g id="admin.default">
	<path style="&st4;" d="M4.4,14.125h4.15c-0.017-0.167-0.05-0.329-0.05-0.5c0-2.301,1.563-4.218,3.678-4.801l0.154-0.722
		l0.101,0.067L14,8.348l-1.255-1.511L12.28,4.329l-1.073-1.102l-0.17-0.038l0.014-0.14l-0.354-0.083l0.536-0.427L10.246,2.18
		l-0.214,0.39l0.002-0.275l-1.038-0.17l0.2,0.49L8.713,2.502L8.66,2.646L7.838,2.459L5.431,3.617L4.054,6.32L2.318,7.409L4.35,7.651
		L4.753,7.53L4.85,9.326l0.623,0.062l0.172,0.672l-1.207,0.63l-0.804,1.848L3.41,12.648v-0.522H2v1.37h1.41l0.368-0.311l0.884-2.339
		l1.025-0.618l0.246,0.965l-0.732,0.253L4.4,14.125z"/>
	<path style="&st5;" d="M13.5,11.903c0.95,0,1.722,0.772,1.722,1.722s-0.772,1.722-1.722,1.722s-1.722-0.772-1.722-1.722
		S12.55,11.903,13.5,11.903z M14.183,10.192c-0.451-0.09-0.915-0.09-1.366,0l-0.274,0.774c-0.083,0.03-0.166,0.064-0.246,0.102
		l-0.741-0.354c-0.382,0.255-0.71,0.583-0.966,0.966l0.354,0.741c-0.038,0.08-0.072,0.162-0.102,0.246l-0.774,0.274
		c-0.09,0.451-0.09,0.915,0,1.366l0.774,0.274c0.03,0.083,0.064,0.166,0.102,0.246l-0.354,0.741c0.255,0.382,0.583,0.71,0.966,0.966
		l0.741-0.354c0.08,0.038,0.162,0.072,0.246,0.102l0.274,0.774c0.451,0.09,0.915,0.09,1.366,0l0.274-0.774
		c0.083-0.03,0.166-0.064,0.246-0.102l0.741,0.354c0.382-0.255,0.71-0.583,0.966-0.966l-0.354-0.741
		c0.038-0.08,0.072-0.162,0.102-0.246l0.774-0.274c0.09-0.451,0.09-0.915,0-1.366l-0.774-0.274c-0.03-0.083-0.064-0.166-0.102-0.246
		l0.354-0.741c-0.255-0.382-0.583-0.71-0.966-0.966l-0.741,0.354c-0.08-0.038-0.162-0.072-0.246-0.102L14.183,10.192z"/>
</g>
</svg>
