<?xml version="1.0" encoding="utf-8"?>
<!DOCTYPE svg PUBLIC "-//W3C//DTD SVG 1.1//EN" "http://www.w3.org/Graphics/SVG/1.1/DTD/svg11.dtd" [
	<!ENTITY st0 "fill:#FFFFFF;">
	<!ENTITY st1 "fill-rule:evenodd;clip-rule:evenodd;fill:#FFFFFF;">
	<!ENTITY st2 "fill:#808080;">
	<!ENTITY st3 "fill-rule:evenodd;clip-rule:evenodd;fill:#D9D9D9;">
	<!ENTITY st4 "fill:#71B1E4;">
	<!ENTITY st5 "fill-rule:evenodd;clip-rule:evenodd;fill:#F7931E;">
	<!ENTITY st6 "fill:#D9D9D9;">
	<!ENTITY st7 "fill:#F7931E;">
]>
<svg version="1.1" id="img" xmlns="http://www.w3.org/2000/svg" xmlns:xlink="http://www.w3.org/1999/xlink" x="0px" y="0px"
	 width="18px" height="18px" viewBox="0 0 18 18" style="enable-background:new 0 0 18 18;" xml:space="preserve">
<g id="properties.inverted">
	<path style="&st0;" d="M2,3v3h14V3H2z M4,5H3V4h1V5z"/>
	<path style="&st0;" d="M2,7v3h7.193c0.866-1.488,2.461-2.5,4.307-2.5c0.915,0,1.762,0.264,2.5,0.693V7H2z M4,9H3V8h1V9z"/>
	<path style="&st0;" d="M8.754,11H2v3h6.754C8.604,13.524,8.5,13.026,8.5,12.5S8.604,11.476,8.754,11z M4,13H3v-1h1V13z"/>
	<path style="&st1;" d="M13.5,10.778c0.95,0,1.722,0.772,1.722,1.722s-0.772,1.722-1.722,1.722s-1.722-0.772-1.722-1.722
		S12.55,10.778,13.5,10.778z M14.183,9.067c-0.451-0.09-0.915-0.09-1.366,0l-0.274,0.774c-0.083,0.03-0.166,0.064-0.246,0.102
		L11.556,9.59c-0.382,0.255-0.71,0.583-0.966,0.966l0.354,0.741c-0.038,0.08-0.072,0.162-0.102,0.246l-0.774,0.274
		c-0.09,0.451-0.09,0.915,0,1.366l0.774,0.274c0.03,0.083,0.064,0.166,0.102,0.246l-0.354,0.741c0.255,0.382,0.583,0.71,0.966,0.966
		l0.741-0.354c0.08,0.038,0.162,0.072,0.246,0.102l0.274,0.774c0.451,0.09,0.915,0.09,1.366,0l0.274-0.774
		c0.083-0.03,0.166-0.064,0.246-0.102l0.741,0.354c0.382-0.255,0.71-0.583,0.966-0.966l-0.354-0.741
		c0.038-0.08,0.072-0.162,0.102-0.246l0.774-0.274c0.09-0.451,0.09-0.915,0-1.366l-0.774-0.274c-0.03-0.083-0.064-0.166-0.102-0.246
		l0.354-0.741c-0.255-0.382-0.583-0.71-0.966-0.966l-0.741,0.354c-0.08-0.038-0.162-0.072-0.246-0.102L14.183,9.067z"/>
</g>
</svg>
