<?xml version="1.0" encoding="utf-8"?>
<!DOCTYPE svg PUBLIC "-//W3C//DTD SVG 1.1//EN" "http://www.w3.org/Graphics/SVG/1.1/DTD/svg11.dtd" [
	<!ENTITY st0 "fill:#FFFFFF;">
	<!ENTITY st1 "fill-rule:evenodd;clip-rule:evenodd;fill:#FFFFFF;">
	<!ENTITY st2 "fill:#808080;">
	<!ENTITY st3 "fill-rule:evenodd;clip-rule:evenodd;fill:#D9D9D9;">
	<!ENTITY st4 "fill:#71B1E4;">
	<!ENTITY st5 "fill-rule:evenodd;clip-rule:evenodd;fill:#F7931E;">
	<!ENTITY st6 "fill:#D9D9D9;">
	<!ENTITY st7 "fill:#F7931E;">
]>
<svg version="1.1" id="img" xmlns="http://www.w3.org/2000/svg" xmlns:xlink="http://www.w3.org/1999/xlink" x="0px" y="0px"
	 width="18px" height="18px" viewBox="0 0 18 18" style="enable-background:new 0 0 18 18;" xml:space="preserve">
<g id="sharedfolders.inverted">
	<path style="&st0;" d="M16,5H9.354c-0.27,0-0.53-0.107-0.721-0.298L6.721,2.298C6.53,2.107,6.271,2,6,2H2.02
		C1.457,2,1,2.457,1,3.02v1.49V5v10c0,0.552,0.448,1,1,1h14c0.552,0,1-0.448,1-1V6C17,5.448,16.552,5,16,5z M11,8
		c0.947,0,1.714,0.767,1.714,1.714S11.947,11.429,11,11.429s-1.714-0.767-1.714-1.714S10.053,8,11,8z M7,8
		c0.947,0,1.714,0.767,1.714,1.714S7.947,11.429,7,11.429s-1.714-0.767-1.714-1.714S6.053,8,7,8z M4,14c0-1.184,1.343-2.143,3-2.143
		s3,0.959,3,2.143H4z M11,14c0-0.782-0.36-1.48-0.942-2.024c0.298-0.071,0.611-0.118,0.942-0.118c1.657,0,3,0.959,3,2.143H11z"/>
</g>
</svg>
