<?xml version="1.0" encoding="utf-8"?>
<!DOCTYPE svg PUBLIC "-//W3C//DTD SVG 1.1//EN" "http://www.w3.org/Graphics/SVG/1.1/DTD/svg11.dtd" [
	<!ENTITY st0 "fill:#FFFFFF;">
	<!ENTITY st1 "fill-rule:evenodd;clip-rule:evenodd;fill:#FFFFFF;">
	<!ENTITY st2 "fill:#808080;">
	<!ENTITY st3 "fill-rule:evenodd;clip-rule:evenodd;fill:#D9D9D9;">
	<!ENTITY st4 "fill:#71B1E4;">
	<!ENTITY st5 "fill-rule:evenodd;clip-rule:evenodd;fill:#F7931E;">
	<!ENTITY st6 "fill:#D9D9D9;">
	<!ENTITY st7 "fill:#F7931E;">
]>
<svg version="1.1" id="img" xmlns="http://www.w3.org/2000/svg" xmlns:xlink="http://www.w3.org/1999/xlink" x="0px" y="0px"
	 width="18px" height="18px" viewBox="0 0 18 18" style="enable-background:new 0 0 18 18;" xml:space="preserve">
<g id="sharedfolders.default">
	<path style="&st7;" d="M8.633,4.702L6.721,2.298C6.53,2.107,6.271,2,6,2H2.02C1.457,2,1,2.457,1,3.02v1.49V5h8.354
		C9.084,5,8.824,4.893,8.633,4.702z"/>
	<path style="&st4;" d="M16,16H2c-0.552,0-1-0.448-1-1V5h15c0.552,0,1,0.448,1,1v9C17,15.552,16.552,16,16,16z"/>
	<circle style="&st0;" cx="11" cy="9.714" r="1.714"/>
	<circle style="&st0;" cx="7" cy="9.714" r="1.714"/>
	<path style="&st0;" d="M10.058,11.976c0.298-0.071,0.611-0.118,0.942-0.118c1.657,0,3,0.959,3,2.143h-3
		C11,13.218,10.64,12.52,10.058,11.976z"/>
	<path style="&st0;" d="M7,11.857c1.657,0,3,0.959,3,2.143H4C4,12.816,5.343,11.857,7,11.857z"/>
</g>
</svg>
