<?xml version="1.0" encoding="utf-8"?>
<!DOCTYPE svg PUBLIC "-//W3C//DTD SVG 1.1//EN" "http://www.w3.org/Graphics/SVG/1.1/DTD/svg11.dtd" [
	<!ENTITY st0 "fill:#FFFFFF;">
	<!ENTITY st1 "fill-rule:evenodd;clip-rule:evenodd;fill:#FFFFFF;">
	<!ENTITY st2 "fill:#808080;">
	<!ENTITY st3 "fill-rule:evenodd;clip-rule:evenodd;fill:#D9D9D9;">
	<!ENTITY st4 "fill:#71B1E4;">
	<!ENTITY st5 "fill-rule:evenodd;clip-rule:evenodd;fill:#F7931E;">
	<!ENTITY st6 "fill:#D9D9D9;">
	<!ENTITY st7 "fill:#F7931E;">
]>
<svg version="1.1" id="img" xmlns="http://www.w3.org/2000/svg" xmlns:xlink="http://www.w3.org/1999/xlink" x="0px" y="0px"
	 width="18px" height="18px" viewBox="0 0 18 18" style="enable-background:new 0 0 18 18;" xml:space="preserve">
<g id="users.disabled">
	<path style="&st6;" d="M16.555,13.776c-0.456-0.389-0.927-0.757-1.415-1.1c-0.481-0.339-0.979-0.647-1.487-0.937
		c-0.077-0.044-0.154-0.085-0.233-0.126c-0.046-0.024-0.066-0.058-0.066-0.115c0-0.088-0.001-0.176-0.001-0.264
		c0.001-0.005,0.004-0.01,0.004-0.016c0.002-0.226,0.001-0.452,0.002-0.677c0.008-0.097,0.028-0.188,0.073-0.277
		c0.026-0.052,0.044-0.107,0.065-0.161c0.018-0.044,0.038-0.087,0.054-0.132c0.003-0.01,0.008-0.019,0.012-0.028H13.56
		c0.036-0.107,0.068-0.216,0.088-0.329c0.008-0.041,0.022-0.076,0.063-0.096c0.029-0.014,0.053-0.042,0.076-0.067
		c0.093-0.1,0.152-0.224,0.194-0.354c0.062-0.19,0.114-0.383,0.165-0.577c0.05-0.189,0.068-0.383,0.045-0.578
		c-0.014-0.115-0.057-0.216-0.158-0.276c-0.036-0.021-0.076-0.035-0.116-0.052c0.002-0.012,0.003-0.022,0.005-0.03
		c0.061-0.224,0.092-0.454,0.106-0.685c0.015-0.233,0.014-0.468,0.007-0.701c-0.008-0.27-0.068-0.529-0.187-0.769
		c-0.094-0.189-0.217-0.358-0.408-0.431c-0.133-0.051-0.218-0.14-0.301-0.253c-0.174-0.236-0.406-0.394-0.656-0.522
		c-0.188-0.096-0.385-0.161-0.59-0.196c-0.208-0.035-0.415-0.03-0.625-0.009c-0.046,0.005-0.088,0.022-0.133,0.03
		c0.008,0.014,0.019,0.022,0.026,0.035c0.211,0.392,0.326,0.823,0.341,1.283c0.009,0.287,0.01,0.577-0.01,0.865
		c-0.008,0.115-0.019,0.226-0.033,0.332c0.115,0.176,0.189,0.382,0.218,0.61c0.043,0.338,0.016,0.684-0.083,1.031
		c-0.067,0.232-0.135,0.463-0.215,0.69c-0.098,0.279-0.235,0.514-0.417,0.71l-0.096,0.266l-0.027,0.059
		c0-0.001-0.112,0.265-0.14,0.321l0.002,0.407c0.61,0.327,1.152,0.646,1.65,0.971c0.582,0.378,1.169,0.799,1.745,1.252
		c0.57,0.448,0.884,1.067,0.905,1.791L15.007,15h1.992c-0.001-0.092,0.003-0.183,0-0.275C16.988,14.339,16.84,14.02,16.555,13.776z"
		/>
	<path style="&st2;" d="M14.005,15c-0.001-0.1,0.003-0.2,0-0.3c-0.013-0.422-0.187-0.77-0.524-1.035
		c-0.54-0.424-1.096-0.826-1.672-1.2c-0.569-0.37-1.157-0.706-1.758-1.022c-0.091-0.048-0.183-0.093-0.275-0.137
		c-0.054-0.026-0.078-0.064-0.078-0.126c0.001-0.096-0.001-0.192-0.001-0.288c0.001-0.006,0.005-0.011,0.005-0.017
		c0.003-0.246,0.001-0.493,0.003-0.739C9.715,10.03,9.739,9.93,9.792,9.833c0.031-0.056,0.052-0.117,0.077-0.176
		C9.89,9.609,9.914,9.563,9.932,9.514c0.004-0.01,0.01-0.02,0.014-0.031H9.941c0.042-0.117,0.08-0.236,0.104-0.359
		c0.009-0.044,0.025-0.083,0.074-0.104c0.034-0.015,0.063-0.045,0.09-0.073c0.109-0.109,0.18-0.244,0.23-0.387
		c0.073-0.207,0.135-0.418,0.196-0.63c0.059-0.206,0.081-0.417,0.053-0.631c-0.016-0.126-0.068-0.236-0.186-0.301
		c-0.042-0.023-0.09-0.038-0.137-0.057c0.003-0.014,0.003-0.024,0.006-0.033c0.072-0.244,0.108-0.496,0.126-0.747
		c0.017-0.254,0.017-0.51,0.008-0.765c-0.01-0.294-0.08-0.577-0.221-0.839c-0.111-0.206-0.256-0.39-0.482-0.47
		C9.646,4.031,9.546,3.934,9.448,3.811c-0.206-0.257-0.479-0.43-0.776-0.57C8.45,3.137,8.217,3.066,7.974,3.028
		c-0.245-0.038-0.49-0.033-0.738-0.01C6.867,3.052,6.527,3.165,6.21,3.352C5.878,3.548,5.582,3.787,5.315,4.066
		C4.821,4.581,4.534,5.183,4.513,5.9C4.506,6.133,4.515,6.365,4.574,6.593C4.599,6.69,4.617,6.788,4.641,6.885
		c0.011,0.044,0.003,0.067-0.045,0.08c-0.127,0.034-0.21,0.12-0.251,0.24C4.323,7.274,4.304,7.35,4.309,7.421
		c0.012,0.164,0.023,0.332,0.065,0.49c0.065,0.245,0.15,0.486,0.238,0.724C4.665,8.781,4.743,8.92,4.88,9.007
		c0.059,0.037,0.083,0.084,0.095,0.145C5.023,9.391,5.103,9.62,5.22,9.833c0.053,0.097,0.077,0.197,0.086,0.302
		c0.002,0.246,0,0.493,0.003,0.739c0,0.006,0.005,0.011,0.005,0.017c0.001,0.096-0.001,0.192-0.001,0.288
		c0,0.062-0.024,0.1-0.078,0.126c-0.092,0.044-0.184,0.089-0.275,0.137c-0.6,0.316-1.188,0.653-1.757,1.022
		c-0.576,0.374-1.132,0.776-1.672,1.2C1.194,13.93,1.02,14.278,1.007,14.7c-0.003,0.1,0.001,0.2,0,0.3H14.005z"/>
</g>
</svg>
